<svg width="512" height="512" viewBox="0 0 512 512" fill="none" xmlns="http://www.w3.org/2000/svg">
<path fill-rule="evenodd" clip-rule="evenodd" d="M178.984 77.1542C178.191 79.5309 179.476 82.0998 181.853 82.892C192.66 86.4946 198.42 93.0155 200.47 98.7366C197.845 98.627 195.245 98.5886 192.672 98.6158C188.83 97.9876 185.484 98.1327 182.715 99.0421C182.708 99.0442 182.702 99.0463 182.695 99.0485C162.636 100.571 144.643 105.842 130.365 111.854C124.136 114.853 118.294 118.442 112.845 122.55C111.907 121.494 110.889 120.538 109.827 119.699C98.3072 110.586 91.9534 125.107 103.383 129.123C103.763 129.257 104.133 129.392 104.492 129.529C98.276 135.264 92.6676 141.734 87.6797 148.805C82.4105 145.174 76.323 143.655 70.7224 143.545C52.4873 143.189 57.1121 162.319 71.4293 157.705C75.829 156.286 79.7389 155.629 83.1729 155.626C53.9529 202.869 49.9526 272.654 74.43 330.447L75.4955 341.529C76.1363 348.193 80.9251 353.458 87.0618 355.015C90.9996 361.42 95.3519 367.581 100.124 373.438C140.132 422.537 235.298 438.852 312.763 422.355L366.649 428.719C377.98 430.057 388.25 421.956 389.589 410.625L391.706 392.699L407.128 394.52C415.592 395.52 423.265 389.468 424.264 381.003L429.597 335.852C444.436 302.939 448.112 265.785 441.693 235.872C451.05 239.738 458.261 227.255 443.993 221.531C441.744 220.629 439.373 219.964 436.928 219.633C432.971 209.29 427.534 200.359 420.678 193.504C397.142 169.968 381.119 168.971 363.733 167.89C352.208 167.174 340.084 166.42 324.775 159.038C327.264 156.805 328.897 153.748 328.784 150.388C328.64 146.088 325.703 142.774 321.456 141.379C317.419 140.054 312.159 140.352 305.922 142.301C304.936 142.609 303.987 142.947 303.075 143.313C304.223 137.55 309.33 130.334 319.989 126.08C320.515 128.004 321.317 129.831 322.421 131.492C325.578 136.244 330.839 139.071 337.516 139.071C342.218 139.071 346.191 137.067 348.273 133.439C350.297 129.913 350.047 125.663 348.05 122.194C344.917 116.753 338.236 113.706 329.163 114.514C331.389 107.27 337.898 99.5725 349.255 96.5839C351.677 95.9463 353.125 93.4654 352.487 91.0427C351.849 88.6199 349.369 87.1727 346.946 87.8103C330.881 92.038 321.64 104.019 319.629 115.413C319.558 115.816 319.496 116.22 319.443 116.625C306.158 121.055 297.87 129.688 294.934 138.662C294.513 138.299 294.091 137.931 293.666 137.559C265.83 113.116 236.891 102.354 210.041 99.4519C208.153 89.4056 199.549 79.2278 184.721 74.2853C182.345 73.493 179.776 74.7775 178.984 77.1542ZM315.413 153.899C313.711 152.854 311.97 151.726 310.188 150.508C314.565 149.344 317.252 149.548 318.626 149.999C319.35 150.237 319.608 150.504 319.668 150.577C319.714 150.632 319.715 150.649 319.717 150.692C319.721 150.819 319.607 151.728 318.162 152.72C317.502 153.173 316.592 153.606 315.413 153.899ZM400.12 379.32C403.978 375.427 407.576 371.316 410.918 367.026L410.242 372.745C409.742 376.978 405.906 380.003 401.674 379.504L400.12 379.32ZM329.978 126.472C329.451 125.68 329.027 124.734 328.735 123.66C336.218 122.603 339.381 125.32 340.188 126.722C340.778 127.746 340.628 128.534 340.405 128.923C340.24 129.21 339.618 129.998 337.516 129.998C333.609 129.998 331.31 128.477 329.978 126.472Z" fill="#7B88FF"/>
<path d="M319.522 150.698L319.668 150.577M319.522 150.698L314.207 153.149C314.611 153.403 315.013 153.654 315.413 153.899C315.533 153.869 315.651 153.838 315.766 153.805C316.496 153.597 317.113 153.335 317.623 153.052C317.818 152.944 317.998 152.832 318.162 152.72C319.607 151.728 319.721 150.819 319.717 150.692C319.715 150.649 319.714 150.632 319.668 150.577M319.522 150.698L319.668 150.577M319.668 150.577C319.608 150.504 319.35 150.237 318.626 149.999C318.42 149.931 318.185 149.87 317.92 149.817" stroke="white" stroke-width="12.0964"/>
<path fill-rule="evenodd" clip-rule="evenodd" d="M178.984 77.1542C178.191 79.5309 179.476 82.0998 181.853 82.892C192.66 86.4946 198.42 93.0155 200.47 98.7366C197.845 98.627 195.245 98.5886 192.672 98.6158C188.83 97.9876 185.484 98.1327 182.715 99.0421C182.708 99.0442 182.702 99.0463 182.695 99.0485C162.636 100.571 144.643 105.842 130.365 111.854C124.136 114.853 118.294 118.442 112.845 122.55C111.907 121.494 110.889 120.538 109.827 119.699C98.3072 110.586 91.9534 125.107 103.383 129.123C103.763 129.257 104.133 129.392 104.492 129.529C98.276 135.264 92.6676 141.734 87.6797 148.805C82.4105 145.174 76.323 143.655 70.7224 143.545C52.4873 143.189 57.1121 162.319 71.4293 157.705C75.829 156.286 79.7389 155.629 83.1729 155.626C53.9529 202.869 49.9526 272.654 74.43 330.447L75.4955 341.529C76.1363 348.193 80.9251 353.458 87.0618 355.015C90.9996 361.42 95.3519 367.581 100.124 373.438C140.132 422.537 235.298 438.852 312.763 422.355L366.649 428.719C377.98 430.057 388.25 421.956 389.589 410.625L391.706 392.699L407.128 394.52C415.592 395.52 423.265 389.468 424.264 381.003L429.597 335.852C444.436 302.939 448.112 265.785 441.693 235.872C451.05 239.738 458.261 227.255 443.993 221.531C441.744 220.629 439.373 219.964 436.928 219.633C432.971 209.29 427.534 200.359 420.678 193.504C397.142 169.968 381.119 168.971 363.733 167.89C352.208 167.174 340.084 166.42 324.775 159.038C327.264 156.805 328.897 153.748 328.784 150.388C328.64 146.088 325.703 142.774 321.456 141.379C317.419 140.054 312.159 140.352 305.922 142.301C304.936 142.609 303.987 142.947 303.075 143.313C304.223 137.55 309.33 130.334 319.989 126.08C320.515 128.004 321.317 129.831 322.421 131.492C325.578 136.244 330.839 139.071 337.516 139.071C342.218 139.071 346.191 137.067 348.273 133.439C350.297 129.913 350.047 125.663 348.05 122.194C344.917 116.753 338.236 113.706 329.163 114.514C331.389 107.27 337.898 99.5725 349.255 96.5839C351.677 95.9463 353.125 93.4654 352.487 91.0427C351.849 88.6199 349.369 87.1727 346.946 87.8103C330.881 92.038 321.64 104.019 319.629 115.413C319.558 115.816 319.496 116.22 319.443 116.625C306.158 121.055 297.87 129.688 294.934 138.662C294.513 138.299 294.091 137.931 293.666 137.559C265.83 113.116 236.891 102.354 210.041 99.4519C208.153 89.4056 199.549 79.2278 184.721 74.2853C182.345 73.493 179.776 74.7775 178.984 77.1542ZM315.413 153.899C313.711 152.854 311.97 151.726 310.188 150.508C314.565 149.344 317.252 149.548 318.626 149.999C319.35 150.237 319.608 150.504 319.668 150.577C319.714 150.632 319.715 150.649 319.717 150.692C319.721 150.819 319.607 151.728 318.162 152.72C317.502 153.173 316.592 153.606 315.413 153.899ZM400.12 379.32C403.978 375.427 407.576 371.316 410.918 367.026L410.242 372.745C409.742 376.978 405.906 380.003 401.674 379.504L400.12 379.32ZM329.978 126.472C329.451 125.68 329.027 124.734 328.735 123.66C336.218 122.603 339.381 125.32 340.188 126.722C340.778 127.746 340.628 128.534 340.405 128.923C340.24 129.21 339.618 129.998 337.516 129.998C333.609 129.998 331.31 128.477 329.978 126.472Z" fill="#7B88FF"/>
<path fill-rule="evenodd" clip-rule="evenodd" d="M182.714 99.0407C185.484 98.1313 188.829 97.9862 192.672 98.6144C193.03 98.6106 193.39 98.6081 193.749 98.6068C195.97 98.5993 198.21 98.6408 200.469 98.7352C199.75 96.7283 198.574 94.6231 196.884 92.5799C193.757 88.7983 188.868 85.2295 181.852 82.8906C179.475 82.0983 178.191 79.5294 178.983 77.1527C179.775 74.7761 182.344 73.4916 184.721 74.2838C199.548 79.2263 208.152 89.4041 210.04 99.4504C235.728 102.227 263.326 112.198 290.043 134.458C291.253 135.466 292.46 136.499 293.666 137.557C294.09 137.93 294.512 138.298 294.933 138.661C295.51 136.898 296.293 135.148 297.28 133.44C297.28 133.44 297.28 133.44 297.28 133.44C297.377 133.274 297.475 133.107 297.575 132.941C301.676 126.158 309.022 120.098 319.442 116.623C319.495 116.219 319.557 115.814 319.628 115.411C321.639 104.018 330.88 92.0365 346.945 87.8088C349.368 87.1713 351.849 88.6185 352.486 91.0412C353.124 93.464 351.676 95.9449 349.254 96.5824C341.128 98.7208 335.484 103.27 332.115 108.339C330.775 110.354 329.795 112.452 329.162 114.513C331.454 114.309 333.592 114.35 335.56 114.615C341.383 115.397 345.707 118.126 348.049 122.193C350.046 125.662 350.297 129.911 348.272 133.438C346.19 137.065 342.217 139.069 337.515 139.069C330.838 139.069 325.577 136.243 322.42 131.491C322.131 131.056 321.863 130.61 321.615 130.153C320.915 128.866 320.377 127.499 319.989 126.079C317.958 126.889 316.129 127.807 314.49 128.802C311.04 130.896 308.435 133.332 306.57 135.824C305.87 136.76 305.274 137.705 304.778 138.642C303.929 140.245 303.37 141.827 303.074 143.312C303.986 142.946 304.935 142.608 305.921 142.3C307.437 141.826 308.895 141.45 310.291 141.171C314.642 140.302 318.399 140.375 321.455 141.378C325.702 142.773 328.639 146.087 328.783 150.387C328.825 151.636 328.625 152.844 328.23 153.983C327.563 155.906 326.337 157.634 324.774 159.036C326.794 160.01 328.758 160.869 330.673 161.627C343.272 166.617 353.728 167.267 363.732 167.889C381.118 168.97 397.141 169.966 420.678 193.503C427.533 200.358 432.97 209.289 436.927 219.631C439.372 219.963 441.743 220.627 443.992 221.53C454.752 225.846 453.297 234.006 447.918 236.1C446.164 236.783 443.993 236.821 441.692 235.87C442.155 238.03 442.566 240.228 442.924 242.459C447.522 271.127 443.364 305.314 429.596 335.85L424.264 381.002C423.264 389.467 415.592 395.518 407.127 394.519L391.705 392.697L389.588 410.623C388.25 421.954 377.979 430.055 366.648 428.717L312.762 422.354C235.297 438.85 140.131 422.536 100.124 373.436C95.351 367.579 90.9987 361.418 87.0609 355.014C80.9241 353.456 76.1354 348.191 75.4946 341.527L74.429 330.445C51.0249 275.186 53.6559 208.964 79.4741 161.966C80.6581 159.811 81.8908 157.696 83.172 155.625C80.8579 155.626 78.3277 155.926 75.5771 156.555C74.2459 156.859 72.8632 157.241 71.4283 157.703C57.1112 162.317 52.4864 143.187 70.7214 143.544C76.3221 143.653 82.4095 145.173 87.6787 148.804C91.3649 143.578 95.39 138.681 99.7488 134.165C100.69 133.191 101.646 132.234 102.618 131.295C103.236 130.699 103.861 130.109 104.491 129.527C104.132 129.39 103.762 129.255 103.382 129.122C101.446 128.442 100.021 127.46 99.044 126.343C94.2527 120.865 100.257 112.128 109.826 119.697C110.888 120.537 111.906 121.493 112.844 122.548C118.293 118.441 124.135 114.851 130.364 111.852C144.642 105.841 162.635 100.569 182.694 99.047L182.714 99.0407ZM181.559 93.069C183.435 92.5301 185.401 92.2518 187.426 92.1943C185.413 90.861 182.943 89.6297 179.939 88.6284C174.393 86.7798 171.396 80.7857 173.245 75.2401C175.093 69.6945 181.088 66.6975 186.633 68.546C201.174 73.393 211.067 83.0583 214.818 93.9415C240.135 97.392 266.977 107.677 292.913 128.983C297.396 121.998 304.624 115.994 314.14 112.135C317.303 99.1582 328.063 86.5236 345.406 81.9598C351.059 80.4722 356.848 83.8489 358.335 89.502C359.823 95.1551 356.446 100.944 350.793 102.431C345.623 103.792 341.808 106.29 339.16 109.143C345.217 110.569 350.251 113.897 353.29 119.175C356.22 124.262 356.749 130.82 353.518 136.449C350.15 142.317 343.931 145.117 337.515 145.117C336.211 145.117 334.936 145.031 333.698 144.86C334.364 146.476 334.764 148.257 334.828 150.184C334.902 152.393 334.517 154.465 333.805 156.357C345.042 160.649 354.465 161.253 364.108 161.853L364.378 161.869C372.929 162.401 382.024 162.966 391.971 166.593C402.101 170.287 412.715 176.986 424.954 189.226C431.796 196.067 437.232 204.647 441.31 214.32C443.017 214.741 444.665 215.283 446.244 215.916C450.63 217.676 454.06 220.23 456.112 223.548C458.217 226.952 458.637 230.835 457.402 234.318C456.004 238.261 452.835 241.014 448.992 242.109C453.589 271.603 449.322 306.35 435.494 337.477L430.27 381.711C428.879 393.493 418.2 401.916 406.417 400.525L397.002 399.413L395.594 411.333C393.864 425.981 380.587 436.454 365.939 434.724L313.039 428.477C273.738 436.693 230.127 436.672 191.142 428.41C151.953 420.105 116.648 403.291 95.4348 377.257C90.9629 371.769 86.8511 366.028 83.094 360.083C75.774 357.24 70.2784 350.471 69.4742 342.106L68.4968 331.941C45.6212 277.208 47.3581 212.057 71.6093 163.925C62.3778 166.085 54.1946 161.286 52.8957 153.177C52.2348 149.05 53.6612 144.754 57.1394 141.706C60.5233 138.741 65.3026 137.389 70.8397 137.497C75.7047 137.592 80.9712 138.594 85.9832 140.906C88.7477 137.305 91.6818 133.865 94.7848 130.604C91.1834 126.737 90.1286 121.379 92.664 116.635C94.4406 113.311 97.8084 111.016 101.93 110.727C105.833 110.454 109.745 111.994 113.324 114.755C117.883 111.631 122.69 108.835 127.741 106.403L127.877 106.337L128.017 106.278C142.622 100.129 161.01 94.7151 181.559 93.069ZM314.206 153.147C312.89 152.318 311.551 151.438 310.187 150.507C311.527 150.151 312.708 149.923 313.742 149.79C313.959 149.763 314.17 149.739 314.374 149.719C314.99 149.66 315.548 149.637 316.05 149.642C316.791 149.648 317.411 149.715 317.919 149.815C318.185 149.868 318.419 149.93 318.625 149.997C319.349 150.235 319.607 150.503 319.667 150.576C319.713 150.631 319.715 150.648 319.716 150.69C319.72 150.817 319.606 151.727 318.161 152.718C317.997 152.831 317.818 152.942 317.622 153.051C317.112 153.334 316.495 153.596 315.765 153.804C315.765 153.804 315.765 153.804 315.765 153.804C315.65 153.837 315.532 153.868 315.412 153.898C315.012 153.652 314.61 153.402 314.206 153.147ZM316.742 134.531C316.844 134.463 316.948 134.395 317.053 134.328C317.099 134.401 317.145 134.474 317.192 134.547C317.042 134.541 316.892 134.535 316.742 134.531ZM410.917 367.024C409.519 368.819 408.075 370.583 406.587 372.312C405.076 374.069 403.517 375.79 401.913 377.474C401.321 378.094 400.723 378.709 400.119 379.319L401.673 379.502C405.905 380.002 409.742 376.976 410.241 372.744L410.917 367.024ZM334.322 123.584C332.808 123.364 330.963 123.344 328.734 123.659C329.026 124.733 329.45 125.678 329.977 126.471C330.986 127.99 332.55 129.231 334.949 129.744C335.716 129.908 336.568 129.997 337.515 129.997C339.617 129.997 340.239 129.209 340.404 128.921C340.627 128.533 340.777 127.744 340.187 126.72C339.826 126.093 338.994 125.203 337.515 124.506C337.307 124.407 337.086 124.313 336.852 124.224C336.137 123.951 335.299 123.726 334.322 123.584Z" fill="black"/>
<path d="M71.4274 157.701C83.5849 153.783 92.0014 155.668 96.9754 161.147C97.2175 161.414 97.7337 161.118 97.5828 160.791C91.7887 148.232 80.5108 143.734 70.7205 143.542C52.4854 143.186 57.1102 162.316 71.4274 157.701Z" fill="#FFE7AA"/>
<path d="M438.136 233.623C431.559 227.938 422.592 224.994 415.995 227.513C415.658 227.642 415.26 227.1 415.526 226.856C425.067 218.107 435.41 218.087 443.992 221.53C460.036 227.966 448.921 242.948 438.136 233.623Z" fill="#FFA776"/>
<path d="M103.381 129.121C112.63 132.371 115.587 136.583 115.981 141.954C116.029 142.609 116.916 142.813 117.135 142.194C120.427 132.889 115.828 124.445 109.825 119.697C98.3052 110.585 91.9514 125.106 103.381 129.121Z" fill="#FFA776"/>
<path fill-rule="evenodd" clip-rule="evenodd" d="M249.897 125.543C250.6 125.286 251.378 125.648 251.635 126.351L253.524 131.525L255.848 126.528C256.164 125.849 256.97 125.555 257.649 125.87C258.328 126.186 258.622 126.992 258.306 127.671L255.979 132.676L261.166 130.782C261.869 130.525 262.648 130.887 262.904 131.59C263.161 132.293 262.799 133.071 262.096 133.328L256.938 135.211L260.764 136.991C261.443 137.306 261.737 138.113 261.421 138.791C261.106 139.47 260.3 139.764 259.621 139.449L255.762 137.654L257.662 142.858C257.919 143.561 257.557 144.339 256.853 144.596C256.15 144.853 255.372 144.491 255.115 143.787L253.222 138.602L250.912 143.57C250.596 144.248 249.79 144.543 249.111 144.227C248.433 143.911 248.138 143.105 248.454 142.427L250.761 137.467L245.589 139.355C244.886 139.612 244.108 139.25 243.851 138.546C243.594 137.843 243.956 137.065 244.66 136.808L249.86 134.909L245.425 132.847C244.747 132.531 244.452 131.725 244.768 131.046C245.084 130.367 245.89 130.073 246.569 130.389L250.971 132.436L249.089 127.281C248.832 126.577 249.194 125.799 249.897 125.543Z" fill="white"/>
<path fill-rule="evenodd" clip-rule="evenodd" d="M79.4287 221.057C79.8407 221.259 80.0111 221.757 79.8093 222.169L78.3241 225.201L81.52 224.106C81.954 223.958 82.4263 224.189 82.5749 224.623C82.7236 225.057 82.4922 225.529 82.0582 225.678L78.8576 226.774L81.8977 228.263C82.3097 228.465 82.4801 228.963 82.2783 229.375C82.0764 229.787 81.5789 229.957 81.1669 229.755L78.145 228.275L78.9823 230.72C79.131 231.154 78.8996 231.627 78.4656 231.775C78.0315 231.924 77.5592 231.692 77.4106 231.258L76.5655 228.791L75.0719 231.84C74.8701 232.252 74.3725 232.422 73.9605 232.22C73.5485 232.019 73.3782 231.521 73.58 231.109L75.0677 228.072L71.892 229.159C71.458 229.308 70.9856 229.077 70.837 228.642C70.6884 228.208 70.9198 227.736 71.3538 227.587L74.5249 226.502L71.4956 225.018C71.0836 224.816 70.9132 224.318 71.115 223.906C71.3168 223.494 71.8144 223.324 72.2264 223.526L75.2739 225.019L74.3024 222.182C74.1538 221.748 74.3851 221.275 74.8191 221.127C75.2532 220.978 75.7255 221.209 75.8741 221.643L76.8379 224.458L78.3173 221.438C78.5191 221.026 79.0167 220.855 79.4287 221.057Z" fill="white"/>
<path fill-rule="evenodd" clip-rule="evenodd" d="M231.061 398.993C231.35 399.642 231.059 400.402 230.41 400.691L225.637 402.816L230.516 404.689C231.179 404.943 231.51 405.687 231.256 406.35C231.001 407.013 230.257 407.344 229.594 407.09L224.708 405.214L226.838 410C227.127 410.649 226.835 411.409 226.187 411.698C225.538 411.986 224.778 411.695 224.489 411.046L222.37 406.288L220.936 410.025C220.681 410.688 219.937 411.02 219.274 410.765C218.611 410.511 218.28 409.767 218.535 409.104L219.982 405.334L215.179 407.472C214.53 407.761 213.77 407.469 213.481 406.82C213.192 406.171 213.484 405.411 214.133 405.122L218.918 402.992L214.063 401.128C213.4 400.874 213.069 400.13 213.324 399.467C213.578 398.804 214.322 398.472 214.985 398.727L219.832 400.588L217.708 395.815C217.419 395.166 217.71 394.406 218.359 394.117C219.008 393.828 219.768 394.12 220.057 394.769L222.194 399.569L223.857 395.237C224.112 394.574 224.856 394.243 225.519 394.497C226.182 394.752 226.513 395.496 226.259 396.159L224.608 400.459L229.364 398.341C230.012 398.052 230.773 398.344 231.061 398.993Z" fill="white"/>
<path fill-rule="evenodd" clip-rule="evenodd" d="M436.272 267.313C436.684 267.515 436.854 268.013 436.652 268.425L435.167 271.457L438.363 270.362C438.797 270.214 439.269 270.445 439.418 270.879C439.567 271.313 439.335 271.786 438.901 271.934L435.701 273.03L438.741 274.519C439.153 274.721 439.323 275.219 439.121 275.631C438.919 276.043 438.422 276.213 438.01 276.011L434.988 274.531L435.825 276.976C435.974 277.41 435.743 277.883 435.309 278.031C434.875 278.18 434.402 277.949 434.254 277.515L433.409 275.047L431.915 278.096C431.713 278.508 431.216 278.678 430.804 278.477C430.392 278.275 430.221 277.777 430.423 277.365L431.911 274.328L428.735 275.415C428.301 275.564 427.829 275.333 427.68 274.899C427.531 274.465 427.763 273.992 428.197 273.844L431.368 272.758L428.339 271.274C427.927 271.072 427.756 270.574 427.958 270.162C428.16 269.75 428.657 269.58 429.069 269.782L432.117 271.275L431.145 268.438C430.997 268.004 431.228 267.531 431.662 267.383C432.096 267.234 432.569 267.465 432.717 267.899L433.681 270.714L435.16 267.694C435.362 267.282 435.86 267.112 436.272 267.313Z" fill="white"/>
<path fill-rule="evenodd" clip-rule="evenodd" d="M385.238 184.242C384.845 183.19 383.673 182.656 382.622 183.048C381.57 183.441 381.035 184.613 381.428 185.664L384.395 193.61L376.681 190.091C375.66 189.625 374.454 190.075 373.988 191.097C373.522 192.118 373.972 193.324 374.994 193.79L382.682 197.297L375.667 199.917C374.615 200.31 374.081 201.481 374.473 202.533C374.866 203.585 376.037 204.119 377.089 203.727L384.161 201.086L380.619 208.851C380.153 209.873 380.603 211.079 381.624 211.545C382.646 212.011 383.852 211.561 384.318 210.539L387.837 202.826L390.784 210.718C391.177 211.77 392.348 212.304 393.4 211.912C394.452 211.519 394.987 210.347 394.594 209.296L391.639 201.384L399.379 204.914C400.4 205.38 401.606 204.93 402.072 203.908C402.538 202.887 402.088 201.681 401.066 201.215L393.301 197.672L399.459 195.373C400.511 194.98 401.045 193.809 400.652 192.757C400.259 191.705 399.088 191.171 398.036 191.563L391.935 193.842L395.442 186.154C395.908 185.133 395.458 183.927 394.436 183.461C393.415 182.995 392.209 183.445 391.743 184.467L388.212 192.206L385.238 184.242Z" fill="white"/>
<path fill-rule="evenodd" clip-rule="evenodd" d="M396.731 264.586C402.233 265.235 406.167 270.222 405.517 275.724L403.566 292.24L418.989 294.061C427.453 295.061 433.505 302.733 432.505 311.198L424.262 381.002C423.262 389.467 415.59 395.518 407.125 394.519L391.703 392.698L389.586 410.624C388.248 421.955 377.978 430.056 366.646 428.718L274.448 417.83C263.116 416.491 255.015 406.221 256.354 394.89L272.284 259.991C272.934 254.489 277.921 250.555 283.423 251.205L396.731 264.586ZM393.377 378.523L401.965 305.799L410.26 306.779C414.492 307.278 417.518 311.115 417.018 315.347L410.24 372.744C409.74 376.976 405.904 380.002 401.672 379.502L393.377 378.523Z" fill="#D4F0FF"/>
<path d="M395.446 275.762C396.096 270.26 392.162 265.273 386.66 264.624L293.185 253.585C287.683 252.935 282.696 256.869 282.046 262.371L267.992 381.378C266.654 392.71 274.755 402.98 286.086 404.318L358.452 412.864C369.783 414.202 380.054 406.101 381.392 394.77L395.446 275.762Z" fill="#FFD467"/>
<path fill-rule="evenodd" clip-rule="evenodd" d="M384.1 371.841C382.995 381.153 372.92 387.616 361.592 386.278L289.226 377.733C277.895 376.394 269.601 367.758 270.701 358.442L267.992 381.379C266.654 392.71 274.755 402.981 286.086 404.319L358.452 412.865C369.784 414.203 380.054 406.102 381.392 394.771L384.1 371.841Z" fill="#FBC745"/>
<path fill-rule="evenodd" clip-rule="evenodd" d="M398.449 276.117C399.295 268.956 394.175 262.466 387.015 261.62L293.539 250.581C286.379 249.736 279.888 254.855 279.043 262.016L264.989 381.024C263.455 394.014 272.741 405.787 285.731 407.321L358.097 415.867C371.087 417.401 382.861 408.115 384.395 395.125L398.449 276.117ZM386.305 267.627C390.149 268.081 392.897 271.564 392.443 275.408L378.389 394.415C377.246 404.088 368.479 411.003 358.807 409.861L286.441 401.315C276.768 400.173 269.853 391.406 270.995 381.733L285.049 262.725C285.503 258.882 288.987 256.134 292.83 256.588L386.305 267.627Z" fill="black"/>
<circle cx="6.82646" cy="6.82646" r="6.82646" transform="matrix(-0.993099 -0.117278 -0.117278 0.993099 349.649 319.62)" fill="#FFF5D2" fill-opacity="0.2"/>
<circle cx="2.48235" cy="2.48235" r="2.48235" transform="matrix(-0.993099 -0.117278 -0.117278 0.993099 324.278 301.626)" fill="#FFF5D2" fill-opacity="0.4"/>
<circle cx="2.48235" cy="2.48235" r="2.48235" transform="matrix(-0.993099 -0.117278 -0.117278 0.993099 295.998 359.831)" fill="#FFF5D2" fill-opacity="0.4"/>
<circle cx="1.86176" cy="1.86176" r="1.86176" transform="matrix(-0.993099 -0.117278 -0.117278 0.993099 379.069 314.023)" fill="#FFF5D2" fill-opacity="0.4"/>
<circle cx="2.48235" cy="2.48235" r="2.48235" transform="matrix(-0.993099 -0.117278 -0.117278 0.993099 321.965 289.479)" fill="#FFF5D2" fill-opacity="0.4"/>
<circle cx="1.55147" cy="1.55147" r="1.55147" transform="matrix(-0.993099 -0.117278 -0.117278 0.993099 314.228 392.422)" fill="#FFF5D2" fill-opacity="0.4"/>
<g opacity="0.6">
<rect x="347.942" y="321.164" width="28.6189" height="28.6189" rx="6.88651" transform="rotate(-85.3699 347.942 321.164)" fill="#F9FBFF" fill-opacity="0.5"/>
<rect x="349.797" y="319.587" width="25.1756" height="25.1756" rx="5.16489" transform="rotate(-85.3699 349.797 319.587)" stroke="#E3F0FF" stroke-opacity="0.5" stroke-width="3.44326"/>
</g>
<g opacity="0.6">
<rect x="285.962" y="332.637" width="31.9731" height="31.9731" rx="6.88651" transform="rotate(-68.1137 285.962 332.637)" fill="#F9FBFF" fill-opacity="0.5"/>
<rect x="288.202" y="331.682" width="28.5298" height="28.5298" rx="5.16489" transform="rotate(-68.1137 288.202 331.682)" stroke="#E3F0FF" stroke-opacity="0.5" stroke-width="3.44326"/>
</g>
<g opacity="0.8" filter="url(#filter0_i_39_1651)">
<rect x="295.549" y="282.309" width="17.4526" height="107.046" rx="8.72632" transform="rotate(6.99199 295.549 282.309)" fill="white" fill-opacity="0.12"/>
</g>
<g opacity="0.8" filter="url(#filter1_i_39_1651)">
<rect x="328.12" y="286.538" width="17.4526" height="107.046" rx="8.72632" transform="rotate(6.99199 328.12 286.538)" fill="white" fill-opacity="0.12"/>
</g>
<g opacity="0.8" filter="url(#filter2_i_39_1651)">
<rect x="360.691" y="290.77" width="17.4526" height="107.046" rx="8.72632" transform="rotate(6.99199 360.691 290.77)" fill="white" fill-opacity="0.12"/>
</g>
<path d="M383.76 278.648C395.139 279.848 404.553 276.212 407.203 272.798C412.585 273.433 417.72 271.106 419.728 266.225C423.815 256.292 417.838 249.066 410.113 248.154C410.996 244.926 409.4 232.132 399.506 229.793C389.177 227.351 379.307 228.413 373.416 234.936C373.1 231.659 364.867 223.131 352.841 221.711C339.174 220.097 329.962 225.362 325.718 230.691C325.415 228.157 320.338 216.448 308.342 213.443C291.126 209.13 281.463 221.948 280.758 226.215C274.474 225.01 264.97 227.493 263.58 239.267C262.189 251.042 270.93 255.872 277.428 254.418C276.975 258.252 280.036 262.756 283.691 265.153C290.401 269.555 300.429 272.22 310.754 265.572C311.328 270.915 323.071 284.497 334.167 287.473C343.12 289.874 352.23 287.556 359.49 283.987L358.63 290.743C357.814 297.154 362.348 303.012 368.759 303.828C375.169 304.644 381.027 300.109 381.843 293.699L383.76 278.648Z" fill="white"/>
<path fill-rule="evenodd" clip-rule="evenodd" d="M411.244 278.805L410.283 286.941L419.699 288.053C431.481 289.445 439.904 300.124 438.513 311.906L430.269 381.71C428.878 393.492 418.199 401.915 406.417 400.524L397.001 399.412L395.593 411.331C393.863 425.98 380.586 436.453 365.938 434.723L273.739 423.835C259.09 422.105 248.618 408.827 250.348 394.179L266.278 259.28C266.314 258.98 266.357 258.683 266.409 258.389C264.727 257.426 263.165 256.158 261.821 254.578C258.408 250.566 256.81 245.036 257.576 238.556C258.477 230.924 262.194 225.614 267.293 222.645C270.4 220.835 273.782 220.031 276.943 219.908C277.298 219.328 277.679 218.766 278.072 218.23C279.724 215.982 282.017 213.629 284.936 211.624C290.891 207.533 299.376 204.959 309.814 207.574C317.478 209.494 322.813 214.171 326.197 218.535C326.799 219.312 327.346 220.087 327.841 220.847C334.073 216.881 342.8 214.433 353.553 215.703C360.793 216.558 366.849 219.539 371.167 222.799C372.558 223.849 373.811 224.96 374.893 226.085C382.704 221.615 392.82 221.437 401.853 225.08C408.749 227.861 412.724 232.687 414.716 237.481C415.573 239.544 416.081 241.644 416.298 243.612C419.613 245.044 422.518 247.414 424.501 250.631C427.605 255.667 427.997 262.027 425.323 268.524C422.739 274.806 417.128 278.113 411.244 278.805ZM414.048 249.228C412.825 248.681 411.498 248.315 410.115 248.152C410.267 247.599 410.366 246.847 410.374 245.96C410.413 241.67 408.312 234.206 399.591 230.689C392.15 227.688 384.37 227.922 378.471 231.032C376.566 232.037 374.856 233.341 373.418 234.934C373.301 233.719 372.096 231.783 370.014 229.755C366.478 226.312 360.412 222.603 352.843 221.709C343.151 220.565 335.699 222.88 330.67 226.224C328.609 227.595 326.954 229.139 325.72 230.689C325.602 229.703 324.761 227.328 323.072 224.617C320.419 220.36 315.673 215.277 308.344 213.441C291.394 209.195 281.766 221.554 280.8 226.009C280.784 226.079 280.771 226.147 280.761 226.213C280.515 226.165 280.264 226.124 280.009 226.088C273.745 225.216 264.918 227.951 263.582 239.265C262.803 245.865 265.206 250.283 268.614 252.636C270.437 253.895 272.549 254.562 274.613 254.656C273.368 256.113 272.526 257.943 272.285 259.989L256.354 394.888C255.016 406.22 263.117 416.49 274.448 417.828L366.647 428.716C377.978 430.054 388.249 421.953 389.587 410.622L391.704 392.696L407.126 394.517C415.591 395.517 423.263 389.465 424.263 381.001L432.506 311.197C433.506 302.732 427.454 295.059 418.989 294.06L403.567 292.239L405.517 275.723C405.573 275.251 405.595 274.783 405.585 274.321C406.265 273.819 406.81 273.305 407.205 272.796C412.587 273.431 417.722 271.104 419.73 266.223C423.085 258.068 419.658 251.738 414.048 249.228ZM393.378 378.522L401.966 305.798L410.26 306.777C414.493 307.277 417.519 311.113 417.019 315.346L410.241 372.743C409.741 376.975 405.905 380.001 401.672 379.501L393.378 378.522ZM407.263 312.513L400.094 373.224L402.381 373.495C403.297 373.603 404.126 372.948 404.234 372.033L411.012 314.636C411.12 313.721 410.466 312.892 409.551 312.784L407.263 312.513Z" fill="black"/>
<path d="M138.474 219.432C119.632 226.827 101.765 220.74 97.8101 215.41C91.6309 216.004 85.8087 213.211 83.6306 207.572C79.1975 196.095 86.221 187.969 95.0896 187.116C94.1584 183.399 98.2484 173.424 109.239 169.575C113.235 168.175 130.857 165.275 137.442 172.891C137.885 169.147 147.525 159.586 161.332 158.258C177.022 156.75 187.441 163.007 192.169 169.216C192.579 166.321 199.233 156.429 213.045 153.286C228.879 149.683 243.065 160.303 243.766 165.206C250.992 163.983 264.905 166.664 266.205 180.182C267.505 193.7 254.284 199.413 246.879 197.586C247.302 201.988 243.684 207.069 239.44 209.724C231.646 214.598 220.096 217.4 208.438 209.532C207.648 215.636 194.359 224.211 181.578 227.344C163.753 231.713 145.246 226.607 138.474 219.432Z" fill="white"/>
<path fill-rule="evenodd" clip-rule="evenodd" d="M110.838 199.867C105.324 200.397 101.283 205.298 101.813 210.813L104.379 237.496L81.2104 239.724C72.726 240.54 66.5093 248.079 67.3251 256.563L75.4945 341.528C76.3103 350.012 83.8496 356.229 92.3341 355.413L115.502 353.185L117.238 371.234C118.33 382.592 128.422 390.914 139.78 389.822L249.774 379.246C261.132 378.154 269.453 368.061 268.361 356.704L252.937 196.282C252.406 190.767 247.506 186.726 241.991 187.256L110.838 199.867ZM113.933 336.861L105.88 253.111L92.0646 254.439C87.8224 254.847 84.714 258.617 85.1219 262.859L91.6975 331.247C92.1054 335.489 95.8751 338.597 100.117 338.189L113.933 336.861Z" fill="#D4F0FF"/>
<path d="M112.438 208.553C111.907 203.038 115.948 198.138 121.463 197.608L232.086 186.971C237.601 186.441 242.501 190.482 243.032 195.996L257.075 342.055C258.167 353.412 249.845 363.505 238.488 364.597L149.023 373.199C137.666 374.291 127.573 365.969 126.481 354.611L112.438 208.553Z" fill="#FFD467"/>
<path fill-rule="evenodd" clip-rule="evenodd" d="M123.592 324.557L126.481 354.611C127.573 365.969 137.666 374.29 149.023 373.198L238.488 364.596C249.845 363.504 258.167 353.412 257.075 342.054L254.186 312.006C255.062 321.173 246.571 329.487 235.217 330.579L145.752 339.181C134.396 340.273 124.475 333.726 123.592 324.557Z" fill="#FBC745"/>
<path fill-rule="evenodd" clip-rule="evenodd" d="M232.665 192.991L122.042 203.628C119.852 203.838 118.248 205.784 118.458 207.974L132.502 354.032C133.274 362.065 140.412 367.951 148.444 367.178L237.909 358.576C245.942 357.804 251.827 350.666 251.055 342.633L237.011 196.575C236.801 194.385 234.855 192.781 232.665 192.991ZM121.463 197.608C115.948 198.138 111.907 203.038 112.438 208.553L126.481 354.611C127.573 365.969 137.666 374.291 149.023 373.199L238.488 364.597C249.845 363.505 258.167 353.412 257.075 342.055L243.032 195.996C242.501 190.482 237.601 186.441 232.086 186.971L121.463 197.608Z" fill="black"/>
<circle cx="171.067" cy="277.644" r="7.84325" transform="rotate(-5.49217 171.067 277.644)" fill="#FFF5D2" fill-opacity="0.2"/>
<circle cx="195.212" cy="253.116" r="2.85209" transform="rotate(-5.49217 195.212 253.116)" fill="#FFF5D2" fill-opacity="0.4"/>
<circle cx="238.385" cy="321.129" r="2.85209" transform="rotate(-5.49217 238.385 321.129)" fill="#FFF5D2" fill-opacity="0.4"/>
<circle cx="139.31" cy="266.751" r="2.13907" transform="rotate(-5.49217 139.31 266.751)" fill="#FFF5D2" fill-opacity="0.4"/>
<circle cx="198.174" cy="239.221" r="2.85209" transform="rotate(-5.49217 198.174 239.221)" fill="#FFF5D2" fill-opacity="0.4"/>
<circle cx="203.233" cy="351.654" r="1.78256" transform="rotate(-5.49217 203.233 351.654)" fill="#FFF5D2" fill-opacity="0.4"/>
<g opacity="0.6">
<rect x="142.351" y="240.988" width="41.3191" height="41.3191" rx="6.88651" transform="rotate(15.9196 142.351 240.988)" fill="#F9FBFF" fill-opacity="0.5"/>
<rect x="143.534" y="243.115" width="37.8758" height="37.8758" rx="5.16489" transform="rotate(15.9196 143.534 243.115)" stroke="#E3F0FF" stroke-opacity="0.5" stroke-width="3.44326"/>
</g>
<g opacity="0.6">
<rect x="191.51" y="269.926" width="28.6189" height="28.6189" rx="6.88651" transform="rotate(-8.80064 191.51 269.926)" fill="#F9FBFF" fill-opacity="0.5"/>
<rect x="193.475" y="271.364" width="25.1756" height="25.1756" rx="5.16489" transform="rotate(-8.80064 193.475 271.364)" stroke="#E3F0FF" stroke-opacity="0.5" stroke-width="3.44326"/>
</g>
<g opacity="0.6">
<rect x="208.225" y="220.032" width="31.9731" height="31.9731" rx="6.88651" transform="rotate(8.4556 208.225 220.032)" fill="#F9FBFF" fill-opacity="0.5"/>
<rect x="209.675" y="221.988" width="28.5298" height="28.5298" rx="5.16489" transform="rotate(8.4556 209.675 221.988)" stroke="#E3F0FF" stroke-opacity="0.5" stroke-width="3.44326"/>
</g>
<rect x="134.459" y="232.633" width="20.2099" height="123.957" rx="10.105" transform="rotate(-5.60312 134.459 232.633)" fill="white" fill-opacity="0.12"/>
<rect x="172.337" y="229.189" width="20.2099" height="123.957" rx="10.105" transform="rotate(-5.60312 172.337 229.189)" fill="white" fill-opacity="0.12"/>
<rect x="210.213" y="225.746" width="20.2099" height="123.957" rx="10.105" transform="rotate(-5.60312 210.213 225.746)" fill="white" fill-opacity="0.12"/>
<path d="M122.326 230.083C109.915 233.35 102.591 222.466 99.0137 217.15C98.5508 216.462 98.1506 215.868 97.8102 215.409C91.6311 216.003 85.8089 213.21 83.6307 207.571C79.1976 196.094 86.2211 187.968 95.0898 187.116C94.1586 183.398 98.2485 173.423 109.239 169.574C113.235 168.175 130.858 165.275 137.442 172.891C137.885 169.146 142.433 155.168 162.005 153.286C179.533 151.6 186.066 160.729 190.635 167.113C191.169 167.859 191.675 168.566 192.169 169.215C192.579 166.32 199.234 156.429 213.046 153.285C228.879 149.682 243.065 160.302 243.766 165.206C250.992 163.982 264.905 166.663 266.205 180.181C267.505 193.699 254.284 199.412 246.879 197.586C247.302 201.987 243.684 207.068 239.44 209.723C231.646 214.597 220.096 217.4 208.439 209.531C207.649 215.635 194.359 224.21 181.578 227.343C180.094 227.707 178.606 228.005 177.12 228.241L179.724 257.364C180.3 263.8 175.549 269.485 169.113 270.06C162.677 270.636 156.992 265.885 156.417 259.449L153.529 227.164C151.503 226.639 149.593 226.013 147.831 225.305L154.485 299.699C155.12 306.803 149.876 313.077 142.772 313.713C135.668 314.348 129.394 309.104 128.758 302L122.326 230.083Z" fill="white"/>
<path fill-rule="evenodd" clip-rule="evenodd" d="M95.3512 221.516C88.105 221.23 80.9561 217.43 77.9902 209.751C75.1772 202.469 75.7891 195.497 79.2947 190.076C81.731 186.308 85.3388 183.647 89.4068 182.218C89.449 182.049 89.493 181.883 89.5386 181.72C90.1459 179.547 91.1926 177.258 92.6539 175.053C95.5928 170.619 100.387 166.267 107.241 163.866C110.004 162.899 116.119 161.747 122.426 161.804C126.305 161.839 131.262 162.332 135.667 164.314C137.088 162.76 138.837 161.208 140.838 159.764C145.757 156.214 152.621 153.02 160.755 152.238C173.751 150.988 183.974 154.477 190.887 159.602C191.647 158.716 192.5 157.819 193.446 156.932C197.582 153.053 203.639 149.224 211.705 147.389C221.279 145.21 230.222 147.351 236.795 150.651C240.088 152.304 242.944 154.323 245.113 156.431C245.833 157.131 246.601 157.959 247.303 158.894C251.244 158.917 255.74 159.728 259.852 161.725C265.98 164.702 271.344 170.422 272.227 179.603C273.326 191.035 266.763 198.356 259.537 201.733L274.382 356.124C275.794 370.807 265.036 383.854 250.353 385.265L140.359 395.842C125.677 397.253 112.63 386.495 111.218 371.813L110.061 359.784L92.9135 361.433C81.104 362.568 70.6101 353.915 69.4746 342.106L61.3052 257.141C60.1697 245.332 68.8227 234.838 80.6321 233.703L97.7798 232.054L96.8777 222.672C96.3485 222.308 95.8371 221.923 95.3512 221.516ZM104.379 237.495L81.211 239.723C72.7265 240.539 66.5098 248.078 67.3256 256.563L75.495 341.527C76.3108 350.011 83.8501 356.228 92.3346 355.412L115.503 353.185L117.238 371.234C118.33 382.591 128.423 390.913 139.78 389.821L249.775 379.245C261.132 378.153 269.454 368.061 268.362 356.703L253.061 197.569C259.885 196.151 267.188 190.393 266.206 180.182C264.957 167.188 252.053 164.207 244.637 165.082C244.338 165.117 244.047 165.159 243.767 165.206C243.76 165.155 243.751 165.104 243.741 165.052C242.772 160.085 228.717 149.72 213.047 153.286C204.479 155.236 198.666 159.782 195.388 163.644C193.382 166.008 192.326 168.116 192.171 169.216C190.967 167.636 189.396 166.053 187.463 164.596C181.799 160.326 173.032 157.134 161.333 158.258C152.164 159.14 144.833 163.653 140.813 167.682C138.779 169.719 137.592 171.634 137.444 172.891C136.09 171.326 134.271 170.205 132.2 169.424C124.192 166.404 112.415 168.463 109.24 169.575C99.3668 173.032 95.0625 181.434 94.9649 185.802C94.9538 186.296 94.9966 186.738 95.0912 187.116C93.5035 187.269 91.9749 187.655 90.5606 188.251C84.0749 190.986 79.9927 198.15 83.6321 207.572C85.8103 213.211 91.6325 216.004 97.8117 215.41C98.7232 216.638 100.374 217.907 102.605 219.042L104.379 237.495ZM105.88 253.11L113.933 336.86L100.118 338.189C95.8756 338.597 92.1059 335.488 91.698 331.246L85.1225 262.858C84.7146 258.616 87.8229 254.846 92.0651 254.438L105.88 253.11ZM100.439 259.709L92.644 260.459C91.7268 260.547 91.0547 261.362 91.1429 262.279L97.7185 330.667C97.8067 331.584 98.6217 332.257 99.539 332.168L107.334 331.419L100.439 259.709Z" fill="black"/>
<path d="M299.714 191.99C286.105 181.406 283.081 154.189 307.274 146.629C330.366 139.413 328.443 160.237 310.298 158.725C292.154 157.213 293.666 129.997 320.883 120.924C347.059 112.199 351.124 134.533 337.515 134.533C316.346 134.533 319.371 99.7556 348.099 92.1953" stroke="#FFD467" stroke-width="9.07228" stroke-linecap="round" stroke-linejoin="round"/>
<path d="M204.452 149.653C218.061 139.069 221.085 111.852 196.892 104.292C173.801 97.0756 175.723 117.9 193.868 116.388C212.013 114.876 210.501 87.6593 183.284 78.5869" stroke="#FFD467" stroke-width="9.07228" stroke-linecap="round" stroke-linejoin="round"/>
<defs>
<filter id="filter0_i_39_1651" x="283.515" y="283.305" width="28.3606" height="106.381" filterUnits="userSpaceOnUse" color-interpolation-filters="sRGB">
<feFlood flood-opacity="0" result="BackgroundImageFix"/>
<feBlend mode="normal" in="SourceGraphic" in2="BackgroundImageFix" result="shape"/>
<feColorMatrix in="SourceAlpha" type="matrix" values="0 0 0 0 0 0 0 0 0 0 0 0 0 0 0 0 0 0 127 0" result="hardAlpha"/>
<feOffset dy="-2.97349"/>
<feComposite in2="hardAlpha" operator="arithmetic" k2="-1" k3="1"/>
<feColorMatrix type="matrix" values="0 0 0 0 1 0 0 0 0 0.891667 0 0 0 0 0.620833 0 0 0 0.5 0"/>
<feBlend mode="normal" in2="shape" result="effect1_innerShadow_39_1651"/>
</filter>
<filter id="filter1_i_39_1651" x="316.085" y="287.534" width="28.3606" height="106.381" filterUnits="userSpaceOnUse" color-interpolation-filters="sRGB">
<feFlood flood-opacity="0" result="BackgroundImageFix"/>
<feBlend mode="normal" in="SourceGraphic" in2="BackgroundImageFix" result="shape"/>
<feColorMatrix in="SourceAlpha" type="matrix" values="0 0 0 0 0 0 0 0 0 0 0 0 0 0 0 0 0 0 127 0" result="hardAlpha"/>
<feOffset dy="-2.97349"/>
<feComposite in2="hardAlpha" operator="arithmetic" k2="-1" k3="1"/>
<feColorMatrix type="matrix" values="0 0 0 0 1 0 0 0 0 0.891667 0 0 0 0 0.620833 0 0 0 0.5 0"/>
<feBlend mode="normal" in2="shape" result="effect1_innerShadow_39_1651"/>
</filter>
<filter id="filter2_i_39_1651" x="348.656" y="291.766" width="28.3606" height="106.381" filterUnits="userSpaceOnUse" color-interpolation-filters="sRGB">
<feFlood flood-opacity="0" result="BackgroundImageFix"/>
<feBlend mode="normal" in="SourceGraphic" in2="BackgroundImageFix" result="shape"/>
<feColorMatrix in="SourceAlpha" type="matrix" values="0 0 0 0 0 0 0 0 0 0 0 0 0 0 0 0 0 0 127 0" result="hardAlpha"/>
<feOffset dy="-2.97349"/>
<feComposite in2="hardAlpha" operator="arithmetic" k2="-1" k3="1"/>
<feColorMatrix type="matrix" values="0 0 0 0 1 0 0 0 0 0.891667 0 0 0 0 0.620833 0 0 0 0.5 0"/>
<feBlend mode="normal" in2="shape" result="effect1_innerShadow_39_1651"/>
</filter>
</defs>
</svg>
