<svg width="512" height="512" viewBox="0 0 512 512" fill="none" xmlns="http://www.w3.org/2000/svg">
<mask id="path-1-outside-1_39_820" maskUnits="userSpaceOnUse" x="54.5254" y="52" width="405" height="404" fill="black">
<rect fill="white" x="54.5254" y="52" width="405" height="404"/>
<path d="M228.273 77.8326C184.482 78.7981 131.963 90.6666 104.37 127.459C84.565 158.266 90.6049 176.654 97.7618 198.443C102.98 214.33 108.793 232.025 105.613 257.661C98.452 247.133 87.9995 241.759 80.2247 245.379C71.0057 249.672 69.0424 264.986 75.8396 279.582C80.3518 289.272 87.5902 296.21 94.6438 298.524C92.3972 304.242 89.7765 310.26 86.7371 316.607C79.4999 331.72 77.2876 346.033 79.0988 359.221C71.7179 359.401 66.5254 359.829 66.5254 360.328C66.5254 360.835 71.8801 361.268 79.4436 361.443C90.2495 423.835 191.585 460.167 274.283 435.226C307.741 425.135 326.371 409.123 342.914 392.117C383.508 383.381 409.737 371.159 409.046 359.054C408.754 353.949 403.702 349.368 394.856 345.473C400.535 342.036 406.773 338.804 413.74 335.843C472.051 311.06 440.897 229.974 411.919 183.72C424.715 183.642 434.69 183.005 434.69 182.232C434.69 181.435 424.098 180.783 410.741 180.738C410.69 169.036 410.041 159.783 409.248 159.783C408.534 159.783 407.936 167.291 407.787 177.334C402.384 169.252 397.215 162.573 392.901 157.915C381.899 146.033 370.719 134.634 358.71 124.349C359.365 123.815 360.016 123.286 360.663 122.76L360.669 122.755C383.997 103.794 401.241 89.778 339.943 75.504C365.452 85.6663 372.285 97.45 350.973 106.636C347.682 108.054 344.45 109.419 341.286 110.737C313.171 90.9207 279.705 77.7674 234.209 77.7672C233.157 77.7672 232.1 77.7734 231.037 77.7859C230.811 69.6887 230.277 64 229.655 64C229.032 64 228.498 69.7106 228.273 77.8326Z"/>
</mask>
<path d="M228.273 77.8326L228.537 89.8026C234.916 89.6619 240.064 84.543 240.241 78.1645L228.273 77.8326ZM104.37 127.459L94.7912 120.275C94.6184 120.506 94.454 120.742 94.2983 120.984L104.37 127.459ZM97.7618 198.443L109.137 194.706L109.137 194.706L97.7618 198.443ZM105.613 257.661L95.7133 264.394C98.5164 268.515 103.579 270.469 108.424 269.299C113.268 268.129 116.881 264.08 117.495 259.134L105.613 257.661ZM80.2247 245.379L85.2789 256.233L80.2247 245.379ZM75.8396 279.582L86.6934 274.528L86.6934 274.528L75.8396 279.582ZM94.6438 298.524L105.787 302.903C106.992 299.836 106.88 296.409 105.478 293.428C104.075 290.447 101.506 288.175 98.3759 287.148L94.6438 298.524ZM86.7371 316.607L75.9385 311.436L75.9385 311.436L86.7371 316.607ZM79.0988 359.221L79.3902 371.191C82.7979 371.108 86.0086 369.576 88.2175 366.98C90.4264 364.384 91.424 360.969 90.9603 357.592L79.0988 359.221ZM79.4436 361.443L91.2408 359.4C90.2647 353.764 85.4384 349.605 79.72 349.473L79.4436 361.443ZM274.283 435.226L270.826 423.763L270.826 423.763L274.283 435.226ZM342.914 392.117L340.395 380.412C338.087 380.908 335.977 382.076 334.331 383.768L342.914 392.117ZM409.046 359.054L397.092 359.737L397.092 359.737L409.046 359.054ZM394.856 345.473L388.656 335.231C384.835 337.544 382.619 341.792 382.909 346.249C383.198 350.706 385.944 354.631 390.032 356.431L394.856 345.473ZM413.74 335.843L418.423 346.862L418.423 346.862L413.74 335.843ZM411.919 183.72L411.846 171.748C407.504 171.774 403.518 174.149 401.427 177.954C399.336 181.759 399.468 186.398 401.773 190.077L411.919 183.72ZM410.741 180.738L398.769 180.79C398.798 187.366 404.125 192.688 410.701 192.711L410.741 180.738ZM407.787 177.334L397.834 183.989C400.747 188.345 406.154 190.301 411.179 188.816C416.205 187.331 419.681 182.751 419.759 177.511L407.787 177.334ZM392.901 157.915L401.687 149.78L401.687 149.78L392.901 157.915ZM358.71 124.349L351.146 115.068C348.396 117.309 346.781 120.655 346.738 124.202C346.695 127.75 348.227 131.134 350.922 133.442L358.71 124.349ZM360.663 122.76L353.141 113.445C353.131 113.453 353.121 113.461 353.111 113.469L360.663 122.76ZM360.669 122.755L368.191 132.07C368.201 132.062 368.211 132.054 368.221 132.046L360.669 122.755ZM339.943 75.504L342.659 63.8432C336.558 62.4226 330.394 65.9441 328.519 71.9206C326.645 77.8972 329.693 84.3085 335.512 86.6267L339.943 75.504ZM350.973 106.636L346.234 95.6407L346.234 95.6407L350.973 106.636ZM341.286 110.737L334.388 120.523C337.75 122.893 342.092 123.371 345.889 121.79L341.286 110.737ZM234.209 77.7672L234.209 65.7944L234.209 65.7944L234.209 77.7672ZM231.037 77.7859L219.068 78.1199C219.251 84.6545 224.641 89.8349 231.177 89.7579L231.037 77.7859ZM228.009 65.8627C183.361 66.8471 125.857 78.8536 94.7912 120.275L113.948 134.642C138.07 102.48 185.604 90.7491 228.537 89.8026L228.009 65.8627ZM94.2983 120.984C83.4456 137.866 79.0709 152.352 78.9826 166.256C78.8972 179.697 82.9051 191.579 86.3869 202.179L109.137 194.706C105.462 183.518 102.871 175.311 102.928 166.408C102.981 157.97 105.489 147.858 114.441 133.933L94.2983 120.984ZM86.3869 202.179C91.527 217.827 96.5627 233.358 93.7313 256.187L117.495 259.134C121.022 230.692 114.434 210.832 109.137 194.706L86.3869 202.179ZM115.513 250.927C111.012 244.31 105.13 238.77 98.4397 235.474C91.7497 232.178 83.2719 230.753 75.1704 234.526L85.2789 256.233C84.9523 256.385 85.5882 255.837 87.8584 256.955C90.1281 258.073 93.0533 260.484 95.7133 264.394L115.513 250.927ZM75.1704 234.526C65.5234 239.018 61.2508 248.512 60.1504 257.094C59.0271 265.856 60.7817 275.608 64.9859 284.636L86.6934 274.528C84.1003 268.96 83.438 263.756 83.9017 260.139C84.3884 256.343 85.7069 256.034 85.2789 256.233L75.1704 234.526ZM64.9859 284.636C70.4558 296.383 79.8427 306.269 90.9117 309.901L98.3759 287.148C95.3378 286.151 90.2479 282.161 86.6934 274.528L64.9859 284.636ZM83.5004 294.146C81.3667 299.576 78.8628 305.33 75.9385 311.436L97.5356 321.778C100.69 315.191 103.428 308.908 105.787 302.903L83.5004 294.146ZM75.9385 311.436C67.8095 328.412 65.0713 345.078 67.2372 360.85L90.9603 357.592C89.5039 346.987 91.1903 335.029 97.5356 321.778L75.9385 311.436ZM78.8073 347.252C75.0004 347.345 71.5828 347.504 69.014 347.726C67.7891 347.832 66.4378 347.978 65.2416 348.203C64.7361 348.298 63.6616 348.512 62.4857 348.962C61.9647 349.161 60.6691 349.682 59.2921 350.74C58.175 351.598 54.5525 354.723 54.5525 360.328H78.4982C78.4982 365.87 74.9164 368.933 73.8789 369.73C72.5816 370.727 71.4047 371.188 71.0401 371.327C70.5368 371.52 70.1517 371.622 69.9914 371.663C69.8057 371.71 69.6866 371.732 69.6625 371.737C69.6218 371.744 69.7166 371.726 69.9981 371.692C70.2629 371.66 70.619 371.623 71.0745 371.583C72.9471 371.422 75.8162 371.278 79.3902 371.191L78.8073 347.252ZM54.5525 360.328C54.5525 366.015 58.2757 369.147 59.3649 369.971C60.7424 371.013 62.0346 371.525 62.5509 371.719C63.7211 372.16 64.7928 372.37 65.3041 372.465C66.5107 372.688 67.8818 372.834 69.1374 372.94C71.7663 373.163 75.2676 373.322 79.1671 373.412L79.72 349.473C76.056 349.389 73.0983 349.244 71.159 349.08C70.6865 349.04 70.3143 349.002 70.0347 348.969C69.7386 348.933 69.6291 348.913 69.6564 348.918C69.6738 348.921 69.7856 348.942 69.9642 348.986C70.1174 349.025 70.4943 349.123 70.9896 349.309C71.3447 349.443 72.5145 349.893 73.8098 350.873C74.8169 351.635 78.4982 354.704 78.4982 360.328H54.5525ZM67.6464 363.486C74.0981 400.738 106.871 427.859 145.731 442.307C185.05 456.925 233.739 459.959 277.74 446.689L270.826 423.763C232.129 435.434 188.801 432.772 154.076 419.862C118.893 406.781 95.595 384.54 91.2408 359.4L67.6464 363.486ZM277.74 446.689C313.849 435.799 334.159 418.287 351.496 400.465L334.331 383.768C318.583 399.958 301.634 414.472 270.826 423.763L277.74 446.689ZM345.432 403.822C366.164 399.36 383.939 393.872 396.733 387.599C403.084 384.485 408.862 380.866 413.163 376.581C417.424 372.336 421.444 366.162 420.999 358.371L397.092 359.737C396.993 357.999 397.994 357.892 396.263 359.616C394.572 361.301 391.385 363.552 386.191 366.099C375.895 371.147 360.257 376.138 340.395 380.412L345.432 403.822ZM420.999 358.371C420.624 351.818 417.204 346.716 413.377 343.103C409.605 339.543 404.78 336.761 399.681 334.516L390.032 356.431C393.778 358.081 395.902 359.536 396.94 360.516C397.923 361.444 397.175 361.185 397.092 359.737L420.999 358.371ZM401.056 355.716C406.251 352.572 411.982 349.599 418.423 346.862L409.057 324.824C401.565 328.008 394.82 331.5 388.656 335.231L401.056 355.716ZM418.423 346.862C435.807 339.473 447.152 327.482 453.213 312.653C459.117 298.207 459.654 281.973 457.418 266.157C452.965 234.663 436.989 201.185 422.066 177.364L401.773 190.077C415.827 212.509 429.917 242.701 433.708 269.509C435.594 282.845 434.797 294.42 431.048 303.593C427.455 312.383 420.828 319.821 409.057 324.824L418.423 346.862ZM411.993 195.693C418.535 195.653 424.476 195.47 428.879 195.184C431.031 195.045 433.07 194.865 434.702 194.621C435.434 194.512 436.584 194.319 437.757 193.958C438.255 193.805 439.51 193.402 440.878 192.555C441.441 192.206 446.663 189.05 446.663 182.232H422.718C422.718 178.826 424.138 176.28 425.341 174.789C426.471 173.387 427.655 172.578 428.272 172.196C429.488 171.443 430.516 171.133 430.717 171.071C431.294 170.893 431.565 170.878 431.162 170.938C430.524 171.034 429.269 171.163 427.328 171.289C423.544 171.535 418.1 171.709 411.846 171.748L411.993 195.693ZM446.663 182.232C446.663 175.238 441.186 172.093 440.734 171.821C439.373 171.003 438.127 170.615 437.632 170.467C436.461 170.118 435.302 169.929 434.541 169.819C432.854 169.575 430.73 169.394 428.467 169.253C423.844 168.966 417.61 168.788 410.782 168.765L410.701 192.711C417.229 192.733 422.97 192.904 426.982 193.153C429.036 193.28 430.395 193.414 431.112 193.518C431.553 193.582 431.326 193.575 430.787 193.414C430.607 193.36 429.602 193.068 428.403 192.347C427.798 191.984 426.603 191.195 425.451 189.81C424.228 188.337 422.718 185.747 422.718 182.232H446.663ZM422.714 180.685C422.688 174.666 422.508 169.147 422.216 165.025C422.073 163.018 421.886 161.062 421.622 159.464C421.505 158.753 421.289 157.572 420.874 156.351C420.694 155.82 420.23 154.522 419.276 153.128C418.67 152.243 415.497 147.81 409.248 147.81V171.756C403.098 171.756 400.023 167.395 399.514 166.651C398.657 165.398 398.288 164.31 398.202 164.055C397.974 163.386 397.939 163.02 397.995 163.359C398.078 163.861 398.205 164.95 398.33 166.719C398.573 170.149 398.744 175.108 398.769 180.79L422.714 180.685ZM409.248 147.81C403.575 147.81 400.432 151.508 399.583 152.625C398.523 154.021 397.995 155.34 397.787 155.893C397.318 157.133 397.083 158.305 396.965 158.941C396.696 160.398 396.512 162.123 396.373 163.812C396.086 167.308 395.892 171.986 395.816 177.156L419.759 177.511C419.831 172.639 420.011 168.541 420.238 165.772C420.357 164.329 420.465 163.55 420.514 163.285C420.555 163.06 420.485 163.567 420.186 164.357C420.062 164.685 419.621 165.833 418.648 167.114C417.886 168.116 414.832 171.756 409.248 171.756V147.81ZM417.74 170.679C412.111 162.261 406.557 155.04 401.687 149.78L384.116 166.049C387.873 170.106 392.656 176.243 397.834 183.989L417.74 170.679ZM401.687 149.78C390.553 137.756 379.015 125.976 366.498 115.256L350.922 133.442C362.423 143.293 373.246 154.309 384.116 166.049L401.687 149.78ZM366.274 133.63C366.921 133.102 367.567 132.578 368.215 132.051L353.111 113.469C352.466 113.994 351.808 114.529 351.146 115.068L366.274 133.63ZM368.185 132.075L368.191 132.07L353.147 113.44L353.141 113.445L368.185 132.075ZM368.221 132.046C373.845 127.474 380.015 122.49 384.628 117.567C388.812 113.103 394.515 105.866 393.994 96.6927C393.415 86.5084 385.809 79.9567 378.051 75.7292C369.966 71.3237 358.283 67.4815 342.659 63.8432L337.228 87.1649C352.252 90.6635 361.4 93.9261 366.593 96.7558C372.113 99.7633 370.231 100.577 370.087 98.0513C370.001 96.536 370.851 97.2504 367.156 101.193C363.891 104.677 359.157 108.555 353.117 113.464L368.221 132.046ZM335.512 86.6267C341.404 88.974 345.735 91.2313 348.643 93.2303C351.787 95.3919 352.149 96.485 351.962 96.0368C351.788 95.6188 351.571 94.7696 351.727 93.703C351.877 92.6692 352.28 92.101 352.324 92.0434C352.328 92.0382 352 92.4533 350.95 93.1646C349.918 93.8637 348.393 94.7102 346.234 95.6407L355.712 117.631C361.782 115.015 367.546 111.548 371.332 106.607C375.724 100.874 376.935 93.7212 374.069 86.8354C371.65 81.0227 366.853 76.6903 362.208 73.4973C357.326 70.1417 351.237 67.1151 344.375 64.3813L335.512 86.6267ZM346.234 95.6407C342.996 97.0363 339.81 98.382 336.682 99.6845L345.889 121.79C349.09 120.456 352.369 119.072 355.712 117.631L346.234 95.6407ZM348.183 100.951C318.191 79.8108 282.342 65.7946 234.209 65.7944L234.209 89.7401C277.069 89.7403 308.151 102.031 334.388 120.523L348.183 100.951ZM234.209 65.7944C233.111 65.7944 232.006 65.8008 230.896 65.8139L231.177 89.7579C232.194 89.746 233.204 89.7401 234.209 89.7401L234.209 65.7944ZM243.005 77.4519C242.888 73.2714 242.688 69.514 242.41 66.6852C242.277 65.337 242.094 63.841 241.81 62.5139C241.689 61.946 241.42 60.764 240.863 59.4849C240.606 58.894 239.986 57.5612 238.788 56.1896C237.659 54.8962 234.613 52.0272 229.655 52.0272V75.9728C224.775 75.9728 221.807 73.1483 220.754 71.9421C219.632 70.6578 219.087 69.4552 218.905 69.0356C218.669 68.4927 218.541 68.0721 218.489 67.8906C218.429 67.6831 218.4 67.548 218.393 67.5169C218.392 67.5094 218.472 67.9416 218.579 69.0278C218.779 71.0677 218.959 74.2031 219.068 78.1199L243.005 77.4519ZM229.655 52.0272C224.688 52.0272 221.641 54.9065 220.515 56.1984C219.319 57.5706 218.7 58.9033 218.444 59.4936C217.889 60.7721 217.62 61.9539 217.499 62.5225C217.215 63.851 217.032 65.3497 216.899 66.702C216.621 69.5389 216.421 73.3077 216.305 77.5007L240.241 78.1645C240.35 74.2355 240.53 71.088 240.731 69.0391C240.838 67.9485 240.919 67.5119 240.918 67.5159C240.911 67.5461 240.882 67.6802 240.823 67.8868C240.771 68.0673 240.644 68.4869 240.409 69.0289C240.227 69.4471 239.684 70.6493 238.565 71.9338C237.515 73.1381 234.545 75.9728 229.655 75.9728V52.0272Z" fill="white" mask="url(#path-1-outside-1_39_820)"/>
<mask id="path-3-outside-2_39_820" maskUnits="userSpaceOnUse" x="60.5259" y="58.0007" width="393" height="392" fill="black">
<rect fill="white" x="60.5259" y="58.0007" width="393" height="392"/>
<path fill-rule="evenodd" clip-rule="evenodd" d="M231.037 77.7867C232.1 77.7742 233.158 77.768 234.209 77.768C279.705 77.7682 313.171 90.9213 341.285 110.737C344.449 109.42 347.682 108.054 350.973 106.636C372.285 97.4503 365.452 85.6666 339.943 75.5043C401.241 89.7783 383.997 103.794 360.669 122.755C360.02 123.283 359.367 123.814 358.71 124.349C370.718 134.635 381.9 146.034 392.902 157.916C397.215 162.574 402.384 169.253 407.788 177.335C407.937 167.292 408.534 159.783 409.248 159.783C410.042 159.783 410.691 169.036 410.742 180.738C424.098 180.783 434.691 181.435 434.691 182.232C434.691 183.006 424.715 183.642 411.919 183.721C440.897 229.974 472.052 311.061 413.74 335.844C384.171 348.41 367.73 365.866 351.421 383.183C332.401 403.376 313.559 423.381 274.283 435.227C191.584 460.167 90.2482 423.835 79.4435 361.442C71.8803 361.268 66.5259 360.834 66.5259 360.327C66.5259 359.828 71.7181 359.401 79.0987 359.221C77.2879 346.033 79.5003 331.721 86.7372 316.608C116.299 254.877 106.246 224.271 97.762 198.443C90.6051 176.654 84.5652 158.266 104.37 127.46C131.964 90.6673 184.483 78.7989 228.273 77.8334C228.499 69.7113 229.033 64.0007 229.656 64.0007C230.278 64.0007 230.811 69.6894 231.037 77.7867Z"/>
</mask>
<path d="M234.209 77.768L234.209 83.7544L234.209 77.768ZM231.037 77.7867L225.053 77.9537C225.144 81.221 227.839 83.8112 231.107 83.7727L231.037 77.7867ZM341.285 110.737L337.836 115.631C339.517 116.815 341.689 117.054 343.587 116.264L341.285 110.737ZM350.973 106.636L348.603 101.139L348.603 101.139L350.973 106.636ZM339.943 75.5043L341.301 69.6738C338.251 68.9636 335.169 70.7243 334.231 73.7126C333.294 76.7009 334.818 79.9065 337.728 81.0656L339.943 75.5043ZM360.669 122.755L364.445 127.401L364.445 127.401L360.669 122.755ZM358.71 124.349L354.928 119.709C353.553 120.829 352.745 122.502 352.724 124.276C352.702 126.05 353.468 127.742 354.816 128.896L358.71 124.349ZM392.902 157.916L388.509 161.983L388.509 161.983L392.902 157.916ZM407.788 177.335L402.811 180.662C404.267 182.84 406.971 183.818 409.484 183.076C411.996 182.333 413.734 180.043 413.773 177.423L407.788 177.335ZM410.742 180.738L404.755 180.764C404.77 184.052 407.433 186.713 410.721 186.724L410.742 180.738ZM411.919 183.721L411.882 177.734C409.712 177.748 407.718 178.935 406.673 180.837C405.627 182.74 405.694 185.059 406.846 186.899L411.919 183.721ZM413.74 335.844L416.081 341.353L416.081 341.353L413.74 335.844ZM351.421 383.183L347.063 379.078L347.063 379.078L351.421 383.183ZM274.283 435.227L276.011 440.958L276.011 440.958L274.283 435.227ZM79.4435 361.442L85.3421 360.421C84.8541 357.603 82.441 355.524 79.5818 355.457L79.4435 361.442ZM79.0987 359.221L79.2445 365.205C80.9483 365.164 82.5537 364.398 83.6581 363.1C84.7625 361.802 85.2614 360.095 85.0295 358.406L79.0987 359.221ZM86.7372 316.608L92.1365 319.194L92.1365 319.194L86.7372 316.608ZM97.762 198.443L103.449 196.575L103.449 196.575L97.762 198.443ZM104.37 127.46L99.5806 123.868C99.4942 123.983 99.4119 124.101 99.3341 124.222L104.37 127.46ZM228.273 77.8334L228.405 83.8184C231.595 83.7481 234.169 81.1886 234.258 77.9994L228.273 77.8334ZM229.656 64.0007L229.656 58.0143L229.656 64.0007ZM234.209 71.7816C233.134 71.7816 232.053 71.7879 230.966 71.8007L231.107 83.7727C232.147 83.7605 233.181 83.7544 234.209 83.7544L234.209 71.7816ZM344.734 105.844C315.68 85.3663 281.023 71.7818 234.209 71.7816L234.209 83.7544C278.387 83.7546 310.661 96.4762 337.836 115.631L344.734 105.844ZM348.603 101.139C345.339 102.546 342.129 103.901 338.984 105.211L343.587 116.264C346.77 114.938 350.025 113.563 353.343 112.134L348.603 101.139ZM337.728 81.0656C343.862 83.5096 348.633 85.9591 352.034 88.2973C355.554 90.7168 357.024 92.6197 357.489 93.7367C357.731 94.3171 357.816 94.7182 357.076 95.6846C356.032 97.0472 353.561 99.0019 348.603 101.139L353.343 112.134C359.041 109.677 363.708 106.714 366.58 102.966C369.755 98.8223 370.534 93.92 368.543 89.136C366.775 84.8886 363.086 81.366 358.816 78.4309C354.428 75.4144 348.779 72.5801 342.159 69.9429L337.728 81.0656ZM364.445 127.401C370.173 122.745 375.984 118.037 380.26 113.474C384.321 109.14 388.387 103.534 388.017 97.0326C387.619 90.0259 382.385 84.9086 375.186 80.9861C367.825 76.9745 356.775 73.2773 341.301 69.6738L338.586 81.3347C353.76 84.8683 363.542 88.2758 369.458 91.4994C375.537 94.812 376.027 97.0602 376.064 97.7119C376.129 98.8689 375.341 101.214 371.524 105.287C367.922 109.131 362.829 113.285 356.893 118.11L364.445 127.401ZM362.492 128.99C363.145 128.458 363.796 127.929 364.445 127.401L356.893 118.11C356.245 118.637 355.588 119.171 354.928 119.709L362.492 128.99ZM397.294 153.848C386.226 141.895 374.866 130.305 362.604 119.803L354.816 128.896C366.57 138.964 377.573 150.172 388.509 161.983L397.294 153.848ZM412.764 174.007C407.248 165.757 401.886 158.808 397.294 153.848L388.509 161.983C392.544 166.341 397.52 172.749 402.811 180.662L412.764 174.007ZM409.248 153.796C406.39 153.796 404.796 155.66 404.35 156.248C403.798 156.974 403.512 157.677 403.387 158.009C403.11 158.742 402.951 159.494 402.853 160.027C402.639 161.186 402.473 162.675 402.34 164.303C402.067 167.617 401.877 172.15 401.802 177.246L413.773 177.423C413.847 172.476 414.03 168.233 414.272 165.283C414.396 163.778 414.523 162.762 414.627 162.199C414.687 161.872 414.694 161.958 414.587 162.241C414.546 162.349 414.347 162.88 413.882 163.492C413.523 163.964 412.018 165.769 409.248 165.769V153.796ZM416.728 180.712C416.702 174.777 416.525 169.398 416.245 165.449C416.107 163.501 415.934 161.762 415.716 160.438C415.614 159.82 415.461 159.026 415.206 158.277C415.093 157.943 414.837 157.241 414.336 156.509C414.009 156.031 412.398 153.796 409.248 153.796V165.769C406.198 165.769 404.685 163.607 404.455 163.27C404.05 162.679 403.89 162.188 403.87 162.129C403.803 161.933 403.831 161.953 403.903 162.385C404.03 163.162 404.172 164.467 404.302 166.296C404.557 169.899 404.73 174.997 404.755 180.764L416.728 180.712ZM440.677 182.232C440.677 178.71 437.918 177.113 437.651 176.953C436.93 176.52 436.248 176.302 435.921 176.204C435.178 175.983 434.365 175.843 433.684 175.744C432.24 175.535 430.307 175.366 428.096 175.228C423.626 174.951 417.515 174.775 410.762 174.752L410.721 186.724C417.325 186.747 423.189 186.919 427.354 187.178C429.46 187.309 431.01 187.455 431.97 187.593C432.491 187.669 432.61 187.711 432.498 187.677C432.487 187.674 432.045 187.552 431.486 187.216C431.381 187.153 428.704 185.654 428.704 182.232H440.677ZM411.956 189.707C418.426 189.667 424.243 189.486 428.491 189.211C430.59 189.075 432.433 188.907 433.817 188.701C434.467 188.603 435.262 188.463 435.997 188.237C436.321 188.137 437.005 187.912 437.727 187.465C438.046 187.267 440.677 185.665 440.677 182.232H428.704C428.704 178.896 431.257 177.389 431.424 177.286C431.994 176.933 432.451 176.801 432.477 176.793C432.617 176.75 432.532 176.787 432.047 176.859C431.161 176.992 429.71 177.134 427.716 177.263C423.777 177.519 418.209 177.695 411.882 177.734L411.956 189.707ZM416.081 341.353C432.063 334.561 442.228 323.708 447.672 310.388C453.037 297.261 453.639 282.191 451.491 266.996C447.203 236.673 431.699 204.016 416.992 180.542L406.846 186.899C421.117 209.678 435.679 240.692 439.636 268.672C441.609 282.627 440.877 295.367 436.589 305.859C432.38 316.158 424.573 324.735 411.398 330.334L416.081 341.353ZM355.778 387.287C372.051 370.009 387.759 353.39 416.081 341.353L411.398 330.334C380.583 343.431 363.41 361.722 347.063 379.078L355.778 387.287ZM276.011 440.958C316.882 428.632 336.634 407.614 355.778 387.287L347.063 379.078C328.169 399.139 310.237 418.131 272.554 429.495L276.011 440.958ZM73.5449 362.464C79.4716 396.688 109.876 422.589 147.817 436.696C185.987 450.887 233.336 453.828 276.011 440.958L272.554 429.495C232.531 441.566 187.863 438.811 151.989 425.474C115.887 412.051 90.2202 388.589 85.3421 360.421L73.5449 362.464ZM79.5818 355.457C75.8591 355.371 72.7655 355.223 70.6539 355.044C69.5687 354.952 68.8957 354.865 68.5687 354.804C68.3592 354.765 68.537 354.782 68.8803 354.911C69.0176 354.963 69.5719 355.173 70.199 355.647C70.682 356.012 72.5123 357.531 72.5123 360.327H60.5395C60.5395 363.187 62.4116 364.769 62.9767 365.196C63.686 365.733 64.3627 366.004 64.6611 366.116C65.3268 366.367 65.982 366.502 66.3926 366.578C67.306 366.746 68.4443 366.873 69.6431 366.974C72.0995 367.183 75.4648 367.338 79.3053 367.427L79.5818 355.457ZM72.5123 360.327C72.5123 363.083 70.7316 364.599 70.2327 364.982C69.604 365.465 69.0452 365.681 68.902 365.735C68.5487 365.87 68.3589 365.89 68.5577 365.853C68.8628 365.795 69.5067 365.71 70.5597 365.619C72.6063 365.442 75.6124 365.294 79.2445 365.205L78.953 353.236C75.2045 353.327 71.9241 353.483 69.5294 353.69C68.3619 353.791 67.2464 353.917 66.3473 354.086C65.944 354.161 65.2909 354.298 64.6248 354.553C64.3252 354.667 63.6477 354.943 62.9393 355.487C62.3607 355.932 60.5395 357.51 60.5395 360.327H72.5123ZM81.3379 314.023C73.6551 330.066 71.1797 345.555 73.168 360.035L85.0295 358.406C83.396 346.51 85.3455 333.375 92.1365 319.194L81.3379 314.023ZM92.0745 200.311C96.3111 213.209 100.645 226.495 100.53 244.023C100.416 261.539 95.834 283.751 81.3379 314.023L92.1365 319.194C107.202 287.734 112.374 263.777 112.503 244.101C112.631 224.435 107.696 209.505 103.449 196.575L92.0745 200.311ZM99.3341 124.222C88.9566 140.365 85.0487 153.757 84.969 166.295C84.8908 178.601 88.5444 189.564 92.0745 200.311L103.449 196.575C99.8227 185.534 96.8779 176.408 96.9416 166.371C97.0039 156.566 99.9783 145.361 109.405 130.697L99.3341 124.222ZM228.142 71.8484C183.922 72.8233 128.911 84.7608 99.5806 123.868L109.159 131.051C135.017 96.5738 185.044 84.7744 228.405 83.8184L228.142 71.8484ZM234.258 77.9994C234.368 74.0043 234.553 70.7015 234.773 68.4555C234.887 67.2995 234.993 66.5974 235.064 66.2682C235.109 66.0558 235.084 66.2645 234.918 66.6458C234.846 66.8119 234.593 67.3803 234.053 68.0007C233.547 68.5809 232.081 69.9872 229.656 69.9872L229.656 58.0143C227.153 58.0143 225.61 59.4652 225.028 60.133C224.41 60.841 224.082 61.54 223.935 61.8782C223.621 62.6034 223.45 63.3217 223.354 63.7716C223.142 64.767 222.984 66.0002 222.858 67.287C222.599 69.9269 222.404 73.5404 222.289 77.6675L234.258 77.9994ZM229.656 69.9872C227.235 69.9872 225.77 68.586 225.263 68.0047C224.721 67.3844 224.467 66.8156 224.395 66.6487C224.228 66.2662 224.203 66.0559 224.248 66.2669C224.318 66.5931 224.424 67.2912 224.537 68.4429C224.757 70.68 224.942 73.971 225.053 77.9537L237.021 77.6197C236.906 73.5051 236.711 69.9032 236.453 67.2716C236.326 65.9889 236.169 64.7588 235.957 63.7654C235.861 63.3165 235.69 62.5985 235.374 61.8733C235.227 61.535 234.898 60.8361 234.28 60.1284C233.696 59.4599 232.154 58.0143 229.656 58.0143L229.656 69.9872Z" fill="black" mask="url(#path-3-outside-2_39_820)"/>
<path d="M234.024 77.8145C189.141 77.8142 133.037 89.0352 104.185 127.506C60.9046 194.83 141.052 202.845 86.5521 316.655C44.3338 404.817 173.112 465.729 274.098 435.273C347.055 413.27 349.505 363.111 413.555 335.89C485.688 305.234 420.917 188.418 392.716 157.962C352.643 114.683 310.194 77.8148 234.024 77.8145Z" fill="#A7855C"/>
<path d="M179.831 133.532C179.831 135.96 177.864 137.927 175.436 137.927C173.009 137.927 171.042 135.96 171.042 133.532C171.042 131.105 173.009 129.137 175.436 129.137C177.864 129.137 179.831 131.105 179.831 133.532Z" fill="#CEB8AF"/>
<path d="M198.134 116.315C198.134 118.941 196.004 121.071 193.377 121.071C190.75 121.071 188.621 118.941 188.621 116.315C188.621 113.688 190.75 111.558 193.377 111.558C196.004 111.558 198.134 113.688 198.134 116.315Z" fill="#FFF9DB"/>
<path d="M99.1393 324.393C99.1393 326.011 97.8275 327.323 96.2093 327.323C94.5911 327.323 93.2793 326.011 93.2793 324.393C93.2793 322.775 94.5911 321.463 96.2093 321.463C97.8275 321.463 99.1393 322.775 99.1393 324.393Z" fill="#FFF9DB"/>
<path d="M431.998 255.595C434.319 256.305 435.625 258.762 434.916 261.083C434.206 263.404 431.749 264.71 429.427 264.001C427.106 263.291 425.8 260.834 426.51 258.512C427.22 256.191 429.677 254.885 431.998 255.595Z" fill="#CEB8AF"/>
<path d="M360.462 137.17C362.783 137.88 364.089 140.337 363.38 142.658C362.67 144.979 360.213 146.286 357.892 145.576C355.57 144.866 354.264 142.409 354.974 140.088C355.684 137.767 358.141 136.46 360.462 137.17Z" fill="#E8FCFF"/>
<path d="M420.883 233.057C423.396 233.825 424.809 236.484 424.041 238.997C423.273 241.509 420.614 242.922 418.102 242.154C415.589 241.386 414.176 238.727 414.944 236.215C415.712 233.703 418.371 232.289 420.883 233.057Z" fill="#FFF9DB"/>
<path d="M173.97 96.909C173.97 98.5272 172.658 99.839 171.04 99.839C169.421 99.839 168.11 98.5272 168.11 96.909C168.11 95.2908 169.421 93.979 171.04 93.979C172.658 93.979 173.97 95.2908 173.97 96.909Z" fill="#FFE6BF"/>
<path d="M408.863 359.103C409.982 378.679 340.697 398.559 254.111 403.508C167.525 408.456 96.4264 396.598 95.3077 377.022C94.1889 357.446 163.474 337.565 250.06 332.617C336.646 327.668 407.745 339.527 408.863 359.103Z" fill="#FBFBFB"/>
<path fill-rule="evenodd" clip-rule="evenodd" d="M251.115 397.521C337.701 392.573 406.986 372.692 405.867 353.116C405.859 352.986 405.849 352.857 405.835 352.728C407.698 354.744 408.733 356.873 408.86 359.102C409.979 378.678 340.694 398.559 254.108 403.508C168.096 408.423 97.3665 396.755 95.3359 377.41C109.825 393.095 174.39 401.906 251.115 397.521Z" fill="#D3D3D3"/>
<path fill-rule="evenodd" clip-rule="evenodd" d="M366.026 392.544C337.481 400.735 298.052 406.992 254.451 409.484C210.851 411.976 170.965 410.251 141.673 405.366C127.076 402.931 114.777 399.659 105.899 395.546C101.465 393.492 97.5878 391.095 94.6978 388.247C91.7744 385.366 89.5789 381.724 89.3297 377.363C89.0805 373.002 90.8468 369.134 93.4229 365.939C95.9696 362.78 99.5482 359.956 103.72 357.411C112.071 352.313 123.917 347.661 138.142 343.579C166.687 335.388 206.116 329.131 249.717 326.64C293.317 324.148 333.203 325.872 362.495 330.758C377.093 333.192 389.391 336.464 398.269 340.577C402.704 342.631 406.58 345.028 409.471 347.877C412.394 350.757 414.589 354.4 414.839 358.76C415.088 363.121 413.321 366.99 410.745 370.185C408.199 373.344 404.62 376.167 400.449 378.713C392.097 383.81 380.251 388.462 366.026 392.544ZM254.11 403.507C340.696 398.559 409.981 378.678 408.862 359.102C407.743 339.526 336.644 327.668 250.058 332.616C163.472 337.565 94.1876 357.445 95.3063 377.021C96.4251 396.597 167.524 408.456 254.11 403.507Z" fill="black"/>
<path d="M330.823 363.563C331.246 370.966 296.336 378.981 252.85 381.467C209.363 383.952 173.768 379.965 173.345 372.563C172.922 365.16 207.831 357.144 251.318 354.659C294.804 352.174 330.4 356.16 330.823 363.563Z" fill="#EDEDED"/>
<path d="M300.249 363.816C300.456 367.443 276.772 371.746 247.349 373.427C217.926 375.109 193.906 373.532 193.699 369.905C193.492 366.279 217.176 361.976 246.599 360.294C276.021 358.613 300.041 360.19 300.249 363.816Z" fill="#584747" fill-opacity="0.12" style="mix-blend-mode:darken"/>
<path d="M375.146 367.103C375.522 369.164 360.456 373.642 341.495 377.103C322.534 380.565 306.858 381.7 306.482 379.638C306.105 377.576 321.171 373.099 340.132 369.637C359.093 366.176 374.769 365.041 375.146 367.103Z" fill="#584747" fill-opacity="0.06" style="mix-blend-mode:darken"/>
<path fill-rule="evenodd" clip-rule="evenodd" d="M391.611 232.739C391.219 236.855 390.672 240.918 389.977 244.923C389.634 246.898 389.255 248.859 388.841 250.806C390.648 251.073 392.424 251.451 394.157 251.937C404.912 254.953 414.031 262.112 418.738 272.515C427.686 292.292 417.3 316.306 395.54 326.151C380.346 333.025 363.623 331.173 351.869 322.696C324.846 351.891 286.821 369.081 245.713 366.692C169.651 362.274 111.832 292.5 116.541 210.832L116.545 210.762C117.645 191.822 180.215 180.052 256.299 184.472C332.383 188.892 393.168 207.829 392.069 226.769L392.069 226.769C392.063 226.864 392.058 226.959 392.052 227.054C391.938 228.96 391.791 230.855 391.611 232.739ZM397.162 221.068C395.246 215.707 390.536 211.29 385.348 207.817C377.931 202.851 367.441 198.364 354.908 194.46C329.751 186.623 295.028 180.725 256.646 178.495C218.264 176.266 183.092 178.102 157.196 182.974C144.295 185.401 133.356 188.642 125.414 192.716C117.893 196.574 111.043 202.25 110.568 210.415L110.565 210.487C105.689 295.047 165.611 368.035 245.366 372.669C286.685 375.069 324.933 358.567 352.809 330.372C365.916 337.655 382.751 338.508 398.008 331.605C422.278 320.624 434.72 293.316 424.193 270.048C418.685 257.875 408.087 249.648 395.832 246.191C396.924 239.961 397.669 233.595 398.045 227.116L398.392 221.14L397.162 221.068ZM371.749 307.016C375.847 307.922 380.484 307.548 384.934 305.535C395.267 300.86 399.342 289.981 395.64 281.799C394.147 278.5 391.561 275.896 388.298 274.24C384 285.937 378.419 296.925 371.749 307.016ZM368.145 312.234C366.188 311.6 364.334 310.729 362.633 309.636C363.811 308.028 364.959 306.392 366.077 304.731C373.831 293.205 380.104 280.428 384.573 266.71C391.784 268.106 398.026 272.552 401.094 279.332C406.375 291.005 400.245 305.178 387.402 310.989C380.976 313.896 374.086 314.159 368.145 312.234Z" fill="black"/>
<path fill-rule="evenodd" clip-rule="evenodd" d="M418.739 272.515C409.791 252.738 384.898 244.687 363.138 254.532C341.378 264.376 330.992 288.39 339.94 308.167C348.888 327.944 373.781 335.995 395.541 326.15C417.301 316.305 427.687 292.292 418.739 272.515ZM401.095 279.331C395.813 267.658 381.12 262.906 368.277 268.717C355.434 274.528 349.303 288.701 354.585 300.374C359.866 312.047 374.559 316.799 387.402 310.989C400.246 305.178 406.376 291.004 401.095 279.331Z" fill="#F8F8F8"/>
<path fill-rule="evenodd" clip-rule="evenodd" d="M336.822 290.57C337.098 294.829 338.12 299.069 339.958 303.13C348.906 322.907 373.799 330.959 395.559 321.114C411.089 314.088 420.825 299.845 421.875 285.075C422.942 301.557 412.832 318.327 395.541 326.15C373.781 335.995 348.888 327.944 339.94 308.167C337.378 302.505 336.401 296.495 336.822 290.57ZM368.295 263.68C381.138 257.87 395.831 262.622 401.112 274.295C402.774 277.968 403.306 281.89 402.854 285.72C402.609 283.552 402.032 281.402 401.095 279.331C395.813 267.658 381.12 262.906 368.277 268.717C359.476 272.699 353.827 280.608 352.843 288.949C351.708 278.899 357.73 268.46 368.295 263.68Z" fill="#ECE9E9"/>
<path fill-rule="evenodd" clip-rule="evenodd" d="M116.544 210.761C111.798 292.458 169.629 362.271 245.712 366.691C321.796 371.111 387.322 308.465 392.068 226.767L116.544 210.761Z" fill="#F8F8F8"/>
<path fill-rule="evenodd" clip-rule="evenodd" d="M140.521 212.154C139.574 290.615 196.182 356.372 269.95 360.658C278.977 361.182 287.855 360.762 296.5 359.479C280.566 365.114 263.425 367.72 245.712 366.691C169.629 362.271 111.798 292.458 116.544 210.761L140.521 212.154Z" fill="#ECE9E9"/>
<path d="M392.07 226.768C390.969 245.708 328.399 257.479 252.315 253.059C176.232 248.639 115.445 229.702 116.546 210.761C117.646 191.821 180.216 180.051 256.3 184.471C332.384 188.891 393.17 207.828 392.07 226.768Z" fill="#EDEDED"/>
<path fill-rule="evenodd" clip-rule="evenodd" d="M377.736 234.161C384.634 230.623 386.017 227.726 386.093 226.421C386.169 225.116 385.131 222.078 378.689 217.765C372.64 213.715 363.385 209.64 351.348 205.89C327.366 198.419 293.655 192.637 255.953 190.447C218.251 188.257 184.097 190.095 159.411 194.739C147.021 197.07 137.356 200.046 130.879 203.368C123.981 206.906 122.598 209.804 122.522 211.109C122.446 212.414 123.485 215.452 129.927 219.765C135.975 223.815 145.231 227.89 157.267 231.64C181.249 239.111 214.961 244.892 252.663 247.083C290.365 249.273 324.519 247.434 349.205 242.79C361.594 240.46 371.259 237.484 377.736 234.161ZM252.315 253.059C328.399 257.479 390.969 245.708 392.07 226.768C393.17 207.828 332.384 188.891 256.3 184.471C180.216 180.051 117.646 191.821 116.546 210.761C115.445 229.702 176.232 248.639 252.315 253.059Z" fill="#F8F8F8"/>
<path fill-rule="evenodd" clip-rule="evenodd" d="M124.662 216.149C144.771 204.157 195.931 197.74 255.327 201.19C314.748 204.643 364.839 216.949 383.404 231.197C365.551 244.208 313.488 251.391 252.639 247.856C191.765 244.32 140.868 231.147 124.662 216.149Z" fill="#533535"/>
<path d="M211.268 239.758C178.611 234.538 203.937 226.661 220.682 223.375C204.317 219.423 174.686 207.684 208.826 204.843C231.335 202.97 272.176 211.384 301.232 224.357C303.194 225.233 303.007 227.995 300.952 228.62C279.684 235.081 241.067 244.522 211.268 239.758Z" fill="white" fill-opacity="0.8"/>
<path d="M149.262 377.232C149.491 378.276 145.948 379.941 141.349 380.95C136.749 381.959 132.835 381.931 132.606 380.886C132.377 379.841 135.92 378.177 140.519 377.167C145.118 376.158 149.033 376.187 149.262 377.232Z" fill="#C4C4C4" fill-opacity="0.29"/>
<path d="M350.788 106.683C372.099 97.4968 365.267 85.7131 339.758 75.5508C424.332 95.2452 359.389 114.449 335.245 146.826C321.442 165.336 373.861 169.043 363.477 193.491C348.375 229.051 301.661 236.898 289.605 232.655C289.605 232.655 348.923 199.032 306.69 176.467C242.362 142.097 284.964 135.054 350.788 106.683Z" fill="#E4CDB7"/>
<path d="M262.396 125.407C257.789 122.575 256.409 120.917 242.94 117.924C249.095 122.413 252.848 124.935 249.855 132.418C246.312 141.277 237.309 139.235 241.101 149.218C246.618 163.738 270.133 165.98 274.368 164.318C274.368 164.318 247.383 153.167 261.068 142.595C272.304 133.915 267.002 128.238 262.396 125.407Z" fill="#E4CDB7"/>
<path d="M164.605 164.288C165.42 159.396 170.047 156.091 174.939 156.906L189.406 159.316C194.298 160.131 197.603 164.758 196.788 169.65L194.378 184.118C193.563 189.009 188.937 192.314 184.045 191.499L169.577 189.089C164.685 188.274 161.38 183.648 162.195 178.756L164.605 164.288Z" fill="#FBF7F3"/>
<path fill-rule="evenodd" clip-rule="evenodd" d="M175.921 151.003L190.389 153.413C198.542 154.772 204.05 162.482 202.692 170.635L200.282 185.103C198.923 193.256 191.213 198.765 183.06 197.406L168.592 194.996C160.439 193.638 154.93 185.927 156.289 177.774L158.699 163.306C160.057 155.153 167.768 149.645 175.921 151.003ZM174.937 156.908C170.045 156.093 165.419 159.398 164.604 164.29L162.194 178.758C161.379 183.65 164.684 188.276 169.576 189.091L184.043 191.501C188.935 192.316 193.562 189.011 194.377 184.119L196.787 169.652C197.602 164.76 194.297 160.133 189.405 159.318L174.937 156.908Z" fill="black"/>
<path d="M102.367 154.758C100.654 150.104 103.039 144.942 107.693 143.229L127.356 135.993C132.01 134.28 137.171 136.665 138.884 141.319L146.121 160.982C147.834 165.636 145.449 170.798 140.795 172.51L121.132 179.747C116.478 181.46 111.316 179.075 109.603 174.421L102.367 154.758Z" fill="#FBF7F3"/>
<path fill-rule="evenodd" clip-rule="evenodd" d="M105.626 137.61L125.289 130.374C133.046 127.519 141.649 131.493 144.503 139.25L151.74 158.913C154.594 166.67 150.62 175.273 142.864 178.127L123.2 185.364C115.443 188.219 106.841 184.245 103.986 176.488L96.7499 156.824C93.8952 149.068 97.8693 140.465 105.626 137.61ZM107.694 143.228C103.04 144.941 100.655 150.103 102.368 154.757L109.604 174.42C111.317 179.074 116.479 181.459 121.133 179.746L140.796 172.509C145.45 170.797 147.835 165.635 146.122 160.981L138.885 141.318C137.172 136.664 132.011 134.279 127.357 135.992L107.694 143.228Z" fill="black"/>
<path d="M367.511 347.794C374.819 353.491 378.094 361.509 374.824 365.704C371.555 369.898 362.98 368.681 355.671 362.984C348.363 357.287 345.089 349.269 348.358 345.074C351.628 340.88 360.203 342.098 367.511 347.794Z" fill="#64544F"/>
<path fill-rule="evenodd" clip-rule="evenodd" d="M380.677 355.049C382.391 359.246 383.064 364.871 379.546 369.384C376.029 373.896 370.41 374.617 365.921 373.98C361.245 373.315 356.319 371.078 351.992 367.705C347.665 364.332 344.292 360.101 342.507 355.728C340.793 351.531 340.12 345.906 343.637 341.394C347.155 336.881 352.774 336.16 357.262 336.798C361.939 337.462 366.865 339.7 371.192 343.072C375.519 346.445 378.892 350.676 380.677 355.049ZM374.825 365.703C378.094 361.509 374.82 353.491 367.512 347.794C360.203 342.097 351.628 340.879 348.359 345.074C345.089 349.268 348.364 357.287 355.672 362.983C362.98 368.68 371.555 369.898 374.825 365.703Z" fill="black"/>
<path d="M362.713 354.559C368.169 358.811 372.222 362.733 371.766 363.318C371.31 363.903 366.518 360.93 361.062 356.677C355.606 352.425 351.553 348.503 352.009 347.918C352.465 347.333 357.258 350.306 362.713 354.559Z" fill="#C9AC91"/>
<path d="M340.888 373.033C328.843 379.423 316.105 378.999 312.438 372.085C308.771 365.172 315.563 354.388 327.608 347.999C339.653 341.609 352.391 342.033 356.058 348.946C359.725 355.859 352.934 366.643 340.888 373.033Z" fill="#64544F"/>
<path fill-rule="evenodd" clip-rule="evenodd" d="M323.321 383.531C317.14 383.325 310.417 381.052 307.148 374.891C303.88 368.729 305.768 361.888 309.064 356.655C312.461 351.262 318.025 346.305 324.801 342.71C331.578 339.115 338.802 337.288 345.173 337.501C351.354 337.706 358.077 339.979 361.345 346.141C364.614 352.302 362.725 359.143 359.43 364.376C356.033 369.769 350.468 374.727 343.692 378.321C336.916 381.916 329.691 383.743 323.321 383.531ZM312.437 372.085C316.104 378.998 328.842 379.423 340.887 373.033C352.932 366.643 359.724 355.859 356.057 348.946C352.389 342.033 339.652 341.609 327.607 347.998C315.561 354.388 308.77 365.172 312.437 372.085Z" fill="black"/>
<path d="M334.686 362.52C325.694 367.29 317.99 370.375 317.479 369.411C316.967 368.447 323.842 363.799 332.833 359.029C341.825 354.259 349.529 351.174 350.04 352.138C350.552 353.102 343.677 357.751 334.686 362.52Z" fill="#C9AC91"/>
<path fill-rule="evenodd" clip-rule="evenodd" d="M108.314 295.645C114.266 289.408 114.816 276.488 109.04 264.085C102.243 249.488 89.2591 241.135 80.0401 245.428C70.8211 249.721 68.8579 265.034 75.6551 279.631C81.4307 292.034 91.673 299.929 100.277 299.388L132.224 375.225C133.872 379.138 138.44 380.9 142.29 379.107C146.139 377.315 147.731 372.684 145.797 368.904L108.314 295.645Z" fill="#F2EBAE"/>
<path fill-rule="evenodd" clip-rule="evenodd" d="M108.315 295.646L145.797 368.904C147.731 372.685 146.14 377.315 142.29 379.108C138.441 380.9 133.873 379.138 132.224 375.225L100.278 299.388C91.6737 299.929 81.4313 292.034 75.6557 279.631C68.8585 265.034 70.8218 249.721 80.0408 245.428C89.2598 241.135 102.243 249.488 109.041 264.085C114.816 276.488 114.267 289.409 108.315 295.646ZM119.06 282.349C118.918 287.293 117.779 292.184 115.34 296.233L151.127 366.178C154.606 372.979 151.743 381.309 144.818 384.534C137.892 387.759 129.673 384.589 126.707 377.549L96.2061 305.143C91.5373 304.403 87.0612 302.127 83.186 299.054C78.025 294.96 73.468 289.114 70.2288 282.158C66.4274 273.995 64.9459 265.38 65.9043 257.904C66.8513 250.518 70.3854 243.321 77.5136 240.001C84.6419 236.682 92.4253 238.609 98.6878 242.638C105.026 246.716 110.666 253.394 114.468 261.558C117.707 268.514 119.248 275.764 119.06 282.349Z" fill="black"/>
<path fill-rule="evenodd" clip-rule="evenodd" d="M107.337 286.95C110.37 284.65 110.51 277.734 107.497 270.718C105.248 265.482 101.83 261.558 98.6788 260.16C100.421 262.694 102.106 265.751 103.565 269.149C106.542 276.08 107.844 282.717 107.337 286.95Z" fill="#FFFCFA" fill-opacity="0.45"/>
<path fill-rule="evenodd" clip-rule="evenodd" d="M227.977 87.99C228.028 99.6917 228.677 108.945 229.47 108.945C230.263 108.945 230.912 99.6917 230.964 87.99C244.32 87.9446 254.913 87.293 254.913 86.496C254.913 85.6989 244.32 85.0474 230.964 85.0019C230.912 73.3002 230.263 64.0469 229.47 64.0469C228.677 64.0469 228.028 73.3002 227.977 85.0019C214.621 85.0474 204.028 85.6989 204.028 86.496C204.028 87.293 214.621 87.9446 227.977 87.99Z" fill="#E9D6C5"/>
<path fill-rule="evenodd" clip-rule="evenodd" d="M407.57 183.773C407.621 195.474 408.27 204.728 409.063 204.728C409.856 204.728 410.505 195.474 410.556 183.773C423.913 183.727 434.505 183.076 434.505 182.279C434.505 181.482 423.913 180.83 410.556 180.785C410.505 169.083 409.856 159.83 409.063 159.83C408.27 159.83 407.621 169.083 407.57 180.785C394.213 180.83 383.621 181.482 383.621 182.279C383.621 183.076 394.213 183.727 407.57 183.773Z" fill="#E9D6C5"/>
<path fill-rule="evenodd" clip-rule="evenodd" d="M85.4995 361.57C85.5405 370.931 86.0597 378.334 86.6942 378.334C87.3286 378.334 87.8478 370.931 87.8888 361.57C98.5739 361.534 107.048 361.012 107.048 360.375C107.048 359.737 98.5739 359.216 87.8888 359.18C87.8478 349.818 87.3286 342.416 86.6942 342.416C86.0597 342.416 85.5405 349.818 85.4995 359.18C74.8144 359.216 66.3403 359.737 66.3403 360.375C66.3403 361.012 74.8144 361.534 85.4995 361.57Z" fill="#E9D6C5"/>
</svg>
