<svg width="512" height="512" viewBox="0 0 512 512" fill="none" xmlns="http://www.w3.org/2000/svg">
<path fill-rule="evenodd" clip-rule="evenodd" d="M109.337 173.731L105.202 169.762C104.949 169.519 104.833 169.166 104.893 168.82L106.702 158.407C106.836 157.639 106.118 156.996 105.369 157.213L95.218 160.157C94.881 160.255 94.5174 160.179 94.2481 159.954L86.1345 153.18C85.5358 152.681 84.6204 152.981 84.434 153.738L81.9082 164.001C81.8243 164.342 81.5765 164.619 81.2471 164.74L71.3242 168.379C70.592 168.648 70.3943 169.591 70.957 170.131L78.5822 177.45C78.8353 177.693 78.9511 178.046 78.891 178.391L77.0817 188.805C76.9482 189.573 77.6659 190.216 78.415 189.999L86.2376 187.73C41.5561 225.369 38.949 325.939 87.1036 379.851C81.7574 382.775 78.8744 385.887 78.8744 389.115C78.8744 398.258 101.998 406.47 138.711 412.107C221.159 441.224 310.86 440.125 375.079 412.255C394.26 409.352 409.802 405.752 420.37 401.684C420.565 401.943 420.803 402.181 421.084 402.389L424.049 404.574C424.963 405.248 425.482 406.332 425.434 407.465L425.278 411.146C425.171 413.666 427.741 415.427 430.053 414.417L433.429 412.942C434.469 412.488 435.666 412.58 436.624 413.189L439.734 415.164C441.863 416.517 444.673 415.171 444.954 412.664L445.365 409.003C445.491 407.875 446.17 406.884 447.176 406.359L450.442 404.653C452.678 403.486 452.917 400.379 450.887 398.882L447.922 396.696C447.008 396.023 446.489 394.939 446.537 393.805L446.693 390.125C446.8 387.604 444.229 385.844 441.918 386.854L438.542 388.329C437.671 388.709 436.689 388.706 435.83 388.337C435.258 384.36 430.31 380.571 421.784 377.106C458.29 330.881 466.217 256.518 458.968 210.61C454.104 179.804 439.836 153.881 419.778 133.448C428.671 125.055 434.693 114.972 430.776 110.688C425.237 104.63 413.035 110.474 406.095 117.715C398.529 106.178 381.381 92.3538 376.267 101.722C369.193 98.0784 361.855 94.8733 354.327 92.1191C324.008 81.0269 299.284 78.6813 277.041 84.4264C264.269 84.2681 251.08 82.5258 245.341 81.5204C244.485 81.3706 243.671 81.9424 243.521 82.7976C243.371 83.6528 243.943 84.4675 244.798 84.6173C248.295 85.2299 254.503 86.1119 261.719 86.7546C254.903 88.7983 248.847 93.5891 244.17 99.688C232.579 107.553 221.269 117.893 209.676 130.59C191.822 150.144 171.669 155.176 149.655 160.672C136.819 163.877 123.351 167.24 109.337 173.731ZM268.058 87.2317L267.487 87.1961C267.537 87.2588 267.584 87.3236 267.629 87.3903C267.772 87.3371 267.915 87.2842 268.058 87.2317Z" fill="#E8FCFF"/>
<path d="M69.1588 162.476L71.2156 168.083L69.1588 162.476C64.062 164.345 62.686 170.908 66.6026 174.667L72.219 180.058L70.8864 187.728L76.1078 188.636L70.8863 187.728C70.5331 189.761 71.0359 191.668 72.0813 193.167C54.5387 214.399 45.7591 245.696 45.569 277.651C45.3583 313.059 55.6546 350.672 77.8525 378.624C77.3023 379.119 76.7848 379.634 76.3052 380.168C74.2307 382.478 72.5862 385.495 72.5862 389.115C72.5862 394.254 75.8323 398.102 79.1877 400.726C82.6516 403.434 87.3631 405.762 92.8116 407.811C103.662 411.892 118.905 415.403 137.174 418.232C220.365 447.466 311.102 446.58 376.827 418.349C393.866 415.74 408.316 412.542 419.081 408.842L418.995 410.88C418.691 418.045 425.999 423.051 432.571 420.179L434.544 419.317L436.362 420.472C442.415 424.317 450.405 420.491 451.204 413.364L451.443 411.224L453.353 410.227C459.709 406.908 460.391 398.076 454.618 393.821L452.885 392.543L452.976 390.391C453.279 383.226 445.971 378.22 439.4 381.092L439.638 381.637C439.638 381.637 439.638 381.637 439.638 381.637L439.4 381.092L439.273 381.147C438.216 379.786 436.967 378.607 435.69 377.597C434.415 376.589 432.973 375.637 431.391 374.735C447.69 351.569 457.695 323.033 462.965 294.897C468.726 264.139 468.924 233.346 465.179 209.629C460.444 179.639 447.169 154.078 428.485 133.511C431.414 130.226 433.929 126.768 435.663 123.42C436.932 120.973 437.969 118.232 438.223 115.441C438.485 112.554 437.918 109.181 435.417 106.445C430.035 100.558 422.255 101.405 416.889 103.277C413.479 104.467 410.096 106.341 407.061 108.563C403.17 103.973 398.377 99.5824 393.631 96.5699C390.344 94.4836 386.42 92.6306 382.429 92.3713C380.337 92.2353 378.04 92.5281 375.851 93.644C375.58 93.7824 375.316 93.9304 375.06 94.0875C369.022 91.1562 362.818 88.5296 356.487 86.2137C325.77 74.9757 299.938 72.2382 276.303 78.1264C264.204 77.9113 251.802 76.2683 246.426 75.3265C242.15 74.5774 238.076 77.4365 237.327 81.7125C236.583 85.9579 239.396 90.0038 243.621 90.7946C242.27 92.1402 241.001 93.5648 239.818 95.0458C227.988 103.196 216.57 113.713 205.032 126.35C188.596 144.351 170.224 149.055 148.131 154.571L147.943 154.618C136.702 157.425 124.516 160.468 111.804 165.776L112.898 159.483C113.827 154.135 108.832 149.662 103.617 151.174L96.1406 153.342L90.1644 148.353C85.997 144.874 79.6254 146.964 78.328 152.235L76.4676 159.795L69.1588 162.476ZM81.2323 164.699L81.2471 164.74L81.2323 164.699ZM420.318 409.636C420.316 409.635 420.315 409.634 420.313 409.632L420.318 409.636ZM451.653 391.635C451.654 391.636 451.656 391.637 451.658 391.638L451.653 391.635Z" stroke="white" stroke-width="12.5764"/>
<path fill-rule="evenodd" clip-rule="evenodd" d="M86.234 187.73C31.6743 233.69 39.849 373.483 126.575 407.581C216.594 442.975 317.391 441.436 385.1 407.581C452.809 373.727 468.198 269.086 458.965 210.61C454.101 179.804 439.833 153.881 419.774 133.448C428.667 125.055 434.689 114.972 430.772 110.688C425.233 104.63 413.032 110.474 406.092 117.715C398.525 106.178 381.378 92.3538 376.264 101.722C369.19 98.0784 361.852 94.8733 354.323 92.1191C291.231 69.0366 252.365 83.8307 209.672 130.59C191.819 150.144 171.666 155.176 149.651 160.672C136.816 163.877 123.348 167.24 109.333 173.731L105.198 169.762C104.945 169.519 104.829 169.166 104.889 168.82L106.699 158.407C106.832 157.639 106.115 156.996 105.365 157.213L95.2144 160.157C94.8774 160.255 94.5138 160.179 94.2445 159.954L86.1309 153.18C85.5322 152.681 84.6168 152.981 84.4304 153.738L81.9046 164.001C81.8207 164.342 81.5729 164.619 81.2435 164.739L71.3206 168.379C70.5884 168.648 70.3907 169.591 70.9534 170.131L78.5786 177.45C78.8317 177.693 78.9475 178.046 78.8874 178.391L77.0781 188.805C76.9446 189.573 77.6623 190.216 78.4114 189.999L86.234 187.73Z" fill="#A5D8FF"/>
<path fill-rule="evenodd" clip-rule="evenodd" d="M104.89 168.821C104.83 169.167 104.946 169.52 105.199 169.763L109.334 173.732C123.348 167.24 136.817 163.878 149.652 160.673C171.667 155.177 191.82 150.145 209.673 130.591C252.366 83.8314 291.232 69.0373 354.324 92.1198C361.852 94.874 369.191 98.0791 376.265 101.723C380.638 93.7111 393.812 102.661 402.269 112.637C403.7 114.326 404.997 116.045 406.093 117.715C407.504 116.243 409.133 114.829 410.879 113.56C417.719 108.59 426.361 105.862 430.773 110.689C434.396 114.651 429.516 123.574 421.727 131.533C421.094 132.179 420.443 132.819 419.775 133.449C421.183 134.884 422.563 136.345 423.914 137.834C441.791 157.546 454.443 181.968 458.965 210.61C468.199 269.086 452.81 373.728 385.101 407.582C317.392 441.437 216.595 442.975 126.576 407.582C44.7183 375.398 32.8405 249.052 77.6425 196.322C78.2842 195.567 78.9374 194.827 79.6023 194.102C81.6984 191.818 83.9097 189.689 86.2349 187.73L78.4122 189.999C77.6632 190.217 76.9455 189.574 77.079 188.805L78.8883 178.392C78.9484 178.046 78.8326 177.693 78.5795 177.45L70.9543 170.131C70.3916 169.591 70.5893 168.649 71.3215 168.38L81.2444 164.74C81.5738 164.619 81.8216 164.343 81.9055 164.002L84.4313 153.739C84.6177 152.981 85.5331 152.681 86.1318 153.181L94.2453 159.955C94.5147 160.18 94.8783 160.256 95.2153 160.158L105.366 157.214C106.115 156.997 106.833 157.639 106.7 158.408L104.89 168.821ZM76.6606 183.96C76.6638 183.959 76.6669 183.958 76.6701 183.957ZM72.0776 193.167C71.0329 191.668 70.5305 189.762 70.8836 187.729L72.2163 180.059L66.5999 174.668C62.6832 170.909 64.0592 164.346 69.156 162.476L76.4649 159.795L78.3253 152.236C79.6227 146.964 85.9942 144.875 90.1617 148.354L96.1378 153.343L103.615 151.175C108.829 149.662 113.824 154.135 112.895 159.484L111.802 165.777C124.513 160.468 136.699 157.426 147.941 154.619L148.129 154.572C170.221 149.056 188.593 144.352 205.029 126.351C226.737 102.575 248.071 86.2438 272.596 79.1256C297.221 71.9782 324.139 74.3808 356.485 86.2144C362.815 88.5303 369.02 91.1569 375.057 94.0883C375.313 93.9312 375.577 93.7832 375.848 93.6447C378.037 92.5289 380.334 92.2361 382.426 92.372C386.417 92.6313 390.342 94.4843 393.629 96.5706C398.375 99.5831 403.167 103.974 407.058 108.563C410.094 106.342 413.476 104.468 416.886 103.278C422.253 101.405 430.032 100.559 435.414 106.446C437.915 109.182 438.483 112.555 438.22 115.442C437.966 118.233 436.929 120.973 435.661 123.421C433.926 126.769 431.411 130.227 428.482 133.512C447.167 154.079 460.441 179.64 465.177 209.63C469.938 239.784 468.34 281.508 456.916 320.114C445.515 358.642 423.969 395.179 387.913 413.206C318.294 448.016 215.595 449.339 124.275 413.434C78.0506 395.26 53.4372 349.245 47.1914 302.945C41.7418 262.547 50.0101 219.866 72.0776 193.167Z" fill="black"/>
<path d="M91.1828 261.391C91.1828 263.941 89.1159 266.007 86.5662 266.007C84.0166 266.007 81.9497 263.941 81.9497 261.391C81.9497 258.841 84.0166 256.774 86.5662 256.774C89.1159 256.774 91.1828 258.841 91.1828 261.391Z" fill="#FF859B"/>
<path d="M442.038 193.682C442.038 196.232 439.972 198.299 437.422 198.299C434.872 198.299 432.805 196.232 432.805 193.682C432.805 191.133 434.872 189.066 437.422 189.066C439.972 189.066 442.038 191.133 442.038 193.682Z" fill="#FF859B"/>
<path d="M110.408 243.305C110.408 246.065 108.171 248.302 105.412 248.302C102.652 248.302 100.415 246.065 100.415 243.305C100.415 240.546 102.652 238.309 105.412 238.309C108.171 238.309 110.408 240.546 110.408 243.305Z" fill="#FFF9DB"/>
<path d="M100.414 352.182C100.414 353.882 99.0365 355.26 97.3367 355.26C95.637 355.26 94.259 353.882 94.259 352.182C94.259 350.483 95.637 349.105 97.3367 349.105C99.0365 349.105 100.414 350.483 100.414 352.182Z" fill="#FFF9DB"/>
<path d="M436.792 303.454C439.23 304.2 440.602 306.781 439.856 309.219C439.111 311.657 436.53 313.029 434.091 312.283C431.653 311.538 430.281 308.957 431.027 306.519C431.772 304.08 434.353 302.708 436.792 303.454Z" fill="#FF859B"/>
<path d="M362.979 135.018C365.417 135.763 366.789 138.344 366.043 140.782C365.298 143.221 362.717 144.593 360.279 143.847C357.841 143.102 356.468 140.521 357.214 138.082C357.96 135.644 360.541 134.272 362.979 135.018Z" fill="#E8FCFF"/>
<path d="M316.355 120.669C317.168 120.918 317.625 121.778 317.377 122.591C317.128 123.404 316.268 123.861 315.455 123.613C314.642 123.364 314.185 122.504 314.434 121.691C314.682 120.878 315.543 120.421 316.355 120.669Z" fill="#FFF385"/>
<path d="M425.116 279.78C427.755 280.587 429.24 283.38 428.433 286.019C427.626 288.658 424.833 290.143 422.194 289.336C419.556 288.529 418.071 285.735 418.878 283.097C419.685 280.458 422.478 278.973 425.116 279.78Z" fill="#FFF9DB"/>
<path d="M85.0284 222.921C85.0284 224.621 83.6505 225.999 81.9507 225.999C80.251 225.999 78.873 224.621 78.873 222.921C78.873 221.221 80.251 219.844 81.9507 219.844C83.6505 219.844 85.0284 221.221 85.0284 222.921Z" fill="#FFF385"/>
<path d="M435.884 389.117C435.884 406.115 355.965 419.894 257.379 419.894C158.793 419.894 78.873 406.115 78.873 389.117C78.873 372.12 158.793 358.341 257.379 358.341C355.965 358.341 435.884 372.12 435.884 389.117Z" fill="#F2FDFF"/>
<path fill-rule="evenodd" clip-rule="evenodd" d="M433.799 384.398C420.635 399.157 346.661 410.459 257.376 410.459C168.091 410.459 94.1166 399.157 80.953 384.398C79.5817 385.936 78.8704 387.511 78.8704 389.114C78.8704 406.112 158.79 419.891 257.376 419.891C355.962 419.891 435.882 406.112 435.882 389.114C435.882 387.511 435.17 385.936 433.799 384.398Z" fill="#C6D3D6"/>
<path fill-rule="evenodd" clip-rule="evenodd" d="M384.67 417.077C351.917 422.724 306.916 426.183 257.379 426.183C207.841 426.183 162.84 422.724 130.088 417.077C113.762 414.262 100.177 410.854 90.5274 406.92C85.7312 404.965 81.543 402.737 78.448 400.129C75.4084 397.568 72.585 393.898 72.585 389.118C72.585 384.337 75.4084 380.667 78.448 378.106C81.543 375.498 85.7312 373.27 90.5274 371.315C100.177 367.381 113.762 363.973 130.088 361.158C162.84 355.511 207.841 352.052 257.379 352.052C306.916 352.052 351.917 355.511 384.67 361.158C400.995 363.973 414.581 367.381 424.23 371.315C429.026 373.27 433.214 375.498 436.309 378.106C439.349 380.667 442.172 384.337 442.172 389.118C442.172 393.898 439.349 397.568 436.309 400.129C433.214 402.737 429.026 404.965 424.23 406.92C414.581 410.854 400.995 414.262 384.67 417.077ZM257.379 419.894C355.965 419.894 435.884 406.115 435.884 389.118C435.884 372.12 355.965 358.341 257.379 358.341C158.793 358.341 78.8732 372.12 78.8732 389.118C78.8732 406.115 158.793 419.894 257.379 419.894Z" fill="black"/>
<g filter="url(#filter0_i_39_1098)">
<path d="M355.862 386.037C355.862 392.836 312.457 398.348 258.915 398.348C205.372 398.348 161.968 392.836 161.968 386.037C161.968 379.238 205.372 373.726 258.915 373.726C312.457 373.726 355.862 379.238 355.862 386.037Z" fill="#BEAC8A" fill-opacity="0.5"/>
</g>
<path fill-rule="evenodd" clip-rule="evenodd" d="M269.712 85.1197C270.178 87.6824 268.478 90.1375 265.916 90.6035C259.452 91.7787 252.726 97.6673 247.851 106.513C243.046 115.235 240.686 125.728 242.034 134.489C242.43 137.064 240.664 139.472 238.09 139.868C235.516 140.264 233.108 138.498 232.712 135.923C230.982 124.679 234.009 112.09 239.59 101.961C245.103 91.9559 253.765 83.2256 264.229 81.3233C266.791 80.8574 269.246 82.5571 269.712 85.1197Z" fill="black"/>
<path fill-rule="evenodd" clip-rule="evenodd" d="M273.792 83.6393C275.076 85.9052 274.281 88.7834 272.015 90.0678C267.064 92.874 265.079 96.3949 264.549 100.082C263.979 104.039 265.024 108.736 267.292 113.594C269.534 118.4 272.785 122.954 276.023 126.44C277.638 128.177 279.191 129.587 280.542 130.603C281.968 131.676 282.892 132.1 283.262 132.203C285.772 132.9 287.241 135.499 286.544 138.009C285.847 140.518 283.248 141.988 280.738 141.291C278.71 140.728 276.681 139.501 274.872 138.141C272.989 136.725 271.026 134.919 269.113 132.86C265.299 128.755 261.457 123.396 258.744 117.583C256.056 111.823 254.284 105.196 255.212 98.7392C256.18 92.0132 260.008 86.0316 267.363 81.8621C269.629 80.5777 272.508 81.3734 273.792 83.6393Z" fill="black"/>
<path fill-rule="evenodd" clip-rule="evenodd" d="M240.42 82.2543C240.87 79.6887 243.314 77.9733 245.879 78.4227C252.583 79.5971 269.66 81.7925 283.998 81.1909C286.601 81.0817 288.799 83.1028 288.908 85.7052C289.017 88.3075 286.996 90.5057 284.394 90.6149C269.11 91.2562 251.292 88.9469 244.252 87.7135C241.686 87.2641 239.971 84.8199 240.42 82.2543Z" fill="black"/>
<path d="M305.871 152.361C307.568 165.853 298.005 178.165 284.514 179.862C271.022 181.558 258.709 171.996 257.013 158.504C255.317 145.012 264.879 132.7 278.371 131.003C291.862 129.307 304.175 138.869 305.871 152.361Z" fill="#EC2222"/>
<path fill-rule="evenodd" clip-rule="evenodd" d="M312.108 151.578C314.238 168.516 302.234 183.973 285.296 186.102C268.359 188.232 252.902 176.228 250.772 159.29C248.642 142.353 260.647 126.896 277.584 124.766C294.522 122.636 309.979 134.641 312.108 151.578ZM284.512 179.863C298.004 178.167 307.566 165.854 305.869 152.363C304.173 138.871 291.86 129.309 278.369 131.005C264.877 132.701 255.315 145.014 257.011 158.506C258.708 171.998 271.02 181.56 284.512 179.863Z" fill="black"/>
<path d="M259.297 152.012C261.205 167.191 250.448 181.042 235.269 182.951C220.091 184.859 206.239 174.102 204.331 158.923C202.423 143.745 213.18 129.894 228.358 127.985C243.537 126.077 257.388 136.834 259.297 152.012Z" fill="#EC2222"/>
<path fill-rule="evenodd" clip-rule="evenodd" d="M265.537 151.23C267.879 169.854 254.679 186.85 236.055 189.191C217.431 191.533 200.435 178.334 198.093 159.71C195.752 141.086 208.951 124.089 227.575 121.748C246.199 119.406 263.195 132.606 265.537 151.23ZM235.271 182.952C250.449 181.044 261.206 167.192 259.298 152.014C257.389 136.836 243.538 126.078 228.36 127.987C213.181 129.895 202.424 143.747 204.332 158.925C206.241 174.103 220.092 184.861 235.271 182.952Z" fill="black"/>
<path d="M126.848 237.299C126.848 225.147 136.698 215.297 148.85 215.297H376.2C388.352 215.297 398.202 225.147 398.202 237.299C398.202 249.45 388.351 259.3 376.2 259.3H148.85C136.698 259.3 126.848 249.45 126.848 237.299Z" fill="#FFE066"/>
<path fill-rule="evenodd" clip-rule="evenodd" d="M148.85 209.009H376.2C391.825 209.009 404.49 221.674 404.49 237.298C404.49 252.923 391.824 265.588 376.2 265.588H148.85C133.226 265.588 120.56 252.923 120.56 237.298C120.56 221.674 133.226 209.009 148.85 209.009ZM148.85 215.297C136.699 215.297 126.848 225.147 126.848 237.298C126.848 249.45 136.698 259.3 148.85 259.3H376.2C388.352 259.3 398.202 249.45 398.202 237.298C398.202 225.147 388.352 215.297 376.2 215.297H148.85Z" fill="black"/>
<path d="M126.848 281.303C126.848 269.152 136.698 259.302 148.85 259.302H376.2C388.352 259.302 398.202 269.152 398.202 281.303C398.202 293.455 388.351 303.305 376.2 303.305H148.85C136.698 303.305 126.848 293.455 126.848 281.303Z" fill="#FFE066"/>
<path fill-rule="evenodd" clip-rule="evenodd" d="M148.85 253.013H376.2C391.825 253.013 404.49 265.679 404.49 281.303C404.49 296.927 391.824 309.593 376.2 309.593H148.85C133.226 309.593 120.56 296.927 120.56 281.303C120.56 265.679 133.226 253.013 148.85 253.013ZM148.85 259.302C136.699 259.302 126.848 269.152 126.848 281.303C126.848 293.455 136.698 303.305 148.85 303.305H376.2C388.352 303.305 398.202 293.455 398.202 281.303C398.202 269.152 388.352 259.302 376.2 259.302H148.85Z" fill="black"/>
<path d="M126.848 325.306C126.848 313.154 136.698 303.304 148.85 303.304H376.2C388.352 303.304 398.202 313.154 398.202 325.306C398.202 337.457 388.351 347.307 376.2 347.307H148.85C136.698 347.307 126.848 337.457 126.848 325.306Z" fill="#FFE066"/>
<path fill-rule="evenodd" clip-rule="evenodd" d="M148.85 297.016H376.2C391.825 297.016 404.49 309.681 404.49 325.306C404.49 340.93 391.824 353.595 376.2 353.595H148.85C133.226 353.595 120.56 340.93 120.56 325.306C120.56 309.681 133.226 297.016 148.85 297.016ZM148.85 303.304C136.699 303.304 126.848 313.154 126.848 325.306C126.848 337.457 136.698 347.307 148.85 347.307H376.2C388.352 347.307 398.202 337.457 398.202 325.306C398.202 313.154 388.352 303.304 376.2 303.304H148.85Z" fill="black"/>
<path d="M126.848 369.308C126.848 357.156 136.698 347.306 148.85 347.306H376.2C388.352 347.306 398.202 357.156 398.202 369.308C398.202 381.459 388.351 391.309 376.2 391.309H148.85C136.698 391.309 126.848 381.459 126.848 369.308Z" fill="#FFE066"/>
<path fill-rule="evenodd" clip-rule="evenodd" d="M148.85 341.018H376.2C391.825 341.018 404.49 353.683 404.49 369.307C404.49 384.932 391.824 397.597 376.2 397.597H148.85C133.226 397.597 120.56 384.932 120.56 369.307C120.56 353.683 133.226 341.018 148.85 341.018ZM148.85 347.306C136.699 347.306 126.848 357.156 126.848 369.307C126.848 381.459 136.698 391.309 148.85 391.309H376.2C388.352 391.309 398.202 381.459 398.202 369.307C398.202 357.156 388.352 347.306 376.2 347.306H148.85Z" fill="black"/>
<path fill-rule="evenodd" clip-rule="evenodd" d="M130.225 249.017C134.12 255.196 141.006 259.301 148.85 259.301H376.201C388.352 259.301 398.202 249.45 398.202 237.299C398.202 228.56 393.107 221.01 385.725 217.46C387.864 220.853 389.102 224.871 389.102 229.178C389.102 241.329 379.251 251.179 367.1 251.179H139.749C136.337 251.179 133.107 250.403 130.225 249.017Z" fill="#FCC419"/>
<path fill-rule="evenodd" clip-rule="evenodd" d="M130.225 293.021C134.12 299.2 141.006 303.305 148.85 303.305H376.201C388.352 303.305 398.202 293.454 398.202 281.303C398.202 272.564 393.107 265.015 385.725 261.464C387.864 264.857 389.102 268.875 389.102 273.182C389.102 285.333 379.251 295.184 367.1 295.184H139.749C136.337 295.184 133.107 294.407 130.225 293.021Z" fill="#FCC419"/>
<path fill-rule="evenodd" clip-rule="evenodd" d="M130.225 337.023C134.12 343.202 141.006 347.307 148.85 347.307H376.201C388.352 347.307 398.202 337.457 398.202 325.305C398.202 316.566 393.107 309.017 385.725 305.467C387.864 308.859 389.102 312.877 389.102 317.184C389.102 329.335 379.251 339.186 367.1 339.186H139.749C136.337 339.186 133.107 338.409 130.225 337.023Z" fill="#FCC419"/>
<path fill-rule="evenodd" clip-rule="evenodd" d="M130.225 381.029C134.12 387.208 141.006 391.313 148.85 391.313H376.201C388.352 391.313 398.202 381.462 398.202 369.311C398.202 360.572 393.107 353.023 385.725 349.472C387.864 352.865 389.102 356.883 389.102 361.19C389.102 373.341 379.251 383.192 367.1 383.192H139.749C136.337 383.192 133.107 382.415 130.225 381.029Z" fill="#FCC419"/>
<path d="M389.013 174.287C360.435 164.851 308.514 176.455 256.92 176.903C216.663 177.252 173.991 177.209 153.832 176.903C128.632 176.521 123.287 188.357 122.142 196.375C120.996 204.393 125.196 215.848 136.65 218.924C148.104 222 161.85 215.466 173.304 218.924C184.758 222.382 176.358 298.174 176.358 306.336C176.358 318.313 192.435 328.607 203.413 311.881C209.972 301.889 200.174 231.516 210.865 224.762C221.556 218.008 264.557 222.456 270.033 222.456C275.509 222.456 262.717 269.211 288.477 266.838C310.38 264.821 301.446 226.779 302.599 222.456C303.752 218.134 319.314 221.015 322.772 222.456C326.231 223.897 325.793 242.749 327.095 246.665C330.805 257.818 342.755 263.792 353.908 253.635C365.062 243.478 353.187 226.203 360.68 222.456C368.173 218.71 371.452 225.709 386.38 218.924C401.307 212.138 411.565 181.734 389.013 174.287Z" fill="#FFA94D"/>
<path fill-rule="evenodd" clip-rule="evenodd" d="M128.417 214.373C130.573 216.409 133.301 218.024 136.65 218.924C142.262 220.431 148.424 219.631 154.597 218.83C159.473 218.197 164.355 217.563 168.979 218.064C168.173 216.202 167.172 214.999 165.944 214.628C160.102 212.864 153.663 213.7 147.237 214.534C141.064 215.335 134.902 216.135 129.29 214.628C128.994 214.549 128.703 214.464 128.417 214.373ZM180.234 316.096C185.678 322.077 195.779 323.513 203.413 311.881C206.306 307.473 206.017 291.313 205.707 274.049C205.314 252.179 204.89 228.537 210.865 224.762C219.633 219.222 250.135 221.219 263.844 222.116C263.959 222.123 264.073 222.131 264.185 222.138C264.051 219.672 263.657 218.161 262.673 218.161C261.688 218.161 259.49 218.017 256.484 217.82C242.776 216.923 212.273 214.927 203.505 220.466C197.531 224.241 197.955 247.884 198.347 269.754C198.657 287.018 198.947 303.177 196.053 307.586C191.168 315.029 185.273 317.121 180.234 316.096ZM276.561 262.408C279.101 265.549 282.878 267.354 288.477 266.838C305.837 265.239 303.825 241.011 302.818 228.876C302.554 225.701 302.359 223.353 302.599 222.456C303.406 219.43 311.274 219.935 317.108 221.004C316.677 219.502 316.128 218.459 315.412 218.161C311.954 216.72 296.392 213.838 295.239 218.161C295 219.058 295.195 221.405 295.458 224.581C296.466 236.715 298.477 260.944 281.117 262.543C279.44 262.697 277.927 262.644 276.561 262.408ZM331.568 254.191C336.148 255.264 341.432 253.999 346.548 249.34C352.738 243.703 351.835 235.873 351.087 229.381C350.487 224.175 349.985 219.828 353.32 218.161C356.494 216.574 358.912 216.915 361.78 217.32C365.682 217.871 370.416 218.539 379.02 214.628C391.837 208.802 401.212 185.562 389.329 174.394C411.468 182.02 401.237 212.17 386.38 218.924C377.776 222.834 373.042 222.166 369.14 221.615C366.272 221.211 363.854 220.869 360.68 222.456C357.345 224.124 357.846 228.47 358.447 233.677C359.195 240.169 360.098 247.998 353.908 253.635C345.688 261.121 337.036 259.845 331.568 254.191Z" fill="#FF922B"/>
<path fill-rule="evenodd" clip-rule="evenodd" d="M331.113 165.618C353.92 163.855 375.309 163.139 390.985 168.315C398.086 170.66 403.07 175.025 405.854 180.664C408.563 186.153 408.917 192.282 407.949 197.917C406.074 208.833 398.774 220.196 388.982 224.647C380.367 228.563 374.642 228.627 369.995 228.072C369.173 227.973 368.49 227.884 367.911 227.808C365.903 227.545 365.165 227.448 364.313 227.728C364.312 227.748 364.311 227.769 364.31 227.791C364.248 229.028 364.41 230.445 364.651 232.555C364.734 233.276 364.825 234.078 364.921 234.982C365.559 241.039 366.227 250.92 358.143 258.283C351.174 264.629 343.075 266.561 335.719 264.104C328.655 261.745 323.486 255.733 321.129 248.648C320.515 246.802 320.265 244.04 320.091 241.957C319.996 240.826 319.916 239.744 319.835 238.657C319.729 237.22 319.622 235.774 319.48 234.196C319.242 231.567 318.964 229.332 318.605 227.747C316.847 227.314 314.104 226.786 311.316 226.561C310.416 226.489 309.617 226.458 308.931 226.46C308.974 227.013 309.023 227.611 309.078 228.263C309.133 228.926 309.192 229.646 309.255 230.433C309.592 234.688 309.949 240.284 309.595 245.905C309.248 251.425 308.184 257.645 305.209 262.802C302.026 268.317 296.752 272.39 289.054 273.099C284.9 273.481 281.079 272.905 277.726 271.248C274.369 269.587 271.912 267.055 270.153 264.215C266.785 258.78 265.739 251.837 265.372 245.925C265.095 241.444 265.187 236.791 265.261 233.066C265.286 231.822 265.308 230.681 265.314 229.685C265.317 229.26 265.317 228.87 265.314 228.512C264.622 228.468 263.883 228.419 263.109 228.368C261.997 228.296 260.813 228.218 259.588 228.141C254.65 227.832 248.529 227.493 242.273 227.362C235.99 227.23 229.715 227.311 224.444 227.811C219.221 228.306 215.988 229.138 214.528 229.902C214.413 230.102 214.12 230.651 213.773 231.821C213.178 233.827 212.705 236.692 212.376 240.376C211.722 247.711 211.73 257.146 211.877 267.012C211.911 269.274 211.952 271.56 211.993 273.84C212.128 281.349 212.262 288.799 212.128 295.134C212.041 299.273 211.838 303.134 211.413 306.364C211.028 309.29 210.349 312.773 208.671 315.33C205.382 320.34 201.376 323.828 196.856 325.606C192.295 327.4 187.663 327.265 183.602 325.774C175.767 322.896 170.07 314.994 170.07 306.335C170.07 304.555 170.394 300.263 170.807 294.798C170.938 293.057 171.079 291.196 171.221 289.26C171.827 280.975 172.512 270.729 172.842 260.658C173.174 250.528 173.136 240.829 172.361 233.558C171.969 229.884 171.422 227.183 170.804 225.456C170.685 225.124 170.578 224.868 170.49 224.677C166.494 223.748 161.837 224.23 155.786 225.015C155.519 225.049 155.249 225.085 154.976 225.12C149.145 225.883 141.866 226.834 135.019 224.995C119.665 220.872 114.454 205.722 115.917 195.485C116.62 190.56 118.703 183.93 124.907 178.686C131.076 173.471 140.392 170.409 153.927 170.614C174.015 170.918 216.631 170.963 256.865 170.614C275.664 170.45 294.406 168.794 312.302 167.212C318.692 166.647 324.974 166.092 331.113 165.618ZM170.211 224.175C170.212 224.173 170.226 224.19 170.253 224.231C170.224 224.197 170.21 224.177 170.211 224.175ZM265.12 225.417C265.12 225.416 265.126 225.435 265.134 225.476C265.124 225.439 265.119 225.419 265.12 225.417ZM302.599 222.455C302.36 223.352 302.555 225.699 302.818 228.875C303.826 241.009 305.837 265.238 288.477 266.837C270.851 268.46 271.275 247.083 271.545 233.421C271.67 227.116 271.762 222.455 270.033 222.455C269.048 222.455 266.85 222.311 263.844 222.114C250.136 221.217 219.633 219.221 210.865 224.76C204.891 228.535 205.315 252.178 205.707 274.048C206.017 291.312 206.307 307.471 203.414 311.88C192.435 328.606 176.358 318.311 176.358 306.335C176.358 304.813 176.651 300.939 177.051 295.622C178.801 272.423 182.622 221.735 173.304 218.922C167.462 217.158 161.024 217.994 154.597 218.828C148.424 219.629 142.262 220.429 136.65 218.922C125.196 215.846 120.996 204.392 122.142 196.374C123.287 188.356 128.632 176.52 153.832 176.902C173.991 177.207 216.663 177.251 256.92 176.902C275.991 176.736 295.106 175.046 313.071 173.458C343.708 170.75 370.998 168.337 389.013 174.286C411.565 181.732 401.308 212.137 386.38 218.922C377.776 222.833 373.042 222.165 369.14 221.614C366.273 221.209 363.855 220.868 360.68 222.455C357.346 224.122 357.847 228.469 358.447 233.675C359.196 240.167 360.098 247.997 353.909 253.634C342.755 263.791 330.806 257.816 327.096 246.663C326.634 245.275 326.391 242.009 326.115 238.308C325.614 231.569 325.005 223.385 322.773 222.455C319.314 221.014 303.752 218.132 302.599 222.455ZM308.786 223.47C308.786 223.471 308.786 223.484 308.783 223.507C308.785 223.481 308.786 223.469 308.786 223.47Z" fill="black"/>
<path d="M188.621 336.497C176.855 336.902 173.669 355.202 173.455 365.358C172.852 385.225 189.77 398.019 201.979 375.042C214.187 352.065 204.708 335.943 188.621 336.497Z" fill="#FFA94D"/>
<path fill-rule="evenodd" clip-rule="evenodd" d="M179.272 383.516C183.732 382.985 188.56 379.322 192.817 371.311C201.308 355.331 199.308 342.667 191.891 336.622C205.924 338.231 213.33 353.672 201.976 375.042C194.465 389.177 185.172 389.774 179.272 383.516Z" fill="#FF922B"/>
<path fill-rule="evenodd" clip-rule="evenodd" d="M170.845 344.989C173.392 338.445 178.591 330.549 188.404 330.211C198.793 329.854 207.75 335.036 211.712 344.521C215.539 353.682 214.168 365.501 207.531 377.992C204.134 384.385 200.011 389.073 195.198 391.588C190.153 394.225 184.794 394.212 180.124 391.902C171.387 387.581 166.835 376.452 167.168 365.196C167.286 359.708 168.192 351.807 170.845 344.989ZM173.454 365.357C173.668 355.201 176.855 336.901 188.62 336.496C204.707 335.942 214.186 352.064 201.978 375.041C189.769 398.018 172.851 385.224 173.454 365.357Z" fill="black"/>
<path d="M220.398 140.695C219.278 142.985 217.751 144.539 216.987 144.166C216.224 143.793 216.513 141.633 217.633 139.343C218.753 137.052 220.28 135.498 221.043 135.871C221.807 136.245 221.518 138.404 220.398 140.695Z" fill="white" fill-opacity="0.6"/>
<path d="M343.586 398.333C343.754 400.025 331.551 402.626 316.328 404.144C301.106 405.662 288.629 405.521 288.461 403.83C288.292 402.139 300.495 399.537 315.718 398.019C330.94 396.501 343.417 396.642 343.586 398.333Z" fill="#241806" fill-opacity="0.24"/>
<path d="M408.271 390.264C408.725 392.896 396.166 397.256 380.22 400C364.275 402.744 350.982 402.834 350.528 400.201C350.075 397.568 362.634 393.209 378.579 390.465C394.525 387.721 407.818 387.631 408.271 390.264Z" fill="#1B0F02" fill-opacity="0.2"/>
<path d="M273.23 142.285C272.804 144.248 271.785 145.692 270.954 145.512C270.124 145.331 269.796 143.594 270.223 141.632C270.649 139.669 271.668 138.225 272.499 138.405C273.329 138.586 273.657 140.323 273.23 142.285Z" fill="white" fill-opacity="0.6"/>
<path d="M204.064 188.562C204.064 190.547 202.455 192.155 200.471 192.155C198.487 192.155 196.878 190.547 196.878 188.562C196.878 186.578 198.487 184.97 200.471 184.97C202.455 184.97 204.064 186.578 204.064 188.562Z" fill="#FFE975"/>
<path d="M158.557 183.772C158.557 185.757 156.948 187.365 154.964 187.365C152.98 187.365 151.372 185.757 151.372 183.772C151.372 181.788 152.98 180.18 154.964 180.18C156.948 180.18 158.557 181.788 158.557 183.772Z" fill="#FFE975"/>
<path d="M184.904 190.96C184.904 192.945 183.296 194.553 181.311 194.553C179.327 194.553 177.719 192.945 177.719 190.96C177.719 188.976 179.327 187.368 181.311 187.368C183.296 187.368 184.904 188.976 184.904 190.96Z" fill="white"/>
<path d="M341.507 192.658C341.507 194.642 339.899 196.251 337.915 196.251C335.931 196.251 334.322 194.642 334.322 192.658C334.322 190.674 335.931 189.065 337.915 189.065C339.899 189.065 341.507 190.674 341.507 192.658Z" fill="white"/>
<path d="M310.73 186.505C310.73 188.489 309.121 190.098 307.137 190.098C305.153 190.098 303.544 188.489 303.544 186.505C303.544 184.521 305.153 182.912 307.137 182.912C309.121 182.912 310.73 184.521 310.73 186.505Z" fill="#8CF1FF"/>
<path d="M366.129 189.581C366.129 191.566 364.521 193.174 362.537 193.174C360.552 193.174 358.944 191.566 358.944 189.581C358.944 187.597 360.552 185.989 362.537 185.989C364.521 185.989 366.129 187.597 366.129 189.581Z" fill="#8CF1FF"/>
<path d="M153.767 202.935C153.767 204.919 152.159 206.528 150.174 206.528C148.19 206.528 146.582 204.919 146.582 202.935C146.582 200.951 148.19 199.342 150.174 199.342C152.159 199.342 153.767 200.951 153.767 202.935Z" fill="#8CF1FF"/>
<path d="M246.782 185.307C246.782 186.63 245.71 187.703 244.387 187.703C243.064 187.703 241.992 186.63 241.992 185.307C241.992 183.985 243.064 182.912 244.387 182.912C245.71 182.912 246.782 183.985 246.782 185.307Z" fill="#FFE975"/>
<path d="M230.411 184.973C230.411 186.296 229.338 187.368 228.015 187.368C226.693 187.368 225.62 186.296 225.62 184.973C225.62 183.65 226.693 182.578 228.015 182.578C229.338 182.578 230.411 183.65 230.411 184.973Z" fill="#FFE975"/>
<path d="M265.248 182.228C265.248 183.551 264.175 184.623 262.852 184.623C261.53 184.623 260.457 183.551 260.457 182.228C260.457 180.905 261.53 179.833 262.852 179.833C264.175 179.833 265.248 180.905 265.248 182.228Z" fill="#8CF1FF"/>
<path d="M175.324 177.785C175.324 179.108 174.252 180.18 172.929 180.18C171.607 180.18 170.534 179.108 170.534 177.785C170.534 176.462 171.607 175.39 172.929 175.39C174.252 175.39 175.324 176.462 175.324 177.785Z" fill="white"/>
<path d="M336.033 179.151C336.033 180.474 334.96 181.546 333.638 181.546C332.315 181.546 331.242 180.474 331.242 179.151C331.242 177.828 332.315 176.756 333.638 176.756C334.96 176.756 336.033 177.828 336.033 179.151Z" fill="#FFE975"/>
<path d="M299.102 185.307C299.102 186.63 298.029 187.703 296.707 187.703C295.384 187.703 294.312 186.63 294.312 185.307C294.312 183.985 295.384 182.912 296.707 182.912C298.029 182.912 299.102 183.985 299.102 185.307Z" fill="white"/>
<path d="M211.251 201.737C211.251 203.06 210.179 204.133 208.856 204.133C207.534 204.133 206.461 203.06 206.461 201.737C206.461 200.415 207.534 199.342 208.856 199.342C210.179 199.342 211.251 200.415 211.251 201.737Z" fill="white"/>
<path d="M216.041 177.785C216.041 179.108 214.969 180.18 213.646 180.18C212.323 180.18 211.251 179.108 211.251 177.785C211.251 176.462 212.323 175.39 213.646 175.39C214.969 175.39 216.041 176.462 216.041 177.785Z" fill="#8CF1FF"/>
<path d="M274.827 189.413C274.827 190.735 273.755 191.808 272.432 191.808C271.109 191.808 270.037 190.735 270.037 189.413C270.037 188.09 271.109 187.018 272.432 187.018C273.755 187.018 274.827 188.09 274.827 189.413Z" fill="white"/>
<path d="M393.827 177.269C393.827 179.254 392.219 180.862 390.235 180.862C388.25 180.862 386.642 179.254 386.642 177.269C386.642 175.285 388.25 173.677 390.235 173.677C392.219 173.677 393.827 175.285 393.827 177.269Z" fill="#8CF1FF"/>
<path d="M348.345 172.995C348.345 174.318 347.273 175.39 345.95 175.39C344.627 175.39 343.555 174.318 343.555 172.995C343.555 171.672 344.627 170.6 345.95 170.6C347.273 170.6 348.345 171.672 348.345 172.995Z" fill="#8CF1FF"/>
<path d="M382.199 176.072C382.199 177.395 381.127 178.467 379.804 178.467C378.482 178.467 377.409 177.395 377.409 176.072C377.409 174.749 378.482 173.677 379.804 173.677C381.127 173.677 382.199 174.749 382.199 176.072Z" fill="white"/>
<path d="M357.925 180.18C357.925 181.503 356.852 182.575 355.529 182.575C354.207 182.575 353.134 181.503 353.134 180.18C353.134 178.857 354.207 177.785 355.529 177.785C356.852 177.785 357.925 178.857 357.925 180.18Z" fill="white"/>
<path d="M142.139 191.461C142.139 192.783 141.067 193.856 139.744 193.856C138.421 193.856 137.349 192.783 137.349 191.461C137.349 190.138 138.421 189.065 139.744 189.065C141.067 189.065 142.139 190.138 142.139 191.461Z" fill="white"/>
<path fill-rule="evenodd" clip-rule="evenodd" d="M409.356 356.764L409.369 356.767C410.09 361.904 410.99 372.763 407.673 374.847C407.14 375.182 406.649 375.376 406.182 375.485C398.518 393.76 378.612 404.438 358.631 399.876C341.667 396.003 329.52 382.259 326.865 366.087C325.616 365.841 324.492 365.098 323.614 363.47C321.217 359.024 325.994 348.794 330.078 342.102C338.082 324.533 357.567 314.398 377.126 318.863C395.511 323.06 408.239 338.852 409.356 356.764Z" fill="#FFF9DB"/>
<path fill-rule="evenodd" clip-rule="evenodd" d="M415.602 355.942C414.142 335.502 399.554 317.532 378.525 312.731C356.129 307.618 333.83 319.129 324.516 339.144C322.389 342.667 320.042 347.159 318.491 351.519C317.694 353.759 317.028 356.182 316.783 358.548C316.549 360.813 316.622 363.752 318.078 366.452C318.925 368.024 320.011 369.322 321.298 370.304C325.349 387.505 338.82 401.802 357.23 406.005C379.39 411.064 401.457 399.847 410.942 380.217C410.967 380.202 410.992 380.186 411.017 380.17L410.987 380.123L411.017 380.17C413.928 378.341 415.033 375.288 415.514 373.483C416.064 371.419 416.264 369.157 416.32 367.124C416.433 363.037 415.985 358.681 415.602 355.942ZM409.355 356.762L409.368 356.765C410.09 361.902 410.989 372.762 407.672 374.846C407.139 375.181 406.648 375.375 406.181 375.484C398.517 393.758 378.612 404.436 358.63 399.874C341.666 396.002 329.519 382.258 326.864 366.086C325.615 365.839 324.491 365.097 323.613 363.469C321.216 359.022 325.993 348.792 330.078 342.101C338.081 324.532 357.567 314.396 377.125 318.861C395.51 323.059 408.238 338.851 409.355 356.762Z" fill="black"/>
<path fill-rule="evenodd" clip-rule="evenodd" d="M383.943 338.032L385.147 333.415L387.464 334.019L386.261 338.636L383.943 338.032Z" fill="#3DF3FF"/>
<path fill-rule="evenodd" clip-rule="evenodd" d="M342.449 335.295L339.514 331.355L341.435 329.924L344.37 333.864L342.449 335.295Z" fill="#FF859B"/>
<path fill-rule="evenodd" clip-rule="evenodd" d="M364.332 334.763L373.913 328.776L375.182 330.807L365.602 336.795L364.332 334.763Z" fill="#FF8BEC"/>
<path fill-rule="evenodd" clip-rule="evenodd" d="M391.811 333.163L382.276 326.118L383.699 324.192L393.234 331.236L391.811 333.163Z" fill="#FF859B"/>
<path fill-rule="evenodd" clip-rule="evenodd" d="M352.016 332.989L354.802 329.092L356.75 330.485L353.964 334.382L352.016 332.989Z" fill="#3DF3FF"/>
<path fill-rule="evenodd" clip-rule="evenodd" d="M363.946 325.672L365.281 321.072L367.581 321.74L366.246 326.34L363.946 325.672Z" fill="#FF8BEC"/>
<path d="M323.35 367.686C320.603 362.495 327.528 349.384 331.745 343.215L408.202 360.67C408.898 365.821 409.751 376.714 406.463 378.816C402.352 381.443 400.779 375.524 393.31 387.224C388.938 394.071 383.242 391.344 372.42 380.315C365.262 373.019 357.324 381.861 347.053 383.796C336.782 385.73 341.212 372.477 337.673 369.53C334.133 366.582 326.783 374.176 323.35 367.686Z" fill="#F2C56D"/>
<path d="M323.35 364.542C320.603 359.35 327.528 346.24 331.745 340.07L408.202 357.525C408.898 362.677 409.751 373.569 406.463 375.671C402.352 378.299 400.779 372.38 393.31 384.08C388.938 390.927 383.242 388.2 372.42 377.171C365.262 369.875 357.324 378.717 347.053 380.651C336.782 382.586 341.212 369.333 337.673 366.385C334.133 363.438 326.783 371.031 323.35 364.542Z" fill="#FFF9DB"/>
<path d="M316.97 402.925C338.549 397.077 351.301 374.844 345.454 353.265L267.311 374.442C273.158 396.02 295.392 408.773 316.97 402.925Z" fill="#94502A"/>
<path d="M355.864 384.5C358.326 369.728 349.709 355.775 345.092 350.646L338.937 389.117C343.554 393.734 353.402 399.273 355.864 384.5Z" fill="#743C1C" fill-opacity="0.11"/>
<path d="M280.37 393.676C273.885 395.434 267.58 382.442 266.663 373.918L342.935 349.692C344.84 354.155 346.387 357.292 346.776 366.434C347.213 376.712 339.752 376.11 332.399 372.464C321.699 367.157 317.993 370.677 314.78 379.372C311.897 387.175 303.387 393.841 296.692 387.119C289.998 380.398 284.91 392.446 280.37 393.676Z" fill="#823F1A"/>
<path d="M280.37 390.532C273.885 392.289 267.58 379.298 266.663 370.774L342.935 346.548C344.84 351.011 346.387 354.148 346.776 363.29C347.213 373.567 339.752 372.966 332.399 369.319C321.699 364.013 317.993 367.533 314.78 376.228C311.897 384.031 303.387 390.696 296.692 383.975C289.998 377.253 284.91 389.302 280.37 390.532Z" fill="#94502A"/>
<path d="M343.115 347.519C344.735 352.407 328.882 362.061 307.706 369.08C286.53 376.1 268.049 377.828 266.429 372.939C264.808 368.051 269.718 355.347 301.838 351.378C321.701 348.85 339.248 335.854 343.115 347.519Z" fill="#A3613C"/>
<path fill-rule="evenodd" clip-rule="evenodd" d="M346.627 359.458C348.779 378.946 336.483 397.637 316.968 402.925C299.937 407.54 282.498 400.57 273.029 386.818C271.618 385.039 270.354 382.796 269.326 380.41C268.733 379.037 268.219 377.616 267.8 376.21C267.669 375.771 267.547 375.333 267.435 374.899C267.392 374.749 267.351 374.599 267.31 374.448C267.309 374.446 267.309 374.444 267.308 374.442L267.319 374.439C267.29 374.317 267.261 374.196 267.233 374.075C267.228 374.071 267.223 374.066 267.217 374.062C267.212 374.057 267.207 374.053 267.201 374.048C266.826 373.726 266.565 373.357 266.426 372.94C266.19 372.226 266.092 371.345 266.199 370.349C266.2 370.338 266.201 370.328 266.202 370.317C266.849 364.491 274.458 354.762 301.835 351.378C308.944 350.474 315.756 348.228 321.75 346.252C332.04 342.86 339.921 340.262 342.758 346.602L342.934 346.547C343.034 346.779 343.132 347.007 343.229 347.234L343.235 347.247C344.081 349.217 344.845 350.996 345.451 353.266C345.504 353.46 345.555 353.655 345.605 353.85C345.606 353.855 345.608 353.86 345.609 353.865C346.084 355.73 346.421 357.598 346.627 359.458ZM351.512 351.588L351.52 351.621C358.277 376.551 343.543 402.238 318.613 408.994C298.997 414.31 278.928 406.322 267.967 390.553C264.987 386.731 262.752 381.645 261.491 377.016C261.072 376.397 260.716 375.699 260.457 374.918C260.039 373.656 259.841 372.332 259.854 370.978L259.594 370.018L259.907 369.933C260.301 365.511 262.893 360.858 267.406 357.023C273.742 351.638 284.359 347.204 301.052 345.139C307.463 344.322 313.71 342.282 319.782 340.28C319.956 340.223 320.131 340.165 320.306 340.107C325.02 338.551 330.178 336.85 334.561 336.509C336.943 336.323 339.709 336.472 342.345 337.679C343.303 338.118 344.174 338.665 344.956 339.307L346.475 338.824L348.717 344.077C348.813 344.301 348.908 344.521 349.004 344.746L349.011 344.762L349.013 344.766L349.061 344.878C349.179 345.153 349.299 345.433 349.421 345.719L349.888 345.596L351.475 351.452C351.487 351.497 351.499 351.543 351.512 351.588Z" fill="black"/>
<path d="M374.837 107.785C375.876 88.0485 397.362 104.405 406.092 117.716C413.032 110.476 425.234 104.631 430.772 110.69C436.865 117.354 418.91 138.048 403.506 144.589C395.511 141.058 374.119 121.431 374.837 107.785Z" fill="#FF859B"/>
<path d="M69.2372 310.461C61.5549 300.885 75.7361 296.378 89.5506 300.077C89.8707 291.073 94.2348 282.17 101.571 282.917C109.642 283.739 110.305 306.036 103.894 319.635C96.4227 322.051 76.9195 320.036 69.2372 310.461Z" fill="#FFF385"/>
<path d="M427.415 226.088C427.838 224.369 429.916 223.687 431.275 224.822L435.163 228.068C435.775 228.578 436.6 228.751 437.365 228.529L442.229 227.119C443.93 226.625 445.559 228.084 445.256 229.829L444.389 234.818C444.253 235.603 444.515 236.405 445.09 236.956L448.744 240.463C450.021 241.689 449.572 243.83 447.91 244.44L443.156 246.184C442.408 246.458 441.845 247.086 441.655 247.86L440.444 252.778C440.021 254.497 437.943 255.179 436.584 254.044L432.696 250.798C432.085 250.288 431.259 250.115 430.494 250.337L425.63 251.747C423.929 252.24 422.3 250.782 422.603 249.037L423.47 244.047C423.607 243.262 423.344 242.461 422.769 241.909L419.115 238.403C417.838 237.176 418.287 235.036 419.949 234.426L424.704 232.682C425.452 232.408 426.014 231.779 426.205 231.006L427.415 226.088Z" fill="#FFF385"/>
<path d="M441.916 386.855C444.228 385.845 446.798 387.606 446.692 390.126L446.536 393.807C446.488 394.941 447.007 396.024 447.92 396.698L450.885 398.884C452.916 400.381 452.676 403.487 450.44 404.655L447.175 406.36C446.169 406.885 445.49 407.877 445.363 409.004L444.953 412.665C444.672 415.172 441.862 416.518 439.733 415.165L436.623 413.19C435.665 412.581 434.467 412.489 433.427 412.944L430.051 414.419C427.74 415.429 425.169 413.668 425.276 411.148L425.432 407.467C425.48 406.333 424.961 405.249 424.048 404.576L421.082 402.39C419.052 400.893 419.291 397.787 421.527 396.619L424.793 394.914C425.799 394.388 426.478 393.397 426.604 392.269L427.015 388.608C427.296 386.101 430.106 384.756 432.235 386.108L435.345 388.084C436.303 388.692 437.501 388.785 438.541 388.33L441.916 386.855Z" fill="#FF859B"/>
<path fill-rule="evenodd" clip-rule="evenodd" d="M452.881 392.542L454.615 393.82C460.387 398.076 459.706 406.907 453.349 410.227L451.44 411.224L451.2 413.364C450.401 420.491 442.412 424.317 436.359 420.471L434.541 419.317L432.567 420.179C425.996 423.051 418.688 418.045 418.992 410.88L419.083 408.728L417.349 407.45C411.577 403.195 412.258 394.363 418.615 391.043L420.524 390.046L420.764 387.906C421.563 380.779 429.552 376.953 435.605 380.799L437.423 381.954L439.396 381.091C445.968 378.22 453.276 383.226 452.972 390.391L452.881 392.542ZM446.69 390.125C446.796 387.604 444.226 385.843 441.914 386.853L438.539 388.329C437.499 388.783 436.301 388.691 435.343 388.082L432.233 386.107C430.104 384.754 427.294 386.1 427.013 388.607L426.602 392.268C426.476 393.396 425.797 394.387 424.791 394.912L421.525 396.617C419.289 397.785 419.05 400.892 421.08 402.388L424.046 404.574C424.959 405.248 425.478 406.331 425.43 407.465L425.274 411.146C425.167 413.666 427.738 415.427 430.049 414.417L433.425 412.942C434.465 412.487 435.663 412.58 436.621 413.188L439.731 415.164C441.86 416.516 444.67 415.171 444.951 412.664L445.361 409.003C445.488 407.875 446.167 406.884 447.173 406.358L450.438 404.653C452.674 403.485 452.914 400.379 450.883 398.882L447.918 396.696C447.005 396.023 446.486 394.939 446.534 393.805L446.69 390.125Z" fill="black"/>
<path d="M84.4307 153.739C84.6171 152.982 85.5325 152.682 86.1312 153.182L94.2448 159.955C94.5141 160.18 94.8777 160.256 95.2147 160.159L105.366 157.214C106.115 156.997 106.832 157.64 106.699 158.408L104.89 168.822C104.83 169.167 104.945 169.52 105.199 169.763L112.824 177.082C113.386 177.622 113.189 178.565 112.456 178.834L102.534 182.474C102.204 182.594 101.956 182.871 101.873 183.212L99.3467 193.475C99.1603 194.232 98.2449 194.533 97.6462 194.033L89.5326 187.259C89.2633 187.034 88.8997 186.958 88.5627 187.056L78.4117 190C77.6626 190.217 76.9449 189.574 77.0784 188.806L78.8877 178.393C78.9478 178.047 78.832 177.694 78.5789 177.451L70.9537 170.132C70.391 169.592 70.5887 168.649 71.3209 168.381L81.2438 164.741C81.5732 164.62 81.821 164.343 81.9049 164.002L84.4307 153.739Z" fill="#E8FCFF"/>
<defs>
<filter id="filter0_i_39_1098" x="161.968" y="373.726" width="193.894" height="24.6213" filterUnits="userSpaceOnUse" color-interpolation-filters="sRGB">
<feFlood flood-opacity="0" result="BackgroundImageFix"/>
<feBlend mode="normal" in="SourceGraphic" in2="BackgroundImageFix" result="shape"/>
<feColorMatrix in="SourceAlpha" type="matrix" values="0 0 0 0 0 0 0 0 0 0 0 0 0 0 0 0 0 0 127 0" result="hardAlpha"/>
<feOffset dy="6.15536"/>
<feComposite in2="hardAlpha" operator="arithmetic" k2="-1" k3="1"/>
<feColorMatrix type="matrix" values="0 0 0 0 0 0 0 0 0 0 0 0 0 0 0 0 0 0 0.25 0"/>
<feBlend mode="normal" in2="shape" result="effect1_innerShadow_39_1098"/>
</filter>
</defs>
</svg>
