<svg width="512" height="512" viewBox="0 0 512 512" fill="none" xmlns="http://www.w3.org/2000/svg">
<path d="M199.351 73.5321C180.278 76.9677 160.797 83.4732 140.966 93.5451C91.7093 118.562 64.1263 181.347 79.4162 238.468C85.6927 261.917 78.2334 279.397 70.215 297.83L70.0348 298.244C65.5124 308.639 60.683 319.739 59.3102 331.783C58.0523 342.82 59.6964 354.384 66.2292 367.065C63.1107 368.8 60.3341 370.782 58.0485 373.017C54.2292 376.751 51.439 381.566 51.439 387.237C51.439 394.332 55.7569 400.02 61.1251 404.101C65.95 407.768 72.2881 410.696 79.4495 412.837C82.0898 416.735 86.5137 419.379 90.7695 421.073C96.5171 423.361 103.682 424.637 111.278 424.637C116.626 424.637 121.74 424.005 126.289 422.844C167.293 444.81 221.179 456.239 273.397 452.954C326.607 449.606 378.927 430.906 414.069 391.433C448.607 352.638 463.69 312.438 463.897 274.153C464.09 238.431 451.33 204.945 430.297 176.382L455.452 161.988C461.615 158.462 463.705 150.577 460.099 144.46L454.928 147.509L460.099 144.46C456.493 138.344 448.582 136.356 442.512 140.041L414.256 157.198C411.656 154.442 408.976 151.747 406.219 149.114L428.044 132.838C433.737 128.593 434.86 120.514 430.541 114.877C426.223 109.24 418.129 108.222 412.549 112.614L387.062 132.672C372.997 121.572 358.329 111.409 343.094 102.662C343.651 98.4799 343.539 94.0528 342.686 89.3611C340.154 75.4334 329.413 67.2703 320.726 63.046C316.195 60.8432 311.598 59.3784 307.609 58.5303C304.024 57.768 299.646 57.2235 295.981 57.8899C290.08 58.9628 286.103 64.4685 286.858 70.3485C283.321 67.1725 279.421 64.7839 275.846 63.046C271.316 60.8432 266.719 59.3784 262.73 58.5303C259.144 57.768 254.767 57.2235 251.102 57.8899C245.619 58.8868 241.796 63.7113 241.888 69.1071C238.781 66.561 235.458 64.5703 232.323 63.046C227.793 60.8432 223.196 59.3784 219.207 58.5303C215.621 57.768 211.244 57.2235 207.578 57.8899C201.482 58.9984 197.438 64.8393 198.547 70.9359C198.713 71.851 198.986 72.72 199.351 73.5321ZM295.007 80.9065C294.773 80.435 294.53 79.9727 294.277 79.5194C295.948 80.1063 297.778 80.3049 299.641 80.0263C299.746 80.0277 299.915 80.0336 300.148 80.0513C300.756 80.0972 301.697 80.2145 302.943 80.4794C305.315 80.9837 308.164 81.8897 310.913 83.2265C315.267 85.3434 318.137 87.8719 319.599 90.5614C311.547 86.8934 303.348 83.6534 295.007 80.9065ZM299.506 80.0276C299.505 80.0274 299.516 80.0268 299.539 80.0264C299.518 80.0276 299.506 80.0278 299.506 80.0276Z" fill="#5C75CD" stroke="white" stroke-width="12.8227" stroke-linejoin="round"/>
<path fill-rule="evenodd" clip-rule="evenodd" d="M195.866 182.41C187.979 169.805 187.447 153.17 198.934 137.506C203.021 131.933 207.967 127.358 212.416 123.501C213.773 122.325 215.095 121.205 216.355 120.138L216.357 120.136L216.369 120.126L220.513 125.018L220.513 125.018L220.512 125.019L220.512 125.019C219.244 126.093 217.945 127.193 216.616 128.345C212.25 132.13 207.752 136.324 204.104 141.297C194.143 154.88 194.83 168.667 201.301 179.009L195.866 182.41ZM226.448 132.597L230.592 137.489C229.38 138.516 228.221 139.497 227.115 140.457C222.955 144.062 219.577 147.303 217.029 150.776C213.832 155.137 212.682 158.926 212.555 162.025C212.428 165.135 213.313 167.99 214.888 170.507C218.346 176.034 224.854 179.525 230.421 179.525C236.618 179.525 241.641 184.548 241.641 190.744C241.641 196.941 236.618 201.964 230.421 201.964C216.751 201.964 203.225 194.172 195.866 182.41L201.301 179.009C207.546 188.991 219.068 195.553 230.421 195.553C233.077 195.553 235.23 193.4 235.23 190.744C235.23 188.089 233.077 185.936 230.421 185.936C222.541 185.936 214.027 181.218 209.453 173.908C205.105 166.959 204.189 157.444 211.859 146.985C214.847 142.911 218.674 139.289 222.915 135.612C224.054 134.625 225.241 133.619 226.448 132.597ZM229.519 68.8121C237.406 72.6472 245.974 79.505 247.975 90.5083C249.338 98.0072 248.479 104.439 246.048 110.115C243.657 115.699 239.859 120.284 235.763 124.311C232.859 127.166 229.587 129.938 226.448 132.597L230.592 137.489L230.68 137.415C233.76 134.805 237.183 131.905 240.257 128.883C244.643 124.571 249.088 119.304 251.942 112.638C254.888 105.76 255.862 98.0469 254.283 89.3614C253.649 85.8725 252.499 82.7454 250.996 79.9513C252.208 80.1839 253.477 80.2187 254.761 80.0266C254.867 80.028 255.035 80.0339 255.269 80.0515C255.876 80.0975 256.817 80.2148 258.063 80.4797C260.435 80.9839 263.284 81.89 266.034 83.2268C271.88 86.0697 275.053 89.655 275.729 93.3756C276.553 97.907 275.98 101.137 274.838 103.805C273.605 106.684 271.422 109.565 268.049 112.881C265.614 115.275 262.955 117.532 259.893 120.126L264.037 125.018L259.893 120.126L259.88 120.136L259.879 120.138C258.619 121.205 257.297 122.325 255.94 123.501C251.491 127.358 246.545 131.933 242.458 137.506C230.971 153.17 231.503 169.805 239.39 182.41C246.749 194.172 260.275 201.964 273.945 201.964C280.142 201.964 285.165 196.941 285.165 190.744C285.165 184.548 280.142 179.525 273.945 179.525C268.378 179.525 261.87 176.034 258.412 170.507C256.837 167.99 255.952 165.135 256.079 162.025C256.206 158.926 257.355 155.137 260.553 150.776C263.1 147.303 266.479 144.062 270.639 140.457C271.745 139.497 272.904 138.516 274.116 137.489L274.203 137.415C277.284 134.805 280.707 131.905 283.781 128.883C288.167 124.571 292.612 119.304 295.466 112.638C298.411 105.76 299.386 98.0469 297.807 89.3614C297.14 85.6929 295.903 82.4243 294.285 79.5223C295.953 80.1072 297.781 80.3047 299.641 80.0266C299.746 80.028 299.915 80.0339 300.148 80.0515C300.756 80.0975 301.696 80.2148 302.942 80.4797C305.314 80.9839 308.164 81.89 310.913 83.2268C316.76 86.0697 319.932 89.655 320.608 93.3756C321.432 97.907 320.86 101.137 319.717 103.805C318.484 106.684 316.301 109.565 312.929 112.881C310.494 115.275 307.835 117.532 304.772 120.126L304.76 120.136L304.757 120.138C303.498 121.205 302.176 122.325 300.82 123.501C296.37 127.358 291.424 131.933 287.337 137.506C275.85 153.17 276.382 169.805 284.269 182.41C291.628 194.172 305.154 201.964 318.825 201.964C325.021 201.964 330.044 196.941 330.044 190.744C330.044 184.548 325.021 179.525 318.825 179.525C313.257 179.525 306.749 176.034 303.292 170.507C301.716 167.99 300.831 165.135 300.958 162.025C301.085 158.926 302.235 155.137 305.432 150.776C307.98 147.303 311.358 144.062 315.518 140.457C316.624 139.497 317.783 138.516 318.995 137.489L319.083 137.415C322.164 134.805 325.586 131.905 328.66 128.883C333.046 124.571 337.491 119.304 340.345 112.638C343.291 105.76 344.265 98.0469 342.686 89.3614C340.154 75.4337 329.413 67.2705 320.725 63.0463C316.195 60.8435 311.598 59.3787 307.609 58.5306C304.023 57.7683 299.646 57.2237 295.981 57.8902C290.079 58.9633 286.101 64.4711 286.858 70.3527C283.314 67.1715 279.407 64.7779 275.846 63.0463C271.316 60.8435 266.719 59.3787 262.729 58.5306C259.144 57.7683 254.767 57.2237 251.101 57.8902C245.616 58.8875 241.793 63.715 241.888 69.1132C238.747 66.5404 235.405 64.5453 232.322 63.0463L229.519 68.8121ZM229.519 68.8121L232.322 63.0463C227.792 60.8435 223.195 59.3787 219.206 58.5306C215.62 57.7683 211.243 57.2237 207.577 57.8902C201.481 58.9987 197.437 64.8396 198.546 70.9361C199.633 76.9146 205.271 80.919 211.238 80.0266C211.343 80.028 211.512 80.0339 211.745 80.0515C212.352 80.0975 213.293 80.2148 214.539 80.4797C216.911 80.9839 219.761 81.89 222.51 83.2268C228.357 86.0697 231.529 89.655 232.205 93.3756C233.029 97.907 232.457 101.137 231.314 103.805C230.081 106.684 227.898 109.565 224.526 112.881C222.09 115.275 219.431 117.532 216.369 120.126L220.513 125.018C223.541 122.453 226.386 120.043 229.02 117.453C232.682 113.853 235.511 110.29 237.208 106.329C238.865 102.458 239.553 97.9472 238.513 92.2286C237.308 85.6012 231.985 80.705 225.313 77.4609C222.055 75.8767 218.707 74.811 215.872 74.2085C212.863 73.5688 210.972 73.5642 210.445 73.66C207.832 74.1351 205.329 72.4021 204.854 69.7892C204.379 67.1764 206.112 64.6732 208.724 64.1981C211.136 63.7597 214.52 64.0891 217.872 64.8017C221.4 65.5516 225.497 66.8568 229.519 68.8121ZM264.037 125.018C267.065 122.453 269.91 120.043 272.544 117.453C276.206 113.853 279.035 110.29 280.732 106.329C282.389 102.458 283.077 97.9472 282.037 92.2286C280.832 85.6012 275.509 80.705 268.837 77.4609C265.579 75.8767 262.23 74.811 259.396 74.2085C256.387 73.5688 254.495 73.5642 253.969 73.66C251.356 74.1351 248.852 72.4021 248.377 69.7892C247.902 67.1764 249.635 64.6732 252.248 64.1981C254.66 63.7597 258.044 64.0891 261.396 64.8017C264.923 65.5516 269.021 66.8568 273.043 68.8121C280.93 72.6472 289.498 79.505 291.499 90.5083C292.862 98.0072 292.002 104.439 289.572 110.115C287.181 115.699 283.382 120.284 279.286 124.311C276.382 127.166 273.111 129.938 269.972 132.597L269.972 132.597L269.972 132.597C268.765 133.619 267.578 134.625 266.439 135.612C262.198 139.289 258.371 142.911 255.383 146.985C247.713 157.444 248.629 166.959 252.977 173.908C257.551 181.218 266.065 185.936 273.945 185.936C276.601 185.936 278.754 188.089 278.754 190.744C278.754 193.4 276.601 195.553 273.945 195.553C262.592 195.553 251.07 188.991 244.825 179.009C238.354 168.667 237.667 154.88 247.628 141.297C251.275 136.324 255.774 132.13 260.14 128.345C261.469 127.193 262.769 126.092 264.037 125.018L264.037 125.018ZM211.102 80.0279C211.102 80.0277 211.113 80.0271 211.135 80.0267C211.114 80.0279 211.103 80.0281 211.102 80.0279ZM254.626 80.0279C254.626 80.0277 254.637 80.0271 254.659 80.0267L254.638 80.0277C254.63 80.028 254.626 80.028 254.626 80.0279ZM308.916 125.018L308.916 125.018C311.944 122.453 314.789 120.043 317.424 117.453C321.085 113.853 323.915 110.29 325.611 106.329C327.268 102.458 327.956 97.9472 326.916 92.2286C325.711 85.6012 320.388 80.705 313.716 77.4609C310.458 75.8767 307.11 74.811 304.276 74.2085C301.266 73.5688 299.375 73.5642 298.848 73.66C296.235 74.1351 293.732 72.4021 293.257 69.7892C292.782 67.1764 294.515 64.6732 297.127 64.1981C299.539 63.7597 302.923 64.0891 306.275 64.8017C309.803 65.5516 313.9 66.8568 317.922 68.8121C325.809 72.6472 334.377 79.505 336.378 90.5083C337.742 98.0072 336.882 104.439 334.451 110.115C332.06 115.699 328.262 120.284 324.166 124.311C321.262 127.166 317.99 129.938 314.851 132.597L314.851 132.597C313.644 133.619 312.457 134.625 311.318 135.612C307.077 139.289 303.25 142.911 300.262 146.985C292.592 157.444 293.508 166.959 297.856 173.908C302.43 181.218 310.944 185.936 318.825 185.936C321.48 185.936 323.633 188.089 323.633 190.744C323.633 193.4 321.48 195.553 318.825 195.553C307.471 195.553 295.949 188.991 289.704 179.009C283.233 168.667 282.546 154.88 292.507 141.297C296.155 136.324 300.653 132.13 305.019 128.345C306.349 127.193 307.648 126.092 308.916 125.018ZM299.505 80.0279C299.505 80.0277 299.516 80.0271 299.539 80.0267C299.517 80.0279 299.506 80.0281 299.505 80.0279Z" fill="black"/>
<path d="M85.6083 236.811C71.0612 182.465 97.4502 122.837 143.868 99.2618C236.605 52.1618 319.913 85.9288 389.102 142.538C459.627 200.24 490.08 296.41 409.279 387.17C322.823 484.282 125.57 452.529 74.6981 369.054C43.786 318.33 100.55 292.632 85.6083 236.811Z" fill="#F1925C"/>
<path fill-rule="evenodd" clip-rule="evenodd" d="M79.415 238.468C64.1251 181.346 91.7081 118.561 140.965 93.5443C236.974 44.7824 323.061 80.2201 393.162 137.575C429.367 167.197 455.666 207 462.279 251.514C468.922 296.227 455.567 344.818 414.068 391.432C368.987 442.069 295.676 458.556 228.046 452.214C160.64 445.894 96.1746 416.614 69.2233 372.389C60.8493 358.648 58.2258 346.217 59.0678 334.385C59.8921 322.802 64.0267 312.223 68.2711 302.318C68.8903 300.872 69.5128 299.437 70.1325 298.008C78.1696 279.478 85.7278 262.052 79.415 238.468ZM143.868 99.2606C97.4502 122.836 71.0612 182.464 85.6083 236.81C92.5188 262.627 84.0911 282 76.093 300.387C66.7978 321.755 58.0828 341.789 74.6981 369.053C125.57 452.528 322.823 484.281 409.279 387.169C490.08 296.409 459.627 200.239 389.102 142.537C319.913 85.9277 236.605 52.1607 143.868 99.2606Z" fill="black"/>
<ellipse cx="273.698" cy="354.11" rx="137.844" ry="57.702" fill="#222222" fill-opacity="0.17"/>
<ellipse cx="273.701" cy="363.727" rx="121.815" ry="44.8793" fill="#8E805B"/>
<g style="mix-blend-mode:soft-light" opacity="0.8">
<path d="M244.418 253.822C245.616 251.305 250.566 251.342 254.159 252.669C258.428 254.246 262.628 257.655 263.254 258.52C264.037 259.601 260.411 260.6 252.602 257.084C249.465 255.672 243.22 256.338 244.418 253.822Z" fill="#F8F9FA"/>
</g>
<g style="mix-blend-mode:soft-light" opacity="0.8">
<path d="M263.266 214.595C264.82 212.935 268.662 212.653 271.131 213.268C274.064 213.999 276.49 215.889 276.764 216.396C277.107 217.028 274.038 217.881 268.829 216.147C266.736 215.45 261.712 216.254 263.266 214.595Z" fill="#F8F9FA"/>
</g>
<path d="M273.701 411.812C307.617 411.812 338.463 406.752 360.946 398.469C372.175 394.332 381.486 389.33 388.049 383.613C394.605 377.903 398.722 371.192 398.722 363.727C398.722 356.261 394.605 349.551 388.049 343.84C381.486 338.124 372.175 333.121 360.946 328.984C338.463 320.701 307.617 315.642 273.701 315.642C239.785 315.642 208.939 320.701 186.456 328.984C175.228 333.121 165.916 338.124 159.353 343.84C152.797 349.551 148.68 356.261 148.68 363.727C148.68 371.192 152.797 377.903 159.353 383.613C165.916 389.33 175.228 394.332 186.456 398.469C208.939 406.752 239.785 411.812 273.701 411.812Z" stroke="black" stroke-width="6.41133"/>
<path fill-rule="evenodd" clip-rule="evenodd" d="M129.479 238.706H129.446V331.67H129.48C129.457 332.203 129.446 332.737 129.446 333.273C129.446 355.318 147.965 373.368 173.472 385.529C199.454 397.916 234.898 405.4 273.701 405.4C312.504 405.4 347.948 397.916 373.93 385.529C399.437 373.368 417.956 355.318 417.956 333.273C417.956 332.737 417.945 332.203 417.923 331.67H417.956V238.706H417.923C417.05 217.388 398.816 199.917 373.93 188.053C347.948 175.666 312.504 168.181 273.701 168.181C234.898 168.181 199.454 175.666 173.472 188.053C148.586 199.917 130.352 217.388 129.479 238.706ZM273.701 312.436C312.504 312.436 347.948 304.951 373.93 292.564C390.436 284.695 404.016 274.359 411.545 262.071V325.259H410.53C411.068 327.367 411.396 329.505 411.505 331.67C411.531 332.203 411.545 332.737 411.545 333.273C411.545 369.567 349.83 398.989 273.701 398.989C197.572 398.989 135.857 369.567 135.857 333.273C135.857 332.737 135.871 332.203 135.898 331.67C136.006 329.505 136.335 327.367 136.872 325.259H135.857V262.071C143.386 274.359 156.966 284.695 173.472 292.564C199.454 304.951 234.898 312.436 273.701 312.436ZM135.898 238.706C137.683 203.152 198.696 174.592 273.701 174.592C348.706 174.592 409.719 203.152 411.505 238.706H135.898ZM136.221 245.117H411.181C406.016 279.166 346.438 306.025 273.701 306.025C200.964 306.025 141.386 279.166 136.221 245.117Z" fill="black"/>
<path fill-rule="evenodd" clip-rule="evenodd" d="M411.542 241.912H135.854V334.876H135.895C137.68 370.429 198.693 398.989 273.698 398.989C348.703 398.989 409.717 370.429 411.502 334.876H411.542V333.317C411.542 333.303 411.542 333.288 411.542 333.273C411.542 333.258 411.542 333.244 411.542 333.229V241.912Z" fill="#FFE8CC"/>
<mask id="mask0_39_2590" style="mask-type:alpha" maskUnits="userSpaceOnUse" x="135" y="241" width="277" height="155">
<path fill-rule="evenodd" clip-rule="evenodd" d="M411.542 241.912H135.855V330.016C135.855 330.033 135.855 330.051 135.855 330.068C135.855 330.085 135.855 330.102 135.855 330.12V334.876H136.218C141.383 368.925 200.962 395.784 273.699 395.784C346.436 395.784 406.014 368.925 411.179 334.876H411.542L411.542 330.068L411.542 241.912Z" fill="#FFE8CC"/>
</mask>
<g mask="url(#mask0_39_2590)">
<path d="M414.748 302.82C414.748 339.999 351.598 370.139 273.698 370.139C195.799 370.139 132.649 339.999 132.649 302.82" stroke="#A99665" stroke-width="3.20567"/>
<path d="M414.748 267.557C414.748 304.736 351.598 334.876 273.698 334.876C195.799 334.876 132.649 304.736 132.649 267.557" stroke="#A99665" stroke-width="3.20567"/>
</g>
<path d="M408.336 240.309C408.336 256.507 394.452 272.125 369.789 283.883C345.363 295.528 311.393 302.819 273.698 302.819C236.003 302.819 202.033 295.528 177.607 283.883C152.943 272.125 139.06 256.507 139.06 240.309C139.06 224.111 152.943 208.492 177.607 196.734C202.033 185.089 236.003 177.798 273.698 177.798C311.393 177.798 345.363 185.089 369.789 196.734C394.452 208.492 408.336 224.111 408.336 240.309Z" fill="#FFE8CC" stroke="#9E8F68" stroke-width="6.41133"/>
<path d="M411.545 240.309C411.545 276.603 349.83 306.025 273.701 306.025C197.572 306.025 135.858 276.603 135.858 240.309C135.858 204.015 197.572 174.593 273.701 174.593C349.83 174.593 411.545 204.015 411.545 240.309Z" fill="#FFE8CC"/>
<path fill-rule="evenodd" clip-rule="evenodd" d="M406.983 257.138C409.959 251.767 411.545 246.126 411.545 240.309C411.545 204.015 349.83 174.593 273.701 174.593C197.572 174.593 135.858 204.015 135.858 240.309C135.858 246.126 137.443 251.767 140.42 257.139C156.012 228.998 209.775 208.252 273.701 208.252C337.628 208.252 391.391 228.998 406.983 257.138Z" fill="#ECCCA6"/>
<path fill-rule="evenodd" clip-rule="evenodd" d="M368.412 280.99C392.795 269.365 405.134 254.558 405.134 240.309C405.134 226.06 392.795 211.252 368.412 199.628C344.505 188.23 311.027 181.004 273.701 181.004C236.375 181.004 202.897 188.23 178.99 199.628C154.607 211.252 142.269 226.06 142.269 240.309C142.269 254.558 154.607 269.365 178.99 280.99C202.897 292.387 236.375 299.614 273.701 299.614C311.027 299.614 344.505 292.387 368.412 280.99ZM273.701 306.025C349.83 306.025 411.545 276.603 411.545 240.309C411.545 204.015 349.83 174.593 273.701 174.593C197.572 174.593 135.858 204.015 135.858 240.309C135.858 276.603 197.572 306.025 273.701 306.025Z" fill="#9E8F68"/>
<mask id="mask1_39_2590" style="mask-type:alpha" maskUnits="userSpaceOnUse" x="135" y="209" width="277" height="133">
<ellipse cx="273.698" cy="275.571" rx="137.844" ry="65.7162" fill="#DFCB96"/>
</mask>
<g mask="url(#mask1_39_2590)">
<path fill-rule="evenodd" clip-rule="evenodd" d="M257.669 190.621H174.322V203.443H257.669V190.621ZM145.471 248.323H209.584V261.145H145.471V248.323ZM222.407 248.323H305.754V261.145H222.407V248.323ZM401.924 248.323H318.577V261.145H401.924V248.323ZM174.322 267.557H257.669V280.379H174.322V267.557ZM353.839 267.557H270.492V280.379H353.839V267.557ZM190.35 286.791H209.584V298.01L203.173 294.805L190.35 286.791ZM305.754 286.791H222.407V299.613H305.754V286.791ZM318.577 286.791H357.045L347.428 293.202L318.577 299.613V286.791ZM270.492 190.621H353.839V203.443H270.492V190.621ZM450.009 190.621H366.662V203.443H450.009V190.621ZM126.237 209.855H209.584V222.677H126.237V209.855ZM305.754 209.855H222.407V222.677H305.754V209.855ZM318.577 209.855H401.924V222.677H318.577V209.855ZM257.669 229.089H174.322V241.911H257.669V229.089ZM270.492 229.089H353.839V241.911H270.492V229.089ZM450.009 229.089H366.662V241.911H450.009V229.089Z" fill="#D9BA98"/>
</g>
<path fill-rule="evenodd" clip-rule="evenodd" d="M368.409 280.99C392.792 269.365 405.13 254.558 405.13 240.309C405.13 226.06 392.792 211.252 368.409 199.628C344.502 188.23 311.024 181.004 273.698 181.004C236.372 181.004 202.894 188.23 178.987 199.628C154.604 211.252 142.266 226.06 142.266 240.309C142.266 254.558 154.604 269.365 178.987 280.99C202.894 292.387 236.372 299.614 273.698 299.614C311.024 299.614 344.502 292.387 368.409 280.99ZM273.698 306.025C349.827 306.025 411.542 276.603 411.542 240.309C411.542 204.015 349.827 174.593 273.698 174.593C197.569 174.593 135.854 204.015 135.854 240.309C135.854 276.603 197.569 306.025 273.698 306.025Z" fill="#8E805B"/>
<path d="M297.802 214.572C295.568 212.308 292.609 210.803 289.266 210.49C284.38 210.033 279.827 212.23 276.905 215.95C276.126 215.731 275.318 215.579 274.486 215.501C266.651 214.768 259.674 220.86 258.902 229.109C258.89 229.237 258.879 229.366 258.87 229.494L258.866 229.493C251.031 228.76 244.053 234.852 243.282 243.101C242.588 250.508 247.135 257.134 253.743 258.94C260.922 262.031 279.857 268.4 298.17 269.146C316.483 269.892 332.939 267.965 338.878 266.908C338.877 266.887 338.875 266.866 338.873 266.844C345.572 266.161 351.118 260.549 351.801 253.247C352.573 244.999 346.847 237.718 339.012 236.985L339.008 236.984C339.022 236.86 339.035 236.735 339.047 236.609C339.819 228.361 334.093 221.08 326.258 220.346C323.649 220.102 321.134 220.615 318.913 221.713C317.069 216.537 312.547 212.669 306.948 212.145C303.605 211.832 300.418 212.762 297.802 214.572Z" fill="#F6C76B"/>
<path d="M297.217 220.161C295.301 218.315 292.769 217.082 289.914 216.815C285.742 216.424 281.865 218.189 279.385 221.196C278.72 221.015 278.029 220.889 277.319 220.822C270.628 220.196 264.697 225.113 264.071 231.803C264.061 231.907 264.053 232.012 264.046 232.116L264.042 232.115C257.351 231.489 251.42 236.405 250.794 243.096C250.231 249.104 254.138 254.5 259.786 255.991C265.926 258.528 282.114 263.772 297.747 264.45C313.381 265.128 327.42 263.629 332.485 262.795C332.484 262.778 332.482 262.761 332.481 262.744C338.196 262.215 342.907 257.683 343.461 251.761C344.087 245.07 339.171 239.139 332.481 238.513L332.477 238.512C332.489 238.411 332.5 238.31 332.509 238.208C333.135 231.517 328.219 225.586 321.528 224.96C319.3 224.751 317.156 225.157 315.264 226.039C313.67 221.832 309.795 218.675 305.014 218.228C302.159 217.961 299.442 218.702 297.217 220.161Z" fill="#FFF3BF"/>
<path d="M286.844 231.354C296.347 230.981 317.977 234.078 328.469 249.452" stroke="#FDCA67" stroke-width="4.48793" stroke-linecap="round"/>
<g style="mix-blend-mode:multiply">
<path fill-rule="evenodd" clip-rule="evenodd" d="M290.02 217.745C290.059 217.754 290.098 217.763 290.137 217.773L290.088 217.806C290.065 217.786 290.043 217.765 290.02 217.745ZM258.869 257.278C257.396 256.852 256.08 256.082 255.005 255.065C262.055 257.58 277.145 261.785 291.666 262.07C307.311 262.378 321.311 260.547 326.355 259.593L326.347 259.521C331.454 258.833 335.549 254.639 335.922 249.297C336.161 245.863 334.811 242.685 332.497 240.483C337.829 241.607 341.652 246.518 341.263 252.109C340.89 257.451 336.794 261.645 331.688 262.332L331.696 262.405C326.652 263.359 312.652 265.189 297.007 264.882C281.361 264.574 265.054 259.716 258.856 257.325L258.869 257.278ZM331.14 237.824C331.106 238.311 331.043 238.789 330.955 239.257C329.414 238.241 327.599 237.596 325.627 237.459C325.545 237.453 325.463 237.448 325.381 237.444C325.598 236.665 325.74 235.851 325.799 235.012C326.069 231.137 324.493 227.559 321.82 225.139C327.514 226.488 331.56 231.796 331.14 237.824ZM305.15 218.8C307.496 219.355 309.563 220.583 311.152 222.257C310.142 222.469 309.175 222.807 308.27 223.256C307.576 221.548 306.504 220.025 305.15 218.8Z" fill="#FFF3BF"/>
</g>
<path d="M263.348 189.084C260.913 187.038 257.826 185.815 254.469 185.815C249.561 185.815 245.233 188.427 242.67 192.403C241.874 192.257 241.055 192.182 240.22 192.182C232.351 192.182 225.971 198.897 225.971 207.182C225.971 207.311 225.973 207.44 225.976 207.568L225.971 207.568C218.102 207.568 211.723 214.284 211.723 222.568C211.723 230.008 216.867 236.182 223.615 237.364C231.05 239.773 250.497 244.35 268.799 243.386C287.102 242.423 303.307 238.97 309.122 237.365C309.118 237.344 309.115 237.323 309.111 237.302C315.717 235.997 320.715 229.893 320.715 222.56C320.715 214.275 314.336 207.559 306.467 207.559L306.462 207.559C306.465 207.434 306.467 207.308 306.467 207.182C306.467 198.897 300.087 192.182 292.218 192.182C289.597 192.182 287.141 192.927 285.032 194.226C282.714 189.245 277.852 185.815 272.228 185.815C268.87 185.815 265.784 187.038 263.348 189.084Z" fill="#F6C76B"/>
<path d="M263.286 194.702C261.207 193.043 258.571 192.051 255.704 192.051C251.513 192.051 247.817 194.17 245.629 197.394C244.949 197.277 244.25 197.215 243.536 197.215C236.816 197.215 231.369 202.663 231.369 209.383C231.369 209.487 231.37 209.592 231.373 209.696L231.369 209.696C224.649 209.696 219.202 215.143 219.202 221.863C219.202 227.898 223.594 232.906 229.357 233.865C235.706 235.819 252.312 239.531 267.941 238.749C283.57 237.968 297.408 235.168 302.374 233.865C302.371 233.848 302.367 233.831 302.364 233.814C308.005 232.756 312.274 227.804 312.274 221.856C312.274 215.136 306.826 209.689 300.106 209.689L300.103 209.689C300.105 209.587 300.106 209.485 300.106 209.383C300.106 202.663 294.659 197.215 287.939 197.215C285.701 197.215 283.604 197.82 281.802 198.874C279.824 194.833 275.671 192.051 270.869 192.051C268.001 192.051 265.366 193.043 263.286 194.702Z" fill="#FFF3BF"/>
<path d="M254.001 206.813C263.428 205.556 285.252 206.624 297.131 220.954" stroke="#FDCA67" stroke-width="4.48793" stroke-linecap="round"/>
<g style="mix-blend-mode:multiply">
<path fill-rule="evenodd" clip-rule="evenodd" d="M255.972 193.02L255.904 192.969C255.941 192.974 255.977 192.979 256.014 192.985L255.972 193.02ZM228.564 235.233C227.055 234.946 225.67 234.299 224.503 233.384C231.754 235.231 247.177 238.014 261.666 236.945C277.272 235.793 291.04 232.666 295.973 231.247L295.958 231.174C300.978 230.013 304.665 225.456 304.538 220.103C304.457 216.663 302.818 213.627 300.312 211.651C305.723 212.275 309.984 216.808 310.117 222.408C310.244 227.761 306.557 232.318 301.537 233.479L301.552 233.552C296.619 234.971 282.851 238.099 267.245 239.25C251.638 240.402 234.949 237.084 228.555 235.281L228.564 235.233ZM298.706 209.13C298.717 209.616 298.7 210.096 298.656 210.568C297.028 209.701 295.16 209.228 293.185 209.275C293.102 209.277 293.02 209.28 292.938 209.284C293.081 208.487 293.147 207.665 293.127 206.825C293.035 202.944 291.135 199.53 288.252 197.37C294.043 198.185 298.562 203.091 298.706 209.13ZM271.065 192.612C273.449 192.947 275.617 193.975 277.353 195.49C276.368 195.796 275.439 196.222 274.58 196.752C273.732 195.119 272.524 193.705 271.065 192.612Z" fill="#FFF3BF"/>
</g>
<path fill-rule="evenodd" clip-rule="evenodd" d="M229.519 68.8121C237.406 72.6472 245.974 79.5049 247.975 90.5082C249.338 98.0071 248.478 104.439 246.048 110.115C243.657 115.699 239.858 120.284 235.763 124.311C232.858 127.166 229.587 129.938 226.448 132.597C225.241 133.619 224.054 134.625 222.915 135.612C218.674 139.289 214.847 142.911 211.859 146.985C204.189 157.444 205.105 166.959 209.453 173.908C214.027 181.218 222.541 185.936 230.421 185.936C233.077 185.936 235.23 188.089 235.23 190.744C235.23 193.4 233.077 195.553 230.421 195.553C219.068 195.553 207.546 188.991 201.301 179.009C194.83 168.667 194.143 154.88 204.104 141.297C207.751 136.324 212.25 132.13 216.616 128.345C217.946 127.193 219.245 126.092 220.513 125.018C223.541 122.453 226.386 120.043 229.02 117.453C232.682 113.853 235.511 110.29 237.208 106.329C238.865 102.458 239.553 97.9472 238.513 92.2286C237.308 85.6012 231.985 80.7049 225.313 77.4609C222.055 75.8767 218.706 74.811 215.872 74.2085C212.863 73.5687 210.972 73.5642 210.445 73.66C207.832 74.135 205.329 72.402 204.853 69.7892C204.378 67.1764 206.111 64.6732 208.724 64.1981C211.136 63.7596 214.52 64.089 217.872 64.8017C221.399 65.5516 225.497 66.8567 229.519 68.8121Z" fill="#FFEFD7"/>
<path fill-rule="evenodd" clip-rule="evenodd" d="M273.043 68.8121C280.93 72.6472 289.498 79.5049 291.499 90.5082C292.862 98.0071 292.002 104.439 289.572 110.115C287.181 115.699 283.382 120.284 279.286 124.311C276.382 127.166 273.11 129.938 269.972 132.597C268.765 133.619 267.578 134.625 266.439 135.612C262.198 139.289 258.371 142.911 255.383 146.985C247.713 157.444 248.629 166.959 252.977 173.908C257.551 181.218 266.065 185.936 273.945 185.936C276.601 185.936 278.754 188.089 278.754 190.744C278.754 193.4 276.601 195.553 273.945 195.553C262.592 195.553 251.07 188.991 244.825 179.009C238.354 168.667 237.667 154.88 247.628 141.297C251.275 136.324 255.774 132.13 260.14 128.345C261.469 127.193 262.769 126.092 264.037 125.018C267.065 122.453 269.91 120.043 272.544 117.453C276.206 113.853 279.035 110.29 280.732 106.329C282.389 102.458 283.077 97.9472 282.037 92.2286C280.832 85.6012 275.509 80.7049 268.837 77.4609C265.579 75.8767 262.23 74.811 259.396 74.2085C256.387 73.5687 254.495 73.5642 253.969 73.66C251.356 74.135 248.852 72.402 248.377 69.7892C247.902 67.1764 249.635 64.6732 252.248 64.1981C254.66 63.7596 258.044 64.089 261.396 64.8017C264.923 65.5516 269.021 66.8567 273.043 68.8121Z" fill="#FFEFD7"/>
<path fill-rule="evenodd" clip-rule="evenodd" d="M317.922 68.8121C325.809 72.6472 334.377 79.5049 336.378 90.5082C337.741 98.0071 336.882 104.439 334.451 110.115C332.06 115.699 328.262 120.284 324.166 124.311C321.262 127.166 317.99 129.938 314.851 132.597C313.644 133.619 312.457 134.625 311.318 135.612C307.077 139.289 303.25 142.911 300.262 146.985C292.592 157.444 293.508 166.959 297.856 173.908C302.43 181.218 310.944 185.936 318.824 185.936C321.48 185.936 323.633 188.089 323.633 190.744C323.633 193.4 321.48 195.553 318.824 195.553C307.471 195.553 295.949 188.991 289.704 179.009C283.233 168.667 282.546 154.88 292.507 141.297C296.154 136.324 300.653 132.13 305.019 128.345C306.349 127.193 307.648 126.092 308.916 125.018C311.944 122.453 314.789 120.043 317.423 117.453C321.085 113.853 323.914 110.29 325.611 106.329C327.268 102.458 327.956 97.9472 326.916 92.2286C325.711 85.6012 320.388 80.7049 313.716 77.4609C310.458 75.8767 307.109 74.811 304.275 74.2085C301.266 73.5687 299.375 73.5642 298.848 73.66C296.235 74.135 293.732 72.402 293.257 69.7892C292.782 67.1764 294.515 64.6732 297.127 64.1981C299.539 63.7596 302.923 64.089 306.275 64.8017C309.803 65.5516 313.9 66.8567 317.922 68.8121Z" fill="#FFEFD7"/>
<path d="M235.95 272.092L426.129 130.266C430.389 127.089 431.229 121.043 427.998 116.824C424.766 112.606 418.709 111.844 414.533 115.13L228.101 261.848C225.326 264.032 224.822 268.041 226.969 270.844C229.117 273.647 233.119 274.203 235.95 272.092Z" fill="#714F4F" stroke="black" stroke-width="6.41133"/>
<path d="M398.513 146.862L384.378 157.403L377.466 148.381L391.322 137.477L398.513 146.862Z" fill="#FFDF70"/>
<path d="M244.114 227.552C241.678 225.506 238.592 224.283 235.234 224.283C230.327 224.283 225.999 226.895 223.436 230.87C222.64 230.725 221.821 230.649 220.985 230.649C213.116 230.649 206.737 237.365 206.737 245.65C206.737 245.779 206.738 245.908 206.742 246.036L206.737 246.036C198.868 246.036 192.488 252.752 192.488 261.036C192.488 268.475 197.632 274.65 204.38 275.832C211.816 278.241 231.262 282.817 249.565 281.854C267.867 280.89 284.073 277.438 289.888 275.833C289.884 275.812 289.88 275.791 289.876 275.77C296.482 274.465 301.481 268.361 301.481 261.027C301.481 252.743 295.102 246.027 287.232 246.027L287.228 246.027C287.231 245.902 287.232 245.776 287.232 245.65C287.232 237.365 280.853 230.649 272.984 230.649C270.363 230.649 267.907 231.394 265.797 232.694C263.48 227.713 258.617 224.283 252.993 224.283C249.636 224.283 246.549 225.506 244.114 227.552Z" fill="#F6C76B"/>
<path d="M244.052 233.17C241.972 231.511 239.337 230.519 236.469 230.519C232.279 230.519 228.583 232.638 226.394 235.862C225.714 235.744 225.015 235.683 224.302 235.683C217.582 235.683 212.135 241.13 212.135 247.85C212.135 247.955 212.136 248.06 212.139 248.164L212.135 248.164C205.415 248.164 199.967 253.611 199.967 260.331C199.967 266.365 204.36 271.374 210.122 272.333C216.472 274.286 233.077 277.999 248.707 277.217C264.336 276.436 278.174 273.635 283.139 272.333C283.136 272.316 283.133 272.299 283.13 272.282C288.771 271.224 293.039 266.272 293.039 260.324C293.039 253.604 287.592 248.157 280.872 248.157L280.868 248.157C280.871 248.055 280.872 247.953 280.872 247.85C280.872 241.13 275.424 235.683 268.705 235.683C266.467 235.683 264.37 236.287 262.568 237.342C260.589 233.301 256.437 230.519 251.634 230.519C248.767 230.519 246.131 231.511 244.052 233.17Z" fill="#FFF3BF"/>
<path d="M234.766 245.281C244.193 244.024 266.018 245.093 277.896 259.422" stroke="#FDCA67" stroke-width="4.48793" stroke-linecap="round"/>
<g style="mix-blend-mode:multiply">
<path fill-rule="evenodd" clip-rule="evenodd" d="M209.329 273.702C206.916 273.242 204.82 271.864 203.428 269.937C204.474 270.647 205.669 271.152 206.953 271.396L206.945 271.444C213.339 273.247 230.028 276.565 245.634 275.413C261.24 274.261 275.008 271.134 279.942 269.715L279.926 269.642C284.946 268.481 288.633 263.924 288.506 258.571C288.449 256.14 287.613 253.91 286.243 252.113C288.981 254.073 290.796 257.251 290.882 260.876C291.009 266.229 287.322 270.787 282.302 271.947L282.317 272.02C277.384 273.44 263.616 276.567 248.01 277.718C232.404 278.87 215.715 275.552 209.321 273.749L209.329 273.702ZM279.471 247.598C279.473 247.709 279.475 247.82 279.474 247.93C278.724 247.789 277.947 247.724 277.153 247.743C277.07 247.745 276.988 247.748 276.906 247.752C277.049 246.956 277.115 246.133 277.095 245.293C277.03 242.568 276.075 240.074 274.514 238.083C277.443 240.239 279.378 243.68 279.471 247.598ZM258.548 235.22C258.725 235.111 258.906 235.006 259.089 234.905C258.555 234.323 257.964 233.793 257.327 233.324C257.79 233.914 258.199 234.549 258.548 235.22Z" fill="#FFF3BF"/>
</g>
<path d="M167.913 294.805C168.896 296.771 167.363 299.614 164.707 299.614C162.052 299.614 159.574 297.36 158.296 294.805C157.361 292.936 158.846 289.997 161.502 289.997C164.157 289.997 166.31 291.599 167.913 294.805Z" fill="#8E805B"/>
<path d="M164.986 326.862C165.969 328.827 164.436 331.67 161.78 331.67C159.125 331.67 156.647 329.417 155.369 326.862C154.434 324.993 155.919 322.053 158.575 322.053C161.23 322.053 163.383 323.656 164.986 326.862Z" fill="#8E805B"/>
<path d="M379.204 294.805C378.222 296.771 379.754 299.614 382.41 299.614C385.066 299.614 387.543 297.36 388.821 294.805C389.756 292.936 388.271 289.997 385.616 289.997C382.96 289.997 380.807 291.599 379.204 294.805Z" fill="#8E805B"/>
<path d="M379.204 326.862C378.222 328.827 379.754 331.67 382.41 331.67C385.066 331.67 387.543 329.417 388.821 326.862C389.756 324.993 388.271 322.053 385.616 322.053C382.96 322.053 380.807 323.656 379.204 326.862Z" fill="#8E805B"/>
<path d="M247.948 277.027L453.861 159.204C458.474 156.564 460.038 150.664 457.339 146.086C454.641 141.508 448.72 140.021 444.178 142.779L241.393 265.91C238.375 267.743 237.39 271.662 239.184 274.704C240.977 277.746 244.883 278.781 247.948 277.027Z" fill="#714F4F" stroke="black" stroke-width="6.41133"/>
<path d="M424.443 172.343L409.139 181.1L403.367 171.309L418.439 162.158L424.443 172.343Z" fill="#FFDF70"/>
<path d="M111.279 421.429C119.307 421.429 126.73 419.934 132.267 417.378C137.532 414.948 142.267 410.946 142.267 405.401C142.267 399.856 137.532 395.853 132.267 393.423C126.73 390.867 119.307 389.372 111.279 389.372C103.251 389.372 95.8271 390.867 90.2903 393.423C85.0257 395.853 80.2907 399.856 80.2907 405.401C80.2907 410.946 85.0257 414.948 90.2903 417.378C95.8271 419.934 103.251 421.429 111.279 421.429Z" fill="#DBE9F4" stroke="black" stroke-width="6.41133"/>
<g filter="url(#filter0_i_39_2590)">
<ellipse cx="111.279" cy="387.235" rx="53.4278" ry="23.5082" fill="#EFF8FF"/>
</g>
<path d="M111.279 413.949C126.37 413.949 140.186 411.264 150.349 406.792C155.426 404.558 159.735 401.815 162.819 398.607C165.918 395.383 167.912 391.535 167.912 387.235C167.912 382.935 165.918 379.087 162.819 375.863C159.735 372.655 155.426 369.912 150.349 367.678C140.186 363.206 126.37 360.521 111.279 360.521C96.1878 360.521 82.3719 363.206 72.2087 367.678C67.1316 369.912 62.8226 372.655 59.7386 375.863C56.6395 379.087 54.6454 382.935 54.6454 387.235C54.6454 391.535 56.6395 395.383 59.7386 398.607C62.8226 401.815 67.1316 404.558 72.2087 406.792C82.3719 411.264 96.1878 413.949 111.279 413.949Z" stroke="black" stroke-width="6.41133"/>
<path d="M87.7711 380.825C98.0293 380.825 92.0453 378.687 98.4564 374.414C104.868 370.14 128.925 375.309 139.062 378.688C151.885 382.962 146.114 395.297 136.925 397.922C121.965 402.196 102.731 395.785 85.6338 395.785C68.5369 395.785 74.9485 380.825 87.7711 380.825Z" fill="#551212"/>
<path d="M115.552 378.686C113.842 376.977 107.716 376.549 104.867 376.549C104.154 376.549 103.157 376.977 104.867 378.686C107.004 380.824 117.689 380.824 115.552 378.686Z" fill="white" fill-opacity="0.25"/>
<path d="M98.8575 287.639C99.3364 285.906 101.615 285.514 102.647 286.985L111.074 299.015C111.358 299.419 111.773 299.712 112.249 299.844L126.406 303.757C128.138 304.236 128.531 306.515 127.059 307.546L115.029 315.974C114.625 316.257 114.332 316.673 114.2 317.148L110.287 331.305C109.808 333.037 107.529 333.43 106.498 331.958L98.0701 319.929C97.7869 319.525 97.3716 319.232 96.8958 319.1L82.7389 315.187C81.0067 314.708 80.6138 312.429 82.0857 311.398L94.1151 302.97C94.5195 302.687 94.8126 302.271 94.9441 301.796L98.8575 287.639Z" fill="#5C75CD"/>
<path d="M351.299 122.812C352.445 121.428 354.685 122.004 355.023 123.769L356.326 130.59C356.418 131.075 356.677 131.512 357.057 131.827L362.404 136.259C363.788 137.405 363.212 139.645 361.446 139.982L354.626 141.286C354.141 141.378 353.703 141.637 353.388 142.017L348.957 147.364C347.81 148.748 345.57 148.172 345.233 146.406L343.93 139.586C343.837 139.101 343.579 138.663 343.198 138.348L337.852 133.917C336.468 132.77 337.044 130.53 338.809 130.193L345.63 128.89C346.115 128.797 346.552 128.539 346.867 128.158L351.299 122.812Z" fill="#5C75CD"/>
<circle cx="102.195" cy="189.018" r="8.01417" fill="#FFF8E0"/>
<circle cx="425.967" cy="310.833" r="4.8085" fill="#FFF8E0"/>
<circle cx="150.072" cy="150.342" r="4.60007" fill="#FFE381"/>
<circle cx="331.261" cy="161.631" r="3.06671" fill="#FFE380"/>
<rect x="113.415" y="222.455" width="13.6813" height="13.2655" rx="0.613343" transform="rotate(-12.5876 113.415 222.455)" fill="#FFE381"/>
<rect x="425.952" y="268.637" width="16.8433" height="16.3314" rx="0.613343" transform="rotate(-12.5876 425.952 268.637)" fill="#5C75CD"/>
<defs>
<filter id="filter0_i_39_2590" x="51.4397" y="357.315" width="119.678" height="59.8391" filterUnits="userSpaceOnUse" color-interpolation-filters="sRGB">
<feFlood flood-opacity="0" result="BackgroundImageFix"/>
<feBlend mode="normal" in="SourceGraphic" in2="BackgroundImageFix" result="shape"/>
<feColorMatrix in="SourceAlpha" type="matrix" values="0 0 0 0 0 0 0 0 0 0 0 0 0 0 0 0 0 0 127 0" result="hardAlpha"/>
<feOffset dy="-2.13711"/>
<feComposite in2="hardAlpha" operator="arithmetic" k2="-1" k3="1"/>
<feColorMatrix type="matrix" values="0 0 0 0 0.84 0 0 0 0 0.894035 0 0 0 0 0.933333 0 0 0 1 0"/>
<feBlend mode="normal" in2="shape" result="effect1_innerShadow_39_2590"/>
</filter>
</defs>
</svg>
