<svg width="512" height="512" viewBox="0 0 512 512" fill="none" xmlns="http://www.w3.org/2000/svg">
<mask id="path-1-outside-1_39_965" maskUnits="userSpaceOnUse" x="39.6624" y="66.051" width="433" height="376" fill="black">
<rect fill="white" x="39.6624" y="66.051" width="433" height="376"/>
<path fill-rule="evenodd" clip-rule="evenodd" d="M242.764 81.0053C243.213 79.6082 244.66 78.7903 246.089 79.1263L323.02 97.2201C324.448 97.5561 325.379 98.9331 325.158 100.384L323.772 109.48L323.863 109.536L324.005 109.625C324.2 108.551 325.013 107.651 326.131 107.388L403.062 89.2944C404.49 88.9584 405.937 89.7763 406.386 91.1734L418.275 128.183C420.721 135.799 416.952 144.006 409.815 147.617C402.716 151.21 394.632 155.81 391.158 159.645C384.334 167.178 386.499 180.474 386.499 180.474L386.472 180.481C386.856 182.292 387.282 184.27 387.756 186.43C388.514 186.927 389.331 187.389 390.216 187.813C391.402 185.835 391.746 183.406 391.063 181.095C389.746 176.639 388.985 170.18 392.906 164.847C398.048 157.859 407.768 157.286 414.326 162.966C419.48 167.425 420.936 173.997 419.16 179.654C418.779 180.872 419.061 182.098 419.75 183.02C420.425 183.956 421.512 184.592 422.788 184.592C428.718 184.592 434.549 187.95 437.264 194.202C439.589 199.561 438.781 205.441 435.497 209.569C453.057 239.907 460.592 302.321 450.208 352.504C455.416 353.547 459.339 358.146 459.339 363.662C459.339 369.948 454.245 372.615 447.958 372.615H444.813C434.315 403.673 415.118 426.317 384.78 426.84C377.037 426.973 368.494 427.202 359.325 427.447H359.324H359.323H359.323H359.322H359.322H359.32H359.319H359.318H359.318H359.318C290.394 429.288 186.051 432.075 119.479 402.731H118.607C110.301 402.731 102.708 398.397 98.438 391.488C90.0036 386.016 82.5745 379.76 76.3867 372.615H64.043C57.757 372.615 52.6624 369.948 52.6624 363.662C52.6624 357.592 57.4122 352.634 63.3982 352.299C58.9541 342.326 56.3877 331.077 56.0494 318.393C53.3383 216.723 135.125 138.212 176.358 111.665C189.468 103.855 212.522 94.5027 239.359 91.6065L242.764 81.0053ZM383.382 182.492C380.9 179.48 379.194 175.744 377.375 171.36C381.225 176.073 383.032 181.29 383.032 181.29L383.069 181.281C383.172 181.676 383.276 182.08 383.382 182.492Z"/>
</mask>
<path fill-rule="evenodd" clip-rule="evenodd" d="M242.764 81.0053C243.213 79.6082 244.66 78.7903 246.089 79.1263L323.02 97.2201C324.448 97.5561 325.379 98.9331 325.158 100.384L323.772 109.48L323.863 109.536L324.005 109.625C324.2 108.551 325.013 107.651 326.131 107.388L403.062 89.2944C404.49 88.9584 405.937 89.7763 406.386 91.1734L418.275 128.183C420.721 135.799 416.952 144.006 409.815 147.617C402.716 151.21 394.632 155.81 391.158 159.645C384.334 167.178 386.499 180.474 386.499 180.474L386.472 180.481C386.856 182.292 387.282 184.27 387.756 186.43C388.514 186.927 389.331 187.389 390.216 187.813C391.402 185.835 391.746 183.406 391.063 181.095C389.746 176.639 388.985 170.18 392.906 164.847C398.048 157.859 407.768 157.286 414.326 162.966C419.48 167.425 420.936 173.997 419.16 179.654C418.779 180.872 419.061 182.098 419.75 183.02C420.425 183.956 421.512 184.592 422.788 184.592C428.718 184.592 434.549 187.95 437.264 194.202C439.589 199.561 438.781 205.441 435.497 209.569C453.057 239.907 460.592 302.321 450.208 352.504C455.416 353.547 459.339 358.146 459.339 363.662C459.339 369.948 454.245 372.615 447.958 372.615H444.813C434.315 403.673 415.118 426.317 384.78 426.84C377.037 426.973 368.494 427.202 359.325 427.447H359.324H359.323H359.323H359.322H359.322H359.32H359.319H359.318H359.318H359.318C290.394 429.288 186.051 432.075 119.479 402.731H118.607C110.301 402.731 102.708 398.397 98.438 391.488C90.0036 386.016 82.5745 379.76 76.3867 372.615H64.043C57.757 372.615 52.6624 369.948 52.6624 363.662C52.6624 357.592 57.4122 352.634 63.3982 352.299C58.9541 342.326 56.3877 331.077 56.0494 318.393C53.3383 216.723 135.125 138.212 176.358 111.665C189.468 103.855 212.522 94.5027 239.359 91.6065L242.764 81.0053ZM383.382 182.492C380.9 179.48 379.194 175.744 377.375 171.36C381.225 176.073 383.032 181.29 383.032 181.29L383.069 181.281C383.172 181.676 383.276 182.08 383.382 182.492Z" fill="white" fill-opacity="0.12"/>
<path d="M246.089 79.1263L249.044 66.5588L249.044 66.5588L246.089 79.1263ZM242.764 81.0053L255.056 84.9539L255.056 84.9539L242.764 81.0053ZM323.02 97.2201L325.976 84.6527L325.975 84.6527L323.02 97.2201ZM325.158 100.384L337.921 102.328L337.921 102.328L325.158 100.384ZM323.772 109.48L311.009 107.536L309.727 115.951L316.956 120.444L323.772 109.48ZM323.863 109.536L330.691 98.5793L330.679 98.5719L323.863 109.536ZM324.005 109.625L317.177 120.582L333.311 130.636L336.708 111.932L324.005 109.625ZM326.131 107.388L323.175 94.8208L323.175 94.8208L326.131 107.388ZM403.062 89.2944L406.018 101.862L406.018 101.862L403.062 89.2944ZM406.386 91.1734L418.678 87.2248L418.678 87.2247L406.386 91.1734ZM418.275 128.183L405.983 132.132L405.983 132.132L418.275 128.183ZM409.815 147.617L403.986 136.098L403.986 136.098L409.815 147.617ZM391.158 159.645L381.59 150.977L381.59 150.977L391.158 159.645ZM386.499 180.474L389.452 193.042L401.176 190.287L399.241 178.4L386.499 180.474ZM386.472 180.481L383.518 167.913L371.225 170.802L373.842 183.156L386.472 180.481ZM387.756 186.43L375.145 189.195L376.273 194.339L380.677 197.226L387.756 186.43ZM390.216 187.813L384.635 199.454L395.239 204.538L401.288 194.453L390.216 187.813ZM391.063 181.095L378.682 184.754L378.682 184.755L391.063 181.095ZM392.906 164.847L382.508 157.195L382.504 157.2L392.906 164.847ZM414.326 162.966L405.874 172.725L405.879 172.729L414.326 162.966ZM419.16 179.654L406.843 175.786L406.84 175.794L406.838 175.801L419.16 179.654ZM419.75 183.02L430.225 175.473L430.158 175.38L430.09 175.289L419.75 183.02ZM437.264 194.202L449.106 189.062L449.106 189.06L437.264 194.202ZM435.497 209.569L425.394 201.531L419.914 208.418L424.323 216.036L435.497 209.569ZM450.208 352.504L437.565 349.887L434.932 362.61L447.671 365.162L450.208 352.504ZM444.813 372.615V359.705H435.549L432.582 368.481L444.813 372.615ZM384.78 426.84L384.557 413.931L384.557 413.931L384.78 426.84ZM359.325 427.447V440.357H359.497L359.669 440.352L359.325 427.447ZM359.318 427.447V414.536H359.145L358.973 414.541L359.318 427.447ZM119.479 402.731L124.686 390.917L122.198 389.821H119.479V402.731ZM98.438 391.488L109.42 384.701L107.897 382.235L105.465 380.658L98.438 391.488ZM76.3867 372.615L86.1462 364.164L82.2849 359.705H76.3867V372.615ZM63.3982 352.299L64.118 365.19L82.8112 364.146L75.1907 347.045L63.3982 352.299ZM56.0494 318.393L43.1436 318.737L56.0494 318.393ZM176.358 111.665L169.75 100.574L169.558 100.689L169.369 100.81L176.358 111.665ZM239.359 91.6065L240.744 104.442L249.085 103.542L251.651 95.5551L239.359 91.6065ZM377.375 171.36L387.374 163.193L365.45 176.307L377.375 171.36ZM383.382 182.492L373.418 190.701L395.886 179.278L383.382 182.492ZM383.032 181.29L370.833 185.515L374.647 196.526L385.989 193.857L383.032 181.29ZM383.069 181.281L395.568 178.047L392.405 165.821L380.112 168.714L383.069 181.281ZM249.044 66.5588C241.064 64.6818 232.98 69.2511 230.473 77.0567L255.056 84.9539C253.446 89.9652 248.256 92.8988 243.133 91.6937L249.044 66.5588ZM325.975 84.6527L249.044 66.5588L243.133 91.6937L320.064 109.788L325.975 84.6527ZM337.921 102.328C339.156 94.223 333.956 86.5297 325.976 84.6527L320.064 109.788C314.94 108.583 311.602 103.643 312.395 98.4397L337.921 102.328ZM336.535 111.424L337.921 102.328L312.395 98.4396L311.009 107.536L336.535 111.424ZM330.679 98.5719L330.588 98.5156L316.956 120.444L317.047 120.501L330.679 98.5719ZM330.833 98.6681L330.691 98.5793L317.035 120.493L317.177 120.582L330.833 98.6681ZM323.175 94.8208C316.917 96.2927 312.39 101.332 311.303 107.318L336.708 111.932C336.011 115.77 333.11 119.009 329.087 119.956L323.175 94.8208ZM400.106 76.7269L323.175 94.8208L329.087 119.956L406.018 101.862L400.106 76.7269ZM418.678 87.2247C416.17 79.4194 408.087 74.8499 400.106 76.7269L406.018 101.862C400.894 103.067 395.704 100.133 394.094 95.1221L418.678 87.2247ZM430.567 124.235L418.678 87.2248L394.094 95.122L405.983 132.132L430.567 124.235ZM415.644 159.137C428.02 152.874 435.097 138.337 430.567 124.235L405.983 132.132C406.346 133.261 405.884 135.137 403.986 136.098L415.644 159.137ZM400.726 168.312C401.194 167.796 402.793 166.463 405.944 164.504C408.844 162.7 412.274 160.842 415.644 159.137L403.986 136.098C400.256 137.985 396.095 140.223 392.31 142.576C388.776 144.774 384.596 147.658 381.59 150.977L400.726 168.312ZM386.499 180.474C399.241 178.4 399.242 178.404 399.242 178.407C399.243 178.409 399.243 178.412 399.244 178.414C399.244 178.419 399.245 178.423 399.246 178.427C399.247 178.436 399.248 178.443 399.249 178.45C399.251 178.464 399.253 178.474 399.254 178.482C399.257 178.498 399.257 178.502 399.256 178.496C399.255 178.483 399.247 178.428 399.235 178.335C399.213 178.147 399.177 177.814 399.145 177.37C399.081 176.461 399.045 175.201 399.145 173.826C399.378 170.645 400.18 168.916 400.727 168.312L381.59 150.977C375.313 157.906 373.785 166.592 373.393 171.943C373.182 174.834 373.26 177.368 373.389 179.188C373.454 180.108 373.533 180.873 373.602 181.442C373.637 181.727 373.669 181.965 373.696 182.15C373.709 182.243 373.721 182.323 373.731 182.39C373.736 182.423 373.741 182.453 373.745 182.479C373.747 182.493 373.749 182.505 373.751 182.517C373.752 182.522 373.753 182.528 373.753 182.533C373.754 182.536 373.754 182.54 373.755 182.541C373.755 182.545 373.756 182.549 386.499 180.474ZM389.426 193.049L389.452 193.042L383.545 167.906L383.518 167.913L389.426 193.049ZM400.367 183.665C399.899 181.533 399.479 179.585 399.102 177.805L373.842 183.156C374.233 185 374.665 187.008 375.145 189.195L400.367 183.665ZM395.797 176.171C395.411 175.986 395.096 175.805 394.835 175.633L380.677 197.226C381.933 198.05 383.252 198.791 384.635 199.454L395.797 176.171ZM378.682 184.755C378.324 183.543 378.502 182.242 379.144 181.173L401.288 194.453C404.301 189.428 405.168 183.269 403.444 177.436L378.682 184.755ZM382.504 157.2C374.946 167.481 376.991 179.031 378.682 184.754L403.444 177.437C403.048 176.096 402.871 174.869 402.916 173.914C402.956 173.071 403.146 172.714 403.308 172.494L382.504 157.2ZM422.779 153.207C411.162 143.146 392.599 143.481 382.508 157.195L403.305 172.498C403.473 172.27 403.606 172.182 403.684 172.139C403.774 172.09 403.906 172.041 404.099 172.026C404.488 171.996 405.162 172.108 405.874 172.725L422.779 153.207ZM431.478 183.521C434.717 173.204 432.012 161.195 422.773 153.203L405.879 172.729C406.489 173.257 406.757 173.78 406.879 174.231C407.013 174.727 407.004 175.273 406.843 175.786L431.478 183.521ZM430.09 175.289C431.669 177.401 432.441 180.44 431.482 183.506L406.838 175.801C405.118 181.303 406.454 186.796 409.41 190.75L430.09 175.289ZM422.788 171.682C426.014 171.682 428.686 173.336 430.225 175.473L409.276 190.567C412.164 194.575 417.01 197.503 422.788 197.503V171.682ZM449.106 189.06C444.243 177.861 433.605 171.682 422.788 171.682V197.503C423.327 197.503 423.85 197.657 424.283 197.934C424.677 198.185 425.098 198.599 425.421 199.344L449.106 189.06ZM445.6 217.607C451.987 209.579 453.246 198.599 449.106 189.062L425.421 199.343C425.933 200.522 425.575 201.303 425.394 201.531L445.6 217.607ZM462.85 355.12C468.356 328.51 469.068 298.99 466.167 272.204C463.29 245.651 456.718 220.46 446.671 203.101L424.323 216.036C431.836 229.016 437.811 250.201 440.496 274.985C443.156 299.537 442.443 326.315 437.565 349.887L462.85 355.12ZM472.25 363.662C472.25 351.875 463.868 342.074 452.744 339.845L447.671 365.162C446.964 365.021 446.429 364.417 446.429 363.662H472.25ZM447.958 385.526C452.65 385.526 458.448 384.572 463.447 381.046C469.068 377.082 472.25 370.838 472.25 363.662H446.429C446.429 363.455 446.482 362.758 446.934 361.868C447.391 360.968 448.025 360.327 448.565 359.946C449.054 359.601 449.337 359.555 449.19 359.593C449.046 359.629 448.645 359.705 447.958 359.705V385.526ZM444.813 385.526H447.958V359.705H444.813V385.526ZM385.002 439.748C423.428 439.086 445.827 409.933 457.043 376.749L432.582 368.481C422.803 397.413 406.808 413.548 384.557 413.931L385.002 439.748ZM359.669 440.352C368.855 440.107 377.332 439.881 385.003 439.748L384.557 413.931C376.741 414.066 368.134 414.296 358.98 414.541L359.669 440.352ZM359.324 440.357H359.325V414.536H359.324V440.357ZM359.323 440.357H359.324V414.536H359.323V440.357ZM359.323 440.357H359.323V414.536H359.323V440.357ZM359.322 440.357H359.323V414.536H359.322V440.357ZM359.322 440.357H359.322V414.536H359.322V440.357ZM359.32 440.357H359.322V414.536H359.32V440.357ZM359.319 440.357H359.32V414.536H359.319V440.357ZM359.318 440.357H359.319V414.536H359.318V440.357ZM359.318 440.357H359.318V414.536H359.318V440.357ZM359.318 440.357H359.318V414.536H359.318V440.357ZM114.272 414.545C149.654 430.141 194.196 436.896 237.696 439.667C281.388 442.451 325.27 441.271 359.662 440.352L358.973 414.541C324.442 415.463 281.691 416.597 239.337 413.899C196.791 411.188 155.876 404.665 124.686 390.917L114.272 414.545ZM118.607 415.641H119.479V389.821H118.607V415.641ZM87.4556 398.275C94.0502 408.946 105.774 415.641 118.607 415.641V389.821C114.828 389.821 111.366 387.849 109.42 384.701L87.4556 398.275ZM66.6273 381.067C73.724 389.262 82.1165 396.288 91.4111 402.319L105.465 380.658C97.8908 375.743 91.425 370.259 86.1462 364.164L66.6273 381.067ZM64.043 385.526H76.3867V359.705H64.043V385.526ZM39.752 363.662C39.752 370.838 42.9334 377.082 48.5542 381.046C53.5531 384.572 59.3512 385.526 64.043 385.526V359.705C63.357 359.705 62.956 359.629 62.812 359.593C62.6642 359.555 62.9471 359.601 63.4366 359.946C63.9767 360.327 64.611 360.968 65.0679 361.868C65.5198 362.758 65.5727 363.455 65.5727 363.662H39.752ZM62.6783 339.409C49.8908 340.123 39.752 350.704 39.752 363.662H65.5727C65.5727 364.481 64.9336 365.144 64.118 365.19L62.6783 339.409ZM43.1436 318.737C43.5238 332.994 46.4241 345.926 51.6056 357.554L75.1907 347.045C71.484 338.726 69.2515 329.16 68.9552 318.049L43.1436 318.737ZM169.369 100.81C147.458 114.917 115.468 142.306 89.1905 179.394C62.879 216.531 41.6913 264.272 43.1436 318.737L68.9552 318.049C67.6964 270.844 86.0467 228.495 110.259 194.322C134.505 160.101 164.026 134.96 183.347 122.52L169.369 100.81ZM237.974 78.7707C209.171 81.879 184.348 91.8773 169.75 100.574L182.966 122.757C194.587 115.833 215.873 107.126 240.744 104.442L237.974 78.7707ZM230.473 77.0567L227.067 87.6579L251.651 95.5551L255.056 84.9539L230.473 77.0567ZM365.45 176.307C367.252 180.651 369.577 186.041 373.418 190.701L393.345 174.282C392.223 172.919 391.136 170.838 389.3 166.413L365.45 176.307ZM383.032 181.29C395.231 177.064 395.23 177.062 395.23 177.059C395.229 177.059 395.229 177.056 395.228 177.055C395.227 177.052 395.226 177.048 395.225 177.045C395.222 177.038 395.22 177.031 395.217 177.024C395.212 177.009 395.206 176.993 395.2 176.976C395.188 176.941 395.174 176.901 395.157 176.855C395.125 176.765 395.084 176.654 395.036 176.524C394.938 176.264 394.808 175.927 394.643 175.524C394.316 174.722 393.847 173.641 393.228 172.386C392.016 169.926 390.104 166.535 387.374 163.193L367.376 179.527C368.496 180.898 369.413 182.472 370.067 183.799C370.381 184.436 370.604 184.955 370.736 185.278C370.801 185.438 370.842 185.545 370.858 185.589C370.866 185.61 370.868 185.616 370.864 185.605C370.862 185.599 370.858 185.588 370.853 185.574C370.85 185.566 370.847 185.558 370.844 185.548C370.842 185.543 370.841 185.538 370.839 185.533C370.838 185.53 370.837 185.527 370.836 185.524C370.835 185.523 370.835 185.521 370.834 185.52C370.834 185.518 370.833 185.515 383.032 181.29ZM380.112 168.714L380.075 168.723L385.989 193.857L386.026 193.848L380.112 168.714ZM395.886 179.278C395.778 178.859 395.672 178.449 395.568 178.047L370.571 184.515C370.671 184.904 370.773 185.3 370.877 185.705L395.886 179.278Z" fill="white" mask="url(#path-1-outside-1_39_965)"/>
<path d="M327.167 111.663C270.232 73.7061 202.904 95.8474 176.357 111.663C135.125 138.21 53.3377 216.721 56.0489 318.39C59.4379 445.476 286.499 428.532 384.779 426.837C483.06 425.143 464.42 191.303 411.891 191.303C359.362 191.303 398.335 159.108 327.167 111.663Z" fill="#AB8DFF"/>
<path fill-rule="evenodd" clip-rule="evenodd" d="M172.957 106.177L173.054 106.12C187.078 97.7646 211.445 87.9481 239.715 85.0786C268.072 82.2003 300.736 86.2864 330.747 106.294C349.06 118.503 360.546 129.906 368.23 140.284C375.834 150.554 379.529 159.588 382.396 166.597L382.493 166.834C385.502 174.187 387.219 177.921 390.458 180.434C393.573 182.852 399.186 184.851 411.891 184.851C421.078 184.851 428.762 190 434.792 197.218C440.826 204.44 445.798 214.382 449.736 225.758C457.632 248.564 461.883 278.626 461.343 308.554C460.803 338.433 455.476 368.896 443.62 392.245C431.681 415.758 412.614 432.816 384.891 433.294C377.245 433.426 368.776 433.653 359.658 433.897C310.677 435.21 242.98 437.025 183.781 427.278C148.657 421.496 115.781 411.546 91.3283 394.484C66.5735 377.212 50.5047 352.644 49.596 318.565C48.192 265.915 68.6703 219.522 94.4571 183.126C120.227 146.754 151.599 119.928 172.863 106.238L172.957 106.177ZM176.357 111.665C202.904 95.85 270.232 73.7087 327.167 111.665C362.62 135.301 370.74 155.151 376.455 169.123C382.213 183.198 385.53 191.306 411.891 191.306C464.42 191.306 483.059 425.145 384.779 426.84C377.034 426.973 368.489 427.201 359.317 427.446C252.101 430.31 59.1707 435.464 56.0488 318.393C53.3377 216.723 135.125 138.212 176.357 111.665Z" fill="black"/>
<path fill-rule="evenodd" clip-rule="evenodd" d="M242.764 81.0057C243.212 79.6086 244.659 78.7907 246.088 79.1267L323.019 97.2205C324.447 97.5565 325.378 98.9335 325.157 100.384L319.309 138.774C318.102 146.698 311.045 152.372 303.03 152.381C294.882 152.39 285.291 152.854 280.287 154.721C270.54 158.356 266.118 171.122 266.118 171.122L266.082 171.114C264.279 178.081 261.931 187.583 258.884 200.538C247.719 248.006 250.597 248.683 255.631 249.867L236.932 245.469C241.966 246.653 244.843 247.33 256.007 199.862C259.054 186.906 261.187 177.354 262.679 170.313L262.651 170.307C262.651 170.307 264.815 157.01 257.991 149.477C254.517 145.642 246.434 141.042 239.335 137.449C232.198 133.838 228.428 125.631 230.875 118.016L242.764 81.0057ZM224.197 244.751C224.477 243.56 225.671 242.821 226.862 243.101L265.699 252.236C266.891 252.516 267.63 253.709 267.35 254.901C267.069 256.092 265.876 256.831 264.685 256.551L225.847 247.417C224.656 247.136 223.917 245.943 224.197 244.751Z" fill="#E2EEFF" fill-opacity="0.9"/>
<path fill-rule="evenodd" clip-rule="evenodd" d="M272.153 173.419C270.389 180.264 268.107 189.516 265.168 202.015C259.546 225.916 257.678 237.216 257.638 242.606C257.635 243.05 257.645 243.415 257.662 243.713L267.178 245.951C271.84 247.047 274.73 251.715 273.634 256.377C272.537 261.039 267.869 263.93 263.207 262.833L224.369 253.699C219.707 252.602 216.817 247.934 217.913 243.272C219.01 238.61 223.678 235.72 228.34 236.816L237.856 239.054C238.004 238.796 238.176 238.474 238.371 238.075C240.737 233.231 244.102 222.283 249.723 198.382C252.658 185.906 254.737 176.617 256.208 169.707L256.276 169.29L256.284 169.241C256.292 169.185 256.305 169.084 256.323 168.943C256.357 168.659 256.404 168.219 256.444 167.656C256.524 166.519 256.571 164.94 256.442 163.186C256.17 159.463 255.187 155.995 253.207 153.809C252.105 152.592 249.861 150.872 246.614 148.853C243.493 146.912 239.88 144.959 236.42 143.208C226.664 138.271 221.241 126.899 224.729 116.04L236.618 79.0301C238.096 74.4287 242.861 71.7351 247.566 72.8416L324.497 90.9355C329.201 92.042 332.267 96.5772 331.539 101.355L325.157 100.383C325.378 98.9322 324.447 97.5552 323.019 97.2192L246.088 79.1253C244.659 78.7894 243.213 79.6072 242.764 81.0044L230.875 118.014C228.428 125.63 232.198 133.837 239.335 137.448C246.434 141.041 254.518 145.641 257.992 149.476C261.437 153.279 262.591 158.551 262.889 162.839C262.911 163.146 262.927 163.447 262.941 163.742C263.072 166.697 262.818 169.061 262.703 169.938C262.686 170.068 262.672 170.166 262.663 170.227C262.656 170.279 262.651 170.305 262.651 170.305L262.679 170.312C261.188 177.353 259.054 186.905 256.007 199.86C250.886 221.633 247.509 233.276 244.868 239.388C244.685 239.81 244.506 240.206 244.33 240.576C244.33 240.577 244.331 240.576 244.33 240.576C243.423 242.491 242.6 243.743 241.817 244.54C240.158 246.226 238.674 245.877 236.932 245.468L255.631 249.866C253.889 249.456 252.405 249.107 251.672 246.858C251.326 245.795 251.147 244.308 251.188 242.19C251.188 242.19 251.188 242.19 251.188 242.19C251.196 241.78 251.212 241.345 251.237 240.886C251.596 234.237 253.763 222.309 258.884 200.537C261.931 187.582 264.279 178.08 266.082 171.112L266.118 171.121C266.118 171.121 266.127 171.095 266.144 171.046C266.159 171.007 266.179 170.952 266.204 170.883C266.476 170.158 267.392 167.857 269.001 165.168C269.137 164.941 269.277 164.712 269.423 164.48C271.744 160.786 275.326 156.57 280.287 154.719C285.292 152.853 294.882 152.389 303.03 152.38C311.045 152.37 318.102 146.697 319.309 138.773L325.157 100.383L331.539 101.355L325.691 139.745C323.97 151.04 314.011 158.822 303.037 158.835C299.061 158.839 294.827 158.955 291.037 159.284C287.104 159.625 284.185 160.155 282.543 160.768C279.602 161.864 277.016 164.576 274.991 167.753C274.031 169.258 273.315 170.684 272.843 171.729C272.609 172.247 272.44 172.659 272.335 172.926C272.283 173.059 272.247 173.154 272.227 173.208L272.211 173.252L272.21 173.256L272.153 173.419ZM226.862 243.1C225.671 242.82 224.477 243.558 224.197 244.75C223.917 245.942 224.656 247.135 225.847 247.415L264.685 256.55C265.876 256.83 267.07 256.091 267.35 254.899C267.63 253.708 266.891 252.515 265.7 252.234L226.862 243.1Z" fill="black"/>
<path fill-rule="evenodd" clip-rule="evenodd" d="M278.083 112.455L315.48 121.251L318.695 101.496L242.417 97.9948L240.685 103.659L240.684 103.659L236.241 118.465C234.733 123.492 236.898 128.894 241.46 131.488L250.735 136.762C250.735 136.762 255.99 139.693 258.964 142.113C264.647 146.737 269.205 149.799 269.286 149.853L269.286 149.854L269.287 149.854C269.384 149.842 274.83 149.132 281.977 147.526C285.719 146.686 291.729 146.404 291.729 146.404L302.383 145.817C307.623 145.528 311.968 141.658 312.859 136.486L315.481 121.251L278.083 112.456L278.083 112.455Z" fill="#F4554D" fill-opacity="0.9"/>
<path fill-rule="evenodd" clip-rule="evenodd" d="M406.386 91.1739C405.937 89.7768 404.49 88.9589 403.062 89.2949L326.131 107.389C324.702 107.725 323.772 109.102 323.993 110.552L329.841 148.942C331.048 156.866 338.105 162.54 346.12 162.549C354.268 162.558 363.858 163.022 368.863 164.889C378.61 168.525 383.032 181.29 383.032 181.29L383.068 181.282C384.871 188.25 387.219 197.751 390.266 210.707C401.43 258.174 398.553 258.851 393.519 260.035L412.218 255.637C407.184 256.821 404.307 257.498 393.143 210.03C390.096 197.074 387.962 187.523 386.471 180.481L386.499 180.475C386.499 180.475 384.334 167.178 391.158 159.645C394.632 155.81 402.716 151.21 409.815 147.618C416.952 144.006 420.721 135.799 418.275 128.184L406.386 91.1739ZM424.953 254.92C424.672 253.728 423.479 252.989 422.288 253.269L383.45 262.404C382.259 262.684 381.52 263.877 381.8 265.069C382.08 266.261 383.273 266.999 384.465 266.719L423.302 257.585C424.494 257.304 425.233 256.111 424.953 254.92Z" fill="#E2EEFF" fill-opacity="0.9"/>
<path fill-rule="evenodd" clip-rule="evenodd" d="M376.997 183.588C378.761 190.432 381.042 199.684 383.982 212.183C389.603 236.084 391.471 247.384 391.512 252.774C391.515 253.218 391.505 253.584 391.488 253.881L381.972 256.119C377.31 257.215 374.42 261.884 375.516 266.546C376.613 271.208 381.281 274.098 385.943 273.002L424.78 263.867C429.442 262.771 432.333 258.102 431.236 253.44C430.14 248.778 425.472 245.888 420.809 246.984L411.293 249.223C411.146 248.964 410.974 248.642 410.779 248.243C408.413 243.399 405.048 232.452 399.426 208.551C396.492 196.074 394.412 186.785 392.941 179.876L392.873 179.458L392.866 179.409C392.858 179.353 392.844 179.252 392.827 179.111C392.793 178.828 392.746 178.387 392.706 177.824C392.626 176.687 392.579 175.108 392.707 173.354C392.98 169.631 393.963 166.163 395.942 163.978C397.045 162.761 399.289 161.04 402.536 159.021C405.657 157.08 409.27 155.127 412.729 153.376C422.486 148.439 427.909 137.067 424.421 126.208L412.532 89.1983C411.054 84.5969 406.288 81.9034 401.584 83.0098L324.653 101.104C319.948 102.21 316.883 106.745 317.611 111.523L323.992 110.551C323.772 109.1 324.702 107.723 326.131 107.387L403.062 89.2936C404.49 88.9576 405.937 89.7755 406.386 91.1726L418.275 128.183C420.721 135.798 416.952 144.005 409.815 147.616C402.715 151.209 394.632 155.809 391.158 159.644C387.713 163.447 386.559 168.719 386.26 173.008C386.239 173.314 386.222 173.615 386.209 173.91C386.078 176.865 386.332 179.229 386.446 180.106C386.463 180.236 386.477 180.334 386.486 180.396C386.494 180.447 386.498 180.474 386.498 180.474L386.47 180.48C387.962 187.521 390.096 197.073 393.143 210.029C398.263 231.801 401.641 243.444 404.282 249.556C404.465 249.978 404.643 250.374 404.819 250.745C404.819 250.745 404.819 250.744 404.819 250.745C405.727 252.659 406.549 253.911 407.333 254.708C408.992 256.395 410.476 256.046 412.218 255.636L393.519 260.034C395.261 259.624 396.745 259.275 397.478 257.026C397.824 255.963 398.003 254.476 397.962 252.358C397.962 252.358 397.962 252.358 397.962 252.358C397.954 251.948 397.937 251.513 397.913 251.054C397.553 244.406 395.387 232.477 390.266 210.705C387.219 197.75 384.871 188.248 383.068 181.28L383.032 181.289C383.032 181.289 383.023 181.263 383.005 181.214C382.991 181.175 382.971 181.12 382.945 181.052C382.673 180.327 381.757 178.026 380.148 175.336C380.013 175.109 379.872 174.88 379.727 174.648C377.406 170.954 373.824 166.738 368.863 164.888C363.858 163.021 354.268 162.557 346.12 162.548C338.104 162.539 331.047 156.865 329.84 148.941L323.992 110.551L317.611 111.523L323.459 149.913C325.179 161.208 335.138 168.99 346.113 169.003C350.088 169.008 354.323 169.124 358.112 169.452C362.046 169.793 364.965 170.323 366.607 170.936C369.547 172.033 372.134 174.744 374.159 177.921C375.118 179.426 375.834 180.852 376.307 181.897C376.541 182.415 376.71 182.828 376.815 183.094C376.867 183.227 376.903 183.323 376.922 183.376L376.939 183.42L376.94 183.424L376.997 183.588ZM422.287 253.268C423.479 252.988 424.672 253.727 424.952 254.918C425.233 256.11 424.494 257.303 423.302 257.583L384.465 266.718C383.273 266.998 382.08 266.259 381.8 265.068C381.52 263.876 382.258 262.683 383.45 262.403L422.287 253.268Z" fill="black"/>
<path fill-rule="evenodd" clip-rule="evenodd" d="M333.671 131.426L330.556 113.359L406.733 108.17L408.465 113.834L412.908 128.64C414.416 133.667 412.252 139.069 407.69 141.663L398.414 146.938C398.414 146.938 393.16 149.868 390.186 152.288C384.503 156.912 379.944 159.974 379.863 160.029C379.767 160.016 374.32 159.307 367.172 157.702C363.431 156.861 357.421 156.58 357.421 156.58L346.767 155.992C341.527 155.704 337.181 151.833 336.291 146.661L333.671 131.426Z" fill="#F4554D" fill-opacity="0.9"/>
<path d="M359.823 263.177C369.659 293.39 415.284 284.751 415.284 313.807C415.284 340.346 333.421 356.801 306.818 358.171L195.924 360.234C124.882 360.234 73.4033 340.861 73.4033 282.644C73.4033 224.427 125.923 161.382 201.014 161.382C271.936 161.382 341.728 207.582 359.823 263.177V263.177Z" fill="#FFE066"/>
<path fill-rule="evenodd" clip-rule="evenodd" d="M73.7588 290.796C78.4128 342.684 128.308 360.235 195.924 360.235L306.818 358.171C333.421 356.802 415.284 340.346 415.284 313.808C415.284 304.831 410.929 299.452 404.62 295.413C389.98 316.967 322.639 330.111 298.985 331.329L188.092 333.392C133.822 333.392 90.9683 322.087 73.7588 290.796Z" fill="#FAB005"/>
<path fill-rule="evenodd" clip-rule="evenodd" d="M307.15 364.617C307.079 364.621 307.008 364.623 306.938 364.625L196.044 366.689C196.004 366.689 195.964 366.69 195.924 366.69C160.035 366.69 128.074 361.834 104.881 348.909C93.182 342.39 83.6167 333.762 77.0058 322.622C70.392 311.477 66.9482 298.177 66.9482 282.644C66.9482 221.002 122.219 154.927 201.014 154.927C237.833 154.927 274.216 166.901 303.737 186.013C333.208 205.092 356.342 231.625 365.961 261.179C369.806 272.988 380.425 277.442 393.719 282.965C399.86 285.516 406.842 288.451 412.171 292.959C417.915 297.818 421.739 304.472 421.739 313.807C421.739 323.931 414.052 331.619 405.613 337.144C396.813 342.904 385.115 347.703 372.992 351.577C348.72 359.332 321.055 363.902 307.15 364.617ZM359.823 263.177C341.728 207.582 271.936 161.382 201.014 161.382C125.923 161.382 73.4034 224.427 73.4034 282.644C73.4034 340.861 124.882 360.234 195.924 360.234L306.818 358.171C333.421 356.802 415.284 340.346 415.284 313.807C415.284 298.894 403.266 293.911 390.236 288.508C377.878 283.385 364.611 277.883 359.823 263.177Z" fill="black"/>
<path d="M416.437 160.527C408.615 153.752 396.684 154.265 390.305 162.935L390.304 162.936C385.473 169.507 386.556 177.238 387.966 182.011L387.966 182.011L429.05 214.077M416.437 160.527L414.324 162.967L416.436 160.526C416.437 160.526 416.437 160.527 416.437 160.527ZM416.437 160.527C422.611 165.87 424.379 173.8 422.238 180.622L419.158 179.655L422.239 180.618C422.211 180.706 422.21 180.779 422.223 180.847C422.237 180.921 422.272 181.006 422.333 181.088C422.345 181.103 422.356 181.119 422.367 181.134C422.428 181.218 422.499 181.277 422.565 181.313C422.626 181.345 422.695 181.366 422.786 181.366C429.938 181.366 436.97 185.429 440.222 192.918L440.222 192.918C444.341 202.407 440.282 213.641 430.098 217.13M430.098 217.13L429.05 214.077M430.098 217.13C430.097 217.13 430.096 217.13 430.096 217.13L429.05 214.077M430.098 217.13C422.382 219.777 415.327 216.425 411.195 213.648M429.05 214.077C422.789 216.225 416.853 213.562 412.996 210.969M411.195 213.648C411.196 213.649 411.197 213.649 411.197 213.649L412.996 210.969M411.195 213.648C409.368 212.423 406.988 212.475 405.233 213.771M411.195 213.648L412.996 210.969M412.996 210.969L405.233 213.771M405.233 213.771L405.237 213.768L403.311 211.179L405.23 213.773C405.231 213.773 405.232 213.772 405.233 213.771ZM356.435 250.074L354.509 247.484L356.435 250.074C356.435 250.074 356.435 250.074 356.435 250.074ZM333.179 246.587L335.78 244.677L333.178 246.586C333.178 246.586 333.179 246.587 333.179 246.587ZM387.963 190.273L386.069 187.66L386.065 187.662C386.065 187.663 386.064 187.663 386.063 187.664L387.963 190.273Z" stroke="black" stroke-width="6.45519" stroke-linejoin="round"/>
<path d="M392.904 164.848C388.983 170.182 389.745 176.64 391.061 181.097C392.07 184.509 390.838 188.18 387.963 190.273L338.707 225.963C332.711 230.308 331.397 238.706 335.78 244.676C340.161 250.644 348.567 251.906 354.509 247.484L403.311 211.179C406.171 209.063 410.043 208.987 412.996 210.969C416.853 213.562 422.789 216.225 429.05 214.077C437.259 211.266 440.715 202.159 437.262 194.203C434.547 187.951 428.716 184.593 422.786 184.593C421.51 184.593 420.423 183.957 419.748 183.021C419.059 182.099 418.778 180.873 419.158 179.655C420.934 173.998 419.478 167.426 414.324 162.967C407.767 157.287 398.046 157.86 392.904 164.848V164.848Z" fill="#F1F3F5"/>
<path fill-rule="evenodd" clip-rule="evenodd" d="M334.288 231.469C332.471 235.677 332.87 240.712 335.781 244.676C340.161 250.644 348.567 251.905 354.509 247.484L403.311 211.178C406.171 209.062 410.043 208.987 412.996 210.969C416.854 213.562 422.789 216.225 429.05 214.076C437.259 211.266 440.715 202.159 437.262 194.203C436.629 192.745 435.826 191.444 434.892 190.306C433.569 194.32 430.524 197.67 426.094 199.187C419.833 201.335 413.897 198.672 410.04 196.08C407.086 194.097 403.215 194.173 400.354 196.289L351.552 232.594C346.219 236.563 338.898 235.953 334.288 231.469ZM418.939 169.596C418.052 169.378 417.303 168.84 416.792 168.131C416.118 167.229 415.833 166.035 416.179 164.842C417.41 166.304 418.326 167.915 418.939 169.596Z" fill="#CED4DA"/>
<path d="M190.265 290.656C190.938 273.688 198.76 257.674 215.06 245.707C232.478 232.919 255.294 228.924 276.602 225.533C277.725 225.354 278.843 225.177 279.957 225.001C300.693 221.718 319.943 218.671 335.189 209.857C341.193 206.385 347.791 207.775 352.824 210.299C357.956 212.872 362.711 217.16 366.379 221.916C370.038 226.661 373.019 232.394 374.046 238.18C375.088 244.056 374.169 250.761 368.823 255.666C355.868 267.552 348.956 284.247 341.423 302.443C341.114 303.189 340.804 303.937 340.493 304.688C332.842 323.136 324.234 343.059 306.618 355.992C302.798 360.472 294.729 363.699 294.729 363.699C249.543 392.748 188.338 339.217 190.265 290.656Z" fill="black"/>
<path d="M211.987 335.564C232.43 363.408 273.323 372.429 302.798 350.788C334.711 327.357 334.951 277.982 364.459 250.91C377.309 239.116 351.779 207.72 338.42 215.445C303.753 235.488 250.793 227.479 218.881 250.91C189.406 272.548 191.546 307.723 211.987 335.564Z" fill="#FFD43B"/>
<path fill-rule="evenodd" clip-rule="evenodd" d="M294.345 325.964C264.87 347.605 223.977 338.584 203.533 310.74C201.173 307.525 199.056 304.212 197.205 300.834C198.812 312.701 204.003 324.694 211.987 335.568C232.43 363.412 273.323 372.433 302.798 350.792C319.526 338.51 327.552 319.099 335.652 299.509C343.004 281.726 350.418 263.795 364.459 250.913C371.748 244.223 366.688 231.226 358.504 222.639C357.935 223.908 357.112 225.07 356.005 226.086C341.965 238.967 334.551 256.898 327.198 274.682C319.098 294.272 311.073 313.682 294.345 325.964Z" fill="#FAB005"/>
<path d="M447.956 352.282H64.0409C57.7548 352.282 52.6602 357.377 52.6602 363.663C52.6602 369.949 57.7548 372.616 64.0409 372.616H86.2934C89.1293 372.616 91.6859 374.332 92.7563 376.96L96.6533 387.985C100.296 396.902 108.971 402.732 118.605 402.732H393.392C403.026 402.732 411.701 396.902 415.344 387.985L419.241 378.45C420.311 375.822 422.868 372.616 425.704 372.616H447.956C454.242 372.616 459.337 369.949 459.337 363.663C459.337 357.377 454.242 352.282 447.956 352.282Z" fill="#F1F3F5"/>
<path fill-rule="evenodd" clip-rule="evenodd" d="M53.4372 359.523C55.093 363.096 59.2162 364.668 64.0413 364.668H86.2939C89.1298 364.668 91.6864 366.383 92.7568 369.011L96.6538 380.036C100.296 388.953 108.972 394.783 118.605 394.783H393.393C403.027 394.783 411.702 388.953 415.344 380.036L419.241 370.501C420.312 367.873 422.868 364.668 425.704 364.668H447.957C452.782 364.668 456.905 363.096 458.561 359.523C459.062 360.806 459.337 362.202 459.337 363.663C459.337 369.949 454.243 372.617 447.957 372.617H425.704C422.868 372.617 420.312 375.822 419.241 378.45L415.344 387.985C411.702 396.902 403.027 402.732 393.393 402.732H118.605C108.972 402.732 100.296 396.902 96.6538 387.985L92.7568 376.96C91.6864 374.332 89.1298 372.617 86.2939 372.617H64.0413C57.7553 372.617 52.6606 369.949 52.6606 363.663C52.6606 362.202 52.9358 360.806 53.4372 359.523Z" fill="#DEE2E6"/>
<path fill-rule="evenodd" clip-rule="evenodd" d="M96.6534 387.985L92.7564 376.96C91.686 374.332 89.1294 372.616 86.2935 372.616H64.041C57.7549 372.616 52.6603 369.949 52.6603 363.663C52.6603 357.377 57.7549 352.283 64.041 352.283H447.956C454.242 352.283 459.337 357.377 459.337 363.663C459.337 369.949 454.242 372.616 447.956 372.616H425.704C422.868 372.616 420.311 375.822 419.241 378.45L415.344 387.985C411.701 396.902 403.026 402.732 393.392 402.732H118.605C108.971 402.732 100.296 396.902 96.6534 387.985ZM421.32 390.426C416.686 401.77 405.65 409.187 393.392 409.187H118.605C106.348 409.187 95.3114 401.77 90.6776 390.426C90.6385 390.33 90.6017 390.234 90.5673 390.136L86.7499 379.337C86.6595 379.176 86.4866 379.072 86.2935 379.072H64.041C60.1235 379.072 55.8019 378.261 52.2728 375.772C48.4326 373.064 46.2051 368.823 46.2051 363.663C46.2051 353.812 54.1898 345.827 64.041 345.827H447.956C457.808 345.827 465.792 353.812 465.792 363.663C465.792 368.823 463.565 373.064 459.725 375.772C456.195 378.261 451.874 379.072 447.956 379.072H426.416C426.404 379.083 426.392 379.095 426.38 379.107C426.175 379.312 425.943 379.597 425.72 379.942C425.496 380.286 425.327 380.62 425.219 380.885L425.216 380.893L421.32 390.426Z" fill="black"/>
<path d="M144.164 347.2C124.254 347.201 113.663 348.217 101.801 350.589C93.329 352.284 88.9419 353.888 88.2456 355.673L83.1621 365.616C83.162 365.836 83.3215 366.052 83.6248 366.243C83.9281 366.433 84.3645 366.592 84.8901 366.702C85.4157 366.812 86.012 366.87 86.6193 366.87C87.2265 366.871 87.8234 366.813 88.3498 366.704L101.528 361.205C106.263 358.608 115.357 355.673 117.876 361.205L120.441 369.229C121.061 370.501 122.307 370.763 123.311 370.769C124.315 370.774 125.305 370.682 126.176 370.501L137.875 365.638C144.164 362.451 151.821 364.615 156.722 365.655L164.073 367.223C164.889 367.397 165.813 367.493 166.759 367.502C167.705 367.511 168.643 367.434 169.483 367.276L179.831 365.336C184.831 364.145 193.304 357.367 197.656 360.237L205.165 370.923C206.912 372.836 211.048 365.658 211.943 365.655C212.838 365.653 215.332 371.142 218.721 372.617L225.499 369.228C229.461 364.519 235.666 364.145 241.624 365.526L247.527 367.502C249.581 367.502 251.675 364.139 252.611 364.145C253.546 364.151 256.865 367.432 257.694 367.276L265.101 365.403C270.067 364.464 281.417 353.978 283.31 356.971L292.3 367.235C293.128 367.401 294.059 367.488 295.005 367.488C295.951 367.488 296.882 367.401 297.71 367.235L305.824 365.616C310.952 364.596 320.39 362.451 324.757 365.728L331.168 370.573C331.168 370.573 333.01 372.597 333.946 372.617C334.883 372.638 335.679 370.835 336.528 370.69L348.408 365.273C356.602 362.217 367.836 372.617 378.003 367.534L388.368 369.011C393.55 367.99 400.031 362.233 407.355 365.761C414.679 369.289 409.948 369.916 409.948 369.916C410.471 370.038 411.074 370.106 411.695 370.115C412.317 370.123 412.932 370.07 413.478 369.962C414.023 369.854 414.479 369.695 414.796 369.502C415.114 369.308 415.281 369.087 415.282 368.862L415.978 355.763C415.978 355.306 415.729 354.854 415.247 354.432C414.764 354.009 414.479 352.607 413.587 352.284C412.695 351.961 409.669 350.764 408.504 350.589C407.338 350.414 396.642 345.506 383.086 347.2C369.53 348.895 357.75 350.589 336.528 350.589C330.914 350.589 307.979 347.125 281.417 347.2C261.169 347.257 259.389 350.589 220.416 350.589C184.831 350.589 164.073 347.2 144.164 347.2Z" fill="#BAEF73"/>
<path fill-rule="evenodd" clip-rule="evenodd" d="M415.363 367.316C415.129 367.38 414.95 367.404 414.95 367.404C415.08 367.434 415.215 367.461 415.354 367.485L415.281 368.862C415.281 369.087 415.113 369.308 414.796 369.502C414.478 369.695 414.023 369.854 413.477 369.962C412.932 370.07 412.316 370.123 411.695 370.115C411.074 370.106 410.47 370.038 409.947 369.916C409.947 369.916 414.679 369.289 407.355 365.761C402.238 363.297 397.533 365.363 393.395 367.181C391.609 367.966 389.929 368.704 388.367 369.011L378.002 367.534C372.431 370.32 366.54 368.456 361.004 366.705C356.437 365.26 352.111 363.892 348.407 365.273L340.615 368.826C340.92 368.503 341.222 368.231 341.53 368.178L353.41 362.761C357.114 361.379 361.439 362.748 366.006 364.192C371.542 365.944 377.434 367.807 383.005 365.022L393.37 366.499C394.932 366.191 396.612 365.453 398.397 364.669C402.536 362.851 407.241 360.784 412.357 363.249C413.856 363.971 414.85 364.572 415.483 365.07L415.363 367.316ZM93.605 352.585C90.4224 353.588 88.6645 354.598 88.2451 355.673L83.1616 365.616C83.1615 365.836 83.321 366.052 83.6243 366.243C83.9276 366.433 84.364 366.592 84.8896 366.702C85.4152 366.812 86.0115 366.87 86.6188 366.871C87.2261 366.871 87.8229 366.813 88.3493 366.704L101.528 361.205C106.263 358.608 115.357 355.673 117.876 361.205L120.44 369.229C121.061 370.501 122.306 370.763 123.31 370.769C124.315 370.774 125.304 370.682 126.176 370.501L137.875 365.638C143.583 362.744 150.42 364.262 155.299 365.344C155.794 365.454 156.27 365.56 156.721 365.656L164.073 367.223C164.888 367.397 165.813 367.493 166.759 367.502C167.705 367.512 168.642 367.434 169.482 367.276L179.831 365.336C181.515 364.935 183.593 363.9 185.775 362.813C190.071 360.674 194.769 358.334 197.655 360.237L205.165 370.923C206.243 372.104 208.232 369.82 209.807 367.899L202.658 357.725C199.771 355.822 195.073 358.162 190.777 360.301C188.595 361.388 186.517 362.423 184.833 362.824L174.485 364.764C173.645 364.921 172.707 364.999 171.761 364.99C170.815 364.981 169.891 364.885 169.075 364.711L161.724 363.143C161.272 363.047 160.797 362.942 160.301 362.832C155.423 361.749 148.586 360.232 142.877 363.126L131.178 367.989C130.307 368.17 129.317 368.262 128.313 368.257C127.309 368.251 126.063 367.989 125.443 366.716L122.878 358.693C120.359 353.16 111.265 356.096 106.53 358.693L93.3517 364.191C92.8253 364.301 92.2284 364.359 91.6212 364.358C91.0139 364.358 90.4175 364.3 89.8919 364.19C89.3663 364.08 88.93 363.921 88.6267 363.731C88.3234 363.54 88.1638 363.324 88.164 363.104L93.2475 353.16C93.323 352.967 93.442 352.775 93.605 352.585ZM213.324 367.102C213.424 367.24 213.527 367.385 213.635 367.534C214.879 369.268 216.629 371.707 218.721 372.617L225.499 369.228C225.504 369.222 225.509 369.216 225.515 369.209L223.723 370.105C221.632 369.195 219.881 366.756 218.637 365.022C217.865 363.946 217.288 363.142 216.945 363.143C216.639 363.144 215.954 363.984 215.115 365.013C214.563 365.689 213.945 366.448 213.324 367.102ZM231.924 365.284C234.951 364.535 238.325 364.762 241.624 365.526L247.527 367.502C248.751 367.502 249.99 366.307 250.989 365.343C251.231 365.109 251.46 364.889 251.67 364.702L246.626 363.014C241.34 361.789 235.86 361.945 231.924 365.284ZM253.7 364.67C254.126 364.958 254.616 365.332 255.106 365.706C256.185 366.53 257.268 367.356 257.694 367.276L265.101 365.403C266.528 365.133 268.482 364.075 270.587 362.775C270.42 362.823 270.258 362.861 270.103 362.891L262.696 364.764C262.27 364.844 261.187 364.017 260.108 363.194C259.086 362.413 258.068 361.636 257.613 361.633C257.235 361.631 256.668 362.177 255.992 362.83C255.312 363.486 254.521 364.249 253.7 364.67ZM281.393 356.547C282.288 356.326 282.96 356.419 283.309 356.972L292.3 367.235C293.128 367.401 294.058 367.488 295.005 367.488C295.951 367.488 296.882 367.401 297.709 367.235L305.824 365.616C306.104 365.56 306.398 365.501 306.703 365.44C311.97 364.377 320.629 362.63 324.757 365.728L331.167 370.573C331.167 370.573 333.009 372.597 333.946 372.618C334.447 372.629 334.909 372.117 335.359 371.616C335.75 371.182 336.133 370.757 336.528 370.69L338.297 369.884C337.346 369.354 336.17 368.06 336.17 368.06L329.759 363.216C325.631 360.118 316.972 361.865 311.705 362.927C311.4 362.989 311.107 363.048 310.826 363.104L302.712 364.722C301.884 364.889 300.953 364.976 300.007 364.976C299.061 364.976 298.13 364.889 297.302 364.722L288.312 354.459C287.455 353.104 284.658 354.513 281.393 356.547Z" fill="#9EDC4B"/>
<path fill-rule="evenodd" clip-rule="evenodd" d="M101.528 361.205L88.3497 366.704C87.8232 366.813 87.2264 366.871 86.6191 366.871C86.2285 366.87 85.8423 366.846 85.4767 366.8C85.2739 366.774 85.0774 366.741 84.8899 366.702C84.3643 366.592 83.928 366.434 83.6247 366.243C83.3214 366.052 83.1618 365.836 83.162 365.616L88.2454 355.673C88.9418 353.888 93.3289 352.284 101.801 350.589C113.663 348.217 124.254 347.201 144.164 347.2C152.684 347.2 161.359 347.821 171.286 348.531C184.555 349.48 200.059 350.589 220.415 350.589C243.184 350.589 253.259 349.452 261.738 348.495C267.772 347.814 272.998 347.224 281.417 347.2C299.695 347.148 316.256 348.773 326.637 349.791C331.342 350.252 334.777 350.589 336.528 350.589C356.223 350.589 367.786 349.13 380.184 347.566C381.145 347.444 382.111 347.322 383.086 347.2C394.486 345.775 403.863 349.02 407.251 350.192C407.892 350.414 408.318 350.562 408.503 350.589C409.46 350.733 411.668 351.564 412.923 352.036C413.198 352.14 413.427 352.226 413.587 352.284C414.143 352.485 414.463 353.106 414.742 353.647C414.911 353.974 415.065 354.273 415.247 354.432C415.729 354.854 415.978 355.306 415.978 355.763L415.281 368.862C415.281 369.087 415.113 369.308 414.796 369.502C414.479 369.695 414.023 369.854 413.478 369.962C412.932 370.07 412.316 370.123 411.695 370.115C411.074 370.107 410.471 370.038 409.948 369.916C409.948 369.916 411.52 369.708 411.449 368.856C411.444 368.793 411.429 368.726 411.405 368.656C411.304 368.367 411.029 368.016 410.489 367.589C410.238 367.391 409.929 367.176 409.554 366.943C409.554 366.943 409.554 366.943 409.554 366.943C409.446 366.877 409.333 366.809 409.215 366.739C409.126 366.687 409.034 366.635 408.938 366.581C408.487 366.327 407.963 366.054 407.355 365.761C406.985 365.583 406.617 365.429 406.251 365.296C406.051 365.223 405.852 365.157 405.653 365.097C401.192 363.756 397.07 365.567 393.395 367.181C391.61 367.966 389.93 368.704 388.368 369.011L378.003 367.534C372.432 370.32 366.54 368.456 361.004 366.705C356.437 365.26 352.112 363.892 348.408 365.274L336.528 370.69C336.134 370.757 335.751 371.183 335.36 371.617C334.909 372.117 334.448 372.629 333.946 372.618C333.009 372.597 331.168 370.573 331.168 370.573L324.757 365.728C320.629 362.63 311.97 364.377 306.703 365.44C306.398 365.501 306.105 365.561 305.824 365.616L297.71 367.235C296.882 367.401 295.951 367.488 295.005 367.488C294.059 367.488 293.128 367.401 292.3 367.235L283.31 356.972C282.22 355.248 277.992 357.995 273.654 360.815C270.461 362.89 267.207 365.005 265.101 365.403L257.694 367.276C257.268 367.356 256.185 366.53 255.106 365.706C254.084 364.926 253.066 364.148 252.611 364.145C252.233 364.143 251.666 364.69 250.99 365.343C249.99 366.307 248.751 367.502 247.527 367.502L241.624 365.526C235.666 364.145 229.461 364.519 225.499 369.228L218.721 372.617C216.63 371.707 214.879 369.268 213.635 367.534C212.863 366.459 212.286 365.655 211.943 365.656C211.674 365.656 211.112 366.305 210.411 367.161C210.363 367.219 210.314 367.279 210.265 367.339C210.215 367.4 210.164 367.462 210.113 367.525C208.499 369.504 206.315 372.182 205.165 370.923L197.656 360.237C194.769 358.334 190.071 360.674 185.775 362.814C183.593 363.9 181.515 364.935 179.831 365.336L169.483 367.276C168.643 367.434 167.705 367.512 166.759 367.502C165.813 367.493 164.889 367.397 164.073 367.223L156.722 365.656C156.27 365.56 155.795 365.454 155.299 365.344C150.421 364.262 143.584 362.745 137.875 365.638L126.176 370.501C125.305 370.682 124.315 370.774 123.311 370.769C122.307 370.763 121.061 370.501 120.441 369.229L117.876 361.205C115.357 355.673 106.263 358.608 101.528 361.205ZM112.158 364.519C111.921 364.515 111.627 364.528 111.273 364.569C109.188 364.81 106.546 365.815 104.632 366.865C104.431 366.975 104.225 367.074 104.014 367.162L90.8355 372.661C90.4579 372.819 90.0662 372.94 89.6656 373.023C88.6538 373.234 87.6105 373.326 86.6158 373.326C85.6213 373.325 84.5778 373.232 83.5657 373.02C82.6284 372.823 81.3795 372.456 80.1907 371.709C79.2282 371.104 76.7042 369.19 76.7068 365.612C76.7075 364.592 76.95 363.586 77.4143 362.678L82.4053 352.915C83.3053 350.936 84.8225 349.701 85.8845 348.993C87.104 348.18 88.4935 347.555 89.853 347.048C92.5848 346.03 96.2013 345.126 100.535 344.26C112.936 341.779 123.975 340.745 144.163 340.745C152.934 340.745 161.87 341.385 171.782 342.095C173.446 342.214 175.138 342.335 176.861 342.455C188.924 343.298 202.84 344.134 220.415 344.134C239.68 344.134 249.639 343.313 257.251 342.498C258.527 342.361 259.754 342.222 260.962 342.086C267.032 341.4 272.605 340.77 281.399 340.745C294.952 340.706 307.54 341.571 317.393 342.436C321.1 342.762 324.447 343.09 327.29 343.369C328.217 343.46 329.09 343.545 329.904 343.624C333.383 343.959 335.508 344.134 336.528 344.134C355.814 344.134 367.045 342.717 379.386 341.16C380.344 341.039 381.309 340.917 382.285 340.795C390.021 339.828 396.872 340.75 401.887 341.903C404.404 342.481 406.48 343.122 407.983 343.622C408.526 343.803 409.024 343.975 409.396 344.104C409.522 344.147 409.633 344.186 409.727 344.218C409.817 344.249 409.889 344.273 409.946 344.292C411.169 344.54 412.554 345.029 413.315 345.301C414.028 345.555 415.347 346.05 415.698 346.182C415.751 346.202 415.782 346.213 415.785 346.214C417.342 346.778 418.39 347.73 419.025 348.459C419.638 349.164 420.033 349.858 420.232 350.22C420.265 350.281 420.298 350.341 420.328 350.397C421.402 351.606 422.433 353.402 422.433 355.763C422.433 355.878 422.43 355.992 422.424 356.106L421.732 369.114C421.615 372.61 419.083 374.449 418.157 375.013C416.952 375.748 415.687 376.106 414.729 376.295C413.696 376.499 412.629 376.582 411.611 376.569C410.597 376.556 409.524 376.445 408.484 376.204C405.99 375.623 404.13 373.647 403.628 371.234C402.446 370.929 401.127 371.089 399.211 371.766C398.192 372.127 397.246 372.541 396.108 373.041C395.776 373.187 395.427 373.34 395.056 373.5C393.613 374.125 391.665 374.941 389.615 375.345C388.904 375.485 388.174 375.504 387.457 375.402L378.875 374.179C371.91 376.738 365.085 374.735 360.553 373.329C359.964 373.147 359.412 372.972 358.89 372.808C356.895 372.178 355.335 371.686 353.811 371.385C352.159 371.06 351.288 371.134 350.805 371.275L339.854 376.268C339.581 376.562 339.117 377.036 338.553 377.468C337.835 378.019 336.171 379.123 333.805 379.071C331.691 379.025 330.118 378.031 329.664 377.744C328.955 377.295 328.351 376.794 327.939 376.432C327.502 376.047 327.128 375.68 326.872 375.42C326.869 375.417 326.866 375.414 326.862 375.41L320.888 370.895C320.887 370.896 320.585 370.702 319.693 370.564C318.76 370.42 317.533 370.392 316.038 370.499C313.319 370.694 310.504 371.26 307.982 371.767C307.679 371.828 307.38 371.888 307.087 371.947C307.086 371.947 307.087 371.947 307.087 371.947L298.981 373.563C298.979 373.564 298.977 373.564 298.975 373.565C297.684 373.824 296.326 373.943 295.005 373.943C293.682 373.943 292.322 373.823 291.029 373.563C289.639 373.284 288.379 372.555 287.445 371.488L280.817 363.922C280.248 364.259 279.591 364.668 278.838 365.15C278.36 365.455 277.841 365.793 277.298 366.146C275.943 367.026 274.441 368.002 273.081 368.813C271.395 369.818 268.961 371.184 266.536 371.698L259.277 373.534C259.15 373.566 259.022 373.594 258.893 373.619C257.69 373.846 256.691 373.696 256.123 373.571C255.52 373.438 255.03 373.249 254.703 373.107C254.061 372.828 253.522 372.497 253.179 372.276C253.107 372.229 253.033 372.181 252.96 372.132C252.811 372.235 252.658 372.337 252.5 372.437C251.507 373.063 249.769 373.958 247.527 373.958C246.831 373.958 246.139 373.845 245.478 373.624L239.882 371.751C234.917 370.656 232 371.528 230.439 373.384C229.872 374.058 229.173 374.608 228.386 375.002L221.608 378.391C219.898 379.246 217.897 379.299 216.144 378.536C214.277 377.723 212.828 376.502 211.801 375.478C211.755 375.432 211.709 375.386 211.663 375.34C211.23 375.71 210.756 376.07 210.252 376.384C209.486 376.862 208.074 377.608 206.222 377.694C204.008 377.797 201.9 376.92 200.398 375.275C200.213 375.073 200.041 374.859 199.884 374.634L193.976 366.229C193.38 366.413 192.613 366.709 191.643 367.147C190.667 367.588 189.786 368.027 188.815 368.512C188.231 368.803 187.615 369.11 186.927 369.443C185.37 370.197 183.335 371.137 181.327 371.616C181.225 371.64 181.123 371.662 181.02 371.681L170.674 373.62C169.38 373.863 168.018 373.97 166.696 373.957C165.375 373.944 164.017 373.811 162.727 373.536C162.727 373.536 162.728 373.536 162.727 373.536L155.381 371.97C155.38 371.97 155.379 371.97 155.378 371.969C155.377 371.969 155.378 371.969 155.378 371.969C154.822 371.851 154.275 371.731 153.736 371.611C151.576 371.134 149.511 370.678 147.289 370.495C144.597 370.273 142.458 370.552 140.793 371.396C140.649 371.469 140.502 371.537 140.353 371.599L128.654 376.462C128.277 376.618 127.887 376.739 127.488 376.822C126.121 377.105 124.675 377.232 123.275 377.224C121.493 377.214 116.914 376.723 114.639 372.059C114.503 371.779 114.387 371.49 114.292 371.194L112.158 364.519Z" fill="black"/>
<g filter="url(#filter0_i_39_965)">
<path d="M83.9911 311.612L146.1 311.684L156.241 345.502L83.9463 345.419C74.1429 345.407 66.2043 337.829 66.2175 328.494C66.2292 319.158 74.1865 311.601 83.9911 311.612Z" fill="#FF6B6B"/>
</g>
<path fill-rule="evenodd" clip-rule="evenodd" d="M83.9987 305.157L146.108 305.229C148.956 305.232 151.466 307.101 152.284 309.83L162.424 343.648C163.011 345.603 162.638 347.721 161.418 349.358C160.198 350.996 158.276 351.959 156.234 351.957L83.9389 351.874C70.8723 351.858 59.7444 341.681 59.7625 328.486M83.9464 345.418C74.143 345.407 66.2044 337.829 66.2177 328.494C66.2293 319.158 74.1866 311.601 83.9912 311.612L146.101 311.684L156.241 345.502L83.9464 345.418ZM83.9987 305.157C70.932 305.142 59.7795 315.291 59.7625 328.486Z" fill="black"/>
<path d="M141.4 332.333C137.288 323.212 138.226 314.127 143.495 312.042C148.764 309.957 156.371 315.66 160.483 324.781C164.595 333.902 163.657 342.987 158.388 345.072C153.119 347.157 145.514 341.453 141.4 332.333Z" fill="#FFE8CC"/>
<path fill-rule="evenodd" clip-rule="evenodd" d="M135.516 334.988L135.516 334.987C133.09 329.607 131.99 323.91 132.509 318.887C133.008 314.048 135.293 308.346 141.121 306.04C146.781 303.8 152.419 306.138 156.296 309.046C160.375 312.105 163.938 316.738 166.368 322.129C168.793 327.508 169.893 333.206 169.375 338.229C168.875 343.067 166.591 348.77 160.763 351.075C155.102 353.315 149.465 350.977 145.588 348.07C141.509 345.011 137.947 340.377 135.516 334.988ZM141.401 332.334C137.288 323.213 138.226 314.127 143.495 312.043C148.765 309.958 156.371 315.661 160.483 324.782C164.595 333.903 163.658 342.988 158.388 345.073C153.119 347.158 145.514 341.454 141.401 332.334Z" fill="black"/>
<path d="M180.151 305.601L207.586 305.601L220.496 350.787L183.379 350.676C177.755 350.661 168.847 340.557 168.855 328.11C168.861 315.663 174.527 305.586 180.151 305.601Z" fill="black"/>
<path d="M184.231 312.056L209.2 312.125L220.496 344.332L184.209 344.253C179.288 344.242 175.303 337.025 175.31 328.134C175.316 319.243 179.31 312.046 184.231 312.056Z" fill="#FF6B6B"/>
<path d="M204.206 332.51C199.271 322.085 200.396 311.702 206.719 309.32C213.042 306.937 222.17 313.455 227.105 323.879C232.039 334.303 230.914 344.686 224.591 347.069C218.268 349.451 209.142 342.933 204.206 332.51Z" fill="#FFE8CC"/>
<path fill-rule="evenodd" clip-rule="evenodd" d="M200.9 334.242C198.58 329.001 197.527 323.45 198.023 318.556C198.501 313.842 200.687 308.286 206.261 306.04C209.19 304.859 217.068 306.135 220.776 308.968C224.678 311.948 228.085 316.463 230.41 321.715C232.73 326.956 233.782 332.507 233.286 337.401C232.808 342.115 230.623 347.671 225.049 349.917C219.634 352.1 214.242 349.821 210.534 346.989C206.632 344.009 203.225 339.493 200.9 334.242ZM206.528 331.657C202.595 322.771 203.492 313.919 208.532 311.888C213.572 309.857 220.848 315.413 224.781 324.3C228.715 333.186 227.818 342.038 222.777 344.069C217.737 346.1 210.463 340.544 206.528 331.657Z" fill="black"/>
<path d="M407.215 305.916C407.601 304.175 409.324 303.078 411.065 303.464L427.808 307.177C429.548 307.563 430.646 309.287 430.26 311.027L408.016 411.31C407.63 413.05 405.907 414.148 404.166 413.762L387.423 410.048C385.683 409.662 384.585 407.939 384.971 406.198L407.215 305.916Z" fill="#F4F4F4"/>
<path d="M412.309 284.024C404.267 288.421 408.302 297.114 411.734 301.554C416.024 307.104 427.287 306.107 432.078 299.445C437.11 292.447 430.82 278.566 425.281 270.348C424.308 273.075 420.352 279.628 412.309 284.024Z" fill="#FBFF2B"/>
<path fill-rule="evenodd" clip-rule="evenodd" d="M419.173 295.337C419.461 295.426 420.012 295.517 420.772 295.443C422.45 295.278 423.648 294.505 424.152 293.877C424.151 293.877 424.15 293.878 424.149 293.877C424.109 293.861 424.669 292.413 423.386 288.191C421.638 289.62 419.678 290.985 417.495 292.22C417.594 292.521 417.74 292.889 417.948 293.317C418.299 294.035 418.736 294.738 419.173 295.337ZM430.767 280.316C433.806 287.292 435.381 294.851 432.078 299.445C427.287 306.107 416.024 307.104 411.734 301.554C408.302 297.114 404.267 288.421 412.309 284.024C415.09 282.504 417.382 280.726 419.232 278.938C422.731 275.554 424.644 272.132 425.281 270.348C427.184 273.172 429.176 276.664 430.767 280.316Z" fill="#FF4F4F"/>
<path d="M400.833 329.298C399.449 324.777 402.501 311.552 405.703 304.588C406.286 303.319 407.696 302.716 409.06 303.018L429.603 307.575C431.044 307.894 432.088 309.148 432.039 310.623C431.847 316.445 430.637 325.626 428.695 329.232C428.117 330.304 422.794 332.891 422.527 334.078C420.971 341.006 418.584 349.492 416.16 349.872C412.038 350.519 420.327 321.131 417.376 320.476C413.585 319.635 414.405 333.869 410.614 333.028C408.086 332.468 409.736 325.027 407.208 324.466C404.681 323.906 402.538 334.872 400.833 329.298Z" fill="white"/>
<path fill-rule="evenodd" clip-rule="evenodd" d="M408.767 296.499C409.118 297.341 409.529 298.154 409.969 298.917C410.533 299.893 411.143 300.787 411.736 301.553C413.043 303.245 414.998 304.328 417.22 304.828L409.06 303.018C407.772 302.732 406.441 303.255 405.807 304.384C405.769 304.45 405.735 304.518 405.703 304.588C402.501 311.552 399.449 324.777 400.832 329.298C401.107 330.195 401.393 330.664 401.69 330.821L384.971 406.198C384.585 407.938 385.683 409.662 387.423 410.048L404.166 413.761C405.906 414.148 407.63 413.05 408.016 411.309L425.727 331.461L425.895 331.353C427.195 330.516 428.433 329.718 428.694 329.232C430.637 325.626 431.847 316.446 432.039 310.623C432.064 309.861 431.798 309.159 431.336 308.614C430.904 308.103 430.3 307.729 429.603 307.575L417.298 304.846C421.667 305.8 427.045 304.514 430.565 301.176C431.12 300.65 431.629 300.072 432.08 299.445C435.929 294.091 433.154 284.711 429.157 276.919C427.928 274.524 426.585 272.28 425.283 270.348C424.803 271.695 423.594 273.975 421.526 276.467C419.406 279.022 416.382 281.799 412.311 284.024L409.215 278.36C415.789 274.766 418.732 269.501 419.203 268.179L423.496 256.147L430.636 266.74C433.652 271.215 436.948 277.322 438.821 283.473C440.559 289.179 441.726 297.087 437.321 303.213C437 303.659 436.662 304.088 436.309 304.498C437.724 306.185 438.572 308.381 438.491 310.836C438.385 314.029 438.007 318.057 437.393 321.803C436.822 325.287 435.911 329.448 434.377 332.294C433.769 333.423 432.96 334.167 432.653 334.444C432.236 334.821 431.808 335.145 431.468 335.391L414.318 412.707C413.16 417.928 407.989 421.222 402.768 420.064L386.025 416.35C380.804 415.192 377.511 410.021 378.669 404.8L394.861 331.798C394.786 331.585 394.719 331.38 394.66 331.186C393.953 328.875 393.966 326.218 394.121 324.049C394.289 321.695 394.694 319.102 395.229 316.54C396.289 311.467 397.981 305.93 399.837 301.892C400.502 300.445 401.459 299.292 402.586 298.428C401.999 296.919 401.543 295.299 401.321 293.617C400.985 291.071 401.159 288.139 402.493 285.27C403.853 282.348 406.171 280.024 409.215 278.36L412.311 284.024C406.743 287.068 406.964 292.173 408.767 296.499Z" fill="black"/>
<path fill-rule="evenodd" clip-rule="evenodd" d="M111.046 237.822C111.12 254.759 112.06 268.152 113.207 268.152C114.355 268.152 115.295 254.759 115.369 237.822C134.701 237.756 150.033 236.813 150.033 235.659C150.033 234.505 134.701 233.562 115.369 233.497C115.295 216.56 114.355 203.166 113.207 203.166C112.06 203.166 111.12 216.56 111.046 233.497C91.7141 233.562 76.3823 234.505 76.3823 235.659C76.3823 236.813 91.7141 237.756 111.046 237.822Z" fill="#FFFCB4"/>
<path fill-rule="evenodd" clip-rule="evenodd" d="M190.496 134.265C190.552 146.968 191.256 157.013 192.117 157.013C192.978 157.013 193.683 146.968 193.738 134.265C208.237 134.216 219.736 133.509 219.736 132.643C219.736 131.778 208.237 131.071 193.738 131.021C193.683 118.319 192.978 108.274 192.117 108.274C191.256 108.274 190.552 118.319 190.496 131.021C175.997 131.071 164.499 131.778 164.499 132.643C164.499 133.509 175.997 134.216 190.496 134.265Z" fill="#FFFCB4"/>
<path fill-rule="evenodd" clip-rule="evenodd" d="M432.627 284.597C432.671 294.728 433.233 302.74 433.92 302.74C434.607 302.74 435.169 294.728 435.213 284.597C446.777 284.557 455.948 283.993 455.948 283.303C455.948 282.613 446.777 282.049 435.213 282.01C435.169 271.878 434.607 263.866 433.92 263.866C433.233 263.866 432.671 271.878 432.627 282.01C421.063 282.049 411.892 282.613 411.892 283.303C411.892 283.993 421.063 284.558 432.627 284.597Z" fill="#FFFCB4"/>
<path d="M103.497 294.668C103.497 296.54 101.98 298.057 100.108 298.057C98.2363 298.057 96.719 296.54 96.719 294.668C96.719 292.796 98.2363 291.279 100.108 291.279C101.98 291.279 103.497 292.796 103.497 294.668Z" fill="#FCC419" fill-opacity="0.45"/>
<path d="M123.83 298.056C123.83 299.928 122.313 301.445 120.441 301.445C118.57 301.445 117.052 299.928 117.052 298.056C117.052 296.185 118.57 294.667 120.441 294.667C122.313 294.667 123.83 296.185 123.83 298.056Z" fill="#FCC419" fill-opacity="0.45"/>
<path d="M117.05 281.111C117.05 282.983 115.533 284.5 113.661 284.5C111.79 284.5 110.272 282.983 110.272 281.111C110.272 279.24 111.79 277.722 113.661 277.722C115.533 277.722 117.05 279.24 117.05 281.111Z" fill="#FCC419" fill-opacity="0.45"/>
<path d="M93.3282 276.028C93.3282 276.964 92.5695 277.723 91.6337 277.723C90.6979 277.723 89.9392 276.964 89.9392 276.028C89.9392 275.093 90.6979 274.334 91.6337 274.334C92.5695 274.334 93.3282 275.093 93.3282 276.028Z" fill="#FCC419" fill-opacity="0.45"/>
<path d="M133.997 279.417C133.997 280.353 133.239 281.111 132.303 281.111C131.367 281.111 130.608 280.353 130.608 279.417C130.608 278.481 131.367 277.722 132.303 277.722C133.239 277.722 133.997 278.481 133.997 279.417Z" fill="#FCC419" fill-opacity="0.45"/>
<path d="M86.5513 289.585C86.5513 290.521 85.7927 291.28 84.8568 291.28C83.921 291.28 83.1624 290.521 83.1624 289.585C83.1624 288.649 83.921 287.891 84.8568 287.891C85.7927 287.891 86.5513 288.649 86.5513 289.585Z" fill="#FCC419" fill-opacity="0.45"/>
<path d="M93.3282 262.472C93.3282 263.408 92.5695 264.167 91.6337 264.167C90.6979 264.167 89.9392 263.408 89.9392 262.472C89.9392 261.536 90.6979 260.778 91.6337 260.778C92.5695 260.778 93.3282 261.536 93.3282 262.472Z" fill="#FCC419" fill-opacity="0.45"/>
<path d="M266.165 133.693C266.165 134.629 265.406 135.387 264.471 135.387C263.535 135.387 262.776 134.629 262.776 133.693C262.776 132.757 263.535 131.998 264.471 131.998C265.406 131.998 266.165 132.757 266.165 133.693Z" fill="white" fill-opacity="0.12"/>
<path d="M306.835 137.081C306.835 138.017 306.076 138.776 305.14 138.776C304.204 138.776 303.446 138.017 303.446 137.081C303.446 136.145 304.204 135.387 305.14 135.387C306.076 135.387 306.835 136.145 306.835 137.081Z" fill="white" fill-opacity="0.26"/>
<path d="M283.11 140.47C283.11 141.406 282.351 142.164 281.415 142.164C280.48 142.164 279.721 141.406 279.721 140.47C279.721 139.534 280.48 138.775 281.415 138.775C282.351 138.775 283.11 139.534 283.11 140.47Z" fill="white" fill-opacity="0.26"/>
<path d="M256.001 121.831C256.001 123.703 254.484 125.22 252.612 125.22C250.74 125.22 249.223 123.703 249.223 121.831C249.223 119.959 250.74 118.442 252.612 118.442C254.484 118.442 256.001 119.959 256.001 121.831Z" fill="white" fill-opacity="0.26"/>
<path d="M286.499 128.607C286.499 130.479 284.982 131.996 283.11 131.996C281.238 131.996 279.721 130.479 279.721 128.607C279.721 126.736 281.238 125.219 283.11 125.219C284.982 125.219 286.499 126.736 286.499 128.607Z" fill="white" fill-opacity="0.12"/>
<path d="M383.243 131.551C382.856 130.699 383.233 129.695 384.085 129.308C384.937 128.921 385.941 129.298 386.328 130.15C386.715 131.002 386.338 132.006 385.486 132.393C384.634 132.78 383.63 132.403 383.243 131.551Z" fill="white" fill-opacity="0.12"/>
<path d="M344.814 145.288C344.427 144.436 344.804 143.431 345.656 143.044C346.508 142.657 347.513 143.034 347.9 143.886C348.287 144.738 347.91 145.743 347.058 146.13C346.206 146.517 345.201 146.14 344.814 145.288Z" fill="white" fill-opacity="0.26"/>
<path d="M365.012 132.39C364.625 131.538 365.002 130.533 365.854 130.146C366.706 129.759 367.711 130.136 368.098 130.988C368.485 131.841 368.108 132.845 367.256 133.232C366.403 133.619 365.399 133.242 365.012 132.39Z" fill="white" fill-opacity="0.26"/>
<path d="M397.404 138.149C396.63 136.445 397.383 134.436 399.088 133.662C400.792 132.888 402.801 133.642 403.575 135.346C404.349 137.05 403.595 139.059 401.891 139.833C400.187 140.607 398.178 139.853 397.404 138.149Z" fill="white" fill-opacity="0.26"/>
<path d="M366.83 144.592C366.056 142.888 366.81 140.879 368.514 140.105C370.218 139.331 372.227 140.085 373.001 141.789C373.775 143.493 373.021 145.502 371.317 146.276C369.613 147.05 367.604 146.296 366.83 144.592Z" fill="white" fill-opacity="0.12"/>
<defs>
<filter id="filter0_i_39_965" x="66.2175" y="311.612" width="90.0237" height="33.8896" filterUnits="userSpaceOnUse" color-interpolation-filters="sRGB">
<feFlood flood-opacity="0" result="BackgroundImageFix"/>
<feBlend mode="normal" in="SourceGraphic" in2="BackgroundImageFix" result="shape"/>
<feColorMatrix in="SourceAlpha" type="matrix" values="0 0 0 0 0 0 0 0 0 0 0 0 0 0 0 0 0 0 127 0" result="hardAlpha"/>
<feOffset dx="-6.98727" dy="-13.9745"/>
<feComposite in2="hardAlpha" operator="arithmetic" k2="-1" k3="1"/>
<feColorMatrix type="matrix" values="0 0 0 0 0.980392 0 0 0 0 0.321569 0 0 0 0 0.321569 0 0 0 1 0"/>
<feBlend mode="normal" in2="shape" result="effect1_innerShadow_39_965"/>
</filter>
</defs>
</svg>
