<svg width="512" height="512" viewBox="0 0 512 512" fill="none" xmlns="http://www.w3.org/2000/svg">
<path d="M379.712 414.655C335.275 442.835 254.32 458.621 197.827 443.013C195.311 443.195 193.162 442.499 191.364 441.052C175.901 435.924 162.598 428.21 152.847 417.476C152.205 417.806 151.692 418.052 151.327 418.204C145.09 420.815 125.938 424.225 121.905 395.279C120.594 385.866 121.351 377.745 123.329 370.832C114.811 358.23 106.529 347.487 98.8962 337.585C79.0957 311.9 63.6575 291.873 59.7611 259.727C53.184 205.465 69.7679 157.237 110.734 115.029C193.584 29.6684 355.377 65.8889 419.861 156.137C446.185 192.978 468.92 264.592 444.306 331.898C448.773 330.956 452.123 331.534 454.6 333.172C456.086 334.154 457.258 335.519 458.17 337.166C461.168 342.586 459.308 348.798 447.453 353.86C447.336 353.91 447.219 353.959 447.103 354.007C447.626 354.259 448.138 354.536 448.635 354.84C451.617 356.662 453.866 358.603 455.466 360.55C457.116 362.559 458.076 364.573 458.438 366.468C458.865 368.708 458.457 370.782 457.364 372.483C456.635 373.617 455.731 374.676 454.61 375.525C451.246 378.071 445.933 378.729 437.574 373.871C437.383 373.76 437.194 373.647 437.008 373.531C435.509 372.6 434.169 371.528 432.973 370.372C431.939 369.372 431.013 368.31 430.185 367.223C433.094 378.833 430.78 391.097 417.243 399.154C411.53 402.555 397.151 408.502 379.712 414.655Z" fill="#F0D6B9"/>
<path d="M437.192 380.751C445.579 384.846 452.837 384.706 458.382 380.507C460.206 379.126 461.585 377.476 462.622 375.861C464.629 372.738 465.287 369.021 464.577 365.297C463.985 362.197 462.484 359.246 460.295 356.583C459.761 355.933 459.184 355.297 458.564 354.675C460.826 352.902 462.623 350.908 463.86 348.655C466.648 343.576 465.975 338.364 463.638 334.14C462.333 331.78 460.521 329.594 458.047 327.958C456.476 326.92 454.777 326.19 452.977 325.743C473.794 258.561 451.084 189.083 424.946 152.503C391.573 105.797 333.401 73.4483 273.198 63.5625C212.961 53.6712 149.502 66.1129 106.25 110.676C64.0459 154.159 46.7394 204.236 53.5567 260.479C57.6599 294.331 74.0247 315.559 93.5806 340.927L93.9464 341.401C101.106 350.689 108.731 360.583 116.571 372.012C114.931 379.104 114.461 387.142 115.715 396.141C117.93 412.039 124.66 420.839 133.46 424.375C140.195 427.081 146.92 426.171 151.277 424.849C161.327 434.689 174.141 441.801 188.45 446.667C190.987 448.397 193.922 449.299 197.094 449.291C226.296 457.153 261.238 456.975 294.326 451.418C327.477 445.85 359.4 434.776 382.454 420.314C399.549 414.262 414.198 408.24 420.439 404.525C428.346 399.819 433.353 393.618 435.789 386.56C436.452 384.64 436.911 382.698 437.192 380.751Z" stroke="white" stroke-width="12.4996"/>
<path d="M143.623 404.425C181.442 475.129 339.294 451.904 393.556 404.425C485.636 323.855 456.163 206.937 419.865 156.137C355.38 65.8891 193.587 29.6687 110.737 115.029C69.7711 157.237 53.1872 205.465 59.7642 259.727C66.3413 313.989 105.805 333.72 143.623 404.425Z" fill="#E3F2C4"/>
<path fill-rule="evenodd" clip-rule="evenodd" d="M189.014 446.856C167.06 439.501 148.544 426.875 138.112 407.372C122.965 379.053 107.635 359.162 94.033 341.512C90.9165 337.469 87.8906 333.542 84.9784 329.659C69.3529 308.826 57.0477 289.254 53.5599 260.479C46.7426 204.235 64.0491 154.159 106.253 110.676C149.505 66.1128 212.964 53.6711 273.201 63.5624C333.405 73.4482 391.577 105.797 424.95 152.503C443.815 178.905 460.695 222.075 461.102 269.063C461.511 316.281 445.262 367.486 397.672 409.128C369.113 434.116 314.535 452.035 262.779 454.983C236.766 456.464 210.95 454.204 189.014 446.856ZM393.556 404.424C339.294 451.903 181.442 475.129 143.623 404.424C128.209 375.607 112.522 355.257 98.8995 337.585C79.099 311.9 63.6607 291.873 59.7643 259.727C53.1872 205.465 69.7711 157.237 110.738 115.029C193.587 29.6683 355.38 65.8888 419.865 156.136C456.163 206.937 485.636 323.854 393.556 404.424Z" fill="black"/>
<circle cx="88.0093" cy="220.559" r="5.22584" fill="#93ECA2"/>
<circle cx="66.2701" cy="241.571" r="3.21912" fill="#93ECA2"/>
<circle cx="437.402" cy="267.403" r="4.82868" transform="rotate(-72.9962 437.402 267.403)" fill="#FFC078"/>
<circle cx="420.96" cy="185.188" r="4.82868" transform="rotate(-72.9962 420.96 185.188)" fill="#FF6B6B"/>
<circle cx="202.778" cy="85.3943" r="3.92003" transform="rotate(-72.9962 202.778 85.3943)" fill="#FFF385"/>
<circle cx="428.032" cy="241.591" r="5.22584" transform="rotate(-72.9962 428.032 241.591)" fill="#93ECA2"/>
<circle cx="66.2701" cy="207.655" r="3.21912" fill="#FF6B6B"/>
<g filter="url(#filter0_i_39_890)">
<path d="M386.483 342.695C386.483 364.792 372.039 378.769 343.156 378.769C314.273 378.769 299.83 364.792 299.83 342.695C299.83 320.597 319.228 302.684 343.156 302.684C367.085 302.684 386.483 320.597 386.483 342.695Z" fill="#FF6B6B"/>
</g>
<g filter="url(#filter1_i_39_890)">
<path d="M314.89 309.682C319.964 304.977 331.278 302.017 338.299 300.87C339.281 300.709 340.069 299.951 340.204 298.965C340.814 294.518 340.74 291.022 340.096 286.983C339.695 284.466 341.342 282.034 343.865 281.67C346.092 281.348 348.214 282.768 348.685 284.969C349.719 289.8 350.183 293.718 350.276 298.93C350.297 300.119 351.221 301.097 352.399 301.261C365.55 303.092 372.362 312.804 373.541 318.616C373.854 320.158 372.228 320.724 370.959 319.795C366.136 316.262 361.414 314.428 357.912 313.581C356.115 313.147 355.045 315.067 356.035 316.629C359.828 322.615 360.118 325.71 359.033 328.768C358.378 330.615 355.606 330.457 354.541 328.812C350.685 322.858 344.851 319.566 342.137 319.968C338.612 320.49 328.911 325.309 322.309 329.06C320.601 330.03 318.724 328.633 319.672 326.912C322.405 321.951 327.689 317.225 332.473 313.96C334.114 312.839 333.762 310.561 331.775 310.527C327.188 310.449 321.35 311.267 316.552 312.16C314.811 312.484 313.591 310.886 314.89 309.682Z" fill="#51CF66"/>
</g>
<g filter="url(#filter2_i_39_890)">
<path d="M386.483 342.695C386.483 364.792 372.039 378.77 343.156 378.77C314.273 378.77 299.83 364.792 299.83 342.695C299.83 320.598 319.228 302.685 343.156 302.685C367.085 302.685 386.483 320.598 386.483 342.695Z" fill="#FF6B6B"/>
</g>
<path d="M386.483 342.695C386.483 364.792 372.039 378.77 343.156 378.77C314.273 378.77 299.83 364.792 299.83 342.695C299.83 320.598 319.228 302.685 343.156 302.685C367.085 302.685 386.483 320.598 386.483 342.695Z" stroke="black" stroke-width="6.24982" stroke-linejoin="round"/>
<path d="M314.89 309.682C319.965 304.977 331.279 302.017 338.299 300.87C339.281 300.71 340.069 299.951 340.205 298.965C340.814 294.518 340.74 291.023 340.097 286.984C339.696 284.466 341.342 282.034 343.865 281.67C346.093 281.349 348.215 282.768 348.686 284.969C349.72 289.8 350.183 293.719 350.277 298.93C350.298 300.12 351.222 301.098 352.4 301.262C365.551 303.092 372.362 312.804 373.542 318.617C373.855 320.158 372.228 320.725 370.959 319.795C366.136 316.262 361.414 314.429 357.913 313.582C356.116 313.147 355.045 315.067 356.035 316.629C359.829 322.616 360.118 325.71 359.033 328.769C358.378 330.616 355.607 330.458 354.541 328.813C350.685 322.859 344.851 319.566 342.137 319.968C338.613 320.49 328.911 325.309 322.309 329.06C320.601 330.031 318.725 328.633 319.673 326.913C322.405 321.951 327.69 317.225 332.473 313.96C334.114 312.84 333.762 310.561 331.775 310.527C327.188 310.45 321.351 311.267 316.553 312.16C314.811 312.485 313.591 310.887 314.89 309.682Z" fill="#51CF66"/>
<path fill-rule="evenodd" clip-rule="evenodd" d="M314.888 309.682L310.638 305.099C314.174 301.821 319.309 299.564 323.855 298.023C327.417 296.815 331.092 295.893 334.305 295.247C334.467 292.722 334.325 290.496 333.922 287.966C333.019 282.297 336.71 276.388 342.97 275.484C348.322 274.712 353.609 278.118 354.795 283.661L348.683 284.969C348.212 282.768 346.09 281.348 343.863 281.67C341.34 282.034 339.693 284.466 340.094 286.983C340.737 291.023 340.811 294.518 340.202 298.965C340.067 299.951 339.278 300.709 338.296 300.87C334.166 301.545 328.55 302.847 323.593 304.763C321.894 305.419 320.273 306.148 318.816 306.947C317.755 307.53 316.78 308.15 315.926 308.808C315.557 309.092 315.209 309.384 314.888 309.682ZM320.545 311.481C319.363 311.662 318.203 311.858 317.093 312.06C316.91 312.093 316.73 312.127 316.55 312.16C314.809 312.484 313.589 310.887 314.888 309.682L310.638 305.099C309.437 306.213 308.419 307.811 308.157 309.812C307.895 311.815 308.467 313.676 309.476 315.103C311.453 317.898 314.799 318.843 317.694 318.304C317.869 318.272 318.045 318.239 318.222 318.207C316.678 319.996 315.293 321.905 314.196 323.897C313.348 325.436 312.924 327.324 313.306 329.298C313.684 331.248 314.765 332.836 316.131 333.91C318.856 336.051 322.522 336.126 325.394 334.494C328.574 332.687 332.508 330.62 336.038 328.957C337.805 328.124 339.411 327.422 340.734 326.91C341.395 326.654 341.943 326.462 342.377 326.329C342.473 326.299 342.56 326.274 342.638 326.252C343.041 326.395 343.667 326.692 344.446 327.21C346.033 328.266 347.842 329.969 349.293 332.21C351.101 335.001 354.124 336.307 356.841 336.349C359.671 336.393 363.467 334.958 364.921 330.858C365.681 328.715 366.049 326.393 365.694 323.753C366.213 324.09 366.737 324.451 367.264 324.837C369.315 326.339 372.325 327.111 375.234 325.906C376.746 325.279 378.165 324.109 379.03 322.389C379.892 320.674 379.971 318.884 379.664 317.374C378.102 309.675 370.351 298.883 356.415 295.654C356.199 291.479 355.694 287.863 354.795 283.661L348.683 284.969C349.717 289.8 350.181 293.719 350.274 298.93C350.295 300.119 351.219 301.098 352.397 301.262C361.241 302.492 367.218 307.288 370.543 312.065C370.999 312.719 371.404 313.373 371.761 314.017C372.314 315.017 372.749 315.994 373.067 316.914C373.273 317.509 373.43 318.079 373.539 318.617C373.852 320.158 372.225 320.724 370.957 319.795C370.719 319.621 370.482 319.451 370.245 319.285C369.338 318.65 368.436 318.074 367.548 317.553C367.074 317.275 366.605 317.013 366.14 316.765C364.834 316.07 363.566 315.49 362.362 315.011C362.195 314.944 362.03 314.88 361.865 314.817C361.203 314.565 360.562 314.343 359.946 314.149C359.231 313.924 358.55 313.736 357.91 313.582C356.113 313.147 355.043 315.067 356.032 316.629C356.325 317.091 356.598 317.536 356.85 317.966C357.218 318.592 357.544 319.185 357.83 319.748C357.889 319.863 357.945 319.977 358.001 320.089C358.965 322.054 359.436 323.649 359.551 325.061C359.552 325.073 359.553 325.085 359.554 325.097C359.566 325.25 359.574 325.4 359.578 325.549C359.607 326.7 359.397 327.736 359.031 328.769C358.376 330.615 355.604 330.457 354.539 328.813C350.682 322.859 344.849 319.566 342.134 319.968C339.549 320.351 333.641 323.045 328.07 325.935C327.244 326.363 326.426 326.796 325.627 327.226C324.695 327.727 323.79 328.225 322.93 328.708C322.719 328.826 322.511 328.944 322.306 329.06C320.598 330.031 318.722 328.633 319.67 326.912C319.895 326.504 320.136 326.098 320.394 325.694C320.921 324.867 321.513 324.05 322.156 323.247C322.798 322.446 323.491 321.66 324.22 320.895C325.585 319.462 327.077 318.103 328.6 316.856C328.903 316.608 329.207 316.365 329.512 316.126C330.244 315.552 330.978 315.006 331.705 314.492C331.962 314.31 332.217 314.133 332.47 313.96C334.112 312.839 333.759 310.561 331.773 310.527C331.241 310.518 330.694 310.521 330.132 310.535C329.288 310.556 328.413 310.601 327.52 310.666C327.089 310.697 326.654 310.733 326.217 310.773C325.852 310.807 325.485 310.843 325.117 310.882C323.594 311.043 322.051 311.25 320.545 311.481ZM342.341 326.164C342.341 326.164 342.352 326.166 342.376 326.171C342.353 326.168 342.341 326.165 342.341 326.164Z" fill="black"/>
<path d="M314.058 386.868C295.406 330.6 307.646 290.826 335.587 243.566C336.243 236.76 333.496 225.438 317.255 234.599C301.014 243.761 285.733 272.635 280.122 285.927L244.525 205.707L215.62 215.624L236.719 295.433C195.601 259.285 157.808 255.5 144.051 258.125L133.502 279.692C165.198 288.03 193.975 297.945 217.613 320.833C234.87 337.542 254.736 376.689 263.061 402.078C264.238 405.671 268.02 407.791 271.65 406.735L309.501 395.732C313.258 394.64 315.289 390.582 314.058 386.868Z" fill="#A9E34B"/>
<path fill-rule="evenodd" clip-rule="evenodd" d="M335.587 243.566C307.646 290.827 295.406 330.6 314.058 386.868C315.289 390.583 313.259 394.64 309.501 395.732L300.64 398.308C300.71 397.4 300.604 396.463 300.301 395.547C281.649 339.279 293.889 299.505 321.83 252.245C322.4 246.338 320.405 237.03 309.252 240.662C311.866 238.202 314.547 236.127 317.255 234.6C333.496 225.439 336.243 236.76 335.587 243.566ZM275.704 275.969L244.525 205.708L215.62 215.624L216.58 219.254L230.768 214.386L266.366 294.606C268.373 289.85 271.619 283.099 275.704 275.969ZM216.579 279.967L222.962 304.112C189.358 274.571 157.976 266.643 140.119 266.166L144.051 258.126C155.52 255.936 183.697 258.204 216.579 279.967Z" fill="#82C91E"/>
<path fill-rule="evenodd" clip-rule="evenodd" d="M340.969 246.746C341.435 245.957 341.722 245.076 341.81 244.165C342.024 241.94 341.974 239.28 341.385 236.641C340.804 234.042 339.589 230.993 337.093 228.591C331.325 223.04 322.962 224.204 314.186 229.155C304.683 234.516 296.121 245.122 289.473 255.294C286.015 260.585 282.918 266.006 280.325 270.97L250.239 203.171C248.925 200.209 245.564 198.743 242.498 199.795L213.594 209.711C210.494 210.775 208.742 214.052 209.58 217.22L225.853 278.776C189.425 252.568 156.964 249.297 142.881 251.985C140.949 252.354 139.303 253.611 138.439 255.378L127.89 276.945C127.067 278.627 127.042 280.59 127.821 282.293C128.601 283.996 130.103 285.259 131.914 285.735C163.434 294.027 190.855 303.62 213.268 325.322C221.202 333.005 230.121 346.296 238.195 361.18C246.212 375.958 253.098 391.746 257.124 404.025C259.294 410.645 266.359 414.782 273.397 412.736L271.652 406.734C268.022 407.79 264.24 405.67 263.063 402.077C254.738 376.688 234.872 337.541 217.615 320.832C195.515 299.434 168.924 289.374 139.654 281.342C137.617 280.783 135.566 280.234 133.504 279.691L144.053 258.124C156.88 255.676 190.602 258.802 228.433 288.536C231.176 290.692 233.941 292.988 236.721 295.432L215.622 215.623L244.527 205.706L280.124 285.926C281.038 283.761 282.208 281.183 283.597 278.344C290.738 263.752 303.661 242.268 317.257 234.598C333.498 225.437 336.245 236.759 335.589 243.565C307.648 290.825 295.408 330.599 314.06 386.867C315.291 390.581 313.26 394.639 309.503 395.731L271.652 406.734L273.397 412.736L311.248 401.732C318.55 399.609 322.291 391.835 319.992 384.9C310.956 357.64 309.49 334.699 313.498 312.972C317.527 291.129 327.16 270.103 340.969 246.746Z" fill="black"/>
<path fill-rule="evenodd" clip-rule="evenodd" d="M235.917 93.5588C231.326 97.2482 227.5 101.537 224.462 106.223C205.719 95.0802 181.259 96.0768 163.263 110.539C156.647 115.855 151.621 122.416 148.249 129.616C141.894 130.081 135.61 132.413 130.267 136.706C123.629 142.041 119.635 149.446 118.467 157.252C116.226 158.569 114.053 160.065 111.967 161.741C94.0715 176.122 87.8034 199.61 94.4668 220.228C71.5039 241.721 68.653 277.621 88.6787 302.541C109.682 328.677 147.896 332.838 174.032 311.835C192.158 297.269 199.714 274.425 195.638 253.073C217.423 278.646 255.744 282.394 282.101 261.213C288.291 256.239 293.281 250.324 297.029 243.838C316.438 251.638 339.039 250.017 357.478 238.175C367.982 238.245 378.577 234.835 387.403 227.742C407.771 211.374 411.014 181.595 394.646 161.227C390.132 155.61 384.597 151.295 378.521 148.335C376.993 145.799 375.277 143.336 373.371 140.964C359.875 124.17 339.861 115.697 319.866 116.258C317.914 111.161 315.147 106.277 311.544 101.794C292.934 78.6359 259.075 74.949 235.917 93.5588Z" fill="#69DB7C"/>
<path fill-rule="evenodd" clip-rule="evenodd" d="M75.908 273.204C78.0801 278.557 81.0592 283.688 84.8641 288.423C105.867 314.559 144.081 318.72 170.217 297.717C188.343 283.151 195.9 260.308 191.824 238.956C213.608 264.528 251.93 268.276 278.286 247.096C284.477 242.121 289.466 236.206 293.215 229.72C312.624 237.52 335.224 235.899 353.663 224.057C364.168 224.128 374.762 220.718 383.589 213.624C396.656 203.124 402.674 187.102 400.988 171.588C409.545 190.743 404.525 213.98 387.403 227.738C378.577 234.832 367.982 238.242 357.478 238.171C339.039 250.013 316.438 251.634 297.029 243.834C293.281 250.32 288.291 256.236 282.101 261.21C255.744 282.391 217.423 278.643 195.638 253.07C199.714 274.422 192.158 297.265 174.032 311.831C147.896 332.834 109.682 328.673 88.6785 302.537C81.6195 293.753 77.403 283.605 75.908 273.204Z" fill="#40C057"/>
<path fill-rule="evenodd" clip-rule="evenodd" d="M222.577 98.154C202.468 88.6876 177.854 90.7974 159.349 105.668C152.948 110.812 147.871 117.011 144.179 123.819C137.852 124.885 131.701 127.538 126.353 131.835C119.282 137.518 114.724 145.184 112.843 153.39C111.206 154.461 109.608 155.621 108.054 156.87C89.1503 172.06 81.8793 196.345 87.4426 218.398C64.6655 242.327 62.5473 279.999 83.8084 306.456C106.974 335.283 149.122 339.872 177.948 316.707C193.365 304.318 201.844 286.502 202.862 268.208C227.272 285.886 261.391 285.876 286.017 266.086C291.379 261.777 295.927 256.82 299.635 251.416C319.134 257.654 340.964 255.538 359.302 244.405C370.576 244.089 381.853 240.221 391.32 232.614C414.378 214.084 418.049 180.371 399.519 157.313C394.827 151.474 389.151 146.871 382.914 143.559C381.493 141.329 379.937 139.155 378.244 137.05C364.442 119.874 344.406 110.655 324 110.018C322.006 105.769 319.48 101.691 316.417 97.8793C295.645 72.0309 257.852 67.9156 232.004 88.6875C228.451 91.5423 225.305 94.723 222.577 98.154ZM319.867 116.259C339.862 115.697 359.876 124.17 373.373 140.965C375.279 143.336 376.995 145.799 378.522 148.335C384.599 151.295 390.133 155.61 394.648 161.228C411.015 181.595 407.772 211.375 387.405 227.742C378.578 234.835 367.984 238.246 357.479 238.175C339.04 250.017 316.44 251.638 297.031 243.838C293.282 250.324 288.293 256.239 282.102 261.214C258.449 280.222 225.159 279.153 202.833 260.25C200.282 258.089 197.874 255.696 195.64 253.073C196.278 256.416 196.631 259.796 196.703 263.174C197.091 281.375 189.321 299.549 174.033 311.835C147.897 332.838 109.683 328.677 88.6801 302.541C68.6544 277.621 71.5052 241.722 94.4682 220.229C87.8047 199.61 94.0729 176.122 111.969 161.741C114.055 160.065 116.228 158.569 118.468 157.253C119.636 149.446 123.63 142.041 130.268 136.707C135.611 132.413 141.895 130.081 148.251 129.616C151.622 122.416 156.649 115.855 163.264 110.539C181.261 96.0772 205.72 95.0806 224.463 106.223C227.502 101.537 231.327 97.2486 235.918 93.5592C259.076 74.9494 292.936 78.6364 311.546 101.794C315.148 106.277 317.915 111.162 319.867 116.259Z" fill="black"/>
<path d="M156.133 117.529C148.078 127.522 137.364 153.313 158.938 176.532" stroke="#40C057" stroke-width="3.12491" stroke-linecap="round" stroke-linejoin="round"/>
<path d="M262.776 239.574C272.784 235.762 291.357 221.688 285.581 195.88" stroke="#40C057" stroke-width="3.12491" stroke-linecap="round" stroke-linejoin="round"/>
<path d="M137.521 229.895C142.171 227.633 153.585 224.988 162.047 232.501C164.088 228.859 170.541 224.143 180.033 234.412" stroke="#40C057" stroke-width="3.12491" stroke-linecap="round" stroke-linejoin="round"/>
<path d="M281.44 402.224C278.622 390.979 271.189 365.755 264.005 354.812" stroke="#82C91E" stroke-width="3.12491" stroke-linecap="round" stroke-linejoin="round"/>
<path d="M289.429 138.554C284.698 136.398 276.07 139.78 274.959 150.245C272.036 146.627 261.878 148.855 259.374 156.857" stroke="#40C057" stroke-width="3.12491" stroke-linecap="round" stroke-linejoin="round"/>
<mask id="path-28-outside-1_39_890" maskUnits="userSpaceOnUse" x="271.679" y="308.133" width="195" height="135" fill="black">
<rect fill="white" x="271.679" y="308.133" width="195" height="135"/>
<path fill-rule="evenodd" clip-rule="evenodd" d="M435.844 315.67C440.542 317.515 444.687 321.987 441.773 332.559C450.461 329.879 455.464 332.278 458.169 337.166C461.167 342.586 459.307 348.798 447.452 353.86C447.335 353.91 447.219 353.959 447.102 354.006C447.625 354.259 448.137 354.536 448.634 354.839C458.324 360.759 460.277 367.946 457.362 372.482C454.448 377.018 448.718 380.348 437.573 373.871C434.513 372.092 432.09 369.724 430.186 367.225C433.094 378.834 430.779 391.097 417.243 399.154C398.629 410.233 288.028 448.352 279.258 432.498C270.487 416.644 364.009 348.372 383.473 338.108C401.274 328.72 414.392 338.373 422.795 351.069C421.158 347.287 417.07 336.353 420.25 327.682C424.16 317.021 430.825 313.7 435.844 315.67Z"/>
</mask>
<path fill-rule="evenodd" clip-rule="evenodd" d="M435.844 315.67C440.542 317.515 444.687 321.987 441.773 332.559C450.461 329.879 455.464 332.278 458.169 337.166C461.167 342.586 459.307 348.798 447.452 353.86C447.335 353.91 447.219 353.959 447.102 354.006C447.625 354.259 448.137 354.536 448.634 354.839C458.324 360.759 460.277 367.946 457.362 372.482C454.448 377.018 448.718 380.348 437.573 373.871C434.513 372.092 432.09 369.724 430.186 367.225C433.094 378.834 430.779 391.097 417.243 399.154C398.629 410.233 288.028 448.352 279.258 432.498C270.487 416.644 364.009 348.372 383.473 338.108C401.274 328.72 414.392 338.373 422.795 351.069C421.158 347.287 417.07 336.353 420.25 327.682C424.16 317.021 430.825 313.7 435.844 315.67Z" fill="#51CF66"/>
<path d="M378.564 340.813C377.729 339.303 375.827 338.756 374.317 339.591C372.807 340.426 372.26 342.328 373.095 343.838L378.564 340.813ZM373.234 344.088C374.069 345.598 375.97 346.145 377.481 345.31C378.991 344.474 379.538 342.573 378.702 341.063L373.234 344.088ZM355.219 356.608C354.383 355.098 352.482 354.551 350.971 355.386C349.461 356.222 348.914 358.123 349.75 359.633L355.219 356.608ZM349.995 360.076C350.83 361.586 352.732 362.133 354.242 361.298C355.752 360.462 356.299 358.561 355.463 357.051L349.995 360.076ZM408.093 403.32C407.257 401.81 405.356 401.263 403.846 402.098C402.336 402.933 401.789 404.835 402.624 406.345L408.093 403.32ZM403.011 407.045C403.847 408.556 405.748 409.102 407.258 408.267C408.769 407.432 409.316 405.53 408.48 404.02L403.011 407.045ZM373.095 343.838L373.234 344.088L378.702 341.063L378.564 340.813L373.095 343.838ZM349.75 359.633L349.995 360.076L355.463 357.051L355.219 356.608L349.75 359.633ZM402.624 406.345L403.011 407.045L408.48 404.02L408.093 403.32L402.624 406.345ZM441.773 332.559L435.748 330.899C435.141 333.099 435.783 335.456 437.421 337.045C439.059 338.635 441.434 339.204 443.615 338.532L441.773 332.559ZM435.844 315.67L433.56 321.488L433.56 321.488L435.844 315.67ZM458.169 337.166L452.7 340.191L452.7 340.191L458.169 337.166ZM447.452 353.86L444.997 348.113L444.997 348.113L447.452 353.86ZM447.102 354.006L444.744 348.218C442.457 349.15 440.933 351.342 440.856 353.811C440.778 356.279 442.162 358.562 444.387 359.635L447.102 354.006ZM448.634 354.839L451.892 349.506L451.892 349.506L448.634 354.839ZM457.362 372.482L452.104 369.104L452.104 369.104L457.362 372.482ZM437.573 373.871L440.713 368.467L440.713 368.467L437.573 373.871ZM430.186 367.225L435.158 363.438C433.36 361.078 430.152 360.307 427.478 361.593C424.805 362.878 423.403 365.866 424.124 368.744L430.186 367.225ZM417.243 399.154L414.047 393.783L414.047 393.783L417.243 399.154ZM279.258 432.498L273.789 435.523L279.258 432.498ZM383.473 338.108L380.557 332.58L380.557 332.58L383.473 338.108ZM422.795 351.069L417.584 354.519C419.371 357.219 422.926 358.107 425.774 356.564C428.621 355.02 429.818 351.557 428.53 348.585L422.795 351.069ZM420.25 327.682L414.382 325.531L414.382 325.531L420.25 327.682ZM447.798 334.22C449.502 328.038 449.418 322.633 447.316 318.176C445.187 313.663 441.489 311.172 438.127 309.853L433.56 321.488C434.897 322.013 435.62 322.681 436.01 323.508C436.427 324.391 436.958 326.509 435.748 330.899L447.798 334.22ZM463.637 334.14C461.668 330.582 458.601 327.539 454.159 326.085C449.858 324.677 445.038 325.012 439.931 326.587L443.615 338.532C447.196 337.427 449.222 337.621 450.27 337.964C451.177 338.261 451.964 338.862 452.7 340.191L463.637 334.14ZM449.906 359.608C456.387 356.84 461.31 353.296 463.859 348.655C466.647 343.576 465.974 338.364 463.637 334.14L452.7 340.191C453.361 341.387 453.257 341.992 452.902 342.639C452.306 343.725 450.371 345.818 444.997 348.113L449.906 359.608ZM449.461 359.794C449.609 359.733 449.758 359.671 449.906 359.608L444.997 348.113C444.913 348.149 444.829 348.184 444.744 348.218L449.461 359.794ZM444.387 359.635C444.733 359.802 445.063 359.982 445.375 360.172L451.892 349.506C451.21 349.09 450.517 348.715 449.818 348.377L444.387 359.635ZM445.375 360.172C449.485 362.683 451.307 365.078 451.984 366.649C452.608 368.101 452.296 368.806 452.104 369.104L462.621 375.86C465.343 371.622 465.512 366.466 463.466 361.71C461.472 357.074 457.472 352.915 451.892 349.506L445.375 360.172ZM452.104 369.104C451.283 370.382 450.438 370.972 449.418 371.161C448.242 371.378 445.573 371.291 440.713 368.467L434.433 379.274C440.718 382.927 446.486 384.414 451.69 383.452C457.051 382.461 460.527 379.119 462.621 375.86L452.104 369.104ZM440.713 368.467C438.503 367.183 436.672 365.425 435.158 363.438L425.215 371.013C427.509 374.023 430.522 377.001 434.433 379.274L440.713 368.467ZM420.44 404.524C428.346 399.818 433.352 393.618 435.789 386.561C438.189 379.608 437.915 372.358 436.249 365.707L424.124 368.744C425.366 373.701 425.387 378.387 423.974 382.482C422.595 386.473 419.676 390.432 414.047 393.783L420.44 404.524ZM273.789 435.523C276.484 440.395 282.081 441.798 286.22 442.279C290.858 442.819 296.552 442.517 302.691 441.734C315.053 440.157 330.638 436.431 346.286 431.932C361.986 427.419 377.982 422.06 391.243 417.125C404.327 412.255 415.235 407.622 420.44 404.524L414.047 393.783C409.944 396.225 400.047 400.511 386.884 405.41C373.898 410.243 358.205 415.5 342.832 419.919C327.407 424.354 312.534 427.877 301.109 429.335C295.356 430.069 290.824 430.231 287.663 429.863C284.002 429.438 284.224 428.564 284.726 429.473L273.789 435.523ZM380.557 332.58C370.252 338.014 341.614 357.974 316.807 378.38C304.366 388.614 292.599 399.195 284.44 408.345C280.39 412.887 276.977 417.352 274.865 421.446C272.973 425.114 271.048 430.569 273.789 435.523L284.726 429.473C285.275 430.464 284.354 430.316 285.974 427.176C287.374 424.462 289.98 420.913 293.769 416.664C301.287 408.233 312.471 398.132 324.748 388.033C349.375 367.774 377.229 348.466 386.388 343.636L380.557 332.58ZM428.007 347.619C423.457 340.745 417.239 334.064 409.133 330.568C400.7 326.932 390.989 327.079 380.557 332.58L386.388 343.636C393.757 339.75 399.505 340.029 404.183 342.046C409.187 344.204 413.731 348.698 417.584 354.519L428.007 347.619ZM414.382 325.531C412.233 331.391 412.651 337.591 413.58 342.395C414.526 347.293 416.141 351.43 417.06 353.553L428.53 348.585C427.812 346.927 426.564 343.706 425.852 340.023C425.122 336.247 425.087 332.645 426.117 329.834L414.382 325.531ZM438.127 309.853C433.438 308.012 428.349 308.856 424.085 311.792C419.93 314.655 416.634 319.391 414.382 325.531L426.117 329.834C427.776 325.312 429.767 323.057 431.176 322.086C432.477 321.19 433.23 321.358 433.56 321.488L438.127 309.853Z" fill="black" mask="url(#path-28-outside-1_39_890)"/>
<path d="M417.246 399.157C435.86 388.078 433.254 369.045 425.029 354.695C416.803 340.346 402.938 327.847 383.475 338.111C364.012 348.376 270.49 416.647 279.26 432.501C288.031 448.355 398.632 410.236 417.246 399.157Z" fill="#FF922B"/>
<path fill-rule="evenodd" clip-rule="evenodd" d="M428.422 361.74C427.352 369.022 423.282 375.853 414.667 380.981C398.426 390.648 312.155 420.9 284.598 417.925C279.762 424.248 277.537 429.386 279.26 432.501C288.031 448.355 398.632 410.236 417.246 399.157C432.942 389.814 433.55 374.816 428.422 361.74Z" fill="#FD7E14"/>
<path d="M441.08 334.808C436.909 347.005 423.421 352.431 423.421 352.431C423.421 352.431 416.342 338.346 420.252 327.685C424.162 317.023 430.827 313.702 435.846 315.673C440.865 317.643 445.251 322.611 441.08 334.808Z" fill="#51CF66"/>
<path d="M447.455 353.863C435.6 358.925 422.542 352.534 422.542 352.534C422.542 352.534 428.271 337.849 438.81 333.619C449.349 329.39 455.173 331.749 458.171 337.168C461.17 342.588 459.309 348.8 447.455 353.863Z" fill="#51CF66"/>
<path d="M437.576 373.873C426.431 367.396 423.748 353.107 423.748 353.107C423.748 353.107 438.946 348.921 448.636 354.841C458.327 360.762 460.279 367.948 457.365 372.484C454.451 377.021 448.721 380.35 437.576 373.873Z" fill="#51CF66"/>
<path d="M134.971 345.798C125.19 355.142 115.43 371.428 118.813 395.711C120.929 410.896 127.192 418.488 134.628 421.476C141.758 424.34 149.017 422.561 152.537 421.087C154.348 420.33 158.809 417.848 164.331 414.512C169.942 411.121 176.865 406.714 183.702 401.98C190.525 397.256 197.326 392.161 202.657 387.398C205.321 385.019 207.674 382.671 209.492 380.452C211.262 378.291 212.74 375.994 213.32 373.722C214.502 369.089 212.323 364.415 209.375 360.505C206.336 356.473 201.94 352.523 197.242 349.04C192.521 345.541 187.359 342.413 182.673 340.057C178.074 337.745 173.639 336.026 170.439 335.589C164.443 334.77 156.781 336.135 150.271 338.142C146.967 339.161 143.839 340.381 141.227 341.661C138.728 342.885 136.43 344.292 134.971 345.798Z" fill="#FFC078" stroke="black" stroke-width="6.24982"/>
<path d="M202.815 375.817C201.61 374.933 200.208 374.666 199.002 374.631C197.776 374.595 196.476 374.791 195.196 375.101C192.633 375.721 189.675 376.916 186.652 378.386C180.579 381.341 173.733 385.661 168.323 389.693C163.507 393.281 157.786 398.301 153.52 402.779C151.403 405.001 149.534 407.204 148.322 409.102C147.729 410.031 147.172 411.072 146.89 412.124C146.629 413.098 146.408 414.903 147.735 416.392C148.966 417.774 150.667 418.005 151.779 418.003C152.97 418 154.245 417.735 155.457 417.382C157.907 416.669 160.807 415.382 163.664 413.927C169.397 411.007 175.549 407.1 178.698 404.689C179.505 404.071 180.732 403.18 182.214 402.104C185.774 399.518 190.805 395.864 195.017 392.363C198.009 389.876 200.867 387.246 202.658 384.888C203.527 383.746 204.387 382.361 204.692 380.874C204.855 380.083 204.885 379.144 204.562 378.178C204.229 377.182 203.597 376.391 202.815 375.817Z" fill="#FF922B" stroke="black" stroke-width="6.24982"/>
<path d="M133.848 363.56C133.634 364.99 133.274 368.237 133.544 369.782" stroke="black" stroke-width="6.24982" stroke-linecap="round"/>
<path d="M141.325 358.291C141.859 360.487 142.979 362.976 143.557 364.049" stroke="black" stroke-width="6.24982" stroke-linecap="round"/>
<path d="M147.729 353.025C149.955 352.842 152.951 353.474 154.641 354.341" stroke="black" stroke-width="6.24982" stroke-linecap="round"/>
<path d="M154.144 346.65C155.952 346.266 158.863 346.28 159.871 346.713" stroke="black" stroke-width="6.24982" stroke-linecap="round"/>
<path d="M165.259 393.231C163.773 394.911 164.135 397.015 164.423 398.077C164.761 399.329 165.414 400.673 166.141 401.965C167.612 404.579 169.845 407.768 172.088 410.961C172.163 411.068 172.239 411.175 172.314 411.283C174.533 414.44 176.79 417.653 178.612 420.639C180.552 423.82 181.738 426.34 182.029 428.024C183.073 434.064 185.048 439.326 188.452 442.639C190.206 444.345 192.327 445.519 194.791 445.966C197.232 446.408 199.811 446.104 202.464 445.178C207.955 443.26 211.03 439.535 211.934 434.93C212.784 430.594 211.632 425.9 209.767 421.799C208.92 419.937 206.956 416.849 204.582 413.421C202.154 409.914 199.144 405.832 196.059 401.895C192.979 397.964 189.791 394.134 187.01 391.148C185.623 389.659 184.298 388.337 183.111 387.307C182.023 386.363 180.731 385.374 179.449 384.931L178.428 387.884L179.449 384.931C178.407 384.571 177.434 384.767 176.989 384.875C176.426 385.012 175.87 385.23 175.368 385.459C174.352 385.923 173.208 386.597 172.069 387.365C169.794 388.898 167.2 391.034 165.259 393.231Z" fill="#F0D6B9" stroke="black" stroke-width="6.24982"/>
<path d="M240.073 372.989C248.682 376.28 259.072 383.937 263.33 399.974C265.993 410.004 264.134 416.673 260.014 420.748C256.129 424.591 250.928 425.401 248.259 425.405C246.869 425.407 243.436 425.024 239.233 424.408C234.928 423.776 229.558 422.861 224.156 421.722C218.769 420.587 213.272 419.214 208.745 417.657C206.484 416.88 204.393 416.032 202.65 415.11C200.975 414.223 199.321 413.115 198.244 411.693C196.037 408.775 196.264 404.954 197.081 401.73C197.934 398.358 199.656 394.727 201.653 391.356C203.665 387.961 206.045 384.683 208.335 382.003C210.562 379.397 212.917 377.102 214.911 375.923C218.551 373.772 223.749 372.621 228.289 372.171C230.609 371.94 232.883 371.881 234.866 371.995C236.726 372.102 238.627 372.376 240.073 372.989Z" fill="#FFC078" stroke="black" stroke-width="6.24982"/>
<path d="M205.12 409.095C205.751 408.042 206.709 407.386 207.485 406.973C208.306 406.538 209.238 406.21 210.181 405.957C212.072 405.449 214.381 405.139 216.796 404.998C221.617 404.715 227.367 405.073 231.967 406.211C236.119 407.238 240.807 409.462 244.354 411.673C246.128 412.779 247.751 413.964 248.927 415.097C249.503 415.653 250.094 416.311 250.52 417.044C250.887 417.673 251.522 419.03 250.985 420.598C250.443 422.181 249.124 422.921 248.34 423.249C247.482 423.608 246.525 423.788 245.653 423.888C243.879 424.092 241.706 424.046 239.568 423.889C235.273 423.574 230.459 422.761 227.851 422.079C227.24 421.92 226.296 421.698 225.143 421.428C222.306 420.763 218.207 419.802 214.71 418.737C212.239 417.985 209.726 417.086 207.919 416.044C207.055 415.546 206.009 414.826 205.306 413.8C204.927 413.247 204.581 412.506 204.513 411.605C204.442 410.672 204.69 409.812 205.12 409.095Z" fill="#FFA94D" stroke="black" stroke-width="6.24982"/>
<path d="M235.055 407.121C236.906 408.012 237.291 409.886 237.396 410.673C237.528 411.654 237.462 412.744 237.347 413.744C237.114 415.777 236.556 418.35 236.011 420.853C235.993 420.932 235.976 421.012 235.959 421.091C235.413 423.596 234.867 426.102 234.527 428.354C234.16 430.784 234.117 432.446 234.321 433.332C235.25 437.358 235.45 441.337 234.094 444.535C233.388 446.199 232.266 447.63 230.686 448.659C229.127 449.675 227.29 450.19 225.297 450.314C223.185 450.445 221.291 450.036 219.668 449.111C218.063 448.197 216.917 446.888 216.1 445.511C214.524 442.852 213.995 439.616 213.75 437.267C213.575 435.593 213.952 433.051 214.45 430.555C214.978 427.905 215.748 424.822 216.607 421.82C217.466 418.819 218.429 415.845 219.354 413.42C219.815 412.211 220.282 411.097 220.737 410.169C221.152 409.321 221.686 408.35 222.343 407.647C224.261 405.595 226.873 405.204 228.997 405.366C231.138 405.528 233.287 406.269 235.055 407.121Z" fill="#F0D6B9" stroke="black" stroke-width="6.24982"/>
<path opacity="0.7" d="M376.735 349.955C381.062 352.732 390.87 361.621 395.485 374.954" stroke="#FFC288" stroke-width="6.24982" stroke-linecap="round" stroke-linejoin="round"/>
<path opacity="0.7" d="M357.986 362.454C363.034 364.885 374.475 372.662 379.86 384.328" stroke="#FFC288" stroke-width="6.24982" stroke-linecap="round" stroke-linejoin="round"/>
<path opacity="0.7" d="M339.236 374.954C344.35 377.992 352.531 382.245 357.986 396.828" stroke="#FFC288" stroke-width="6.24982" stroke-linecap="round" stroke-linejoin="round"/>
<defs>
<filter id="filter0_i_39_890" x="299.83" y="302.684" width="86.6521" height="76.085" filterUnits="userSpaceOnUse" color-interpolation-filters="sRGB">
<feFlood flood-opacity="0" result="BackgroundImageFix"/>
<feBlend mode="normal" in="SourceGraphic" in2="BackgroundImageFix" result="shape"/>
<feColorMatrix in="SourceAlpha" type="matrix" values="0 0 0 0 0 0 0 0 0 0 0 0 0 0 0 0 0 0 127 0" result="hardAlpha"/>
<feOffset dx="-14.4094" dy="-2.05848"/>
<feComposite in2="hardAlpha" operator="arithmetic" k2="-1" k3="1"/>
<feColorMatrix type="matrix" values="0 0 0 0 0.980392 0 0 0 0 0.321569 0 0 0 0 0.321569 0 0 0 1 0"/>
<feBlend mode="normal" in2="shape" result="effect1_innerShadow_39_890"/>
</filter>
<filter id="filter1_i_39_890" x="314.346" y="281.625" width="59.2341" height="48.4756" filterUnits="userSpaceOnUse" color-interpolation-filters="sRGB">
<feFlood flood-opacity="0" result="BackgroundImageFix"/>
<feBlend mode="normal" in="SourceGraphic" in2="BackgroundImageFix" result="shape"/>
<feColorMatrix in="SourceAlpha" type="matrix" values="0 0 0 0 0 0 0 0 0 0 0 0 0 0 0 0 0 0 127 0" result="hardAlpha"/>
<feOffset dy="-3.12491"/>
<feComposite in2="hardAlpha" operator="arithmetic" k2="-1" k3="1"/>
<feColorMatrix type="matrix" values="0 0 0 0 0.215686 0 0 0 0 0.698039 0 0 0 0 0.301961 0 0 0 1 0"/>
<feBlend mode="normal" in2="shape" result="effect1_innerShadow_39_890"/>
</filter>
<filter id="filter2_i_39_890" x="296.705" y="299.56" width="92.9021" height="82.3347" filterUnits="userSpaceOnUse" color-interpolation-filters="sRGB">
<feFlood flood-opacity="0" result="BackgroundImageFix"/>
<feBlend mode="normal" in="SourceGraphic" in2="BackgroundImageFix" result="shape"/>
<feColorMatrix in="SourceAlpha" type="matrix" values="0 0 0 0 0 0 0 0 0 0 0 0 0 0 0 0 0 0 127 0" result="hardAlpha"/>
<feOffset dx="-14.4094" dy="-2.05848"/>
<feComposite in2="hardAlpha" operator="arithmetic" k2="-1" k3="1"/>
<feColorMatrix type="matrix" values="0 0 0 0 0.980392 0 0 0 0 0.321569 0 0 0 0 0.321569 0 0 0 1 0"/>
<feBlend mode="normal" in2="shape" result="effect1_innerShadow_39_890"/>
</filter>
</defs>
</svg>
