<svg width="56" height="56" viewBox="0 0 56 56" fill="none" xmlns="http://www.w3.org/2000/svg">
<path d="M41 32C39.8778 36.968 38.968 37.8778 34 39C38.968 40.1222 39.8778 41.032 41 46C42.1222 41.032 43.032 40.1222 48 39C43.032 37.8778 42.1222 36.968 41 32Z" fill="#F1501A"/>
<path fill-rule="evenodd" clip-rule="evenodd" d="M17 17C14.7909 17 13 18.7909 13 21V35C13 37.2091 14.7909 39 17 39H29.8461C30.9507 39 31.8256 37.9371 32.7098 37.2751C32.9465 37.0979 33.2224 36.9675 33.5254 36.8991C36.0467 36.3296 36.9226 35.9158 37.4192 35.4192C37.9157 34.9226 38.3295 34.0467 38.8991 31.5254C39.1209 30.5435 39.9933 29.8462 41 29.8462V29.8462C41.5429 29.8462 43 29.1792 43 28.6363V21C43 18.7909 41.2091 17 39 17H17Z" fill="#FF764D" fill-opacity="0.14"/>
<path fill-rule="evenodd" clip-rule="evenodd" d="M17 11.685C11.8555 11.685 7.685 15.8555 7.685 21V35C7.685 40.1445 11.8555 44.315 17 44.315H38.3278C38.0175 43.3661 37.7351 42.8967 37.4191 42.5808C37.1076 42.2693 36.6467 41.9903 35.7239 41.685H17C13.308 41.685 10.315 38.692 10.315 35V21C10.315 17.308 13.308 14.315 17 14.315H39C42.692 14.315 45.685 17.308 45.685 21V35C45.685 35.3617 45.6563 35.7166 45.601 36.0627C46.1524 36.2993 46.9441 36.5421 48.137 36.8215C48.2538 36.2324 48.315 35.6234 48.315 35V21C48.315 15.8555 44.1445 11.685 39 11.685H17Z" fill="#F1501A"/>
</svg>
