<svg width="56" height="56" viewBox="0 0 56 56" fill="none" xmlns="http://www.w3.org/2000/svg">
<path d="M14.2218 35.8295C13.1929 35.8295 12.4876 35.1358 12.4876 34.0837V22.1407H12.4183L9.97879 23.8403C9.65507 24.0715 9.41228 24.1524 9.05388 24.1524C8.34863 24.1524 7.82837 23.6437 7.82837 22.9038C7.82837 22.372 8.03647 21.9789 8.57986 21.5974L11.8864 19.3082C12.6957 18.7533 13.2507 18.6492 13.9675 18.6492C15.2046 18.6492 15.9445 19.4007 15.9445 20.6031V34.0837C15.9445 35.1358 15.2508 35.8295 14.2218 35.8295Z" fill="#F1501A"/>
<path d="M21.5171 35.7254C20.4766 35.7254 19.6557 34.893 19.6557 33.864C19.6557 32.8235 20.4766 32.0026 21.5171 32.0026C22.546 32.0026 23.3785 32.8235 23.3785 33.864C23.3785 34.893 22.546 35.7254 21.5171 35.7254Z" fill="#F1501A"/>
<path fill-rule="evenodd" clip-rule="evenodd" d="M28.2893 21.4793C28.2893 20.7528 28.8782 20.1638 29.6047 20.1638H48.0208C48.7473 20.1638 49.3362 20.7528 49.3362 21.4793C49.3362 22.2058 48.7473 22.7947 48.0208 22.7947H29.6047C28.8782 22.7947 28.2893 22.2058 28.2893 21.4793ZM28.2893 27.7933C28.2893 27.0668 28.8782 26.4779 29.6047 26.4779H48.0208C48.7473 26.4779 49.3362 27.0668 49.3362 27.7933C49.3362 28.5198 48.7473 29.1088 48.0208 29.1088H29.6047C28.8782 29.1088 28.2893 28.5198 28.2893 27.7933ZM29.6047 32.792C28.8782 32.792 28.2893 33.3809 28.2893 34.1074C28.2893 34.8339 28.8782 35.4228 29.6047 35.4228H41.5752C42.3017 35.4228 42.8906 34.8339 42.8906 34.1074C42.8906 33.3809 42.3017 32.792 41.5752 32.792H29.6047Z" fill="#FF764D" fill-opacity="0.3"/>
</svg>
