<svg width="56" height="56" viewBox="0 0 56 56" fill="none" xmlns="http://www.w3.org/2000/svg">
<rect x="8" y="13" width="21" height="15" rx="2" fill="#FF764D" fill-opacity="0.18"/>
<path fill-rule="evenodd" clip-rule="evenodd" d="M12.39 33C12.39 31.5585 13.5586 30.39 15 30.39H27C28.4415 30.39 29.61 31.5585 29.61 33V40C29.61 41.4415 28.4415 42.61 27 42.61H15C13.5586 42.61 12.39 41.4415 12.39 40V33ZM15 31.61C14.2323 31.61 13.61 32.2323 13.61 33V40C13.61 40.7677 14.2323 41.39 15 41.39H27C27.7677 41.39 28.39 40.7677 28.39 40V33C28.39 32.2323 27.7677 31.61 27 31.61H15Z" fill="#F1501A"/>
<path fill-rule="evenodd" clip-rule="evenodd" d="M31.685 19C31.685 17.1692 33.1692 15.685 35 15.685H44C45.8308 15.685 47.315 17.1692 47.315 19V37C47.315 38.8308 45.8308 40.315 44 40.315H35C33.1692 40.315 31.685 38.8308 31.685 37V19ZM35 18.315C34.6217 18.315 34.315 18.6217 34.315 19V37C34.315 37.3783 34.6217 37.685 35 37.685H44C44.3783 37.685 44.685 37.3783 44.685 37V19C44.685 18.6217 44.3783 18.315 44 18.315H35Z" fill="#F1501A"/>
</svg>
