<svg width="56" height="56" viewBox="0 0 56 56" fill="none" xmlns="http://www.w3.org/2000/svg">
<path d="M21.6609 14.994C21.6948 15.1188 21.8376 15.1765 21.951 15.1143C24.0434 13.9673 26.4456 13.315 29.0001 13.315C35.8461 13.315 41.601 18.0009 43.2262 24.3423C43.5529 25.617 43.51 26.1304 43.0702 26.5702C42.562 27.0783 39.0816 30.6831 35.6083 34.2804L35.554 34.3366C32.0452 37.9707 28.5594 41.581 28.0702 42.0702C27.9217 42.2186 27.6083 42.3705 27.042 42.4086C26.4947 42.4454 25.8722 42.3625 25.3278 42.2224C18.9938 40.5922 14.3151 34.8408 14.3151 28C14.3151 26.7286 14.6339 25.3649 14.9525 24.1761C14.9815 24.0678 14.9492 23.951 14.8601 23.883C14.2783 23.439 13.4225 23.2655 12.5367 23.1718C12.4412 23.1617 12.3524 23.2219 12.3265 23.3144C11.9086 24.8047 11.6851 26.3762 11.6851 28C11.6851 36.0699 17.2045 42.8473 24.6723 44.7694C25.4064 44.9584 26.3182 45.0932 27.2185 45.0326C28.0998 44.9733 29.1471 44.7127 29.9299 43.9298C30.438 43.4218 33.9171 39.8184 37.3896 36.2219L37.4461 36.1634C40.9549 32.5293 44.4407 28.919 44.9299 28.4298C46.4902 26.8696 46.1001 24.9621 45.7739 23.6894C43.8578 16.2129 37.0761 10.685 29.0001 10.685C26.254 10.685 23.6573 11.3242 21.3506 12.462C21.2344 12.5193 21.1697 12.6459 21.1905 12.7738C21.3158 13.544 21.4745 14.3095 21.6609 14.994Z" fill="#F1501A"/>
<path d="M30.9999 27.5C26.0941 28.8379 24.3709 32.9604 26.5394 40.5769C26.9354 41.9679 28.6682 42.3672 29.7065 41.3604L43.8588 27.637C43.9481 27.5503 43.9935 27.428 43.9822 27.3041C43.9362 26.7979 42.7167 26.4865 42.2575 26.7043C39.7335 27.9019 34.612 26.5149 30.9999 27.5Z" fill="#FF764D" fill-opacity="0.14"/>
<path fill-rule="evenodd" clip-rule="evenodd" d="M35.5398 27.7426C33.9581 27.7037 32.4425 27.7389 31.1605 28.0885C29.8614 28.4428 28.8342 28.9938 28.0639 29.7361C27.2967 30.4754 26.7566 31.4309 26.4685 32.6413C25.8856 35.0893 26.3357 38.575 28.0725 43.2891L26.9277 43.7109C25.1645 38.925 24.6145 35.1607 25.2816 32.3587C25.6184 30.9441 26.2658 29.7746 27.2174 28.8576C28.1658 27.9437 29.3886 27.3072 30.8395 26.9115C32.3077 26.5111 33.9795 26.4838 35.5698 26.523C36.0118 26.5339 36.4455 26.5497 36.8691 26.5651C38.0058 26.6066 39.069 26.6453 40.0202 26.579C41.339 26.487 42.2198 26.2003 42.6967 25.6315C43.1545 25.0855 43.3926 24.0851 42.9083 22.1479L44.0919 21.8521C44.6076 23.9149 44.4707 25.4145 43.6316 26.4153C42.8116 27.3934 41.4737 27.7005 40.1051 27.796C39.084 27.8673 37.9223 27.8248 36.7625 27.7825C36.3526 27.7675 35.9429 27.7526 35.5398 27.7426Z" fill="#F1501A"/>
<path d="M17.1246 15.4884C16.9312 16.1972 16.6952 16.7794 16.4178 17.236C16.1284 17.7123 15.7474 18.0939 15.2749 18.3811C14.9361 18.587 14.5276 18.7649 14.0497 18.9148C13.8614 18.9739 13.662 19.0289 13.4521 19.0792C12.71 19.2573 11.782 19.4167 10.6606 19.5583C10.4691 19.5814 10.3112 19.6564 10.187 19.7836C10.0624 19.9114 10 20.064 10 20.2416C10 20.4404 10.0551 20.5972 10.1659 20.7114C10.2766 20.8255 10.4426 20.8967 10.6486 20.9235L11.3265 21.0017C12.4167 21.1373 13.3093 21.2999 14.0125 21.4904C14.8566 21.7191 15.5136 22.0676 15.9843 22.5356C16.455 23.0036 16.8141 23.6608 17.0614 24.5076C17.2262 25.0716 17.3813 25.7547 17.527 26.558L17.7385 27.8532C17.7679 28.0573 17.8404 28.2107 17.9563 28.3131C18.0726 28.4159 18.2322 28.467 18.4347 28.467C18.6288 28.467 18.7845 28.4172 18.9013 28.3172C19.0186 28.2167 19.0958 28.0663 19.1345 27.8677L19.2518 27.2284L19.4875 26.0776C19.5663 25.7223 19.6454 25.3954 19.7246 25.0969C19.9227 24.3508 20.1662 23.737 20.4551 23.2553C20.744 22.7737 21.1247 22.3891 21.5971 22.1013C22.0696 21.8135 22.6797 21.583 23.4272 21.4096C24.1717 21.237 25.0937 21.0762 26.2175 20.9242C26.4156 20.9012 26.5735 20.8265 26.6914 20.6996C26.8111 20.5707 26.8709 20.4181 26.8709 20.2416C26.8709 20.0418 26.8159 19.8844 26.7051 19.7703C26.5946 19.6564 26.4291 19.5858 26.2078 19.558C25.1038 19.4181 24.1739 19.2618 23.4179 19.0889C22.662 18.9161 22.0432 18.6863 21.5617 18.3996C21.0803 18.113 20.6901 17.7291 20.3911 17.248C20.0922 16.7669 19.8501 16.153 19.6651 15.4064C19.5543 14.9595 19.4464 14.4486 19.3411 13.8711L19.1338 12.6265C19.104 12.4186 19.0315 12.2625 18.9156 12.1579C18.7988 12.0524 18.6383 12 18.4347 12C18.2411 12 18.0859 12.0513 17.9697 12.1542C17.8532 12.2575 17.7763 12.4122 17.7383 12.6171L17.504 13.8544L17.3863 14.41L17.1496 15.3951C17.1413 15.4265 17.133 15.4575 17.1246 15.4884Z" fill="#F1501A"/>
</svg>
