<svg width="56" height="56" viewBox="0 0 56 56" fill="none" xmlns="http://www.w3.org/2000/svg">
<path d="M33.9471 39.2631C30.9218 39.2631 28.8904 37.4363 28.8904 34.7033C28.8904 32.1019 30.8926 30.465 34.4001 30.2604L38.77 30.012V28.7405C38.77 26.8844 37.5423 25.7737 35.4378 25.7737C33.7863 25.7737 32.661 26.3729 31.8133 27.8782C31.5795 28.302 31.2434 28.492 30.7611 28.492C30.1034 28.492 29.6357 28.039 29.6357 27.3521C29.6357 27.0305 29.738 26.6652 29.9426 26.2998C30.8049 24.6337 33.0264 23.5376 35.4963 23.5376C39.0623 23.5376 41.3129 25.4668 41.3129 28.492V37.977C41.3129 38.737 40.816 39.2631 40.1145 39.2631C39.3984 39.2631 38.9015 38.737 38.9015 37.977V36.384H38.843C37.9369 38.1231 35.9932 39.2631 33.9471 39.2631ZM34.5171 37.1001C36.9139 37.1001 38.77 35.4194 38.77 33.2272V31.9849L34.6924 32.2334C32.6464 32.3649 31.4772 33.271 31.4772 34.7033C31.4772 36.1502 32.6902 37.1001 34.5171 37.1001Z" fill="#F1501A"/>
<path d="M9.32419 39.2777C7.95041 39.2777 7.08813 38.4739 7.08813 37.2024C7.08813 36.837 7.19044 36.3401 7.38043 35.7994L13.1386 20.1177C13.7525 18.4078 14.7901 17.6186 16.4562 17.6186C18.1807 17.6186 19.2038 18.3786 19.8322 20.1031L25.6197 35.7994C25.8243 36.3693 25.8973 36.7639 25.8973 37.2024C25.8973 38.4154 24.9766 39.2777 23.6905 39.2777C22.4483 39.2777 21.7906 38.7077 21.396 37.3339L20.2853 34.0018H12.671L11.5603 37.2901C11.151 38.6931 10.4934 39.2777 9.32419 39.2777ZM13.6356 30.5819H19.2622L16.4708 21.9446H16.3685L13.6356 30.5819Z" fill="#F1501A"/>
<path fill-rule="evenodd" clip-rule="evenodd" d="M40.5171 12.2759H47.9999V13.4992H44.9472V40.7242H47.9999V41.9475H40.5171V40.7242H43.7239V13.4992H40.5171V12.2759Z" fill="#F1501A"/>
<rect x="26.3101" y="13.2069" width="18.1724" height="27.7931" rx="2" fill="#FF764D" fill-opacity="0.14"/>
</svg>
