<svg width="56" height="56" viewBox="0 0 56 56" fill="none" xmlns="http://www.w3.org/2000/svg">
<path fill-rule="evenodd" clip-rule="evenodd" d="M22.7932 43.878V44.9106H42.0271C43.6204 44.9106 44.9121 43.6189 44.9121 42.0255V35.2937C44.9121 33.7003 43.6204 32.4086 42.0271 32.4086H39.2075L22.7932 43.878Z" fill="#FF764D" fill-opacity="0.14"/>
<path fill-rule="evenodd" clip-rule="evenodd" d="M21.6841 44.9961L32.5193 45.0107L33.1293 45.0115V45.0111L42.2144 45.0234C43.8889 45.0256 45.2446 43.6681 45.2446 41.9934V34.7211C45.2446 33.0464 43.8889 31.6852 42.2144 31.683L40.7399 31.681L38.9972 32.8987L42.2144 32.903C43.2133 32.9043 44.0246 33.7167 44.0246 34.7195V41.9917C44.0246 42.9945 43.2132 43.8047 42.2144 43.8034L33.1293 43.7911L33.1293 36.9989L31.9093 37.8513L31.9093 43.7899L23.4267 43.7785L21.6841 44.9961Z" fill="#F35521"/>
<path fill-rule="evenodd" clip-rule="evenodd" d="M32.6517 19.5139L31.9177 21.5263L34.6331 19.6077C35.4488 19.0314 36.5805 19.2251 37.1603 20.0433L41.3648 25.9769C41.9446 26.7951 41.751 27.9253 40.9352 28.5017L33.5153 33.7444L29.5186 28.1041L29.0105 29.4972L32.519 34.4486L25.3595 39.5073L24.6255 41.5197L24.7299 41.446L33.7226 35.092L34.2207 34.74L34.2206 34.7398L41.6406 29.4971C43.0081 28.5308 43.3294 26.6394 42.3612 25.2729L38.1567 19.3393C37.1884 17.9728 35.2953 17.6461 33.9278 18.6123L32.6517 19.5139Z" fill="#F35521"/>
<path fill-rule="evenodd" clip-rule="evenodd" d="M18.6774 12.405C19.384 10.4678 21.5288 9.47207 23.4653 10.1754L30.3006 12.6581C32.2372 13.3614 33.2388 15.5 32.5322 17.4372L29.659 25.3148L29.6592 25.3148L29.2103 26.5455L25.4374 36.8899L24.9885 38.1206L24.9878 38.1204L24.2385 40.1749C22.8449 43.9957 18.613 45.9626 14.789 44.5737C10.9649 43.1848 8.99008 38.9635 10.3837 35.1427L12.0422 30.5953L12.0429 30.5956L15.3555 21.5133L15.3601 21.5006L15.36 21.5006L18.6774 12.405ZM30.0696 16.5428L27.1964 24.4203L18.2668 21.177L21.14 13.2995C21.3494 12.7253 21.9874 12.4261 22.5676 12.6368L29.4029 15.1195C29.9831 15.3302 30.279 15.9686 30.0696 16.5428ZM23.4351 34.7333L23.4345 34.7331L23.423 34.7645L14.494 31.5214L17.3692 23.6385L26.2988 26.8818L23.4351 34.7333ZM22.5252 37.2259L21.7759 39.2804C20.8795 41.7382 18.1544 43.0086 15.6867 42.1123C13.219 41.216 11.9498 38.4949 12.8463 36.0371L13.5956 33.9826L22.5252 37.2259ZM17.0367 39.6136C17.7062 39.6136 18.249 39.072 18.249 38.4038C18.249 37.7357 17.7062 37.194 17.0367 37.194C16.3671 37.194 15.8243 37.7357 15.8243 38.4038C15.8243 39.072 16.3671 39.6136 17.0367 39.6136Z" fill="#F35521"/>
</svg>
