<svg width="128" height="128" viewBox="0 0 128 128" fill="none" xmlns="http://www.w3.org/2000/svg">
<g clip-path="url(#clip0_5250_6186)">
<g filter="url(#filter0_ddddd_5250_6186)">
<path d="M23.0001 26.0553C23.0001 21.0542 27.0543 17 32.0554 17H82.2428C83.4467 17 84.601 17.4795 85.4506 18.3324L103.421 36.3728C104.266 37.2214 104.74 38.3703 104.74 39.5681V101.362C104.74 106.363 100.686 110.418 95.6852 110.418H32.0554C27.0543 110.418 23.0001 106.363 23.0001 101.362V26.0553Z" fill="url(#paint0_linear_5250_6186)"/>
</g>
<mask id="mask0_5250_6186" style="mask-type:alpha" maskUnits="userSpaceOnUse" x="23" y="17" width="82" height="94">
<path d="M23.0001 26.0553C23.0001 21.0542 27.0543 17 32.0554 17H83.3826C84.5741 17 85.7176 17.4696 86.5651 18.3071L103.395 34.9381C104.256 35.7887 104.74 36.9484 104.74 38.1586V101.362C104.74 106.363 100.686 110.418 95.6852 110.418H32.0554C27.0543 110.418 23.0001 106.363 23.0001 101.362V26.0553Z" fill="url(#paint1_linear_5250_6186)"/>
</mask>
<g mask="url(#mask0_5250_6186)">
<path fill-rule="evenodd" clip-rule="evenodd" d="M37.5404 41.9997C37.5404 41.1935 38.1939 40.54 39.0001 40.54H70.0001C70.8062 40.54 71.4597 41.1935 71.4597 41.9997C71.4597 42.8058 70.8062 43.4593 70.0001 43.4593H39.0001C38.1939 43.4593 37.5404 42.8058 37.5404 41.9997ZM74.1704 41.9997C74.1704 41.1935 74.8239 40.54 75.6301 40.54H88.6301C89.4362 40.54 90.0897 41.1935 90.0897 41.9997C90.0897 42.8058 89.4362 43.4593 88.6301 43.4593H75.6301C74.8239 43.4593 74.1704 42.8058 74.1704 41.9997ZM37.5404 48.9997C37.5404 48.1935 38.1939 47.54 39.0001 47.54H70.0001C70.8062 47.54 71.4597 48.1935 71.4597 48.9997C71.4597 49.8058 70.8062 50.4593 70.0001 50.4593H39.0001C38.1939 50.4593 37.5404 49.8058 37.5404 48.9997ZM74.1704 48.9997C74.1704 48.1935 74.8239 47.54 75.6301 47.54H88.6301C89.4362 47.54 90.0897 48.1935 90.0897 48.9997C90.0897 49.8058 89.4362 50.4593 88.6301 50.4593H75.6301C74.8239 50.4593 74.1704 49.8058 74.1704 48.9997ZM37.5404 55.9997C37.5404 55.1935 38.1939 54.54 39.0001 54.54H70.0001C70.8062 54.54 71.4597 55.1935 71.4597 55.9997C71.4597 56.8058 70.8062 57.4593 70.0001 57.4593H39.0001C38.1939 57.4593 37.5404 56.8058 37.5404 55.9997ZM74.1704 55.9997C74.1704 55.1935 74.8239 54.54 75.6301 54.54H88.6301C89.4362 54.54 90.0897 55.1935 90.0897 55.9997C90.0897 56.8058 89.4362 57.4593 88.6301 57.4593H75.6301C74.8239 57.4593 74.1704 56.8058 74.1704 55.9997ZM37.5404 62.9997C37.5404 62.1935 38.1939 61.54 39.0001 61.54H88.6281C89.4343 61.54 90.0878 62.1935 90.0878 62.9997C90.0878 63.8058 89.4343 64.4593 88.6281 64.4593H39.0001C38.1939 64.4593 37.5404 63.8058 37.5404 62.9997ZM37.5404 69.9997C37.5404 69.1935 38.1939 68.54 39.0001 68.54H88.6281C89.4343 68.54 90.0878 69.1935 90.0878 69.9997C90.0878 70.8058 89.4343 71.4593 88.6281 71.4593H39.0001C38.1939 71.4593 37.5404 70.8058 37.5404 69.9997ZM37.5404 76.9997C37.5404 76.1935 38.1939 75.54 39.0001 75.54H88.6281C89.4343 75.54 90.0878 76.1935 90.0878 76.9997C90.0878 77.8058 89.4343 78.4593 88.6281 78.4593H39.0001C38.1939 78.4593 37.5404 77.8058 37.5404 76.9997ZM37.5404 83.9997C37.5404 83.1935 38.1939 82.54 39.0001 82.54H88.6281C89.4343 82.54 90.0878 83.1935 90.0878 83.9997C90.0878 84.8058 89.4343 85.4593 88.6281 85.4593H39.0001C38.1939 85.4593 37.5404 84.8058 37.5404 83.9997ZM37.5404 90.9997C37.5404 90.1935 38.1939 89.54 39.0001 89.54H88.6281C89.4343 89.54 90.0878 90.1935 90.0878 90.9997C90.0878 91.8058 89.4343 92.4593 88.6281 92.4593H39.0001C38.1939 92.4593 37.5404 91.8058 37.5404 90.9997ZM37.5404 97.9997C37.5404 97.1935 38.1939 96.54 39.0001 96.54H88.6281C89.4343 96.54 90.0878 97.1935 90.0878 97.9997C90.0878 98.8058 89.4343 99.4593 88.6281 99.4593H39.0001C38.1939 99.4593 37.5404 98.8058 37.5404 97.9997Z" fill="#E6E6E6"/>
<path fill-rule="evenodd" clip-rule="evenodd" d="M36.8101 32.9996C36.8101 31.7901 37.7906 30.8096 39.0001 30.8096H88.6281C89.8376 30.8096 90.8181 31.7901 90.8181 32.9996C90.8181 34.2091 89.8376 35.1896 88.6281 35.1896H39.0001C37.7906 35.1896 36.8101 34.2091 36.8101 32.9996Z" fill="#E6E6E6"/>
<g filter="url(#filter1_ddi_5250_6186)">
<path d="M84.3661 29.3571V19.3538C84.3661 18.1035 83.3526 17.09 82.1023 17.09L88.8938 14.8262L97.9491 23.8815L107.004 32.9368L104.741 39.7283C104.741 38.6566 103.872 37.7879 102.8 37.7879H92.7969C88.1407 37.7879 84.3661 34.0133 84.3661 29.3571Z" fill="url(#paint2_linear_5250_6186)"/>
</g>
</g>
<path d="M53.9979 75.0974C53.9979 75.0974 61.8271 69.9553 79.2156 68.1732C96.604 66.3911 91.6602 74.781 91.6602 74.781C91.6602 74.781 91.524 73.944 90.3086 73.2932C89.0932 72.6425 86.414 72.212 78.4086 72.9428C70.4032 73.6737 70.0248 73.8079 66.2924 74.5107C62.56 75.2135 57.6923 76.5391 51.9315 79.1902C52.7425 77.6884 53.9979 75.0974 53.9979 75.0974Z" fill="#B12525"/>
<path d="M60.105 37.145C60.105 37.145 55.812 37.7798 56.1003 42.9518C56.3887 48.1239 56.9954 56.9683 63.5571 66.6397C70.1188 76.311 84.7239 78.854 88.7307 78.009C92.2648 77.2681 91.8904 75.1777 91.8904 75.1777C91.8904 75.1777 91.2776 75.8845 89.9601 76.0086C88.9043 76.1151 87.8381 76.0385 86.8084 75.7824C82.0448 74.4628 73.2204 72.1922 68.4128 65.4803C65.6215 61.5837 63.7573 57.557 62.4057 54.145C61.0201 50.6529 60.4614 46.9365 60.2492 42.1749C60.1751 40.4048 60.3453 37.948 61.5527 37.8498C62.5659 37.8498 63.3148 38.7869 63.7373 39.7921C64.2919 41.1117 64.1958 42.2991 64.2419 43.6867C65.3832 42.5113 65.5855 41.3119 65.3592 40.0825C65.2658 39.4616 65.0412 38.8677 64.7004 38.3404C63.3448 36.3861 60.105 37.145 60.105 37.145Z" fill="#D52A2A"/>
<path d="M63.9055 46.3692C63.9055 46.3692 64.34 45.7905 64.5062 46.5154C64.7665 49.585 64.4762 58.0849 61.2143 65.3114C56.5469 75.6556 50.0933 86.4442 45.9224 90.9856C43.4815 93.5206 40.504 93.1201 38.742 92.6555C36.9799 92.191 34.521 89.642 37.1521 86.26C40.1957 82.3454 44.6068 80.8937 46.5631 80.4312C45.4939 81.6066 42.6065 84.3298 40.6842 86.9288C39.2826 88.835 38.4176 90.6632 38.8281 91.0937C39.5769 91.8766 44.5828 85.7554 48.3953 79.9706C50.7461 76.4045 53.4913 71.3045 56.7631 64.3523C59.7847 57.9448 61.8451 52.17 62.1575 51.1368C62.7942 48.9642 63.9055 46.3692 63.9055 46.3692Z" fill="#F84040"/>
<path d="M39.0303 91.1923C39.0303 91.1923 37.927 91.2724 37.2722 90.8699C36.1569 90.1851 35.9346 89.29 36.0187 88.8035C36.0556 88.423 36.1501 88.0503 36.2991 87.6982C36.5513 87.1655 38.9382 82.3339 46.5511 80.4316C44.2304 82.6342 43.2272 83.8977 40.9685 86.5368C40.2377 87.538 39.8312 88.0626 39.4127 88.8695C39.1063 89.4562 38.2433 91.0641 39.0303 91.1923Z" fill="#B12525"/>
</g>
<defs>
<filter id="filter0_ddddd_5250_6186" x="17.1615" y="11.1614" width="105.095" height="126.99" filterUnits="userSpaceOnUse" color-interpolation-filters="sRGB">
<feFlood flood-opacity="0" result="BackgroundImageFix"/>
<feColorMatrix in="SourceAlpha" type="matrix" values="0 0 0 0 0 0 0 0 0 0 0 0 0 0 0 0 0 0 127 0" result="hardAlpha"/>
<feOffset dy="1.45965"/>
<feGaussianBlur stdDeviation="1.45965"/>
<feColorMatrix type="matrix" values="0 0 0 0 0 0 0 0 0 0 0 0 0 0 0 0 0 0 0.08 0"/>
<feBlend mode="normal" in2="BackgroundImageFix" result="effect1_dropShadow_5250_6186"/>
<feColorMatrix in="SourceAlpha" type="matrix" values="0 0 0 0 0 0 0 0 0 0 0 0 0 0 0 0 0 0 127 0" result="hardAlpha"/>
<feOffset dx="2.9193" dy="4.37895"/>
<feGaussianBlur stdDeviation="2.9193"/>
<feColorMatrix type="matrix" values="0 0 0 0 0 0 0 0 0 0 0 0 0 0 0 0 0 0 0.07 0"/>
<feBlend mode="normal" in2="effect1_dropShadow_5250_6186" result="effect2_dropShadow_5250_6186"/>
<feColorMatrix in="SourceAlpha" type="matrix" values="0 0 0 0 0 0 0 0 0 0 0 0 0 0 0 0 0 0 127 0" result="hardAlpha"/>
<feOffset dx="4.37895" dy="11.6772"/>
<feGaussianBlur stdDeviation="3.64912"/>
<feColorMatrix type="matrix" values="0 0 0 0 0 0 0 0 0 0 0 0 0 0 0 0 0 0 0.04 0"/>
<feBlend mode="normal" in2="effect2_dropShadow_5250_6186" result="effect3_dropShadow_5250_6186"/>
<feColorMatrix in="SourceAlpha" type="matrix" values="0 0 0 0 0 0 0 0 0 0 0 0 0 0 0 0 0 0 127 0" result="hardAlpha"/>
<feOffset dx="8.75789" dy="18.9754"/>
<feGaussianBlur stdDeviation="4.37895"/>
<feColorMatrix type="matrix" values="0 0 0 0 0 0 0 0 0 0 0 0 0 0 0 0 0 0 0.01 0"/>
<feBlend mode="normal" in2="effect3_dropShadow_5250_6186" result="effect4_dropShadow_5250_6186"/>
<feColorMatrix in="SourceAlpha" type="matrix" values="0 0 0 0 0 0 0 0 0 0 0 0 0 0 0 0 0 0 127 0" result="hardAlpha"/>
<feOffset/>
<feGaussianBlur stdDeviation="2.9193"/>
<feComposite in2="hardAlpha" operator="out"/>
<feColorMatrix type="matrix" values="0 0 0 0 0 0 0 0 0 0 0 0 0 0 0 0 0 0 0.07 0"/>
<feBlend mode="normal" in2="effect4_dropShadow_5250_6186" result="effect5_dropShadow_5250_6186"/>
<feBlend mode="normal" in="SourceGraphic" in2="effect5_dropShadow_5250_6186" result="shape"/>
</filter>
<filter id="filter1_ddi_5250_6186" x="27.7704" y="-39.5057" width="133.566" height="133.566" filterUnits="userSpaceOnUse" color-interpolation-filters="sRGB">
<feFlood flood-opacity="0" result="BackgroundImageFix"/>
<feColorMatrix in="SourceAlpha" type="matrix" values="0 0 0 0 0 0 0 0 0 0 0 0 0 0 0 0 0 0 127 0" result="hardAlpha"/>
<feOffset dx="-0.905531" dy="0.905531"/>
<feGaussianBlur stdDeviation="1.3583"/>
<feComposite in2="hardAlpha" operator="out"/>
<feColorMatrix type="matrix" values="0 0 0 0 0 0 0 0 0 0 0 0 0 0 0 0 0 0 0.12 0"/>
<feBlend mode="normal" in2="BackgroundImageFix" result="effect1_dropShadow_5250_6186"/>
<feColorMatrix in="SourceAlpha" type="matrix" values="0 0 0 0 0 0 0 0 0 0 0 0 0 0 0 0 0 0 127 0" result="hardAlpha"/>
<feOffset/>
<feGaussianBlur stdDeviation="27.1659"/>
<feComposite in2="hardAlpha" operator="out"/>
<feColorMatrix type="matrix" values="0 0 0 0 0 0 0 0 0 0 0 0 0 0 0 0 0 0 0.2 0"/>
<feBlend mode="normal" in2="effect1_dropShadow_5250_6186" result="effect2_dropShadow_5250_6186"/>
<feBlend mode="normal" in="SourceGraphic" in2="effect2_dropShadow_5250_6186" result="shape"/>
<feColorMatrix in="SourceAlpha" type="matrix" values="0 0 0 0 0 0 0 0 0 0 0 0 0 0 0 0 0 0 127 0" result="hardAlpha"/>
<feOffset dy="-0.452766"/>
<feGaussianBlur stdDeviation="1.58762"/>
<feComposite in2="hardAlpha" operator="arithmetic" k2="-1" k3="1"/>
<feColorMatrix type="matrix" values="0 0 0 0 1 0 0 0 0 1 0 0 0 0 1 0 0 0 1 0"/>
<feBlend mode="normal" in2="shape" result="effect3_innerShadow_5250_6186"/>
</filter>
<linearGradient id="paint0_linear_5250_6186" x1="16.2086" y1="12.4723" x2="104.498" y2="91.7063" gradientUnits="userSpaceOnUse">
<stop stop-color="#F9F9F9"/>
<stop stop-color="white"/>
<stop offset="1" stop-color="#F8F8F8"/>
</linearGradient>
<linearGradient id="paint1_linear_5250_6186" x1="27.5413" y1="17" x2="63.6628" y2="89.502" gradientUnits="userSpaceOnUse">
<stop stop-color="#EBEBEB"/>
<stop offset="1" stop-color="#FAFAFB"/>
</linearGradient>
<linearGradient id="paint2_linear_5250_6186" x1="96.8172" y1="27.8432" x2="88.3278" y2="36.3326" gradientUnits="userSpaceOnUse">
<stop stop-color="#EEEEEE"/>
<stop offset="1" stop-color="white"/>
</linearGradient>
<clipPath id="clip0_5250_6186">
<rect width="128" height="128" fill="white"/>
</clipPath>
</defs>
</svg>
