<svg width="128" height="128" viewBox="0 0 128 128" fill="none" xmlns="http://www.w3.org/2000/svg">
<g clip-path="url(#clip0_4389_7282)">
<g filter="url(#filter0_ddddd_4389_7282)">
<path d="M23 26.0553C23 21.0542 27.0542 17 32.0553 17H82.2427C83.4466 17 84.6009 17.4795 85.4505 18.3324L103.42 36.3728C104.266 37.2214 104.74 38.3703 104.74 39.5681V101.362C104.74 106.363 100.686 110.418 95.685 110.418H32.0553C27.0542 110.418 23 106.363 23 101.362V26.0553Z" fill="url(#paint0_linear_4389_7282)"/>
</g>
<mask id="mask0_4389_7282" style="mask-type:alpha" maskUnits="userSpaceOnUse" x="23" y="17" width="82" height="94">
<path d="M23 26.0553C23 21.0542 27.0542 17 32.0553 17H83.3825C84.574 17 85.7174 17.4696 86.5649 18.3071L103.395 34.9381C104.256 35.7887 104.74 36.9484 104.74 38.1586V101.362C104.74 106.363 100.686 110.418 95.685 110.418H32.0553C27.0542 110.418 23 106.363 23 101.362V26.0553Z" fill="url(#paint1_linear_4389_7282)"/>
</mask>
<g mask="url(#mask0_4389_7282)">
<path fill-rule="evenodd" clip-rule="evenodd" d="M38.0347 40.3532C38.0347 38.1766 39.7991 36.4121 41.9757 36.4121H61.535C63.7116 36.4121 65.4761 38.1766 65.4761 40.3532V52.0304C65.4761 54.2069 63.7116 55.9714 61.535 55.9714H41.9757C39.7991 55.9714 38.0347 54.2069 38.0347 52.0304V40.3532ZM41.9757 38.4556C40.9277 38.4556 40.0782 39.3052 40.0782 40.3532V52.0304C40.0782 53.0783 40.9277 53.9279 41.9757 53.9279H61.535C62.583 53.9279 63.4326 53.0783 63.4326 52.0304V40.3532C63.4326 39.3052 62.583 38.4556 61.535 38.4556H41.9757ZM46.9323 43.8342C47.8471 42.5676 49.7332 42.5676 50.6479 43.8342L52.853 46.8874L53.377 46.1763C54.2929 44.9333 56.1509 44.9333 57.0668 46.1763L59.5644 49.5659C59.8991 50.0202 59.8022 50.6598 59.3479 50.9945C58.8936 51.3293 58.254 51.2324 57.9192 50.7781L55.4216 47.3885C55.3225 47.2539 55.1213 47.2539 55.0221 47.3885L54.1095 48.6271L54.7936 49.5743C55.1239 50.0317 55.0209 50.6704 54.5635 51.0008C54.106 51.3312 53.4673 51.2282 53.1369 50.7707L48.9913 45.0306C48.8922 44.8935 48.688 44.8935 48.589 45.0306L44.4433 50.7707C44.1129 51.2282 43.4742 51.3312 43.0168 51.0008C42.5593 50.6704 42.4563 50.0317 42.7867 49.5743L46.9323 43.8342Z" fill="#E6E6E6"/>
<path d="M59.1816 42.5098C59.1816 42.7637 58.9757 42.9696 58.7218 42.9696C58.4679 42.9696 58.262 42.7637 58.262 42.5098C58.262 42.2558 58.4679 42.05 58.7218 42.05C58.9757 42.05 59.1816 42.2558 59.1816 42.5098Z" fill="#E6E6E6" stroke="#E6E6E6" stroke-width="1.26989"/>
<path fill-rule="evenodd" clip-rule="evenodd" d="M37.5966 28.4063C37.5966 27.1971 38.5768 26.2168 39.786 26.2168H53.6527C54.8619 26.2168 55.8422 27.1971 55.8422 28.4063C55.8422 29.6155 54.8619 30.5957 53.6527 30.5957H39.786C38.5768 30.5957 37.5966 29.6155 37.5966 28.4063Z" fill="#E6E6E6"/>
<path fill-rule="evenodd" clip-rule="evenodd" d="M69.7089 36.4333C69.7089 35.6271 70.3624 34.9736 71.1685 34.9736H88.6843C89.4904 34.9736 90.1439 35.6271 90.1439 36.4333C90.1439 37.2394 89.4904 37.8929 88.6843 37.8929H71.1685C70.3624 37.8929 69.7089 37.2394 69.7089 36.4333ZM69.7089 42.9997C69.7089 42.1935 70.3624 41.54 71.1685 41.54H88.6843C89.4904 41.54 90.1439 42.1935 90.1439 42.9997C90.1439 43.8058 89.4904 44.4593 88.6843 44.4593H71.1685C70.3624 44.4593 69.7089 43.8058 69.7089 42.9997ZM69.7089 49.9997C69.7089 49.1935 70.3624 48.54 71.1685 48.54H88.6843C89.4904 48.54 90.1439 49.1935 90.1439 49.9997C90.1439 50.8058 89.4904 51.4593 88.6843 51.4593H71.1685C70.3624 51.4593 69.7089 50.8058 69.7089 49.9997ZM69.7089 56.9997C69.7089 56.1935 70.3624 55.54 71.1685 55.54H88.6843C89.4904 55.54 90.1439 56.1935 90.1439 56.9997C90.1439 57.8058 89.4904 58.4593 88.6843 58.4593H71.1685C70.3624 58.4593 69.7089 57.8058 69.7089 56.9997ZM37.5966 63.9997C37.5966 63.1935 38.2501 62.54 39.0562 62.54H88.6843C89.4904 62.54 90.1439 63.1935 90.1439 63.9997C90.1439 64.8058 89.4904 65.4593 88.6843 65.4593H39.0562C38.2501 65.4593 37.5966 64.8058 37.5966 63.9997ZM37.5966 70.9997C37.5966 70.1935 38.2501 69.54 39.0562 69.54H88.6843C89.4904 69.54 90.1439 70.1935 90.1439 70.9997C90.1439 71.8058 89.4904 72.4593 88.6843 72.4593H39.0562C38.2501 72.4593 37.5966 71.8058 37.5966 70.9997ZM37.5966 77.9997C37.5966 77.1935 38.2501 76.54 39.0562 76.54H88.6843C89.4904 76.54 90.1439 77.1935 90.1439 77.9997C90.1439 78.8058 89.4904 79.4593 88.6843 79.4593H39.0562C38.2501 79.4593 37.5966 78.8058 37.5966 77.9997ZM37.5966 84.9997C37.5966 84.1935 38.2501 83.54 39.0562 83.54H88.6843C89.4904 83.54 90.1439 84.1935 90.1439 84.9997C90.1439 85.8058 89.4904 86.4593 88.6843 86.4593H39.0562C38.2501 86.4593 37.5966 85.8058 37.5966 84.9997ZM37.5966 91.9997C37.5966 91.1935 38.2501 90.54 39.0562 90.54H88.6843C89.4904 90.54 90.1439 91.1935 90.1439 91.9997C90.1439 92.8058 89.4904 93.4593 88.6843 93.4593H39.0562C38.2501 93.4593 37.5966 92.8058 37.5966 91.9997ZM37.5966 98.9997C37.5966 98.1935 38.2501 97.54 39.0562 97.54H88.6843C89.4904 97.54 90.1439 98.1935 90.1439 98.9997C90.1439 99.8058 89.4904 100.459 88.6843 100.459H39.0562C38.2501 100.459 37.5966 99.8058 37.5966 98.9997Z" fill="#E6E6E6"/>
<g filter="url(#filter1_ddi_4389_7282)">
<path d="M84.3661 29.3571V19.3538C84.3661 18.1035 83.3526 17.09 82.1023 17.09L88.8938 14.8262L97.9491 23.8815L107.004 32.9368L104.741 39.7283C104.741 38.6566 103.872 37.7879 102.8 37.7879H92.7969C88.1407 37.7879 84.3661 34.0133 84.3661 29.3571Z" fill="url(#paint2_linear_4389_7282)"/>
</g>
</g>
<path d="M52.728 63.1214C52.7286 63.1224 52.728 63.1237 52.7268 63.1237C51.3438 63.1237 50.0315 63.1307 48.7193 63.1219C47.7535 63.1149 46.7332 62.5102 46.4768 61.6987C46.3404 61.271 46.3186 60.7627 46.4095 60.321C46.8114 58.3631 47.3771 56.4491 48.3119 54.6525C48.5756 54.1442 49.0121 53.8901 49.5541 53.8129C50.2233 53.7183 50.9017 53.6534 51.5783 53.6272C52.3476 53.5956 53.1224 53.6394 53.8917 53.6131C54.3264 53.5991 54.761 53.5325 55.1866 53.4414C55.3048 53.4168 55.4303 53.2345 55.4722 53.1013C56.0251 51.303 56.5579 49.4994 57.1036 47.6993C57.9747 44.823 58.8332 41.9449 59.7352 39.0774C60.0008 38.2343 60.3682 37.4175 60.7519 36.6165C60.8774 36.3536 61.1648 36.0942 61.443 35.9785C64.995 34.4904 68.5597 33.0303 72.1189 31.558C73.0192 31.1864 73.8903 30.7412 74.8142 30.4432C75.4562 30.2364 76.1801 30.0839 76.8403 30.1523C78.097 30.282 78.5135 31.0427 78.1698 32.2171C77.5805 34.2327 77.0003 36.2519 76.4293 38.2711C75.6199 41.1334 74.8179 43.9974 74.0213 46.8615C73.4829 48.7965 72.9628 50.7368 72.4208 52.6701C72.3299 52.9927 72.4535 53.0505 72.7463 53.0505C74.3195 53.0505 75.8927 53.0417 77.4641 53.075C78.0315 53.0873 78.6081 53.1574 79.1591 53.2854C79.7975 53.4326 80.0449 53.9094 79.8739 54.5281C79.3101 56.5771 78.7518 58.6296 78.157 60.6715C77.9952 61.2272 77.7133 61.7495 77.4896 62.2894C77.3495 62.6294 77.1095 62.7644 76.7166 62.7538C74.7051 62.7065 72.6936 62.682 70.6839 62.6504C70.5621 62.6487 70.442 62.6504 70.3202 62.6539C69.5618 62.6785 69.5254 62.6697 69.3235 63.3568C68.978 64.5329 68.6924 65.723 68.3651 66.9044C67.9959 68.2383 67.6085 69.5669 67.2265 70.8955C66.6627 72.8551 66.0917 74.8129 65.5333 76.7743C65.135 78.1765 64.7131 79.5752 64.373 80.9897C64.0565 82.3043 63.7728 83.6311 63.5855 84.9667C63.4636 85.8378 64.0765 86.2375 64.9295 85.8992C66.5463 85.2612 68.1323 84.5478 69.7527 83.9221C70.5002 83.6346 71.2914 83.4208 72.0825 83.2788C72.9009 83.1316 73.3884 83.5294 73.3629 84.3375C73.3338 85.3085 73.2556 86.2901 73.061 87.2418C72.7973 88.5336 72.4263 89.8079 72.0607 91.0786C71.626 92.5843 70.4584 93.4326 69.0889 94.1197C67.0301 95.1521 64.8477 95.8619 62.6215 96.4351C60.3554 97.0188 58.042 97.3676 55.6795 97.2501C53.0951 97.1222 50.7526 96.351 48.7047 94.7928C47.7772 94.0881 47.2134 93.182 46.906 92.0935C46.364 90.1795 46.2185 88.2549 46.6841 86.3093C47.4353 83.1666 48.1555 80.0169 48.9721 76.8899C49.8523 73.5211 50.8344 70.1786 51.7656 66.822C52.0784 65.6985 52.3767 64.5732 52.6768 63.4479C52.7091 63.3288 52.7148 63.2028 52.7254 63.122C52.7256 63.1207 52.7273 63.1204 52.728 63.1214V63.1214ZM76.5293 31.6017C76.5293 31.6018 76.5292 31.6019 76.5291 31.6019C75.8963 31.8315 75.318 32.0225 74.7579 32.2486C72.8809 33.0058 71.0004 33.7612 69.1362 34.5482C67.0792 35.4159 65.0332 36.308 62.9907 37.2072C62.4724 37.4351 62.0396 37.7173 61.8559 38.3377C61.2957 40.2255 60.6501 42.0904 60.0517 43.9676C59.4097 45.9816 58.7931 48.0043 58.1439 50.0164C57.6474 51.5554 57.1145 53.0855 56.607 54.621C56.487 54.9838 56.2597 55.1082 55.8668 55.1082C54.1882 55.1082 52.5077 55.1591 50.829 55.1451C49.9906 55.138 49.4377 55.3869 49.1667 56.2142C48.6902 57.6673 48.1373 59.0958 47.6335 60.5401C47.4607 61.0361 47.7972 61.5059 48.3555 61.5865C48.5938 61.6215 48.8375 61.6303 49.0794 61.6233C50.4998 61.5795 51.9202 61.5286 53.3406 61.4761C54.2282 61.4428 54.5501 61.7337 54.4719 62.5663C54.43 63.015 54.3482 63.4637 54.2336 63.9001C53.6771 66.042 53.1242 68.1857 52.5295 70.317C51.5274 73.9102 50.4871 77.4929 49.474 81.0826C48.6774 83.908 47.9354 86.7493 47.8263 89.6922C47.759 91.5116 48.3373 93.1224 49.9287 94.2441C51.0581 95.0416 52.3858 95.3975 53.7389 95.6464C56.4179 96.1389 59.0696 95.897 61.6885 95.2678C64.2147 94.6613 66.5882 93.6517 68.9234 92.5702C69.5345 92.288 70.2056 91.9392 70.4511 91.2697C71.1732 89.3031 71.5824 87.2611 71.8588 85.1963V85.1963C71.8959 84.9245 71.578 84.7409 71.3293 84.8566C70.8625 85.0736 70.4277 85.2763 69.991 85.4733C69.3908 85.7449 68.7906 86.0131 68.185 86.2708C67.0283 86.7633 65.8971 87.3365 64.5967 87.3961C62.7234 87.4819 62.0123 86.432 62.0959 84.9772C62.1487 84.0588 62.4215 83.1456 62.6525 82.2447C63.1854 80.1571 63.7473 78.0748 64.3111 75.9943C64.8022 74.1784 65.3114 72.3678 65.8098 70.5554C66.2572 68.9253 66.6955 67.2935 67.1465 65.6634C67.4739 64.4838 67.814 63.3077 68.1577 62.1334C68.2632 61.7758 68.4906 61.5041 68.8907 61.4393C69.3945 61.3569 69.9037 61.2675 70.4111 61.2465C72.2698 61.1711 74.1304 61.1203 75.9891 61.0677C76.2256 61.0607 76.3692 61.0098 76.4456 60.7557C76.8421 59.4306 77.2659 58.1125 77.6733 56.7909C77.8263 56.2953 77.9715 55.7965 78.1229 55.2787C78.1893 55.0512 78.0266 54.8134 77.7897 54.8103V54.8103C75.8836 54.798 73.9776 54.7963 72.0716 54.7735C71.6351 54.7682 71.195 54.7244 70.7676 54.642C70.3329 54.5596 70.1765 54.2687 70.2911 53.855C70.8294 51.92 71.3678 49.9849 71.9152 48.0516C72.8155 44.8668 73.7285 41.6855 74.6251 38.499C75.2597 36.2419 75.8743 33.9778 76.5289 31.6016C76.5289 31.6014 76.5293 31.6014 76.5293 31.6017V31.6017Z" fill="url(#paint3_linear_4389_7282)"/>
<path d="M69.9113 87.3411C69.9109 87.3411 69.9105 87.3414 69.9104 87.3418C69.6067 88.4598 69.3067 89.5796 68.9885 90.6941C68.9594 90.7993 68.8157 90.8869 68.7066 90.9553C66.746 92.177 64.5836 92.9254 62.3302 93.4442C61.0407 93.7405 59.7476 94.0752 58.4363 94.219C56.5812 94.4223 54.6916 94.6712 52.8601 94.0963C51.2651 93.5967 50.1611 92.6064 49.6955 90.9711C49.1481 89.0571 49.3845 87.1711 49.8665 85.3201C50.6104 82.4614 51.4979 79.6394 52.3127 76.7982C53.0838 74.1094 53.8695 71.4224 54.5915 68.7214C55.0953 66.8372 55.5154 64.9302 55.9519 63.0301C56.363 61.2441 55.3554 60.0487 53.4585 60.068C52.3545 60.0802 51.2524 60.1398 50.1484 60.1766V60.1766C49.8884 60.186 49.7007 59.9269 49.7732 59.677C49.8904 59.2726 50.0021 58.8881 50.1175 58.5045C50.2721 57.9874 50.4521 57.4756 50.5813 56.9515C50.6595 56.6343 50.8177 56.5449 51.1487 56.5396C53.0693 56.5063 54.988 56.4275 56.9086 56.4117C57.6106 56.4064 57.9598 56.0664 58.1508 55.4915C58.4418 54.6203 58.7255 53.7457 58.9965 52.8676C59.5184 51.1691 60.0313 49.4672 60.5424 47.7653C61.028 46.1439 61.5045 44.5191 61.9883 42.8961C62.3902 41.5429 62.7867 40.188 63.2104 38.8401C63.2668 38.6596 63.4396 38.4528 63.6124 38.3774C66.9879 36.9349 70.3707 35.5099 73.7535 34.0814C73.9336 34.006 74.1064 33.9149 74.2919 33.8535C74.3057 33.8488 74.3198 33.8446 74.3339 33.8407C74.5236 33.7893 74.75 33.9685 74.6938 34.1567V34.1567C74.3992 35.1488 74.0918 36.1374 73.7899 37.1277C73.2079 39.0382 72.6241 40.9487 72.0494 42.861C70.9509 46.519 69.8578 50.1788 68.763 53.8369C68.4611 54.8465 69.1795 55.8946 70.3907 56.1575C70.7836 56.2434 71.1964 56.2767 71.6002 56.2732C73.1879 56.2592 74.7757 56.2241 76.3634 56.1891C76.6307 56.1838 76.7744 56.2189 76.6653 56.5326C76.3307 57.4949 76.0106 58.4642 75.6941 59.4335C75.605 59.7051 75.4086 59.7174 75.1649 59.7192C73.3043 59.7262 71.4438 59.7174 69.585 59.7647C68.692 59.7875 67.8027 60.0154 67.2589 60.7463C66.8842 61.2511 66.646 61.8751 66.4587 62.478C65.7257 64.846 64.9982 67.2175 64.3453 69.6065C63.5233 72.6143 62.7685 75.6378 61.9973 78.6579C61.5409 80.4509 61.0934 82.2458 60.6715 84.0459C60.3714 85.3219 60.446 86.5629 61.2608 87.6741C61.8519 88.4821 62.7303 88.7906 63.7088 88.9011C65.4711 89.1009 67.0225 88.4436 68.5775 87.7986C68.983 87.6298 69.3798 87.4425 69.7817 87.2648C69.795 87.2589 69.8105 87.2607 69.822 87.2696C69.8518 87.2927 69.8825 87.3166 69.9119 87.3393C69.9127 87.3399 69.9123 87.3411 69.9113 87.3411V87.3411Z" fill="url(#paint4_linear_4389_7282)"/>
</g>
<defs>
<filter id="filter0_ddddd_4389_7282" x="17.1614" y="11.1614" width="105.095" height="126.99" filterUnits="userSpaceOnUse" color-interpolation-filters="sRGB">
<feFlood flood-opacity="0" result="BackgroundImageFix"/>
<feColorMatrix in="SourceAlpha" type="matrix" values="0 0 0 0 0 0 0 0 0 0 0 0 0 0 0 0 0 0 127 0" result="hardAlpha"/>
<feOffset dy="1.45965"/>
<feGaussianBlur stdDeviation="1.45965"/>
<feColorMatrix type="matrix" values="0 0 0 0 0 0 0 0 0 0 0 0 0 0 0 0 0 0 0.08 0"/>
<feBlend mode="normal" in2="BackgroundImageFix" result="effect1_dropShadow_4389_7282"/>
<feColorMatrix in="SourceAlpha" type="matrix" values="0 0 0 0 0 0 0 0 0 0 0 0 0 0 0 0 0 0 127 0" result="hardAlpha"/>
<feOffset dx="2.9193" dy="4.37895"/>
<feGaussianBlur stdDeviation="2.9193"/>
<feColorMatrix type="matrix" values="0 0 0 0 0 0 0 0 0 0 0 0 0 0 0 0 0 0 0.07 0"/>
<feBlend mode="normal" in2="effect1_dropShadow_4389_7282" result="effect2_dropShadow_4389_7282"/>
<feColorMatrix in="SourceAlpha" type="matrix" values="0 0 0 0 0 0 0 0 0 0 0 0 0 0 0 0 0 0 127 0" result="hardAlpha"/>
<feOffset dx="4.37895" dy="11.6772"/>
<feGaussianBlur stdDeviation="3.64912"/>
<feColorMatrix type="matrix" values="0 0 0 0 0 0 0 0 0 0 0 0 0 0 0 0 0 0 0.04 0"/>
<feBlend mode="normal" in2="effect2_dropShadow_4389_7282" result="effect3_dropShadow_4389_7282"/>
<feColorMatrix in="SourceAlpha" type="matrix" values="0 0 0 0 0 0 0 0 0 0 0 0 0 0 0 0 0 0 127 0" result="hardAlpha"/>
<feOffset dx="8.75789" dy="18.9754"/>
<feGaussianBlur stdDeviation="4.37895"/>
<feColorMatrix type="matrix" values="0 0 0 0 0 0 0 0 0 0 0 0 0 0 0 0 0 0 0.01 0"/>
<feBlend mode="normal" in2="effect3_dropShadow_4389_7282" result="effect4_dropShadow_4389_7282"/>
<feColorMatrix in="SourceAlpha" type="matrix" values="0 0 0 0 0 0 0 0 0 0 0 0 0 0 0 0 0 0 127 0" result="hardAlpha"/>
<feOffset/>
<feGaussianBlur stdDeviation="2.9193"/>
<feComposite in2="hardAlpha" operator="out"/>
<feColorMatrix type="matrix" values="0 0 0 0 0 0 0 0 0 0 0 0 0 0 0 0 0 0 0.07 0"/>
<feBlend mode="normal" in2="effect4_dropShadow_4389_7282" result="effect5_dropShadow_4389_7282"/>
<feBlend mode="normal" in="SourceGraphic" in2="effect5_dropShadow_4389_7282" result="shape"/>
</filter>
<filter id="filter1_ddi_4389_7282" x="27.7704" y="-39.5057" width="133.566" height="133.566" filterUnits="userSpaceOnUse" color-interpolation-filters="sRGB">
<feFlood flood-opacity="0" result="BackgroundImageFix"/>
<feColorMatrix in="SourceAlpha" type="matrix" values="0 0 0 0 0 0 0 0 0 0 0 0 0 0 0 0 0 0 127 0" result="hardAlpha"/>
<feOffset dx="-0.905531" dy="0.905531"/>
<feGaussianBlur stdDeviation="1.3583"/>
<feComposite in2="hardAlpha" operator="out"/>
<feColorMatrix type="matrix" values="0 0 0 0 0 0 0 0 0 0 0 0 0 0 0 0 0 0 0.12 0"/>
<feBlend mode="normal" in2="BackgroundImageFix" result="effect1_dropShadow_4389_7282"/>
<feColorMatrix in="SourceAlpha" type="matrix" values="0 0 0 0 0 0 0 0 0 0 0 0 0 0 0 0 0 0 127 0" result="hardAlpha"/>
<feOffset/>
<feGaussianBlur stdDeviation="27.1659"/>
<feComposite in2="hardAlpha" operator="out"/>
<feColorMatrix type="matrix" values="0 0 0 0 0 0 0 0 0 0 0 0 0 0 0 0 0 0 0.2 0"/>
<feBlend mode="normal" in2="effect1_dropShadow_4389_7282" result="effect2_dropShadow_4389_7282"/>
<feBlend mode="normal" in="SourceGraphic" in2="effect2_dropShadow_4389_7282" result="shape"/>
<feColorMatrix in="SourceAlpha" type="matrix" values="0 0 0 0 0 0 0 0 0 0 0 0 0 0 0 0 0 0 127 0" result="hardAlpha"/>
<feOffset dy="-0.452766"/>
<feGaussianBlur stdDeviation="1.58762"/>
<feComposite in2="hardAlpha" operator="arithmetic" k2="-1" k3="1"/>
<feColorMatrix type="matrix" values="0 0 0 0 1 0 0 0 0 1 0 0 0 0 1 0 0 0 1 0"/>
<feBlend mode="normal" in2="shape" result="effect3_innerShadow_4389_7282"/>
</filter>
<linearGradient id="paint0_linear_4389_7282" x1="16.2085" y1="12.4723" x2="104.498" y2="91.7063" gradientUnits="userSpaceOnUse">
<stop stop-color="#F9F9F9"/>
<stop stop-color="white"/>
<stop offset="1" stop-color="#F8F8F8"/>
</linearGradient>
<linearGradient id="paint1_linear_4389_7282" x1="27.5411" y1="17" x2="63.6627" y2="89.502" gradientUnits="userSpaceOnUse">
<stop stop-color="#EBEBEB"/>
<stop offset="1" stop-color="#FAFAFB"/>
</linearGradient>
<linearGradient id="paint2_linear_4389_7282" x1="96.8172" y1="27.8432" x2="88.3278" y2="36.3326" gradientUnits="userSpaceOnUse">
<stop stop-color="#EEEEEE"/>
<stop offset="1" stop-color="white"/>
</linearGradient>
<linearGradient id="paint3_linear_4389_7282" x1="79.9265" y1="100.42" x2="33.4151" y2="60.4637" gradientUnits="userSpaceOnUse">
<stop stop-color="#418CFF"/>
<stop offset="0.255208" stop-color="#3D8AFF"/>
<stop offset="1" stop-color="#5498FF"/>
</linearGradient>
<linearGradient id="paint4_linear_4389_7282" x1="76.702" y1="97.295" x2="35.5496" y2="65.4555" gradientUnits="userSpaceOnUse">
<stop stop-color="#418CFF"/>
<stop offset="0.255208" stop-color="#3D8AFF"/>
<stop offset="1" stop-color="#5498FF"/>
</linearGradient>
<clipPath id="clip0_4389_7282">
<rect width="128" height="128" fill="white"/>
</clipPath>
</defs>
</svg>
