<svg width="512" height="512" viewBox="0 0 512 512" fill="none" xmlns="http://www.w3.org/2000/svg">
<path d="M86.1946 232.019C65.213 243.124 54.9098 262.435 53.3656 284.609C51.8999 305.657 58.2608 329.313 70.4295 351.834C63.856 358.803 59.7365 366.824 59.7365 375.73C59.7365 391.097 71.8161 403.172 88.4556 412.205C105.289 421.343 128.82 428.555 156.503 433.617C165.969 438.128 175.943 441.87 186.36 444.668C245.618 460.588 318.586 462.565 374.174 431.998C399.538 426.794 421.011 419.677 436.365 410.805C451.633 401.983 462.584 390.346 462.584 375.73C462.584 370.046 460.292 364.297 456.755 359.017C453.899 354.754 450.068 350.546 445.427 346.573C453.097 324.706 457.438 299.159 457.707 269.529C458.079 228.61 447.043 193.532 428.978 164.352H437.978C440.225 164.352 442.304 163.165 443.446 161.231C444.588 159.297 444.623 156.903 443.538 154.936C431.451 133.022 409.924 118.232 385.582 114.541C380.838 110.537 375.953 106.743 370.956 103.157L402.213 69.5198C403.743 67.8737 404.288 65.5416 403.648 63.3877C403.007 61.2338 401.276 59.579 399.095 59.0364C373.072 52.5618 345.67 59.5803 326.005 77.4548C296.158 64.1546 265.238 57.0279 238.054 56.1027C209.929 55.1454 184.648 60.8094 169.167 74.5212C161.044 81.7156 154.956 89.3013 150.337 97.1413C147.574 97.3828 145.014 99.2875 144.266 102.328L143.851 104.014L142.221 104.612C137.471 106.354 136.189 112.47 139.839 115.974L141.623 114.114L139.839 115.974L141.091 117.176L140.794 118.887C140.794 118.887 140.794 118.887 140.794 118.887C140.733 119.241 140.7 119.592 140.693 119.938C137.438 131.269 135.978 142.724 134.603 153.508L134.574 153.738C134.509 154.248 134.444 154.757 134.379 155.265C134.229 155.121 134.079 154.973 133.93 154.82C132.54 153.404 130.567 152.719 128.599 152.969C126.63 153.219 124.892 154.375 123.9 156.093C122.547 158.436 119.317 161.468 115.121 163.161C111.135 164.769 106.885 164.948 102.912 162.819L101.285 161.82C98.9669 160.398 96 160.61 93.9076 162.348C91.8152 164.085 91.0622 166.963 92.0352 169.503C93.2612 172.703 92.9551 177.898 90.5897 182.575C87.8943 186.707 83.9589 189.499 80.8308 190.248C80.7323 190.258 80.6329 190.267 80.5327 190.275C78.38 190.435 76.5032 191.668 75.4782 193.478C75.0861 194.15 74.8133 194.901 74.6886 195.703C74.2599 198.459 75.6807 201.173 78.1904 202.391C82.9113 204.682 85.2521 208.561 86.087 212.808C86.9729 217.315 86.032 221.682 84.7282 223.94C83.7417 225.649 83.6056 227.719 84.3599 229.542C84.764 230.519 85.3991 231.365 86.1946 232.019ZM148.298 107.093L150.19 104.827L147.867 107.61L147.867 107.61L147.45 108.108L147.866 107.61L147.866 107.61L148.298 107.093ZM147.393 115.109L147.88 115.194L145.981 114.864L147.393 115.109Z" fill="#FFFDE8" stroke="white" stroke-width="12.6985" stroke-linejoin="round"/>
<path d="M90.47 236.96C168.5 197.945 116.48 129.669 173.377 79.2749C230.273 28.8807 452.983 90.6542 451.358 269.472C449.732 448.291 296.924 467.798 188.007 438.537C79.0905 409.276 19.1648 272.613 90.47 236.96Z" fill="#66D9E8"/>
<path fill-rule="evenodd" clip-rule="evenodd" d="M134.574 153.687C137.827 127.937 141.475 99.0488 169.167 74.5215C185.236 60.2896 211.874 54.7137 241.373 56.2458C271.164 57.793 305.142 66.6301 337.168 82.747C401.232 114.987 458.548 177.02 457.707 269.53C457.293 315.141 447.228 351.071 430.253 378.761C413.263 406.477 389.573 425.567 362.538 437.817C308.699 462.213 241.63 459.517 186.36 444.668C129.878 429.494 86.2774 386.597 65.8998 342.825C55.7055 320.927 51.0907 298.312 54.0316 278.452C57.0097 258.342 67.7591 241.217 87.631 231.281C106.139 222.027 116.495 211.292 122.782 199.884C129.165 188.302 131.643 175.535 133.558 161.524C133.91 158.951 134.24 156.336 134.574 153.687ZM140.872 154.541C136.91 185.622 133.082 215.654 90.4705 236.96C19.1653 272.612 79.091 409.275 188.008 438.537C296.924 467.798 449.733 448.29 451.358 269.472C452.984 90.6538 230.274 28.8803 173.377 79.2744C147.551 102.149 144.166 128.707 140.872 154.541Z" fill="black"/>
<mask id="mask0_39_1980" style="mask-type:alpha" maskUnits="userSpaceOnUse" x="59" y="62" width="393" height="388">
<path d="M90.4697 236.96C168.499 197.945 116.48 129.669 173.376 79.2751C230.273 28.881 452.983 90.6544 451.358 269.473C449.732 448.291 296.923 467.798 188.007 438.537C79.0902 409.276 19.1645 272.613 90.4697 236.96Z" fill="#C4E1E8"/>
</mask>
<g mask="url(#mask0_39_1980)">
<path fill-rule="evenodd" clip-rule="evenodd" d="M229.293 56.5181H279.627V279.621L365.08 96.3665L410.699 117.639L324.226 303.08L443.867 202.689L476.222 241.247L368.764 331.415L460.736 306.771L473.763 355.391L277.527 407.972L268.933 415.183L268.337 417.407L266.78 416.99L266.611 417.132L266.408 416.89L255.327 413.921L244.253 416.888L244.047 417.133L243.875 416.989L242.321 417.405L241.726 415.186L233.13 407.973L40.0839 356.246L53.1113 307.627L141.893 331.416L47.0252 251.813L79.3795 213.254L186.435 303.084L95.0693 107.151L140.688 85.8783L229.293 275.893V56.5181Z" fill="white" fill-opacity="0.2"/>
</g>
<path d="M426.972 352.378C426.972 388.29 352.735 417.402 261.159 417.402C169.583 417.402 95.3458 388.29 95.3458 352.378C95.3458 316.465 169.583 287.353 261.159 287.353C352.735 287.353 426.972 316.465 426.972 352.378Z" fill="#FFD43B"/>
<path fill-rule="evenodd" clip-rule="evenodd" d="M228.408 411.444C319.985 411.444 394.222 382.331 394.222 346.419C394.222 322.801 362.112 302.123 314.078 290.734C379.707 299.395 426.975 323.721 426.975 352.378C426.975 388.29 352.738 417.402 261.162 417.402C229.813 417.402 200.496 413.991 175.493 408.062C192.111 410.255 209.906 411.444 228.408 411.444Z" fill="#FAB005"/>
<path fill-rule="evenodd" clip-rule="evenodd" d="M110.535 329.395C102.539 336.809 98.5203 344.578 98.5203 352.378C98.5203 360.178 102.539 367.947 110.535 375.361C118.535 382.778 130.284 389.604 145.07 395.402C174.623 406.991 215.665 414.228 261.159 414.228C306.653 414.228 347.695 406.991 377.248 395.402C392.034 389.604 403.783 382.778 411.783 375.361C419.779 367.947 423.798 360.178 423.798 352.378C423.798 344.578 419.779 336.809 411.783 329.395C403.783 321.978 392.034 315.152 377.248 309.354C347.695 297.765 306.653 290.528 261.159 290.528C215.665 290.528 174.623 297.765 145.07 309.354C130.284 315.152 118.535 321.978 110.535 329.395ZM142.752 303.443C173.213 291.498 215.077 284.178 261.159 284.178C307.241 284.178 349.105 291.498 379.566 303.443C394.786 309.412 407.319 316.598 416.1 324.739C424.886 332.885 430.147 342.222 430.147 352.378C430.147 362.534 424.886 371.871 416.1 380.016C407.319 388.158 394.786 395.344 379.566 401.313C349.105 413.258 307.241 420.577 261.159 420.577C215.077 420.577 173.213 413.258 142.752 401.313C127.532 395.344 114.999 388.158 106.218 380.016C97.4325 371.871 92.1711 362.534 92.1711 352.378C92.1711 342.222 97.4325 332.885 106.218 324.739C114.999 316.598 127.532 309.412 142.752 303.443Z" fill="black"/>
<path fill-rule="evenodd" clip-rule="evenodd" d="M98.4669 339.84C101.336 345.38 106.447 349.272 114.844 353.447C125.889 358.939 133.044 358.361 141.25 357.697C147.048 357.229 153.37 356.718 161.96 358.276C172.575 360.202 179.458 365.677 186.342 371.153C193.22 376.623 200.098 382.095 210.701 384.03C227.566 387.108 239.71 381.4 252.565 375.357C262.321 370.77 272.487 365.992 285.437 364.715C301.198 363.16 313.843 365.875 326.253 368.539C340.267 371.547 353.981 374.491 371.546 371.153C401.342 365.49 420.803 343.008 423.488 339.672C444.174 350.205 456.235 364.869 456.235 375.73C456.235 411.643 368.897 435.878 261.16 435.878C153.424 435.878 66.0859 411.643 66.0859 375.73C66.0859 362.464 78.0044 350.126 98.4669 339.84Z" fill="#74C0FC"/>
<path fill-rule="evenodd" clip-rule="evenodd" d="M114.844 353.447C106.447 349.272 101.336 345.38 98.4668 339.84C89.6526 344.27 82.4238 349.081 77.0499 354.184C78.724 353.243 80.4673 352.317 82.2775 351.407C85.1469 356.947 90.2577 360.839 98.6543 365.014C109.7 370.506 116.855 369.928 125.06 369.264C130.858 368.796 137.181 368.285 145.77 369.843C156.386 371.769 163.269 377.244 170.153 382.72C177.03 388.19 183.909 393.662 194.511 395.597C211.376 398.675 223.52 392.967 236.375 386.924C246.131 382.337 256.297 377.559 269.247 376.281C285.008 374.727 297.653 377.442 310.064 380.106C324.077 383.114 337.792 386.058 355.356 382.72C373.725 379.229 388.166 369.346 397.17 361.497C389.876 365.672 381.26 369.306 371.545 371.153C353.981 374.491 340.267 371.547 326.253 368.539C313.843 365.874 301.198 363.16 285.437 364.714C272.486 365.991 262.321 370.77 252.565 375.356C239.709 381.399 227.566 387.108 210.701 384.03C200.098 382.095 193.22 376.623 186.342 371.152C179.458 365.676 172.575 360.202 161.96 358.276C153.37 356.717 147.047 357.229 141.249 357.697C133.044 358.361 125.889 358.939 114.844 353.447ZM410.054 352.694C429.052 363.091 440.045 376.927 440.045 387.297C440.045 394.2 436.818 400.672 430.84 406.623C447.003 397.847 456.235 387.406 456.235 375.73C456.235 364.868 444.174 350.205 423.488 339.672C422.268 341.187 417.59 346.65 410.054 352.694Z" fill="#228BE6"/>
<path fill-rule="evenodd" clip-rule="evenodd" d="M101.22 331.348L104.105 336.918C106.026 340.628 109.627 343.761 117.671 347.76C127.136 352.467 132.867 352.003 140.737 351.367L140.828 351.36C146.686 350.886 153.686 350.32 163.093 352.027C175.284 354.239 183.239 360.568 190.016 365.96L190.295 366.182C197.219 371.689 202.977 376.164 211.841 377.782C226.497 380.457 236.942 375.683 249.864 369.609L250.134 369.482C259.769 364.952 270.773 359.779 284.814 358.394C301.562 356.742 315.023 359.632 327.354 362.28L327.586 362.329C341.604 365.338 354.184 367.988 370.36 364.914C397.868 359.686 416.113 338.707 418.541 335.69L421.774 331.672L426.369 334.012C437.294 339.575 446.159 346.333 452.377 353.373C458.467 360.266 462.584 368.096 462.584 375.729C462.584 387.559 455.35 397.467 444.688 405.377C433.983 413.317 418.915 419.975 400.917 425.353C364.842 436.132 315.418 442.226 261.16 442.226C206.902 442.226 157.479 436.132 121.404 425.353C103.405 419.975 88.3379 413.317 77.6332 405.377C66.9706 397.467 59.7367 387.559 59.7367 375.729C59.7367 367.059 63.6585 359.195 69.927 352.371C76.1624 345.582 84.9808 339.511 95.6154 334.165L101.22 331.348ZM92.8647 342.827C93.7493 342.325 94.6536 341.828 95.5771 341.335C96.5204 340.831 97.4838 340.332 98.4669 339.838C101.336 345.379 106.447 349.27 114.844 353.445C125.889 358.937 133.044 358.359 141.25 357.696C147.048 357.227 153.37 356.716 161.96 358.274C172.575 360.2 179.458 365.675 186.342 371.151C193.22 376.621 200.098 382.093 210.701 384.028C227.566 387.106 239.71 381.398 252.565 375.355C262.321 370.769 272.487 365.99 285.437 364.713C301.198 363.158 313.843 365.873 326.253 368.537C340.267 371.545 353.981 374.49 371.546 371.151C401.342 365.488 420.803 343.006 423.488 339.67C444.174 350.203 456.235 364.867 456.235 375.729C456.235 411.641 368.897 435.877 261.16 435.877C153.424 435.877 66.0859 411.641 66.0859 375.729C66.0859 363.724 75.8457 352.479 92.8647 342.827Z" fill="black"/>
<path fill-rule="evenodd" clip-rule="evenodd" d="M308.366 145.65C308.403 145.683 308.425 145.728 308.43 145.777C308.985 149.846 309.918 153.854 311.217 157.75C311.249 157.831 311.271 157.916 311.28 158.003L311.344 157.876C317.306 147.249 325.736 138.211 335.923 131.524L335.986 131.46L397.561 65.1982C371.941 58.8241 344.87 66.6553 326.611 85.723C311.667 101.847 304.943 123.934 308.366 145.65V145.65Z" fill="#63E6BE"/>
<path fill-rule="evenodd" clip-rule="evenodd" d="M308.43 145.777C308.425 145.729 308.403 145.683 308.366 145.65C304.943 123.934 311.667 101.848 326.611 85.7232C344.87 66.6556 371.941 58.8243 397.56 65.1984L388.203 75.2684C366.416 73.5757 344.738 81.6647 329.333 97.7522C314.528 113.727 307.791 135.553 310.996 157.073C309.811 153.391 308.953 149.611 308.43 145.777Z" fill="#12B886"/>
<path fill-rule="evenodd" clip-rule="evenodd" d="M302.138 146.632C302.139 146.633 302.139 146.634 302.139 146.635C302.736 151.012 303.732 155.324 305.114 159.518C305.707 161.936 307.676 163.814 310.176 164.256C312.939 164.744 315.694 163.361 316.953 160.855C322.414 151.171 330.112 142.933 339.407 136.832C339.769 136.594 340.106 136.32 340.412 136.014L340.476 135.95C340.53 135.895 340.584 135.839 340.637 135.783L402.212 69.5205C403.741 67.8744 404.287 65.5423 403.646 63.3884C403.006 61.2344 401.274 59.5796 399.093 59.0371C371.265 52.1132 341.859 60.6199 322.025 81.3319L321.954 81.4074C305.687 98.9591 298.368 123.001 302.095 146.639L302.138 146.632ZM302.138 146.632C302.139 146.633 302.139 146.634 302.139 146.635C302.335 148.062 303.026 149.376 304.094 150.347L308.366 145.65L302.138 146.632ZM308.43 145.777C308.599 147.017 308.803 148.252 309.042 149.479C309.588 152.279 310.314 155.042 311.217 157.75C311.226 157.773 311.234 157.796 311.242 157.819C311.242 157.822 311.243 157.824 311.244 157.827C311.261 157.884 311.274 157.943 311.28 158.003L311.344 157.877C311.383 157.807 311.422 157.738 311.461 157.669C311.465 157.662 311.468 157.656 311.472 157.649C312.805 155.291 314.261 153.012 315.83 150.82C321.268 143.225 328.074 136.676 335.923 131.524L335.986 131.461L397.56 65.1985C395.126 64.5927 392.678 64.1153 390.226 63.7636C366.876 60.4141 343.135 68.4675 326.611 85.7232C311.667 101.848 304.943 123.934 308.366 145.65C308.403 145.683 308.425 145.729 308.43 145.777Z" fill="black"/>
<path fill-rule="evenodd" clip-rule="evenodd" d="M196.432 211.467L301.336 162.626L311.282 158.001C300.453 150.232 287.793 145.408 274.54 144.001H274.476L274.35 143.938C261.817 142.695 249.182 144.885 237.798 150.273C214.024 161.767 198.236 185.122 196.432 211.467Z" fill="#8CE99A"/>
<path fill-rule="evenodd" clip-rule="evenodd" d="M201.301 189.727L291.449 147.756C298.494 150.179 305.179 153.622 311.282 158.001L301.336 162.626L196.432 211.467C196.95 203.904 198.62 196.587 201.301 189.727Z" fill="#37B24D"/>
<path fill-rule="evenodd" clip-rule="evenodd" d="M192.838 216.701C194.689 217.973 197.075 218.171 199.111 217.223L313.959 163.759C316.005 162.807 317.392 160.841 317.603 158.595C317.814 156.348 316.816 154.158 314.983 152.843C303.412 144.541 289.909 139.345 275.764 137.748C275.505 137.689 275.242 137.646 274.976 137.62C261.297 136.263 247.506 138.653 235.082 144.534L235.034 144.557C209.208 157.043 192.057 182.415 190.097 211.033C189.944 213.274 190.986 215.43 192.838 216.701ZM274.476 144.002H274.54C285.298 145.143 295.665 148.537 304.979 153.93C307.14 155.181 309.243 156.539 311.282 158.001L196.432 211.467C196.603 208.966 196.9 206.491 197.319 204.051C201.307 180.794 216.282 160.675 237.798 150.273C249.182 144.885 261.817 142.695 274.35 143.938L274.476 144.002Z" fill="black"/>
<path fill-rule="evenodd" clip-rule="evenodd" d="M192.884 112.835L274.35 143.938L274.476 144.002H274.54C287.793 145.408 300.453 150.232 311.282 158.002C311.272 157.915 311.25 157.83 311.218 157.748C309.919 153.853 308.986 149.844 308.431 145.776C308.426 145.727 308.404 145.682 308.368 145.649C301.891 124.647 286.126 107.785 265.608 99.9116C240.803 90.8625 213.052 95.7939 192.884 112.835Z" fill="#63E6BE"/>
<path fill-rule="evenodd" clip-rule="evenodd" d="M281.05 144.979C291.924 147.084 302.241 151.518 311.282 158.005C311.272 157.918 311.251 157.833 311.219 157.751C309.92 153.856 308.986 149.847 308.431 145.778C308.427 145.73 308.404 145.685 308.368 145.652C301.891 124.65 286.127 107.788 265.608 99.9145C258.678 97.3864 251.519 95.9495 244.359 95.563C261.216 104.351 273.998 119.561 279.666 137.941C279.702 137.974 279.725 138.019 279.73 138.068C280.047 140.395 280.488 142.701 281.05 144.979Z" fill="#12B886"/>
<path fill-rule="evenodd" clip-rule="evenodd" d="M186.625 113.899C187.001 116.114 188.52 117.965 190.619 118.766L271.823 149.77C272.537 150.099 273.306 150.291 274.089 150.339C286.169 151.659 297.705 156.075 307.58 163.16C309.621 164.625 312.333 164.748 314.498 163.476C316.664 162.203 317.875 159.774 317.589 157.279C317.526 156.725 317.4 156.181 317.213 155.655C316.058 152.172 315.225 148.59 314.727 144.954C314.652 144.377 314.501 143.816 314.281 143.286C307.137 120.65 290.06 102.494 267.882 93.9837L267.784 93.9468C240.839 84.1171 210.694 89.4739 188.786 107.985C187.07 109.435 186.248 111.684 186.625 113.899ZM308.368 145.649C308.404 145.682 308.426 145.727 308.431 145.776C308.573 146.817 308.74 147.854 308.931 148.887C309.488 151.889 310.252 154.85 311.218 157.748C311.25 157.83 311.272 157.915 311.282 158.002C311.198 157.942 311.114 157.882 311.03 157.822C311.027 157.82 311.023 157.817 311.02 157.815C308.536 156.048 305.956 154.436 303.296 152.984C294.423 148.139 284.654 145.075 274.54 144.002H274.476L274.35 143.938L192.884 112.835C194.8 111.216 196.784 109.706 198.828 108.308C218.298 94.9831 243.16 91.7221 265.608 99.9115C286.126 107.785 301.891 124.647 308.368 145.649Z" fill="black"/>
<path fill-rule="evenodd" clip-rule="evenodd" d="M311.282 158.002H437.978C425.221 134.874 401.04 120.365 374.63 119.993C360.895 119.884 347.44 123.876 335.988 131.459L335.924 131.522C325.738 138.21 317.308 147.248 311.345 157.875L311.282 158.002Z" fill="#8CE99A"/>
<path fill-rule="evenodd" clip-rule="evenodd" d="M311.555 157.504H401.99C392.287 139.91 375.972 127.305 357.094 122.115C362.794 120.667 368.685 119.946 374.63 119.994C401.04 120.366 425.221 134.875 437.978 158.002H311.282L311.345 157.876C311.415 157.751 311.485 157.627 311.555 157.504Z" fill="#37B24D"/>
<path fill-rule="evenodd" clip-rule="evenodd" d="M305.881 161.34C307.038 163.212 309.081 164.351 311.282 164.351H437.978C440.224 164.351 442.303 163.164 443.445 161.23C444.587 159.296 444.622 156.902 443.538 154.935C429.68 129.81 403.41 114.049 374.719 113.645L374.681 113.644C359.682 113.525 344.989 117.884 332.482 126.165C332.352 126.252 332.225 126.343 332.102 126.438C321.216 133.661 312.202 143.372 305.808 154.769C305.759 154.856 305.712 154.945 305.667 155.035L305.603 155.162C304.619 157.13 304.724 159.468 305.881 161.34ZM335.924 131.522L335.988 131.459C347.44 123.876 360.895 119.884 374.63 119.993C398.533 120.33 420.61 132.247 434.044 151.653C435.453 153.688 436.767 155.806 437.978 158.002H311.282L311.345 157.875C312.546 155.735 313.847 153.658 315.243 151.653C320.775 143.702 327.79 136.863 335.924 131.522Z" fill="black"/>
<path fill-rule="evenodd" clip-rule="evenodd" d="M301.335 162.627C307.036 173.903 314.194 194.745 315.461 229.396C338.393 232.944 350.683 224.962 357.081 216.727C350.292 195.38 339.618 175.472 325.597 158.003H311.28L301.335 162.627Z" fill="#FFC078"/>
<path fill-rule="evenodd" clip-rule="evenodd" d="M315.326 226.197C320.966 223.624 325.004 219.993 327.864 216.311C322.24 198.625 313.948 181.926 303.296 166.784C302.63 165.274 301.973 163.891 301.334 162.627L311.28 158.003H325.597C339.618 175.471 350.292 195.38 357.081 216.726C350.683 224.962 338.393 232.943 315.461 229.396C315.422 228.316 315.376 227.25 315.326 226.197Z" fill="#FF922B"/>
<path fill-rule="evenodd" clip-rule="evenodd" d="M295.336 160.547C294.772 162.173 294.892 163.957 295.669 165.492C300.903 175.845 307.878 195.768 309.116 229.628C309.228 232.67 311.482 235.205 314.491 235.671C339.578 239.552 354.207 230.774 362.095 220.622C363.378 218.971 363.765 216.794 363.132 214.802C356.106 192.711 345.059 172.107 330.549 154.028C329.343 152.527 327.522 151.654 325.597 151.654H311.28C310.356 151.654 309.442 151.856 308.603 152.245L298.658 156.87C297.098 157.595 295.899 158.922 295.336 160.547ZM303.696 167.705C302.894 165.833 302.101 164.144 301.335 162.627L311.28 158.003H325.597C339.618 175.471 350.292 195.38 357.081 216.726C350.683 224.962 338.393 232.944 315.461 229.396C314.365 199.404 308.855 179.758 303.696 167.705Z" fill="black"/>
<path fill-rule="evenodd" clip-rule="evenodd" d="M310.278 311.75C310.278 311.75 328.51 319.179 340.848 319.976C353.511 320.795 373.029 315.471 373.029 315.471C372.069 306.402 370.825 291.47 370.712 288.755C369.721 265.033 366.201 239.836 357.448 217.077C351.049 225.312 338.364 234.63 315.432 231.082C316.012 257.91 314.945 285.325 310.278 311.75Z" fill="#FFC078"/>
<path fill-rule="evenodd" clip-rule="evenodd" d="M337.481 319.623C338.638 319.785 339.766 319.906 340.848 319.976C353.512 320.795 373.029 315.471 373.029 315.471C372.07 306.401 370.826 291.469 370.712 288.754C369.721 265.033 366.201 239.836 357.448 217.077C352.128 223.924 342.463 231.519 326.175 231.846C332.251 251.63 334.892 272.72 335.729 292.756C335.843 295.472 337.087 310.404 338.046 319.473C338.046 319.473 337.849 319.526 337.481 319.623Z" fill="#FF922B"/>
<path fill-rule="evenodd" clip-rule="evenodd" d="M307.882 317.63L310.277 311.75C314.572 287.434 315.819 262.28 315.538 237.516C315.513 235.369 315.478 233.224 315.431 231.083C317.647 231.426 319.768 231.648 321.796 231.763C336.385 232.591 346.208 227.855 352.596 222.238C354.509 220.555 356.115 218.793 357.447 217.077C358.321 219.35 359.143 221.646 359.915 223.963C366.878 244.853 369.82 267.402 370.711 288.755C370.825 291.47 372.069 306.402 373.028 315.471L374.699 321.596C377.703 320.777 379.67 317.9 379.342 314.803C378.385 305.751 377.16 290.989 377.055 288.49C376.049 264.389 372.466 238.438 363.373 214.798C362.551 212.66 360.641 211.131 358.375 210.796C356.109 210.462 353.839 211.373 352.433 213.182C347.299 219.791 336.821 227.967 316.402 224.808C314.546 224.521 312.659 225.07 311.247 226.307C309.835 227.544 309.043 229.343 309.083 231.22C309.659 257.81 308.594 284.775 304.025 310.646C303.505 313.592 305.111 316.501 307.882 317.63ZM318.997 321.61C325.182 323.594 333.446 325.861 340.438 326.313C347.615 326.776 356.321 325.514 362.873 324.268C366.225 323.631 369.161 322.968 371.262 322.464C372.314 322.212 373.161 321.998 373.75 321.846C374.045 321.77 374.276 321.71 374.436 321.667L374.623 321.617L374.675 321.603L374.696 321.597C374.697 321.597 374.699 321.596 373.028 315.471C373.028 315.471 353.511 320.795 340.847 319.977C328.51 319.179 310.277 311.75 310.277 311.75C307.882 317.63 307.881 317.63 307.882 317.63L307.89 317.633L307.953 317.659L308.128 317.729C308.278 317.789 308.494 317.875 308.77 317.983C309.321 318.199 310.115 318.505 311.102 318.873C313.073 319.607 315.832 320.595 318.997 321.61Z" fill="black"/>
<path d="M313.679 283.602L289.17 290.604L269.912 311.612L280.416 329.119L318.931 336.122L345.191 329.119L339.939 302.859L313.679 283.602Z" fill="#DEE2E6"/>
<path fill-rule="evenodd" clip-rule="evenodd" d="M289.169 290.604L313.679 283.601L339.939 302.859L345.191 329.119L322.991 335.039L319.924 319.702L293.664 300.445L275.353 305.676L289.169 290.604Z" fill="#ADB5BD"/>
<path fill-rule="evenodd" clip-rule="evenodd" d="M284.49 286.314C285.282 285.45 286.298 284.822 287.426 284.499L311.935 277.497C313.822 276.958 315.852 277.321 317.434 278.482L343.694 297.739C344.973 298.677 345.854 300.059 346.165 301.614L351.417 327.874C352.074 331.16 350.065 334.391 346.827 335.254L320.567 342.257C319.663 342.498 318.716 342.536 317.796 342.369L279.281 335.366C277.483 335.039 275.913 333.953 274.972 332.386L264.468 314.879C263.022 312.469 263.333 309.394 265.232 307.322L284.49 286.314ZM289.17 290.604L313.679 283.602L339.939 302.859L345.191 329.119L318.931 336.122L280.417 329.119L269.913 311.612L289.17 290.604Z" fill="black"/>
<path d="M358.523 301.109L341.017 306.944L332.937 324.451L343.71 336.122H369.297L385.457 327.369L377.377 304.027L358.523 301.109Z" fill="#DEE2E6"/>
<path fill-rule="evenodd" clip-rule="evenodd" d="M341.017 306.945L358.523 301.109L377.377 304.027L385.457 327.369L369.297 336.122H362.576L357.83 322.411L338.977 319.493L334.543 320.971L341.017 306.945Z" fill="#ADB5BD"/>
<path fill-rule="evenodd" clip-rule="evenodd" d="M335.252 304.283C335.986 302.692 337.346 301.475 339.009 300.921L356.516 295.085C357.475 294.765 358.496 294.679 359.495 294.834L378.348 297.752C380.672 298.111 382.607 299.727 383.377 301.949L391.457 325.292C392.474 328.229 391.214 331.471 388.481 332.951L372.321 341.705C371.392 342.208 370.353 342.471 369.297 342.471H343.71C341.938 342.471 340.247 341.731 339.045 340.428L328.271 328.757C326.53 326.871 326.096 324.121 327.172 321.79L335.252 304.283ZM341.017 306.944L358.523 301.109L377.377 304.026L385.457 327.369L369.297 336.122H343.71L332.937 324.451L341.017 306.944Z" fill="black"/>
<path d="M129.4 159.268C141.228 171.319 157.541 165.723 162.332 160.33C160.057 167.176 163.368 184.102 179.719 188.319C175.453 195.708 174.933 211.388 186.713 218.534L188.536 219.522L188.54 219.524C182.908 220.42 177.04 224.723 173.436 230.4C170.447 236.11 169.527 242.961 171.215 248.089C171.329 248.36 171.45 248.63 171.58 248.899L171.488 248.846C171.505 248.888 171.521 248.93 171.538 248.971C158.998 240.477 144.847 248.718 140.547 256.166C128.631 244.269 112.572 249.423 107.919 254.576C110.056 247.97 106.49 231.486 90.2282 227.115C94.5282 219.667 94.5899 203.291 80.9638 196.678C81.0082 196.672 81.0527 196.666 81.0971 196.659L81.0054 196.606C81.3036 196.584 81.5986 196.554 81.8903 196.517C87.1743 195.414 92.6465 191.193 96.0971 185.751C99.2124 179.79 97.9704 170.849 95.9301 165.523L99.7358 168.318C111.814 174.946 125.134 166.656 129.4 159.268Z" fill="#FFD850"/>
<path fill-rule="evenodd" clip-rule="evenodd" d="M128.598 152.969C130.566 152.719 132.538 153.404 133.928 154.82C138.311 159.286 143.369 160.437 147.92 160.018C152.834 159.566 156.478 157.357 157.583 156.113C159.585 153.86 162.894 153.324 165.504 154.831C168.114 156.338 169.305 159.472 168.355 162.332C167.83 163.911 167.739 168.171 169.805 172.653C171.717 176.804 175.243 180.609 181.302 182.172C183.223 182.667 184.803 184.033 185.571 185.862C186.338 187.692 186.207 189.776 185.215 191.494C183.862 193.837 182.851 198.15 183.483 202.631C184.083 206.886 186.053 210.656 189.884 213.032L191.517 213.917C193.88 215.173 195.211 217.785 194.818 220.45C194.414 223.194 192.274 225.358 189.535 225.794C186.15 226.333 181.804 229.195 178.937 233.581C176.705 237.982 176.255 242.787 177.17 245.871C177.211 245.961 177.253 246.051 177.296 246.142C178.232 248.082 178.105 250.319 177.055 252.111C176.671 252.785 176.16 253.397 175.53 253.907C173.357 255.666 170.289 255.796 167.975 254.228C163.63 251.285 159.1 251.198 155.004 252.598C150.659 254.084 147.347 257.083 146.043 259.341C145.057 261.05 143.332 262.203 141.376 262.461C139.42 262.719 137.455 262.054 136.059 260.66C131.579 256.187 126.477 254.98 121.97 255.309C117.094 255.666 113.606 257.749 112.629 258.831C110.623 261.054 107.335 261.572 104.742 260.075C102.149 258.578 100.954 255.472 101.876 252.622C102.324 251.235 102.384 247.173 100.255 242.772C98.2871 238.704 94.6909 234.89 88.5773 233.246C86.672 232.734 85.113 231.365 84.3587 229.542C83.6044 227.719 83.7405 225.649 84.727 223.94C86.0307 221.682 86.9716 217.315 86.0857 212.808C85.2508 208.561 82.91 204.682 78.1891 202.39C75.6741 201.17 74.2533 198.448 74.6898 195.687C74.8157 194.891 75.0876 194.145 75.4771 193.478C76.5021 191.668 78.3788 190.435 80.5313 190.274C80.6316 190.267 80.7311 190.258 80.8296 190.248C83.9523 189.5 87.8795 186.716 90.5744 182.596C91.3442 180.988 91.7426 178.607 91.6025 175.705C91.4592 172.74 90.7806 169.837 89.9983 167.795C88.9906 165.164 89.8368 162.184 92.0768 160.475C94.3167 158.766 97.4147 158.738 99.6854 160.406L103.123 162.93C107.035 164.941 111.205 164.74 115.119 163.161C119.316 161.468 122.546 158.436 123.898 156.093C124.891 154.375 126.629 153.219 128.598 152.969ZM97.8886 174.509C97.8278 173.717 97.738 172.931 97.6238 172.161C97.5841 171.894 97.5414 171.628 97.496 171.364C97.123 169.199 96.5641 167.185 95.9274 165.523L99.7331 168.318C101.044 169.037 102.37 169.581 103.697 169.969C111.874 172.361 120.106 168.848 125.314 164.163C127.048 162.603 128.447 160.913 129.397 159.268C131 160.901 132.685 162.21 134.412 163.239C141.609 167.527 149.544 166.963 155.338 164.757C158.418 163.584 160.892 161.948 162.33 160.33C161.647 162.384 161.467 165.345 161.992 168.599C162.978 174.719 166.457 181.873 173.769 185.962C175.524 186.943 177.5 187.748 179.716 188.319C178.766 189.965 178.002 192.021 177.518 194.303C176.155 200.729 177.015 208.943 182.206 214.794C183.449 216.195 184.941 217.461 186.71 218.534L188.534 219.522C188.534 219.522 188.534 219.522 188.534 219.522C187.625 219.667 186.709 219.903 185.799 220.217C185.752 220.233 185.706 220.249 185.66 220.265C184.153 220.798 182.659 221.55 181.226 222.482C178.208 224.444 175.462 227.204 173.433 230.4C171.665 233.78 170.62 237.559 170.413 241.144C170.384 241.632 170.371 242.116 170.374 242.595C170.386 244.544 170.659 246.409 171.212 248.089C171.31 248.321 171.413 248.553 171.522 248.783C171.528 248.797 171.535 248.811 171.541 248.824C171.553 248.849 171.565 248.874 171.577 248.899L171.485 248.846L171.535 248.971C171.52 248.961 171.505 248.951 171.49 248.941C171.476 248.931 171.462 248.922 171.447 248.912C171.432 248.901 171.416 248.891 171.4 248.88C171.126 248.698 170.852 248.523 170.577 248.356C170.556 248.344 170.536 248.331 170.515 248.319C168.929 247.364 167.323 246.665 165.719 246.189C165.222 246.041 164.726 245.915 164.23 245.809C156.732 244.205 149.436 247.238 144.682 251.33C142.909 252.857 141.489 254.531 140.545 256.166C138.93 254.554 137.239 253.255 135.511 252.227C128.338 247.958 120.522 248.352 114.828 250.376C111.769 251.462 109.322 253.019 107.917 254.576C108.562 252.581 108.687 249.683 108.099 246.491C107.004 240.548 103.437 233.582 96.1547 229.504C94.3998 228.522 92.4293 227.707 90.2256 227.115C91.17 225.479 91.9099 223.413 92.3453 221.113C93.5126 214.95 92.4912 207.116 87.3528 201.424C87.0132 201.047 86.6556 200.68 86.2795 200.324C85.0651 199.173 83.6574 198.132 82.0378 197.236C82.0169 197.225 81.9959 197.213 81.9749 197.202C81.6924 197.047 81.4035 196.896 81.1081 196.75C81.0909 196.742 81.0737 196.733 81.0565 196.725C81.041 196.717 81.0254 196.71 81.0099 196.702C80.9937 196.694 80.9774 196.686 80.9612 196.678L81.0945 196.659L81.0027 196.606C81.0304 196.604 81.058 196.602 81.0856 196.6C81.1007 196.599 81.1158 196.597 81.1309 196.596C81.3855 196.575 81.6377 196.549 81.8876 196.517C83.6187 196.156 85.37 195.46 87.0638 194.496C87.4803 194.259 87.8934 194.005 88.3018 193.737C91.302 191.765 94.0523 188.972 96.0944 185.751C97.7791 182.527 98.1895 178.433 97.8886 174.509Z" fill="black"/>
<circle cx="135.125" cy="208.159" r="32.5065" fill="#FFF845"/>
<path d="M222.735 246.677C217.414 241.362 204.114 241.694 196.134 248.338C204.114 233.388 216.528 232.835 221.405 236.711C233.109 228.137 248.449 233.138 254.656 238.372C241.887 234.385 228.498 242.248 222.735 246.677Z" fill="white"/>
<path d="M147.368 274.348C142.935 270.096 134.363 267.846 127.861 271.097C134.363 261.343 141.605 265.196 145.669 268.297C155.422 261.438 164.954 265.285 170.127 269.471C159.486 266.282 152.171 270.804 147.368 274.348Z" fill="white"/>
<path d="M274.166 254.38C272.541 251.129 271.791 245.132 264.413 249.503C272.541 241.375 274.092 246.252 274.092 250.008C277.418 244.626 279.043 244.626 287.171 250.007C277.226 247.878 277.418 249.503 274.166 254.38Z" fill="white"/>
<ellipse cx="11.8903" cy="13.408" rx="11.8903" ry="13.408" transform="matrix(0.98969 0.143224 -0.20236 0.979311 295.845 154.307)" fill="#624816"/>
<path opacity="0.7" d="M316.668 170.844C316.078 173.697 312.519 167.536 308.881 166.061C306.596 165.134 304.045 169.775 302.909 168.051C301.257 165.545 303.255 162.418 300.919 162.08C296.938 161.504 291.634 174.69 293.132 167.438C294.631 160.186 301.114 155.07 307.613 156.01C314.112 156.951 318.166 163.592 316.668 170.844Z" fill="#E8DCC8"/>
<ellipse cx="321.091" cy="168.91" rx="13.9327" ry="15.782" transform="rotate(-31.9246 321.091 168.91)" fill="#5B400C"/>
<path opacity="0.9" d="M332.916 161.542C335.088 165.028 326.795 155.515 320.823 158.099C318.833 158.96 320.627 168.312 318.833 168.051C315.575 167.577 313.099 162.8 310.872 164.188C306.891 166.178 311.726 179.284 306.891 172.032C302.909 166.061 306.214 159.584 312.745 155.515C319.276 151.446 326.795 151.718 332.916 161.542Z" fill="#F8EDD9"/>
<path d="M407.831 183.175C407.925 182.791 408.388 182.639 408.691 182.892L411.452 185.197C411.588 185.311 411.772 185.349 411.943 185.3L415.396 184.298C415.776 184.188 416.139 184.513 416.072 184.902L415.456 188.445C415.426 188.62 415.484 188.799 415.612 188.922L418.207 191.412C418.491 191.685 418.391 192.163 418.021 192.299L414.645 193.537C414.478 193.598 414.352 193.738 414.31 193.911L413.451 197.403C413.356 197.786 412.893 197.938 412.59 197.685L409.829 195.381C409.693 195.267 409.509 195.228 409.338 195.278L405.885 196.279C405.505 196.389 405.142 196.064 405.21 195.675L405.825 192.132C405.856 191.957 405.797 191.778 405.669 191.655L403.075 189.165C402.79 188.892 402.89 188.414 403.261 188.278L406.636 187.04C406.803 186.979 406.929 186.839 406.971 186.666L407.831 183.175Z" fill="#FFDFAE"/>
<path d="M88.4419 283.619C88.5362 283.236 88.9997 283.084 89.3028 283.337L95.6995 288.677C95.8359 288.791 96.0199 288.83 96.1906 288.78L104.194 286.459C104.573 286.349 104.936 286.674 104.869 287.063L103.442 295.273C103.412 295.448 103.47 295.627 103.599 295.75L109.61 301.52C109.895 301.794 109.795 302.271 109.424 302.407L101.601 305.277C101.434 305.338 101.309 305.478 101.266 305.65L99.275 313.742C99.1807 314.125 98.7172 314.277 98.4141 314.024L92.0174 308.684C91.881 308.57 91.697 308.531 91.5263 308.581L83.5234 310.902C83.1441 311.012 82.7807 310.687 82.8483 310.298L84.2748 302.088C84.3052 301.913 84.2466 301.734 84.1184 301.611L78.1068 295.841C77.8219 295.567 77.922 295.09 78.2927 294.954L86.1158 292.084C86.2826 292.023 86.408 291.883 86.4505 291.711L88.4419 283.619Z" fill="#FFDFAE"/>
<path d="M443.099 297.831C443.473 297.704 443.85 298.014 443.799 298.406L443.336 301.971C443.313 302.148 443.379 302.324 443.512 302.441L446.211 304.818C446.507 305.079 446.427 305.56 446.063 305.712L442.743 307.093C442.579 307.162 442.46 307.307 442.424 307.481L441.715 311.006C441.637 311.394 441.181 311.565 440.867 311.325L438.011 309.141C437.87 309.033 437.684 309.002 437.516 309.059L434.108 310.207C433.734 310.334 433.357 310.024 433.408 309.632L433.871 306.067C433.894 305.89 433.828 305.714 433.695 305.597L430.996 303.22C430.7 302.959 430.78 302.478 431.144 302.326L434.464 300.945C434.628 300.876 434.748 300.731 434.783 300.557L435.492 297.032C435.57 296.644 436.026 296.473 436.34 296.713L439.196 298.897C439.338 299.005 439.523 299.036 439.691 298.979L443.099 297.831Z" fill="#FFDFAE"/>
<path d="M414.982 226.641C415.585 226.377 416.256 226.836 416.228 227.494L415.917 234.846C415.904 235.142 416.039 235.424 416.278 235.6L422.201 239.966C422.731 240.357 422.668 241.168 422.085 241.472L415.562 244.878C415.3 245.015 415.122 245.274 415.089 245.568L414.27 252.881C414.196 253.535 413.463 253.886 412.908 253.533L406.696 249.588C406.447 249.429 406.134 249.405 405.863 249.523L399.12 252.47C398.517 252.733 397.846 252.274 397.874 251.616L398.185 244.264C398.198 243.968 398.063 243.686 397.824 243.51L391.901 239.144C391.371 238.753 391.434 237.943 392.017 237.638L398.54 234.232C398.802 234.095 398.98 233.836 399.012 233.542L399.832 226.229C399.906 225.575 400.639 225.224 401.194 225.577L407.405 229.523C407.655 229.681 407.968 229.706 408.239 229.587L414.982 226.641Z" fill="#FFFDE8"/>
<path d="M150.432 103.846C150.52 103.491 150.948 103.35 151.229 103.584L154.953 106.694C155.079 106.799 155.25 106.835 155.407 106.789L160.067 105.438C160.418 105.336 160.754 105.637 160.691 105.997L159.861 110.777C159.833 110.939 159.887 111.104 160.005 111.218L163.506 114.577C163.769 114.83 163.677 115.272 163.334 115.398L158.779 117.068C158.624 117.125 158.508 117.254 158.469 117.414L157.31 122.125C157.222 122.48 156.794 122.62 156.513 122.386L152.789 119.277C152.663 119.172 152.493 119.136 152.335 119.182L147.675 120.533C147.324 120.635 146.988 120.334 147.051 119.974L147.881 115.194C147.909 115.032 147.855 114.867 147.737 114.753L144.236 111.393C143.973 111.141 144.066 110.699 144.408 110.573L148.963 108.903C149.118 108.846 149.234 108.716 149.273 108.557L150.432 103.846Z" fill="#FFFDE8"/>
<path fill-rule="evenodd" clip-rule="evenodd" d="M144.407 110.573C144.065 110.699 143.972 111.14 144.235 111.393L147.736 114.753C147.854 114.867 147.908 115.032 147.88 115.194L147.05 119.974C146.987 120.334 147.323 120.635 147.674 120.533L152.334 119.182C152.492 119.136 152.662 119.172 152.788 119.277L156.513 122.386C156.793 122.62 157.221 122.48 157.309 122.125L158.468 117.414C158.507 117.254 158.623 117.125 158.778 117.068L163.333 115.397C163.676 115.272 163.768 114.83 163.505 114.577L160.004 111.218C159.886 111.104 159.832 110.938 159.86 110.777L160.69 105.996C160.753 105.637 160.417 105.336 160.066 105.437L155.406 106.789C155.249 106.835 155.078 106.799 154.952 106.694L151.228 103.584C150.947 103.35 150.519 103.491 150.431 103.845L149.272 108.557C149.233 108.716 149.117 108.846 148.962 108.902L144.407 110.573ZM159.021 101.82L159.015 101.815ZM155.297 98.7103L156.63 99.8232L158.298 99.3395C163.157 97.9302 167.812 102.099 166.946 107.083L166.649 108.794L167.901 109.997C171.551 113.5 170.269 119.616 165.519 121.358L163.889 121.956L163.474 123.642C162.265 128.555 156.327 130.503 152.443 127.26L151.11 126.147L149.443 126.631C144.584 128.04 139.928 123.872 140.794 118.887L141.092 117.176L139.839 115.974C136.189 112.471 137.471 106.355 142.221 104.612L143.851 104.014L144.266 102.328C145.475 97.4155 151.413 95.468 155.297 98.7103ZM143.339 119.334C143.337 119.332 143.335 119.33 143.334 119.329ZM154.102 125.28C154.1 125.28 154.098 125.281 154.095 125.282ZM148.719 124.151L148.725 124.156ZM164.633 118.931C164.633 118.934 164.632 118.936 164.632 118.938ZM160.971 123.027C160.969 123.027 160.967 123.028 160.964 123.029ZM164.401 106.637C164.403 106.639 164.405 106.64 164.406 106.642ZM166.117 111.856C166.116 111.859 166.116 111.861 166.115 111.863Z" fill="black"/>
</svg>
