<svg width="512" height="512" viewBox="0 0 512 512" fill="none" xmlns="http://www.w3.org/2000/svg">
<path d="M445.544 167.837C448.494 163.453 450.749 158.492 452.112 153.072C458.437 127.925 443.179 102.412 418.032 96.0873C403.969 92.5502 389.791 95.7629 378.919 103.68C355.258 100.07 334.315 103.409 311.123 107.105C284.277 111.385 254.417 116.145 213.84 111.162C124.213 100.155 42.1975 112.722 57.8014 273.442C57.8864 274.318 57.9784 275.19 58.0773 276.058C56.1129 281.446 55.6697 287.455 57.137 293.444L71.8622 353.545C75.4224 368.076 89.0121 377.515 103.463 376.304L107.252 391.765C107.871 394.295 110.425 395.844 112.955 395.224C115.485 394.604 117.034 392.051 116.414 389.52L113.719 378.522C127.807 390.593 143.062 399.816 157.666 406.075C201.357 424.8 316.826 431.042 393.285 379.549C447.252 343.204 462.78 235.9 445.544 167.837Z" fill="white"/>
<path d="M114.452 401.332C118.535 400.332 121.522 397.174 122.498 393.369C133.265 401.047 144.383 407.225 155.189 411.856C178.229 421.73 219.08 427.992 263.55 425.422C308.122 422.847 357.325 411.349 396.798 384.765C425.781 365.246 443.661 327.395 452.267 286.894C460.7 247.206 460.536 203.601 452.29 168.939C454.895 164.577 456.912 159.772 458.211 154.606C465.383 126.091 448.081 97.1604 419.566 89.9882C404.532 86.207 389.378 89.234 377.373 97.1057C353.758 93.9403 332.684 97.3 310.521 100.833L310.133 100.895C283.361 105.163 254.247 109.788 214.607 104.92C169.784 99.4149 124.563 99.3859 92.6363 122.836C60.164 146.686 43.6672 192.941 51.5418 274.05C51.5842 274.486 51.6282 274.921 51.6738 275.356C49.7247 281.497 49.3863 288.238 51.0287 294.941L65.7538 355.042C69.6101 370.781 83.1873 381.575 98.5347 382.615L101.143 393.262C102.59 399.166 108.548 402.779 114.452 401.332Z" stroke="white" stroke-width="12.578" stroke-linecap="round" stroke-linejoin="round"/>
<path d="M57.7982 273.442C64.464 342.099 113.972 387.35 157.663 406.075C201.354 424.8 316.823 431.041 393.282 379.549C469.741 328.056 469.043 134.126 407.326 111.162C340.229 86.1957 302.779 122.084 213.837 111.161C124.21 100.154 42.1943 112.722 57.7982 273.442Z" fill="#5BB0FF"/>
<path fill-rule="evenodd" clip-rule="evenodd" d="M155.185 411.856C110.019 392.499 58.4854 345.606 51.5381 274.05C43.6635 192.941 60.1603 146.686 92.6326 122.835C124.559 99.3859 169.78 99.4149 214.603 104.919C254.271 109.791 283.339 105.161 310.161 100.889C312.728 100.48 315.274 100.075 317.807 99.6811C346.96 95.1507 374.418 92.2074 409.518 105.268C427.637 112.01 440.124 130.715 447.874 153.521C455.723 176.614 459.256 205.397 458.406 234.839C457.555 264.305 452.304 294.797 442.296 321.338C432.315 347.803 417.386 370.897 396.795 384.765C357.321 411.349 308.119 422.847 263.547 425.422C219.076 427.992 178.225 421.73 155.185 411.856ZM157.663 406.075C113.972 387.351 64.4635 342.099 57.7977 273.442C42.1938 112.722 124.209 100.155 213.837 111.162C254.414 116.145 284.273 111.385 311.12 107.105C343.119 102.004 370.839 97.5858 407.325 111.162C469.043 134.126 469.741 328.056 393.282 379.549C316.822 431.042 201.354 424.8 157.663 406.075Z" fill="black"/>
<mask id="mask0_39_3233" style="mask-type:alpha" maskUnits="userSpaceOnUse" x="55" y="102" width="398" height="318">
<path d="M57.7982 273.442C64.464 342.099 113.972 387.35 157.663 406.075C201.354 424.8 316.823 431.041 393.282 379.549C469.741 328.056 469.043 134.126 407.326 111.162C340.229 86.1957 302.779 122.084 213.837 111.161C124.21 100.154 42.1943 112.722 57.7982 273.442Z" fill="#92BDFF"/>
</mask>
<g mask="url(#mask0_39_3233)">
<path d="M84.5848 347.499H455.637V432.401H84.5848V347.499Z" fill="#FFF7AA"/>
<path fill-rule="evenodd" clip-rule="evenodd" d="M449.353 354.343H90.8684V425.557H449.353V354.343ZM84.5848 347.499V432.401H455.637V347.499H84.5848Z" fill="black"/>
<path d="M96.8069 368.626H202.913V381.109H96.8069V368.626Z" fill="#BD9C6A" fill-opacity="0.4"/>
<path d="M231.001 368.626H337.108V381.109H231.001V368.626Z" fill="#BD9C6A" fill-opacity="0.4"/>
<path d="M365.196 368.626H471.302V381.109H365.196V368.626Z" fill="#BD9C6A" fill-opacity="0.4"/>
</g>
<path d="M94.2421 176.974C94.2421 179.712 92.0218 181.933 89.2829 181.933C86.544 181.933 84.3237 179.712 84.3237 176.974C84.3237 174.235 86.544 172.014 89.2829 172.014C92.0218 172.014 94.2421 174.235 94.2421 176.974Z" fill="#98F3AD"/>
<path d="M74.8308 196.915C74.8308 198.602 73.4631 199.97 71.7759 199.97C70.0888 199.97 68.7211 198.602 68.7211 196.915C68.7211 195.228 70.0888 193.86 71.7759 193.86C73.4631 193.86 74.8308 195.228 74.8308 196.915Z" fill="#98F3AD"/>
<path d="M437.795 195.2C440.215 195.94 441.577 198.502 440.837 200.922C440.097 203.342 437.535 204.704 435.115 203.964C432.695 203.224 431.333 200.662 432.073 198.242C432.813 195.822 435.375 194.46 437.795 195.2Z" fill="#FB6262"/>
<path d="M306.54 120.051C308.504 120.652 309.61 122.732 309.009 124.696C308.408 126.661 306.329 127.767 304.364 127.166C302.399 126.565 301.294 124.485 301.895 122.521C302.495 120.556 304.575 119.45 306.54 120.051Z" fill="#FFF595"/>
<path d="M440.485 277.342C443.104 278.143 444.578 280.915 443.777 283.534C442.976 286.153 440.204 287.627 437.585 286.826C434.966 286.026 433.492 283.253 434.293 280.634C435.093 278.015 437.866 276.541 440.485 277.342Z" fill="#98F3AD"/>
<path d="M177.948 136.125C177.948 140.434 174.455 143.927 170.146 143.927C165.837 143.927 162.344 140.434 162.344 136.125C162.344 131.816 165.837 128.323 170.146 128.323C174.455 128.323 177.948 131.816 177.948 136.125Z" fill="#FB6262"/>
<path d="M452.111 153.071C445.786 178.218 420.273 193.477 395.126 187.152C369.979 180.827 354.721 155.314 361.046 130.167C367.371 105.02 392.884 89.7614 418.031 96.0864C443.178 102.411 458.436 127.924 452.111 153.071Z" fill="#69DB7C"/>
<path fill-rule="evenodd" clip-rule="evenodd" d="M396.528 181.576C418.596 187.127 440.985 173.737 446.535 151.669C452.086 129.601 438.696 107.212 416.628 101.662C394.561 96.1116 372.172 109.501 366.621 131.569C361.071 153.637 374.461 176.026 396.528 181.576ZM395.126 187.152C420.273 193.477 445.786 178.218 452.111 153.071C458.436 127.924 443.178 102.411 418.031 96.0864C392.884 89.7614 367.371 105.02 361.046 130.167C354.721 155.314 369.979 180.827 395.126 187.152Z" fill="#43B864"/>
<path fill-rule="evenodd" clip-rule="evenodd" d="M458.209 154.605C451.037 183.12 422.106 200.422 393.591 193.25C365.075 186.078 347.773 157.147 354.945 128.632C362.117 100.116 391.048 82.8142 419.563 89.9864C448.079 97.1585 465.381 126.089 458.209 154.605ZM395.125 187.151C420.272 193.476 445.785 178.218 452.11 153.07C458.435 127.923 443.176 102.41 418.029 96.0854C392.882 89.7605 367.369 105.019 361.044 130.166C354.719 155.313 369.978 180.826 395.125 187.151Z" fill="black"/>
<path fill-rule="evenodd" clip-rule="evenodd" d="M417.722 122.756L433.081 141.714C433.493 142.223 433.308 142.985 432.708 143.248L410.083 153.182C409.327 153.514 408.519 152.832 408.721 152.031L411.303 141.764L397.299 138.242C396.767 138.108 396.227 138.431 396.094 138.962L392.916 151.598C392.381 153.725 390.223 155.015 388.096 154.48C385.969 153.945 384.678 151.787 385.213 149.66L388.391 137.025C389.595 132.239 394.45 129.335 399.236 130.539L413.24 134.062L415.988 123.139C416.187 122.346 417.207 122.121 417.722 122.756Z" fill="#212529"/>
<path d="M96.8101 187.13C96.8101 179.942 102.637 174.115 109.826 174.115L408.356 174.115C415.544 174.115 421.371 179.942 421.371 187.13V320.429C421.371 327.617 415.544 333.445 408.356 333.445H109.826C102.637 333.445 96.8101 327.617 96.8101 320.429V187.13Z" fill="#FFD74A"/>
<path fill-rule="evenodd" clip-rule="evenodd" d="M109.825 167.825H408.356C419.017 167.825 427.66 176.468 427.66 187.13V320.429C427.66 331.091 419.017 339.734 408.356 339.734H109.825C99.1638 339.734 90.5209 331.091 90.5209 320.429V187.13C90.5209 176.468 99.1638 167.825 109.825 167.825ZM109.825 174.114C102.637 174.114 96.8099 179.942 96.8099 187.13V320.429C96.8099 327.617 102.637 333.445 109.825 333.445H408.356C415.544 333.445 421.371 327.617 421.371 320.429V187.13C421.371 179.942 415.544 174.114 408.356 174.114H109.825Z" fill="black"/>
<path d="M96.8101 187.13C96.8101 179.942 102.637 174.115 109.826 174.115L408.356 174.115C415.544 174.115 421.371 179.942 421.371 187.13V194.768H96.8101V187.13Z" fill="#FFF4CD" fill-opacity="0.82"/>
<path d="M247.289 215.423H311.721V333.445H247.289V215.423Z" fill="#FFEC99"/>
<path fill-rule="evenodd" clip-rule="evenodd" d="M308.748 218.396H250.262V330.472H308.748V218.396ZM247.289 215.423V333.445H311.721V215.423H247.289Z" fill="#C69E10"/>
<path fill-rule="evenodd" clip-rule="evenodd" d="M281.231 215.411V333.455H278.258V215.411H281.231Z" fill="#C69E10"/>
<path d="M388.168 333.778C388.168 348.237 376.446 359.959 361.986 359.959C347.527 359.959 335.805 348.237 335.805 333.778C335.805 319.318 347.527 307.596 361.986 307.596C376.446 307.596 388.168 319.318 388.168 333.778Z" fill="#868E96"/>
<path fill-rule="evenodd" clip-rule="evenodd" d="M361.988 312.153C350.044 312.153 340.362 321.835 340.362 333.779C340.362 345.723 350.044 355.405 361.988 355.405C373.931 355.405 383.614 345.723 383.614 333.779C383.614 321.835 373.931 312.153 361.988 312.153ZM331.251 333.779C331.251 316.803 345.012 303.042 361.988 303.042C378.963 303.042 392.724 316.803 392.724 333.779C392.724 350.754 378.963 364.516 361.988 364.516C345.012 364.516 331.251 350.754 331.251 333.779Z" fill="#212529"/>
<path d="M371.116 333.778C371.116 338.82 367.029 342.908 361.987 342.908C356.944 342.908 352.857 338.82 352.857 333.778C352.857 328.736 356.944 324.648 361.987 324.648C367.029 324.648 371.116 328.736 371.116 333.778Z" fill="#212529"/>
<path d="M193.43 333.778C193.43 348.237 181.708 359.959 167.248 359.959C152.789 359.959 141.067 348.237 141.067 333.778C141.067 319.318 152.789 307.596 167.248 307.596C181.708 307.596 193.43 319.318 193.43 333.778Z" fill="#868E96"/>
<path fill-rule="evenodd" clip-rule="evenodd" d="M167.25 312.153C155.306 312.153 145.624 321.835 145.624 333.779C145.624 345.723 155.306 355.405 167.25 355.405C179.193 355.405 188.876 345.723 188.876 333.779C188.876 321.835 179.193 312.153 167.25 312.153ZM136.513 333.779C136.513 316.803 150.274 303.042 167.25 303.042C184.225 303.042 197.987 316.803 197.987 333.779C197.987 350.754 184.225 364.516 167.25 364.516C150.274 364.516 136.513 350.754 136.513 333.779Z" fill="#212529"/>
<path d="M176.378 333.778C176.378 338.82 172.291 342.908 167.249 342.908C162.206 342.908 158.119 338.82 158.119 333.778C158.119 328.736 162.206 324.648 167.249 324.648C172.291 324.648 176.378 328.736 176.378 333.778Z" fill="#212529"/>
<path d="M332.854 250.829C332.854 229.645 350.027 212.472 371.211 212.472H421.371V250.829H332.854Z" fill="#BAC8FF"/>
<path d="M409.371 212.285H421.051L394.772 250.019H380.172L409.371 212.285Z" fill="white" fill-opacity="0.37"/>
<path d="M395.895 212.285H402.184L367.594 250.019H358.16L395.895 212.285Z" fill="white" fill-opacity="0.37"/>
<path d="M388.915 271.484H421.371V286.236H388.915V271.484Z" fill="#EAA51E"/>
<path d="M385.964 271.484H371.211V286.236H385.964V271.484Z" fill="#EAA51E"/>
<path d="M359.41 271.484H368.262V286.236H359.41V271.484Z" fill="#EAA51E"/>
<path d="M182.375 212.472H220.732V250.829H182.375V212.472Z" fill="#BAC8FF"/>
<path fill-rule="evenodd" clip-rule="evenodd" d="M180.889 212.472C180.889 211.651 181.554 210.986 182.375 210.986H220.732C221.553 210.986 222.219 211.651 222.219 212.472V250.83C222.219 251.651 221.553 252.316 220.732 252.316H182.375C181.554 252.316 180.889 251.651 180.889 250.83V212.472ZM183.862 213.959V249.343H219.246V213.959H183.862Z" fill="#E4F2FF"/>
<path d="M129.265 212.472H167.622V250.829H129.265V212.472Z" fill="#BAC8FF"/>
<path fill-rule="evenodd" clip-rule="evenodd" d="M127.779 212.472C127.779 211.651 128.445 210.986 129.266 210.986H167.623C168.444 210.986 169.109 211.651 169.109 212.472V250.83C169.109 251.651 168.444 252.316 167.623 252.316H129.266C128.445 252.316 127.779 251.651 127.779 250.83V212.472ZM130.752 213.959V249.343H166.136V213.959H130.752Z" fill="#E4F2FF"/>
<path d="M312.541 167.874C312.541 159.82 319.069 153.291 327.123 153.291H368.431C376.485 153.291 383.013 159.82 383.013 167.874H312.541Z" fill="#FFEC99"/>
<path fill-rule="evenodd" clip-rule="evenodd" d="M313.963 161.585C313.051 163.489 312.54 165.622 312.54 167.874H383.013V174.163H312.54C309.067 174.163 306.251 171.347 306.251 167.874C306.251 156.347 315.596 147.002 327.123 147.002H368.431C379.958 147.002 389.302 156.347 389.302 167.874H383.013C383.013 165.622 382.503 163.489 381.591 161.585C379.243 156.68 374.233 153.291 368.431 153.291H327.123C321.321 153.291 316.311 156.68 313.963 161.585Z" fill="black"/>
<path d="M276.792 274.434C276.792 276.064 275.471 277.385 273.842 277.385C272.212 277.385 270.891 276.064 270.891 274.434C270.891 272.805 272.212 271.484 273.842 271.484C275.471 271.484 276.792 272.805 276.792 274.434Z" fill="#C69E10"/>
<path d="M288.596 274.434C288.596 276.064 287.275 277.385 285.646 277.385C284.016 277.385 282.695 276.064 282.695 274.434C282.695 272.805 284.016 271.484 285.646 271.484C287.275 271.484 288.596 272.805 288.596 274.434Z" fill="#C69E10"/>
<path d="M96.8099 265.582H247.288V268.532H96.8099V265.582Z" fill="#C69E10"/>
<path d="M309.249 265.582H421.37V268.532H309.249V265.582Z" fill="#C69E10"/>
<path d="M57.1359 293.444C53.1939 277.354 63.0413 261.115 79.1309 257.173C95.2205 253.231 111.459 263.078 115.401 279.168L130.127 339.269C134.069 355.358 124.221 371.597 108.132 375.539C92.042 379.481 75.8032 369.634 71.8611 353.544L57.1359 293.444Z" fill="#495057"/>
<path fill-rule="evenodd" clip-rule="evenodd" d="M105.493 364.776C108.004 364.161 110.538 365.698 111.153 368.209L116.376 389.526C116.991 392.037 115.455 394.572 112.944 395.187C110.432 395.802 107.898 394.265 107.283 391.754L102.06 370.437C101.445 367.926 102.982 365.391 105.493 364.776Z" fill="#495057"/>
<path fill-rule="evenodd" clip-rule="evenodd" d="M51.0263 294.939C46.2577 275.476 58.1699 255.833 77.633 251.064C97.0962 246.295 116.74 258.208 121.508 277.671L136.234 337.771C140.093 353.523 133.029 369.385 119.88 377.395L122.486 388.031C123.928 393.915 120.326 399.855 114.441 401.296C108.557 402.738 102.618 399.137 101.176 393.252L98.5701 382.616C83.2072 381.592 69.6109 370.792 65.7515 355.04L51.0263 294.939ZM103.497 376.3C89.0325 377.53 75.423 368.086 71.8598 353.543L57.1347 293.443C53.1926 277.353 63.0401 261.114 79.1296 257.172C95.2192 253.23 111.458 263.078 115.4 279.167L130.125 339.268C133.688 353.811 125.986 368.476 112.591 374.072L116.378 389.527C116.993 392.038 115.456 394.573 112.945 395.188C110.434 395.803 107.899 394.266 107.284 391.755L103.497 376.3Z" fill="black"/>
<path d="M98.065 279.91C99.7711 286.874 95.5091 293.902 88.5456 295.608C81.5822 297.314 74.5541 293.052 72.848 286.089C71.1419 279.125 75.4038 272.097 82.3673 270.391C89.3308 268.685 96.3588 272.947 98.065 279.91Z" fill="#F03E3E"/>
<path fill-rule="evenodd" clip-rule="evenodd" d="M82.8161 272.222C76.8647 273.68 73.2222 279.687 74.6803 285.638C76.1385 291.59 82.1451 295.232 88.0965 293.774C94.0479 292.316 97.6905 286.309 96.2323 280.358C94.7742 274.406 88.7675 270.764 82.8161 272.222ZM71.0153 286.536C69.0613 278.561 73.9426 270.511 81.9182 268.557C89.8937 266.603 97.9433 271.484 99.8973 279.46C101.851 287.435 96.97 295.485 88.9945 297.439C81.0189 299.393 72.9694 294.512 71.0153 286.536Z" fill="#212529"/>
<g style="mix-blend-mode:multiply">
<path fill-rule="evenodd" clip-rule="evenodd" d="M87.193 293.492C91.6941 291.47 94.2252 286.311 92.9631 281.159C91.701 276.008 87.0721 272.604 82.1462 272.891C82.6931 272.645 83.2691 272.446 83.8709 272.299C89.4256 270.938 95.076 274.518 96.4915 280.295C97.9069 286.072 94.5514 291.859 88.9967 293.22C88.3948 293.367 87.7917 293.457 87.193 293.492Z" fill="#DEE2E6"/>
</g>
<g style="mix-blend-mode:soft-light" opacity="0.8">
<path d="M81.3446 279.159C81.5205 277.387 79.4823 276.251 77.7722 278.665C75.1192 282.41 78.0421 287.529 79.0427 288.707C80.0433 289.886 83.0173 289.157 82.0517 285.631C81.086 282.105 81.1686 280.931 81.3446 279.159Z" fill="#F8F9FA"/>
</g>
<path d="M114.411 346.627C116.117 353.59 111.855 360.618 104.892 362.325C97.9281 364.031 90.9 359.769 89.1939 352.805C87.4878 345.842 91.7497 338.814 98.7132 337.108C105.677 335.402 112.705 339.663 114.411 346.627Z" fill="#69DB7C"/>
<path fill-rule="evenodd" clip-rule="evenodd" d="M99.162 338.939C93.2106 340.397 89.5681 346.403 91.0263 352.355C92.4844 358.306 98.491 361.949 104.442 360.491C110.394 359.032 114.036 353.026 112.578 347.074C111.12 341.123 105.113 337.48 99.162 338.939ZM87.3613 353.253C85.4072 345.277 90.2886 337.228 98.2641 335.274C106.24 333.32 114.289 338.201 116.243 346.176C118.197 354.152 113.316 362.201 105.34 364.156C97.3649 366.11 89.3153 361.228 87.3613 353.253Z" fill="#212529"/>
<g style="mix-blend-mode:multiply">
<path fill-rule="evenodd" clip-rule="evenodd" d="M103.539 360.208C108.04 358.186 110.571 353.027 109.309 347.876C108.047 342.725 103.418 339.321 98.4922 339.608C99.0391 339.362 99.6151 339.163 100.217 339.015C105.772 337.655 111.422 341.235 112.837 347.012C114.253 352.789 110.897 358.576 105.343 359.937C104.741 360.084 104.138 360.173 103.539 360.208Z" fill="#DEE2E6"/>
</g>
<g style="mix-blend-mode:soft-light" opacity="0.8">
<path d="M97.6353 345.649C97.8112 343.876 95.7731 342.741 94.063 345.155C91.4099 348.899 94.3328 354.018 95.3334 355.197C96.334 356.375 99.308 355.647 98.3424 352.121C97.3768 348.594 97.4593 347.421 97.6353 345.649Z" fill="#F8F9FA"/>
</g>
<path d="M106.24 313.268C107.946 320.231 103.684 327.26 96.7203 328.966C89.7568 330.672 82.7287 326.41 81.0226 319.446C79.3165 312.483 83.5785 305.455 90.5419 303.749C97.5054 302.043 104.533 306.305 106.24 313.268Z" fill="#FFE066"/>
<path fill-rule="evenodd" clip-rule="evenodd" d="M90.9909 305.58C85.0395 307.038 81.397 313.045 82.8551 318.996C84.3133 324.948 90.3199 328.59 96.2713 327.132C102.223 325.674 105.865 319.667 104.407 313.716C102.949 307.764 96.9423 304.122 90.9909 305.58ZM79.1901 319.894C77.2361 311.919 82.1174 303.869 90.0929 301.915C98.0684 299.961 106.118 304.842 108.072 312.818C110.026 320.793 105.145 328.843 97.1692 330.797C89.1937 332.751 81.1442 327.87 79.1901 319.894Z" fill="#212529"/>
<g style="mix-blend-mode:multiply">
<path fill-rule="evenodd" clip-rule="evenodd" d="M95.3679 326.85C99.869 324.827 102.4 319.669 101.138 314.517C99.8759 309.366 95.247 305.962 90.3212 306.249C90.8681 306.003 91.444 305.804 92.0458 305.657C97.6005 304.296 103.251 307.876 104.666 313.653C106.082 319.43 102.726 325.217 97.1717 326.578C96.5697 326.725 95.9666 326.815 95.3679 326.85Z" fill="#DEE2E6"/>
</g>
<g style="mix-blend-mode:soft-light" opacity="0.8">
<path d="M89.6607 313.085C89.8366 311.312 87.7985 310.177 86.0883 312.591C83.4353 316.336 86.3582 321.454 87.3588 322.633C88.3594 323.812 91.3334 323.083 90.3678 319.557C89.4022 316.031 89.4847 314.857 89.6607 313.085Z" fill="#F8F9FA"/>
</g>
</svg>
