<svg width="512" height="512" viewBox="0 0 512 512" fill="none" xmlns="http://www.w3.org/2000/svg">
<path d="M248.325 105.214C277.461 87.9927 308.101 69.8822 351.469 76.2913C446.265 90.3008 495.668 220.913 445.579 325.055L457.119 340.802H437.109C430.554 351.769 422.795 362.338 413.763 372.326C328.95 466.117 180.56 447.138 111.706 383.875C110.138 383.41 108.883 382.215 108.337 380.683C105.565 377.971 102.937 375.184 100.463 372.326C26.5067 286.901 21.6795 92.5368 153.595 128.639C156.208 129.354 158.772 129.94 161.293 130.406L164.517 126.206L168.336 131.416C198.783 134.497 222.985 120.192 248.325 105.214Z" fill="#9E4E21"/>
<path d="M158.591 123.116C157.515 122.865 156.429 122.589 155.333 122.289C120.829 112.847 93.9747 118.221 74.9645 134.467C56.2624 150.45 46.4015 175.916 43.2839 204.188C37.0596 260.633 57.2231 332.438 95.4858 376.635C97.8237 379.335 100.288 381.97 102.869 384.535C104.05 386.715 105.9 388.475 108.151 389.542C143.971 421.952 199.454 442.634 256.641 443.578C314.442 444.531 374.718 425.319 418.645 376.741C427.088 367.405 434.457 357.572 440.803 347.384H457.119C459.6 347.384 461.869 345.99 462.991 343.778C464.112 341.566 463.895 338.911 462.429 336.91L453.197 324.314C477.372 271.451 477.147 212.481 459.013 164.544C440.484 115.563 402.827 77.2269 352.431 69.7792C306.755 63.0289 274.357 82.1793 245.428 99.2793L244.975 99.5473C220.218 114.18 198.514 126.798 171.871 125.103L169.827 122.315C168.602 120.643 166.662 119.646 164.59 119.623C162.519 119.601 160.557 120.554 159.295 122.198L158.591 123.116Z" stroke="white" stroke-width="13.1657" stroke-linecap="round" stroke-linejoin="round"/>
<path d="M351.951 73.035C307.428 66.4552 275.907 85.0872 246.881 102.244L246.413 102.521C217.082 119.857 190.518 135.331 154.465 125.464C120.723 116.23 95.0797 121.606 77.1034 136.969C59.281 152.2 49.6243 176.724 46.556 204.549C40.4247 260.149 60.3544 331.026 97.9747 374.48C129.937 411.399 186.733 436.495 246.7 439.918C306.756 443.347 370.509 425.067 416.205 374.534C465.271 320.274 477.357 249.184 463.238 189.614C449.141 130.136 408.667 81.4169 351.951 73.035Z" fill="#295A76" stroke="black" stroke-width="6.58286"/>
<circle cx="325.416" cy="115.958" r="27.2009" fill="#FFE24D" stroke="black" stroke-width="6.58286"/>
<path d="M330.785 161.41C335.613 166.239 356.884 166.534 361.525 161.41C376.01 166.239 385.435 163.118 390.558 159.703C395.682 156.287 397.389 151.163 393.974 147.748C388.248 142.022 379.212 143.125 375.188 144.332C374.383 141.918 367.747 136.5 356.884 134.085C343.387 131.086 324.66 134.882 322.245 140.917C305.167 140.917 306.567 156.081 311.999 159.703C317.43 163.324 325.152 163.02 330.785 161.41Z" fill="#8EB5CB"/>
<path fill-rule="evenodd" clip-rule="evenodd" d="M329.491 168.476C323.209 169.679 314.956 169.586 308.347 165.18L308.347 165.18C305.432 163.236 303.595 160.19 302.647 157.276C301.671 154.277 301.409 150.755 302.311 147.292C303.239 143.732 305.386 140.327 308.988 137.89C311.721 136.041 315.024 134.928 318.79 134.516C320.358 132.939 322.219 131.804 323.825 130.998C326.815 129.497 330.41 128.397 334.123 127.657C341.519 126.185 350.514 125.927 358.312 127.659C364.468 129.028 369.546 131.27 373.31 133.635C375.048 134.726 376.577 135.889 377.829 137.067C379.837 136.797 382.113 136.683 384.488 136.88C388.965 137.252 394.327 138.791 398.629 143.093C402.152 146.616 403.067 151.305 401.774 155.617C400.575 159.613 397.657 162.882 394.21 165.18C387.793 169.458 377.314 172.646 362.68 168.639C360.739 169.657 358.661 170.271 356.899 170.671C353.574 171.425 349.81 171.746 346.188 171.725C342.56 171.705 338.813 171.34 335.508 170.586C333.65 170.162 331.485 169.52 329.491 168.476ZM361.526 161.41C356.884 166.534 335.613 166.239 330.785 161.41C325.152 163.02 317.431 163.324 311.999 159.703C306.567 156.081 305.167 140.917 322.246 140.917C324.66 134.882 343.387 131.086 356.884 134.086C367.748 136.5 374.383 141.918 375.188 144.332C379.212 143.125 388.248 142.022 393.974 147.748C397.39 151.164 395.682 156.287 390.558 159.703C385.435 163.118 376.01 166.239 361.526 161.41Z" fill="black"/>
<path d="M391.268 326.408V380.643" stroke="black" stroke-width="6.58286" stroke-linecap="round" stroke-linejoin="round"/>
<mask id="mask0_39_2063" style="mask-type:alpha" maskUnits="userSpaceOnUse" x="48" y="74" width="418" height="364">
<path d="M351.47 76.2908C264.499 63.4377 228.715 149.196 153.596 128.638C21.6803 92.5363 26.5075 286.9 100.463 372.326C162.973 444.529 323.987 471.606 413.764 372.326C510.285 265.587 461.4 92.5368 351.47 76.2908Z" fill="#FDFF97"/>
</mask>
<g mask="url(#mask0_39_2063)">
<path fill-rule="evenodd" clip-rule="evenodd" d="M245.419 99.2851C274.35 82.1835 306.752 63.0293 352.431 69.78C410.899 78.4208 452.143 128.535 466.44 188.856C480.78 249.361 468.516 321.592 418.645 376.742C372.142 428.168 307.334 446.678 246.512 443.206C185.867 439.744 128.155 414.372 95.4853 376.636C57.2226 332.439 37.0591 260.633 43.2834 204.189C46.401 175.917 56.2619 150.451 74.964 134.468C93.9742 118.221 120.829 112.847 155.332 122.29C189.879 131.745 215.283 117.098 244.738 99.6882L245.419 99.2851ZM248.324 105.215C277.46 87.9935 308.101 69.883 351.469 76.2921C461.398 92.5381 510.284 265.588 413.762 372.327C323.986 471.607 162.971 444.531 100.462 372.327C26.5063 286.901 21.679 92.5376 153.595 128.64C191.256 138.946 219.03 122.53 248.324 105.215Z" fill="black"/>
<path d="M281.012 375.882C241.043 329.264 123.436 322.451 65.8272 353.619L74.2991 440.445L281.012 375.882Z" fill="#4CB65D"/>
<path fill-rule="evenodd" clip-rule="evenodd" d="M62.6947 347.829C60.3655 349.089 59.0182 351.622 59.2754 354.258L67.7472 441.084C67.9396 443.056 69.0102 444.836 70.6617 445.931C72.3133 447.026 74.3701 447.319 76.2615 446.728L282.975 382.165C285.088 381.505 286.728 379.827 287.339 377.699C287.95 375.57 287.451 373.278 286.01 371.597C264.321 346.3 222.752 332.705 180.607 329.023C138.25 325.322 93.0207 331.421 62.6947 347.829ZM275.946 370.567C231.888 328.787 121.171 323.676 65.8271 353.619L74.299 440.444L281.012 375.882C279.441 374.049 277.749 372.277 275.946 370.567Z" fill="black"/>
<path d="M75.0825 446.903C196.028 361.445 354.435 307.322 512.843 446.903L397.361 446.903L75.0825 446.903Z" fill="#69DB7C"/>
<path fill-rule="evenodd" clip-rule="evenodd" d="M519.001 449.229C518.034 451.791 515.581 453.486 512.843 453.486L75.083 453.486C72.2151 453.486 69.6772 451.629 68.809 448.896C67.9408 446.163 68.942 443.182 71.2842 441.527C132.236 398.459 203.186 362.869 279.32 355.957C355.743 349.019 436.713 371.047 517.195 441.964C519.249 443.774 519.969 446.667 519.001 449.229ZM75.083 446.903L512.843 446.903C510.296 444.659 507.749 442.465 505.203 440.32C353.46 312.53 202.269 360.114 84.5678 440.32C81.3815 442.492 78.2196 444.687 75.083 446.903Z" fill="black"/>
</g>
<path d="M351.951 73.035C307.428 66.4552 275.907 85.0872 246.881 102.244L246.413 102.521C217.082 119.857 190.518 135.331 154.465 125.464C120.723 116.23 95.0796 121.606 77.1033 136.969C59.2809 152.2 49.6242 176.724 46.5559 204.549C40.4246 260.149 60.3543 331.025 97.9746 374.48C129.937 411.399 186.733 436.495 246.7 439.918C306.756 443.347 370.509 425.067 416.205 374.534C465.27 320.274 477.357 249.184 463.238 189.614C449.141 130.136 408.667 81.4169 351.951 73.035Z" stroke="black" stroke-width="6.58286"/>
<path d="M134.14 199.642L134.14 199.642C154.634 206.474 178.544 196.227 183.667 192.811C188.791 189.395 186.981 182.513 180.252 179.148C170.005 174.025 155.204 174.025 149.511 175.733C148.372 172.317 139.264 158.655 123.894 155.239C104.798 150.995 94.8607 162.07 91.4451 170.609C65.8278 168.902 61.5584 187.688 69.2435 192.811C76.9286 197.934 88.5987 198.504 96.5685 196.227C103.4 203.058 123.893 200.781 134.14 199.642Z" fill="#CCEDFF" fill-opacity="0.62"/>
<path fill-rule="evenodd" clip-rule="evenodd" d="M134.142 199.642L134.142 199.642C123.895 200.78 103.402 203.057 96.5704 196.226C88.6005 198.503 76.9305 197.934 69.2453 192.81C61.5602 187.687 65.8297 168.901 91.4469 170.609C94.8625 162.07 104.799 150.995 123.895 155.238C139.266 158.654 148.374 172.317 149.513 175.732C155.205 174.024 170.006 174.024 180.253 179.148C186.983 182.513 188.792 189.395 183.669 192.81C178.546 196.226 154.636 206.473 134.142 199.642ZM153.006 168.416C152.875 168.219 152.742 168.022 152.606 167.827C151.129 165.69 149.139 163.234 146.657 160.792C141.725 155.941 134.554 150.864 125.323 148.812C114.225 146.346 105.181 148.256 98.3065 152.545C93.3352 155.647 89.7732 159.817 87.3988 163.926C75.3683 164.138 66.7827 168.679 62.3279 175.577C57.7028 182.738 57.8682 193.137 65.5938 198.288L69.2453 192.81L65.5938 198.288C74.1912 204.019 86.0067 205.033 95.0613 203.334C97.374 204.744 99.9355 205.625 102.347 206.203C106.025 207.085 110.066 207.428 113.946 207.504C121.028 207.643 128.401 206.897 133.487 206.337C144.896 209.746 156.747 208.67 166.161 206.48C175.906 204.214 183.946 200.537 187.321 198.288L183.669 192.81L187.321 198.288C192.252 195 194.113 189.557 192.786 184.337C191.558 179.509 187.857 175.59 183.197 173.26C177.048 170.185 169.866 168.779 163.668 168.314C159.93 168.034 156.221 168.073 153.006 168.416Z" fill="black"/>
<path fill-rule="evenodd" clip-rule="evenodd" d="M392.425 153.213L341.114 220.066H364.473L336.293 254.662H366.272L332.678 293.359H361.829L325.417 340.8H457.119L422.35 293.359H449.858L417.779 254.662H446.242L419.334 220.066H441.421L392.425 153.213Z" fill="#69DB7C"/>
<path fill-rule="evenodd" clip-rule="evenodd" d="M341.115 220.066L392.425 153.213L397.158 159.67L350.803 220.066H341.115ZM364.473 220.066L336.294 254.662H345.982L374.161 220.066H364.473ZM366.272 254.662L332.678 293.359H342.366L375.96 254.662H366.272ZM361.829 293.359L325.417 340.8H335.105L371.517 293.359H361.829Z" fill="#4DCC62"/>
<path fill-rule="evenodd" clip-rule="evenodd" d="M335.21 222.977C334.102 220.729 334.366 218.047 335.892 216.058L387.203 149.205C388.465 147.562 390.426 146.608 392.498 146.631C394.57 146.654 396.51 147.651 397.735 149.322L446.731 216.175C448.197 218.175 448.414 220.83 447.293 223.042C446.172 225.255 443.902 226.649 441.421 226.649H432.793L451.438 250.62C452.982 252.605 453.26 255.295 452.156 257.554C451.051 259.812 448.756 261.245 446.242 261.245H431.786L454.926 289.158C456.554 291.122 456.901 293.85 455.816 296.159C454.73 298.468 452.409 299.942 449.858 299.942H435.336L462.429 336.909C463.895 338.91 464.112 341.565 462.991 343.777C461.87 345.989 459.6 347.383 457.119 347.383H325.417C322.91 347.383 320.621 345.96 319.513 343.712C318.404 341.463 318.669 338.781 320.195 336.792L348.478 299.942H332.678C330.099 299.942 327.759 298.437 326.689 296.091C325.619 293.745 326.017 290.991 327.707 289.044L351.84 261.245H336.294C333.753 261.245 331.438 259.782 330.348 257.487C329.257 255.192 329.585 252.474 331.19 250.504L350.621 226.649H341.114C338.608 226.649 336.319 225.225 335.21 222.977ZM364.473 220.066L336.294 254.662H366.272L332.678 293.359H361.829L325.417 340.8H457.119L422.35 293.359H449.858L417.779 254.662H446.242L419.334 220.066H441.421L392.425 153.213L341.114 220.066H364.473Z" fill="black"/>
<path d="M246.686 264.739C246.686 292.721 233.855 315.405 218.028 315.405C202.2 315.405 189.37 292.721 189.37 264.739C189.37 236.757 202.2 214.073 218.028 214.073C233.855 214.073 246.686 236.757 246.686 264.739Z" fill="#0CA678"/>
<path fill-rule="evenodd" clip-rule="evenodd" d="M244.022 303.807C238.292 313.935 229.357 321.988 218.028 321.988C206.698 321.988 197.763 313.935 192.034 303.807C186.192 293.479 182.787 279.653 182.787 264.739C182.787 249.826 186.192 236 192.034 225.672C197.763 215.543 206.698 207.49 218.028 207.49C229.357 207.49 238.292 215.543 244.022 225.672C249.863 236 253.268 249.826 253.268 264.739C253.268 279.653 249.863 293.479 244.022 303.807ZM218.028 315.405C233.855 315.405 246.686 292.721 246.686 264.739C246.686 236.757 233.855 214.073 218.028 214.073C202.2 214.073 189.37 236.757 189.37 264.739C189.37 292.721 202.2 315.405 218.028 315.405Z" fill="black"/>
<path fill-rule="evenodd" clip-rule="evenodd" d="M219.899 313.272C221.717 313.272 223.19 314.746 223.19 316.564L223.19 349.931C223.19 351.749 221.717 353.222 219.899 353.222C218.081 353.222 216.607 351.749 216.607 349.931L216.607 316.564C216.607 314.746 218.081 313.272 219.899 313.272Z" fill="black"/>
<path fill-rule="evenodd" clip-rule="evenodd" d="M163.24 314.079C165.058 314.079 166.532 315.552 166.532 317.37V377.231C166.532 379.049 165.058 380.522 163.24 380.522C161.423 380.522 159.949 379.049 159.949 377.231V317.37C159.949 315.552 161.423 314.079 163.24 314.079Z" fill="black"/>
<path fill-rule="evenodd" clip-rule="evenodd" d="M164.519 126.206L107.885 199.994H133.667L102.564 238.178H135.652L98.5732 280.89H130.748L90.5591 333.253H235.924L197.548 280.89H227.909L192.503 238.178H223.919L194.219 199.994H218.598L164.519 126.206Z" fill="#69DB7C"/>
<path fill-rule="evenodd" clip-rule="evenodd" d="M158.287 134.325L164.518 126.206L218.597 199.994H206.415L158.287 134.325ZM194.218 199.994H182.036L211.736 238.178H223.918L194.218 199.994ZM192.502 238.178H180.32L215.727 280.89H227.909L192.502 238.178ZM197.547 280.89H185.365L223.742 333.253H235.924L197.547 280.89Z" fill="#52BF64"/>
<path fill-rule="evenodd" clip-rule="evenodd" d="M101.981 202.905C100.872 200.657 101.137 197.975 102.663 195.986L159.297 122.198C160.558 120.555 162.52 119.601 164.592 119.624C166.663 119.647 168.603 120.644 169.828 122.315L223.907 196.103C225.373 198.103 225.591 200.758 224.469 202.971C223.348 205.183 221.078 206.577 218.598 206.577H207.678L229.115 234.137C230.658 236.122 230.937 238.812 229.832 241.071C228.727 243.329 226.433 244.761 223.919 244.761H206.51L232.977 276.689C234.605 278.654 234.952 281.382 233.867 283.69C232.782 285.999 230.46 287.473 227.909 287.473H210.534L241.234 329.362C242.7 331.362 242.917 334.017 241.796 336.23C240.674 338.442 238.405 339.836 235.924 339.836H90.5591C88.0525 339.836 85.7634 338.413 84.6549 336.164C83.5464 333.916 83.8109 331.234 85.337 329.245L117.398 287.473H98.5732C95.9949 287.473 93.654 285.968 92.584 283.622C91.514 281.277 91.912 278.522 93.6022 276.575L121.22 244.761H102.564C100.023 244.761 97.709 243.299 96.6184 241.004C95.5278 238.709 95.8554 235.991 97.4601 234.021L119.815 206.577H107.885C105.379 206.577 103.089 205.153 101.981 202.905ZM133.667 199.994L102.564 238.178H135.652L98.5732 280.891H130.748L90.5591 333.253H235.924L197.548 280.891H227.909L192.503 238.178H223.919L194.219 199.994H218.598L164.519 126.206L107.885 199.994H133.667Z" fill="black"/>
<path fill-rule="evenodd" clip-rule="evenodd" d="M301.522 322.812C303.34 322.812 304.814 324.285 304.814 326.103V365.678C304.814 367.496 303.34 368.969 301.522 368.969C299.704 368.969 298.231 367.496 298.231 365.678V326.103C298.231 324.285 299.704 322.812 301.522 322.812Z" fill="black"/>
<path fill-rule="evenodd" clip-rule="evenodd" d="M299.426 207.948L264.235 253.799H280.255L260.928 277.526H281.489L258.449 304.067H278.442L253.469 336.605H343.797L319.95 304.067H338.817L316.816 277.526H336.337L317.882 253.799H333.031L299.426 207.948Z" fill="#0C8599"/>
<path fill-rule="evenodd" clip-rule="evenodd" d="M258.331 256.711C257.222 254.463 257.487 251.78 259.013 249.792L294.204 203.941C295.466 202.297 297.428 201.343 299.499 201.366C301.571 201.389 303.511 202.386 304.736 204.057L338.34 249.908C339.806 251.909 340.024 254.564 338.902 256.776C337.781 258.988 335.511 260.382 333.031 260.382H331.342L341.533 273.485C343.077 275.47 343.355 278.16 342.25 280.419C341.146 282.677 338.851 284.109 336.337 284.109H330.823L343.885 299.866C345.513 301.83 345.86 304.558 344.775 306.867C343.69 309.176 341.368 310.65 338.817 310.65H332.936L349.107 332.714C350.573 334.714 350.79 337.369 349.669 339.582C348.547 341.794 346.277 343.188 343.797 343.188H253.469C250.962 343.188 248.673 341.765 247.565 339.516C246.456 337.268 246.72 334.586 248.247 332.597L265.091 310.65H258.449C255.871 310.65 253.53 309.145 252.46 306.799C251.39 304.453 251.788 301.699 253.478 299.752L267.057 284.109H260.928C258.387 284.109 256.073 282.647 254.983 280.352C253.892 278.057 254.22 275.339 255.824 273.369L266.403 260.382H264.235C261.728 260.382 259.439 258.959 258.331 256.711ZM280.255 253.8L260.928 277.527H281.489L258.449 304.067H278.442L253.469 336.605H343.797L319.95 304.067H338.817L316.816 277.527H336.337L317.882 253.8H333.031L299.426 207.949L264.235 253.8H280.255Z" fill="black"/>
<g style="mix-blend-mode:multiply">
<path d="M304.095 284.344C302.468 255.872 308.074 236.17 312.636 227.918L334.027 242.975L342.055 330.624L318.466 334.239C314.866 327.63 305.577 310.285 304.095 284.344Z" fill="#DEE2E6"/>
</g>
<path d="M401.981 274.385C401.981 317.489 382.217 352.431 357.836 352.431C333.456 352.431 313.692 317.489 313.692 274.385C313.692 231.282 333.456 196.339 357.836 196.339C382.217 196.339 401.981 231.282 401.981 274.385Z" fill="#40C057"/>
<path fill-rule="evenodd" clip-rule="evenodd" d="M363.606 351.77C341.952 346.773 325.231 314.031 325.231 274.385C325.231 234.739 341.952 201.998 363.605 197C361.717 196.564 359.792 196.339 357.836 196.339C333.456 196.339 313.692 231.282 313.692 274.385C313.692 317.489 333.456 352.431 357.836 352.431C359.792 352.431 361.718 352.206 363.606 351.77Z" fill="#33B64B"/>
<path fill-rule="evenodd" clip-rule="evenodd" d="M394.781 332.813C386.249 347.896 373.442 359.014 357.836 359.014C342.23 359.014 329.423 347.896 320.891 332.813C312.247 317.53 307.109 296.859 307.109 274.385C307.109 251.911 312.247 231.24 320.891 215.958C329.423 200.874 342.23 189.757 357.836 189.757C373.442 189.757 386.249 200.874 394.781 215.958C403.425 231.24 408.563 251.911 408.563 274.385C408.563 296.859 403.425 317.53 394.781 332.813ZM357.836 352.431C382.216 352.431 401.981 317.489 401.981 274.385C401.981 231.282 382.216 196.339 357.836 196.339C333.456 196.339 313.691 231.282 313.691 274.385C313.691 317.489 333.456 352.431 357.836 352.431Z" fill="black"/>
<path fill-rule="evenodd" clip-rule="evenodd" d="M357.752 264.126C359.569 264.08 361.08 265.516 361.125 267.333L364.01 381.789C364.056 383.606 362.62 385.116 360.803 385.162C358.986 385.208 357.475 383.772 357.43 381.955L354.545 267.499C354.499 265.682 355.935 264.172 357.752 264.126Z" fill="black"/>
<g style="mix-blend-mode:multiply">
<path d="M156.634 289.665C154.502 266.518 139.556 248.8 132.349 242.834L114.579 261.03L132.349 338.286H153.969C155.746 331.723 158.767 312.812 156.634 289.665Z" fill="#DEE2E6"/>
</g>
<path d="M147.917 308.862C147.917 342.795 132.358 370.304 113.165 370.304C93.9713 370.304 78.4119 342.795 78.4119 308.862C78.4119 274.929 93.9713 247.421 113.165 247.421C132.358 247.421 147.917 274.929 147.917 308.862Z" fill="#8CE99A"/>
<path fill-rule="evenodd" clip-rule="evenodd" d="M109.854 370.029C127.494 367.081 141.296 340.821 141.296 308.863C141.296 276.904 127.494 250.644 109.854 247.696C110.943 247.514 112.048 247.421 113.164 247.421C132.358 247.421 147.917 274.929 147.917 308.863C147.917 342.796 132.358 370.304 113.164 370.304C112.048 370.304 110.943 370.211 109.854 370.029Z" fill="#6AC878"/>
<path fill-rule="evenodd" clip-rule="evenodd" d="M143.468 355.549C136.636 367.628 126.177 376.887 113.165 376.887C100.152 376.887 89.693 367.628 82.861 355.549C75.9163 343.271 71.8291 326.751 71.8291 308.862C71.8291 290.973 75.9163 274.454 82.861 262.176C89.693 250.097 100.152 240.838 113.165 240.838C126.177 240.838 136.636 250.097 143.468 262.176C150.413 274.454 154.5 290.973 154.5 308.862C154.5 326.751 150.413 343.271 143.468 355.549ZM113.165 370.304C132.358 370.304 147.917 342.796 147.917 308.862C147.917 274.929 132.358 247.421 113.165 247.421C93.9713 247.421 78.4119 274.929 78.4119 308.862C78.4119 342.796 93.9713 370.304 113.165 370.304Z" fill="black"/>
<path fill-rule="evenodd" clip-rule="evenodd" d="M113.164 312.483C114.981 312.483 116.455 313.956 116.455 315.774L116.455 378.963C116.455 380.781 114.982 382.254 113.164 382.254C111.346 382.254 109.872 380.781 109.872 378.963L109.872 315.774C109.872 313.956 111.346 312.483 113.164 312.483Z" fill="black"/>
</svg>
