<svg width="512" height="512" viewBox="0 0 512 512" fill="none" xmlns="http://www.w3.org/2000/svg">
<path d="M318.15 67.3808C270.456 53.1436 229.164 55.4841 194.028 67.434C187.121 61.3009 178.015 57.5668 168.044 57.5668C146.423 57.5668 128.896 75.0936 128.896 96.7141C128.896 99.1819 129.126 101.601 129.565 103.949C124.697 107.943 120.04 112.083 115.589 116.322C92.4263 138.382 74.4378 172.069 63.7037 210.224C52.9491 248.452 49.3303 291.664 55.3567 333.179C59.9403 364.755 75.2247 389.484 97.4644 408.067L97.4126 408.357C96.1642 415.352 100.823 422.035 107.819 423.284L125.11 426.369C178.713 454.487 254.508 459.688 324.332 449.853C383.714 441.49 421.207 418.276 442.722 385.026C464.067 352.039 468.932 310.304 465.614 266.343C459.625 186.987 417.048 96.9024 318.15 67.3808Z" stroke="white" stroke-width="12.8664" stroke-linecap="round" stroke-linejoin="round"/>
<path d="M317.23 70.463C228.186 43.8828 162.585 76.0052 117.807 118.651C95.1849 140.196 77.4308 173.308 66.8001 211.096C56.1592 248.919 52.5825 291.677 58.5399 332.717C66.1305 385.008 103.68 417.657 153.422 435.078C203.104 452.477 265.404 454.905 323.884 446.668C382.608 438.397 419.143 415.545 440.022 383.278C460.815 351.143 465.701 310.239 462.406 266.585C456.477 188.026 414.405 99.4706 317.23 70.463Z" fill="#5C7CFA" stroke="black" stroke-width="6.4332" stroke-linecap="round" stroke-linejoin="round"/>
<mask id="path-3-outside-1_39_3065" maskUnits="userSpaceOnUse" x="86.2291" y="103.773" width="353" height="297" fill="black">
<rect fill="white" x="86.2291" y="103.773" width="353" height="297"/>
<path fill-rule="evenodd" clip-rule="evenodd" d="M262.692 193.093L256.975 166.872L255.659 167.129C252.071 167.83 248.593 165.49 247.892 161.902L247.762 161.236C217.664 170.501 176.018 182.99 167.862 184.155C148.493 186.922 137.928 170.068 157.297 159.503C170.109 152.515 215.103 153.07 246.891 154.799C247.293 152.106 249.345 149.832 252.17 149.28L267.437 146.296C270.146 145.766 272.792 146.971 274.228 149.137C301.4 134.176 336.618 115.135 344.02 112.455C362.416 105.792 376.2 120.134 359.395 134.43C348.694 143.535 307.366 151.883 276.218 156.773C276.68 160.218 274.382 163.469 270.926 164.145L269.605 164.403L275.322 190.624L291.575 187.447C294.485 186.879 297.417 188.313 298.754 190.959L306.702 206.694C327.493 201.518 359.94 197.179 383.396 210.834C403.401 222.479 409.369 241.533 409.943 255.921C416.225 301.574 390.494 322.107 366.299 328.656C366.312 328.709 366.325 328.762 366.338 328.816C366.344 328.845 366.351 328.875 366.358 328.904L366.369 328.955C366.381 329.011 366.392 329.067 366.403 329.123L371.348 354.422L395.085 349.783C399.087 349 402.703 346.88 405.339 343.769L419.207 327.405C421.955 324.163 426.812 323.762 430.054 326.51C433.297 329.258 433.698 334.114 430.95 337.357L417.082 353.72C412.186 359.497 405.469 363.436 398.037 364.889L250.994 393.629C246.823 394.444 242.78 391.724 241.965 387.552C241.15 383.381 243.87 379.338 248.042 378.523L302.929 367.795L297.985 342.495C297.966 342.398 297.948 342.302 297.933 342.205L297.451 342.299C270.294 347.607 226.384 325.308 218.852 277.204C218.306 273.72 215.327 271.042 211.803 271.168L134.261 273.955C133.227 273.993 132.215 274.272 131.309 274.77L123.559 279.032C117.983 282.099 111.714 276.299 114.339 270.501L118.097 262.2C119.141 259.896 118.78 257.199 117.168 255.251L96.1539 229.848C91.3394 224.029 92.6162 215.322 98.899 211.129C104.281 207.538 111.501 208.55 115.687 213.485L135.783 237.172C137.333 238.999 139.75 239.846 142.101 239.387L238.143 220.615L239.625 202.516C239.867 199.562 242.043 197.128 244.953 196.56L262.692 193.093ZM313.029 339.254L351.245 331.785C351.261 331.882 351.278 331.979 351.297 332.076L356.242 357.375L318.036 364.842L313.091 339.543C313.072 339.446 313.051 339.35 313.029 339.254Z"/>
</mask>
<path d="M256.975 166.872L263.26 165.501C262.515 162.083 259.174 159.887 255.741 160.558L256.975 166.872ZM262.692 193.093L263.926 199.406C265.624 199.074 267.117 198.072 268.067 196.626C269.018 195.181 269.346 193.413 268.977 191.722L262.692 193.093ZM255.659 167.129L254.425 160.815L254.425 160.815L255.659 167.129ZM247.892 161.902L241.578 163.136L241.578 163.136L247.892 161.902ZM247.762 161.236L254.076 160.002C253.726 158.212 252.632 156.654 251.067 155.717C249.502 154.78 247.613 154.551 245.869 155.087L247.762 161.236ZM167.862 184.155L168.772 190.524L168.772 190.524L167.862 184.155ZM157.297 159.503L154.217 153.856L154.217 153.856L157.297 159.503ZM246.891 154.799L246.542 161.223C249.856 161.403 252.763 159.032 253.254 155.749L246.891 154.799ZM252.17 149.28L253.404 155.594L253.404 155.594L252.17 149.28ZM267.437 146.296L266.203 139.982L266.203 139.982L267.437 146.296ZM274.228 149.137L268.865 152.691C270.715 155.482 274.397 156.388 277.331 154.773L274.228 149.137ZM344.02 112.455L341.829 106.406L341.829 106.406L344.02 112.455ZM359.395 134.43L363.564 139.33L363.564 139.33L359.395 134.43ZM276.218 156.773L275.22 150.418C271.765 150.96 269.376 154.163 269.842 157.629L276.218 156.773ZM270.926 164.145L272.16 170.459L272.16 170.459L270.926 164.145ZM269.605 164.403L268.371 158.089C266.673 158.421 265.18 159.423 264.23 160.869C263.279 162.315 262.951 164.083 263.32 165.773L269.605 164.403ZM275.322 190.624L269.037 191.994C269.782 195.413 273.122 197.609 276.556 196.938L275.322 190.624ZM291.575 187.447L292.809 193.761L292.809 193.761L291.575 187.447ZM298.754 190.959L293.012 193.86L293.012 193.86L298.754 190.959ZM306.702 206.694L300.959 209.594C302.313 212.274 305.342 213.662 308.256 212.936L306.702 206.694ZM383.396 210.834L380.159 216.393L380.159 216.393L383.396 210.834ZM409.943 255.921L403.515 256.178C403.523 256.385 403.541 256.592 403.57 256.798L409.943 255.921ZM366.299 328.656L364.618 322.446C361.232 323.362 359.204 326.823 360.06 330.226L366.299 328.656ZM366.338 328.816L360.071 330.269L360.071 330.269L366.338 328.816ZM366.358 328.904L372.643 327.531C372.641 327.525 372.64 327.519 372.639 327.514L366.358 328.904ZM366.369 328.955L372.658 327.604C372.657 327.596 372.655 327.589 372.654 327.582L366.369 328.955ZM366.403 329.123L372.717 327.889L372.717 327.888L366.403 329.123ZM371.348 354.422L365.034 355.656C365.362 357.331 366.341 358.806 367.756 359.759C369.172 360.712 370.908 361.063 372.582 360.736L371.348 354.422ZM395.085 349.783L396.319 356.096L396.319 356.096L395.085 349.783ZM405.339 343.769L410.247 347.928L410.247 347.928L405.339 343.769ZM419.207 327.405L414.299 323.246L414.299 323.246L419.207 327.405ZM430.95 337.357L435.857 341.516L435.857 341.516L430.95 337.357ZM417.082 353.72L421.989 357.88L421.989 357.88L417.082 353.72ZM398.037 364.889L396.803 358.575L396.803 358.575L398.037 364.889ZM250.994 393.629L249.76 387.315L249.76 387.315L250.994 393.629ZM241.965 387.552L235.651 388.786L235.651 388.786L241.965 387.552ZM248.042 378.523L246.808 372.209L246.808 372.209L248.042 378.523ZM302.929 367.795L304.163 374.108C305.838 373.781 307.314 372.802 308.267 371.387C309.219 369.971 309.57 368.235 309.243 366.561L302.929 367.795ZM297.985 342.495L304.298 341.261L304.298 341.261L297.985 342.495ZM297.933 342.205L304.283 341.178C304.005 339.458 303.041 337.924 301.611 336.927C300.182 335.931 298.409 335.557 296.699 335.891L297.933 342.205ZM297.451 342.299L296.217 335.985L296.217 335.985L297.451 342.299ZM218.852 277.204L212.496 278.199L212.496 278.199L218.852 277.204ZM211.803 271.168L211.572 264.739L211.572 264.739L211.803 271.168ZM134.261 273.955L134.03 267.526L134.03 267.526L134.261 273.955ZM131.309 274.77L134.409 280.407L134.409 280.407L131.309 274.77ZM123.559 279.032L120.459 273.395L120.459 273.395L123.559 279.032ZM114.339 270.501L120.199 273.155L120.199 273.155L114.339 270.501ZM118.097 262.2L112.237 259.547L112.237 259.547L118.097 262.2ZM117.168 255.251L112.211 259.351L112.211 259.351L117.168 255.251ZM96.1539 229.848L101.111 225.748L101.111 225.748L96.1539 229.848ZM98.899 211.129L102.47 216.48L102.47 216.48L98.899 211.129ZM115.687 213.485L120.592 209.323L120.592 209.323L115.687 213.485ZM135.783 237.172L130.878 241.334L130.878 241.334L135.783 237.172ZM142.101 239.387L143.335 245.7L143.335 245.7L142.101 239.387ZM238.143 220.615L239.377 226.929C242.204 226.376 244.32 224.011 244.555 221.14L238.143 220.615ZM239.625 202.516L233.213 201.991L233.213 201.991L239.625 202.516ZM244.953 196.56L246.187 202.873L246.187 202.873L244.953 196.56ZM351.245 331.785L357.596 330.759C357.318 329.039 356.354 327.504 354.924 326.508C353.495 325.511 351.722 325.137 350.011 325.471L351.245 331.785ZM313.029 339.254L311.795 332.941C310.085 333.275 308.584 334.289 307.634 335.75C306.685 337.212 306.369 338.996 306.759 340.694L313.029 339.254ZM351.297 332.076L344.983 333.31L344.983 333.31L351.297 332.076ZM356.242 357.375L357.476 363.688C360.963 363.007 363.237 359.628 362.556 356.141L356.242 357.375ZM318.036 364.842L311.722 366.076C312.403 369.563 315.783 371.837 319.27 371.156L318.036 364.842ZM313.091 339.543L319.404 338.309L319.404 338.309L313.091 339.543ZM250.689 168.242L256.406 194.463L268.977 191.722L263.26 165.501L250.689 168.242ZM256.893 173.443L258.209 173.185L255.741 160.558L254.425 160.815L256.893 173.443ZM241.578 163.136C242.961 170.211 249.818 174.825 256.893 173.443L254.425 160.815C254.388 160.822 254.367 160.82 254.353 160.817C254.334 160.813 254.31 160.804 254.285 160.787C254.259 160.77 254.242 160.751 254.231 160.735C254.223 160.723 254.213 160.705 254.206 160.668L241.578 163.136ZM241.448 162.47L241.578 163.136L254.206 160.668L254.076 160.002L241.448 162.47ZM168.772 190.524C173.424 189.859 186.444 186.261 201.383 181.909C216.621 177.471 234.591 172.021 249.655 167.384L245.869 155.087C230.835 159.716 212.933 165.144 197.785 169.557C182.337 174.057 170.457 177.286 166.953 177.787L168.772 190.524ZM154.217 153.856C148.595 156.922 144.425 160.829 142.238 165.449C139.975 170.23 140.074 175.336 142.32 179.747C146.656 188.266 157.486 192.136 168.772 190.524L166.953 177.787C158.869 178.941 154.731 175.768 153.786 173.91C153.39 173.134 153.269 172.218 153.867 170.954C154.542 169.529 156.315 167.367 160.378 165.151L154.217 153.856ZM247.24 148.375C231.251 147.506 211.856 146.926 194.78 147.452C186.249 147.715 178.179 148.257 171.347 149.205C164.732 150.122 158.515 151.511 154.217 153.856L160.378 165.151C162.485 164.001 166.697 162.839 173.115 161.949C179.316 161.089 186.884 160.568 195.176 160.312C211.747 159.801 230.743 160.363 246.542 161.223L247.24 148.375ZM250.936 142.966C245.355 144.057 241.32 148.547 240.528 153.849L253.254 155.749C253.258 155.72 253.274 155.68 253.307 155.644C253.322 155.629 253.335 155.619 253.347 155.613C253.357 155.607 253.373 155.6 253.404 155.594L250.936 142.966ZM266.203 139.982L250.936 142.966L253.404 155.594L268.671 152.61L266.203 139.982ZM279.59 145.583C276.767 141.323 271.555 138.936 266.203 139.982L268.671 152.61C268.701 152.604 268.719 152.605 268.729 152.606C268.742 152.607 268.757 152.611 268.775 152.618C268.816 152.636 268.848 152.665 268.865 152.691L279.59 145.583ZM341.829 106.406C337.59 107.941 326.425 113.661 313.522 120.508C300.354 127.495 284.724 136.014 271.125 143.502L277.331 154.773C290.904 147.299 306.469 138.816 319.553 131.873C332.903 124.789 343.048 119.648 346.21 118.503L341.829 106.406ZM363.564 139.33C368.441 135.181 371.725 130.505 372.923 125.536C374.163 120.394 373.024 115.415 369.924 111.555C363.94 104.101 352.548 102.524 341.829 106.406L346.21 118.503C353.888 115.722 358.586 117.985 359.891 119.61C360.437 120.29 360.743 121.161 360.415 122.521C360.046 124.053 358.751 126.532 355.226 129.531L363.564 139.33ZM277.215 163.129C292.882 160.669 311.201 157.326 327.014 153.429C334.913 151.481 342.301 149.368 348.468 147.119C354.445 144.939 359.962 142.395 363.564 139.33L355.226 129.531C353.478 131.018 349.815 132.932 344.06 135.031C338.495 137.061 331.597 139.047 323.934 140.936C308.621 144.711 290.702 147.988 275.22 150.418L277.215 163.129ZM272.16 170.459C278.977 169.126 283.506 162.716 282.594 155.917L269.842 157.629C269.845 157.656 269.843 157.674 269.839 157.69C269.834 157.71 269.824 157.734 269.807 157.757C269.79 157.781 269.772 157.797 269.757 157.807C269.745 157.814 269.727 157.824 269.692 157.831L272.16 170.459ZM270.839 170.717L272.16 170.459L269.692 157.831L268.371 158.089L270.839 170.717ZM281.608 189.253L275.891 163.032L263.32 165.773L269.037 191.994L281.608 189.253ZM290.341 181.133L274.088 184.31L276.556 196.938L292.809 193.761L290.341 181.133ZM304.496 188.059C301.861 182.841 296.078 180.012 290.341 181.133L292.809 193.761C292.891 193.745 292.974 193.785 293.012 193.86L304.496 188.059ZM312.444 203.793L304.496 188.059L293.012 193.86L300.959 209.594L312.444 203.793ZM386.632 205.274C373.564 197.666 358.326 195.243 344.038 195.269C329.705 195.295 315.851 197.787 305.148 200.451L308.256 212.936C318.344 210.425 331.108 208.159 344.061 208.136C357.058 208.112 369.772 210.347 380.159 216.393L386.632 205.274ZM416.371 255.664C415.739 239.835 409.11 218.359 386.632 205.274L380.159 216.393C397.692 226.6 402.998 243.231 403.515 256.178L416.371 255.664ZM367.98 334.865C381.091 331.317 394.97 323.889 404.712 310.792C414.546 297.57 419.648 279.262 416.316 255.044L403.57 256.798C406.519 278.234 401.897 293.018 394.388 303.113C386.786 313.333 375.702 319.446 364.618 322.446L367.98 334.865ZM372.605 327.363C372.583 327.272 372.561 327.179 372.538 327.086L360.06 330.226C360.063 330.238 360.067 330.253 360.071 330.269L372.605 327.363ZM372.639 327.514C372.627 327.461 372.616 327.411 372.605 327.363L360.071 330.269C360.073 330.28 360.075 330.288 360.077 330.295L372.639 327.514ZM372.654 327.582L372.643 327.531L360.073 330.278L360.084 330.329L372.654 327.582ZM372.717 327.888C372.698 327.793 372.679 327.698 372.658 327.604L360.079 330.307C360.083 330.324 360.086 330.341 360.09 330.359L372.717 327.888ZM377.662 353.188L372.717 327.889L360.09 330.358L365.034 355.656L377.662 353.188ZM393.851 343.469L370.114 348.108L372.582 360.736L396.319 356.096L393.851 343.469ZM400.432 339.61C398.74 341.606 396.419 342.967 393.851 343.469L396.319 356.096C401.754 355.034 406.666 352.153 410.247 347.928L400.432 339.61ZM414.299 323.246L400.432 339.61L410.247 347.928L424.115 331.565L414.299 323.246ZM434.213 321.602C428.26 316.557 419.345 317.293 414.299 323.246L424.115 331.565C424.566 331.033 425.363 330.967 425.895 331.418L434.213 321.602ZM435.857 341.516C440.902 335.563 440.166 326.647 434.213 321.602L425.895 331.418C426.427 331.869 426.493 332.666 426.042 333.198L435.857 341.516ZM421.989 357.88L435.857 341.516L426.042 333.198L412.174 349.561L421.989 357.88ZM399.271 371.203C408.137 369.47 416.149 364.771 421.989 357.88L412.174 349.561C408.222 354.224 402.802 357.403 396.803 358.575L399.271 371.203ZM252.228 399.943L399.271 371.203L396.803 358.575L249.76 387.315L252.228 399.943ZM235.651 388.786C237.148 396.445 244.57 401.44 252.228 399.943L249.76 387.315C249.076 387.449 248.412 387.003 248.279 386.318L235.651 388.786ZM246.808 372.209C239.149 373.706 234.154 381.128 235.651 388.786L248.279 386.318C248.145 385.634 248.591 384.97 249.276 384.836L246.808 372.209ZM301.695 361.481L246.808 372.209L249.276 384.836L304.163 374.108L301.695 361.481ZM291.671 343.729L296.616 369.029L309.243 366.561L304.298 341.261L291.671 343.729ZM291.582 343.232C291.609 343.398 291.638 343.564 291.671 343.729L304.298 341.261C304.293 341.233 304.288 341.205 304.283 341.178L291.582 343.232ZM298.685 348.613L299.167 348.519L296.699 335.891L296.217 335.985L298.685 348.613ZM212.496 278.199C216.551 304.095 230.449 323.172 247.056 335.018C263.479 346.734 283.012 351.676 298.685 348.613L296.217 335.985C284.733 338.23 268.732 334.677 254.528 324.544C240.507 314.542 228.685 298.417 225.207 276.209L212.496 278.199ZM212.034 277.598C212.056 277.597 212.116 277.593 212.225 277.688C212.349 277.796 212.461 277.976 212.496 278.199L225.207 276.209C224.204 269.802 218.64 264.485 211.572 264.739L212.034 277.598ZM134.492 280.384L212.034 277.598L211.572 264.739L134.03 267.526L134.492 280.384ZM134.409 280.407C134.434 280.393 134.463 280.385 134.492 280.384L134.03 267.526C131.99 267.6 129.997 268.15 128.208 269.133L134.409 280.407ZM126.659 284.669L134.409 280.407L128.208 269.133L120.459 273.395L126.659 284.669ZM108.478 267.848C103.303 279.279 115.664 290.716 126.659 284.669L120.459 273.395C120.367 273.446 120.327 273.45 120.336 273.449C120.343 273.447 120.357 273.447 120.368 273.449C120.38 273.451 120.322 273.442 120.243 273.369C120.163 273.295 120.15 273.238 120.153 273.25C120.156 273.261 120.156 273.275 120.156 273.282C120.155 273.291 120.156 273.251 120.199 273.155L108.478 267.848ZM112.237 259.547L108.478 267.848L120.199 273.155L123.958 264.854L112.237 259.547ZM112.211 259.351C112.256 259.406 112.266 259.482 112.237 259.547L123.958 264.854C126.015 260.311 125.303 254.993 122.125 251.15L112.211 259.351ZM91.197 233.949L112.211 259.351L122.125 251.15L101.111 225.748L91.197 233.949ZM95.3281 205.778C85.8731 212.087 83.9515 225.191 91.197 233.949L101.111 225.748C98.7273 222.867 99.3594 218.556 102.47 216.48L95.3281 205.778ZM120.592 209.323C114.293 201.897 103.428 200.373 95.3281 205.778L102.47 216.48C105.135 214.702 108.709 215.204 110.781 217.646L120.592 209.323ZM140.689 233.011L120.592 209.323L110.781 217.646L130.878 241.334L140.689 233.011ZM140.867 233.073C140.801 233.086 140.733 233.062 140.689 233.011L130.878 241.334C133.934 244.937 138.699 246.607 143.335 245.7L140.867 233.073ZM236.909 214.301L140.867 233.073L143.335 245.7L239.377 226.929L236.909 214.301ZM233.213 201.991L231.731 220.09L244.555 221.14L246.037 203.041L233.213 201.991ZM243.719 190.246C237.982 191.367 233.69 196.166 233.213 201.991L246.037 203.041C246.043 202.958 246.105 202.889 246.187 202.873L243.719 190.246ZM261.458 186.779L243.719 190.246L246.187 202.873L263.926 199.406L261.458 186.779ZM350.011 325.471L311.795 332.941L314.264 345.568L352.479 338.099L350.011 325.471ZM357.611 330.842C357.605 330.813 357.6 330.785 357.596 330.759L344.894 332.811C344.921 332.978 344.951 333.145 344.983 333.31L357.611 330.842ZM362.556 356.141L357.611 330.842L344.983 333.31L349.928 358.609L362.556 356.141ZM319.27 371.156L357.476 363.688L355.008 351.061L316.802 358.528L319.27 371.156ZM306.777 340.777L311.722 366.076L324.349 363.608L319.404 338.309L306.777 340.777ZM306.759 340.694C306.766 340.721 306.772 340.749 306.777 340.777L319.404 338.309C319.372 338.143 319.337 337.978 319.3 337.815L306.759 340.694Z" fill="black" mask="url(#path-3-outside-1_39_3065)"/>
<circle cx="168.043" cy="96.7141" r="35.9306" fill="#FFEC99" stroke="black" stroke-width="6.4332"/>
<path fill-rule="evenodd" clip-rule="evenodd" d="M98.575 171.089C98.6015 177.107 98.9352 181.865 99.3431 181.865C99.751 181.865 100.085 177.107 100.111 171.089C106.98 171.066 112.428 170.731 112.428 170.321C112.428 169.911 106.98 169.576 100.111 169.552C100.085 163.533 99.751 158.773 99.3431 158.773C98.9352 158.773 98.6014 163.533 98.575 169.552C91.7053 169.576 86.257 169.911 86.257 170.321C86.257 170.731 91.7053 171.066 98.575 171.089Z" fill="#FFFCB4"/>
<path fill-rule="evenodd" clip-rule="evenodd" d="M268.056 101.851C268.095 110.757 268.589 117.799 269.192 117.799C269.796 117.799 270.29 110.757 270.329 101.851C280.493 101.816 288.554 101.32 288.554 100.714C288.554 100.107 280.493 99.6115 270.329 99.5768C270.29 90.6717 269.796 83.6299 269.192 83.6299C268.589 83.6299 268.095 90.6717 268.056 99.5768C257.891 99.6114 249.829 100.107 249.829 100.714C249.829 101.321 257.891 101.816 268.056 101.851Z" fill="#FFFCB4"/>
<path fill-rule="evenodd" clip-rule="evenodd" d="M441.866 260.882C441.887 265.569 442.147 269.275 442.464 269.275C442.782 269.275 443.042 265.569 443.062 260.882C448.412 260.864 452.654 260.603 452.654 260.284C452.654 259.965 448.412 259.704 443.062 259.686C443.042 255 442.782 251.294 442.464 251.294C442.147 251.294 441.887 255 441.866 259.686C436.518 259.704 432.277 259.965 432.277 260.284C432.277 260.603 436.518 260.864 441.866 260.882Z" fill="#FFFCB4"/>
<path d="M261.586 157.824L270.282 197.706" stroke="#FFF6D9" stroke-width="12.8664" stroke-linecap="round" stroke-linejoin="round"/>
<path fill-rule="evenodd" clip-rule="evenodd" d="M303.953 332.916C308.125 332.1 312.216 335.067 313.09 339.543L319.378 371.714C320.253 376.189 317.58 380.478 313.409 381.294C309.238 382.109 305.147 379.142 304.272 374.667L297.984 342.495C297.109 338.02 299.782 333.731 303.953 332.916Z" fill="#FCC419"/>
<path fill-rule="evenodd" clip-rule="evenodd" d="M357.266 322.496C361.437 321.681 365.528 324.648 366.403 329.123L372.691 361.295C373.566 365.77 370.893 370.059 366.722 370.874C362.55 371.69 358.459 368.723 357.585 364.247L351.297 332.076C350.422 327.601 353.095 323.312 357.266 322.496Z" fill="#FCC419"/>
<path fill-rule="evenodd" clip-rule="evenodd" d="M430.054 326.509C433.296 329.257 433.697 334.114 430.949 337.356L417.081 353.72C412.185 359.497 405.469 363.436 398.037 364.888L250.994 393.628C246.822 394.444 242.78 391.723 241.964 387.551C241.149 383.38 243.87 379.337 248.041 378.522L395.084 349.782C399.086 349 402.703 346.879 405.339 343.768L419.207 327.405C421.955 324.162 426.811 323.761 430.054 326.509Z" fill="#FCC419"/>
<path fill-rule="evenodd" clip-rule="evenodd" d="M432.447 330.157C432.151 330.85 431.748 331.512 431.235 332.117L417.367 348.48C412.471 354.257 405.755 358.196 398.323 359.649L251.28 388.389C247.364 389.154 243.561 386.803 242.436 383.061C241.852 384.43 241.658 385.982 241.965 387.552C242.78 391.723 246.823 394.444 250.994 393.629L398.037 364.889C405.469 363.436 412.186 359.497 417.082 353.72L430.949 337.357C432.7 335.291 433.173 332.57 432.447 330.157Z" fill="#FAB005"/>
<path d="M239.624 202.516C239.866 199.561 242.043 197.128 244.952 196.559L291.575 187.447C294.484 186.878 297.417 188.313 298.753 190.959L307.153 207.587L238.104 221.083L239.624 202.516Z" fill="#D0EBFF"/>
<path fill-rule="evenodd" clip-rule="evenodd" d="M238.555 215.571L238.104 221.083L307.153 207.587L304.659 202.651L238.555 215.571Z" fill="#A5D8FF"/>
<path d="M135.783 237.172L115.686 213.484C111.5 208.55 104.281 207.537 98.8986 211.129C92.6158 215.321 91.339 224.028 96.1535 229.848L117.167 255.25C118.779 257.199 119.14 259.896 118.097 262.2L114.338 270.501C111.714 276.298 117.983 282.099 123.559 279.032L131.308 274.77C132.215 274.271 133.226 273.992 134.26 273.955L211.803 271.168C215.327 271.041 218.306 273.719 218.851 277.203C226.383 325.308 270.293 347.607 297.451 342.299L361.278 329.824C387.884 324.623 419.322 302.942 408.829 249.256C398.813 198.008 345.694 199.99 324.606 203.715L142.101 239.386C139.749 239.846 137.333 238.999 135.783 237.172Z" fill="#FCC419"/>
<path fill-rule="evenodd" clip-rule="evenodd" d="M94.3655 216.46C94.8294 218.126 95.644 219.728 96.8254 221.156L117.839 246.558C119.451 248.507 119.812 251.204 118.769 253.508L117.667 255.941C117.517 255.702 117.35 255.471 117.167 255.25L96.1532 229.848C92.9204 225.94 92.434 220.73 94.3655 216.46ZM115.435 268.077L114.338 270.501C111.713 276.298 117.982 282.098 123.559 279.032L131.308 274.77C132.215 274.271 133.226 273.992 134.26 273.955L211.802 271.168C215.327 271.041 218.305 273.719 218.851 277.203C226.383 325.308 270.293 347.607 297.451 342.299L361.278 329.823C383.916 325.399 410.052 309.043 410.881 271.193C406.557 302.896 382.774 317.062 361.95 321.132L298.123 333.607C270.965 338.915 227.055 316.616 219.523 268.512C218.978 265.028 215.999 262.35 212.475 262.476L134.932 265.263C133.898 265.3 132.887 265.58 131.98 266.078L124.231 270.34C120.834 272.209 117.179 270.786 115.435 268.077Z" fill="#FAB005"/>
<path d="M99.3426 214.485L127.194 246.515C130.204 249.976 134.829 251.573 139.333 250.707L302.17 219.392" stroke="#FFF6D9" stroke-width="6.4332" stroke-linecap="round" stroke-linejoin="round"/>
<path d="M383.395 210.833C357.602 195.818 320.935 202.561 300.852 208.249C297.499 209.198 295.569 212.662 296.419 216.041C301.267 235.323 309.611 262.757 338.953 276.948C360.902 287.563 392.514 274.185 406.214 267.863C408.211 266.941 409.62 265.089 409.802 262.897C411.011 248.337 406.856 224.491 383.395 210.833Z" fill="#D0EBFF"/>
<rect x="256.372" y="252.218" width="26.1712" height="26.1712" rx="6.61972" transform="rotate(-11.0593 256.372 252.218)" fill="#FFF6D9"/>
<path d="M157.297 159.503C172.792 151.051 235.362 153.633 264.71 155.981C236.536 164.785 177.723 182.746 167.862 184.155C148.492 186.922 137.927 170.068 157.297 159.503Z" fill="#D0EBFF"/>
<path d="M359.395 134.43C345.951 145.868 284.171 156.113 254.962 159.805C280.746 145.435 334.654 115.846 344.019 112.454C362.416 105.791 376.199 120.133 359.395 134.43Z" fill="#D0EBFF"/>
<path d="M163.387 183.3C176.425 171.401 237.81 159.01 266.872 154.302C241.605 169.562 188.761 201.011 179.519 204.727C161.365 212.027 147.091 198.174 163.387 183.3Z" fill="#A5D8FF" fill-opacity="0.02"/>
<path d="M353.703 110.823C343.37 125.133 285.807 149.794 258.317 160.336C279.937 140.239 325.249 98.6649 333.538 93.1403C349.819 82.2883 366.621 92.9356 353.703 110.823Z" fill="#A5D8FF" fill-opacity="0.02"/>
<path d="M160.125 126.762C177.514 123.738 235.936 146.289 262.973 157.943C233.464 157.227 171.998 155.336 162.208 153.502C142.976 149.898 138.387 130.543 160.125 126.762Z" fill="#A5D8FF" fill-opacity="0.1"/>
<path d="M359.561 167.963C343.155 174.474 281.36 164.323 252.513 158.434C281.547 153.111 342.104 142.415 352.063 142.212C371.625 141.814 380.069 159.824 359.561 167.963Z" fill="#A5D8FF" fill-opacity="0.1"/>
<rect x="245.673" y="150.549" width="28.7952" height="18.1867" rx="6.61972" transform="rotate(-11.0593 245.673 150.549)" fill="#D0EBFF"/>
<path d="M247.975 162.326L276.236 156.802L276.768 159.527C277.13 161.376 275.924 163.167 274.076 163.528L252.508 167.743C250.66 168.104 248.869 166.899 248.508 165.051L247.975 162.326Z" fill="#A5D8FF"/>
<g style="mix-blend-mode:soft-light" opacity="0.7">
<path d="M394.411 223.898C381.257 207.839 368.462 204.446 365.469 207.423C362.477 210.4 376.561 218.838 384.736 229.403C393.141 240.265 396.774 244.924 400.584 243.49C404.394 242.057 404.637 234.999 394.411 223.898Z" fill="#F8F9FA"/>
</g>
<path fill-rule="evenodd" clip-rule="evenodd" d="M128.85 286.958C123.149 287.401 118.243 291.635 117.191 297.527L97.4129 408.358C96.1646 415.354 100.823 422.036 107.819 423.285L188.462 437.676C195.457 438.924 202.14 434.265 203.388 427.27L223.167 316.439C224.415 309.444 219.756 302.761 212.761 301.512L209.078 300.855L210.044 295.442C211.127 289.376 206.324 283.864 200.168 284.104L129.775 286.855C129.461 286.867 129.152 286.902 128.85 286.958Z" fill="black"/>
<path opacity="0.5" fill-rule="evenodd" clip-rule="evenodd" d="M403.211 384.275C403.532 386.053 402.351 387.754 400.573 388.075L232.393 418.433C230.615 418.754 228.913 417.573 228.593 415.795C228.272 414.017 229.453 412.315 231.231 411.994L399.411 381.636C401.189 381.316 402.89 382.497 403.211 384.275Z" fill="#D8FAFF"/>
<path opacity="0.5" fill-rule="evenodd" clip-rule="evenodd" d="M422.803 397.284C423.167 399.054 422.027 400.783 420.257 401.147L323.692 420.994C321.922 421.357 320.192 420.218 319.829 418.448C319.465 416.678 320.605 414.949 322.374 414.585L418.94 394.738C420.71 394.375 422.439 395.514 422.803 397.284Z" fill="#D8FAFF"/>
<path d="M203.711 294.309L201.615 306.056L130.026 293.28L200.419 290.53C202.471 290.45 204.072 292.287 203.711 294.309Z" fill="#1A8064"/>
<rect x="124.655" y="292.322" width="94.7831" height="125.448" rx="6.4332" transform="rotate(10.1182 124.655 292.322)" fill="#21C190"/>
<path d="M184.463 430.426L189.593 431.341C193.09 431.965 196.432 429.636 197.056 426.138L216.834 315.307C217.459 311.81 215.129 308.468 211.631 307.844L206.502 306.929C210 307.553 212.329 310.894 211.705 314.392L191.926 425.223C191.302 428.721 187.961 431.05 184.463 430.426Z" fill="#39A084"/>
<path d="M129.911 384.538L178.571 393.222M127.72 396.812L158.685 402.338" stroke="#1A8064" stroke-width="5.14656" stroke-linecap="round" stroke-linejoin="round"/>
<path d="M189.608 350.641C187.095 364.724 173.641 374.103 159.558 371.59C145.476 369.076 136.097 355.623 138.61 341.54C141.123 327.457 154.577 318.078 168.659 320.591C182.742 323.104 192.121 336.558 189.608 350.641Z" fill="#C3FAE8"/>
<path d="M159.695 371.614C170.139 367.995 175.567 358.472 177.355 348.454C179.413 336.922 175.489 327.212 168.796 320.616M160.075 371.682C151.527 364.673 149.729 353.861 151.516 343.843C153.574 332.311 160.614 324.557 169.176 320.683M139.592 342.008L189.557 350.924M169.033 321.483L160.116 371.449M189.608 350.641C187.095 364.724 173.641 374.103 159.558 371.59C145.476 369.076 136.097 355.623 138.61 341.54C141.123 327.457 154.577 318.078 168.659 320.591C182.742 323.104 192.121 336.558 189.608 350.641Z" stroke="#1A8064" stroke-width="4.50324" stroke-linecap="round" stroke-linejoin="round"/>
<circle cx="397.043" cy="175.228" r="3.27141" fill="#FFFCB4"/>
<circle cx="204.028" cy="211.214" r="3.27141" fill="#FFFCB4"/>
<circle cx="428.12" cy="212.849" r="1.6357" fill="#FFFCB4"/>
<circle cx="127.151" cy="157.237" r="1.6357" fill="#FFFCB4"/>
<circle cx="225.292" cy="91.8083" r="1.6357" fill="#FFFCB4"/>
<circle cx="313.62" cy="78.7221" r="1.6357" fill="#FFFCB4"/>
<path opacity="0.5" d="M82.5314 270.098C77.4594 279.694 75.6842 300.326 109.159 306.083" stroke="#D8FAFF" stroke-width="6.4332" stroke-linecap="round" stroke-linejoin="round"/>
<path opacity="0.5" d="M145.145 197.972C151.352 201.432 165.811 204.642 182.879 197.777" stroke="#D8FAFF" stroke-width="6.4332" stroke-linecap="round" stroke-linejoin="round"/>
<path opacity="0.5" d="M382.01 121.526C382.688 127.502 379.589 141.072 371.31 144.917" stroke="#D8FAFF" stroke-width="6.4332" stroke-linecap="round" stroke-linejoin="round"/>
</svg>
