<svg width="512" height="512" viewBox="0 0 512 512" fill="none" xmlns="http://www.w3.org/2000/svg">
<path d="M55.8629 203.48C56.3408 210.332 57.4288 216.893 59.0272 223.161C54.4803 248.26 54.6092 274.115 61.5156 296.718C69.5861 323.13 80.4183 341.421 94.8695 357.038C109.058 372.37 126.628 384.978 147.636 400.053L148.003 400.316C157.58 407.188 167.934 414.618 179.192 423.147C209.957 446.454 257.199 452.194 301.743 445.228C346.326 438.256 390.191 418.253 414.145 387.692C458.076 331.642 467.433 247.826 449.594 180.93C429.913 107.125 350.212 62.3805 271.909 62.3809C217.069 62.3811 166.73 79.3518 128.097 107.104C107.455 113.361 88.6359 124.2 75.3024 140.08C61.6514 156.338 54.0535 177.534 55.8629 203.48Z" stroke="white" stroke-width="12.4839"/>
<path d="M271.908 68.623C210.419 68.6233 154.871 90.4699 115.859 124.801C76.8469 159.131 50.3185 238.716 67.4838 294.894C86.6378 357.58 121.192 371.378 182.96 418.172C240.698 461.913 363.977 441.58 409.231 383.842C451.685 329.676 461.018 248.002 443.562 182.539C424.836 112.317 348.372 68.6227 271.908 68.623Z" fill="#F1FFCA"/>
<path fill-rule="evenodd" clip-rule="evenodd" d="M111.733 120.115C151.934 84.7372 208.966 62.3813 271.905 62.3811C350.208 62.3808 429.909 107.125 449.59 180.93C467.429 247.826 458.072 331.642 414.141 387.692C390.187 418.254 346.322 438.256 301.739 445.229C257.195 452.195 209.953 446.455 179.188 423.148C168.173 414.803 157.939 407.47 148.446 400.668C105.57 369.947 77.8091 350.055 61.5116 296.718C52.462 267.101 55.0285 231.844 64.6234 199.861C74.2132 167.895 91.1034 138.268 111.733 120.115ZM115.856 124.801C154.868 90.4699 210.416 68.6233 271.905 68.6231C348.369 68.6228 424.833 112.317 443.559 182.539C461.016 248.002 451.682 329.676 409.228 383.842C363.974 441.58 240.695 461.913 182.957 418.172C171.625 409.587 161.209 402.113 151.636 395.243C109.029 364.67 83.121 346.079 67.4811 294.894C50.3158 238.716 76.8441 159.131 115.856 124.801Z" fill="black"/>
<mask id="mask0_39_3150" style="mask-type:alpha" maskUnits="userSpaceOnUse" x="62" y="68" width="390" height="374">
<path d="M271.908 68.6233C210.419 68.6235 154.871 90.4701 115.859 124.801C76.8472 159.132 50.3188 238.716 67.4841 294.894C86.6381 357.58 121.192 371.378 182.96 418.173C240.698 461.914 363.977 441.58 409.231 383.842C451.685 329.676 461.019 248.002 443.562 182.539C424.836 112.317 348.372 68.623 271.908 68.6233Z" fill="#F1FFCA"/>
</mask>
<g mask="url(#mask0_39_3150)">
<path d="M428.875 215.309C455.538 214.055 466.878 266.317 467.888 286.168L417.952 447.822H77.7657L52.7979 272.063C61.3825 227.137 72.9498 159.132 99.6125 159.132C132.941 159.132 143.693 292.436 170.962 292.436C198.231 292.436 239.134 237.585 280.037 237.585C320.94 237.585 308.82 286.168 342.149 286.168C375.477 286.168 395.547 216.876 428.875 215.309Z" fill="#D1E8A1"/>
<path d="M180.758 259.003C137.064 259.003 79.3263 340.148 55.9189 380.721L115.217 483.713L366.456 496.197L463.206 415.051C449.162 375.519 413.895 296.766 385.182 298.015C349.291 299.575 330.565 354.192 286.871 354.192C243.178 354.192 235.375 259.003 180.758 259.003Z" fill="#A5D67E"/>
<path fill-rule="evenodd" clip-rule="evenodd" d="M50.5095 383.836C49.3985 381.906 49.3995 379.53 50.5122 377.602C62.372 357.045 82.9048 326.235 106.091 300.472C117.682 287.594 130.092 275.8 142.561 267.181C154.93 258.632 167.995 252.761 180.758 252.761C196.487 252.761 208.702 259.702 218.607 269.421C228.35 278.981 236.179 291.546 243.267 303.393C244.065 304.726 244.852 306.049 245.632 307.358C251.964 317.991 257.778 327.753 264.256 335.233C271.433 343.518 278.541 347.951 286.871 347.951C305.944 347.951 319.879 336.15 334.661 322.156C335.533 321.33 336.411 320.496 337.293 319.656C343.633 313.621 350.236 307.336 357.199 302.37C365.24 296.634 374.297 292.241 384.911 291.779C394.913 291.344 404.172 297.78 412 305.878C420.072 314.229 427.906 325.687 435.097 338.114C449.51 363.022 461.986 392.97 469.088 412.962C469.961 415.419 469.215 418.159 467.217 419.834L370.467 500.98C369.261 501.991 367.718 502.509 366.146 502.431L114.908 489.947C112.788 489.842 110.867 488.667 109.808 486.828L50.5095 383.836ZM55.9189 380.721C79.3262 340.148 137.064 259.003 180.758 259.003C209.588 259.003 225.374 285.527 240.28 310.572C253.613 332.974 266.242 354.193 286.871 354.193C310.046 354.193 326.197 338.828 341.611 324.164C355.258 311.181 368.327 298.748 385.182 298.015C413.895 296.767 449.162 375.519 463.206 415.052L366.456 496.197L115.217 483.713L55.9189 380.721Z" fill="black"/>
<path d="M226.688 358.874C189.858 358.874 141.19 390.905 121.459 406.921L171.443 447.575L383.215 452.503L464.767 420.472C452.929 404.867 423.202 373.781 398.999 374.274C368.746 374.89 352.962 396.449 316.132 396.449C279.302 396.449 272.725 358.874 226.688 358.874Z" fill="#84BC58"/>
<path fill-rule="evenodd" clip-rule="evenodd" d="M115.217 406.918C115.218 405.038 116.066 403.259 117.526 402.075C127.681 393.831 145.13 381.579 164.78 371.355C184.268 361.214 206.737 352.632 226.688 352.632C251.844 352.632 266.39 363.104 278.71 372.746C279.287 373.198 279.857 373.646 280.422 374.089C291.89 383.092 300.952 390.207 316.132 390.207C333.186 390.207 345.346 385.275 357.502 379.886C358.299 379.533 359.098 379.176 359.901 378.818C371.272 373.744 383.361 368.349 398.872 368.033C413.339 367.739 428.335 376.683 440.446 386.485C452.846 396.52 463.578 408.578 469.74 416.7C470.921 418.257 471.305 420.278 470.776 422.16C470.248 424.042 468.868 425.568 467.049 426.282L385.497 458.313C384.724 458.617 383.899 458.763 383.07 458.744L171.298 453.816C169.913 453.784 168.579 453.292 167.504 452.418L117.521 411.763C116.063 410.577 115.217 408.797 115.217 406.918ZM126.496 402.971C124.659 404.368 122.974 405.692 121.459 406.921L171.443 447.576L383.215 452.504L464.767 420.472C463.581 418.91 462.216 417.192 460.695 415.365C447.03 398.958 420.778 373.83 398.999 374.274C384.792 374.563 373.776 379.471 362.273 384.596C349.28 390.384 335.666 396.449 316.132 396.449C298.743 396.449 288.098 388.073 276.86 379.231C264.295 369.344 250.989 358.874 226.688 358.874C192.685 358.874 148.591 386.177 126.496 402.971Z" fill="black"/>
<path d="M328.766 347.519C310.527 354.435 284.26 380.57 246.298 384.581C305.204 380.61 323.53 368.697 343.166 384.581C358.874 397.288 393.781 409.73 407.307 396.494C424.324 417.672 462.286 413.701 475.376 404.436C488.466 395.17 502.865 366.05 483.23 351.49C469.483 341.296 449.077 344.872 447.887 358.108C449.196 343.548 443.174 327.664 413.852 327.664C384.53 327.664 375.891 340.9 381.127 351.49C381.127 351.49 360.183 335.606 328.766 347.519Z" fill="#FDFFF6"/>
<path fill-rule="evenodd" clip-rule="evenodd" d="M240.08 385.119C239.787 381.731 242.261 378.731 245.643 378.374C263.359 376.502 278.526 369.453 291.792 361.743C296.469 359.025 300.783 356.303 304.932 353.686C306.725 352.554 308.488 351.442 310.235 350.359C315.848 346.879 321.368 343.649 326.554 341.683C343.649 335.2 358.1 336.233 368.36 339.012C370.445 339.577 372.352 340.212 374.068 340.867C375.031 337.282 377.116 333.869 380.365 330.957C387.172 324.859 398.475 321.422 413.853 321.422C429.568 321.422 440.466 325.697 447.078 333.344C449.49 336.133 451.179 339.197 452.313 342.365C454.651 341.162 457.188 340.337 459.727 339.873C468.379 338.291 478.673 340.34 486.949 346.476C499.534 355.808 500.791 369.815 497.6 381.582C494.474 393.111 486.816 403.986 478.983 409.531C470.948 415.218 456.671 418.647 442.581 418.119C430.154 417.654 416.478 414.053 406.496 404.762C402.766 406.791 398.573 407.834 394.357 408.22C388.035 408.799 381.185 407.956 374.564 406.328C361.387 403.088 347.879 396.423 339.24 389.434C335.074 386.064 331.173 384.296 326.834 383.448C322.34 382.57 317.092 382.622 310.101 383.345C305.671 383.803 300.449 384.557 294.384 385.434C282.098 387.21 266.352 389.486 246.719 390.809C243.325 391.038 240.373 388.508 240.08 385.119ZM404.808 398.502C405.705 397.912 406.541 397.244 407.308 396.494C408.632 398.142 410.082 399.637 411.638 400.99C430.081 417.022 463.305 412.981 475.376 404.436C488.467 395.17 502.866 366.05 483.231 351.49C473.791 344.49 461.211 343.983 453.869 348.638C450.519 350.762 448.26 353.961 447.887 358.108C448.246 354.115 448.054 350.022 446.98 346.184C444.14 336.03 435.132 327.664 413.853 327.664C391.714 327.664 381.366 335.21 379.878 343.464C379.395 346.143 379.845 348.896 381.127 351.49C381.127 351.49 378.435 349.448 373.534 347.378C364.764 343.674 348.92 339.877 328.767 347.519C322.853 349.761 316.095 354.024 308.369 358.898C300.159 364.077 290.856 369.946 280.309 374.814C270.167 379.496 258.874 383.252 246.299 384.581C260.34 383.635 272.076 382.237 282.073 380.872C285.945 380.343 289.556 379.819 292.94 379.329C317.468 375.771 330.024 373.95 343.166 384.581C357.984 396.568 389.885 408.319 404.808 398.502Z" fill="black"/>
<path d="M84.4508 280.781L87.1745 282.582L89.063 279.918L88.8649 283.178L92.1161 283.481L89.1944 284.939L90.5571 287.907L87.8335 286.106L85.945 288.769L86.1431 285.51L82.8918 285.207L85.8136 283.748L84.4508 280.781Z" fill="#A5D67E"/>
<path d="M265.123 91.2771L270.506 94.8364L274.237 89.5724L273.846 96.0131L280.27 96.6129L274.497 99.4943L277.19 105.358L271.808 101.799L268.076 107.063L268.467 100.622L262.043 100.022L267.816 97.1409L265.123 91.2771Z" fill="#A5D67E"/>
<path d="M277.951 124.732L280.675 126.533L282.563 123.869L282.365 127.129L285.617 127.432L282.695 128.891L284.058 131.858L281.334 130.057L279.445 132.721L279.644 129.461L276.392 129.158L279.314 127.7L277.951 124.732Z" fill="#A5D67E"/>
<path d="M365.339 102.885L368.062 104.686L369.951 102.023L369.753 105.282L373.004 105.585L370.082 107.044L371.445 110.011L368.721 108.21L366.833 110.874L367.031 107.614L363.78 107.311L366.701 105.853L365.339 102.885Z" fill="#A5D67E"/>
<path d="M212.404 82.6234L216.343 85.4045L218.382 81.0352L218.663 85.8486L223.351 84.7184L219.763 87.9396L223.569 90.8996L218.814 90.103L218.872 94.9242L216.53 90.7096L212.798 93.7616L214.633 89.3027L209.919 88.2872L214.549 86.9417L212.404 82.6234Z" fill="#FCC419"/>
<path d="M328.808 406.41L332.071 408.715L333.76 405.094L333.994 409.083L337.877 408.146L334.905 410.815L338.058 413.268L334.118 412.608L334.167 416.602L332.226 413.11L329.133 415.639L330.654 411.945L326.748 411.103L330.585 409.988L328.808 406.41Z" fill="#FCC419"/>
<path d="M311.083 83.3214L313.445 86.5525L316.206 83.6552L315.153 87.5165L319.139 87.8689L315.464 89.4527L317.674 92.7895L314.144 90.9032L312.913 94.7116L312.187 90.7757L308.442 92.188L311.067 89.1662L307.627 87.1189L311.626 87.2867L311.083 83.3214Z" fill="#1971C2"/>
</g>
<path fill-rule="evenodd" clip-rule="evenodd" d="M325.154 277.753C325.907 276.256 327.539 275.415 329.195 275.673L369.067 281.882C370.723 282.139 372.023 283.437 372.284 285.092C372.546 286.747 371.708 288.382 370.213 289.137L348.051 300.326C346.575 301.071 344.788 300.793 343.609 299.635L325.898 282.237C324.703 281.062 324.402 279.251 325.154 277.753ZM339.866 285.143L347.042 292.193L356.023 287.658L339.866 285.143Z" fill="#212529"/>
<g filter="url(#filter0_i_39_3150)">
<path d="M323.649 300.025L364.065 306.319L359.605 334.961C358.786 340.223 353.855 343.825 348.593 343.006L327.234 339.68C321.971 338.861 318.369 333.93 319.189 328.667L323.649 300.025Z" fill="#FFE296"/>
</g>
<mask id="mask1_39_3150" style="mask-type:alpha" maskUnits="userSpaceOnUse" x="319" y="300" width="46" height="44">
<path d="M323.649 300.025L364.065 306.319L359.605 334.961C358.786 340.223 353.855 343.825 348.593 343.006L327.234 339.68C321.971 338.861 318.369 333.93 319.189 328.667L323.649 300.025Z" fill="#FFE296"/>
</mask>
<g mask="url(#mask1_39_3150)">
<path fill-rule="evenodd" clip-rule="evenodd" d="M326.493 303.919C327.113 304.015 327.538 304.596 327.441 305.216L321.673 342.265C321.576 342.885 320.995 343.309 320.375 343.213C319.755 343.116 319.331 342.535 319.427 341.915L325.196 304.867C325.292 304.247 325.873 303.822 326.493 303.919Z" fill="#F1CC80"/>
<path fill-rule="evenodd" clip-rule="evenodd" d="M333.229 304.967C333.849 305.064 334.273 305.645 334.177 306.265L328.408 343.313C328.312 343.933 327.731 344.358 327.111 344.261C326.491 344.165 326.066 343.584 326.163 342.964L331.932 305.915C332.028 305.295 332.609 304.871 333.229 304.967Z" fill="#F1CC80"/>
<path fill-rule="evenodd" clip-rule="evenodd" d="M339.965 306.016C340.585 306.112 341.009 306.693 340.913 307.313L335.144 344.362C335.047 344.982 334.466 345.406 333.846 345.31C333.226 345.213 332.802 344.632 332.899 344.012L338.667 306.964C338.764 306.343 339.345 305.919 339.965 306.016Z" fill="#F1CC80"/>
<path fill-rule="evenodd" clip-rule="evenodd" d="M346.7 307.064C347.32 307.161 347.745 307.742 347.648 308.362L341.88 345.41C341.783 346.031 341.202 346.455 340.582 346.358C339.962 346.262 339.538 345.681 339.634 345.061L345.403 308.012C345.499 307.392 346.08 306.968 346.7 307.064Z" fill="#F1CC80"/>
<path fill-rule="evenodd" clip-rule="evenodd" d="M353.439 308.116C354.059 308.212 354.484 308.793 354.387 309.413L348.618 346.462C348.522 347.082 347.941 347.506 347.321 347.41C346.701 347.313 346.276 346.732 346.373 346.112L352.142 309.064C352.238 308.444 352.819 308.019 353.439 308.116Z" fill="#F1CC80"/>
<path fill-rule="evenodd" clip-rule="evenodd" d="M360.175 309.164C360.795 309.261 361.219 309.842 361.123 310.462L355.354 347.51C355.258 348.13 354.677 348.555 354.057 348.458C353.437 348.361 353.012 347.781 353.109 347.16L358.877 310.112C358.974 309.492 359.555 309.068 360.175 309.164Z" fill="#F1CC80"/>
<path fill-rule="evenodd" clip-rule="evenodd" d="M366.122 315.264C366.026 315.884 365.445 316.308 364.825 316.212L319.917 309.219C319.297 309.123 318.873 308.542 318.97 307.922C319.066 307.302 319.647 306.877 320.267 306.974L365.174 313.966C365.794 314.063 366.219 314.644 366.122 315.264Z" fill="#F1CC80"/>
<path fill-rule="evenodd" clip-rule="evenodd" d="M365.074 321.999C364.977 322.619 364.396 323.044 363.776 322.947L318.869 315.955C318.249 315.858 317.825 315.277 317.921 314.657C318.018 314.037 318.599 313.613 319.219 313.709L364.126 320.702C364.746 320.798 365.17 321.379 365.074 321.999Z" fill="#F1CC80"/>
<path fill-rule="evenodd" clip-rule="evenodd" d="M364.025 328.735C363.929 329.355 363.348 329.779 362.728 329.683L317.821 322.69C317.2 322.594 316.776 322.013 316.873 321.393C316.969 320.773 317.55 320.349 318.17 320.445L363.077 327.437C363.697 327.534 364.122 328.115 364.025 328.735Z" fill="#F1CC80"/>
<path fill-rule="evenodd" clip-rule="evenodd" d="M362.977 335.47C362.88 336.09 362.299 336.515 361.679 336.418L316.772 329.426C316.152 329.329 315.728 328.748 315.824 328.128C315.921 327.508 316.502 327.084 317.122 327.18L362.029 334.173C362.649 334.269 363.073 334.85 362.977 335.47Z" fill="#F1CC80"/>
<path fill-rule="evenodd" clip-rule="evenodd" d="M361.925 342.206C361.829 342.826 361.248 343.251 360.628 343.154L315.721 336.162C315.101 336.065 314.676 335.484 314.773 334.864C314.869 334.244 315.45 333.82 316.07 333.916L360.977 340.909C361.598 341.005 362.022 341.586 361.925 342.206Z" fill="#F1CC80"/>
<path fill-rule="evenodd" clip-rule="evenodd" d="M360.877 348.945C360.78 349.565 360.199 349.989 359.579 349.893L314.672 342.9C314.052 342.804 313.628 342.223 313.724 341.603C313.821 340.983 314.402 340.558 315.022 340.655L359.929 347.647C360.549 347.744 360.973 348.325 360.877 348.945Z" fill="#F1CC80"/>
</g>
<path fill-rule="evenodd" clip-rule="evenodd" d="M371.695 307.565C371.368 309.67 369.395 311.111 367.29 310.783L319.651 303.365C317.546 303.038 316.105 301.065 316.433 298.96C316.761 296.855 318.733 295.414 320.838 295.742L368.477 303.16C370.582 303.488 372.023 305.46 371.695 307.565Z" fill="#FFE196"/>
<path fill-rule="evenodd" clip-rule="evenodd" d="M363.464 310.187L367.291 310.783C369.396 311.111 371.369 309.67 371.696 307.565C372.024 305.46 370.583 303.488 368.478 303.16L320.839 295.742C318.734 295.414 316.762 296.855 316.434 298.96C316.106 301.065 317.547 303.038 319.652 303.365L323.048 303.894L319.19 328.669C318.37 333.932 321.972 338.863 327.235 339.682L348.593 343.008C353.856 343.827 358.787 340.225 359.606 334.963L363.464 310.187ZM315.98 308.711C312.005 306.862 309.558 302.549 310.266 298C311.124 292.488 316.288 288.716 321.799 289.574L369.439 296.992C374.95 297.85 378.722 303.014 377.864 308.525C377.131 313.231 373.261 316.668 368.714 317.039L365.774 335.923C364.424 344.592 356.302 350.525 347.633 349.176L326.275 345.85C317.606 344.5 311.672 336.378 313.022 327.709L315.98 308.711Z" fill="black"/>
<path fill-rule="evenodd" clip-rule="evenodd" d="M372.564 133.702C410.703 140.25 444.733 165.805 437.972 209.222C431.107 253.314 388.498 276.119 367.71 284.202L349.57 281.377L349.57 281.377L329.645 278.275C312.299 264.255 278.641 229.574 285.507 185.482C292.267 142.066 332.456 128.067 370.78 133.424L370.782 133.41C371.086 133.457 371.389 133.506 371.693 133.556C371.984 133.599 372.275 133.643 372.566 133.688L372.564 133.702Z" fill="#5552FA"/>
<path fill-rule="evenodd" clip-rule="evenodd" d="M370.778 133.424C369.312 133.219 367.843 133.042 366.373 132.894C329.428 129.18 292.007 143.726 285.505 185.482C278.64 229.574 312.298 264.254 329.644 278.274L349.568 281.377L367.709 284.201C388.496 276.119 431.105 253.313 437.971 209.221C444.473 167.466 413.246 142.231 376.92 134.536C375.481 134.231 374.034 133.954 372.582 133.704C372.575 133.703 372.569 133.702 372.563 133.701L372.565 133.688C372.274 133.642 371.983 133.598 371.691 133.555C371.475 133.519 371.258 133.485 371.041 133.45C370.954 133.437 370.867 133.423 370.781 133.409L370.778 133.424ZM374.038 127.622C373.869 127.581 373.698 127.547 373.525 127.52C373.234 127.475 372.944 127.43 372.653 127.387C372.349 127.338 372.045 127.289 371.741 127.242C371.562 127.214 371.384 127.194 371.207 127.182C351.25 124.465 330.404 126.685 313.397 135.639C296.026 144.786 283.031 160.798 279.338 184.521C275.611 208.453 282.933 229.637 293.167 246.407C303.38 263.141 316.695 275.834 325.72 283.129C326.575 283.82 327.597 284.273 328.684 284.442L348.608 287.544C348.628 287.547 348.649 287.551 348.669 287.553L366.748 290.369C367.834 290.538 368.946 290.417 369.971 290.019C380.787 285.813 397.33 277.77 412.148 264.933C426.996 252.069 440.412 234.113 444.139 210.182C447.832 186.459 440.322 167.253 426.554 153.258C413.071 139.554 393.881 131.101 374.038 127.622Z" fill="#212529"/>
<mask id="mask2_39_3150" style="mask-type:alpha" maskUnits="userSpaceOnUse" x="284" y="132" width="155" height="153">
<path fill-rule="evenodd" clip-rule="evenodd" d="M372.564 133.702C410.703 140.25 444.733 165.805 437.972 209.222C431.107 253.314 388.498 276.119 367.71 284.201L349.57 281.377L349.57 281.377L329.645 278.275C312.299 264.255 278.641 229.574 285.507 185.482C292.267 142.065 332.456 128.067 370.78 133.424L370.782 133.41C371.086 133.457 371.389 133.506 371.693 133.555C371.984 133.598 372.275 133.643 372.566 133.688L372.564 133.702Z" fill="#FA5252"/>
</mask>
<g mask="url(#mask2_39_3150)">
<path d="M324.723 189.255C330.559 151.774 348.382 139.696 357.92 129.634C361.522 128.968 369.761 127.927 373.896 129.088L349.425 286.246L341.171 284.961C334.341 263.798 318.887 226.736 324.723 189.255Z" fill="#7291FF"/>
<path d="M405.774 202.72C411.527 165.775 397.637 148.971 391.31 136.605C410.449 141.02 447.212 161.527 441.156 208.229C435.099 254.931 389.575 281.582 367.57 289.07L359.14 287.758L361.514 284.983C374.762 267.234 400.021 239.664 405.774 202.72Z" fill="#7291FF"/>
</g>
<path d="M203.927 182.107C185.688 189.023 159.421 215.158 121.459 219.169C180.365 215.198 198.691 203.286 218.326 219.169C234.034 231.876 268.942 244.319 282.468 231.082C299.485 252.26 337.447 248.29 350.537 239.024C363.627 229.758 378.026 200.638 358.391 186.078C344.644 175.884 324.237 179.46 323.047 192.696C324.356 178.136 318.335 162.252 289.013 162.252C259.691 162.252 251.052 175.489 256.288 186.078C256.288 186.078 235.343 170.194 203.927 182.107Z" fill="#FDFFF6"/>
<path fill-rule="evenodd" clip-rule="evenodd" d="M115.238 219.707C114.945 216.319 117.418 213.319 120.801 212.962C138.516 211.09 153.684 204.041 166.95 196.331C171.626 193.613 175.941 190.891 180.09 188.274C181.883 187.143 183.646 186.031 185.393 184.947C191.005 181.467 196.526 178.237 201.711 176.271C218.806 169.788 233.257 170.821 243.518 173.6C245.603 174.165 247.509 174.8 249.226 175.455C250.189 171.87 252.274 168.457 255.523 165.545C262.33 159.447 273.633 156.01 289.01 156.01C304.726 156.01 315.624 160.285 322.236 167.932C324.648 170.722 326.337 173.785 327.471 176.953C329.808 175.75 332.345 174.925 334.885 174.461C343.536 172.879 353.831 174.928 362.106 181.064C374.691 190.397 375.948 204.403 372.758 216.17C369.631 227.699 361.973 238.574 354.14 244.119C346.106 249.806 331.828 253.235 317.739 252.707C305.312 252.242 291.635 248.641 281.654 239.35C277.923 241.379 273.73 242.422 269.515 242.808C263.193 243.387 256.343 242.544 249.722 240.916C236.545 237.676 223.037 231.011 214.398 224.022C210.231 220.652 206.33 218.884 201.991 218.036C197.497 217.158 192.25 217.21 185.259 217.933C180.829 218.391 175.607 219.146 169.542 220.022C157.255 221.798 141.509 224.074 121.876 225.397C118.483 225.626 115.531 223.096 115.238 219.707ZM279.966 233.09C280.863 232.5 281.698 231.833 282.465 231.082C283.789 232.73 285.24 234.225 286.796 235.578C305.239 251.611 338.462 247.569 350.534 239.024C363.624 229.758 378.023 200.638 358.388 186.078C348.948 179.078 336.369 178.571 329.027 183.226C325.677 185.35 323.418 188.549 323.045 192.696C323.404 188.703 323.211 184.61 322.138 180.772C319.298 170.618 310.29 162.252 289.01 162.252C266.872 162.252 256.523 169.798 255.035 178.052C254.552 180.731 255.002 183.484 256.285 186.078C256.285 186.078 253.593 184.036 248.691 181.966C239.921 178.262 224.078 174.465 203.924 182.107C198.011 184.35 191.253 188.612 183.527 193.486C175.317 198.665 166.014 204.534 155.467 209.402C145.324 214.084 134.032 217.841 121.456 219.169C135.498 218.223 147.233 216.825 157.23 215.46C161.103 214.931 164.714 214.408 168.097 213.917C192.626 210.359 205.182 208.538 218.324 219.169C233.141 231.156 265.042 242.907 279.966 233.09Z" fill="black"/>
<path fill-rule="evenodd" clip-rule="evenodd" d="M143.887 312.165C144.456 309.956 146.375 308.36 148.649 308.201L201.502 304.515C203.776 304.357 205.898 305.672 206.768 307.78C207.637 309.888 207.061 312.316 205.336 313.808L180.292 335.47C178.511 337.01 175.928 337.191 173.95 335.912L146.142 317.936C144.227 316.698 143.319 314.373 143.887 312.165ZM165.242 317.666L176.366 324.856L186.383 316.191L165.242 317.666Z" fill="#212529"/>
<g filter="url(#filter1_i_39_3150)">
<path d="M148.493 336.482L204.535 332.574L207.304 372.289C207.813 379.586 202.31 385.915 195.013 386.424L165.397 388.489C158.1 388.998 151.772 383.495 151.263 376.197L148.493 336.482Z" fill="#FFE296"/>
</g>
<mask id="mask3_39_3150" style="mask-type:alpha" maskUnits="userSpaceOnUse" x="148" y="332" width="60" height="57">
<path d="M148.493 336.482L204.534 332.574L207.304 372.289C207.813 379.586 202.31 385.915 195.012 386.424L165.397 388.489C158.1 388.998 151.771 383.495 151.263 376.197L148.493 336.482Z" fill="#FFE296"/>
</mask>
<g mask="url(#mask3_39_3150)">
<path fill-rule="evenodd" clip-rule="evenodd" d="M153.487 340.827C154.347 340.767 155.093 341.415 155.153 342.275L158.735 393.646C158.795 394.506 158.147 395.252 157.287 395.312C156.427 395.372 155.682 394.723 155.622 393.864L152.039 342.492C151.979 341.633 152.628 340.887 153.487 340.827Z" fill="#F1CC80"/>
<path fill-rule="evenodd" clip-rule="evenodd" d="M162.829 340.175C163.689 340.115 164.434 340.763 164.494 341.623L168.077 392.994C168.137 393.854 167.488 394.599 166.629 394.659C165.769 394.719 165.023 394.071 164.963 393.211L161.381 341.84C161.321 340.98 161.969 340.235 162.829 340.175Z" fill="#F1CC80"/>
<path fill-rule="evenodd" clip-rule="evenodd" d="M172.167 339.526C173.027 339.466 173.773 340.114 173.833 340.974L177.415 392.345C177.475 393.205 176.827 393.95 175.967 394.01C175.107 394.07 174.362 393.422 174.302 392.562L170.719 341.191C170.659 340.331 171.308 339.586 172.167 339.526Z" fill="#F1CC80"/>
<path fill-rule="evenodd" clip-rule="evenodd" d="M181.509 338.873C182.369 338.813 183.114 339.462 183.174 340.322L186.757 391.693C186.817 392.553 186.168 393.298 185.309 393.358C184.449 393.418 183.703 392.77 183.643 391.91L180.061 340.539C180.001 339.679 180.649 338.933 181.509 338.873Z" fill="#F1CC80"/>
<path fill-rule="evenodd" clip-rule="evenodd" d="M190.848 338.221C191.707 338.161 192.453 338.809 192.513 339.669L196.095 391.04C196.155 391.9 195.507 392.646 194.647 392.706C193.788 392.766 193.042 392.117 192.982 391.258L189.399 339.886C189.339 339.027 189.988 338.281 190.848 338.221Z" fill="#F1CC80"/>
<path fill-rule="evenodd" clip-rule="evenodd" d="M200.189 337.569C201.049 337.509 201.794 338.158 201.854 339.017L205.437 390.389C205.497 391.248 204.849 391.994 203.989 392.054C203.129 392.114 202.384 391.466 202.324 390.606L198.741 339.234C198.681 338.375 199.329 337.629 200.189 337.569Z" fill="#F1CC80"/>
<path fill-rule="evenodd" clip-rule="evenodd" d="M210.018 343.924C210.078 344.784 209.429 345.53 208.57 345.59L146.301 349.932C145.442 349.992 144.696 349.344 144.636 348.484C144.576 347.624 145.224 346.879 146.084 346.819L208.352 342.476C209.212 342.416 209.958 343.065 210.018 343.924Z" fill="#F1CC80"/>
<path fill-rule="evenodd" clip-rule="evenodd" d="M210.67 353.266C210.73 354.125 210.082 354.871 209.222 354.931L146.954 359.274C146.094 359.334 145.348 358.685 145.288 357.825C145.228 356.966 145.877 356.22 146.737 356.16L209.005 351.818C209.865 351.758 210.61 352.406 210.67 353.266Z" fill="#F1CC80"/>
<path fill-rule="evenodd" clip-rule="evenodd" d="M211.319 362.605C211.379 363.464 210.731 364.21 209.871 364.27L147.603 368.612C146.743 368.672 145.998 368.024 145.938 367.164C145.878 366.305 146.526 365.559 147.386 365.499L209.654 361.156C210.514 361.096 211.259 361.745 211.319 362.605Z" fill="#F1CC80"/>
<path fill-rule="evenodd" clip-rule="evenodd" d="M211.971 371.946C212.031 372.806 211.383 373.552 210.523 373.612L148.255 377.954C147.395 378.014 146.65 377.366 146.59 376.506C146.53 375.646 147.178 374.901 148.038 374.841L210.306 370.498C211.166 370.438 211.912 371.087 211.971 371.946Z" fill="#F1CC80"/>
<path fill-rule="evenodd" clip-rule="evenodd" d="M212.624 381.285C212.684 382.144 212.035 382.89 211.176 382.95L148.907 387.293C148.048 387.353 147.302 386.704 147.242 385.844C147.182 384.985 147.83 384.239 148.69 384.179L210.958 379.837C211.818 379.777 212.564 380.425 212.624 381.285Z" fill="#F1CC80"/>
</g>
<path fill-rule="evenodd" clip-rule="evenodd" d="M215.134 331.911C215.337 334.83 213.136 337.361 210.217 337.564L144.161 342.171C141.242 342.375 138.71 340.174 138.507 337.255C138.303 334.336 140.505 331.804 143.423 331.601L209.48 326.994C212.399 326.791 214.93 328.992 215.134 331.911Z" fill="#FFE196"/>
<path fill-rule="evenodd" clip-rule="evenodd" d="M204.91 337.935L210.217 337.565C213.136 337.361 215.337 334.83 215.134 331.911C214.93 328.992 212.399 326.791 209.48 326.994L143.423 331.601C140.504 331.805 138.303 334.336 138.507 337.255C138.71 340.174 141.242 342.375 144.161 342.172L148.869 341.843L151.264 376.197C151.773 383.494 158.102 388.997 165.399 388.489L195.014 386.423C202.312 385.914 207.815 379.586 207.306 372.289L204.91 337.935ZM143.069 348.405C137.377 348.055 132.687 343.532 132.28 337.689C131.837 331.331 136.631 325.818 142.989 325.374L209.046 320.768C215.404 320.324 220.917 325.119 221.361 331.477C221.782 337.525 217.464 342.809 211.569 343.691L213.533 371.854C214.281 382.591 206.185 391.901 195.449 392.65L165.833 394.715C155.097 395.464 145.786 387.368 145.038 376.631L143.069 348.405Z" fill="black"/>
<path fill-rule="evenodd" clip-rule="evenodd" d="M160.387 107.313C107.433 111.835 57.89 142.846 62.0885 203.048C66.3522 264.186 122.008 300.353 149.514 313.833L174.667 312.078L177.142 311.906L202.295 310.152C227.664 292.984 277.761 249.442 273.497 188.304C269.298 128.103 215.931 104.269 162.861 107.14L162.86 107.121C162.447 107.15 162.035 107.18 161.623 107.212C161.211 107.237 160.798 107.265 160.386 107.293L160.387 107.313Z" fill="#FF3333"/>
<path fill-rule="evenodd" clip-rule="evenodd" d="M149.513 313.831C122.006 300.352 66.3508 264.184 62.087 203.047C57.9877 144.266 105.122 113.315 156.641 107.676C157.887 107.54 159.135 107.418 160.386 107.311L160.384 107.292C160.797 107.263 161.209 107.236 161.622 107.21C162.034 107.179 162.446 107.148 162.858 107.119L162.86 107.139C164.113 107.071 165.366 107.018 166.619 106.98C218.422 105.413 269.396 129.523 273.495 188.303C277.759 249.441 227.663 292.983 202.293 310.15L149.513 313.831ZM163.027 100.879C162.828 100.874 162.627 100.878 162.424 100.893C162.012 100.921 161.6 100.952 161.187 100.983C160.775 101.009 160.362 101.036 159.95 101.065C159.747 101.079 159.548 101.103 159.351 101.136C132.115 103.546 105.343 112.756 85.7414 129.56C65.812 146.646 53.6191 171.346 55.8602 203.481C58.1248 235.953 74.0436 261.595 92.6116 280.665C111.151 299.706 132.606 312.497 146.766 319.436C147.753 319.92 148.851 320.135 149.947 320.058L202.727 316.377C203.824 316.301 204.881 315.936 205.791 315.32C218.851 306.482 238.323 290.837 254.04 269.407C269.781 247.944 281.987 220.341 279.722 187.869C277.481 155.734 261.978 132.966 239.87 118.812C218.125 104.89 190.334 99.4858 163.027 100.879Z" fill="black"/>
<mask id="mask4_39_3150" style="mask-type:alpha" maskUnits="userSpaceOnUse" x="61" y="106" width="213" height="208">
<path fill-rule="evenodd" clip-rule="evenodd" d="M160.387 107.312C107.433 111.835 57.8904 142.846 62.0888 203.048C66.3526 264.185 122.008 300.353 149.515 313.832L174.668 312.078L177.142 311.906L202.295 310.151C227.664 292.984 277.761 249.442 273.497 188.304C269.299 128.102 215.931 104.268 162.862 107.14L162.86 107.121C162.448 107.149 162.036 107.18 161.623 107.212C161.211 107.237 160.799 107.264 160.386 107.293L160.387 107.312Z" fill="#FA5252"/>
</mask>
<g mask="url(#mask4_39_3150)">
<path d="M115.754 196.13C112.13 144.159 132.31 122.546 142.011 106.162C146.632 104.171 157.346 100.262 163.238 100.555L178.435 318.469L166.99 319.268C151.384 293.013 119.379 248.101 115.754 196.13Z" fill="#FFDB6F"/>
<path d="M228.398 189.423C224.826 138.196 201.098 119.934 188.851 105.305C215.827 105.376 271.315 121.616 277.458 186.002C283.601 250.387 230.775 299.97 203.595 316.713L191.906 317.528L194.239 313.088C206.56 285.277 231.971 240.651 228.398 189.423Z" fill="#FFDB6F"/>
</g>
<defs>
<filter id="filter0_i_39_3150" x="319.073" y="300.025" width="44.9926" height="43.0967" filterUnits="userSpaceOnUse" color-interpolation-filters="sRGB">
<feFlood flood-opacity="0" result="BackgroundImageFix"/>
<feBlend mode="normal" in="SourceGraphic" in2="BackgroundImageFix" result="shape"/>
<feColorMatrix in="SourceAlpha" type="matrix" values="0 0 0 0 0 0 0 0 0 0 0 0 0 0 0 0 0 0 127 0" result="hardAlpha"/>
<feOffset dx="-3.12098" dy="9.36293"/>
<feComposite in2="hardAlpha" operator="arithmetic" k2="-1" k3="1"/>
<feColorMatrix type="matrix" values="0 0 0 0 0.775 0 0 0 0 0.560583 0 0 0 0 0.238958 0 0 0 0.25 0"/>
<feBlend mode="normal" in2="shape" result="effect1_innerShadow_39_3150"/>
</filter>
<filter id="filter1_i_39_3150" x="148.493" y="332.574" width="58.8438" height="55.9473" filterUnits="userSpaceOnUse" color-interpolation-filters="sRGB">
<feFlood flood-opacity="0" result="BackgroundImageFix"/>
<feBlend mode="normal" in="SourceGraphic" in2="BackgroundImageFix" result="shape"/>
<feColorMatrix in="SourceAlpha" type="matrix" values="0 0 0 0 0 0 0 0 0 0 0 0 0 0 0 0 0 0 127 0" result="hardAlpha"/>
<feOffset dy="12.4839"/>
<feComposite in2="hardAlpha" operator="arithmetic" k2="-1" k3="1"/>
<feColorMatrix type="matrix" values="0 0 0 0 0.775 0 0 0 0 0.560583 0 0 0 0 0.238958 0 0 0 0.25 0"/>
<feBlend mode="normal" in2="shape" result="effect1_innerShadow_39_3150"/>
</filter>
</defs>
</svg>
