<svg width="512" height="512" viewBox="0 0 512 512" fill="none" xmlns="http://www.w3.org/2000/svg">
<g clip-path="url(#clip0_39_3311)">
<path fill-rule="evenodd" clip-rule="evenodd" d="M59.0712 286.19L59.0757 286.18C59.3598 254.663 73.7587 236.146 88.7347 216.886C98.5689 204.239 108.652 191.272 115.151 174.094C117.608 167.597 119.689 161.165 121.726 154.872L121.726 154.872C133.354 118.934 143.526 87.498 214.114 73.9764C289.985 59.4426 415.339 83.6654 430.183 209.621C430.67 213.753 431.083 217.875 431.42 221.982C435.974 223.649 439.259 226.141 440.728 228.63C451.484 222.722 463.845 229.694 469.372 253.232C471.868 263.866 466.928 275.148 459.624 281.126C455.379 284.6 450.336 286.283 445.49 285.007C449.298 287.799 452.061 292.476 453.159 297.993C454.294 303.697 453.65 310.3 450.543 316.648C445.132 327.709 432.15 336.564 423.879 336.651C421.887 336.672 420.168 336.184 418.894 335.097C418.314 336.956 417.392 338.906 416.16 340.81C415.315 342.895 414.437 344.956 413.525 346.993C386.711 406.858 330.55 445.452 238.855 435.694C114.552 422.466 67.7591 365.362 60.2004 305.404C56.8749 301.832 54.7728 295.647 59.0712 286.19ZM47.8912 310.473C45.9634 307.457 44.5277 303.832 43.9932 299.63C43.3305 294.422 44.1339 288.993 46.2416 283.48C47.3224 249.142 63.596 228.218 78.1133 209.552L78.5616 208.976C88.4981 196.198 97.3791 184.65 103.097 169.534C105.427 163.377 107.415 157.24 109.465 150.905L109.465 150.905C109.572 150.575 109.678 150.245 109.785 149.915C115.383 132.604 121.578 113.447 136.293 97.3292C151.605 80.5587 174.727 68.4002 211.689 61.3198C251.78 53.6401 304.926 56.1059 350.498 77.4444C396.757 99.1045 434.981 140.228 442.981 208.112C443.203 209.99 443.409 211.866 443.601 213.74C443.759 213.844 443.916 213.95 444.072 214.056C451.176 212.979 458.495 214.767 464.873 219.679C473.316 226.179 478.82 237.095 481.917 250.287C484.927 263.103 480.811 275.799 474.079 284.572C471.766 287.586 468.763 290.568 465.228 292.982C467.681 302.267 466.738 312.873 462.119 322.312C457.435 331.884 449.145 339.656 441.089 344.291C437.021 346.631 432.331 348.571 427.495 349.264C427.188 349.309 426.871 349.349 426.547 349.383C412.712 381.642 390.851 408.903 359.927 426.931C327.832 445.642 287.05 453.782 237.491 448.508C173.669 441.716 128.218 423.507 97.5111 397.983C67.6852 373.192 52.6392 342.208 47.8912 310.473Z" fill="white"/>
<path fill-rule="evenodd" clip-rule="evenodd" d="M59.0709 286.191L59.0754 286.181C59.3595 254.664 73.7584 236.146 88.7343 216.887C98.5686 204.24 108.652 191.273 115.15 174.095C117.608 167.597 119.689 161.166 121.725 154.873L121.726 154.872C133.354 118.935 143.526 87.4986 214.113 73.977C289.985 59.4432 415.338 83.666 430.183 209.621C430.67 213.754 431.082 217.876 431.419 221.983C435.974 223.65 439.258 226.141 440.727 228.63C451.484 222.723 463.845 229.695 469.371 253.233C472.467 266.418 464.128 280.6 454.027 284.432C451.248 285.486 448.335 285.757 445.49 285.007C447.754 286.667 449.648 288.994 451.043 291.766C454.42 298.48 454.868 307.811 450.543 316.649C445.131 327.709 432.15 336.564 423.878 336.651C421.887 336.672 420.168 336.185 418.894 335.097C418.314 336.956 417.392 338.907 416.159 340.811C416.132 340.878 416.105 340.944 416.078 341.011C390.371 404.264 333.569 445.774 238.854 435.694C114.552 422.466 67.7588 365.363 60.2001 305.405C56.8746 301.832 54.7724 295.647 59.0709 286.191ZM54.0542 308.072C52.2421 305.615 50.8568 302.528 50.3847 298.818C49.8438 294.566 50.5477 289.876 52.6522 284.797C53.3463 251.898 68.6936 232.162 83.4059 213.243L83.6478 212.932C93.5332 200.219 103.015 187.962 109.124 171.815C111.517 165.488 113.552 159.203 115.595 152.889L115.595 152.889L115.595 152.888L115.773 152.339C121.465 134.745 127.286 116.751 141.051 101.674C155.117 86.2683 176.773 74.5693 212.901 67.6487C251.915 60.1754 303.641 62.6194 347.766 83.2804C392.234 104.102 428.871 143.436 436.582 208.867C436.927 211.793 437.235 214.715 437.506 217.631C439.34 218.582 441.04 219.699 442.519 220.969C448.725 219.231 455.247 220.4 460.942 224.784C467.726 230.008 472.714 239.28 475.644 251.76C478.136 262.372 474.74 273.125 468.967 280.65C465.997 284.52 461.986 288.001 457.367 290.03C461.183 298.558 461.186 309.558 456.331 319.481C452.31 327.698 445.03 334.59 437.875 338.706C434.278 340.776 430.372 342.343 426.579 342.887C425.252 343.077 423.816 343.156 422.354 343.036C422.21 343.283 422.062 343.528 421.911 343.771C408.613 376.318 387.201 403.573 356.682 421.365C326.001 439.251 286.656 447.261 238.172 442.101C175.186 435.399 131.073 417.502 101.629 393.028C72.668 368.956 58.3438 338.881 54.0542 308.072Z" fill="black"/>
<path d="M214.115 73.9781C131.166 89.8677 131.646 130.496 115.152 174.096C98.6578 217.696 59.0725 234.167 59.0725 287.133C59.0725 353.34 101.957 421.127 238.856 435.695C390.599 451.843 445.029 335.577 430.184 209.622C415.34 83.6671 289.987 59.4443 214.115 73.9781Z" fill="#4AA8FF"/>
<mask id="mask0_39_3311" style="mask-type:alpha" maskUnits="userSpaceOnUse" x="59" y="70" width="374" height="368">
<path d="M214.115 73.9783C131.166 89.8679 131.645 130.496 115.152 174.096C98.6578 217.696 59.0725 234.167 59.0725 287.133C59.0725 353.34 101.957 421.127 238.856 435.696C390.599 451.844 445.029 335.578 430.184 209.622C415.34 83.6674 289.987 59.4445 214.115 73.9783Z" fill="#4AA8FF"/>
</mask>
<g mask="url(#mask0_39_3311)">
<path d="M200.395 -6.89038L332.579 69.4262L228.659 249.422L96.4745 173.105L200.395 -6.89038Z" fill="#7BC0FF"/>
<path fill-rule="evenodd" clip-rule="evenodd" d="M314.976 74.1431L205.112 10.7132L114.078 168.388L223.942 231.818L314.976 74.1431ZM200.395 -6.89038L96.4745 173.105L228.659 249.422L332.579 69.4262L200.395 -6.89038Z" fill="#3193ED"/>
<path d="M200.395 -6.89038L308.799 55.697L245.488 165.356L137.083 102.769L200.395 -6.89038Z" fill="#61ACF1"/>
<path d="M356.266 86.8528L544.699 195.645L486.243 296.892L297.811 188.1L356.266 86.8528Z" fill="#7BC0FF"/>
<path d="M263.394 228.229L446.202 333.774L332.539 530.644L149.731 425.1L263.394 228.229Z" fill="#7BC0FF"/>
<path d="M270.174 261.834L341.905 303.248L312.663 353.896L240.932 312.482L270.174 261.834Z" fill="#67B1F5"/>
<path d="M270.174 261.834L341.905 303.248L312.663 353.896L240.932 312.482L270.174 261.834Z" fill="#67B1F5"/>
<path d="M361.105 313.796L432.835 355.21L403.594 405.858L331.863 364.444L361.105 313.796Z" fill="#67B1F5"/>
<path d="M227.955 333.28L299.686 374.694L270.445 425.342L198.714 383.928L227.955 333.28Z" fill="#67B1F5"/>
<path d="M188.984 404.727L260.715 446.14L231.473 496.788L159.742 455.375L188.984 404.727Z" fill="#67B1F5"/>
<path d="M318.886 385.239L390.617 426.653L361.375 477.301L289.644 435.887L318.886 385.239Z" fill="#67B1F5"/>
<path d="M156.013 235.605C115.212 207.549 72.2288 205.357 55.8372 207.768C45.9017 207.656 30.8607 226.347 50.1809 302C74.3312 396.566 114.851 388.086 157.213 373.169C199.574 358.253 207.013 270.675 156.013 235.605Z" fill="#3193ED"/>
<path d="M284.809 185.186C330.275 157.582 357.879 102.375 344.888 76.3945L408.215 92.6321C418.499 129.979 399.122 210.192 239.344 232.275C79.5665 254.358 52.6121 324.829 59.1071 357.305C48.8233 369.212 34.426 376.14 59.1071 308.592C89.9585 224.156 236.689 214.402 284.809 185.186Z" fill="white" fill-opacity="0.12"/>
<path d="M196.842 426.515C189.709 442.361 183.368 456.318 177.608 466.43C180.616 458.406 187.187 444.033 196.842 426.515C219.87 375.354 251.151 304.493 297.766 279.698C356.192 248.62 362.77 220.02 358.485 208.13C358.281 207.609 358.066 207.109 357.845 206.628C358.078 207.094 358.292 207.595 358.485 208.13C364.268 222.856 362.233 253.571 302.637 297.559C255.501 332.35 218.449 387.309 196.842 426.515Z" fill="white" fill-opacity="0.12"/>
</g>
<path d="M210.085 183.954C214.615 179.424 221.96 179.424 226.49 183.954C231.02 188.484 231.02 195.829 226.49 200.358L199.149 227.699C194.619 232.229 187.275 232.229 182.745 227.699C178.215 223.169 178.215 215.825 182.745 211.295L210.085 183.954Z" fill="#FFD43B"/>
<path fill-rule="evenodd" clip-rule="evenodd" d="M231.046 204.916L203.705 232.256C196.659 239.302 185.235 239.302 178.189 232.256C171.143 225.21 171.143 213.786 178.189 206.74L205.529 179.399C212.576 172.353 224 172.353 231.046 179.399C238.092 186.445 238.092 197.869 231.046 204.916ZM226.49 183.955C221.96 179.425 214.615 179.425 210.085 183.955L182.745 211.296C178.215 215.826 178.215 223.17 182.745 227.7C187.275 232.23 194.619 232.23 199.149 227.7L226.49 200.359C231.02 195.829 231.02 188.485 226.49 183.955Z" fill="black"/>
<path d="M129.201 184.95C141.062 185.643 219.553 206.84 264.056 219.214C268.07 220.33 269.915 224.949 267.793 228.534L233.503 286.497C231.519 289.851 227.007 290.638 224.009 288.147C193.516 262.814 139.448 217.449 128.498 206.499C113.906 191.907 113.445 184.029 129.201 184.95Z" fill="#BACDFF"/>
<path fill-rule="evenodd" clip-rule="evenodd" d="M186.008 191.464C212.725 198.409 243.511 206.813 265.782 213.005C273.905 215.264 277.605 224.601 273.338 231.814L239.048 289.776L233.503 286.496L267.793 228.533C269.914 224.948 268.07 220.329 264.056 219.213C219.552 206.838 141.062 185.642 129.2 184.949C113.445 184.028 113.905 191.905 128.497 206.498C139.448 217.448 193.515 262.813 224.008 288.146C227.006 290.637 231.518 289.85 233.503 286.496L239.048 289.776C235.049 296.537 225.945 298.132 219.891 293.102C189.568 267.911 135.164 222.277 123.941 211.054C120.138 207.251 117.049 203.685 114.873 200.417C112.825 197.342 110.994 193.672 111.025 189.853C111.042 187.762 111.623 185.626 112.982 183.744C114.306 181.909 116.077 180.717 117.844 179.957C121.183 178.519 125.324 178.268 129.576 178.516C133.223 178.729 140.976 180.352 150.487 182.581C160.283 184.877 172.655 187.993 186.008 191.464Z" fill="black"/>
<path d="M342.668 316.54C347.198 312.01 347.198 304.666 342.668 300.136C338.138 295.606 330.794 295.606 326.264 300.136L298.923 327.476C294.393 332.006 294.393 339.351 298.923 343.881C303.453 348.411 310.798 348.411 315.328 343.881L342.668 316.54Z" fill="#FFD43B"/>
<path fill-rule="evenodd" clip-rule="evenodd" d="M321.71 295.58L294.369 322.92C287.323 329.966 287.323 341.391 294.369 348.437C301.416 355.483 312.84 355.483 319.886 348.437L347.227 321.096C354.273 314.05 354.273 302.626 347.227 295.58C340.18 288.533 328.756 288.533 321.71 295.58ZM342.67 300.136C347.2 304.666 347.2 312.01 342.67 316.54L315.33 343.881C310.8 348.411 303.455 348.411 298.925 343.881C294.396 339.351 294.396 332.006 298.925 327.476L326.266 300.136C330.796 295.606 338.14 295.606 342.67 300.136Z" fill="black"/>
<path d="M341.676 397.424C340.982 385.563 319.786 307.073 307.411 262.569C306.295 258.555 301.676 256.711 298.091 258.832L240.129 293.122C236.774 295.106 235.987 299.619 238.478 302.617C263.811 333.11 309.176 387.177 320.127 398.128C334.719 412.72 342.597 413.18 341.676 397.424Z" fill="#BACDFF"/>
<path fill-rule="evenodd" clip-rule="evenodd" d="M335.161 340.617C328.216 313.901 319.813 283.114 313.62 260.843C311.361 252.72 302.024 249.02 294.811 253.287L236.849 287.577L240.13 293.122L298.092 258.832C301.678 256.711 306.296 258.556 307.412 262.569C319.787 307.073 340.984 385.564 341.677 397.425C342.598 413.181 334.72 412.72 320.128 398.128C309.177 387.178 263.813 333.11 238.479 302.617C235.989 299.619 236.775 295.107 240.13 293.122L236.849 287.577C230.088 291.577 228.493 300.68 233.523 306.735C258.715 337.057 304.349 391.461 315.572 402.684C319.375 406.487 322.941 409.576 326.209 411.753C329.283 413.801 332.953 415.632 336.773 415.6C338.863 415.583 340.999 415.002 342.882 413.644C344.716 412.319 345.908 410.548 346.669 408.781C348.106 405.442 348.358 401.301 348.109 397.049C347.896 393.402 346.273 385.65 344.044 376.138C341.749 366.342 338.633 353.971 335.161 340.617Z" fill="black"/>
<path fill-rule="evenodd" clip-rule="evenodd" d="M119.347 248.099C119.759 247.31 120.732 247.004 121.52 247.416C127.884 250.736 137.376 257.176 145.301 265.776C153.211 274.36 159.733 285.289 159.733 297.557C159.733 321.673 143.035 338.778 134.659 344.362C133.919 344.856 132.919 344.656 132.425 343.916C131.932 343.175 132.132 342.175 132.872 341.682C140.734 336.441 156.511 320.205 156.511 297.557C156.511 286.442 150.583 276.262 142.932 267.959C135.296 259.673 126.116 253.447 120.03 250.272C119.241 249.861 118.936 248.888 119.347 248.099Z" fill="#7BC0FF" fill-opacity="0.09"/>
<path fill-rule="evenodd" clip-rule="evenodd" d="M97.7881 264.233C98.2564 264.99 98.0228 265.983 97.2663 266.451C91.7671 269.855 84.4713 276.383 80.4581 284.812C76.4939 293.138 75.6984 303.354 83.1449 314.524C90.7067 325.867 98.9297 329.584 105.986 329.884C113.146 330.187 119.418 326.985 122.974 323.937C123.65 323.358 124.666 323.437 125.245 324.112C125.824 324.787 125.746 325.804 125.071 326.383C121.049 329.83 114.007 333.448 105.849 333.102C97.5877 332.752 88.4906 328.351 80.4643 316.311C72.3228 304.099 73.1511 292.665 77.5493 283.427C81.8984 274.293 89.7035 267.344 95.5706 263.712C96.327 263.243 97.3198 263.477 97.7881 264.233Z" fill="#7BC0FF" fill-opacity="0.09"/>
<path fill-rule="evenodd" clip-rule="evenodd" d="M115.818 280.889C113.556 282.032 111.72 284.003 110.748 285.46C110.255 286.2 109.255 286.4 108.515 285.907C107.774 285.413 107.574 284.413 108.068 283.673C109.261 281.883 111.484 279.469 114.365 278.014C117.316 276.523 121.029 276.021 124.851 278.314C128.664 280.602 130.309 284.522 130.89 288.213C131.472 291.905 131.038 295.618 130.456 297.948C130.24 298.811 129.366 299.335 128.502 299.12C127.639 298.904 127.115 298.029 127.33 297.166C127.83 295.166 128.209 291.896 127.708 288.714C127.207 285.531 125.874 282.685 123.193 281.076C120.52 279.473 118.009 279.782 115.818 280.889Z" fill="#7BC0FF" fill-opacity="0.09"/>
<path fill-rule="evenodd" clip-rule="evenodd" d="M170.067 330.151C170.897 330.471 171.312 331.403 170.992 332.233C168.125 339.688 156.834 355.777 134.221 362.428C111.506 369.109 91.3872 359.668 84.0713 354.04C83.3662 353.498 83.2342 352.487 83.7767 351.781C84.3191 351.076 85.3305 350.944 86.0356 351.487C92.7923 356.684 111.86 365.646 133.312 359.337C154.865 352.998 165.44 337.694 167.985 331.076C168.305 330.246 169.237 329.832 170.067 330.151Z" fill="#7BC0FF" fill-opacity="0.08"/>
<path fill-rule="evenodd" clip-rule="evenodd" d="M334.962 88.4768C336.544 89.2916 337.166 91.2344 336.351 92.8162L332.9 99.5142C332.086 101.096 330.143 101.718 328.561 100.903C326.979 100.088 326.358 98.1451 327.172 96.5634L330.623 89.8654C331.438 88.2836 333.381 87.6619 334.962 88.4768ZM324.611 108.571C326.193 109.386 326.814 111.328 325.999 112.91L319.098 126.306C318.284 127.888 316.341 128.51 314.759 127.695C313.177 126.88 312.556 124.937 313.37 123.355L320.271 109.959C321.086 108.378 323.029 107.756 324.611 108.571ZM310.809 135.363C312.391 136.178 313.012 138.12 312.197 139.702L305.296 153.098C304.482 154.68 302.539 155.302 300.957 154.487C299.375 153.672 298.754 151.729 299.569 150.147L306.469 136.751C307.284 135.17 309.227 134.548 310.809 135.363ZM297.007 162.155C298.589 162.97 299.21 164.912 298.396 166.494L291.495 179.89C290.68 181.472 288.737 182.094 287.155 181.279C285.573 180.464 284.952 178.521 285.767 176.939L292.668 163.543C293.482 161.962 295.425 161.34 297.007 162.155ZM283.205 188.947C284.787 189.762 285.408 191.704 284.594 193.286L282.485 197.379L286.243 199.789C287.74 200.749 288.176 202.742 287.215 204.24C286.255 205.737 284.262 206.173 282.764 205.212L276.54 201.221C275.141 200.324 274.654 198.51 275.415 197.033L278.866 190.335C279.68 188.754 281.623 188.132 283.205 188.947ZM294.24 208.745C295.201 207.247 297.194 206.812 298.691 207.772L311.14 215.756C312.638 216.716 313.074 218.709 312.113 220.207C311.153 221.704 309.16 222.14 307.662 221.179L295.213 213.196C293.715 212.235 293.28 210.243 294.24 208.745ZM319.138 224.712C320.099 223.214 322.091 222.778 323.589 223.739L336.038 231.722C337.536 232.683 337.971 234.676 337.011 236.174C336.05 237.671 334.057 238.107 332.56 237.146L320.111 229.163C318.613 228.202 318.177 226.209 319.138 224.712ZM344.036 240.679C344.996 239.181 346.989 238.745 348.487 239.706L360.936 247.689C362.433 248.65 362.869 250.643 361.908 252.141C360.948 253.638 358.955 254.074 357.457 253.113L345.008 245.13C343.511 244.169 343.075 242.176 344.036 240.679ZM368.933 256.646C369.894 255.148 371.887 254.712 373.384 255.673L385.833 263.656C387.331 264.617 387.766 266.61 386.806 268.107C385.845 269.605 383.853 270.041 382.355 269.08L369.906 261.097C368.408 260.136 367.973 258.143 368.933 256.646ZM393.831 272.613C394.791 271.115 396.784 270.679 398.282 271.64L410.731 279.623C412.228 280.584 412.664 282.577 411.703 284.074C410.743 285.572 408.75 286.008 407.252 285.047L394.804 277.064C393.306 276.103 392.87 274.11 393.831 272.613ZM418.728 288.58C419.689 287.082 421.682 286.646 423.18 287.607L429.404 291.599L425.926 297.022L419.701 293.031C418.203 292.07 417.768 290.077 418.728 288.58Z" fill="#FAFAFA" fill-opacity="0.69"/>
<path d="M129.146 316.198C140.657 315.148 160.934 323.485 178.316 330.053C182.2 331.52 183.734 336.246 181.398 339.679L166.783 361.154C164.726 364.176 160.553 364.841 157.672 362.591C145.807 353.322 128.248 339.407 124.536 335.695C115.084 326.243 122.349 316.819 129.146 316.198Z" fill="#FF6B6B"/>
<path fill-rule="evenodd" clip-rule="evenodd" d="M175.453 322.071C177.2 322.737 178.918 323.393 180.592 324.026C188.309 326.941 191.446 336.367 186.724 343.305L172.109 364.78C167.97 370.861 159.539 372.227 153.705 367.669C147.759 363.025 140.376 357.207 134.005 352.079C127.792 347.077 122.141 342.413 119.979 340.252C113.726 333.999 112.158 326.589 114.786 320.188C117.152 314.427 122.69 310.318 128.56 309.782C135.748 309.126 144.818 311.361 153.489 314.132C160.638 316.416 168.288 319.336 175.453 322.071ZM173.074 328.06C157 321.925 139.515 315.253 129.145 316.199C122.348 316.82 115.083 326.243 124.535 335.696C128.247 339.407 145.806 353.322 157.671 362.592C160.552 364.842 164.725 364.176 166.782 361.155L181.397 339.68C183.733 336.247 182.199 331.521 178.315 330.053C176.593 329.403 174.842 328.734 173.074 328.06Z" fill="black"/>
<path d="M218 405.055C219.05 393.545 210.713 373.268 204.146 355.885C202.678 352.001 197.952 350.467 194.519 352.803L173.044 367.419C170.023 369.475 169.357 373.649 171.607 376.529C180.877 388.394 194.791 405.953 198.503 409.665C207.955 419.117 217.379 411.852 218 405.055Z" fill="#FF6B6B"/>
<path fill-rule="evenodd" clip-rule="evenodd" d="M212.128 358.745C211.461 356.999 210.805 355.281 210.172 353.606C207.257 345.889 197.831 342.753 190.893 347.475L169.418 362.09C163.337 366.228 161.971 374.659 166.529 380.494C171.174 386.439 176.991 393.822 182.12 400.193C187.121 406.406 191.785 412.058 193.946 414.219C200.2 420.472 207.609 422.04 214.01 419.412C219.771 417.046 223.88 411.508 224.416 405.639C225.072 398.45 222.838 389.381 220.067 380.709C217.782 373.561 214.862 365.911 212.128 358.745ZM206.138 361.124C212.273 377.198 218.946 394.683 217.999 405.053C217.379 411.85 207.955 419.115 198.503 409.663C194.791 405.951 180.876 388.392 171.607 376.527C169.356 373.647 170.022 369.473 173.043 367.417L194.518 352.801C197.951 350.465 202.677 351.999 204.145 355.883C204.796 357.606 205.464 359.357 206.138 361.124Z" fill="black"/>
<path d="M169.398 332.348C200.362 287.374 257.983 228.466 280.993 205.455C293.943 192.506 306.321 182.125 317.689 170.757C337.582 150.864 363.349 146.2 374.466 157.318C384.16 167.012 377.369 193.493 360.317 210.544C348.95 224.754 336.858 235.612 324.004 248.466C302.525 269.945 244.127 330.072 198.957 361.908C174.995 378.797 153.545 386.515 149.407 382.376C145.229 378.198 152.723 356.568 169.398 332.348Z" fill="#F9FAFF"/>
<path fill-rule="evenodd" clip-rule="evenodd" d="M148.34 376.945C148.104 379.551 148.449 381.421 149.405 382.377C153.543 386.515 174.992 378.798 198.955 361.909C240.024 332.963 292.029 280.63 317.277 255.222C319.798 252.685 322.052 250.417 324.002 248.467C327.029 245.439 330.015 242.522 332.958 239.646C342.511 230.312 351.625 221.408 360.315 210.545C377.366 193.493 384.158 167.012 374.464 157.319C373.288 156.143 371.949 155.144 370.47 154.321C376.229 165.851 369.191 188.782 353.871 204.102C345.181 214.964 336.068 223.869 326.515 233.203C323.571 236.079 320.586 238.996 317.559 242.023C315.609 243.973 313.354 246.242 310.833 248.779C285.585 274.187 233.581 326.52 192.512 355.466C174.029 368.492 157.042 376.062 148.34 376.945Z" fill="#E2E7F3"/>
<path fill-rule="evenodd" clip-rule="evenodd" d="M317.689 170.758C312.19 176.257 306.454 181.525 300.532 186.965C294.212 192.77 287.679 198.771 280.993 205.456C257.983 228.467 200.362 287.375 169.398 332.349C152.723 356.569 145.229 378.199 149.407 382.377C153.545 386.515 174.995 378.798 198.957 361.909C240.026 332.963 292.031 280.63 317.279 255.222C319.8 252.685 322.054 250.417 324.004 248.467C327.032 245.439 330.017 242.523 332.96 239.647C342.514 230.312 351.627 221.408 360.317 210.545C377.369 193.494 384.16 167.013 374.466 157.319C363.349 146.201 337.582 150.865 317.689 170.758ZM365.129 214.844C374.331 205.545 380.774 193.769 383.653 182.81C386.418 172.284 386.413 160.153 379.022 152.763C371.299 145.04 359.444 143.603 347.988 146.116C336.33 148.673 323.845 155.489 313.132 166.202L313.132 166.202C307.732 171.603 302.087 176.788 296.133 182.257L295.575 182.769C289.446 188.399 283.021 194.317 276.437 200.9C253.487 223.85 195.442 283.159 164.09 328.695C155.528 341.132 149.22 353.045 145.566 362.571C143.752 367.302 142.495 371.693 142.03 375.402C141.798 377.251 141.729 379.181 142.017 381.017C142.296 382.803 143.008 385.09 144.851 386.934C146.708 388.791 149.013 389.489 150.8 389.753C152.637 390.024 154.561 389.935 156.398 389.684C160.082 389.181 164.438 387.878 169.126 386.017C178.567 382.269 190.365 375.848 202.669 367.176C244.249 337.87 296.687 285.091 321.859 259.755C324.379 257.219 326.625 254.958 328.56 253.023C331.473 250.111 334.385 247.266 337.286 244.432C346.821 235.117 356.233 225.922 365.129 214.844Z" fill="black"/>
<path d="M357.426 174.042C349.129 165.745 335.371 161.048 330.319 160.569C339.994 152.115 364.058 146.749 374.24 157.146C384.459 167.581 376.726 188.848 369.234 199.57C368.755 194.518 365.723 182.339 357.426 174.042Z" fill="#FF6B6B"/>
<path d="M203.834 329.279C205.055 328.057 205.055 326.077 203.834 324.855C202.612 323.633 200.631 323.633 199.41 324.855L170.014 354.25C168.793 355.472 168.793 357.453 170.014 358.674C171.236 359.896 173.217 359.896 174.438 358.674L203.834 329.279Z" fill="#FF6B6B"/>
<path d="M237.979 77.1926C222.722 84.6885 225.361 101.398 228.588 108.816C222.597 98.3471 200.274 107.372 196.016 121.279C190.054 140.749 204.626 148.777 214.957 149.041C214.996 156.224 220.34 169.121 241.408 163.241C262.477 157.36 265.043 144.054 263.692 138.136C268.877 141.86 281.573 146.432 290.874 134.933C300.175 123.434 295.521 110.142 292.031 104.934C297.178 101.474 304.953 92.2894 294.882 83.2299C284.811 74.1704 270.264 82.907 264.249 88.4078C261.849 81.5461 253.236 69.6967 237.979 77.1926Z" fill="white"/>
<path fill-rule="evenodd" clip-rule="evenodd" d="M219.969 92.1418C221.063 84.3069 225.313 76.2352 235.136 71.4094C244.737 66.6923 253.145 67.8479 259.488 72.0412C262.332 73.9222 264.612 76.3096 266.378 78.7642C269.247 76.9654 272.58 75.2989 276.146 74.2007C283.052 72.0739 291.867 71.8524 299.189 78.4393C302.423 81.348 304.617 84.6309 305.616 88.2349C306.622 91.8601 306.277 95.306 305.254 98.2775C304.128 101.552 302.166 104.326 300.085 106.505C303.39 114.502 305.276 127.372 295.882 138.985C289.869 146.419 282.375 148.918 275.517 148.682C273.364 148.608 271.303 148.27 269.385 147.761C268.733 149.884 267.751 152.061 266.366 154.202C262.231 160.593 254.849 166.178 243.139 169.447C231.293 172.753 222.238 171.161 216.116 165.944C212.341 162.727 210.273 158.619 209.28 154.805C204.147 153.687 198.77 151.143 194.672 146.766C188.688 140.375 186.296 131.011 189.853 119.392C192.728 110.004 201.225 103.068 209.302 99.9063C212.575 98.625 216.153 97.8066 219.679 97.8187C219.619 95.9706 219.7 94.0644 219.969 92.1418ZM226.192 98.9288C226.49 102.803 227.505 106.331 228.586 108.815C226.908 105.882 223.947 104.479 220.46 104.286C211.504 103.788 199.079 111.269 196.014 121.279C190.053 140.748 204.624 148.777 214.956 149.041C214.994 156.224 220.339 169.121 241.407 163.24C255.856 159.207 261.602 151.682 263.351 145.442C264.153 142.584 264.115 139.995 263.69 138.136C265.312 139.301 267.669 140.548 270.427 141.361C276.486 143.147 284.48 142.835 290.872 134.933C300.174 123.434 295.519 110.142 292.03 104.934C297.176 101.474 304.951 92.2892 294.88 83.2297C287.119 76.2479 276.699 79.8356 269.575 84.3661C267.455 85.7144 265.627 87.1461 264.247 88.4077C263.631 86.6458 262.605 84.5551 261.163 82.5475C256.986 76.7363 249.317 71.6213 237.977 77.1924C227.831 82.1774 225.599 91.237 226.192 98.9288Z" fill="black"/>
<path d="M450.544 316.647C456.655 304.159 453.236 290.685 445.49 285.005C458.674 288.479 473.32 270.044 469.372 253.231C463.846 229.693 451.484 222.721 440.728 228.629C436.393 221.282 416.238 213.91 394.297 227.808C372.441 241.652 380.336 265.676 385.26 270.939C377.714 270.22 358.08 277.749 355.415 295.107C352.749 312.465 368.991 326.056 376.042 321.946C369.56 327.032 373.162 349.301 388.911 352.573C404.66 355.844 416.014 344.335 418.894 335.096C425.459 340.7 443.829 330.371 450.544 316.647Z" fill="white"/>
<path fill-rule="evenodd" clip-rule="evenodd" d="M457.367 290.03C461.182 298.558 461.185 309.559 456.33 319.481C452.31 327.698 445.029 334.59 437.875 338.706C434.278 340.776 430.372 342.343 426.579 342.887C425.246 343.078 423.803 343.157 422.333 343.035C416.527 352.899 404.079 362.307 387.599 358.883L388.91 352.574C401.391 355.167 411.112 348.476 416.042 340.989C417.333 339.029 418.295 337.014 418.893 335.097C420.167 336.185 421.886 336.673 423.878 336.652C432.149 336.564 445.131 327.709 450.543 316.649C454.867 307.811 454.419 298.48 451.042 291.766C449.648 288.994 447.753 286.667 445.489 285.007C448.334 285.757 451.247 285.486 454.027 284.432C464.128 280.6 472.466 266.418 469.371 253.233C463.844 229.695 451.483 222.723 440.727 228.63C436.391 221.284 416.237 213.912 394.295 227.81C377.521 238.435 378.272 255.057 381.754 264.591C382.809 267.479 384.114 269.717 385.259 270.941C383.43 270.766 380.89 271.077 378.054 271.894C369.191 274.449 357.433 281.958 355.413 295.109C353.507 307.524 361.273 318.012 368.43 321.475C371.28 322.853 374.033 323.118 376.041 321.948C374.287 323.324 373.272 325.956 373.035 329.13C372.396 337.691 377.421 350.188 388.91 352.574L387.599 358.883C376.679 356.615 370.478 347.857 367.987 339.857C366.731 335.826 366.265 331.587 366.693 327.756C363.279 326.331 360.039 323.9 357.322 320.92C351.657 314.708 347.363 305.081 349.045 294.131C350.742 283.076 357.822 275.438 365.03 270.82C368.343 268.698 371.939 267.05 375.406 265.963C374.113 262.145 373.207 257.492 373.292 252.483C373.467 242.186 377.874 230.584 390.848 222.367C403.056 214.634 415.072 212.649 424.9 213.858C429.781 214.459 434.158 215.853 437.747 217.756C439.455 218.662 441.081 219.736 442.517 220.969C448.724 219.231 455.246 220.399 460.941 224.784C467.725 230.008 472.713 239.28 475.644 251.76C478.135 262.372 474.74 273.125 468.966 280.65C465.997 284.52 461.985 288.001 457.367 290.03Z" fill="black"/>
<path d="M59.0703 286.19C65.5653 271.901 84.5092 274.823 93.1692 278.071C95.8755 276.988 109.824 262.126 125.644 273.2C141.882 284.566 124.021 304.051 124.021 304.051C124.021 304.051 128.892 326.784 102.912 321.912C100.205 327.866 91.2207 338.474 76.9316 333.278C62.6426 328.082 63.4003 314.876 65.5653 308.922C60.694 307.298 52.5753 300.479 59.0703 286.19Z" fill="white"/>
<path fill-rule="evenodd" clip-rule="evenodd" d="M124.021 304.052C124.021 304.052 141.883 284.568 125.645 273.202C112.468 263.978 100.589 272.748 95.4239 276.561C94.3879 277.326 93.6219 277.892 93.1698 278.073C84.5097 274.825 65.5659 271.902 59.0709 286.191C52.8086 299.968 60.1314 306.802 65.0304 308.729C65.2125 308.801 65.3913 308.866 65.5659 308.924C65.4671 309.195 65.3712 309.482 65.2796 309.783C63.3631 316.066 63.2952 328.321 76.9322 333.28C91.2213 338.476 100.206 327.868 102.912 321.914C128.892 326.785 124.021 304.052 124.021 304.052ZM106.312 328.889C104.284 331.824 101.417 334.894 97.6945 337.234C91.7763 340.953 83.8898 342.666 74.7303 339.336C65.6121 336.02 60.7597 329.8 58.878 323.137C57.7945 319.301 57.7361 315.494 58.1824 312.212C55.9351 310.54 53.7925 308.221 52.2803 305.163C49.4164 299.372 49.3415 292.025 53.205 283.525C57.7207 273.591 66.6392 269.931 74.6803 269.143C80.9954 268.524 87.3359 269.563 92.1629 270.961C92.5621 270.668 92.9995 270.35 93.4337 270.042C95.536 268.551 98.4572 266.641 101.969 265.148C109.213 262.069 119.129 260.775 129.34 267.923C134.691 271.669 137.656 276.462 138.585 281.689C139.474 286.687 138.392 291.44 136.931 295.215C135.456 299.026 133.417 302.297 131.815 304.557C131.44 305.086 131.082 305.569 130.753 305.999C130.783 306.425 130.806 306.883 130.818 307.369C130.88 309.898 130.652 313.552 129.192 317.203C127.67 321.007 124.793 324.802 119.827 327.049C116.072 328.747 111.573 329.356 106.312 328.889Z" fill="black"/>
</g>
<defs>
<clipPath id="clip0_39_3311">
<rect width="512" height="512" fill="white"/>
</clipPath>
</defs>
</svg>
