<svg width="512" height="512" viewBox="0 0 512 512" fill="none" xmlns="http://www.w3.org/2000/svg">
<path d="M255.001 442.097C358.074 442.097 441.631 358.539 441.631 255.466C441.631 215.317 428.954 178.13 407.383 147.688C410.29 142.733 412.333 137.21 413.308 131.327C437.811 117.284 452.582 101.354 449.311 91.6106C446.57 83.4463 431.758 80.3235 410.89 82.0896C422.7 82.0896 436.673 86.4986 435.039 96.3056C434.08 102.059 425.683 108.695 413.286 115.377C409.459 92.6767 389.71 75.3841 365.921 75.3841C354.092 75.3841 343.261 79.6601 334.891 86.7508C310.672 75.2628 283.587 68.8357 255.001 68.8357C233.468 68.8357 212.788 72.4822 193.543 79.1912L190.076 72.8523C189.126 71.1158 186.632 71.1158 185.682 72.8523L180.707 81.9502C180.477 82.3704 180.131 82.7158 179.711 82.9455L170.613 87.9214C169.921 88.3003 169.504 88.9249 169.364 89.5992C109.373 120.635 68.3701 183.262 68.3701 255.466C68.3701 287.64 76.5116 317.913 90.8467 344.336C85.2828 350.915 81.3674 355.94 81.3674 355.94C81.3674 355.94 89.4365 354.903 97.0372 354.903C100.83 360.915 104.957 366.696 109.391 372.22C109.336 372.443 109.303 372.669 109.293 372.895C109.213 373.282 109.141 373.663 109.075 374.038L109.646 374.617C109.823 374.984 110.063 375.325 110.362 375.623L131.769 397.031L163.323 429C166.902 428.189 171.113 426.259 174.941 424.101C177.05 425.104 179.182 426.069 181.334 426.995C181.817 429.619 182.242 432.26 182.499 434.571C183.447 443.107 181.749 456.323 181.749 456.323C181.749 456.323 194.554 446.345 206.049 435.611C221.65 439.84 238.062 442.097 255.001 442.097Z" fill="white"/>
<path d="M107.199 402.915C109.117 400.997 109.117 397.887 107.199 395.969C105.281 394.052 102.171 394.052 100.253 395.969L84.7146 411.508C82.7966 413.426 82.7966 416.535 84.7146 418.453C86.6326 420.371 89.7423 420.371 91.6603 418.453L107.199 402.915Z" fill="white"/>
<path d="M126.081 411.577C127.983 413.511 127.909 416.669 125.915 418.631L93.8198 450.212C91.8257 452.174 88.6669 452.197 86.7644 450.264C84.862 448.33 84.9363 445.172 86.9304 443.21L119.025 411.629C121.019 409.667 124.178 409.644 126.081 411.577Z" fill="white"/>
<path d="M141.134 436.85C143.052 434.932 143.052 431.823 141.134 429.905C139.216 427.987 136.107 427.987 134.189 429.905L118.65 445.443C116.732 447.361 116.732 450.47 118.65 452.388C120.568 454.306 123.678 454.306 125.596 452.388L141.134 436.85Z" fill="white"/>
<path d="M405.561 85.8965C404.845 84.8956 404.403 83.683 404.347 82.3659C404.199 78.8599 406.841 75.8604 410.338 75.5645C421.122 74.6518 430.813 74.9503 438.412 76.755C445.645 78.4731 453.024 82.0928 455.519 89.5266L449.311 91.6106L455.519 89.5266C457.011 93.9715 456.234 98.5135 454.54 102.509C452.845 106.504 450.032 110.467 446.562 114.27C440.092 121.362 430.61 128.685 419.163 135.491C418.234 139.605 416.841 143.542 415.042 147.244C435.96 178.119 448.18 215.375 448.18 255.466C448.18 362.156 361.69 448.645 255.001 448.645C238.746 448.645 222.952 446.636 207.857 442.85C202.816 447.438 197.75 451.739 193.762 455.038C191.411 456.983 189.422 458.589 188.018 459.711C187.316 460.272 186.76 460.713 186.377 461.015C186.185 461.166 186.037 461.283 185.935 461.362L185.819 461.454L185.787 461.478L185.779 461.485L185.776 461.487L185.775 461.488C185.775 461.488 185.775 461.488 184.765 460.193L185.774 461.488C183.681 463.119 180.81 463.326 178.505 462.011C176.2 460.697 174.917 458.121 175.254 455.49C175.254 455.489 175.254 455.489 175.254 455.489C175.254 455.489 175.254 455.488 175.254 455.488L175.254 455.486L175.257 455.466L175.269 455.37C175.28 455.282 175.296 455.148 175.317 454.971C175.359 454.618 175.418 454.096 175.487 453.439C175.626 452.124 175.801 450.284 175.947 448.191C176.248 443.896 176.396 438.947 175.99 435.294C175.863 434.149 175.687 432.89 175.477 431.568C175.367 431.518 175.256 431.468 175.146 431.418C171.823 433.101 168.19 434.612 164.769 435.387C162.561 435.886 160.252 435.211 158.662 433.6L127.139 401.662L127.109 401.631L105.731 380.254M405.561 85.8965L105.731 380.254M405.561 85.8965C395.614 75.3896 381.535 68.8357 365.921 68.8357C354.012 68.8357 342.983 72.6558 334.009 79.1321C309.883 68.3062 283.136 62.2873 255.001 62.2873C234.679 62.2873 215.078 65.4275 196.665 71.2532L195.821 69.71C192.388 63.4319 183.371 63.4319 179.937 69.7101L175.53 77.7687L167.471 82.1761C166.263 82.8367 165.278 83.7226 164.527 84.7414C103.443 117.177 61.8217 181.456 61.8217 255.466C61.8217 287.164 69.4611 317.096 83.0037 343.503C81.4016 345.435 80.0153 347.139 78.9209 348.497C78.0706 349.553 77.3953 350.402 76.9305 350.989C76.6981 351.283 76.5182 351.512 76.3954 351.668L76.2543 351.848L76.2169 351.896L76.2066 351.909L76.2036 351.913L76.2027 351.914L76.2023 351.915C76.2022 351.915 76.2021 351.915 81.3674 355.94L76.2021 351.915C74.5709 354.008 74.3643 356.879 75.679 359.184C76.9937 361.489 79.5697 362.773 82.2019 362.435L82.213 362.434L82.2694 362.427C82.2979 362.423 82.335 362.419 82.3804 362.413C82.4184 362.408 82.4622 362.403 82.5116 362.397C82.7287 362.371 83.0536 362.333 83.4698 362.286C84.303 362.194 85.4975 362.07 86.922 361.945C88.8445 361.777 91.1427 361.613 93.5129 361.522C96.3525 365.838 99.3604 370.032 102.527 374.097M405.561 85.8965L102.527 374.097M105.731 380.254C105.235 379.758 104.795 379.216 104.415 378.639M105.731 380.254L104.415 378.639M104.415 378.639L104.415 378.638M104.415 378.639L104.415 378.638M104.415 378.638C103.209 377.417 102.542 375.783 102.527 374.097M104.415 378.638L102.527 374.097M424.203 100.51C422.393 102.054 420.13 103.685 417.452 105.383C415.065 98.5616 411.362 92.3582 406.647 87.0776C407.792 88.052 409.275 88.638 410.89 88.638C416.159 88.638 421.537 89.6474 425.132 91.4037C426.909 92.2719 427.843 93.1239 428.265 93.7222C428.569 94.153 428.695 94.5329 428.579 95.229C428.5 95.7079 427.722 97.5092 424.203 100.51ZM176.569 77.2002L176.565 77.2025C176.566 77.2017 176.568 77.201 176.569 77.2002L178.51 80.7488L176.569 77.2002ZM96.2908 423.084L91.6603 418.453L96.2908 423.084L111.829 407.546C116.304 403.07 116.304 395.814 111.829 391.339C107.354 386.864 100.098 386.864 95.6224 391.339L80.0842 406.877C75.6089 411.353 75.6089 418.609 80.0842 423.084C84.5595 427.559 91.8154 427.559 96.2908 423.084ZM114.02 440.812L118.501 445.293L114.02 440.812C109.545 445.288 109.545 452.544 114.02 457.019C118.495 461.494 125.751 461.494 130.226 457.019L145.765 441.481C150.24 437.005 150.24 429.749 145.765 425.274C141.289 420.799 134.033 420.799 129.558 425.274L114.02 440.812ZM130.508 423.299C134.943 418.935 135.32 411.631 130.748 406.985C126.177 402.338 118.867 402.598 114.432 406.962L82.3375 438.543C77.9025 442.907 77.5249 450.211 82.0967 454.857C86.6686 459.503 93.9777 459.243 98.4127 454.88L130.508 423.299Z" stroke="white" stroke-width="13.0969" stroke-linejoin="round"/>
<path d="M441.631 255.466C441.631 358.539 358.074 442.096 255.001 442.096C151.928 442.096 68.3704 358.539 68.3704 255.466C68.3704 152.393 151.928 68.8352 255.001 68.8352C358.074 68.8352 441.631 152.393 441.631 255.466Z" fill="#9775FA"/>
<path d="M240.267 441.523C336.453 434.012 412.165 353.58 412.165 255.466C412.165 157.352 336.455 76.9208 240.27 69.4082C245.131 69.0286 250.044 68.8352 255.002 68.8352C358.075 68.8352 441.633 152.393 441.633 255.466C441.633 358.539 358.075 442.096 255.002 442.096C250.043 442.096 245.129 441.903 240.267 441.523Z" fill="#7950F2"/>
<path fill-rule="evenodd" clip-rule="evenodd" d="M448.18 255.466C448.18 362.155 361.691 448.645 255.001 448.645C148.311 448.645 61.8219 362.155 61.8219 255.466C61.8219 148.776 148.311 62.2866 255.001 62.2866C361.691 62.2866 448.18 148.776 448.18 255.466ZM255.001 442.096C358.074 442.096 441.631 358.539 441.631 255.466C441.631 152.392 358.074 68.8351 255.001 68.8351C151.928 68.8351 68.3703 152.392 68.3703 255.466C68.3703 358.539 151.928 442.096 255.001 442.096Z" fill="black"/>
<path d="M237.726 148.755C234.588 150.553 230.587 149.467 228.789 146.329C226.991 143.191 228.077 139.19 231.214 137.392C234.352 135.593 296.969 107.259 296.969 107.259C296.969 107.259 240.864 146.957 237.726 148.755Z" fill="#B197FC"/>
<circle cx="98.1485" cy="288.517" r="9.82266" transform="rotate(60.185 98.1485 288.517)" fill="#B197FC"/>
<circle cx="164.828" cy="126.001" r="13.0969" transform="rotate(60.185 164.828 126.001)" fill="#B197FC"/>
<circle cx="270.798" cy="402.23" r="16.3711" transform="rotate(60.185 270.798 402.23)" fill="#5F3DC4"/>
<path d="M329.235 386.719C326.25 388.762 322.175 387.998 320.132 385.014C318.09 382.029 318.853 377.954 321.838 375.911C324.822 373.869 405.195 321.885 405.195 321.885C405.195 321.885 332.219 384.677 329.235 386.719Z" fill="#B197FC"/>
<path d="M185.683 72.8522C186.633 71.1157 189.127 71.1157 190.077 72.8522L195.053 81.9502C195.282 82.3703 195.628 82.7157 196.048 82.9455L205.146 87.9213C206.882 88.871 206.882 91.3651 205.146 92.3148L196.048 97.2906C195.628 97.5204 195.282 97.8658 195.053 98.2859L190.077 107.384C189.127 109.12 186.633 109.12 185.683 107.384L180.707 98.2859C180.478 97.8658 180.132 97.5204 179.712 97.2906L170.614 92.3148C168.878 91.3651 168.878 88.871 170.614 87.9213L179.712 82.9455C180.132 82.7157 180.478 82.3703 180.707 81.9502L185.683 72.8522Z" fill="#FFD84D"/>
<path fill-rule="evenodd" clip-rule="evenodd" d="M200.229 77.7684L208.288 82.1759C214.566 85.6095 214.566 94.6263 208.288 98.0599L200.229 102.467L195.822 110.526C192.388 116.804 183.371 116.804 179.938 110.526L175.53 102.467L167.472 98.0599C161.194 94.6263 161.194 85.6095 167.472 82.1759L175.53 77.7685L179.938 69.7098C183.371 63.4317 192.388 63.4317 195.822 69.7098L200.229 77.7684ZM190.077 72.852C189.127 71.1155 186.633 71.1155 185.683 72.852L180.707 81.95C180.478 82.3701 180.132 82.7155 179.712 82.9453L170.614 87.9212C168.877 88.8709 168.877 91.3649 170.614 92.3146L179.712 97.2905C180.132 97.5203 180.478 97.8657 180.707 98.2858L185.683 107.384C186.633 109.12 189.127 109.12 190.077 107.384L195.052 98.2858C195.282 97.8657 195.628 97.5203 196.048 97.2905L205.146 92.3146C206.882 91.3649 206.882 88.8709 205.146 87.9212L196.048 82.9453C195.628 82.7155 195.282 82.3701 195.052 81.95L190.077 72.852Z" fill="black"/>
<path d="M400.809 169.863C401.471 168.652 403.211 168.652 403.873 169.863L406.726 175.079C406.886 175.372 407.127 175.613 407.42 175.774L412.636 178.627C413.848 179.289 413.848 181.028 412.636 181.691L407.42 184.544C407.127 184.704 406.886 184.945 406.726 185.238L403.873 190.454C403.211 191.665 401.471 191.665 400.809 190.454L397.956 185.238C397.796 184.945 397.555 184.704 397.262 184.544L392.045 181.691C390.834 181.028 390.834 179.289 392.045 178.627L397.262 175.774C397.555 175.613 397.796 175.372 397.956 175.079L400.809 169.863Z" fill="#FFD84D"/>
<path d="M334.226 306.508L327.777 294.717C324.625 288.953 316.346 288.953 313.193 294.717L306.745 306.508C306.583 306.804 306.34 307.047 306.044 307.209L294.253 313.658C288.488 316.81 288.488 325.089 294.253 328.242L306.044 334.691C306.34 334.853 306.583 335.096 306.745 335.392L313.193 347.183C316.346 352.947 324.625 352.947 327.777 347.183L334.226 335.392C334.388 335.096 334.631 334.853 334.927 334.691L346.718 328.242C352.482 325.089 352.482 316.81 346.718 313.658L334.927 307.209C334.631 307.047 334.388 306.804 334.226 306.508Z" fill="#FFD84D" stroke="black" stroke-width="6.54844"/>
<path d="M123.28 314.03C135.65 310.471 155.505 320.953 155.505 320.953L124.712 359.384C110.196 355.778 96.2849 354.025 81.3689 355.942C81.3689 355.942 111.355 317.462 123.28 314.03Z" fill="#FF8787"/>
<path fill-rule="evenodd" clip-rule="evenodd" d="M161.916 319.619C162.314 321.531 161.836 323.521 160.615 325.045L129.823 363.476C128.225 365.47 125.613 366.353 123.134 365.737C109.101 362.251 96.0507 360.656 82.2034 362.435C79.5712 362.773 76.9952 361.489 75.6805 359.184C74.3658 356.879 74.5723 354.008 76.2035 351.915L81.3689 355.94C84.3951 355.551 87.3801 355.313 90.3371 355.211C101.955 354.811 113.141 356.507 124.712 359.382L155.505 320.951L158.562 315.16C160.289 316.071 161.519 317.707 161.916 319.619ZM149.363 318.143C153.065 319.663 155.505 320.951 155.505 320.951C158.562 315.16 158.563 315.16 158.562 315.16L158.549 315.153L158.529 315.142L158.468 315.11L158.26 315.003C158.085 314.914 157.837 314.789 157.524 314.634C156.897 314.325 156.005 313.897 154.902 313.399C152.704 312.408 149.624 311.12 146.107 309.944C139.483 307.731 129.733 305.358 121.469 307.735C118.937 308.464 116.46 309.93 114.286 311.46C112.022 313.053 109.651 315.033 107.29 317.184C102.565 321.49 97.53 326.808 92.9714 331.905C88.3948 337.023 84.2096 342.017 81.1737 345.725C79.6537 347.582 78.4171 349.121 77.558 350.2C77.1283 350.74 76.7928 351.164 76.5632 351.456L76.2996 351.792L76.2035 351.915C76.203 351.915 76.2035 351.915 81.3689 355.94C81.3689 355.94 83.6102 353.063 87.111 348.814C96.415 337.519 114.615 316.521 123.28 314.028C131.314 311.717 142.505 315.328 149.363 318.143Z" fill="black"/>
<path d="M223.66 414.413C227.219 402.044 216.738 382.189 216.738 382.189L178.307 412.981C181.912 427.497 183.665 441.409 181.748 456.325C181.748 456.325 220.229 426.338 223.66 414.413Z" fill="#FF8787"/>
<path fill-rule="evenodd" clip-rule="evenodd" d="M218.072 375.777C216.159 375.38 214.169 375.857 212.645 377.078L174.214 407.871C172.22 409.469 171.338 412.08 171.954 414.56C175.439 428.593 177.035 441.643 175.256 455.49C174.917 458.122 176.201 460.698 178.507 462.013C180.812 463.328 183.683 463.121 185.776 461.49L181.751 456.325C182.14 453.298 182.377 450.313 182.479 447.356C182.88 435.739 181.183 424.552 178.309 412.981L216.74 382.189L222.531 379.132C221.619 377.404 219.984 376.174 218.072 375.777ZM219.547 388.33C218.028 384.628 216.74 382.189 216.74 382.189C222.531 379.132 222.53 379.13 222.531 379.132L222.538 379.144L222.548 379.164L222.58 379.226L222.687 379.434C222.777 379.609 222.902 379.856 223.056 380.17C223.365 380.796 223.793 381.688 224.291 382.791C225.283 384.989 226.571 388.069 227.746 391.587C229.96 398.211 232.333 407.961 229.955 416.224C229.226 418.757 227.761 421.234 226.231 423.407C224.637 425.671 222.658 428.043 220.506 430.404C216.2 435.129 210.882 440.163 205.785 444.722C200.668 449.299 195.673 453.484 191.965 456.52C190.109 458.04 188.569 459.276 187.49 460.136C186.951 460.565 186.526 460.901 186.234 461.13L185.899 461.394L185.776 461.49C185.775 461.49 185.776 461.49 181.751 456.325C181.751 456.325 184.627 454.083 188.877 450.583C200.172 441.278 221.169 423.078 223.662 414.413C225.973 406.38 222.363 395.189 219.547 388.33Z" fill="black"/>
<path fill-rule="evenodd" clip-rule="evenodd" d="M107.202 395.97C109.12 397.888 109.12 400.997 107.202 402.915L91.6634 418.454C89.7454 420.372 86.6357 420.372 84.7177 418.454C82.7997 416.536 82.7997 413.426 84.7177 411.508L100.256 395.97C102.174 394.052 105.284 394.052 107.202 395.97Z" fill="#74C0FC"/>
<path fill-rule="evenodd" clip-rule="evenodd" d="M111.832 391.337C116.307 395.812 116.307 403.068 111.832 407.544L96.2938 423.082C91.8185 427.557 84.5626 427.557 80.0872 423.082C75.6119 418.607 75.6119 411.351 80.0872 406.875L95.6255 391.337C100.101 386.862 107.357 386.862 111.832 391.337ZM107.202 402.913C109.12 400.995 109.12 397.886 107.202 395.968C105.284 394.05 102.174 394.05 100.256 395.968L84.7177 411.506C82.7997 413.424 82.7997 416.534 84.7177 418.452C86.6357 420.37 89.7454 420.37 91.6634 418.452L107.202 402.913Z" fill="black"/>
<path fill-rule="evenodd" clip-rule="evenodd" d="M126.083 411.576C127.986 413.509 127.911 416.667 125.917 418.629L93.8224 450.21C91.8283 452.172 88.6695 452.196 86.7671 450.262C84.8646 448.329 84.9389 445.171 86.933 443.209L119.028 411.628C121.022 409.666 124.181 409.642 126.083 411.576Z" fill="#74C0FC"/>
<path fill-rule="evenodd" clip-rule="evenodd" d="M130.75 406.984C135.322 411.63 134.944 418.934 130.509 423.298L98.414 454.879C93.9791 459.243 86.6699 459.502 82.0981 454.856C77.5263 450.21 77.9039 442.906 82.3389 438.542L114.434 406.961C118.869 402.597 126.178 402.337 130.75 406.984ZM125.916 418.63C127.91 416.668 127.985 413.51 126.082 411.577C124.18 409.643 121.021 409.666 119.027 411.629L86.9318 443.209C84.9376 445.172 84.8633 448.33 86.7658 450.263C88.6682 452.196 91.827 452.173 93.8211 450.211L125.916 418.63Z" fill="black"/>
<path fill-rule="evenodd" clip-rule="evenodd" d="M141.137 429.905C143.055 431.823 143.055 434.932 141.137 436.85L125.598 452.389C123.68 454.307 120.571 454.307 118.653 452.389C116.735 450.471 116.735 447.361 118.653 445.443L134.191 429.905C136.109 427.987 139.219 427.987 141.137 429.905Z" fill="#74C0FC"/>
<path fill-rule="evenodd" clip-rule="evenodd" d="M145.767 425.272C150.242 429.747 150.242 437.003 145.767 441.479L130.229 457.017C125.753 461.492 118.497 461.492 114.022 457.017C109.547 452.541 109.547 445.286 114.022 440.81L129.56 425.272C134.036 420.797 141.292 420.797 145.767 425.272ZM141.137 436.848C143.055 434.93 143.055 431.82 141.137 429.902C139.219 427.984 136.109 427.984 134.191 429.902L118.653 445.441C116.735 447.359 116.735 450.468 118.653 452.386C120.571 454.304 123.68 454.304 125.598 452.386L141.137 436.848Z" fill="black"/>
<path fill-rule="evenodd" clip-rule="evenodd" d="M253.679 283.742C253.662 283.759 253.655 283.781 253.661 283.804C257.598 299.331 258.269 334.275 241.605 360.008C224.509 386.409 193.16 416.076 165.528 427.674C164.183 428.239 162.642 427.905 161.611 426.874L136.079 401.342C136.079 401.342 136.079 401.342 136.079 401.342V401.342C136.079 401.342 136.079 401.342 136.079 401.342L110.362 375.625C109.331 374.594 108.998 373.053 109.562 371.709C121.16 344.076 150.827 312.728 177.228 295.632C202.961 278.968 237.905 279.639 253.432 283.576C253.455 283.581 253.478 283.574 253.494 283.558L253.496 283.556C253.532 283.52 253.593 283.537 253.605 283.585V283.585C253.611 283.608 253.629 283.626 253.652 283.632V283.632C253.7 283.644 253.716 283.705 253.681 283.74L253.679 283.742Z" fill="#F8F9FA"/>
<path fill-rule="evenodd" clip-rule="evenodd" d="M110.546 369.452C110.205 370.207 109.877 370.959 109.562 371.709C108.998 373.053 109.331 374.594 110.362 375.625L136.079 401.342L136.079 401.342L136.079 401.342L161.612 426.874C162.643 427.905 164.184 428.239 165.528 427.674C193.161 416.076 224.509 386.41 241.605 360.009C258.269 334.275 257.598 299.331 253.661 283.804C253.656 283.782 253.662 283.759 253.679 283.742L253.681 283.74C253.716 283.705 253.7 283.644 253.652 283.632C253.629 283.626 253.611 283.608 253.605 283.585C253.593 283.537 253.532 283.52 253.497 283.556L253.494 283.558C253.478 283.575 253.455 283.581 253.432 283.576C253.014 283.47 252.581 283.366 252.135 283.265C254.241 300.918 252.452 328.96 238.484 350.531C221.388 376.932 190.04 406.598 162.407 418.197C161.063 418.761 159.522 418.428 158.491 417.397L132.959 391.864L132.958 391.864L132.958 391.864L110.546 369.452Z" fill="#DEE2E6"/>
<path fill-rule="evenodd" clip-rule="evenodd" d="M261.873 318.746C260.38 333.315 256.164 349.574 247.102 363.568C229.498 390.753 197.22 421.474 168.063 433.712C164.162 435.35 159.812 434.335 156.981 431.504L131.501 406.024C131.484 406.007 131.466 405.99 131.449 405.972L105.732 380.255C102.901 377.425 101.887 373.075 103.524 369.174C115.762 340.017 146.483 307.739 173.669 290.135C187.662 281.073 203.921 276.856 218.49 275.364C232.559 273.923 245.557 274.971 254.184 277.018C255.673 277.167 257.101 277.814 258.19 278.882C259.357 279.988 260.059 281.481 260.217 283.042C262.265 291.669 263.315 304.672 261.873 318.746ZM247.267 282.356C229.897 279.717 199.967 280.907 177.228 295.632C150.827 312.728 121.161 344.076 109.562 371.709C108.998 373.053 109.331 374.594 110.362 375.625L136.079 401.342L161.612 426.874C162.643 427.905 164.184 428.238 165.528 427.674C193.161 416.076 224.509 386.409 241.605 360.008C256.33 337.27 257.519 307.34 254.881 289.969C254.88 289.964 254.88 289.96 254.879 289.955C254.532 287.672 254.119 285.607 253.661 283.804C253.656 283.781 253.663 283.759 253.679 283.742C253.679 283.742 253.679 283.742 253.679 283.742C253.714 283.707 253.7 283.644 253.652 283.632C253.629 283.626 253.611 283.608 253.605 283.585C253.593 283.537 253.532 283.52 253.497 283.555C253.497 283.555 253.497 283.555 253.497 283.555C253.48 283.572 253.455 283.581 253.432 283.575C251.63 283.118 249.565 282.705 247.284 282.358C247.278 282.358 247.273 282.357 247.267 282.356ZM248.964 279.198C248.483 279.697 248.079 280.275 247.773 280.908C248.063 280.3 248.459 279.722 248.964 279.198ZM249.049 279.111C249.049 279.111 249.049 279.111 249.049 279.111ZM258.058 288.254C257.466 288.83 256.806 289.264 256.111 289.565C256.837 289.244 257.498 288.798 258.058 288.254Z" fill="black"/>
<path d="M184.607 417.541L119.225 352.77C112.447 361.638 110.05 368.479 109.077 374.039L163.324 429.001C170.692 427.333 180.733 420.921 184.607 417.541Z" fill="#FF8787"/>
<path fill-rule="evenodd" clip-rule="evenodd" d="M158.06 423.67C165.406 421.986 175.377 415.624 179.259 412.246L184.604 417.54C180.73 420.92 170.689 427.332 163.321 429L158.06 423.67Z" fill="#A45454" fill-opacity="0.66"/>
<path fill-rule="evenodd" clip-rule="evenodd" d="M118.775 346.238C120.654 346.109 122.496 346.794 123.834 348.119L189.215 412.89C190.508 414.17 191.209 415.93 191.152 417.749C191.094 419.567 190.283 421.28 188.912 422.476C186.556 424.532 182.691 427.222 178.521 429.601C174.397 431.954 169.387 434.343 164.77 435.388C162.563 435.888 160.254 435.213 158.664 433.602L104.416 378.64C102.928 377.132 102.261 374.998 102.627 372.911C103.791 366.255 106.644 358.448 114.022 348.794C115.166 347.299 116.897 346.367 118.775 346.238ZM119.225 352.771C117.766 354.68 116.509 356.496 115.426 358.225C111.481 364.526 109.841 369.677 109.077 374.04L163.324 429.002C168.329 427.868 174.569 424.546 179.269 421.472C181.488 420.021 183.365 418.626 184.607 417.542L119.225 352.771Z" fill="black"/>
<path fill-rule="evenodd" clip-rule="evenodd" d="M257.354 333.05C256.097 334.35 254.024 334.384 252.724 333.126L201.974 284.013C200.675 282.755 200.641 280.682 201.898 279.383C203.156 278.084 205.229 278.05 206.528 279.307L257.278 328.42C258.578 329.678 258.612 331.751 257.354 333.05Z" fill="black"/>
<path d="M216.487 350.261C208.463 358.285 195.453 358.285 187.429 350.261C179.405 342.237 179.405 329.227 187.429 321.203C195.453 313.178 208.463 313.178 216.487 321.203C224.512 329.227 224.512 342.237 216.487 350.261Z" fill="#74C0FC"/>
<path fill-rule="evenodd" clip-rule="evenodd" d="M221.118 354.893C210.536 365.474 193.38 365.474 182.799 354.893C172.217 344.311 172.217 327.155 182.799 316.573C193.38 305.992 210.536 305.992 221.118 316.573C231.7 327.155 231.7 344.311 221.118 354.893ZM187.429 350.262C195.453 358.286 208.463 358.286 216.487 350.262C224.512 342.238 224.512 329.228 216.487 321.204C208.463 313.179 195.453 313.179 187.429 321.204C179.405 329.228 179.405 342.238 187.429 350.262Z" fill="black"/>
<path fill-rule="evenodd" clip-rule="evenodd" d="M180.932 356.759C182.211 358.037 182.211 360.111 180.932 361.389L170.402 371.92C169.123 373.198 167.05 373.198 165.771 371.92C164.492 370.641 164.492 368.568 165.771 367.289L176.301 356.759C177.58 355.48 179.653 355.48 180.932 356.759Z" fill="black"/>
<path d="M413.956 123.418C413.956 149.947 392.45 171.453 365.921 171.453C339.392 171.453 317.886 149.947 317.886 123.418C317.886 96.8895 339.392 75.3835 365.921 75.3835C392.45 75.3835 413.956 96.8895 413.956 123.418Z" fill="#FFD84D"/>
<path d="M345.601 158.357C372.13 158.357 393.636 136.851 393.636 110.322C393.636 97.7652 388.818 86.3337 380.929 77.7754C400.108 84.0779 413.956 102.131 413.956 123.419C413.956 149.948 392.45 171.454 365.921 171.454C351.949 171.454 339.37 165.489 330.593 155.966C335.315 157.517 340.36 158.357 345.601 158.357Z" fill="#EEBF1A"/>
<path fill-rule="evenodd" clip-rule="evenodd" d="M420.504 123.418C420.504 153.564 396.066 178.002 365.921 178.002C335.775 178.002 311.337 153.564 311.337 123.418C311.337 93.273 335.775 68.8352 365.921 68.8352C396.066 68.8352 420.504 93.273 420.504 123.418ZM365.921 171.453C392.449 171.453 413.955 149.947 413.955 123.418C413.955 96.8896 392.449 75.3836 365.921 75.3836C339.392 75.3836 317.886 96.8896 317.886 123.418C317.886 149.947 339.392 171.453 365.921 171.453Z" fill="black"/>
<path d="M374.399 148.632C420.537 133.143 454.076 105.81 449.31 91.613C446.57 83.4486 431.758 80.3259 410.889 82.0919C422.699 82.0919 436.673 86.5009 435.038 96.3079C433.251 107.033 405.617 120.825 374.399 132.267C346.092 142.641 312.299 147.468 297.74 145.363C286.299 143.708 294.312 129.638 299.953 121.775C286.813 131.342 279.883 140.717 282.228 147.702C286.994 161.899 328.26 164.12 374.399 148.632Z" fill="#74C0FC"/>
<path fill-rule="evenodd" clip-rule="evenodd" d="M304.569 117.126C306.851 119.392 307.15 122.978 305.276 125.59C302.517 129.436 299.712 134.112 298.762 137.611C298.616 138.149 298.542 138.556 298.507 138.852C298.56 138.861 298.618 138.87 298.679 138.879C304.948 139.786 316.238 139.24 329.867 137.028C343.323 134.845 358.438 131.14 372.147 126.116C387.603 120.451 401.946 114.283 412.541 108.311C417.855 105.316 422 102.496 424.834 99.9598C427.865 97.2466 428.511 95.6416 428.58 95.2287L435.04 96.3052C433.252 107.03 405.619 120.823 374.4 132.264C346.094 142.638 312.301 147.466 297.742 145.36C292.727 144.635 291.45 141.524 292.072 137.597C292.87 132.564 296.786 126.189 299.955 121.773C293.853 126.215 289.09 130.616 285.973 134.756C282.379 139.531 280.974 143.958 282.23 147.699C286.996 161.896 328.262 164.118 374.4 148.629C420.539 133.141 454.078 105.807 449.312 91.6102C447.879 87.3417 443.146 84.4513 435.974 82.9171C429.427 81.517 420.849 81.2465 410.891 82.0892C419.203 82.0892 428.586 84.2731 432.846 88.9855C434.638 90.9689 435.524 93.4003 435.04 96.3052L428.58 95.2287C428.696 94.5326 428.57 94.1526 428.266 93.7218C427.844 93.1236 426.909 92.2716 425.132 91.4034C421.538 89.6471 416.159 88.6377 410.891 88.6377C407.382 88.6377 404.496 85.8716 404.348 82.3656C404.2 78.8596 406.842 75.86 410.339 75.5641C421.123 74.6514 430.814 74.9499 438.412 76.7547C445.646 78.4728 453.024 82.0925 455.52 89.5262C457.682 95.9677 455.144 102.569 451.557 107.959C447.829 113.561 442.053 119.292 434.966 124.804C420.736 135.872 400.134 146.898 376.484 154.837C352.834 162.777 330.22 166.258 312.646 165.843C303.892 165.636 296.052 164.456 289.865 162.147C283.859 159.906 278.14 156.092 276.022 149.783C273.878 143.398 276.346 137.067 279.917 131.954C283.579 126.711 289.232 121.479 296.101 116.479C298.7 114.586 302.288 114.861 304.569 117.126ZM297.864 138.689C297.864 138.689 297.871 138.692 297.884 138.699C297.87 138.693 297.863 138.689 297.864 138.689Z" fill="black"/>
<ellipse cx="279.551" cy="224.488" rx="72.5137" ry="27.1131" transform="rotate(-33.0004 279.551 224.488)" stroke="white" stroke-width="3.45645"/>
<path d="M135.619 233.17C130.968 232.555 126.646 231.251 122.654 229.259C118.661 227.266 115.071 224.68 111.882 221.501C111.014 220.603 110.318 219.557 109.795 218.364C109.276 217.138 109.094 215.939 109.249 214.768C109.488 212.961 110.21 211.49 111.416 210.356C112.655 209.226 114.186 208.595 116.008 208.461C116.284 208.43 116.674 208.447 117.176 208.513C118.313 208.664 119.292 209.117 120.111 209.872C122.748 212.332 125.56 214.372 128.546 215.993C131.536 217.581 134.521 218.571 137.499 218.965C141.313 219.47 144.297 219.184 146.448 218.107C148.604 216.996 149.861 215.085 150.22 212.375C150.481 210.4 149.49 208.499 147.246 206.67C145.04 204.812 141.533 202.883 136.724 200.885C129.11 197.699 123.521 193.878 119.957 189.423C116.43 184.938 115.195 179.991 116.251 174.581C117.059 170.534 118.652 167.119 121.029 164.335C123.444 161.522 126.622 159.508 130.562 158.292C134.506 157.044 139.122 156.769 144.409 157.469L146.059 157.738C149.091 158.241 152.076 159.096 155.015 160.302C157.992 161.479 160.79 162.973 163.411 164.784C164.627 165.626 165.593 166.69 166.308 167.976C167.023 169.262 167.281 170.658 167.082 172.164C166.777 174.473 165.935 176.2 164.558 177.346C163.214 178.496 161.689 178.958 159.982 178.733C159.079 178.613 158.219 178.295 157.402 177.778C152.663 174.734 148.563 172.915 145.1 172.32L143.501 172.058C139.853 171.575 136.967 171.772 134.842 172.648C132.755 173.496 131.586 174.873 131.333 176.781C131.063 178.822 132.231 180.934 134.836 183.118C137.475 185.305 141.347 187.435 146.453 189.506C153.462 192.374 158.562 195.773 161.753 199.702C164.949 203.598 166.191 208.24 165.478 213.627C164.88 218.145 163.314 222.006 160.779 225.212C158.277 228.422 154.888 230.749 150.611 232.192C146.339 233.601 141.341 233.927 135.619 233.17Z" fill="#FFEAA2"/>
<path d="M212.969 184.722C217.688 185.346 221.777 187.249 225.238 190.431C228.703 193.579 231.205 197.57 232.744 202.404C234.317 207.243 234.745 212.373 234.028 217.794C233.236 223.784 231.544 228.718 228.954 232.598C226.364 236.477 223.053 239.239 219.022 240.885C215.029 242.502 210.522 242.978 205.503 242.314C201.588 241.796 198.263 240.675 195.529 238.952C192.833 237.199 190.707 234.994 189.152 232.337L186.495 252.414C186.239 254.355 185.337 255.768 183.79 256.653C182.271 257.576 180.458 257.898 178.35 257.619C176.242 257.34 174.558 256.555 173.299 255.265C172.069 254.013 171.582 252.416 171.839 250.475L180.273 186.729C180.529 184.788 181.419 183.339 182.942 182.383C184.498 181.431 186.33 181.095 188.438 181.374C190.546 181.653 192.211 182.452 193.432 183.771C194.687 185.095 195.186 186.727 194.929 188.668L194.551 191.529C196.835 188.937 199.538 187.03 202.662 185.809C205.786 184.588 209.222 184.226 212.969 184.722ZM203.333 230.536C206.077 230.899 208.575 230.548 210.826 229.484C213.116 228.391 214.989 226.715 216.446 224.456C217.936 222.202 218.884 219.536 219.292 216.457C219.725 213.178 219.557 210.074 218.787 207.146C218.05 204.223 216.772 201.789 214.952 199.846C213.132 197.903 210.9 196.756 208.257 196.407C205.413 196.03 202.854 196.322 200.582 197.281C198.315 198.207 196.482 199.581 195.083 201.405C193.684 203.229 192.803 205.257 192.439 207.491L191.39 215.421C191.138 217.839 191.446 220.144 192.313 222.336C193.181 224.528 194.556 226.361 196.438 227.836C198.357 229.282 200.656 230.181 203.333 230.536Z" fill="#FFEAA2"/>
<path d="M293.3 215.268C293.255 217.407 293.108 219.55 292.858 221.696C292.646 223.813 292.352 226.294 291.976 229.138L289.532 247.609C289.28 249.517 288.401 250.882 286.896 251.704C285.429 252.497 283.608 252.75 281.433 252.462C279.425 252.197 277.793 251.538 276.536 250.487C275.313 249.439 274.747 248.054 274.839 246.329C272.36 247.568 269.569 248.458 266.467 249.001C263.399 249.548 260.308 249.616 257.196 249.205C253.348 248.695 250.095 247.55 247.436 245.768C244.811 243.991 242.916 241.714 241.751 238.938C240.591 236.129 240.241 232.984 240.701 229.504C241.109 226.426 242.393 223.667 244.554 221.229C246.72 218.758 249.616 216.809 253.244 215.382C256.876 213.922 261.014 213.142 265.658 213.041C267.467 213.008 269.727 213.171 272.437 213.529C274.579 213.813 276.642 214.171 278.628 214.604C278.795 214.626 278.91 214.658 278.973 214.7C278.92 213.808 278.742 212.712 278.437 211.412C277.974 209.512 276.789 208.044 274.883 207.009C272.977 205.974 270.681 205.313 267.995 205.025C266.619 204.877 264.958 204.947 263.014 205.234C261.069 205.522 258.884 205.948 256.46 206.513C255.617 206.707 254.811 206.754 254.042 206.652C252.402 206.435 251.048 205.728 249.981 204.532C248.918 203.301 248.499 201.833 248.725 200.126C248.942 198.487 249.544 197.153 250.531 196.126C251.556 195.07 252.811 194.334 254.296 193.918C256.7 193.248 259.502 192.785 262.703 192.527C265.941 192.241 268.502 192.188 270.385 192.369C278.112 193.153 283.903 195.451 287.757 199.264C291.61 203.077 293.458 208.411 293.3 215.268ZM255.408 231.45C255.156 233.357 255.614 234.916 256.781 236.126C257.954 237.303 259.728 238.048 262.104 238.362C264.68 238.703 267.199 238.577 269.661 237.983C272.128 237.356 274.306 236.589 276.197 235.682L277.239 227.801C277.31 227.266 277.449 226.603 277.656 225.813C276.373 225.473 274.744 225.173 272.77 224.911C269.792 224.517 267.155 224.373 264.86 224.478C262.221 224.605 260.06 225.239 258.378 226.378C256.695 227.517 255.705 229.208 255.408 231.45Z" fill="#FFEAA2"/>
<path d="M302.576 226.608C303.329 220.919 305.273 216.001 308.41 211.854C311.546 207.706 315.506 204.672 320.288 202.751C325.104 200.834 330.307 200.246 335.895 200.985C343.625 202.008 349.511 205.511 353.555 211.493C354.383 212.693 354.696 214.062 354.492 215.601C354.237 217.27 353.507 218.671 352.302 219.806C351.13 220.944 349.774 221.412 348.235 221.208C347.632 221.129 346.99 220.839 346.306 220.34C345.628 219.808 344.802 219.103 343.828 218.225C342.277 216.828 340.714 215.77 339.141 215.051C337.601 214.337 335.869 213.92 333.944 213.802C329.616 213.57 325.966 214.653 322.993 217.052C320.053 219.455 318.164 223.052 317.326 227.844C316.93 231.095 317.156 234.019 318.004 236.616C318.856 239.181 320.234 241.253 322.136 242.832C324.071 244.416 326.427 245.392 329.205 245.759C332.919 246.251 336.707 245.543 340.568 243.636C341.405 243.236 342.177 242.93 342.886 242.717C343.595 242.505 344.297 242.478 344.991 242.638C346.546 242.98 347.719 243.765 348.51 244.994C349.338 246.193 349.649 247.579 349.441 249.151C349.343 249.888 349.091 250.637 348.683 251.401C348.28 252.13 347.809 252.732 347.27 253.205C344.439 255.555 341.367 257.157 338.054 258.013C334.744 258.835 331.149 258.989 327.267 258.475C321.846 257.758 317.134 255.926 313.132 252.979C309.134 249.999 306.195 246.222 304.314 241.649C302.438 237.042 301.859 232.029 302.576 226.608Z" fill="#FFEAA2"/>
<path d="M386.044 266.252C379.887 265.437 374.78 263.638 370.722 260.854C366.664 258.07 363.774 254.436 362.052 249.952C360.368 245.439 359.915 240.238 360.694 234.348C361.518 228.124 363.276 222.943 365.968 218.805C368.665 214.633 372.174 211.659 376.495 209.881C380.816 208.103 385.819 207.608 391.503 208.394C396.71 209.185 401.113 210.908 404.711 213.563C408.309 216.218 410.904 219.643 412.494 223.837C414.122 228.002 414.624 232.699 414 237.928C413.53 240.964 412.632 243.127 411.303 244.415C409.975 245.703 407.889 246.159 405.045 245.783L374.376 241.725C373.949 245.21 374.98 247.968 377.469 250C379.963 251.998 383.395 253.337 387.765 254.018C391.475 254.543 395.754 253.985 400.601 252.345C402.066 251.824 403.109 251.536 403.729 251.482C403.939 251.442 404.261 251.45 404.696 251.508C405.566 251.623 406.331 252.014 406.992 252.68C407.653 253.346 408.125 254.158 408.407 255.114C408.722 256.075 408.816 257.041 408.687 258.012C408.475 259.618 407.833 260.997 406.761 262.149C405.723 263.305 404.545 264.103 403.227 264.542C400.616 265.49 397.81 266.106 394.811 266.39C391.811 266.674 388.889 266.628 386.044 266.252ZM400.522 233.642C400.839 231.505 400.577 229.496 399.737 227.614C398.93 225.736 397.67 224.191 395.958 222.977C394.25 221.73 392.259 220.955 389.983 220.654C387.808 220.367 385.698 220.615 383.654 221.4C381.613 222.152 379.909 223.322 378.541 224.912C377.173 226.501 376.336 228.331 376.028 230.401L400.522 233.642Z" fill="#FFEAA2"/>
<path fill-rule="evenodd" clip-rule="evenodd" d="M100.218 232.988L100.115 232.882C97.8378 230.527 96.0732 227.837 94.8027 224.94L94.7595 224.841L94.7176 224.742C93.2093 221.177 92.4352 217.04 93.0199 212.621C93.7002 207.479 95.9637 202.417 100.198 198.433L100.291 198.346L100.385 198.26C101.605 197.148 102.899 196.197 104.249 195.398C100.015 188.221 98.5114 180.012 100.184 171.444L100.191 171.41L100.198 171.376C101.482 164.942 104.165 158.874 108.58 153.704L108.608 153.67C113.242 148.273 119.153 144.689 125.68 142.666C132.457 140.533 139.573 140.315 146.557 141.239L146.803 141.272L148.74 141.588C152.99 142.293 157.126 143.481 161.133 145.117C165.227 146.744 169.096 148.813 172.718 151.315L172.728 151.322C175.998 153.585 178.676 156.529 180.618 160.022C181.558 161.713 182.265 163.475 182.746 165.276C185.412 164.814 188.065 164.811 190.586 165.144C194.2 165.622 197.938 166.846 201.32 169.117C205.886 168.028 210.538 167.886 215.117 168.492C223.111 169.55 230.319 172.876 236.283 178.346C237.877 179.798 239.334 181.347 240.657 182.985C243.396 180.695 246.536 179.091 249.877 178.154L249.905 178.147C253.533 177.136 257.385 176.535 261.325 176.214C264.941 175.896 268.626 175.753 271.952 176.073L271.995 176.077L272.038 176.082C281.915 177.084 291.818 180.252 299.271 187.626C301.084 189.42 302.627 191.341 303.924 193.359C307.033 190.997 310.464 189.055 314.187 187.559L314.212 187.55L314.236 187.54C321.878 184.499 329.928 183.682 338.043 184.756C348.234 186.104 357.175 190.515 363.861 198.106C365.855 196.804 367.992 195.677 370.267 194.741C377.816 191.636 385.844 191.084 393.746 192.177L393.855 192.192L393.963 192.208C401.332 193.328 408.343 195.897 414.432 200.39C420.548 204.903 425.068 210.863 427.773 217.957C430.517 225.019 431.14 232.465 430.257 239.867L430.223 240.15L430.179 240.431C429.601 244.171 428.298 249.282 424.856 253.751C425.174 255.84 425.204 257.99 424.918 260.159C424.28 264.978 422.248 269.491 418.851 273.188C416.209 276.1 412.807 278.556 408.644 279.991C404.677 281.415 400.559 282.29 396.355 282.688C392.187 283.083 388.025 283.028 383.898 282.482C375.84 281.415 368.125 278.926 361.461 274.353C358.861 272.569 356.514 270.538 354.443 268.274C350.719 270.803 346.611 272.712 342.146 273.864L342.073 273.883L342 273.901C336.427 275.285 330.738 275.448 325.12 274.705C317.243 273.663 309.868 270.906 303.426 266.162L303.387 266.133L303.348 266.104C301.93 265.047 300.59 263.92 299.329 262.725C298.013 263.988 296.489 265.118 294.748 266.07L294.716 266.087L294.685 266.104C289.351 268.989 283.81 269.291 279.286 268.692C275.944 268.25 272.37 267.202 269.017 265.175C264.385 265.967 259.71 266.051 255.049 265.434C249.231 264.664 243.468 262.817 238.322 259.367L238.29 259.346L238.258 259.324C235.602 257.526 233.238 255.386 231.234 252.922C229.354 254.125 227.345 255.17 225.21 256.042L225.188 256.051L225.166 256.06C218.12 258.913 210.689 259.514 203.356 258.544C202.873 258.48 202.39 258.409 201.908 258.331C200.395 263.277 197.183 267.785 192.111 270.752C186.856 273.882 181.198 274.509 176.203 273.848C171.145 273.179 165.861 271.072 161.602 266.718C156.413 261.424 154.779 254.603 155.61 248.328L155.685 247.757C148.52 250.109 140.952 250.39 133.473 249.4C127.118 248.559 121.04 246.75 115.344 243.907C109.766 241.123 104.743 237.501 100.322 233.093L100.218 232.988ZM171.839 250.475C171.582 252.416 172.069 254.013 173.299 255.265C174.559 256.555 176.243 257.34 178.351 257.619C180.459 257.898 182.272 257.576 183.79 256.653C185.29 255.795 186.184 254.44 186.471 252.589C186.48 252.531 186.488 252.473 186.496 252.414L189.152 232.337C189.559 233.032 190.005 233.695 190.489 234.328C190.63 234.513 190.775 234.695 190.923 234.874C190.96 234.919 190.998 234.965 191.036 235.01C192.298 236.511 193.796 237.825 195.529 238.952C197.373 240.114 199.486 241.003 201.867 241.617C202.67 241.824 203.504 242 204.368 242.144C204.741 242.207 205.119 242.263 205.503 242.314C209.534 242.847 213.234 242.645 216.603 241.708C216.62 241.703 216.638 241.698 216.655 241.693C217.463 241.466 218.252 241.197 219.022 240.885C221.034 240.064 222.866 238.965 224.519 237.587C226.153 236.225 227.612 234.591 228.896 232.685C228.916 232.656 228.935 232.627 228.954 232.598C228.966 232.58 228.978 232.562 228.99 232.545C229.859 231.236 230.626 229.807 231.291 228.259C232.527 225.384 233.412 222.096 233.945 218.396C233.974 218.196 234.002 217.996 234.029 217.794C234.275 215.927 234.387 214.096 234.362 212.298C234.362 212.263 234.361 212.228 234.361 212.193C234.349 211.479 234.315 210.771 234.261 210.069C234.219 209.536 234.165 209.006 234.099 208.48C233.889 206.802 233.553 205.155 233.092 203.541C233.078 203.492 233.064 203.443 233.05 203.394C232.953 203.063 232.852 202.733 232.745 202.404C232.604 201.961 232.454 201.524 232.297 201.095C230.738 196.845 228.385 193.29 225.238 190.431C225.199 190.395 225.16 190.359 225.121 190.323C221.685 187.206 217.635 185.339 212.97 184.722C212.353 184.64 211.744 184.582 211.143 184.546C210.701 184.521 210.264 184.507 209.832 184.507C207.283 184.503 204.893 184.937 202.663 185.809C200.676 186.586 198.86 187.639 197.213 188.97C197.207 188.975 197.202 188.979 197.196 188.984C197.167 189.007 197.138 189.031 197.11 189.054C196.869 189.251 196.632 189.454 196.399 189.663C196.383 189.678 196.367 189.692 196.35 189.707C195.724 190.271 195.125 190.878 194.551 191.529L194.93 188.668C195.187 186.727 194.688 185.095 193.433 183.771C193.156 183.472 192.857 183.2 192.535 182.955C191.435 182.117 190.069 181.59 188.438 181.374C186.666 181.139 185.089 181.34 183.707 181.975C183.445 182.095 183.19 182.231 182.942 182.383C181.815 183.091 181.035 184.068 180.602 185.315C180.449 185.753 180.34 186.224 180.273 186.729L171.839 250.475ZM191.55 219.699C191.688 220.434 191.884 221.157 192.138 221.868C192.194 222.025 192.252 222.181 192.314 222.336C193.182 224.528 194.556 226.361 196.438 227.836C196.497 227.88 196.557 227.925 196.617 227.968C197.94 228.93 199.439 229.638 201.114 230.094C201.163 230.107 201.212 230.12 201.262 230.133C201.925 230.307 202.616 230.441 203.333 230.536C204.629 230.707 205.871 230.719 207.057 230.573C208.382 230.408 209.639 230.046 210.827 229.484C211.844 228.999 212.779 228.398 213.632 227.682C213.643 227.673 213.654 227.663 213.666 227.654C214.718 226.764 215.645 225.699 216.446 224.456C216.478 224.408 216.51 224.359 216.542 224.31C217.977 222.087 218.894 219.469 219.292 216.457C219.319 216.255 219.343 216.054 219.365 215.854C219.703 212.797 219.51 209.894 218.788 207.146C218.772 207.083 218.755 207.02 218.739 206.957C218.732 206.929 218.724 206.9 218.716 206.872C218.094 204.538 217.12 202.522 215.792 200.827C215.775 200.805 215.758 200.783 215.74 200.761C215.49 200.445 215.228 200.14 214.953 199.846C213.882 198.703 212.669 197.836 211.313 197.244C210.364 196.83 209.346 196.551 208.257 196.407C207.746 196.339 207.244 196.293 206.751 196.268C204.638 196.163 202.696 196.455 200.923 197.143C200.809 197.187 200.696 197.233 200.583 197.281C198.315 198.207 196.482 199.581 195.083 201.405C194.984 201.535 194.887 201.665 194.793 201.796C193.849 203.117 193.167 204.541 192.748 206.07C192.621 206.534 192.518 207.007 192.44 207.491L191.39 215.421C191.237 216.889 191.291 218.315 191.55 219.699ZM164.558 177.346C165.936 176.2 166.777 174.473 167.083 172.164C167.282 170.658 167.024 169.262 166.309 167.976C165.92 167.277 165.457 166.643 164.921 166.076C164.897 166.051 164.874 166.026 164.85 166.002C164.418 165.554 163.938 165.148 163.411 164.784C162.932 164.452 162.447 164.132 161.955 163.822C161.207 163.349 160.445 162.902 159.668 162.478C158.169 161.661 156.618 160.936 155.016 160.302C152.561 159.295 150.075 158.533 147.556 158.016C147.522 158.009 147.488 158.002 147.453 157.995C146.99 157.901 146.525 157.815 146.06 157.738L144.41 157.469C139.123 156.769 134.507 157.044 130.562 158.293C130.098 158.436 129.644 158.59 129.201 158.755C129.175 158.765 129.149 158.775 129.124 158.784C125.841 160.023 123.143 161.873 121.029 164.335C118.652 167.119 117.06 170.534 116.252 174.581C116.239 174.648 116.226 174.714 116.214 174.78C115.226 180.113 116.474 184.994 119.957 189.423C121.06 190.801 122.357 192.119 123.847 193.376C124.306 193.763 124.784 194.145 125.28 194.521C125.301 194.536 125.322 194.552 125.343 194.568C127.003 195.82 128.867 197.007 130.936 198.131C130.965 198.146 130.993 198.162 131.022 198.177C131.476 198.423 131.939 198.665 132.413 198.904C133.77 199.59 135.207 200.25 136.725 200.885C138.29 201.536 139.718 202.179 141.007 202.815C141.02 202.821 141.033 202.827 141.046 202.834C143.699 204.144 145.766 205.423 147.247 206.67C148.381 207.595 149.196 208.539 149.69 209.501C149.702 209.524 149.713 209.547 149.725 209.57C150.059 210.242 150.237 210.923 150.259 211.614C150.267 211.866 150.254 212.12 150.22 212.375C150.038 213.749 149.625 214.918 148.981 215.882C148.961 215.911 148.941 215.941 148.921 215.97C148.301 216.865 147.477 217.577 146.448 218.107C146.312 218.175 146.172 218.24 146.029 218.302C145.999 218.315 145.968 218.328 145.938 218.341C143.834 219.223 141.021 219.431 137.499 218.965C137.416 218.954 137.334 218.943 137.251 218.931C137.152 218.917 137.054 218.902 136.955 218.887C136.745 218.854 136.535 218.818 136.325 218.779C136.219 218.76 136.112 218.739 136.006 218.718C133.716 218.262 131.422 217.454 129.124 216.293C128.932 216.196 128.739 216.096 128.546 215.993C127.496 215.423 126.468 214.802 125.461 214.128C124.784 213.675 124.116 213.198 123.458 212.698C123.426 212.674 123.395 212.649 123.363 212.625C123.304 212.58 123.246 212.536 123.188 212.491C122.822 212.207 122.459 211.917 122.099 211.619C122.033 211.565 121.967 211.51 121.901 211.455C121.296 210.948 120.7 210.421 120.112 209.872C119.292 209.117 118.314 208.664 117.176 208.514C116.963 208.485 116.77 208.466 116.597 208.455C116.364 208.441 116.167 208.443 116.008 208.461C114.186 208.595 112.656 209.226 111.417 210.356C110.211 211.491 109.489 212.961 109.25 214.768C109.095 215.939 109.276 217.138 109.795 218.364C110.048 218.94 110.341 219.482 110.674 219.989C110.689 220.013 110.705 220.036 110.721 220.06C111.066 220.576 111.453 221.056 111.883 221.501C112.906 222.521 113.971 223.481 115.077 224.379C115.25 224.519 115.424 224.658 115.599 224.796C117.492 226.283 119.503 227.594 121.632 228.731C121.672 228.752 121.712 228.773 121.751 228.795C122.05 228.953 122.351 229.107 122.654 229.259C126.647 231.251 130.969 232.555 135.62 233.17C141.342 233.927 146.339 233.601 150.612 232.192C151.45 231.909 152.255 231.592 153.025 231.241C153.077 231.217 153.128 231.194 153.179 231.17C155.11 230.274 156.824 229.161 158.321 227.833C159.218 227.037 160.038 226.163 160.779 225.212C163.172 222.186 164.702 218.575 165.369 214.379C165.408 214.13 165.445 213.88 165.478 213.627C166.172 208.382 165.014 203.843 162.002 200.012C161.921 199.908 161.838 199.805 161.754 199.702C160.459 198.108 158.849 196.601 156.925 195.181C156.86 195.133 156.795 195.085 156.73 195.038C156.571 194.923 156.411 194.808 156.249 194.694C154.228 193.278 151.886 191.95 149.221 190.713C149.188 190.697 149.155 190.682 149.122 190.667C148.265 190.271 147.376 189.884 146.453 189.506C145.063 188.943 143.765 188.374 142.558 187.802C142.523 187.785 142.487 187.768 142.452 187.752C142.388 187.721 142.324 187.69 142.26 187.66C142.249 187.654 142.238 187.649 142.227 187.644C142.084 187.575 141.943 187.506 141.803 187.438C141.697 187.385 141.592 187.333 141.487 187.281C141.336 187.205 141.186 187.13 141.038 187.054C140.93 186.999 140.823 186.944 140.717 186.889C140.678 186.868 140.639 186.848 140.601 186.828C138.273 185.61 136.351 184.374 134.837 183.118C133.548 182.038 132.612 180.976 132.027 179.931C132.005 179.893 131.984 179.855 131.964 179.817C131.56 179.064 131.339 178.32 131.302 177.585C131.3 177.563 131.299 177.541 131.299 177.519C131.29 177.272 131.301 177.026 131.334 176.781C131.468 175.769 131.86 174.906 132.511 174.192C132.52 174.182 132.529 174.172 132.538 174.162C133.111 173.544 133.879 173.04 134.843 172.648C134.886 172.631 134.93 172.613 134.973 172.596C135.008 172.582 135.042 172.569 135.077 172.556C136.881 171.871 139.207 171.652 142.054 171.898C142.2 171.911 142.347 171.925 142.495 171.94C142.824 171.973 143.159 172.012 143.501 172.058L145.101 172.32C145.613 172.408 146.139 172.523 146.679 172.664C147.596 172.905 148.554 173.222 149.552 173.617C149.609 173.64 149.666 173.663 149.724 173.686C150.242 173.895 150.77 174.124 151.31 174.374C151.663 174.538 152.02 174.71 152.383 174.891C152.397 174.898 152.411 174.905 152.425 174.912C152.667 175.034 152.91 175.159 153.156 175.288C153.857 175.656 154.575 176.057 155.31 176.489C155.313 176.491 155.316 176.493 155.319 176.495C155.999 176.895 156.693 177.323 157.402 177.778C158.219 178.295 159.079 178.613 159.983 178.733C160.553 178.808 161.103 178.807 161.632 178.729C162.688 178.573 163.663 178.112 164.558 177.346ZM248.888 199.238C248.863 199.342 248.84 199.448 248.819 199.556C248.783 199.742 248.751 199.932 248.726 200.126C248.5 201.833 248.918 203.301 249.981 204.532C250.015 204.57 250.05 204.607 250.084 204.644C251.135 205.773 252.455 206.442 254.042 206.652C254.812 206.754 255.618 206.707 256.461 206.513C256.889 206.413 257.311 206.317 257.724 206.226C257.732 206.224 257.739 206.223 257.746 206.221C258.66 206.02 259.536 205.84 260.377 205.681C260.404 205.676 260.431 205.671 260.458 205.666C261.351 205.498 262.204 205.354 263.014 205.235C263.253 205.199 263.488 205.167 263.718 205.138C263.752 205.134 263.785 205.13 263.818 205.126C263.891 205.117 263.963 205.109 264.035 205.101C264.539 205.043 265.022 205.002 265.484 204.978C265.493 204.977 265.502 204.977 265.511 204.976C266.423 204.929 267.251 204.945 267.996 205.025C268.367 205.065 268.731 205.112 269.087 205.166C269.109 205.169 269.132 205.173 269.154 205.176C270.71 205.416 272.123 205.794 273.393 206.308C273.914 206.519 274.411 206.752 274.884 207.009C275.901 207.562 276.713 208.238 277.32 209.037C277.432 209.185 277.538 209.338 277.636 209.495C278 210.076 278.268 210.715 278.438 211.412C278.594 212.079 278.717 212.693 278.807 213.253C278.824 213.359 278.84 213.463 278.855 213.566C278.913 213.975 278.953 214.353 278.973 214.7C278.911 214.658 278.796 214.626 278.629 214.604C278.071 214.482 277.507 214.367 276.938 214.257C276.054 214.087 275.155 213.931 274.242 213.789C273.647 213.696 273.045 213.61 272.438 213.529C272.088 213.483 271.746 213.44 271.412 213.4C271.152 213.37 270.896 213.341 270.645 213.314C270.571 213.306 270.497 213.298 270.423 213.29C269.222 213.165 268.127 213.087 267.137 213.054C267.135 213.054 267.134 213.054 267.132 213.054C266.612 213.037 266.12 213.033 265.658 213.041C265.214 213.051 264.775 213.066 264.34 213.089C264.33 213.089 264.32 213.09 264.31 213.09C264.265 213.092 264.221 213.095 264.176 213.097C262.067 213.212 260.068 213.474 258.177 213.883C258.174 213.884 258.17 213.884 258.166 213.885C256.433 214.261 254.793 214.76 253.245 215.382C253.118 215.432 252.992 215.483 252.867 215.534C252.384 215.731 251.914 215.939 251.458 216.155C251.166 216.294 250.881 216.436 250.6 216.582C249.017 217.406 247.607 218.355 246.37 219.427C245.858 219.871 245.375 220.336 244.922 220.822C244.797 220.957 244.675 221.092 244.555 221.229C242.393 223.667 241.109 226.426 240.702 229.504C240.241 232.984 240.591 236.129 241.752 238.938C242.08 239.721 242.467 240.464 242.912 241.168C243.968 242.838 245.351 244.285 247.062 245.507C247.121 245.55 247.18 245.591 247.24 245.633C247.305 245.678 247.371 245.723 247.437 245.768C250.095 247.55 253.348 248.695 257.197 249.205C257.672 249.267 258.147 249.319 258.622 249.36C259.294 249.417 259.965 249.452 260.635 249.465C262.588 249.501 264.532 249.346 266.468 249.001C268.426 248.658 270.26 248.177 271.97 247.557C272.009 247.543 272.047 247.529 272.085 247.515C273.043 247.164 273.961 246.768 274.84 246.329C274.748 248.054 275.313 249.439 276.537 250.487C276.731 250.649 276.933 250.801 277.145 250.945C277.834 251.412 278.617 251.78 279.495 252.049C280.097 252.233 280.743 252.371 281.434 252.462C283.609 252.75 285.43 252.497 286.897 251.704C288.189 250.998 289.019 249.892 289.388 248.386C289.439 248.177 289.481 247.96 289.515 247.735C289.518 247.715 289.521 247.694 289.524 247.673C289.527 247.652 289.53 247.631 289.532 247.609L291.976 229.138C292.082 228.34 292.181 227.57 292.274 226.829C292.341 226.294 292.404 225.775 292.464 225.27C292.618 223.981 292.749 222.79 292.859 221.696C293.109 219.55 293.256 217.407 293.301 215.268C293.312 214.792 293.313 214.323 293.305 213.862C293.299 213.577 293.291 213.296 293.278 213.017C293.2 211.265 292.976 209.623 292.607 208.092C292.597 208.048 292.586 208.005 292.576 207.962C292.47 207.535 292.354 207.117 292.225 206.707C291.312 203.789 289.823 201.308 287.757 199.264C286.025 197.55 283.901 196.142 281.385 195.04C278.305 193.691 274.639 192.801 270.385 192.369C270.065 192.338 269.725 192.314 269.365 192.297C269.362 192.297 269.36 192.297 269.357 192.297C267.605 192.213 265.387 192.29 262.703 192.527C262.192 192.569 261.69 192.615 261.199 192.667C261.185 192.668 261.171 192.67 261.157 192.671C259.202 192.878 257.408 193.169 255.776 193.543C255.267 193.66 254.774 193.785 254.297 193.918C254.059 193.984 253.827 194.059 253.601 194.142C253.594 194.145 253.588 194.147 253.582 194.15C252.404 194.585 251.388 195.244 250.532 196.126C249.729 196.961 249.182 197.998 248.888 199.238ZM345.841 254.314C345.946 254.238 346.051 254.16 346.156 254.082C346.194 254.054 346.232 254.026 346.269 253.998C346.606 253.744 346.94 253.48 347.27 253.206C347.81 252.732 348.281 252.13 348.684 251.401C349.091 250.637 349.344 249.888 349.441 249.152C349.649 247.579 349.339 246.193 348.51 244.994C347.719 243.765 346.546 242.98 344.991 242.638C344.673 242.565 344.352 242.531 344.031 242.536C343.652 242.542 343.27 242.602 342.887 242.717C342.178 242.93 341.405 243.236 340.569 243.637C340.271 243.784 339.973 243.924 339.676 244.057C339.571 244.104 339.466 244.15 339.361 244.195C338.616 244.516 337.873 244.792 337.133 245.023C337.049 245.049 336.964 245.075 336.88 245.1C336.239 245.291 335.601 245.448 334.964 245.572C334.925 245.579 334.887 245.587 334.848 245.594C334.378 245.682 333.908 245.752 333.44 245.804C332.018 245.959 330.607 245.945 329.205 245.759C329.121 245.748 329.038 245.736 328.955 245.724C326.286 245.332 324.013 244.368 322.136 242.832C321.837 242.584 321.552 242.324 321.279 242.052C321.26 242.032 321.24 242.013 321.221 241.994C319.786 240.542 318.713 238.75 318.004 236.616C317.952 236.457 317.903 236.296 317.855 236.134C317.851 236.118 317.846 236.102 317.841 236.087C317.184 233.815 316.987 231.303 317.25 228.549C317.272 228.316 317.297 228.081 317.326 227.844C317.824 224.997 318.693 222.571 319.933 220.568C320.78 219.199 321.8 218.027 322.993 217.052C323.739 216.45 324.528 215.931 325.36 215.494C325.373 215.487 325.386 215.481 325.399 215.474C327.871 214.186 330.72 213.629 333.944 213.802C334.029 213.807 334.113 213.813 334.197 213.819C335.635 213.928 336.963 214.206 338.182 214.654C338.51 214.774 338.83 214.907 339.142 215.051C340.681 215.755 342.21 216.782 343.728 218.135C343.76 218.163 343.791 218.191 343.823 218.219C343.825 218.221 343.827 218.223 343.829 218.225C344.802 219.103 345.628 219.808 346.307 220.34C346.556 220.522 346.8 220.676 347.038 220.802C347.453 221.022 347.852 221.158 348.235 221.208C349.774 221.412 351.13 220.945 352.302 219.806C353.508 218.671 354.238 217.27 354.493 215.601C354.696 214.062 354.384 212.693 353.555 211.493C353.508 211.423 353.46 211.354 353.412 211.284C353.333 211.169 353.253 211.055 353.172 210.942C352.981 210.674 352.786 210.411 352.587 210.153C352.557 210.115 352.528 210.078 352.499 210.041C352.434 209.957 352.368 209.874 352.302 209.792C352.166 209.622 352.027 209.454 351.888 209.289C351.885 209.287 351.883 209.284 351.881 209.282C351.306 208.603 350.701 207.965 350.066 207.366C349.149 206.502 348.169 205.72 347.127 205.023C346.291 204.463 345.415 203.958 344.498 203.506C344.476 203.495 344.454 203.484 344.432 203.473C341.893 202.232 339.047 201.402 335.895 200.985C335.509 200.934 335.124 200.889 334.742 200.851C334.707 200.848 334.673 200.844 334.639 200.841C329.526 200.342 324.742 200.979 320.289 202.751C318.077 203.639 316.042 204.766 314.182 206.13C314.158 206.148 314.133 206.166 314.109 206.184C312.434 207.422 310.902 208.854 309.513 210.481C309.135 210.924 308.767 211.381 308.41 211.854C307.528 213.02 306.741 214.247 306.048 215.534C306.043 215.544 306.038 215.553 306.033 215.562C304.844 217.775 303.933 220.169 303.301 222.742C303.287 222.797 303.274 222.852 303.26 222.907C303.073 223.688 302.91 224.485 302.773 225.298C302.731 225.55 302.691 225.802 302.654 226.057C302.627 226.24 302.601 226.423 302.577 226.608C302.402 227.93 302.304 229.228 302.283 230.502C302.222 234.262 302.834 237.811 304.117 241.15C304.127 241.174 304.136 241.199 304.146 241.223C304.201 241.366 304.257 241.507 304.315 241.649C304.884 243.033 305.551 244.345 306.314 245.584C308.072 248.436 310.345 250.901 313.133 252.979C313.252 253.067 313.372 253.154 313.493 253.24C313.519 253.259 313.546 253.278 313.572 253.296C317.479 256.058 322.044 257.784 327.268 258.475C327.351 258.486 327.435 258.497 327.519 258.508C331.304 258.982 334.816 258.817 338.054 258.013C338.382 257.928 338.708 257.836 339.031 257.737C339.957 257.452 340.863 257.108 341.75 256.704C341.805 256.678 341.86 256.653 341.915 256.627C343.226 256.017 344.495 255.275 345.72 254.4C345.76 254.372 345.801 254.343 345.841 254.314ZM365.969 218.805C364.985 220.317 364.126 221.968 363.392 223.758C362.808 225.183 362.302 226.695 361.876 228.296C361.781 228.653 361.69 229.014 361.603 229.379C361.583 229.462 361.564 229.545 361.544 229.628C361.223 231.013 360.957 232.46 360.746 233.969C360.744 233.989 360.741 234.009 360.738 234.028C360.723 234.135 360.709 234.241 360.695 234.348C360.587 235.161 360.503 235.961 360.443 236.747C360.427 236.945 360.414 237.141 360.401 237.337C360.345 238.243 360.32 239.132 360.326 240.004C360.339 241.7 360.472 243.329 360.725 244.891C361.013 246.664 361.455 248.351 362.052 249.952C362.171 250.262 362.296 250.568 362.426 250.87C363.081 252.388 363.878 253.804 364.816 255.118C366.085 256.895 367.614 258.484 369.401 259.885C369.431 259.909 369.461 259.932 369.492 259.956C369.889 260.264 370.299 260.564 370.722 260.854C374.741 263.611 379.788 265.402 385.865 266.228C385.921 266.235 385.978 266.243 386.035 266.251C386.038 266.251 386.042 266.251 386.045 266.252C388.889 266.628 391.811 266.674 394.811 266.39C395.781 266.298 396.731 266.172 397.661 266.01C399.507 265.69 401.273 265.232 402.959 264.638C403.049 264.606 403.138 264.574 403.227 264.542C403.679 264.391 404.114 264.199 404.533 263.964C404.589 263.933 404.645 263.9 404.701 263.867C404.736 263.846 404.771 263.825 404.806 263.804C405.199 263.562 405.577 263.282 405.94 262.964C406.182 262.751 406.418 262.521 406.647 262.274C406.686 262.233 406.724 262.191 406.761 262.149C407.833 260.997 408.475 259.618 408.688 258.012C408.816 257.041 408.723 256.076 408.407 255.114C408.125 254.158 407.654 253.346 406.993 252.68C406.332 252.014 405.566 251.623 404.696 251.508C404.549 251.489 404.415 251.475 404.293 251.466C404.056 251.45 403.868 251.456 403.729 251.482C403.109 251.536 402.067 251.824 400.602 252.345C400.166 252.493 399.734 252.632 399.307 252.762C399.199 252.795 399.091 252.827 398.984 252.859C398.405 253.03 397.836 253.185 397.274 253.323C397.184 253.346 397.094 253.367 397.004 253.389C395.845 253.665 394.724 253.872 393.639 254.009C393.389 254.04 393.141 254.068 392.896 254.092C391.079 254.269 389.369 254.245 387.766 254.018C387.732 254.013 387.699 254.007 387.666 254.002C383.604 253.358 380.358 252.141 377.928 250.352C377.772 250.237 377.619 250.119 377.47 250C376.338 249.076 375.507 248.001 374.978 246.776C374.776 246.308 374.618 245.817 374.504 245.305C374.495 245.264 374.486 245.222 374.477 245.18C374.369 244.66 374.306 244.117 374.288 243.551C374.27 242.967 374.299 242.358 374.377 241.725L405.045 245.783C405.181 245.801 405.315 245.817 405.447 245.831C408.087 246.114 410.039 245.642 411.304 244.415C412.632 243.127 413.531 240.964 414.001 237.928C414.011 237.839 414.022 237.751 414.032 237.662C414.107 236.989 414.164 236.325 414.202 235.67C414.454 231.338 413.884 227.393 412.494 223.837C412.307 223.343 412.106 222.861 411.891 222.388C411.866 222.332 411.84 222.275 411.814 222.219C410.203 218.754 407.836 215.868 404.712 213.563C404.306 213.264 403.891 212.977 403.465 212.701C403.414 212.669 403.364 212.636 403.313 212.604C400.016 210.504 396.112 209.106 391.604 208.409C391.571 208.404 391.537 208.399 391.504 208.394C386.921 207.76 382.781 207.959 379.084 208.992C379.025 209.009 378.967 209.025 378.909 209.042C378.083 209.279 377.278 209.559 376.496 209.881C374.438 210.728 372.564 211.846 370.875 213.235C369.892 214.044 368.971 214.944 368.113 215.936C367.745 216.361 367.389 216.803 367.044 217.262C366.987 217.338 366.93 217.415 366.874 217.492C366.563 217.915 366.261 218.353 365.969 218.805ZM376.028 230.401C376.249 228.915 376.743 227.553 377.511 226.315C377.518 226.303 377.525 226.292 377.532 226.28C377.659 226.078 377.793 225.878 377.934 225.682C378.123 225.419 378.326 225.163 378.542 224.912C379.429 223.882 380.456 223.027 381.625 222.349C382.26 221.981 382.936 221.665 383.654 221.4C385.593 220.656 387.591 220.394 389.647 220.614C389.702 220.62 389.756 220.626 389.811 220.633C389.869 220.639 389.926 220.647 389.984 220.654C392.259 220.955 394.251 221.73 395.958 222.977C396.361 223.263 396.739 223.567 397.092 223.889C398.238 224.937 399.12 226.178 399.737 227.614C399.873 227.918 399.994 228.226 400.099 228.536C400.109 228.564 400.118 228.591 400.127 228.619C400.132 228.634 400.137 228.65 400.142 228.665C400.491 229.735 400.661 230.845 400.653 231.994C400.65 232.409 400.624 232.83 400.574 233.255C400.571 233.284 400.567 233.314 400.563 233.343C400.551 233.443 400.538 233.542 400.523 233.642L376.028 230.401ZM277.433 226.734C277.496 226.45 277.57 226.142 277.656 225.813C277.613 225.802 277.57 225.791 277.527 225.779C277.408 225.749 277.286 225.718 277.162 225.688C276.875 225.619 276.573 225.552 276.256 225.486C276.155 225.465 276.053 225.445 275.95 225.424C275.015 225.239 273.955 225.068 272.77 224.912C272.55 224.882 272.332 224.855 272.116 224.828C271.724 224.781 271.339 224.737 270.96 224.698C270.948 224.697 270.936 224.696 270.923 224.695C270.014 224.602 269.14 224.535 268.302 224.494C267.645 224.462 267.011 224.446 266.398 224.445C266.338 224.445 266.279 224.445 266.22 224.445C266.114 224.445 266.01 224.446 265.906 224.448C265.893 224.448 265.88 224.448 265.867 224.448C265.524 224.453 265.189 224.463 264.86 224.478C264.544 224.493 264.235 224.516 263.932 224.546C262.906 224.647 261.958 224.832 261.09 225.1C260.079 225.413 259.175 225.839 258.378 226.378C258.186 226.508 258.004 226.645 257.83 226.789C257.805 226.81 257.78 226.831 257.755 226.852C256.591 227.846 255.843 229.173 255.511 230.83C255.505 230.862 255.499 230.894 255.493 230.926C255.46 231.097 255.432 231.272 255.409 231.45C255.326 232.076 255.32 232.664 255.39 233.215C255.393 233.244 255.397 233.272 255.401 233.3C255.423 233.456 255.452 233.608 255.486 233.758C255.493 233.788 255.501 233.818 255.508 233.848C255.723 234.71 256.148 235.469 256.782 236.126C257.314 236.66 257.97 237.105 258.75 237.462C259.689 237.891 260.807 238.191 262.104 238.362C262.943 238.473 263.776 238.535 264.603 238.547C264.615 238.547 264.626 238.547 264.638 238.547C264.927 238.551 265.216 238.549 265.503 238.54C265.516 238.54 265.528 238.539 265.54 238.539C265.885 238.528 266.229 238.509 266.571 238.481C267.611 238.395 268.641 238.229 269.662 237.983C269.663 237.983 269.665 237.983 269.666 237.982C269.966 237.906 270.262 237.828 270.553 237.747C270.735 237.697 270.914 237.646 271.092 237.595C272.304 237.243 273.439 236.854 274.498 236.428C274.628 236.376 274.757 236.323 274.885 236.27C275.337 236.081 275.774 235.885 276.197 235.682L277.24 227.801C277.264 227.616 277.297 227.416 277.338 227.201C277.366 227.053 277.397 226.897 277.433 226.734Z" fill="black"/>
<path d="M135.619 233.17C130.968 232.555 126.646 231.251 122.654 229.259C118.661 227.266 115.071 224.68 111.882 221.501C111.014 220.603 110.318 219.557 109.795 218.364C109.276 217.138 109.094 215.939 109.249 214.768C109.488 212.961 110.21 211.49 111.416 210.356C112.655 209.226 114.186 208.595 116.008 208.461C116.284 208.43 116.674 208.447 117.176 208.513C118.313 208.664 119.292 209.117 120.111 209.872C122.748 212.332 125.56 214.372 128.546 215.993C131.536 217.581 134.521 218.571 137.499 218.965C141.313 219.47 144.297 219.184 146.448 218.107C148.604 216.996 149.861 215.085 150.22 212.375C150.481 210.4 149.49 208.499 147.246 206.67C145.04 204.812 141.533 202.883 136.724 200.885C129.11 197.699 123.521 193.878 119.957 189.423C116.43 184.938 115.195 179.991 116.251 174.581C117.059 170.534 118.652 167.119 121.029 164.335C123.444 161.522 126.622 159.508 130.562 158.292C134.506 157.044 139.122 156.769 144.409 157.469L146.059 157.738C149.091 158.241 152.076 159.096 155.015 160.302C157.992 161.479 160.79 162.973 163.411 164.784C164.627 165.626 165.593 166.69 166.308 167.976C167.023 169.262 167.281 170.658 167.082 172.164C166.777 174.473 165.935 176.2 164.558 177.346C163.214 178.496 161.689 178.958 159.982 178.733C159.079 178.613 158.219 178.295 157.402 177.778C152.663 174.734 148.563 172.915 145.1 172.32L143.501 172.058C139.853 171.575 136.967 171.772 134.842 172.648C132.755 173.496 131.586 174.873 131.333 176.781C131.063 178.822 132.231 180.934 134.836 183.118C137.475 185.305 141.347 187.435 146.453 189.506C153.462 192.374 158.562 195.773 161.753 199.702C164.949 203.598 166.191 208.24 165.478 213.627C164.88 218.145 163.314 222.006 160.779 225.212C158.277 228.422 154.888 230.749 150.611 232.192C146.339 233.601 141.341 233.927 135.619 233.17Z" fill="#FFEAA2"/>
<path d="M212.969 184.722C217.688 185.346 221.777 187.249 225.238 190.431C228.703 193.579 231.205 197.57 232.744 202.404C234.317 207.243 234.745 212.373 234.028 217.794C233.236 223.784 231.544 228.718 228.954 232.598C226.364 236.477 223.053 239.239 219.022 240.885C215.029 242.502 210.522 242.978 205.503 242.314C201.588 241.796 198.263 240.675 195.529 238.952C192.833 237.199 190.707 234.994 189.152 232.337L186.495 252.414C186.239 254.355 185.337 255.768 183.79 256.653C182.271 257.576 180.458 257.898 178.35 257.619C176.242 257.34 174.558 256.555 173.299 255.265C172.069 254.013 171.582 252.416 171.839 250.475L180.273 186.729C180.529 184.788 181.419 183.339 182.942 182.383C184.498 181.431 186.33 181.095 188.438 181.374C190.546 181.653 192.211 182.452 193.432 183.771C194.687 185.095 195.186 186.727 194.929 188.668L194.551 191.529C196.835 188.937 199.538 187.03 202.662 185.809C205.786 184.588 209.222 184.226 212.969 184.722ZM203.333 230.536C206.077 230.899 208.575 230.548 210.826 229.484C213.116 228.391 214.989 226.715 216.446 224.456C217.936 222.202 218.884 219.536 219.292 216.457C219.725 213.178 219.557 210.074 218.787 207.146C218.05 204.223 216.772 201.789 214.952 199.846C213.132 197.903 210.9 196.756 208.257 196.407C205.413 196.03 202.854 196.322 200.582 197.281C198.315 198.207 196.482 199.581 195.083 201.405C193.684 203.229 192.803 205.257 192.439 207.491L191.39 215.421C191.138 217.839 191.446 220.144 192.313 222.336C193.181 224.528 194.556 226.361 196.438 227.836C198.357 229.282 200.656 230.181 203.333 230.536Z" fill="#FFEAA2"/>
<path d="M293.3 215.268C293.255 217.407 293.108 219.55 292.858 221.696C292.646 223.813 292.352 226.294 291.976 229.138L289.532 247.609C289.28 249.517 288.401 250.882 286.896 251.704C285.429 252.497 283.608 252.75 281.433 252.462C279.425 252.197 277.793 251.538 276.536 250.487C275.313 249.439 274.747 248.054 274.839 246.329C272.36 247.568 269.569 248.458 266.467 249.001C263.399 249.548 260.308 249.616 257.196 249.205C253.348 248.695 250.095 247.55 247.436 245.768C244.811 243.991 242.916 241.714 241.751 238.938C240.591 236.129 240.241 232.984 240.701 229.504C241.109 226.426 242.393 223.667 244.554 221.229C246.72 218.758 249.616 216.809 253.244 215.382C256.876 213.922 261.014 213.142 265.658 213.041C267.467 213.008 269.727 213.171 272.437 213.529C274.579 213.813 276.642 214.171 278.628 214.604C278.795 214.626 278.91 214.658 278.973 214.7C278.92 213.808 278.742 212.712 278.437 211.412C277.974 209.512 276.789 208.044 274.883 207.009C272.977 205.974 270.681 205.313 267.995 205.025C266.619 204.877 264.958 204.947 263.014 205.234C261.069 205.522 258.884 205.948 256.46 206.513C255.617 206.707 254.811 206.754 254.042 206.652C252.402 206.435 251.048 205.728 249.981 204.532C248.918 203.301 248.499 201.833 248.725 200.126C248.942 198.487 249.544 197.153 250.531 196.126C251.556 195.07 252.811 194.334 254.296 193.918C256.7 193.248 259.502 192.785 262.703 192.527C265.941 192.241 268.502 192.188 270.385 192.369C278.112 193.153 283.903 195.451 287.757 199.264C291.61 203.077 293.458 208.411 293.3 215.268ZM255.408 231.45C255.156 233.357 255.614 234.916 256.781 236.126C257.954 237.303 259.728 238.048 262.104 238.362C264.68 238.703 267.199 238.577 269.661 237.983C272.128 237.356 274.306 236.589 276.197 235.682L277.239 227.801C277.31 227.266 277.449 226.603 277.656 225.813C276.373 225.473 274.744 225.173 272.77 224.911C269.792 224.517 267.155 224.373 264.86 224.478C262.221 224.605 260.06 225.239 258.378 226.378C256.695 227.517 255.705 229.208 255.408 231.45Z" fill="#FFEAA2"/>
<path d="M302.576 226.608C303.329 220.919 305.273 216.001 308.41 211.854C311.546 207.706 315.506 204.672 320.288 202.751C325.104 200.834 330.307 200.246 335.895 200.985C343.625 202.008 349.511 205.511 353.555 211.493C354.383 212.693 354.696 214.062 354.492 215.601C354.237 217.27 353.507 218.671 352.302 219.806C351.13 220.944 349.774 221.412 348.235 221.208C347.632 221.129 346.99 220.839 346.306 220.34C345.628 219.808 344.802 219.103 343.828 218.225C342.277 216.828 340.714 215.77 339.141 215.051C337.601 214.337 335.869 213.92 333.944 213.802C329.616 213.57 325.966 214.653 322.993 217.052C320.053 219.455 318.164 223.052 317.326 227.844C316.93 231.095 317.156 234.019 318.004 236.616C318.856 239.181 320.234 241.253 322.136 242.832C324.071 244.416 326.427 245.392 329.205 245.759C332.919 246.251 336.707 245.543 340.568 243.636C341.405 243.236 342.177 242.93 342.886 242.717C343.595 242.505 344.297 242.478 344.991 242.638C346.546 242.98 347.719 243.765 348.51 244.994C349.338 246.193 349.649 247.579 349.441 249.151C349.343 249.888 349.091 250.637 348.683 251.401C348.28 252.13 347.809 252.732 347.27 253.205C344.439 255.555 341.367 257.157 338.054 258.013C334.744 258.835 331.149 258.989 327.267 258.475C321.846 257.758 317.134 255.926 313.132 252.979C309.134 249.999 306.195 246.222 304.314 241.649C302.438 237.042 301.859 232.029 302.576 226.608Z" fill="#FFEAA2"/>
<path d="M386.044 266.252C379.887 265.437 374.78 263.638 370.722 260.854C366.664 258.07 363.774 254.436 362.052 249.952C360.368 245.439 359.915 240.238 360.694 234.348C361.518 228.124 363.276 222.943 365.968 218.805C368.665 214.633 372.174 211.659 376.495 209.881C380.816 208.103 385.819 207.608 391.503 208.394C396.71 209.185 401.113 210.908 404.711 213.563C408.309 216.218 410.904 219.643 412.494 223.837C414.122 228.002 414.624 232.699 414 237.928C413.53 240.964 412.632 243.127 411.303 244.415C409.975 245.703 407.889 246.159 405.045 245.783L374.376 241.725C373.949 245.21 374.98 247.968 377.469 250C379.963 251.998 383.395 253.337 387.765 254.018C391.475 254.543 395.754 253.985 400.601 252.345C402.066 251.824 403.109 251.536 403.729 251.482C403.939 251.442 404.261 251.45 404.696 251.508C405.566 251.623 406.331 252.014 406.992 252.68C407.653 253.346 408.125 254.158 408.407 255.114C408.722 256.075 408.816 257.041 408.687 258.012C408.475 259.618 407.833 260.997 406.761 262.149C405.723 263.305 404.545 264.103 403.227 264.542C400.616 265.49 397.81 266.106 394.811 266.39C391.811 266.674 388.889 266.628 386.044 266.252ZM400.522 233.642C400.839 231.505 400.577 229.496 399.737 227.614C398.93 225.736 397.67 224.191 395.958 222.977C394.25 221.73 392.259 220.955 389.983 220.654C387.808 220.367 385.698 220.615 383.654 221.4C381.613 222.152 379.909 223.322 378.541 224.912C377.173 226.501 376.336 228.331 376.028 230.401L400.522 233.642Z" fill="#FFEAA2"/>
<path fill-rule="evenodd" clip-rule="evenodd" d="M104.884 228.393L104.822 228.33C103.108 226.558 101.771 224.525 100.799 222.31L100.774 222.251L100.748 222.191C99.636 219.561 99.0988 216.599 99.5115 213.48C100.015 209.672 101.662 206.047 104.685 203.202L104.741 203.15L104.798 203.098C107.762 200.395 111.359 198.991 115.099 198.68C114.096 197.685 113.157 196.646 112.287 195.559L112.261 195.527L112.236 195.495C107.014 188.854 104.986 181.024 106.611 172.699L106.619 172.658C107.713 167.179 109.96 162.172 113.559 157.956L113.577 157.936C117.323 153.572 122.141 150.616 127.633 148.917C133.277 147.137 139.393 146.897 145.698 147.731L145.846 147.751L147.668 148.048C151.431 148.673 155.107 149.727 158.686 151.191C162.333 152.638 165.774 154.477 168.995 156.703L169.001 156.707C171.45 158.401 173.443 160.593 174.894 163.203C176.669 166.396 177.287 169.927 176.82 173.453C176.759 173.912 176.684 174.375 176.592 174.84C176.951 174.57 177.326 174.311 177.718 174.065L177.767 174.034L177.816 174.004C181.6 171.689 185.775 171.113 189.726 171.636C193.362 172.117 196.976 173.552 199.908 176.354C204.521 174.714 209.369 174.337 214.258 174.984C220.942 175.868 226.902 178.625 231.865 183.18C235.382 186.381 238.13 190.165 240.143 194.424C240.884 192.604 241.962 190.867 243.449 189.32L243.466 189.303L243.483 189.285C245.776 186.923 248.572 185.321 251.645 184.46L251.662 184.455C254.801 183.581 258.233 183.035 261.876 182.74C265.339 182.434 268.575 182.327 271.325 182.591L271.351 182.594L271.377 182.597C280.394 183.511 288.652 186.332 294.665 192.281C298.186 195.764 300.486 199.892 301.788 204.404C305.798 199.609 310.779 195.985 316.628 193.636L316.657 193.624C323.168 191.033 330.08 190.308 337.184 191.247C347.433 192.604 355.919 197.469 361.67 205.959C362.011 206.456 362.318 206.964 362.592 207.482C365.496 204.645 368.89 202.389 372.759 200.797C379.016 198.223 385.834 197.693 392.849 198.664L392.914 198.673L392.979 198.682C399.483 199.671 405.451 201.902 410.544 205.659C415.652 209.429 419.401 214.374 421.66 220.306C423.959 226.211 424.533 232.559 423.754 239.091L423.734 239.261L423.708 239.43C423.108 243.306 421.726 247.99 418.143 251.465C417.993 251.611 417.842 251.751 417.689 251.888C417.722 251.989 417.754 252.09 417.785 252.192C418.51 254.465 418.747 256.868 418.425 259.3C417.958 262.834 416.482 266.094 414.015 268.773C412.016 270.981 409.502 272.776 406.472 273.813C403.048 275.046 399.457 275.817 395.737 276.169C392.037 276.52 388.371 276.468 384.756 275.99C377.459 275.024 370.787 272.811 365.165 268.953C361.172 266.214 357.918 262.811 355.486 258.798C354.969 259.422 354.393 260.024 353.75 260.587L353.648 260.677L353.544 260.764C349.685 263.967 345.327 266.28 340.509 267.524L340.465 267.535L340.422 267.546C335.754 268.705 330.903 268.865 325.979 268.213C319.085 267.301 312.775 264.914 307.308 260.889L307.285 260.872L307.262 260.854C303.824 258.292 300.934 255.258 298.625 251.788C297.52 255.244 295.236 258.34 291.607 260.323L291.569 260.344C287.782 262.392 283.729 262.674 280.145 262.2C276.815 261.76 273.404 260.584 270.467 258.212C269.711 258.385 268.947 258.539 268.174 258.674C264.11 259.398 260.009 259.485 255.908 258.942C250.878 258.277 246.119 256.71 241.968 253.928L241.949 253.915L241.929 253.902C237.957 251.212 234.859 247.629 232.902 243.22C230.014 246.106 226.621 248.393 222.735 249.979L222.708 249.99C216.883 252.348 210.622 252.9 204.215 252.052C201.617 251.708 199.092 251.14 196.683 250.307L196.233 253.703C195.625 258.298 193.205 262.534 188.782 265.113C185.021 267.361 180.9 267.864 177.062 267.356C173.183 266.843 169.339 265.265 166.28 262.136C162.675 258.458 161.5 253.727 162.101 249.187L163.842 236.028C160.882 238.428 157.482 240.24 153.752 241.499L153.72 241.509L153.689 241.52C147.671 243.505 141.12 243.806 134.331 242.908C128.658 242.158 123.283 240.55 118.268 238.048C113.324 235.581 108.874 232.373 104.946 228.456L104.884 228.393ZM169.455 193.604L170.535 185.44C170.55 185.33 170.565 185.221 170.582 185.111C168.642 186.679 166.427 187.756 164.048 188.268C166.032 189.856 167.817 191.591 169.364 193.492C169.394 193.529 169.425 193.567 169.455 193.604ZM161.754 199.702C158.562 195.773 153.462 192.374 146.453 189.506C141.347 187.435 137.475 185.305 134.836 183.118C132.231 180.934 131.064 178.822 131.334 176.781C131.586 174.873 132.756 173.496 134.843 172.648C136.967 171.772 139.853 171.575 143.501 172.058L145.101 172.32C148.563 172.915 152.663 174.734 157.402 177.778C158.219 178.295 159.079 178.613 159.983 178.733C161.689 178.958 163.214 178.496 164.558 177.346C165.936 176.2 166.777 174.473 167.082 172.164C167.282 170.658 167.024 169.262 166.309 167.976C165.594 166.69 164.628 165.626 163.411 164.784C160.791 162.973 157.992 161.479 155.015 160.302C152.077 159.096 149.091 158.241 146.059 157.738L144.41 157.469C139.123 156.769 134.507 157.044 130.562 158.293C126.622 159.508 123.444 161.522 121.029 164.335C118.652 167.119 117.06 170.534 116.252 174.581C115.195 179.991 116.431 184.938 119.957 189.423C123.522 193.878 129.111 197.699 136.725 200.885C141.533 202.884 145.041 204.812 147.246 206.67C149.49 208.499 150.481 210.4 150.22 212.375C149.861 215.085 148.604 216.996 146.448 218.107C144.297 219.184 141.314 219.47 137.499 218.965C134.521 218.571 131.537 217.581 128.546 215.993C125.56 214.373 122.748 212.332 120.112 209.872C119.292 209.117 118.314 208.664 117.176 208.514C116.674 208.447 116.285 208.43 116.008 208.461C114.186 208.595 112.655 209.226 111.416 210.356C110.211 211.491 109.488 212.961 109.249 214.768C109.094 215.939 109.276 217.138 109.795 218.364C110.318 219.557 111.014 220.603 111.883 221.501C115.071 224.68 118.662 227.266 122.654 229.259C126.646 231.251 130.968 232.555 135.62 233.17C141.342 233.927 146.339 233.601 150.611 232.192C154.888 230.749 158.277 228.422 160.779 225.212C163.314 222.006 164.88 218.145 165.478 213.627C166.191 208.24 164.949 203.598 161.754 199.702ZM183.79 256.653C185.337 255.768 186.239 254.355 186.496 252.414L189.152 232.337C189.677 233.234 190.267 234.08 190.923 234.874C190.96 234.919 190.998 234.965 191.036 235.01C191.89 236.026 192.852 236.956 193.922 237.801C194.433 238.204 194.969 238.587 195.529 238.952C196.308 239.443 197.135 239.885 198.01 240.278C200.205 241.265 202.703 241.944 205.503 242.314C210.523 242.978 215.029 242.502 219.022 240.885C223.053 239.239 226.364 236.477 228.954 232.598C229.648 231.558 230.278 230.442 230.843 229.251C230.997 228.926 231.147 228.595 231.291 228.259C232.39 225.703 233.211 222.821 233.755 219.613C233.855 219.018 233.947 218.412 234.028 217.794C234.746 212.373 234.318 207.243 232.745 202.404C231.205 197.57 228.703 193.579 225.238 190.431C221.777 187.249 217.688 185.346 212.97 184.722C209.987 184.327 207.203 184.476 204.616 185.169C203.952 185.346 203.3 185.56 202.662 185.809C201.654 186.203 200.69 186.669 199.769 187.206C198.876 187.727 198.024 188.315 197.213 188.97C197.207 188.975 197.201 188.979 197.196 188.984C197.167 189.007 197.138 189.031 197.11 189.054C196.205 189.795 195.352 190.62 194.551 191.529L194.93 188.668C195.186 186.727 194.687 185.095 193.432 183.771C192.625 182.899 191.624 182.254 190.429 181.837C189.816 181.623 189.153 181.468 188.438 181.374C186.33 181.095 184.498 181.431 182.942 182.383C181.419 183.339 180.53 184.788 180.273 186.729L171.839 250.475C171.582 252.416 172.069 254.013 173.299 255.265C174.559 256.555 176.242 257.34 178.35 257.619C180.459 257.898 182.272 257.576 183.79 256.653ZM191.312 216.58C191.252 218.579 191.586 220.497 192.314 222.336C193.181 224.528 194.556 226.361 196.438 227.836C196.497 227.88 196.557 227.925 196.617 227.968C197.44 228.566 198.33 229.066 199.289 229.468C200.524 229.987 201.872 230.342 203.333 230.536C206.077 230.899 208.575 230.548 210.827 229.484C213.116 228.391 214.99 226.715 216.446 224.456C217.936 222.202 218.885 219.536 219.292 216.457C219.726 213.178 219.558 210.074 218.787 207.146C218.051 204.223 216.772 201.789 214.952 199.846C213.133 197.903 210.901 196.756 208.257 196.407C206.619 196.19 205.076 196.195 203.627 196.421C202.686 196.568 201.784 196.809 200.923 197.143C200.809 197.187 200.696 197.233 200.583 197.281C198.315 198.207 196.482 199.581 195.083 201.405C193.684 203.229 192.803 205.257 192.439 207.491L191.39 215.421C191.35 215.811 191.323 216.197 191.312 216.58ZM201.15 216.544C201.076 217.391 201.19 218.073 201.447 218.721C201.653 219.24 201.936 219.646 202.418 220.041C202.83 220.334 203.479 220.647 204.622 220.798C205.694 220.94 206.257 220.777 206.615 220.61C207.155 220.349 207.667 219.946 208.191 219.133L208.221 219.087L208.251 219.04C208.807 218.2 209.313 216.993 209.554 215.169C209.836 213.037 209.704 211.228 209.288 209.645L209.275 209.596L209.263 209.547C208.878 208.02 208.321 207.135 207.783 206.56C207.518 206.277 207.366 206.197 206.969 206.144C205.572 205.96 204.817 206.156 204.403 206.33L204.35 206.353L204.295 206.375C203.531 206.687 203.146 207.033 202.877 207.384C202.473 207.91 202.258 208.404 202.152 208.966L201.15 216.544ZM243.088 223.133C241.802 225.077 241.006 227.201 240.702 229.504C240.605 230.237 240.544 230.955 240.519 231.658C240.425 234.294 240.836 236.721 241.752 238.938C242.917 241.714 244.812 243.991 247.437 245.768C250.095 247.55 253.348 248.695 257.196 249.205C259.884 249.56 262.555 249.558 265.21 249.198C265.63 249.142 266.049 249.076 266.468 249.001C268.513 248.643 270.423 248.134 272.197 247.474C273.114 247.133 273.995 246.751 274.839 246.329C274.832 246.464 274.829 246.596 274.83 246.727C274.84 248.268 275.409 249.521 276.537 250.487C276.73 250.649 276.933 250.801 277.145 250.945C278.306 251.732 279.735 252.238 281.434 252.462C283.609 252.75 285.43 252.497 286.897 251.704C288.401 250.882 289.28 249.517 289.532 247.609L291.976 229.138C292.352 226.294 292.647 223.813 292.859 221.696C293.108 219.55 293.256 217.407 293.3 215.268C293.459 208.411 291.611 203.077 287.757 199.264C283.903 195.451 278.113 193.153 270.385 192.369C268.502 192.188 265.942 192.241 262.703 192.527C259.503 192.785 256.701 193.248 254.297 193.918C252.812 194.334 251.556 195.07 250.531 196.126C249.544 197.153 248.942 198.487 248.725 200.126C248.5 201.833 248.918 203.301 249.981 204.532C250.368 204.966 250.793 205.335 251.255 205.64C252.068 206.177 252.997 206.514 254.042 206.652C254.811 206.754 255.618 206.707 256.461 206.513C258.885 205.948 261.069 205.522 263.014 205.234C263.896 205.104 264.719 205.019 265.484 204.978C265.493 204.977 265.502 204.977 265.511 204.976C266.422 204.929 267.251 204.945 267.996 205.025C270.015 205.241 271.814 205.669 273.393 206.308C273.914 206.519 274.411 206.752 274.883 207.009C276.789 208.044 277.974 209.512 278.438 211.412C278.594 212.079 278.717 212.693 278.807 213.253C278.824 213.359 278.84 213.463 278.855 213.566C278.913 213.975 278.953 214.353 278.973 214.7C278.911 214.658 278.796 214.626 278.628 214.604C276.643 214.171 274.579 213.813 272.437 213.529C272.088 213.483 271.746 213.44 271.412 213.4C271.152 213.37 270.896 213.341 270.645 213.314C270.571 213.306 270.497 213.298 270.423 213.29C269.222 213.165 268.126 213.087 267.137 213.054C267.135 213.054 267.134 213.054 267.132 213.054C266.611 213.037 266.12 213.033 265.658 213.041C265.158 213.052 264.664 213.071 264.176 213.097C262.067 213.212 260.067 213.474 258.177 213.883C258.173 213.884 258.169 213.884 258.165 213.885C256.433 214.261 254.793 214.76 253.244 215.382C253.118 215.432 252.992 215.483 252.867 215.534C252.377 215.734 251.901 215.944 251.438 216.164C248.642 217.495 246.348 219.183 244.554 221.229C244.01 221.844 243.521 222.478 243.088 223.133ZM269.272 238.073C269.402 238.045 269.532 238.015 269.662 237.983C269.963 237.907 270.26 237.828 270.553 237.747C272.656 237.167 274.538 236.478 276.197 235.682L277.24 227.801C277.311 227.266 277.449 226.603 277.656 225.813C277.613 225.802 277.57 225.791 277.527 225.779C276.264 225.453 274.679 225.164 272.77 224.911C271.02 224.68 269.387 224.535 267.873 224.475C266.811 224.434 265.806 224.435 264.86 224.478C262.222 224.605 260.061 225.239 258.378 226.378C256.695 227.517 255.705 229.208 255.409 231.45C255.156 233.357 255.614 234.916 256.782 236.126C257.954 237.303 259.728 238.048 262.104 238.362C264.545 238.685 266.934 238.589 269.272 238.073ZM350.803 234.339C350.849 233.914 350.9 233.487 350.957 233.06C351.054 232.329 351.162 231.604 351.283 230.886C349.892 231.116 348.439 231.144 346.947 230.946C344.201 230.583 342.03 229.38 340.513 228.272L340.377 228.173L340.244 228.069C339.325 227.348 338.318 226.483 337.256 225.525C336.299 224.663 335.559 224.214 335.059 223.985L335.033 223.974L335.007 223.961C334.723 223.83 334.223 223.664 333.377 223.608C331.173 223.497 330.011 224.02 329.187 224.675C328.555 225.201 327.599 226.367 327.048 229.284C326.839 231.234 327.029 232.595 327.334 233.543C327.653 234.491 328.034 234.955 328.384 235.252C328.743 235.539 329.333 235.868 330.494 236.021C332.002 236.221 333.836 236.006 336.22 234.829L336.274 234.802L336.329 234.776C337.514 234.209 338.767 233.698 340.065 233.309C342.324 232.631 344.739 232.51 347.145 233.055C348.411 233.337 349.64 233.763 350.803 234.339ZM344.991 242.638C344.297 242.478 343.596 242.505 342.887 242.717C342.177 242.93 341.405 243.236 340.569 243.637C336.707 245.543 332.92 246.251 329.205 245.759C326.428 245.392 324.071 244.416 322.136 242.832C320.234 241.253 318.857 239.181 318.004 236.616C317.156 234.019 316.93 231.095 317.326 227.844C318.164 223.052 320.053 219.455 322.993 217.052C325.966 214.653 329.617 213.57 333.944 213.802C335.869 213.92 337.602 214.337 339.141 215.051C340.715 215.77 342.277 216.828 343.829 218.225C344.802 219.103 345.628 219.808 346.307 220.34C346.99 220.839 347.633 221.129 348.235 221.208C349.774 221.412 351.13 220.944 352.302 219.806C353.508 218.671 354.238 217.27 354.493 215.601C354.696 214.062 354.384 212.693 353.555 211.493C349.512 205.511 343.625 202.008 335.895 200.985C330.307 200.246 325.105 200.834 320.289 202.751C315.506 204.672 311.547 207.706 308.41 211.854C305.274 216.001 303.329 220.919 302.577 226.608C301.859 232.029 302.439 237.042 304.315 241.649C306.195 246.222 309.135 249.999 313.132 252.979C317.135 255.926 321.846 257.758 327.267 258.475C331.149 258.989 334.745 258.835 338.054 258.013C341.368 257.157 344.44 255.555 347.27 253.206C347.809 252.732 348.281 252.13 348.684 251.401C349.091 250.637 349.343 249.888 349.441 249.152C349.649 247.579 349.339 246.193 348.51 244.994C347.719 243.765 346.546 242.98 344.991 242.638ZM365.969 218.805C363.276 222.943 361.518 228.124 360.695 234.348C359.915 240.238 360.368 245.439 362.052 249.952C363.774 254.436 366.664 258.07 370.722 260.854C374.78 263.638 379.888 265.437 386.045 266.252C388.889 266.628 391.811 266.674 394.811 266.39C397.811 266.106 400.616 265.49 403.227 264.542C404.545 264.103 405.723 263.306 406.761 262.149C407.833 260.997 408.475 259.618 408.688 258.012C408.792 257.224 408.75 256.439 408.561 255.657C408.518 255.476 408.466 255.295 408.407 255.114C408.125 254.158 407.654 253.346 406.993 252.68C406.332 252.014 405.566 251.623 404.696 251.508C404.549 251.489 404.415 251.475 404.293 251.466C404.056 251.45 403.868 251.456 403.729 251.482C403.109 251.536 402.067 251.824 400.602 252.345C397.863 253.272 395.306 253.853 392.93 254.088C391.101 254.27 389.379 254.246 387.766 254.018C385.801 253.712 384.025 253.273 382.44 252.7C380.499 252 378.842 251.1 377.47 250C374.981 247.968 373.95 245.21 374.376 241.725L405.045 245.783C405.181 245.801 405.315 245.817 405.447 245.831C408.087 246.114 410.039 245.642 411.304 244.415C411.457 244.266 411.605 244.106 411.746 243.934C412.834 242.616 413.585 240.614 414.001 237.928C414.624 232.699 414.122 228.002 412.494 223.837C410.904 219.643 408.31 216.218 404.711 213.563C401.113 210.908 396.71 209.185 391.504 208.394C385.819 207.608 380.817 208.103 376.496 209.881C372.175 211.659 368.666 214.633 365.969 218.805ZM396.215 223.164C396.131 223.101 396.045 223.038 395.958 222.977C394.251 221.73 392.259 220.955 389.984 220.654C387.808 220.367 385.699 220.615 383.654 221.4C383.587 221.425 383.52 221.45 383.454 221.476C381.502 222.229 379.865 223.374 378.542 224.912C377.174 226.501 376.336 228.331 376.028 230.401L400.523 233.642C400.542 233.513 400.559 233.384 400.574 233.255C400.806 231.262 400.527 229.382 399.737 227.614C398.971 225.832 397.797 224.348 396.215 223.164Z" fill="#6B37D9"/>
<path d="M340.365 184.996C348.52 197.554 327.904 225.417 294.317 247.229C260.73 269.041 226.89 276.542 218.735 263.984" stroke="white" stroke-width="3.45645"/>
<circle cx="322.327" cy="178.583" r="6.91289" fill="white"/>
</svg>
