<svg width="512" height="512" viewBox="0 0 512 512" fill="none" xmlns="http://www.w3.org/2000/svg">
<mask id="path-1-outside-1_39_2975" maskUnits="userSpaceOnUse" x="45.2588" y="69.0005" width="422" height="381" fill="black">
<rect fill="white" x="45.2588" y="69.0005" width="422" height="381"/>
<path fill-rule="evenodd" clip-rule="evenodd" d="M100.128 107.854L81.048 107.854C79.6149 107.854 78.3521 106.878 78.0985 105.467C76.6637 97.489 77.5078 86.8868 90.1436 83.2212C105.487 78.7698 112.476 87.6241 112.476 91.67C113.668 89.2496 117.533 86.5577 124.073 87.9796C147.341 77.3624 176.012 83.1199 202.882 88.5159C226.213 93.201 248.186 97.6136 264.088 90.7987C295.287 77.4278 337.07 83.1088 372.456 106.948C377.704 106.228 384.326 106.67 392.53 109.014C417.163 116.051 418.922 135.406 415.403 149.481H414.401C417.932 154.821 421.212 160.48 424.2 166.456C459.389 236.835 480.503 319.53 390.77 389.909C274.567 481.048 105.77 419.055 75.8244 377.592C46.3804 336.824 59.9412 306.26 73.3455 276.048C80.7671 259.321 88.1407 242.702 88.1407 224.518C88.1407 213.483 86.3404 202.756 84.5475 192.074C80.0257 165.131 75.5512 138.47 100.128 107.854Z"/>
</mask>
<path fill-rule="evenodd" clip-rule="evenodd" d="M100.128 107.854L81.048 107.854C79.6149 107.854 78.3521 106.878 78.0985 105.467C76.6637 97.489 77.5078 86.8868 90.1436 83.2212C105.487 78.7698 112.476 87.6241 112.476 91.67C113.668 89.2496 117.533 86.5577 124.073 87.9796C147.341 77.3624 176.012 83.1199 202.882 88.5159C226.213 93.201 248.186 97.6136 264.088 90.7987C295.287 77.4278 337.07 83.1088 372.456 106.948C377.704 106.228 384.326 106.67 392.53 109.014C417.163 116.051 418.922 135.406 415.403 149.481H414.401C417.932 154.821 421.212 160.48 424.2 166.456C459.389 236.835 480.503 319.53 390.77 389.909C274.567 481.048 105.77 419.055 75.8244 377.592C46.3804 336.824 59.9412 306.26 73.3455 276.048C80.7671 259.321 88.1407 242.702 88.1407 224.518C88.1407 213.483 86.3404 202.756 84.5475 192.074C80.0257 165.131 75.5512 138.47 100.128 107.854Z" fill="white"/>
<path d="M81.048 107.854L81.048 120.31L81.048 120.31L81.048 107.854ZM100.128 107.854L109.842 115.651L126.1 95.3974L100.128 95.3975L100.128 107.854ZM78.0985 105.467L65.839 107.672L65.839 107.672L78.0985 105.467ZM90.1436 83.2212L93.614 95.1841L93.614 95.1841L90.1436 83.2212ZM112.476 91.67H100.02L123.651 97.1726L112.476 91.67ZM124.073 87.9796L121.426 100.151L125.475 101.032L129.244 99.3117L124.073 87.9796ZM202.882 88.5159L200.43 100.728L200.43 100.728L202.882 88.5159ZM264.088 90.7987L268.995 102.248L268.995 102.248L264.088 90.7987ZM372.456 106.948L365.497 117.279L369.439 119.934L374.149 119.289L372.456 106.948ZM392.53 109.014L395.952 97.0366L395.952 97.0366L392.53 109.014ZM415.403 149.481V161.938H425.129L427.488 152.503L415.403 149.481ZM414.401 149.481V137.025H391.232L404.011 156.352L414.401 149.481ZM424.2 166.456L435.341 160.885L435.341 160.885L424.2 166.456ZM390.77 389.909L398.457 399.71L398.457 399.71L390.77 389.909ZM75.8244 377.592L65.7265 384.885L65.7265 384.885L75.8244 377.592ZM73.3455 276.048L61.9597 270.997L61.9597 270.997L73.3455 276.048ZM84.5475 192.074L96.8319 190.012L96.8319 190.012L84.5475 192.074ZM81.048 120.31L100.128 120.31L100.128 95.3975L81.0479 95.3976L81.048 120.31ZM65.839 107.672C67.246 115.496 74.0867 120.31 81.048 120.31L81.0479 95.3976C85.143 95.3976 89.4582 98.26 90.3579 103.263L65.839 107.672ZM86.6731 71.2583C76.8538 74.1069 70.35 80.2745 67.2491 88.1771C64.44 95.3362 64.9294 102.614 65.839 107.672L90.3579 103.263C89.8327 100.342 90.0268 98.3299 90.44 97.2769C90.5946 96.8828 90.7676 96.6425 91.0164 96.4208C91.2806 96.1854 91.9886 95.6556 93.614 95.1841L86.6731 71.2583ZM124.932 91.67C124.932 76.39 106.918 65.3852 86.6731 71.2583L93.614 95.1841C98.5394 93.7552 100.485 94.8404 100.733 94.9866C100.989 95.1378 100.967 95.2042 100.811 94.9725C100.734 94.8578 100.572 94.5926 100.412 94.1423C100.266 93.7335 100.02 92.886 100.02 91.67H124.932ZM126.719 75.8078C115.829 73.4399 105.542 77.5551 101.301 86.1675L123.651 97.1726C122.769 98.9631 121.584 99.6657 121.021 99.8978C120.31 100.192 120.292 99.9047 121.426 100.151L126.719 75.8078ZM205.335 76.3036C192.07 73.6397 177.314 70.6546 162.855 69.808C148.321 68.9569 133.076 70.18 118.902 76.6474L129.244 99.3117C138.338 95.1619 149.062 93.9552 161.399 94.6776C173.81 95.4044 186.825 97.9961 200.43 100.728L205.335 76.3036ZM259.181 79.3497C253.937 81.597 246.828 82.3231 237.27 81.5538C227.747 80.7872 217.181 78.6824 205.335 76.3036L200.43 100.728C211.914 103.034 224.001 105.479 235.272 106.386C246.509 107.29 258.337 106.815 268.995 102.248L259.181 79.3497ZM379.416 96.6174C341.347 70.9714 295.104 63.9543 259.181 79.3497L268.995 102.248C295.469 90.9013 332.792 95.2461 365.497 117.279L379.416 96.6174ZM395.952 97.0366C386.476 94.3294 378.083 93.6038 370.764 94.6073L374.149 119.289C377.325 118.853 382.177 119.01 389.108 120.99L395.952 97.0366ZM427.488 152.503C429.621 143.967 430.49 132.668 426.042 121.866C421.328 110.418 411.439 101.461 395.952 97.0366L389.108 120.99C398.254 123.603 401.561 127.843 403.006 131.351C404.716 135.503 404.704 140.92 403.319 146.46L427.488 152.503ZM414.401 161.938H415.403V137.025H414.401V161.938ZM435.341 160.885C432.129 154.461 428.598 148.368 424.792 142.611L404.011 156.352C407.266 161.274 410.295 166.499 413.059 172.026L435.341 160.885ZM398.457 399.71C445.891 362.507 465.076 320.97 466.777 278.683C468.445 237.218 453.219 196.641 435.341 160.885L413.059 172.026C430.37 206.649 443.296 242.61 441.885 277.682C440.507 311.932 425.382 346.932 383.083 380.108L398.457 399.71ZM65.7265 384.885C75.0831 397.841 93.5695 410.596 116.05 421.109C138.99 431.836 167.67 440.966 199.059 445.788C261.702 455.411 336.804 448.065 398.457 399.71L383.083 380.108C328.533 422.892 261.135 430.119 202.842 421.165C173.763 416.698 147.366 408.252 126.603 398.542C105.381 388.618 91.5384 378.076 85.9223 370.299L65.7265 384.885ZM61.9597 270.997C55.4113 285.756 47.6944 302.864 46.1043 321.82C44.4495 341.547 49.4138 362.299 65.7265 384.885L85.9223 370.299C72.791 352.118 69.8137 337.203 70.9294 323.903C72.1097 309.832 77.8753 296.552 84.7312 281.1L61.9597 270.997ZM75.6846 224.518C75.6846 239.618 69.5834 253.814 61.9597 270.997L84.7312 281.1C91.9507 264.828 100.597 245.786 100.597 224.518H75.6846ZM72.2632 194.135C74.0832 204.98 75.6846 214.69 75.6846 224.518H100.597C100.597 212.276 98.5976 200.533 96.8319 190.012L72.2632 194.135ZM90.4148 100.056C76.6321 117.226 70.6626 133.817 69.0317 150.1C67.4504 165.887 70.0458 180.923 72.2632 194.135L96.8319 190.012C94.5274 176.281 92.6246 164.516 93.8199 152.583C94.9656 141.145 99.0474 129.098 109.842 115.651L90.4148 100.056Z" fill="white" mask="url(#path-1-outside-1_39_2975)"/>
<path d="M262.862 87.9361C253.819 91.8116 242.346 91.8308 229.07 90.0541C220.919 88.9632 212.446 87.2603 203.671 85.4965C198.072 84.3712 192.35 83.2211 186.51 82.1893C157.141 77.0013 125.789 75.0393 103.448 99.2425C81.7174 122.784 77.0799 144.204 77.9925 164.921C78.4054 174.294 79.9547 183.521 81.4725 192.562C81.6092 193.376 81.7455 194.188 81.8808 194.998C83.5312 204.89 85.0274 214.6 85.0274 224.518C85.0274 236.689 81.5662 248.241 76.8935 259.896C74.9046 264.856 72.7199 269.781 70.504 274.775C70.1149 275.652 69.7248 276.532 69.3346 277.414C66.7347 283.291 64.142 289.268 61.905 295.364C57.4275 307.565 54.3094 320.409 55.3448 334.358C56.383 348.345 61.5764 363.182 73.3006 379.415C81.2545 390.428 97.9995 402.354 120.008 412.646C142.132 422.992 169.956 431.865 200.478 436.554C261.49 445.926 333.703 438.625 392.692 392.359C438.201 356.666 455.863 317.58 457.443 278.307C459.015 239.239 444.651 200.394 426.986 165.063C391.21 93.5108 313.934 66.048 262.862 87.9361Z" fill="#FFD568" stroke="black" stroke-width="6.22806" stroke-linecap="round" stroke-linejoin="round"/>
<path d="M341.757 196.94L418.398 196.939C418.398 174.774 385.259 187.646 384.728 189.23C385.482 186.981 382.466 180.556 377.943 178.629C371.912 176.059 368.394 178.95 367.389 181.52C367.389 177.665 362.1 169.229 350.487 173.47C339.933 177.325 340.249 189.23 341.757 196.94Z" fill="#FF9776" fill-opacity="0.5"/>
<path d="M109.59 170.379C108.034 170.379 106.717 171.526 106.505 173.067L95.6146 251.956C95.5951 252.098 95.5853 252.24 95.5853 252.382V254.429C95.5853 256.148 96.9795 257.543 98.6993 257.543H330.657C331.636 257.543 332.559 257.082 333.147 256.299L355.297 226.809H362.62C363.486 226.809 364.314 226.448 364.903 225.813C365.492 225.178 365.79 224.326 365.725 223.462L361.961 173.26C361.839 171.635 360.485 170.379 358.855 170.379H109.59Z" fill="#F8F9FA" stroke="#212529" stroke-width="6.22806" stroke-linejoin="round"/>
<path d="M345.023 192.63H309.833" stroke="#FFC148" stroke-width="3.11403" stroke-linecap="round" stroke-linejoin="round"/>
<path d="M345.023 198.126H309.833" stroke="#FFC148" stroke-width="3.11403" stroke-linecap="round" stroke-linejoin="round"/>
<g filter="url(#filter0_i_39_2975)">
<path d="M419.474 223.6L374.935 338.882H100.457L88.5635 253.574H329.553L351.134 223.6H419.474Z" fill="#228BE6"/>
</g>
<path d="M374.935 341.996C376.222 341.996 377.376 341.204 377.84 340.004L422.379 224.723C422.749 223.765 422.623 222.686 422.042 221.839C421.462 220.992 420.501 220.486 419.474 220.486H351.134C350.132 220.486 349.192 220.968 348.607 221.781L327.957 250.46H88.5635C87.6626 250.46 86.8058 250.85 86.2144 251.53C85.623 252.209 85.3549 253.112 85.4793 254.004L97.373 339.312C97.5875 340.851 98.9035 341.996 100.457 341.996H374.935Z" stroke="black" stroke-width="6.22806" stroke-linecap="round" stroke-linejoin="round"/>
<path fill-rule="evenodd" clip-rule="evenodd" d="M310.865 280.531H312.581L312.578 274.083H310.515C309.54 274.083 308.764 274.255 308.181 274.855C307.598 275.455 307.107 276.266 307.107 277.24C307.107 279.586 308.494 280.531 310.865 280.531V280.531ZM312.533 271.496L312.528 267.037H315.738V283.1H315.525H310.077C308.26 283.1 306.806 282.577 305.715 281.53C304.624 280.484 304.078 279.056 304.078 277.247C304.078 276.176 304.332 275.203 304.839 274.327C305.346 273.451 306.044 272.763 306.931 272.264C307.82 271.766 308.789 271.496 309.819 271.496H312.533ZM297.592 271.514C298.809 271.514 299.961 271.914 300.686 272.713C301.413 273.513 301.776 274.565 301.776 275.871V283.098H298.614V276.175C298.614 275.437 298.403 275.029 298.05 274.599C297.697 274.169 297.251 274.042 296.643 274.042C296.181 274.042 295.747 274.178 295.341 274.45C295.337 274.453 295.333 274.456 295.329 274.458C294.478 275.035 294.003 276.027 294.003 277.055V283.098H290.829V271.51H294.003V273.147C294.554 272.498 295.091 272.147 295.67 271.867C296.251 271.587 296.911 271.514 297.592 271.514V271.514ZM284.385 268.214H287.612V264.987H284.385V268.214ZM284.382 283.1H287.614V271.443H284.382V283.1ZM264.508 268.214H267.863L272.831 274.361L277.799 268.214H281.153V283.098H278.096V272.325L272.852 278.683H272.767L267.566 272.389V283.098H264.508V268.214ZM252.425 275.178L247.193 268.214H251.015L254.454 272.903L257.893 268.214H261.716L256.483 275.136L262.415 283.098H258.588L254.454 277.469L250.305 283.098H246.493L252.425 275.178Z" fill="white"/>
<rect x="137.81" y="131.669" width="30.8607" height="37.8986" fill="#CED4DA" stroke="#212529" stroke-width="6.22806" stroke-linejoin="round"/>
<rect x="126.85" y="194.607" width="24.6326" height="24.6326" fill="#DBE4FF"/>
<rect x="155.001" y="194.607" width="24.6326" height="24.6326" fill="#DBE4FF"/>
<rect x="183.152" y="194.607" width="24.6326" height="24.6326" fill="#DBE4FF"/>
<rect x="218.343" y="194.607" width="73.8978" height="24.6326" fill="#DBE4FF"/>
<path d="M221.862 219.24L232.419 194.607H239.456L228.9 219.24H221.862Z" fill="white" fill-opacity="0.5"/>
<path d="M232.417 219.24L242.974 194.607H257.05L246.493 219.24H232.417Z" fill="white" fill-opacity="0.5"/>
<g style="mix-blend-mode:multiply">
<rect x="140.924" y="134.783" width="7.03789" height="31.6705" fill="#DEE2E6"/>
</g>
<mask id="mask0_39_2975" style="mask-type:alpha" maskUnits="userSpaceOnUse" x="57" y="82" width="397" height="355">
<path d="M263.435 90.774C224.023 107.665 147.31 55.5843 105.083 101.33C62.8554 147.076 87.4879 183.674 87.4879 224.494C87.4879 275.518 29.4254 314.227 75.1716 377.568C105.117 419.031 273.914 481.023 390.117 389.884C479.85 319.505 458.736 236.81 423.547 166.431C388.358 96.0522 312.7 69.6603 263.435 90.774Z" fill="#68FFF6"/>
</mask>
<g mask="url(#mask0_39_2975)">
<path d="M99.6462 301.122C99.6462 301.122 93.4182 317.108 76.291 320.222C59.1638 323.336 50.4744 317.767 49.4348 294.894L56.4727 449.728L404.848 462.044C437.105 417.471 494.229 328.324 464.67 328.324C435.111 328.324 424.202 306.401 424.202 306.401C424.202 306.401 421.705 328.324 393.922 328.324C366.139 328.324 364.339 303.287 364.339 303.287C364.339 303.287 354.997 326.45 328.528 324.805C306.05 323.409 298.944 300.173 298.944 300.173C298.944 300.173 287.667 324.805 262.331 324.805C236.994 324.805 236.664 301.122 236.664 301.122C236.664 301.122 227.219 323.336 202.409 323.336C177.6 323.336 170.838 298.008 170.838 298.008C170.838 298.008 156.542 325.911 135.458 324.805C107.431 323.336 99.6462 301.122 99.6462 301.122Z" fill="#80D1FF" stroke="black" stroke-width="6.22806" stroke-linecap="round" stroke-linejoin="round"/>
<path d="M174.356 97.8349C143.389 104.873 139.167 125.4 140.926 134.784H165.559C170.251 130.678 187.024 122.116 216.583 120.708C246.143 119.3 261.743 89.624 265.849 74.9618L211.305 60.886C211.892 70.2698 205.323 90.797 174.356 97.8349Z" fill="white" fill-opacity="0.3"/>
<path d="M87.0669 366.869C105.874 365.377 119.764 348.713 119.764 348.713C119.764 348.713 129.157 372.591 152.703 372.591C176.248 372.591 189.984 348.713 189.984 348.713C189.984 348.713 199.241 372.591 223.34 372.591C247.44 372.591 259.811 351.827 259.811 351.827C259.811 351.827 266.946 372.591 289.601 372.591C309.223 372.591 321.448 353.958 321.448 353.958C321.448 353.958 330.57 372.591 352.842 370.842C375.115 369.094 384.237 353.958 384.237 353.958C384.237 353.958 394.832 372.591 429.366 372.591C463.9 372.591 472.533 344.616 472.533 344.616C472.533 344.616 484.699 372.591 517.663 372.591C550.627 372.591 486.923 461.178 450.95 505.471L62.4437 493.232C62.4437 493.232 55.5341 357.779 54.5968 339.405C54.5962 339.393 54.5956 339.382 54.595 339.371C54.451 336.548 54.4639 336.799 54.5968 339.405C55.767 362.106 68.2698 368.359 87.0669 366.869Z" fill="#65C8FF"/>
<path d="M87.0669 366.869C105.874 365.377 119.764 348.713 119.764 348.713C119.764 348.713 129.157 372.591 152.703 372.591C176.248 372.591 189.984 348.713 189.984 348.713C189.984 348.713 199.241 372.591 223.34 372.591C247.44 372.591 259.811 351.827 259.811 351.827C259.811 351.827 266.946 372.591 289.601 372.591C309.223 372.591 321.448 353.958 321.448 353.958C321.448 353.958 330.57 372.591 352.842 370.842C375.115 369.094 384.237 353.958 384.237 353.958C384.237 353.958 394.832 372.591 429.366 372.591C463.9 372.591 472.533 344.616 472.533 344.616C472.533 344.616 484.699 372.591 517.663 372.591C550.627 372.591 486.923 461.178 450.95 505.471L62.4437 493.232C62.4437 493.232 53.4356 316.641 54.595 339.371C55.7545 362.1 68.2603 368.36 87.0669 366.869Z" stroke="black" stroke-width="6.22806" stroke-linecap="round" stroke-linejoin="round"/>
</g>
<path d="M264.494 149.481C264.494 151.201 265.888 152.595 267.608 152.595L415.404 152.595C416.833 152.595 418.078 151.623 418.425 150.236C420.278 142.824 420.825 133.731 417.404 125.422C413.916 116.952 406.495 109.764 393.386 106.019C379.32 102 369.188 103.22 362.41 106.89C358.476 109.02 355.735 111.962 354.141 115.005C349.165 111.278 340.878 109.459 329.965 113.097C323.937 115.105 319.048 119.391 315.905 123.663C314.326 125.809 313.108 128.057 312.407 130.16C312.377 130.249 312.348 130.339 312.32 130.43C311.054 129.971 309.582 129.512 307.97 129.082C303.258 127.828 297.078 126.762 290.88 126.796C284.739 126.829 278.193 127.943 273.1 131.423C267.804 135.041 264.494 140.933 264.494 149.481Z" fill="#FF9776" stroke="black" stroke-width="6.22806" stroke-linecap="round" stroke-linejoin="round"/>
<path d="M182.991 107.853C182.991 109.573 181.597 110.967 179.877 110.967L78.6079 110.968C77.1749 110.968 75.9268 109.99 75.5842 108.598C74.5332 104.329 73.7938 98.5438 75.416 93.1267C77.112 87.4633 81.2974 82.545 89.2763 80.2303C101.586 76.6594 110.128 80.9247 113.707 86.1644C116.952 84.3293 121.678 83.7423 127.42 85.6856C131.164 86.9528 134.143 89.6262 136.041 92.2448C136.748 93.2202 137.347 94.2459 137.793 95.2646C138.948 94.8715 140.312 94.4557 141.822 94.0474C146.169 92.8717 151.923 91.7071 157.704 91.3522C163.403 91.0024 169.539 91.4101 174.373 93.7343C176.843 94.9217 179.041 96.6432 180.609 99.0673C182.181 101.499 182.991 104.44 182.991 107.853Z" fill="#FF9776" stroke="black" stroke-width="6.22806" stroke-linecap="round" stroke-linejoin="round"/>
<path d="M228.9 124.228C214.946 126.553 202.508 125.987 184.913 134.785C211.305 129.506 216.583 133.025 227.14 131.266C237.697 129.506 244.735 121.882 246.495 115.43C243.562 118.363 239.457 122.468 228.9 124.228Z" fill="white" fill-opacity="0.3"/>
<circle cx="362.62" cy="233.314" r="3.51894" fill="white"/>
<circle cx="376.694" cy="233.314" r="3.51894" fill="white"/>
<circle cx="390.771" cy="233.314" r="3.51894" fill="white"/>
<path fill-rule="evenodd" clip-rule="evenodd" d="M133.731 280.132C142.182 280.132 149.033 273.281 149.033 264.83C149.033 256.379 142.182 249.528 133.731 249.528C125.28 249.528 118.43 256.379 118.43 264.83C118.43 273.281 125.28 280.132 133.731 280.132ZM133.808 274.011C138.836 274.011 142.912 269.935 142.912 264.906C142.912 259.878 138.836 255.802 133.808 255.802C128.78 255.802 124.703 259.878 124.703 264.906C124.703 269.935 128.78 274.011 133.808 274.011Z" fill="#FFC148"/>
<path fill-rule="evenodd" clip-rule="evenodd" d="M126.234 251.487C130.83 248.901 136.477 248.876 141.093 251.411L136.303 256.201C134.573 255.693 132.721 255.71 130.998 256.251L126.234 251.487ZM120.469 257.191C117.803 261.812 117.751 267.528 120.313 272.192L124.996 267.509C124.456 265.668 124.509 263.69 125.155 261.876L120.469 257.191ZM136.792 273.514C134.712 274.254 132.417 274.215 130.361 273.397L125.823 277.934C130.581 280.81 136.568 280.863 141.371 278.093L136.792 273.514ZM147.075 272.328C149.764 267.549 149.684 261.633 146.836 256.922L142.192 261.566C142.967 263.516 143.043 265.679 142.418 267.671L147.075 272.328ZM122.912 275.65C122.857 275.595 122.803 275.541 122.75 275.485L123.076 275.812C123.021 275.758 122.966 275.704 122.912 275.65Z" fill="white"/>
<path fill-rule="evenodd" clip-rule="evenodd" d="M138.162 256.907C136.868 256.201 135.385 255.8 133.807 255.8C128.779 255.8 124.703 259.876 124.703 264.904C124.703 266.421 125.074 267.852 125.73 269.109C127.238 272 130.252 273.98 133.731 274.008C133.756 274.009 133.782 274.009 133.807 274.009C138.835 274.009 142.912 269.933 142.912 264.904C142.912 264.879 142.911 264.853 142.911 264.827C142.883 261.409 140.971 258.44 138.162 256.907ZM155.261 264.827C155.261 276.718 145.622 286.357 133.731 286.357C121.841 286.357 112.202 276.718 112.202 264.827C112.202 252.937 121.841 243.297 133.731 243.297C145.622 243.297 155.261 252.937 155.261 264.827ZM133.807 267.781C135.396 267.781 136.683 266.493 136.683 264.904C136.683 263.316 135.396 262.028 133.807 262.028C132.218 262.028 130.931 263.316 130.931 264.904C130.931 266.493 132.218 267.781 133.807 267.781ZM120.221 272.018C122.795 276.844 127.879 280.129 133.731 280.129C133.757 280.129 133.782 280.129 133.807 280.129C142.197 280.088 148.991 273.294 149.033 264.904C149.033 264.879 149.033 264.853 149.033 264.827C149.033 259.077 145.861 254.068 141.172 251.453C138.969 250.225 136.432 249.525 133.731 249.525C125.28 249.525 118.43 256.376 118.43 264.827C118.43 267.426 119.078 269.874 120.221 272.018Z" fill="black"/>
<defs>
<filter id="filter0_i_39_2975" x="82.3354" y="217.372" width="343.367" height="127.738" filterUnits="userSpaceOnUse" color-interpolation-filters="sRGB">
<feFlood flood-opacity="0" result="BackgroundImageFix"/>
<feBlend mode="normal" in="SourceGraphic" in2="BackgroundImageFix" result="shape"/>
<feColorMatrix in="SourceAlpha" type="matrix" values="0 0 0 0 0 0 0 0 0 0 0 0 0 0 0 0 0 0 127 0" result="hardAlpha"/>
<feOffset dx="-6.22806"/>
<feComposite in2="hardAlpha" operator="arithmetic" k2="-1" k3="1"/>
<feColorMatrix type="matrix" values="0 0 0 0 0.12 0 0 0 0 0.484286 0 0 0 0 0.8 0 0 0 1 0"/>
<feBlend mode="normal" in2="shape" result="effect1_innerShadow_39_2975"/>
</filter>
</defs>
</svg>
