<svg width="512" height="512" viewBox="0 0 512 512" fill="none" xmlns="http://www.w3.org/2000/svg">
<mask id="path-1-outside-1_39_2746" maskUnits="userSpaceOnUse" x="38.8473" y="65.5391" width="438" height="389" fill="black">
<rect fill="white" x="38.8473" y="65.5391" width="438" height="389"/>
<path fill-rule="evenodd" clip-rule="evenodd" d="M195.838 108.934C219.287 103.544 247.654 97.0235 285.53 85.9518C362.259 63.5235 406.034 103.539 428.871 150.046H445.941C446.831 150.046 447.691 150.367 448.364 150.949L461.75 162.532C463.457 164.009 463.457 166.655 461.75 168.132L448.364 179.715C447.691 180.298 446.831 180.618 445.941 180.618H440.887C442.415 185.597 443.734 190.512 444.86 195.295C447.294 205.641 449.859 219.182 451.651 234.603L454.599 237.155C456.305 238.631 456.305 241.278 454.599 242.754L452.657 244.434C454.757 268.126 454.784 295.28 449.878 321.745V346.272C449.878 353.207 444.988 359 438.468 360.39C426.062 389.475 404.861 414.74 370.214 429.438C317.194 451.932 270.205 438.809 213.446 422.958L213.445 422.957C194.955 417.794 175.428 412.34 154.318 407.734C135.055 403.531 118.452 395.568 104.581 384.696H91.0849C91.6512 385.668 91.9757 386.798 91.9757 388.004C91.9757 391.636 89.0313 394.58 85.3993 394.58C81.7672 394.58 78.8228 391.636 78.8228 388.004C78.8228 386.798 79.1473 385.668 79.7136 384.696H74.9865C71.5357 384.696 68.7383 381.899 68.7383 378.448V339.238C54.9902 310.44 50.0617 275.459 54.3471 239.033C61.506 178.182 88.7119 143.748 127.763 128.127C148.604 119.791 169.001 115.103 195.838 108.934Z"/>
</mask>
<path fill-rule="evenodd" clip-rule="evenodd" d="M195.838 108.934C219.287 103.544 247.654 97.0235 285.53 85.9518C362.259 63.5235 406.034 103.539 428.871 150.046H445.941C446.831 150.046 447.691 150.367 448.364 150.949L461.75 162.532C463.457 164.009 463.457 166.655 461.75 168.132L448.364 179.715C447.691 180.298 446.831 180.618 445.941 180.618H440.887C442.415 185.597 443.734 190.512 444.86 195.295C447.294 205.641 449.859 219.182 451.651 234.603L454.599 237.155C456.305 238.631 456.305 241.278 454.599 242.754L452.657 244.434C454.757 268.126 454.784 295.28 449.878 321.745V346.272C449.878 353.207 444.988 359 438.468 360.39C426.062 389.475 404.861 414.74 370.214 429.438C317.194 451.932 270.205 438.809 213.446 422.958L213.445 422.957C194.955 417.794 175.428 412.34 154.318 407.734C135.055 403.531 118.452 395.568 104.581 384.696H91.0849C91.6512 385.668 91.9757 386.798 91.9757 388.004C91.9757 391.636 89.0313 394.58 85.3993 394.58C81.7672 394.58 78.8228 391.636 78.8228 388.004C78.8228 386.798 79.1473 385.668 79.7136 384.696H74.9865C71.5357 384.696 68.7383 381.899 68.7383 378.448V339.238C54.9902 310.44 50.0617 275.459 54.3471 239.033C61.506 178.182 88.7119 143.748 127.763 128.127C148.604 119.791 169.001 115.103 195.838 108.934Z" fill="#A3D3FF"/>
<path d="M285.53 85.9518L289.201 98.5101L289.201 98.5101L285.53 85.9518ZM195.838 108.934L192.907 96.1826L192.907 96.1826L195.838 108.934ZM428.871 150.046L417.126 155.813L420.719 163.13H428.871V150.046ZM448.364 150.949L456.925 141.055L456.925 141.055L448.364 150.949ZM461.75 162.532L453.189 172.426L453.189 172.426L461.75 162.532ZM461.75 168.132L453.189 158.238L453.189 158.238L461.75 168.132ZM448.364 179.715L456.925 189.609L456.925 189.609L448.364 179.715ZM440.887 180.618V167.534H423.186L428.379 184.456L440.887 180.618ZM444.86 195.295L432.124 198.292L432.124 198.292L444.86 195.295ZM451.651 234.603L438.654 236.113L439.241 241.167L443.089 244.497L451.651 234.603ZM454.599 237.155L446.038 247.049L446.038 247.049L454.599 237.155ZM454.599 242.754L446.038 232.86L446.038 232.86L454.599 242.754ZM452.657 244.434L444.096 234.54L439.034 238.921L439.625 245.589L452.657 244.434ZM449.878 321.745L437.013 319.36L436.794 320.543V321.745H449.878ZM438.468 360.39L435.739 347.594L429.097 349.011L426.433 355.257L438.468 360.39ZM370.214 429.438L375.324 441.483L375.324 441.483L370.214 429.438ZM213.446 422.958L208.974 435.254L209.445 435.425L209.927 435.559L213.446 422.958ZM213.445 422.957L217.917 410.661L217.446 410.49L216.965 410.356L213.445 422.957ZM154.318 407.734L151.529 420.517L151.529 420.517L154.318 407.734ZM104.581 384.696L112.652 374.399L109.097 371.613H104.581V384.696ZM91.0849 384.696V371.613H68.3136L79.7814 391.285L91.0849 384.696ZM79.7136 384.696L91.0171 391.285L102.485 371.613H79.7136V384.696ZM68.7383 339.238H81.822V336.275L80.5456 333.601L68.7383 339.238ZM54.3471 239.033L41.353 237.504L54.3471 239.033ZM127.763 128.127L132.622 140.275L132.622 140.275L127.763 128.127ZM281.86 73.3936C244.369 84.3523 216.313 90.8024 192.907 96.1826L198.769 121.685C222.261 116.285 250.938 109.695 289.201 98.5101L281.86 73.3936ZM440.615 144.279C428.471 119.547 410.245 95.4451 383.771 80.7151C356.921 65.7758 323.115 61.3342 281.86 73.3936L289.201 98.5101C324.674 88.1411 351.12 92.4932 371.049 103.581C391.354 114.879 406.434 134.038 417.126 155.813L440.615 144.279ZM445.941 136.963H428.871V163.13H445.941V136.963ZM456.925 141.055C453.874 138.415 449.975 136.963 445.941 136.963V163.13C443.686 163.13 441.507 162.318 439.803 160.843L456.925 141.055ZM470.312 152.639L456.925 141.055L439.802 160.843L453.189 172.426L470.312 152.639ZM470.312 178.026C478.048 171.332 478.048 159.333 470.312 152.639L453.189 172.426C448.865 168.685 448.865 161.979 453.189 158.238L470.312 178.026ZM456.925 189.609L470.312 178.026L453.189 158.238L439.802 169.821L456.925 189.609ZM445.941 193.702C449.975 193.702 453.874 192.249 456.925 189.609L439.803 169.821C441.507 168.346 443.687 167.534 445.941 167.534V193.702ZM440.887 193.702H445.941V167.534H440.887V193.702ZM457.596 192.299C456.406 187.243 455.011 182.047 453.395 176.78L428.379 184.456C429.818 189.147 431.062 193.781 432.124 198.292L457.596 192.299ZM464.647 233.094C462.794 217.14 460.138 203.102 457.596 192.299L432.124 198.292C434.45 208.18 436.925 221.224 438.654 236.113L464.647 233.094ZM463.16 227.261L460.212 224.709L443.089 244.497L446.038 247.049L463.16 227.261ZM463.16 252.648C470.897 245.954 470.897 233.955 463.16 227.261L446.038 247.049C441.714 243.307 441.714 236.601 446.038 232.86L463.16 252.648ZM461.219 254.328L463.16 252.648L446.038 232.86L444.096 234.54L461.219 254.328ZM462.742 324.13C467.928 296.161 467.859 267.754 465.69 243.279L439.625 245.589C441.655 268.498 441.641 294.399 437.013 319.36L462.742 324.13ZM462.962 346.272V321.745H436.794V346.272H462.962ZM441.197 373.186C453.63 370.534 462.962 359.508 462.962 346.272H436.794C436.794 346.906 436.345 347.465 435.739 347.594L441.197 373.186ZM375.324 441.483C413.544 425.268 436.978 397.231 450.503 365.523L426.433 355.257C415.146 381.719 396.178 404.211 365.105 417.394L375.324 441.483ZM209.927 435.559C266.047 451.232 317.481 466.023 375.324 441.483L365.105 417.394C316.908 437.841 274.363 426.386 216.965 410.356L209.927 435.559ZM208.974 435.253L208.974 435.254L217.917 410.662L217.917 410.661L208.974 435.253ZM151.529 420.517C172.218 425.031 191.398 430.385 209.926 435.559L216.965 410.356C198.513 405.203 178.638 399.649 157.107 394.951L151.529 420.517ZM96.5098 394.994C111.969 407.111 130.387 415.904 151.529 420.517L157.107 394.951C139.723 391.158 124.935 384.026 112.652 374.399L96.5098 394.994ZM91.0849 397.78H104.581V371.613H91.0849V397.78ZM105.059 388.004C105.059 384.421 104.089 381.025 102.388 378.107L79.7814 391.285C79.2134 390.311 78.8919 389.175 78.8919 388.004H105.059ZM85.3993 407.664C96.2573 407.664 105.059 398.862 105.059 388.004H78.8919C78.8919 384.41 81.8053 381.496 85.3993 381.496V407.664ZM65.7391 388.004C65.7391 398.862 74.5412 407.664 85.3993 407.664V381.496C88.9932 381.496 91.9066 384.41 91.9066 388.004H65.7391ZM68.4102 378.107C66.7094 381.025 65.7391 384.421 65.7391 388.004H91.9066C91.9066 389.175 91.5851 390.311 91.0171 391.285L68.4102 378.107ZM74.9865 397.78H79.7136V371.613H74.9865V397.78ZM55.6545 378.448C55.6545 389.125 64.3097 397.78 74.9865 397.78V371.613C78.7616 371.613 81.822 374.673 81.822 378.448H55.6545ZM55.6545 339.238V378.448H81.822V339.238H55.6545ZM41.353 237.504C36.8279 275.967 41.952 313.498 56.931 344.874L80.5456 333.601C68.0284 307.381 63.2955 274.951 67.3413 240.562L41.353 237.504ZM122.904 115.979C78.5294 133.729 48.9534 172.9 41.353 237.504L67.3413 240.562C74.0585 183.465 98.8944 153.767 132.622 140.275L122.904 115.979ZM192.907 96.1826C166.259 102.308 144.85 107.201 122.904 115.979L132.622 140.275C152.359 132.381 171.742 127.897 198.769 121.685L192.907 96.1826Z" fill="white" mask="url(#path-1-outside-1_39_2746)"/>
<path d="M285.53 85.9516C204.303 109.695 166.814 112.507 127.762 128.127C88.7112 143.748 61.5052 178.182 54.3464 239.033C44.9741 318.698 79.6725 391.448 154.317 407.734C240.23 426.479 299.921 459.259 370.214 429.438C473.309 385.701 457.355 248.405 444.859 195.295C430.892 135.937 387.063 56.2726 285.53 85.9516Z" fill="#FFE066"/>
<path fill-rule="evenodd" clip-rule="evenodd" d="M194.36 102.562C217.798 97.1741 246.004 90.6906 283.693 79.6737C336.582 64.2138 375.336 77.1866 402.487 102.446C429.21 127.308 444.092 163.479 451.226 193.798C457.577 220.789 464.863 269.315 457.344 316.903C449.807 364.603 427.153 412.389 372.768 435.462C336.003 451.059 302.063 450.178 266.853 443.217C249.339 439.755 231.381 434.76 212.65 429.529L211.746 429.277C193.218 424.102 173.846 418.692 152.922 414.127C73.7956 396.863 38.2439 319.907 47.8482 238.27C55.2279 175.542 83.6188 138.74 125.332 122.054C145.387 114.032 164.987 109.327 189.36 103.712C191.003 103.333 192.669 102.95 194.36 102.562ZM195.836 108.935C219.285 103.545 247.652 97.0246 285.529 85.9529C387.062 56.2739 430.891 135.939 444.858 195.296C457.354 248.406 473.308 385.702 370.213 429.439C317.192 451.933 270.203 438.81 213.444 422.959C194.954 417.795 175.426 412.341 154.316 407.735C79.6714 391.449 44.973 318.699 54.3453 239.034C61.5041 178.183 88.7101 143.749 127.761 128.128C148.602 119.792 168.999 115.104 195.836 108.935Z" fill="black"/>
<path d="M162.46 174.824C137.017 187.16 129.717 228.767 162.46 243.554C210.883 265.422 317.704 251.854 346.781 240.43C390.519 223.247 397.183 194.182 393.643 162.327C388.957 120.152 343.657 114.521 295.234 120.152C242.124 126.329 214.008 149.831 162.46 174.824Z" fill="white" fill-opacity="0.1"/>
<path d="M188.826 291.573C123.809 291.573 115.6 251.532 115.6 221.686C115.6 198.123 73.7124 193.45 68.951 241.306C64.8875 282.148 119.746 363.833 168.508 363.832C249.78 363.832 270.098 291.573 188.826 291.573Z" fill="white" fill-opacity="0.19"/>
<path fill-rule="evenodd" clip-rule="evenodd" d="M389.851 135.014C391.991 135.014 393.727 136.749 393.727 138.89L393.727 388.827C393.727 390.967 391.992 392.703 389.851 392.703C387.71 392.703 385.974 390.967 385.974 388.827L385.974 138.89C385.974 136.749 387.71 135.014 389.851 135.014Z" fill="#FFF4E6"/>
<path d="M372.43 387.846C372.43 384.775 374.919 382.286 377.99 382.286H400.643C403.713 382.286 406.202 384.775 406.202 387.846C406.202 390.916 403.713 393.405 400.643 393.405H377.99C374.919 393.405 372.43 390.916 372.43 387.846Z" fill="#FFF4E6"/>
<path d="M445.937 150.049H393.618C391.574 150.049 389.916 151.707 389.916 153.752L389.916 176.919C389.916 178.963 391.574 180.621 393.618 180.621H445.937C446.827 180.621 447.687 180.301 448.36 179.718L461.746 168.135C463.453 166.658 463.453 164.012 461.746 162.535L448.36 150.952C447.687 150.37 446.827 150.049 445.937 150.049Z" fill="#FFF4E6"/>
<path fill-rule="evenodd" clip-rule="evenodd" d="M401.543 165.287C401.543 163.652 402.869 162.325 404.505 162.325H434.505C436.14 162.325 437.466 163.652 437.466 165.287C437.466 166.923 436.14 168.249 434.505 168.249H404.505C402.869 168.249 401.543 166.923 401.543 165.287Z" fill="#FF9A61"/>
<path d="M438.786 224.671H393.619C391.574 224.671 389.916 226.329 389.916 228.373L389.916 251.54C389.916 253.585 391.574 255.243 393.618 255.243H438.786C439.675 255.243 440.535 254.922 441.208 254.34L454.595 242.757C456.301 241.28 456.301 238.634 454.595 237.157L441.208 225.574C440.535 224.991 439.675 224.671 438.786 224.671Z" fill="#FFF4E6"/>
<path fill-rule="evenodd" clip-rule="evenodd" d="M401.543 239.908C401.543 238.272 402.869 236.946 404.505 236.946H425.125C426.761 236.946 428.087 238.272 428.087 239.908C428.087 241.544 426.761 242.87 425.125 242.87H404.505C402.869 242.87 401.543 241.544 401.543 239.908Z" fill="#9462FF"/>
<path d="M343.958 217.05L385.549 217.05C387.594 217.05 389.252 215.392 389.252 213.347L389.252 190.18C389.252 188.136 387.594 186.478 385.55 186.478L343.958 186.478C343.068 186.478 342.208 186.798 341.535 187.381L328.149 198.964C326.442 200.441 326.442 203.087 328.149 204.564L341.535 216.147C342.208 216.729 343.068 217.05 343.958 217.05Z" fill="#FFF4E6"/>
<path fill-rule="evenodd" clip-rule="evenodd" d="M352.045 201.762C352.045 200.127 353.371 198.801 355.007 198.801L373.607 198.801C375.242 198.801 376.569 200.127 376.569 201.762C376.569 203.398 375.242 204.724 373.607 204.724L355.007 204.724C353.371 204.724 352.045 203.398 352.045 201.762Z" fill="#61B3FF"/>
<path d="M395.788 135.398C395.788 138.64 393.159 141.269 389.916 141.269C386.674 141.269 384.045 138.64 384.045 135.398C384.045 132.155 386.674 129.526 389.916 129.526C393.159 129.526 395.788 132.155 395.788 135.398Z" fill="#FFF4E6"/>
<path fill-rule="evenodd" clip-rule="evenodd" d="M393.727 139.865L393.727 150.048H445.937C446.827 150.048 447.687 150.369 448.36 150.951L461.746 162.534C463.453 164.011 463.453 166.657 461.746 168.134L448.36 179.717C447.687 180.3 446.827 180.62 445.937 180.62H393.727L393.727 224.67H438.787C439.676 224.67 440.536 224.99 441.209 225.573L454.596 237.156C456.302 238.633 456.302 241.279 454.596 242.756L441.209 254.339C440.536 254.921 439.676 255.242 438.787 255.242H393.727L393.727 382.285H400.641C403.712 382.285 406.201 384.774 406.201 387.844C406.201 390.915 403.712 393.404 400.641 393.404H377.988C374.918 393.404 372.429 390.915 372.429 387.844C372.429 384.774 374.918 382.285 377.988 382.285H385.975L385.975 217.024C385.835 217.04 385.692 217.048 385.548 217.048L343.956 217.048C343.067 217.048 342.207 216.728 341.534 216.146L328.147 204.562C326.441 203.086 326.441 200.439 328.147 198.963L341.534 187.379C342.207 186.797 343.067 186.477 343.956 186.477L385.548 186.477C385.692 186.477 385.835 186.485 385.975 186.501L385.975 139.749C384.79 138.675 384.045 137.123 384.045 135.398C384.045 132.155 386.674 129.526 389.917 129.526C393.159 129.526 395.788 132.155 395.788 135.398C395.788 137.186 394.989 138.788 393.727 139.865ZM379.433 179.935L343.956 179.935C341.494 179.935 339.115 180.821 337.253 182.432L323.866 194.016C319.145 198.101 319.145 205.424 323.866 209.509L337.253 221.093C339.115 222.704 341.494 223.59 343.956 223.59L379.433 223.59L379.433 375.743H377.988C371.305 375.743 365.887 381.161 365.887 387.844C365.887 394.528 371.305 399.946 377.988 399.946H400.641C407.325 399.946 412.742 394.528 412.742 387.844C412.742 381.161 407.325 375.743 400.641 375.743H400.269L400.269 261.784H438.787C441.249 261.784 443.628 260.897 445.49 259.286L458.877 247.703C463.598 243.617 463.598 236.295 458.877 232.209L445.49 220.626C443.628 219.015 441.249 218.128 438.787 218.128H400.269L400.269 187.162H445.937C448.399 187.162 450.779 186.275 452.64 184.664L466.027 173.081C470.748 168.995 470.748 161.673 466.027 157.587L452.64 146.004C450.779 144.393 448.399 143.506 445.937 143.506H400.269V142.248C401.569 140.286 402.33 137.929 402.33 135.398C402.33 128.542 396.772 122.984 389.917 122.984C383.061 122.984 377.503 128.542 377.503 135.398C377.503 137.842 378.214 140.124 379.433 142.045L379.433 179.935Z" fill="black"/>
<path d="M253.058 192.975C253.058 188.989 256.289 185.758 260.275 185.758H270.833C274.819 185.758 278.05 188.989 278.05 192.975V210.75H253.058V192.975Z" fill="#FF9A61"/>
<path fill-rule="evenodd" clip-rule="evenodd" d="M284.592 210.751C284.592 214.364 281.663 217.293 278.05 217.293H253.058C249.445 217.293 246.516 214.364 246.516 210.751V192.976C246.516 185.377 252.676 179.216 260.275 179.216H270.832C278.432 179.216 284.592 185.377 284.592 192.976V210.751ZM260.275 185.758C256.289 185.758 253.058 188.989 253.058 192.976V210.751H278.05V192.976C278.05 188.989 274.819 185.758 270.832 185.758H260.275Z" fill="black"/>
<path d="M382.869 275.6H421.006C436.951 275.6 449.877 288.526 449.877 304.471V346.271C449.877 354.244 443.414 360.707 435.442 360.707H111.29C103.317 360.707 96.8541 354.244 96.8541 346.271V304.471C96.8541 288.526 109.78 275.6 125.725 275.6H148.514L166.111 217.854C167.962 211.778 173.568 207.626 179.919 207.626H345.975C351.884 207.626 357.195 211.226 359.384 216.714L382.869 275.6Z" fill="#5C7CFA"/>
<path fill-rule="evenodd" clip-rule="evenodd" d="M387.303 269.058H421.006C440.564 269.058 456.419 284.913 456.419 304.471V346.271C456.419 357.857 447.027 367.249 435.442 367.249H111.29C99.7042 367.249 90.3122 357.857 90.3122 346.271V304.471C90.3122 284.913 106.167 269.058 125.725 269.058H143.668L159.853 215.947C162.543 207.117 170.689 201.084 179.919 201.084H345.975C354.561 201.084 362.28 206.316 365.461 214.29L387.303 269.058ZM382.869 275.599L359.384 216.714C357.195 211.226 351.884 207.626 345.975 207.626H179.919C173.567 207.626 167.962 211.778 166.11 217.854L148.514 275.599H125.725C109.78 275.599 96.8541 288.526 96.8541 304.471V346.271C96.8541 354.244 103.317 360.707 111.29 360.707H435.442C443.414 360.707 449.877 354.244 449.877 346.271V304.471C449.877 288.526 436.951 275.599 421.006 275.599H382.869Z" fill="black"/>
<path fill-rule="evenodd" clip-rule="evenodd" d="M145.276 352.898C145.276 352.036 145.976 351.336 146.838 351.336H445.19C446.052 351.336 446.752 352.036 446.752 352.898C446.752 353.761 446.052 354.461 445.19 354.461H146.838C145.976 354.461 145.276 353.761 145.276 352.898Z" fill="#91A7FF"/>
<path fill-rule="evenodd" clip-rule="evenodd" d="M267.462 272.119L267.065 273.629C264.729 282.494 261.92 297.033 261.102 311.759C260.279 326.568 261.494 341.213 266.906 350.55L267.689 351.902L264.986 353.468L264.203 352.117C258.298 341.929 257.155 326.472 257.983 311.586C258.815 296.616 261.664 281.866 264.044 272.833L264.441 271.323L267.462 272.119Z" fill="#91A7FF"/>
<path d="M181.145 224.276L166.139 274.499C165.862 275.425 166.556 276.356 167.522 276.356H363.442C364.45 276.356 365.148 275.348 364.793 274.404L345.929 224.182C345.717 223.619 345.179 223.246 344.578 223.246H182.528C181.89 223.246 181.327 223.665 181.145 224.276Z" fill="#A5D8FF"/>
<path fill-rule="evenodd" clip-rule="evenodd" d="M173.972 270.107H356.505L341.25 229.494H186.107L173.972 270.107ZM364.793 274.404C365.148 275.348 364.45 276.356 363.442 276.356H167.522C166.556 276.356 165.862 275.425 166.139 274.499L181.145 224.276C181.327 223.665 181.89 223.246 182.528 223.246H344.578C345.179 223.246 345.717 223.619 345.929 224.182L364.793 274.404Z" fill="#86B4E3"/>
<path d="M319.46 229.497L328.833 270.11H340.535L327.245 229.497H319.46Z" fill="white" fill-opacity="0.46"/>
<path d="M306.169 229.497L312.417 270.11H320.227L310.83 229.497H306.169Z" fill="white" fill-opacity="0.46"/>
<path d="M209.322 229.497L199.949 270.11H207.76L213.983 229.497H209.322Z" fill="white" fill-opacity="0.46"/>
<path fill-rule="evenodd" clip-rule="evenodd" d="M262.43 270.11L262.43 229.497L268.678 229.497L268.678 270.11L262.43 270.11Z" fill="#85B4E3"/>
<path d="M367.224 285.729H382.37V297.163H367.224V285.729Z" fill="#212529"/>
<path d="M382.371 297.162H397.518V308.595H382.371V297.162Z" fill="#212529"/>
<path d="M352.08 297.162H367.226V308.595H352.08V297.162Z" fill="#212529"/>
<path d="M336.932 285.729H352.079V297.163H336.932V285.729Z" fill="#212529"/>
<path d="M321.788 297.162H336.935V308.595H321.788V297.162Z" fill="#212529"/>
<path fill-rule="evenodd" clip-rule="evenodd" d="M417.074 321.655H449.877V331.027H417.074V321.655Z" fill="#212529"/>
<path d="M217.973 359.56C217.973 379.174 202.073 395.074 182.46 395.074C162.846 395.074 146.946 379.174 146.946 359.56C146.946 339.947 162.846 324.047 182.46 324.047C202.073 324.047 217.973 339.947 217.973 359.56Z" fill="#868E96"/>
<path fill-rule="evenodd" clip-rule="evenodd" d="M182.459 329.099C165.636 329.099 151.998 342.737 151.998 359.56C151.998 376.383 165.636 390.021 182.459 390.021C199.282 390.021 212.92 376.383 212.92 359.56C212.92 342.737 199.282 329.099 182.459 329.099ZM141.893 359.56C141.893 337.156 160.055 318.994 182.459 318.994C204.863 318.994 223.025 337.156 223.025 359.56C223.025 381.964 204.863 400.126 182.459 400.126C160.055 400.126 141.893 381.964 141.893 359.56Z" fill="#212529"/>
<path d="M194.844 359.561C194.844 366.4 189.299 371.944 182.46 371.944C175.621 371.944 170.076 366.4 170.076 359.561C170.076 352.721 175.621 347.177 182.46 347.177C189.299 347.177 194.844 352.721 194.844 359.561Z" fill="#212529"/>
<path d="M407.228 359.56C407.228 379.174 391.328 395.074 371.715 395.074C352.101 395.074 336.201 379.174 336.201 359.56C336.201 339.947 352.101 324.047 371.715 324.047C391.328 324.047 407.228 339.947 407.228 359.56Z" fill="#868E96"/>
<path fill-rule="evenodd" clip-rule="evenodd" d="M371.714 329.099C354.891 329.099 341.253 342.737 341.253 359.56C341.253 376.383 354.891 390.021 371.714 390.021C388.537 390.021 402.174 376.383 402.174 359.56C402.174 342.737 388.537 329.099 371.714 329.099ZM331.148 359.56C331.148 337.156 349.31 318.994 371.714 318.994C394.118 318.994 412.279 337.156 412.279 359.56C412.279 381.964 394.118 400.126 371.714 400.126C349.31 400.126 331.148 381.964 331.148 359.56Z" fill="#212529"/>
<path d="M384.098 359.561C384.098 366.4 378.554 371.944 371.715 371.944C364.876 371.944 359.331 366.4 359.331 359.561C359.331 352.721 364.876 347.177 371.715 347.177C378.554 347.177 384.098 352.721 384.098 359.561Z" fill="#212529"/>
<path fill-rule="evenodd" clip-rule="evenodd" d="M93.583 256.051C93.583 254.245 95.0475 252.781 96.8539 252.781H134.343C136.15 252.781 137.614 254.245 137.614 256.051V290.417C137.614 292.223 136.15 293.687 134.343 293.687H96.8539C95.0475 293.687 93.583 292.223 93.583 290.417V256.051ZM100.125 259.322V287.146H131.072V259.322H100.125Z" fill="black"/>
<path d="M68.7379 291.256C68.7379 287.805 71.5353 285.008 74.9861 285.008H156.315C159.765 285.008 162.563 287.805 162.563 291.256V378.448C162.563 381.899 159.765 384.696 156.315 384.696H74.9861C71.5353 384.696 68.7379 381.899 68.7379 378.448V291.256Z" fill="#C1DAFF"/>
<path fill-rule="evenodd" clip-rule="evenodd" d="M74.9861 278.466H156.315C163.378 278.466 169.105 284.192 169.105 291.256V378.448C169.105 385.512 163.378 391.238 156.315 391.238H74.9861C67.9224 391.238 62.196 385.512 62.196 378.448V291.256C62.196 284.192 67.9224 278.466 74.9861 278.466ZM74.9861 285.007C71.5353 285.007 68.7379 287.805 68.7379 291.256V378.448C68.7379 381.899 71.5353 384.696 74.9861 384.696H156.315C159.765 384.696 162.563 381.899 162.563 378.448V291.256C162.563 287.805 159.765 285.007 156.315 285.007H74.9861Z" fill="black"/>
<g style="mix-blend-mode:soft-light" opacity="0.6">
<path fill-rule="evenodd" clip-rule="evenodd" d="M113.306 301.713C114.601 301.713 115.651 302.764 115.651 304.059V365.649C115.651 366.945 114.601 367.995 113.306 367.995C112.01 367.995 110.96 366.945 110.96 365.649V304.059C110.96 302.764 112.01 301.713 113.306 301.713Z" fill="#F8F9FA"/>
</g>
<g style="mix-blend-mode:soft-light" opacity="0.6">
<path fill-rule="evenodd" clip-rule="evenodd" d="M133.829 301.713C135.124 301.713 136.174 302.764 136.174 304.059V365.649C136.174 366.945 135.124 367.995 133.829 367.995C132.533 367.995 131.483 366.945 131.483 365.649V304.059C131.483 302.764 132.533 301.713 133.829 301.713Z" fill="#F8F9FA"/>
</g>
<g style="mix-blend-mode:soft-light" opacity="0.6">
<path fill-rule="evenodd" clip-rule="evenodd" d="M92.7823 301.713C94.0778 301.713 95.1279 302.764 95.1279 304.059V365.649C95.1279 366.945 94.0778 367.995 92.7823 367.995C91.4869 367.995 90.4367 366.945 90.4367 365.649V304.059C90.4367 302.764 91.4869 301.713 92.7823 301.713Z" fill="#F8F9FA"/>
</g>
<path fill-rule="evenodd" clip-rule="evenodd" d="M115.651 301.56C117.031 301.56 118.15 302.679 118.15 304.059V365.649C118.15 367.03 117.031 368.149 115.651 368.149C114.271 368.149 113.152 367.03 113.152 365.649V304.059C113.152 302.679 114.271 301.56 115.651 301.56Z" fill="#212529"/>
<path fill-rule="evenodd" clip-rule="evenodd" d="M136.177 301.56C137.558 301.56 138.677 302.679 138.677 304.059V365.649C138.677 367.03 137.558 368.149 136.177 368.149C134.797 368.149 133.678 367.03 133.678 365.649V304.059C133.678 302.679 134.797 301.56 136.177 301.56Z" fill="#212529"/>
<path fill-rule="evenodd" clip-rule="evenodd" d="M95.1276 301.56C96.5079 301.56 97.6269 302.679 97.6269 304.059V365.649C97.6269 367.03 96.5079 368.149 95.1276 368.149C93.7473 368.149 92.6284 367.03 92.6284 365.649V304.059C92.6284 302.679 93.7473 301.56 95.1276 301.56Z" fill="#212529"/>
<path d="M91.9755 388.003C91.9755 391.635 89.0311 394.579 85.3991 394.579C81.767 394.579 78.8226 391.635 78.8226 388.003C78.8226 384.371 81.767 381.426 85.3991 381.426C89.0311 381.426 91.9755 384.371 91.9755 388.003Z" fill="#495057"/>
<path fill-rule="evenodd" clip-rule="evenodd" d="M98.5174 388.003C98.5174 395.248 92.6441 401.121 85.3991 401.121C78.154 401.121 72.2808 395.248 72.2808 388.003C72.2808 380.758 78.154 374.884 85.3991 374.884C92.6441 374.884 98.5174 380.758 98.5174 388.003ZM85.3991 394.579C89.0312 394.579 91.9755 391.635 91.9755 388.003C91.9755 384.371 89.0312 381.426 85.3991 381.426C81.767 381.426 78.8226 384.371 78.8226 388.003C78.8226 391.635 81.767 394.579 85.3991 394.579Z" fill="#212529"/>
<path d="M152.478 388.003C152.478 391.635 149.534 394.579 145.902 394.579C142.27 394.579 139.326 391.635 139.326 388.003C139.326 384.371 142.27 381.426 145.902 381.426C149.534 381.426 152.478 384.371 152.478 388.003Z" fill="#495057"/>
<path fill-rule="evenodd" clip-rule="evenodd" d="M159.02 388.003C159.02 395.248 153.147 401.121 145.902 401.121C138.657 401.121 132.784 395.248 132.784 388.003C132.784 380.758 138.657 374.885 145.902 374.885C153.147 374.885 159.02 380.758 159.02 388.003ZM145.902 394.579C149.534 394.579 152.478 391.635 152.478 388.003C152.478 384.371 149.534 381.426 145.902 381.426C142.27 381.426 139.325 384.371 139.325 388.003C139.325 391.635 142.27 394.579 145.902 394.579Z" fill="#212529"/>
<path d="M86.3288 257.155C86.3288 254.82 88.2214 252.927 90.5561 252.927H140.742C143.077 252.927 144.969 254.82 144.969 257.155C144.969 259.489 143.077 261.382 140.742 261.382H90.556C88.2214 261.382 86.3288 259.489 86.3288 257.155Z" fill="#F2FAFF"/>
<path fill-rule="evenodd" clip-rule="evenodd" d="M90.5561 246.385H140.742C146.69 246.385 151.511 251.207 151.511 257.155C151.511 263.102 146.69 267.924 140.742 267.924H90.5561C84.6084 267.924 79.7869 263.102 79.7869 257.155C79.7869 251.207 84.6084 246.385 90.5561 246.385ZM90.5561 252.927C88.2214 252.927 86.3288 254.82 86.3288 257.155C86.3288 259.489 88.2214 261.382 90.5561 261.382H140.742C143.077 261.382 144.969 259.489 144.969 257.155C144.969 254.82 143.077 252.927 140.742 252.927H90.5561Z" fill="black"/>
<g style="mix-blend-mode:soft-light" opacity="0.9">
<path d="M79.9065 290.634L110.396 287.882H71.6926V326.239L74.2425 296.326C74.5 293.306 76.8878 290.907 79.9065 290.634Z" fill="#F8F9FA"/>
</g>
<path d="M296.796 296.663H271.803C269.721 300.829 268.055 309.16 278.052 309.16C288.049 309.16 294.714 300.829 296.796 296.663Z" fill="#91A7FF"/>
<path d="M195.282 296.663H170.289C168.207 300.829 166.54 309.16 176.537 309.16C186.535 309.16 193.199 300.829 195.282 296.663Z" fill="#91A7FF"/>
<path fill-rule="evenodd" clip-rule="evenodd" d="M205.127 176.026C205.744 174.328 207.621 173.452 209.319 174.07L232.604 182.537C234.302 183.154 235.178 185.031 234.56 186.729C233.943 188.427 232.066 189.302 230.368 188.685L207.083 180.218C205.385 179.6 204.509 177.724 205.127 176.026Z" fill="#FF9A61"/>
<path fill-rule="evenodd" clip-rule="evenodd" d="M224.941 153.662C226.218 152.384 228.289 152.384 229.567 153.662L242.268 166.363C243.545 167.64 243.545 169.711 242.268 170.989C240.99 172.266 238.919 172.266 237.642 170.989L224.941 158.287C223.664 157.01 223.664 154.939 224.941 153.662Z" fill="#FF9A61"/>
<path fill-rule="evenodd" clip-rule="evenodd" d="M325.983 176.026C325.365 174.328 323.489 173.452 321.791 174.07L298.506 182.537C296.808 183.154 295.932 185.031 296.549 186.729C297.167 188.427 299.043 189.302 300.741 188.685L324.027 180.218C325.724 179.6 326.6 177.724 325.983 176.026Z" fill="#FF9A61"/>
<path fill-rule="evenodd" clip-rule="evenodd" d="M306.172 153.662C304.895 152.384 302.824 152.384 301.546 153.662L288.845 166.363C287.568 167.64 287.568 169.711 288.845 170.989C290.122 172.266 292.193 172.266 293.471 170.989L306.172 158.287C307.449 157.01 307.449 154.939 306.172 153.662Z" fill="#FF9A61"/>
<path fill-rule="evenodd" clip-rule="evenodd" d="M265.553 138.416C267.36 138.416 268.824 139.88 268.824 141.686V168.676C268.824 170.483 267.36 171.947 265.553 171.947C263.747 171.947 262.282 170.483 262.282 168.676V141.686C262.282 139.88 263.747 138.416 265.553 138.416Z" fill="#FF9A61"/>
<mask id="mask0_39_2746" style="mask-type:alpha" maskUnits="userSpaceOnUse" x="52" y="79" width="402" height="363">
<path d="M285.53 85.9521C204.303 109.695 166.814 112.507 127.763 128.128C88.7115 143.748 61.5055 178.182 54.3467 239.033C44.9744 318.698 79.6728 391.448 154.318 407.735C240.23 426.48 299.922 459.259 370.214 429.438C473.309 385.701 457.356 248.405 444.859 195.295C430.893 135.938 387.063 56.2731 285.53 85.9521Z" fill="#B071EE"/>
</mask>
<g mask="url(#mask0_39_2746)">
<path d="M68.7384 399.759H453.003V441.935H68.7384V399.759Z" fill="#B1965F"/>
</g>
<path fill-rule="evenodd" clip-rule="evenodd" d="M195.996 129.198L193.954 139.745L187.82 138.557L189.862 128.01L195.996 129.198Z" fill="#FFE066"/>
<path fill-rule="evenodd" clip-rule="evenodd" d="M229.547 116.444L208.878 131.276L205.236 126.199L225.904 111.368L229.547 116.444Z" fill="#A3D3FF"/>
<path fill-rule="evenodd" clip-rule="evenodd" d="M111.043 162.131L133.482 176.591L130.097 181.843L107.658 167.383L111.043 162.131Z" fill="#FFEBC4"/>
<path fill-rule="evenodd" clip-rule="evenodd" d="M334.048 119.288L311.076 108.359L313.76 102.717L336.732 113.646L334.048 119.288Z" fill="#A3D3FF"/>
<path fill-rule="evenodd" clip-rule="evenodd" d="M345.765 144.85L334.994 144.283L335.322 138.044L346.093 138.61L345.765 144.85Z" fill="#FFE066"/>
<path fill-rule="evenodd" clip-rule="evenodd" d="M105.115 196.528L102.776 207.057L96.6768 205.702L99.016 195.173L105.115 196.528Z" fill="#A3D3FF"/>
</svg>
