<svg width="512" height="512" viewBox="0 0 512 512" fill="none" xmlns="http://www.w3.org/2000/svg">
<path d="M275.9 126.558C300.164 140.535 323.062 153.724 358.77 149.439C363.256 148.901 367.645 148.723 371.927 148.88L413.373 118.314L417.465 165.344C421.342 168.273 425.008 171.542 428.444 175.111C440.283 178.895 452.386 190.989 450.646 209.135C468.345 250.334 466.341 305.275 433.964 349.59C434.332 352.251 434.522 354.968 434.522 357.73C434.522 390.252 408.158 416.616 375.636 416.616C360.011 416.616 345.807 410.53 335.265 400.599C320.041 400.678 305.221 398.774 291.461 397.006C286.791 396.406 282.243 395.821 277.843 395.336C261.067 393.484 244.774 396.747 227.87 400.133C199.716 405.771 169.867 411.749 133.276 395.001L112.331 408.521L109.999 381.719C106.355 379.234 102.646 376.516 98.8672 373.547C21.0587 312.424 33.3298 121.153 161.119 101.194C216.776 92.5016 247.288 110.077 275.9 126.558Z" fill="#FFE8CD"/>
<path d="M419.777 117.756C419.575 115.44 418.138 113.413 416.019 112.455C413.9 111.498 411.429 111.76 409.557 113.14L369.881 142.402C365.989 142.36 362.028 142.574 358.005 143.057C324.593 147.066 303.352 134.953 279.108 120.988L278.887 120.861C264.699 112.688 249.364 103.854 230.473 98.2714C211.357 92.622 188.852 90.3566 160.127 94.843C92.5301 105.401 56.1297 161.299 46.5473 220.914C37.0141 280.222 53.505 346.087 94.8962 378.602C97.9196 380.977 100.906 383.201 103.856 385.282L105.927 409.078C106.122 411.323 107.479 413.302 109.504 414.294C111.528 415.285 113.923 415.144 115.817 413.921L133.848 402.283C170.871 418.105 201.487 411.973 228.808 406.5L229.132 406.436C246.208 403.016 261.518 400.001 277.137 401.725C281.47 402.203 285.96 402.78 290.642 403.382L290.815 403.404C303.74 405.065 318.023 406.9 332.785 407.023C344.25 416.997 359.243 423.044 375.636 423.044C411.708 423.044 440.95 393.802 440.95 357.73C440.95 355.567 440.845 353.427 440.638 351.315C472.657 305.925 474.76 250.38 457.174 208.069C458.326 188.045 445.208 174.452 431.982 169.535C429.326 166.857 426.539 164.339 423.626 161.997L419.777 117.756Z" stroke="white" stroke-width="12.8564" stroke-linecap="round" stroke-linejoin="round"/>
<path d="M359.091 150.132C281.275 159.47 264.294 85.8228 161.439 101.887C33.6499 121.846 21.3788 313.117 99.1873 374.24C176.996 435.364 225.177 390.179 278.163 396.028C323.356 401.018 384.152 416.406 432.704 352.405C497.602 266.855 446.858 139.6 359.091 150.132Z" fill="#B0C0F9"/>
<path fill-rule="evenodd" clip-rule="evenodd" d="M279.308 121.607C303.656 135.608 324.807 147.771 358.324 143.749C406.033 138.024 442.924 169.944 459.16 212.967C475.42 256.052 471.719 311.609 437.824 356.289C412.446 389.744 383.521 402.723 355.009 406.461C332.417 409.424 309.963 406.53 290.61 404.035C286.039 403.446 281.642 402.879 277.457 402.417C265.182 401.062 252.998 402.64 239.964 405.07C236.625 405.693 233.204 406.378 229.712 407.078C219.833 409.056 209.387 411.149 198.641 412.256C168.727 415.337 135.537 410.969 95.2156 379.295C53.8244 346.779 37.3335 280.914 46.8667 221.606C56.4491 161.992 92.8495 106.093 160.447 95.5352C213.902 87.1863 245.383 102.31 272.829 117.897C275.02 119.141 277.176 120.382 279.308 121.607ZM276.219 127.25C300.483 141.227 323.382 154.417 359.09 150.132C446.858 139.599 497.601 266.854 432.703 352.404C388.879 410.174 335.078 403.261 291.781 397.698C287.11 397.098 282.562 396.514 278.162 396.028C261.387 394.176 245.093 397.439 228.189 400.825C191.699 408.133 152.361 416.012 99.1866 374.24C21.3781 313.116 33.6492 121.845 161.439 101.886C217.095 93.1938 247.607 110.769 276.219 127.25Z" fill="black"/>
<g style="mix-blend-mode:multiply">
<mask id="path-5-outside-1_39_2510" maskUnits="userSpaceOnUse" x="88.5222" y="112.008" width="350" height="304" fill="black">
<rect fill="white" x="88.5222" y="112.008" width="350" height="304"/>
<path fill-rule="evenodd" clip-rule="evenodd" d="M312.401 193.707L198.791 137.681L198.791 137.681L198.791 137.681L198.791 137.683L95.5222 212.373L112.65 409.214L217.467 341.558L329.52 389.803L329.52 389.802L329.52 389.802L329.521 389.804L431.375 322.239L413.691 119.008L312.402 193.71L312.401 193.707Z"/>
</mask>
<path fill-rule="evenodd" clip-rule="evenodd" d="M312.401 193.707L198.791 137.681L198.791 137.681L198.791 137.681L198.791 137.683L95.5222 212.373L112.65 409.214L217.467 341.558L329.52 389.803L329.52 389.802L329.52 389.802L329.521 389.804L431.375 322.239L413.691 119.008L312.402 193.71L312.401 193.707Z" fill="#FFF3BF"/>
<path d="M198.791 137.681L201.634 131.915C199.545 130.885 197.062 131.066 195.144 132.387C193.226 133.708 192.173 135.964 192.391 138.283L198.791 137.681ZM312.401 193.707L318.775 192.87C318.495 190.741 317.17 188.892 315.244 187.942L312.401 193.707ZM198.791 137.681L195.993 143.469C198.082 144.479 200.553 144.284 202.458 142.96C204.364 141.637 205.408 139.389 205.191 137.079L198.791 137.681ZM198.791 137.681L201.588 131.894C199.35 130.812 196.689 131.117 194.754 132.678C192.82 134.239 191.958 136.775 192.542 139.191L198.791 137.681ZM198.791 137.683L202.558 142.891C204.672 141.363 205.652 138.708 205.039 136.173L198.791 137.683ZM95.5222 212.373L91.755 207.164C89.9234 208.489 88.9222 210.678 89.1182 212.93L95.5222 212.373ZM112.65 409.214L106.246 409.771C106.442 412.016 107.799 413.996 109.823 414.987C111.847 415.978 114.243 415.837 116.136 414.615L112.65 409.214ZM217.467 341.558L220.009 335.654C218.041 334.807 215.781 334.995 213.981 336.157L217.467 341.558ZM329.52 389.803L326.978 395.707C329.063 396.604 331.466 396.336 333.301 395.001C335.137 393.666 336.132 391.462 335.92 389.203L329.52 389.803ZM329.52 389.802L332.166 383.943C330.079 383.001 327.648 383.24 325.785 384.57C323.921 385.901 322.906 388.122 323.12 390.402L329.52 389.802ZM329.52 389.802L335.894 388.965C335.604 386.759 334.194 384.859 332.166 383.943L329.52 389.802ZM329.521 389.804L323.147 390.641C323.436 392.84 324.838 394.735 326.857 395.655C328.876 396.574 331.226 396.387 333.074 395.161L329.521 389.804ZM431.375 322.239L434.929 327.596C436.89 326.295 437.983 324.027 437.779 321.682L431.375 322.239ZM413.691 119.008L420.095 118.45C419.894 116.134 418.457 114.107 416.337 113.149C414.218 112.192 411.747 112.454 409.876 113.834L413.691 119.008ZM312.402 193.71L306.028 194.548C306.325 196.803 307.791 198.734 309.884 199.625C311.978 200.516 314.386 200.234 316.217 198.883L312.402 193.71ZM195.948 143.446L309.558 199.473L315.244 187.942L201.634 131.915L195.948 143.446ZM205.191 137.079L205.191 137.078L192.391 138.283L192.391 138.284L205.191 137.079ZM201.588 131.894L201.588 131.894L195.993 143.469L195.993 143.469L201.588 131.894ZM192.542 139.191L192.542 139.192L205.039 136.173L205.039 136.172L192.542 139.191ZM99.2893 217.581L202.558 142.891L195.024 132.474L91.755 207.164L99.2893 217.581ZM119.054 408.657L101.926 211.815L89.1182 212.93L106.246 409.771L119.054 408.657ZM213.981 336.157L109.164 403.813L116.136 414.615L220.953 346.959L213.981 336.157ZM214.925 347.462L326.978 395.707L332.062 383.898L220.009 335.654L214.925 347.462ZM335.92 389.203L335.92 389.202L323.12 390.402L323.12 390.403L335.92 389.203ZM332.166 383.943L332.166 383.943L326.874 395.66L326.875 395.66L332.166 383.943ZM335.894 388.968L335.894 388.965L323.147 390.638L323.147 390.641L335.894 388.968ZM427.822 316.883L325.967 384.448L333.074 395.161L434.929 327.596L427.822 316.883ZM407.287 119.565L424.971 322.797L437.779 321.682L420.095 118.45L407.287 119.565ZM316.217 198.883L417.507 124.181L409.876 113.834L308.586 188.537L316.217 198.883ZM306.028 194.545L306.028 194.548L318.775 192.872L318.775 192.87L306.028 194.545Z" fill="black" mask="url(#path-5-outside-1_39_2510)"/>
</g>
<path d="M95.5218 212.371L198.791 137.68L217.467 341.556L112.65 409.212L95.5218 212.371Z" fill="#FFF3BF"/>
<path d="M312.402 193.707L413.692 119.005L431.376 322.236L329.522 389.801L217.467 341.556L198.791 137.68L312.402 193.707Z" fill="#FFF3BF"/>
<path d="M151.218 300.131C168.55 287.976 187.324 246.682 266.554 274.125C345.784 301.568 368.595 270.008 388.328 246.513" stroke="#B37417" stroke-opacity="0.8" stroke-width="6.42819" stroke-linecap="round" stroke-linejoin="round" stroke-dasharray="16.89 16.89"/>
<path d="M116.837 274.461L137.802 286.978" stroke="#1875FF" stroke-width="6.42819" stroke-linecap="round" stroke-linejoin="round"/>
<path d="M134.148 271.169L120.804 291.617" stroke="#1875FF" stroke-width="6.42819" stroke-linecap="round" stroke-linejoin="round"/>
<path d="M341.971 186.708L371.88 192.991" stroke="#1875FF" stroke-width="6.42819" stroke-linecap="round" stroke-linejoin="round"/>
<path d="M361.121 175.767L353.649 205.4" stroke="#1875FF" stroke-width="6.42819" stroke-linecap="round" stroke-linejoin="round"/>
<path d="M273.973 340.043L280.889 353.598" stroke="#1875FF" stroke-width="4.82114" stroke-linecap="round" stroke-linejoin="round"/>
<path d="M284.199 344.042L270.379 350.41" stroke="#1875FF" stroke-width="4.82114" stroke-linecap="round" stroke-linejoin="round"/>
<g style="mix-blend-mode:multiply">
<path d="M250.272 228.356C213.451 226.379 176.321 261.415 162.358 279.181C160.662 284.366 160.253 294.476 172.188 293.437C187.106 292.139 194.326 276.399 227.715 273.494C261.104 270.589 254.248 331.629 322.589 302.656C390.931 273.683 384.468 199.41 340.494 220.506C296.519 241.601 296.297 230.828 250.272 228.356Z" fill="#FFEC99"/>
</g>
<path d="M130.18 247.777C109.015 247.777 119.286 224.952 130.18 221.32C150.412 214.576 190.876 205.135 190.876 221.32C190.876 241.552 156.637 247.777 130.18 247.777Z" fill="#FFEC99"/>
<path d="M396.44 263.742C388.97 258.762 396.44 252.329 401.109 249.735C410.447 245.067 421.341 249.735 421.341 255.96C421.341 262.185 405.778 269.967 396.44 263.742Z" fill="#FFEC99"/>
<g style="mix-blend-mode:multiply">
<path d="M132.72 309.465C139.634 297.199 117.297 290.071 102.301 289.713L107.537 349.883C112.694 320.573 124.078 324.797 132.72 309.465Z" fill="#FFEC99"/>
</g>
<g style="mix-blend-mode:multiply">
<path d="M397.601 181.056C390.925 172.915 406.455 164.781 417.452 162.581L421.367 207.571C413.784 186.651 405.946 191.232 397.601 181.056Z" fill="#FFEC99"/>
</g>
<g style="mix-blend-mode:multiply">
<path d="M312.4 193.708L198.79 137.681L217.466 341.557L329.52 389.803L312.4 193.708Z" fill="#FFF3BF"/>
</g>
<path fill-rule="evenodd" clip-rule="evenodd" d="M103.126 180.047C98.3385 147.815 122.324 128.669 142.061 125.738C161.797 122.807 189.654 134.253 194.441 166.485C198.37 192.937 172.195 226.805 162.683 238.1C160.747 240.398 157.5 240.894 154.967 239.275C142.457 231.282 107.059 206.527 103.126 180.047ZM152.066 188.796C162.051 187.313 168.939 177.987 167.45 167.965C165.962 157.943 156.661 151.021 146.676 152.504C136.691 153.987 129.803 163.314 131.292 173.335C132.78 183.357 142.081 190.279 152.066 188.796Z" fill="#FA5252"/>
<path fill-rule="evenodd" clip-rule="evenodd" d="M96.7664 180.991C91.3368 144.435 118.74 122.703 141.116 119.379C163.608 116.039 195.384 129.085 200.798 165.54C203.086 180.945 196.627 197.612 189.236 211.071C181.705 224.783 172.484 236.44 167.599 242.24M167.599 242.24C163.586 247.005 156.756 248.047 151.505 244.692C145.083 240.589 132.71 232.14 121.371 221.224C110.248 210.517 99.0612 196.442 96.7664 180.991M151.121 182.437C157.572 181.479 162.061 175.441 161.091 168.909C160.121 162.377 154.071 157.904 147.619 158.863C141.168 159.821 136.679 165.859 137.649 172.391C138.619 178.923 144.669 183.396 151.121 182.437ZM142.06 125.738C122.324 128.669 98.3376 147.815 103.125 180.047C107.058 206.526 142.457 231.282 154.966 239.275C157.499 240.893 160.746 240.398 162.682 238.099C172.194 226.805 198.369 192.937 194.44 166.484C189.653 134.253 161.796 122.806 142.06 125.738ZM167.449 167.965C168.938 177.986 162.05 187.313 152.065 188.796C142.08 190.279 132.779 183.357 131.291 173.335C129.802 163.314 136.69 153.987 146.675 152.504C156.66 151.021 165.961 157.943 167.449 167.965Z" fill="black"/>
<g style="mix-blend-mode:soft-light" opacity="0.8">
<path d="M122.398 144.188C121.109 143.747 117.974 146.911 114.953 152.121C111.864 157.449 111.415 161.575 112.856 162.516C114.656 163.692 118.729 157.62 119.691 154.723C122.04 149.354 124.008 144.74 122.398 144.188Z" fill="#F8F9FA"/>
</g>
<path fill-rule="evenodd" clip-rule="evenodd" d="M387.452 200.875C392.265 178.716 412.589 172.154 426.157 175.101C439.726 178.049 455.042 192.353 450.229 214.511C446.279 232.697 420.908 248.304 411.938 253.316C410.112 254.336 407.877 253.859 406.626 252.183C400.45 243.902 383.497 219.079 387.452 200.875ZM417.157 218.61C424.021 220.101 430.799 215.725 432.296 208.835C433.793 201.945 429.441 195.151 422.577 193.66C415.712 192.169 408.934 196.545 407.438 203.435C405.941 210.325 410.292 217.119 417.157 218.61Z" fill="#FA5252"/>
<path fill-rule="evenodd" clip-rule="evenodd" d="M381.169 199.51C386.91 173.079 411.345 165.306 427.52 168.82C443.811 172.359 462.229 189.546 456.509 215.876C454.067 227.122 445.336 236.737 437.141 243.74C428.727 250.932 419.732 256.324 415.072 258.927C410.432 261.52 404.652 260.288 401.472 256.026C398.265 251.727 392.205 243.067 387.431 233.006C382.786 223.216 378.717 210.797 381.169 199.51ZM418.52 212.328C421.894 213.061 425.265 210.913 426.013 207.471C426.761 204.028 424.584 200.675 421.211 199.942C417.837 199.209 414.466 201.358 413.718 204.8C412.97 208.242 415.147 211.596 418.52 212.328ZM426.156 175.102C412.587 172.154 392.264 178.716 387.451 200.875C383.496 219.079 400.448 243.902 406.625 252.183C407.876 253.859 410.111 254.336 411.937 253.316C420.907 248.304 446.277 232.697 450.228 214.512C455.041 192.353 439.724 178.049 426.156 175.102ZM432.295 208.835C430.798 215.725 424.02 220.101 417.156 218.61C410.291 217.119 405.94 210.325 407.436 203.435C408.933 196.546 415.711 192.169 422.575 193.66C429.44 195.151 433.791 201.945 432.295 208.835Z" fill="black"/>
<g style="mix-blend-mode:soft-light" opacity="0.8">
<path d="M408.817 182.275C408.087 181.67 405.267 182.959 402.02 185.607C398.698 188.315 397.391 190.891 398.097 191.858C398.979 193.066 403.124 190.116 404.463 188.466C407.313 185.549 409.73 183.03 408.817 182.275Z" fill="#F8F9FA"/>
</g>
<path d="M169.22 318.211C177.001 312.504 215.909 318.211 215.909 318.211C215.909 318.211 279.718 302.648 315.513 226.389C315.513 226.389 351.826 235.208 354.42 241.952" stroke="#D0B46C" stroke-opacity="0.7" stroke-width="6.42819" stroke-linecap="round" stroke-linejoin="round" stroke-dasharray="12.86 12.86"/>
<circle cx="375.954" cy="358.421" r="62.0997" fill="#4B94FF" stroke="black" stroke-width="6.42819" stroke-linejoin="round"/>
<circle cx="375.952" cy="358.422" r="49.6144" fill="#FFFCF0" stroke="black" stroke-width="6.42819" stroke-linejoin="round"/>
<path d="M337.279 358.42H331.388" stroke="#FA5252" stroke-width="3.21409" stroke-linecap="round" stroke-linejoin="round"/>
<path d="M420.155 358.42H414.263" stroke="#FA5252" stroke-width="3.21409" stroke-linecap="round" stroke-linejoin="round"/>
<path d="M375.956 319.745V313.854" stroke="#FA5252" stroke-width="3.21409" stroke-linecap="round" stroke-linejoin="round"/>
<path d="M375.956 402.621V396.73" stroke="#FA5252" stroke-width="3.21409" stroke-linecap="round" stroke-linejoin="round"/>
<path fill-rule="evenodd" clip-rule="evenodd" d="M387.265 368.174L398.765 337.932L369.041 349.95L369.038 349.947L357.538 380.189L387.262 368.171L387.265 368.174Z" fill="#4B94FF"/>
<path d="M357.537 380.189L369.037 349.947L387.261 368.171L357.537 380.189Z" fill="#FA5252"/>
<path d="M398.764 337.932L387.264 368.174L369.04 349.95L398.764 337.932Z" fill="#4B94FF"/>
<circle cx="379.424" cy="358.677" r="4.61817" fill="#FFFCF0" stroke="#3A75CE" stroke-width="3.21409"/>
<path d="M96.5201 316.598C98.2469 317.009 99.9801 315.942 100.391 314.216L107.091 286.075C107.502 284.349 106.436 282.615 104.709 282.204C102.982 281.793 101.249 282.86 100.838 284.587L94.8823 309.6L69.8687 303.644C68.1419 303.233 66.4088 304.3 65.9976 306.027C65.5865 307.754 66.653 309.487 68.3799 309.898L96.5201 316.598ZM82.5254 200.674C83.2449 199.051 82.5126 197.152 80.8898 196.433C79.2671 195.713 77.3683 196.445 76.6489 198.068L82.5254 200.674ZM74.3397 203.867C73.7464 205.54 74.6217 207.377 76.2947 207.971C77.9677 208.564 79.8049 207.689 80.3982 206.016L74.3397 203.867ZM77.3687 217.109C77.7115 215.367 76.5774 213.678 74.8357 213.335C73.094 212.992 71.4043 214.126 71.0615 215.868L77.3687 217.109ZM69.4955 228.169C69.3864 229.941 70.7342 231.465 72.506 231.574C74.2777 231.683 75.8024 230.336 75.9115 228.564L69.4955 228.169ZM75.8903 240.167C75.7927 238.394 74.2768 237.037 72.5044 237.134C70.732 237.232 69.3742 238.747 69.4718 240.52L75.8903 240.167ZM70.7794 252.753C71.0545 254.506 72.6991 255.705 74.4528 255.43C76.2064 255.155 77.4051 253.51 77.13 251.757L70.7794 252.753ZM79.4557 263.225C79.0295 261.502 77.2871 260.45 75.5639 260.876C73.8407 261.303 72.7894 263.045 73.2156 264.768L79.4557 263.225ZM76.6085 276.512C77.1643 278.198 78.9815 279.114 80.6674 278.559C82.3532 278.003 83.2693 276.186 82.7135 274.5L76.6085 276.512ZM86.7808 285.538C86.1117 283.894 84.2364 283.104 82.5922 283.773C80.9481 284.442 80.1577 286.317 80.8268 287.961L86.7808 285.538ZM85.7827 299.104C86.5549 300.702 88.4767 301.372 90.075 300.599C91.6733 299.827 92.3429 297.905 91.5707 296.307L85.7827 299.104ZM97.0293 306.744C96.1555 305.199 94.1946 304.654 92.6494 305.528C91.1043 306.402 90.5601 308.363 91.4339 309.908L97.0293 306.744ZM76.6489 198.068C75.7977 199.988 75.0295 201.922 74.3397 203.867L80.3982 206.016C81.0341 204.223 81.7418 202.441 82.5254 200.674L76.6489 198.068ZM71.0615 215.868C70.2558 219.962 69.7477 224.072 69.4955 228.169L75.9115 228.564C76.1474 224.733 76.6215 220.906 77.3687 217.109L71.0615 215.868ZM69.4718 240.52C69.699 244.648 70.1494 248.736 70.7794 252.753L77.13 251.757C76.5306 247.935 76.1047 244.063 75.8903 240.167L69.4718 240.52ZM73.2156 264.768C74.2127 268.799 75.3599 272.725 76.6085 276.512L82.7135 274.5C81.5116 270.854 80.4106 267.085 79.4557 263.225L73.2156 264.768ZM80.8268 287.961C82.4345 291.912 84.1101 295.642 85.7827 299.104L91.5707 296.307C89.9531 292.959 88.3336 289.353 86.7808 285.538L80.8268 287.961ZM91.4339 309.908C92.5101 311.811 93.5486 313.565 94.5272 315.156L100.002 311.787C99.065 310.264 98.0668 308.578 97.0293 306.744L91.4339 309.908Z" fill="#5250DE"/>
<path d="M208.153 119.018C211.189 125.018 226.366 137.917 262.793 141.517" stroke="#FFE8CD" stroke-width="6.42819" stroke-linecap="round" stroke-linejoin="round"/>
<path d="M195.68 387.079C201.386 376.704 218.402 359.377 240.812 373.073" stroke="#FFE8CD" stroke-width="6.42819" stroke-linecap="round" stroke-linejoin="round"/>
</svg>
