<svg width="13" height="13" viewBox="0 0 13 13" fill="none" xmlns="http://www.w3.org/2000/svg">
<path d="M5.98294 12.668C4.83094 12.668 3.79894 12.412 2.88694 11.9C1.98294 11.396 1.27494 10.692 0.762938 9.788C0.258938 8.884 0.00693753 7.856 0.00693753 6.704C0.00693753 5.552 0.258938 4.52 0.762938 3.608C1.27494 2.696 1.98294 1.988 2.88694 1.484C3.79894 0.971999 4.83094 0.715999 5.98294 0.715999C7.14294 0.715999 8.17894 0.971999 9.09094 1.484C10.0109 1.996 10.7269 2.708 11.2389 3.62C11.7589 4.524 12.0189 5.552 12.0189 6.704C12.0189 7.856 11.7589 8.884 11.2389 9.788C10.7269 10.692 10.0109 11.396 9.09094 11.9C8.17894 12.412 7.14294 12.668 5.98294 12.668ZM5.53894 8.48C5.51494 8.528 5.48294 8.532 5.44294 8.492L3.88294 6.788C3.74694 6.652 3.59894 6.584 3.43894 6.584C3.25494 6.584 3.09494 6.668 2.95894 6.836C2.86294 6.956 2.81494 7.088 2.81494 7.232C2.81494 7.408 2.87494 7.556 2.99494 7.676L4.80694 9.572C5.07094 9.844 5.34294 9.98 5.62294 9.98C5.79094 9.98 5.95094 9.928 6.10294 9.824C6.25494 9.72 6.38294 9.572 6.48694 9.38L9.12694 4.604C9.19094 4.492 9.22294 4.38 9.22294 4.268C9.22294 4.06 9.13094 3.9 8.94694 3.788C8.81094 3.708 8.68294 3.668 8.56294 3.668C8.45094 3.668 8.34294 3.7 8.23894 3.764C8.14294 3.82 8.06694 3.904 8.01094 4.016L5.53894 8.48Z" fill="#1D1F20"/>
</svg>
