<svg width="14" height="14" viewBox="0 0 14 14" fill="none" xmlns="http://www.w3.org/2000/svg">
<path d="M1.58683 12.956C1.45883 13.084 1.30283 13.148 1.11883 13.148C0.942828 13.148 0.786828 13.084 0.650828 12.956C0.522828 12.828 0.458828 12.672 0.458828 12.488C0.458828 12.304 0.522828 12.148 0.650828 12.02L6.05083 6.68L0.650828 1.352C0.522828 1.224 0.458828 1.068 0.458828 0.883999C0.458828 0.699999 0.522828 0.543999 0.650828 0.416C0.786828 0.287999 0.942828 0.223999 1.11883 0.223999C1.30283 0.223999 1.45883 0.287999 1.58683 0.416L6.98683 5.756L12.3868 0.416C12.5148 0.287999 12.6708 0.223999 12.8548 0.223999C13.0388 0.223999 13.1948 0.287999 13.3228 0.416C13.4508 0.543999 13.5148 0.699999 13.5148 0.883999C13.5148 1.068 13.4508 1.224 13.3228 1.352L7.92283 6.68L13.3228 12.02C13.4508 12.148 13.5148 12.304 13.5148 12.488C13.5148 12.672 13.4508 12.828 13.3228 12.956C13.1948 13.084 13.0388 13.148 12.8548 13.148C12.6708 13.148 12.5148 13.084 12.3868 12.956L6.98683 7.616L1.58683 12.956Z" fill="white" fill-opacity="0.5"/>
</svg>
