<svg width="16" height="15" viewBox="0 0 16 15" fill="none" xmlns="http://www.w3.org/2000/svg">
<path d="M10.2667 4.54C10.3367 4.42 10.4217 4.33 10.5217 4.27C10.6317 4.2 10.7417 4.165 10.8517 4.165C10.9917 4.165 11.1267 4.21 11.2567 4.3C11.4367 4.42 11.5267 4.595 11.5267 4.825C11.5267 4.935 11.4967 5.05 11.4367 5.17L8.4967 10.57C8.2467 11.05 7.9117 11.29 7.4917 11.29C7.1917 11.29 6.9017 11.15 6.6217 10.87L4.7017 8.92C4.5617 8.79 4.4917 8.625 4.4917 8.425C4.4917 8.245 4.5467 8.095 4.6567 7.975C4.7967 7.825 4.9567 7.75 5.1367 7.75C5.2967 7.75 5.4567 7.82 5.6167 7.96L7.3117 9.715C7.3917 9.795 7.4517 9.79 7.4917 9.7L10.2667 4.54ZM7.9867 14.98C6.6367 14.98 5.3967 14.65 4.2667 13.99C3.1467 13.34 2.2567 12.45 1.5967 11.32C0.946699 10.19 0.621699 8.95 0.621699 7.6C0.621699 6.25 0.946699 5.01 1.5967 3.88C2.2567 2.75 3.1467 1.86 4.2667 1.21C5.3967 0.549999 6.6367 0.219999 7.9867 0.219999C9.3467 0.219999 10.5917 0.549999 11.7217 1.21C12.8517 1.86 13.7417 2.75 14.3917 3.88C15.0517 5.01 15.3817 6.25 15.3817 7.6C15.3817 8.95 15.0517 10.19 14.3917 11.32C13.7417 12.45 12.8517 13.34 11.7217 13.99C10.5917 14.65 9.3467 14.98 7.9867 14.98ZM7.9867 13.645C9.0967 13.645 10.1117 13.375 11.0317 12.835C11.9517 12.295 12.6767 11.565 13.2067 10.645C13.7467 9.715 14.0167 8.7 14.0167 7.6C14.0167 6.5 13.7467 5.49 13.2067 4.57C12.6767 3.64 11.9517 2.905 11.0317 2.365C10.1117 1.825 9.0967 1.555 7.9867 1.555C6.8867 1.555 5.8767 1.825 4.9567 2.365C4.0367 2.905 3.3117 3.64 2.7817 4.57C2.2517 5.49 1.9867 6.5 1.9867 7.6C1.9867 8.7 2.2517 9.715 2.7817 10.645C3.3117 11.565 4.0367 12.295 4.9567 12.835C5.8767 13.375 6.8867 13.645 7.9867 13.645Z" fill="#1D1F20"/>
</svg>
