<svg width="34" height="34" viewBox="0 0 34 34" fill="none" xmlns="http://www.w3.org/2000/svg">
<path d="M9.80859 30.6914C7.22461 30.6914 5.80273 29.3379 5.80273 26.7539V18.3594H5.70703C4.50391 18.0996 3.84766 17.1289 3.84766 15.7344V12.1387C3.84766 10.4707 4.8457 9.41797 6.44531 9.41797H9.20703C8.46875 8.69336 8.04492 7.70898 8.04492 6.57422C8.04492 3.92188 10.1504 2.03516 12.7891 2.03516C14.7168 2.03516 16.2891 3.08789 16.9863 4.91992C17.6836 3.08789 19.2695 2.03516 21.1836 2.03516C23.8359 2.03516 25.9277 3.92188 25.9277 6.57422C25.9277 7.70898 25.5039 8.69336 24.7793 9.41797H27.541C29.209 9.41797 30.1387 10.4707 30.1387 12.1387V15.7344C30.1387 17.1289 29.4688 18.0996 28.2656 18.3594H28.1699V26.7539C28.1699 29.3379 26.748 30.6914 24.1777 30.6914H9.80859ZM15.8652 9.41797V7.57227C15.8652 5.54883 14.5527 4.31836 12.9258 4.31836C11.4219 4.31836 10.3281 5.19336 10.3281 6.69727C10.3281 8.20117 11.5859 9.41797 13.7324 9.41797H15.8652ZM18.1074 9.41797H20.2402C22.4004 9.41797 23.6445 8.20117 23.6445 6.69727C23.6445 5.19336 22.5508 4.31836 21.0469 4.31836C19.4199 4.31836 18.1074 5.54883 18.1074 7.57227V9.41797ZM15.7695 16.3906V11.4824H7.00586C6.32227 11.4824 6.04883 11.7559 6.04883 12.4395V15.4199C6.04883 16.1035 6.32227 16.3906 7.00586 16.3906H15.7695ZM18.2031 16.3906H26.9941C27.6777 16.3906 27.9375 16.1035 27.9375 15.4199V12.4395C27.9375 11.7559 27.6777 11.4824 26.9941 11.4824H18.2031V16.3906ZM15.7695 28.6406V18.4551H8.00391V26.8633C8.00391 27.998 8.64648 28.6406 9.78125 28.6406H15.7695ZM18.2031 28.6406H24.1914C25.3262 28.6406 25.9688 27.998 25.9688 26.8633V18.4551H18.2031V28.6406Z" fill="white"/>
</svg>
