<svg width="12" height="12" viewBox="0 0 12 12" fill="none" xmlns="http://www.w3.org/2000/svg">
<path d="M3.65477 1.705C3.5161 1.71367 3.3991 1.67467 3.30377 1.588C3.2171 1.50133 3.17377 1.38867 3.17377 1.25C3.17377 1.12 3.2171 1.016 3.30377 0.937999C3.3991 0.851333 3.52044 0.807999 3.66777 0.807999L10.4538 0.678C10.8178 0.669333 11.1124 0.777666 11.3378 1.003C11.5631 1.22833 11.6714 1.523 11.6628 1.887L11.5328 8.725C11.5328 8.86367 11.4894 8.97633 11.4028 9.063C11.3161 9.14967 11.2034 9.193 11.0648 9.193C10.9434 9.193 10.8394 9.14967 10.7528 9.063C10.6748 8.96767 10.6358 8.84633 10.6358 8.699L10.7398 1.588L3.65477 1.705ZM1.11977 11.793C1.01577 11.9057 0.89877 11.962 0.76877 11.962C0.66477 11.962 0.569436 11.9187 0.48277 11.832C0.396103 11.7453 0.35277 11.6457 0.35277 11.533C0.35277 11.403 0.40477 11.286 0.50877 11.182L8.62077 3.083L10.6488 1.133L11.1818 1.666L9.23177 3.681L1.11977 11.793Z" fill="#1D1F20"/>
</svg>
