<svg width="644" height="288" viewBox="0 0 644 288" fill="none" xmlns="http://www.w3.org/2000/svg">
<g clip-path="url(#clip0_271_18912)">
<rect width="644" height="288" fill="#151515"/>
<g opacity="0.6" filter="url(#filter0_f_271_18912)">
<ellipse cx="317.437" cy="252.764" rx="320" ry="80" transform="rotate(0.316134 317.437 252.764)" fill="url(#paint0_linear_271_18912)"/>
</g>
<g style="mix-blend-mode:overlay" filter="url(#filter1_f_271_18912)">
<path d="M59.6392 201.468C-1.02071 50.2197 -67.0869 -125.101 257.157 118.234C770.638 503.586 620.917 128.139 575.986 1.64971" stroke="url(#paint1_linear_271_18912)" stroke-width="60.6113" stroke-linejoin="round"/>
</g>
<rect x="-78" y="47" width="120" height="70" rx="12" fill="black"/>
<g opacity="0.8">
<path d="M-22.6147 65.7134H2.28829" stroke="#D9D9D9" stroke-width="1.41111" stroke-linecap="round"/>
<rect opacity="0.3" x="-22.86" y="55.6858" width="25.4" height="6.58519" rx="0.940741" fill="#D9D9D9"/>
<path d="M7.6684 73.1727V73.1727C7.08199 73.1727 6.60661 73.648 6.60661 74.2345V78.4019C6.60661 78.7533 6.41085 79.0753 6.09896 79.237L5.70285 79.4425C5.36295 79.6187 5.36483 80.1056 5.70609 80.2792L6.0925 80.4759C6.40795 80.6364 6.60661 80.9604 6.60661 81.3143V86.1302C6.60661 86.7166 7.08199 87.192 7.6684 87.192V87.192" stroke="#D9D9D9" stroke-width="0.658518" stroke-linecap="round"/>
<path d="M10.4564 76.6776H25.6874" stroke="#D9D9D9" stroke-width="0.940741" stroke-linecap="round"/>
<path d="M10.4564 83.6872H21.9676" stroke="#D9D9D9" stroke-width="0.940741" stroke-linecap="round"/>
<path d="M7.6684 54V54C7.08199 54 6.60661 54.4754 6.60661 55.0618V59.2293C6.60661 59.5806 6.41085 59.9026 6.09896 60.0644L5.70285 60.2698C5.36295 60.4461 5.36483 60.933 5.70609 61.1066L6.0925 61.3032C6.40795 61.4637 6.60661 61.7877 6.60661 62.1417V66.9576C6.60661 67.544 7.08199 68.0193 7.6684 68.0193V68.0193" stroke="#D9D9D9" stroke-width="0.658518" stroke-linecap="round"/>
<path d="M10.4564 57.5049H25.6874" stroke="#D9D9D9" stroke-width="0.940741" stroke-linecap="round"/>
<path d="M10.4564 64.5145H21.9676" stroke="#D9D9D9" stroke-width="0.940741" stroke-linecap="round"/>
<path d="M7.6684 92.3453V92.3453C7.08199 92.3453 6.60661 92.8207 6.60661 93.4071V97.5746C6.60661 97.9259 6.41085 98.2479 6.09896 98.4097L5.70285 98.6151C5.36295 98.7914 5.36483 99.2782 5.70609 99.4519L6.0925 99.6485C6.40795 99.809 6.60661 100.133 6.60661 100.487V105.303C6.60661 105.889 7.08199 106.365 7.6684 106.365V106.365" stroke="#D9D9D9" stroke-width="0.658518" stroke-linecap="round"/>
<path d="M10.4564 95.8502H25.6874" stroke="#D9D9D9" stroke-width="0.940741" stroke-linecap="round"/>
<path d="M10.4564 102.86H21.9676" stroke="#D9D9D9" stroke-width="0.940741" stroke-linecap="round"/>
<rect opacity="0.3" x="-22.86" y="76.3821" width="25.4" height="6.58519" rx="0.940741" fill="#D9D9D9"/>
<rect opacity="0.3" x="-22.86" y="92.3747" width="25.4" height="6.58519" rx="0.940741" fill="#D9D9D9"/>
<path d="M-22.6147 102.291H2.28829" stroke="#D9D9D9" stroke-width="1.41111" stroke-linecap="round"/>
</g>
<rect x="-78" y="123" width="120" height="70" rx="12" fill="black"/>
<g opacity="0.8">
<rect opacity="0.3" x="-27.3704" y="136" width="29.163" height="9.40741" rx="4.7037" fill="#D9D9D9"/>
<rect opacity="0.3" x="-27.3704" y="153.874" width="29.163" height="9.40741" rx="4.7037" fill="#D9D9D9"/>
<rect opacity="0.3" x="-27.3704" y="171.748" width="29.163" height="9.40741" rx="4.7037" fill="#D9D9D9"/>
<rect opacity="0.3" x="7.43701" y="136" width="21.637" height="3.76296" rx="1.88148" fill="#D9D9D9"/>
<rect opacity="0.3" x="7.43701" y="141.644" width="13.1704" height="3.76296" rx="1.88148" fill="#D9D9D9"/>
<path d="M5.55555 136H4.27356C3.94247 136 3.67407 136.268 3.67407 136.599V144.808C3.67407 145.139 3.94247 145.407 4.27356 145.407H5.55555" stroke="#D9D9D9" stroke-width="0.599492" stroke-linecap="round"/>
<path d="M3.67408 140.704L1.7926 140.704" stroke="#D9D9D9" stroke-width="0.599492"/>
<rect opacity="0.3" x="7.43701" y="153.874" width="21.637" height="3.76296" rx="1.88148" fill="#D9D9D9"/>
<rect opacity="0.3" x="7.43701" y="159.519" width="13.1704" height="3.76296" rx="1.88148" fill="#D9D9D9"/>
<path d="M5.55555 153.874H4.27356C3.94247 153.874 3.67407 154.142 3.67407 154.474V162.682C3.67407 163.013 3.94247 163.281 4.27356 163.281H5.55555" stroke="#D9D9D9" stroke-width="0.599492" stroke-linecap="round"/>
<path d="M3.67408 158.578L1.7926 158.578" stroke="#D9D9D9" stroke-width="0.599492"/>
<rect opacity="0.3" x="7.43701" y="171.748" width="21.637" height="3.76296" rx="1.88148" fill="#D9D9D9"/>
<rect opacity="0.3" x="7.43701" y="177.393" width="13.1704" height="3.76296" rx="1.88148" fill="#D9D9D9"/>
<path d="M5.55555 171.748H4.27356C3.94247 171.748 3.67407 172.017 3.67407 172.348V180.556C3.67407 180.887 3.94247 181.156 4.27356 181.156H5.55555" stroke="#D9D9D9" stroke-width="0.599492" stroke-linecap="round"/>
<path d="M3.67408 176.452L1.7926 176.452" stroke="#D9D9D9" stroke-width="0.599492"/>
</g>
<rect x="-78" y="199" width="120" height="70" rx="12" fill="black"/>
<g opacity="0.8">
<path d="M30 235.14C30.3762 235.14 30.6812 234.835 30.6812 234.459C30.6812 234.083 30.3762 233.778 30 233.778V235.14ZM-43.5736 235.14H30V233.778H-43.5736V235.14Z" fill="#D9D9D9"/>
<path d="M5.47546 234.459L10.017 229.009" stroke="#D9D9D9" stroke-width="1.36247"/>
<rect width="25.4328" height="9.08316" rx="1.81663" transform="matrix(1 -8.74228e-08 -8.74228e-08 -1 -18.1407 258.076)" stroke="#D9D9D9" stroke-width="1.36247"/>
<rect x="3.65881" y="219.926" width="25.4328" height="9.08316" rx="1.81663" stroke="#D9D9D9" stroke-width="1.36247"/>
<rect x="-2.69934" y="239.001" width="17.258" height="5.44989" rx="0.908316" fill="#343434"/>
</g>
<rect x="-78" y="275" width="120" height="70" rx="12" fill="black"/>
<rect x="57" y="4" width="120" height="70" rx="12" fill="black"/>
<g opacity="0.8">
<path d="M138.938 44.3067H111.977C111.894 44.3067 111.827 44.2396 111.827 44.1568V33.8029C111.827 33.7201 111.894 33.653 111.977 33.653H135.836C135.876 33.653 135.914 33.6688 135.942 33.6969L139.044 36.7994C139.073 36.8275 139.088 36.8656 139.088 36.9054V44.1568C139.088 44.2396 139.021 44.3067 138.938 44.3067Z" stroke="#D9D9D9" stroke-width="0.899237"/>
<path d="M135.346 33.5843V36.5817C135.346 36.9128 135.615 37.1812 135.946 37.1812H138.943" stroke="#D9D9D9" stroke-width="0.899237"/>
<path d="M138.938 26.1033H111.977C111.894 26.1033 111.827 26.0362 111.827 25.9534V15.5995C111.827 15.5167 111.894 15.4496 111.977 15.4496H135.836C135.876 15.4496 135.914 15.4654 135.942 15.4935L139.044 18.596C139.073 18.6241 139.088 18.6622 139.088 18.702V25.9534C139.088 26.0362 139.021 26.1033 138.938 26.1033Z" stroke="#D9D9D9" stroke-width="0.899237"/>
<path d="M135.346 15.0001V18.1199C135.346 18.451 135.615 18.7194 135.946 18.7194H139.065" stroke="#D9D9D9" stroke-width="0.899237"/>
<path d="M138.938 62.0728H111.977C111.894 62.0728 111.827 62.0057 111.827 61.9229V51.569C111.827 51.4862 111.894 51.4191 111.977 51.4191H135.836C135.876 51.4191 135.914 51.4349 135.942 51.463L139.044 54.5655C139.073 54.5936 139.088 54.6317 139.088 54.6714V61.9229C139.088 62.0056 139.021 62.0728 138.938 62.0728Z" stroke="#D9D9D9" stroke-width="0.899237"/>
<path d="M135.346 51.5689V54.6887C135.346 55.0198 135.615 55.2882 135.946 55.2882H139.065" stroke="#D9D9D9" stroke-width="0.899237"/>
<path d="M89.1863 32.3851V22.1938C89.1863 21.8627 89.4547 21.5943 89.7858 21.5943H111.367" stroke="#D9D9D9" stroke-width="0.599492"/>
<path d="M89.1863 44.9744V56.3648C89.1863 56.6959 89.4547 56.9643 89.7858 56.9643H111.367" stroke="#D9D9D9" stroke-width="0.599492"/>
<path d="M111.368 38.3798L106.572 38.3798" stroke="#D9D9D9" stroke-width="0.599492"/>
<mask id="path-51-inside-1_271_18912" fill="white">
<rect x="73" y="32.0043" width="31.8797" height="11.1579" rx="0.599492"/>
</mask>
<rect x="73" y="32.0043" width="31.8797" height="11.1579" rx="0.599492" stroke="#D9D9D9" stroke-width="1.79847" mask="url(#path-51-inside-1_271_18912)"/>
<path d="M74.5941 42.631V44.1568C74.5941 44.4879 74.8625 44.7563 75.1936 44.7563H105.874C106.205 44.7563 106.474 44.4879 106.474 44.1568V34.1979C106.474 33.8669 106.205 33.5984 105.874 33.5984H104.083" stroke="#D9D9D9" stroke-width="0.899237"/>
<path d="M160.526 34.1292H143.326C142.995 34.1292 142.726 34.3976 142.726 34.7287V42.2966C142.726 42.6277 142.995 42.8961 143.326 42.8961H160.526" stroke="#D9D9D9" stroke-width="0.599492" stroke-linecap="round"/>
<path d="M142.461 38.8049H139.538" stroke="#D9D9D9" stroke-width="0.599492"/>
<path d="M160.526 15.9258H143.326C142.995 15.9258 142.726 16.1942 142.726 16.5253V24.0932C142.726 24.4243 142.995 24.6927 143.326 24.6927H160.526" stroke="#D9D9D9" stroke-width="0.599492" stroke-linecap="round"/>
<path d="M142.461 20.6014H139.538" stroke="#D9D9D9" stroke-width="0.599492"/>
<path d="M160.526 51.8952H143.326C142.995 51.8952 142.726 52.1636 142.726 52.4947V60.0627C142.726 60.3937 142.995 60.6621 143.326 60.6621H160.526" stroke="#D9D9D9" stroke-width="0.599492" stroke-linecap="round"/>
<path d="M142.461 56.5709H139.538" stroke="#D9D9D9" stroke-width="0.599492"/>
</g>
<rect x="57" y="80" width="120" height="70" rx="12" fill="black"/>
<g opacity="0.8">
<rect x="79" y="90" width="76.2" height="9.40741" stroke="#D9D9D9" stroke-width="0.940741"/>
<rect x="79" y="99.4074" width="25.4" height="20.6963" stroke="#D9D9D9" stroke-width="0.940741"/>
<rect x="104.4" y="99.4074" width="24.4593" height="10.3481" stroke="#D9D9D9" stroke-width="0.940741"/>
<rect x="104.4" y="109.756" width="24.4593" height="10.3481" stroke="#D9D9D9" stroke-width="0.940741"/>
<rect x="104.4" y="120.104" width="24.4593" height="10.3481" stroke="#D9D9D9" stroke-width="0.940741"/>
<rect x="104.4" y="130.452" width="24.4593" height="10.3481" stroke="#D9D9D9" stroke-width="0.940741"/>
<rect x="128.859" y="99.4074" width="26.3407" height="6.58519" stroke="#D9D9D9" stroke-width="0.940741"/>
<rect x="128.859" y="105.993" width="26.3407" height="7.52593" stroke="#D9D9D9" stroke-width="0.940741"/>
<rect x="128.859" y="113.519" width="26.3407" height="6.58519" stroke="#D9D9D9" stroke-width="0.940741"/>
<rect x="128.859" y="120.104" width="26.3407" height="6.58519" stroke="#D9D9D9" stroke-width="0.940741"/>
<rect x="128.859" y="126.689" width="26.3407" height="7.52593" stroke="#D9D9D9" stroke-width="0.940741"/>
<rect x="128.859" y="134.215" width="26.3407" height="6.58519" stroke="#D9D9D9" stroke-width="0.940741"/>
<rect x="79" y="120.104" width="25.4" height="20.6963" stroke="#D9D9D9" stroke-width="0.940741"/>
</g>
<rect x="57" y="156" width="120" height="70" rx="12" fill="black"/>
<g opacity="0.8">
<rect x="137.028" y="171" width="27.0463" height="9.40741" rx="1.88148" fill="#343434"/>
<rect x="70" y="171" width="27.0463" height="9.40741" rx="1.88148" fill="#343434"/>
<rect x="137.028" y="186.993" width="27.0463" height="9.40741" rx="1.88148" fill="#343434"/>
<rect x="70" y="186.993" width="27.0463" height="9.40741" rx="1.88148" fill="#343434"/>
<path d="M97.2622 175.518C101.156 175.487 108.944 177.795 108.944 187.279" stroke="#D9D9D9" stroke-width="1.41111"/>
<path d="M136.812 175.518C132.918 175.488 125.13 177.74 125.13 186.993" stroke="#D9D9D9" stroke-width="1.41111"/>
<path d="M97.0463 207.725C100.94 207.757 108.728 205.448 108.728 195.965" stroke="#D9D9D9" stroke-width="1.41111"/>
<path d="M137.028 207.725C133.134 207.755 125.346 205.532 125.346 196.4" stroke="#D9D9D9" stroke-width="1.41111"/>
<path d="M102.455 191.696H97.1252" stroke="#D9D9D9" stroke-width="1.41111"/>
<path d="M131.618 191.696H136.949" stroke="#D9D9D9" stroke-width="1.41111"/>
<rect x="137.028" y="202.985" width="27.0463" height="9.40741" rx="1.88148" fill="#343434"/>
<rect x="70" y="202.985" width="27.0463" height="9.40741" rx="1.88148" fill="#343434"/>
<rect x="102.456" y="185.8" width="29.163" height="11.7923" rx="1.88148" fill="#343434"/>
</g>
<rect x="57" y="232" width="120" height="70" rx="12" fill="black"/>
<g opacity="0.8">
<rect x="137.028" y="247" width="27.0463" height="9.40741" rx="1.88148" stroke="#D9D9D9"/>
<rect x="70" y="247" width="27.0463" height="9.40741" rx="1.88148" stroke="#D9D9D9"/>
<rect x="137.028" y="262.993" width="27.0463" height="9.40741" rx="1.88148" stroke="#D9D9D9"/>
<rect x="70" y="262.993" width="27.0463" height="9.40741" rx="1.88148" stroke="#D9D9D9"/>
<path d="M97.2622 251.518C101.156 251.487 108.944 253.796 108.944 263.279" stroke="#D9D9D9" stroke-width="1.41111"/>
<path d="M136.812 251.518C132.918 251.488 125.13 253.74 125.13 262.993" stroke="#D9D9D9" stroke-width="1.41111"/>
<path d="M97.0463 283.725C100.94 283.757 108.728 281.448 108.728 271.965" stroke="#D9D9D9" stroke-width="1.41111"/>
<path d="M137.028 283.725C133.134 283.755 125.346 281.532 125.346 272.4" stroke="#D9D9D9" stroke-width="1.41111"/>
<path d="M102.455 267.696H97.1252" stroke="#D9D9D9" stroke-width="1.41111"/>
<path d="M131.618 267.696H136.949" stroke="#D9D9D9" stroke-width="1.41111"/>
<rect x="137.028" y="278.985" width="27.0463" height="9.40741" rx="1.88148" stroke="#D9D9D9"/>
<rect x="70" y="278.985" width="27.0463" height="9.40741" rx="1.88148" stroke="#D9D9D9"/>
<rect x="102.456" y="261.8" width="29.163" height="11.7923" rx="1.88148" fill="#343434"/>
</g>
<rect x="192" y="57" width="120" height="70" rx="12" fill="black"/>
<g opacity="0.8">
<g opacity="0.8">
<path d="M208.018 85.9716L221.784 83.1727V89.5301H208.018V85.9716Z" fill="#D9D9D9"/>
<path d="M235.549 85.9716L221.784 83.1727V89.5301H235.549V85.9716Z" fill="#D9D9D9"/>
<path d="M235.531 93.0885L221.765 95.8874L221.765 89.53L235.531 89.5301L235.531 93.0885Z" fill="#D9D9D9"/>
<path d="M208 93.0886L221.765 95.8875L221.765 89.5301L208 89.5301L208 93.0886Z" fill="#D9D9D9"/>
</g>
<path d="M243.396 68.5958H242.604C241.565 68.5958 240.722 69.4382 240.722 70.4773V87.2354C240.722 87.9068 240.365 88.5273 239.783 88.8637L239.415 89.0772C239.115 89.2506 239.099 89.6771 239.385 89.8725L239.903 90.2273C240.416 90.578 240.722 91.159 240.722 91.7801V110.409C240.722 111.448 241.565 112.291 242.604 112.291H243.396" stroke="#D9D9D9" stroke-width="0.940741" stroke-linecap="round"/>
<path d="M247.385 75.7134H272.288" stroke="#D9D9D9" stroke-width="1.41111" stroke-linecap="round"/>
<rect opacity="0.3" x="247.14" y="65.6858" width="25.4" height="6.58519" rx="0.940741" fill="#D9D9D9"/>
<path d="M277.668 83.1727V83.1727C277.082 83.1727 276.607 83.648 276.607 84.2345V88.4019C276.607 88.7533 276.411 89.0753 276.099 89.237L275.703 89.4425C275.363 89.6187 275.365 90.1056 275.706 90.2792L276.092 90.4759C276.408 90.6364 276.607 90.9604 276.607 91.3143V96.1302C276.607 96.7166 277.082 97.192 277.668 97.192V97.192" stroke="#D9D9D9" stroke-width="0.658518" stroke-linecap="round"/>
<path d="M280.456 86.6776H295.687" stroke="#D9D9D9" stroke-width="0.940741" stroke-linecap="round"/>
<path d="M280.456 93.6872H291.968" stroke="#D9D9D9" stroke-width="0.940741" stroke-linecap="round"/>
<path d="M277.668 64V64C277.082 64 276.607 64.4754 276.607 65.0618V69.2293C276.607 69.5806 276.411 69.9026 276.099 70.0644L275.703 70.2698C275.363 70.4461 275.365 70.933 275.706 71.1066L276.092 71.3032C276.408 71.4637 276.607 71.7877 276.607 72.1417V76.9576C276.607 77.544 277.082 78.0193 277.668 78.0193V78.0193" stroke="#D9D9D9" stroke-width="0.658518" stroke-linecap="round"/>
<path d="M280.456 67.5049H295.687" stroke="#D9D9D9" stroke-width="0.940741" stroke-linecap="round"/>
<path d="M280.456 74.5145H291.968" stroke="#D9D9D9" stroke-width="0.940741" stroke-linecap="round"/>
<path d="M277.668 102.345V102.345C277.082 102.345 276.607 102.821 276.607 103.407V107.575C276.607 107.926 276.411 108.248 276.099 108.41L275.703 108.615C275.363 108.791 275.365 109.278 275.706 109.452L276.092 109.649C276.408 109.809 276.607 110.133 276.607 110.487V115.303C276.607 115.889 277.082 116.365 277.668 116.365V116.365" stroke="#D9D9D9" stroke-width="0.658518" stroke-linecap="round"/>
<path d="M280.456 105.85H295.687" stroke="#D9D9D9" stroke-width="0.940741" stroke-linecap="round"/>
<path d="M280.456 112.86H291.968" stroke="#D9D9D9" stroke-width="0.940741" stroke-linecap="round"/>
<rect opacity="0.3" x="247.14" y="86.3821" width="25.4" height="6.58519" rx="0.940741" fill="#D9D9D9"/>
<rect opacity="0.3" x="247.14" y="102.375" width="25.4" height="6.58519" rx="0.940741" fill="#D9D9D9"/>
<path d="M247.385 112.291H272.288" stroke="#D9D9D9" stroke-width="1.41111" stroke-linecap="round"/>
</g>
<rect x="192" y="133" width="120" height="70" rx="12" fill="black"/>
<g opacity="0.8">
<path d="M222.874 161.993V154.467C222.874 152.388 224.559 150.704 226.637 150.704H242.63" stroke="#D9D9D9" stroke-width="0.940741"/>
<path d="M222.874 174.222V182.689C222.874 184.767 224.559 186.452 226.637 186.452H242.63" stroke="#D9D9D9" stroke-width="0.940741"/>
<path d="M242.63 168.578L238.867 168.578" stroke="#D9D9D9" stroke-width="0.940741"/>
<rect x="205.47" y="162.463" width="32.9259" height="12.2296" rx="6.11482" stroke="#D9D9D9" stroke-width="0.940741"/>
<rect opacity="0.3" x="242.63" y="146" width="29.163" height="9.40741" rx="4.7037" fill="#D9D9D9"/>
<rect opacity="0.3" x="242.63" y="163.874" width="29.163" height="9.40741" rx="4.7037" fill="#D9D9D9"/>
<rect opacity="0.3" x="242.63" y="181.748" width="29.163" height="9.40741" rx="4.7037" fill="#D9D9D9"/>
<rect opacity="0.3" x="277.437" y="146" width="21.637" height="3.76296" rx="1.88148" fill="#D9D9D9"/>
<rect opacity="0.3" x="277.437" y="151.644" width="13.1704" height="3.76296" rx="1.88148" fill="#D9D9D9"/>
<path d="M275.556 146H274.274C273.942 146 273.674 146.268 273.674 146.599V154.808C273.674 155.139 273.942 155.407 274.274 155.407H275.556" stroke="#D9D9D9" stroke-width="0.599492" stroke-linecap="round"/>
<path d="M273.674 150.704L271.793 150.704" stroke="#D9D9D9" stroke-width="0.599492"/>
<rect opacity="0.3" x="277.437" y="163.874" width="21.637" height="3.76296" rx="1.88148" fill="#D9D9D9"/>
<rect opacity="0.3" x="277.437" y="169.519" width="13.1704" height="3.76296" rx="1.88148" fill="#D9D9D9"/>
<path d="M275.556 163.874H274.274C273.942 163.874 273.674 164.142 273.674 164.474V172.682C273.674 173.013 273.942 173.281 274.274 173.281H275.556" stroke="#D9D9D9" stroke-width="0.599492" stroke-linecap="round"/>
<path d="M273.674 168.578L271.793 168.578" stroke="#D9D9D9" stroke-width="0.599492"/>
<rect opacity="0.3" x="277.437" y="181.748" width="21.637" height="3.76296" rx="1.88148" fill="#D9D9D9"/>
<rect opacity="0.3" x="277.437" y="187.393" width="13.1704" height="3.76296" rx="1.88148" fill="#D9D9D9"/>
<path d="M275.556 181.748H274.274C273.942 181.748 273.674 182.017 273.674 182.348V190.556C273.674 190.887 273.942 191.156 274.274 191.156H275.556" stroke="#D9D9D9" stroke-width="0.599492" stroke-linecap="round"/>
<path d="M273.674 186.452L271.793 186.452" stroke="#D9D9D9" stroke-width="0.599492"/>
</g>
<rect x="192" y="209" width="120" height="70" rx="12" fill="black"/>
<g opacity="0.8">
<path d="M300 245.14C300.376 245.14 300.681 244.835 300.681 244.459C300.681 244.083 300.376 243.778 300 243.778V245.14ZM226.426 245.14H300V243.778H226.426V245.14Z" fill="#D9D9D9"/>
<path d="M275.475 244.459L280.017 239.009" stroke="#D9D9D9" stroke-width="1.36247"/>
<path d="M205.989 239.918H204.627C204.125 239.918 203.719 240.324 203.719 240.826V248.547C203.719 249.048 204.125 249.455 204.627 249.455H205.989" stroke="#D9D9D9" stroke-width="1.36247" stroke-linecap="round"/>
<path d="M223.701 249.455L225.064 249.455C225.566 249.455 225.972 249.048 225.972 248.547L225.972 240.826C225.972 240.324 225.566 239.918 225.064 239.918L223.701 239.918" stroke="#D9D9D9" stroke-width="1.36247" stroke-linecap="round"/>
<rect x="209.168" y="241.877" width="10.8998" height="5.44989" rx="1.81663" fill="#343434"/>
<path d="M248.226 237.874C248.602 237.874 248.907 237.569 248.907 237.193C248.907 236.817 248.602 236.512 248.226 236.512V237.874ZM241.868 237.874H248.226V236.512H241.868V237.874Z" fill="#D9D9D9"/>
<path d="M236.418 244.459L248.226 229.926" stroke="#D9D9D9" stroke-width="1.36247"/>
<rect x="234.601" y="220.843" width="25.4328" height="9.08316" rx="1.81663" stroke="#D9D9D9" stroke-width="1.36247"/>
<path d="M265.484 252.407C265.86 252.407 266.165 252.102 266.165 251.726C266.165 251.35 265.86 251.045 265.484 251.045L265.484 252.407ZM260.034 252.407L265.484 252.407L265.484 251.045L260.034 251.045L260.034 252.407Z" fill="#D9D9D9"/>
<path d="M253.676 244.459L265.484 258.992" stroke="#D9D9D9" stroke-width="1.36247"/>
<rect width="25.4328" height="9.08316" rx="1.81663" transform="matrix(1 -8.74228e-08 -8.74228e-08 -1 251.859 268.076)" stroke="#D9D9D9" stroke-width="1.36247"/>
<rect x="273.659" y="229.926" width="25.4328" height="9.08316" rx="1.81663" stroke="#D9D9D9" stroke-width="1.36247"/>
<rect x="250.043" y="234.468" width="17.258" height="5.44989" rx="0.908316" fill="#343434"/>
<rect x="267.301" y="249.001" width="17.258" height="5.44989" rx="0.908316" fill="#343434"/>
</g>
<rect x="192" y="285" width="120" height="70" rx="12" fill="black"/>
</g>
<defs>
<filter id="filter0_f_271_18912" x="-139.017" y="36.2874" width="912.908" height="432.954" filterUnits="userSpaceOnUse" color-interpolation-filters="sRGB">
<feFlood flood-opacity="0" result="BackgroundImageFix"/>
<feBlend mode="normal" in="SourceGraphic" in2="BackgroundImageFix" result="shape"/>
<feGaussianBlur stdDeviation="68.2292" result="effect1_foregroundBlur_271_18912"/>
</filter>
<filter id="filter1_f_271_18912" x="-60.7432" y="-72.7564" width="762.227" height="430.611" filterUnits="userSpaceOnUse" color-interpolation-filters="sRGB">
<feFlood flood-opacity="0" result="BackgroundImageFix"/>
<feBlend mode="normal" in="SourceGraphic" in2="BackgroundImageFix" result="shape"/>
<feGaussianBlur stdDeviation="20" result="effect1_foregroundBlur_271_18912"/>
</filter>
<linearGradient id="paint0_linear_271_18912" x1="-2.56345" y1="187.17" x2="638.547" y2="192.221" gradientUnits="userSpaceOnUse">
<stop stop-color="#6B68FF"/>
<stop offset="1" stop-color="#37FF63"/>
</linearGradient>
<linearGradient id="paint1_linear_271_18912" x1="-262.155" y1="886.47" x2="280.621" y2="-1475.33" gradientUnits="userSpaceOnUse">
<stop stop-color="white" stop-opacity="0"/>
<stop offset="1" stop-color="white"/>
</linearGradient>
<clipPath id="clip0_271_18912">
<rect width="644" height="288" fill="white"/>
</clipPath>
</defs>
</svg>
