<svg width="16" height="15" viewBox="0 0 16 15" fill="none" xmlns="http://www.w3.org/2000/svg">
<path d="M7.9867 14.995C6.5667 14.995 5.2967 14.68 4.1767 14.05C3.0567 13.43 2.1817 12.565 1.5517 11.455C0.931699 10.335 0.621699 9.065 0.621699 7.645C0.621699 6.215 0.931699 4.94 1.5517 3.82C2.1817 2.7 3.0567 1.825 4.1767 1.195C5.2967 0.564999 6.5667 0.25 7.9867 0.25C9.4167 0.25 10.6967 0.564999 11.8267 1.195C12.9567 1.825 13.8367 2.7 14.4667 3.82C15.0967 4.94 15.4117 6.215 15.4117 7.645C15.4117 9.065 15.0967 10.335 14.4667 11.455C13.8367 12.565 12.9567 13.43 11.8267 14.05C10.6967 14.68 9.4167 14.995 7.9867 14.995ZM7.4617 10C7.4217 10.09 7.3617 10.095 7.2817 10.015L5.2717 7.78C5.1217 7.63 4.9617 7.555 4.7917 7.555C4.6017 7.555 4.4367 7.64 4.2967 7.81C4.1867 7.95 4.1317 8.095 4.1317 8.245C4.1317 8.415 4.2017 8.57 4.3417 8.71L6.5917 11.125C6.8717 11.435 7.1717 11.59 7.4917 11.59C7.6717 11.59 7.8417 11.53 8.0017 11.41C8.1717 11.29 8.3217 11.12 8.4517 10.9L11.7967 4.9C11.8667 4.79 11.9017 4.665 11.9017 4.525C11.9017 4.305 11.8067 4.14 11.6167 4.03C11.4967 3.95 11.3617 3.91 11.2117 3.91C11.0917 3.91 10.9817 3.94 10.8817 4C10.7817 4.06 10.6967 4.145 10.6267 4.255L7.4617 10Z" fill="white"/>
</svg>
