<svg width="512" height="512" viewBox="0 0 512 512" fill="none" xmlns="http://www.w3.org/2000/svg">
<g clip-path="url(#clip0_39_186)">
<path d="M98.1962 158.194L103.707 154.178C105.102 156.091 106.143 157.464 106.997 158.459C107.008 158.472 107.019 158.484 107.03 158.497C109.444 157.252 112.142 157.53 114.108 158.601C114.509 158.82 114.901 159.084 115.274 159.391C121.275 156.221 127.724 153.367 134.63 150.856C146.635 146.491 157.385 142.326 167.091 138.238L158.553 101.878C156.579 93.4725 161.773 84.9996 170.158 82.9434L229.377 68.4223C237.781 66.3618 246.206 71.5243 248.184 79.948L249.233 84.4136C268.037 70.5639 289.387 67.3923 308.165 66.6707C308.451 64.6653 309.546 62.9801 310.764 61.9326C312.683 60.2833 316.109 59.1805 319.43 61.0528M98.1962 158.194L56.1568 189.263C50.6385 184.075 41.7001 188.952 43.1057 196.413C43.4234 198.099 43.6211 199.222 43.7222 200.026M98.1962 158.194L103.707 154.178M98.1962 158.194L103.707 154.178M319.43 61.0528L316.246 66.702L319.43 61.0527C319.43 61.0527 319.43 61.0527 319.43 61.0528ZM319.43 61.0528C320.684 61.7595 321.365 61.9662 321.647 62.0233C321.662 62.0263 321.675 62.0289 321.686 62.031C321.801 61.9768 322.059 61.8374 322.508 61.5073C323.219 60.9854 324.027 60.2813 325.289 59.1707L325.325 59.1389C326.543 58.066 328.051 56.7386 329.855 55.3245C335.456 50.9343 342.693 55.9492 341.924 62.1676C341.526 65.3956 341.651 67.5049 341.993 68.9405C359.841 73.5316 374.806 84.5463 389.271 102.414C396.242 111.025 401.681 120.648 406.74 129.782C410.791 125.198 418.827 126.681 420.559 133.099L422.711 141.072L430.851 142.461C438.1 143.697 440.067 153.185 433.907 157.201L427.298 161.51C431.83 166.54 437 170.898 443.254 174.348C470.634 189.454 481.448 224.169 477.184 262.003C472.877 300.224 453.182 343.638 416.748 379.494C397.215 398.718 373.161 415.24 346.796 427.534C335.2 438.951 320.049 446.423 303.029 447.645C301.309 447.768 299.598 447.826 297.897 447.82L297.915 448.062L291.113 448.55L208.674 454.467L201.873 454.955L201.867 454.884C201.241 454.944 200.612 454.996 199.982 455.042C163.032 457.694 129.978 434.87 121.368 401.617C120.548 400.813 119.733 399.999 118.922 399.173C72.1189 351.529 52.745 309.468 52.745 264.303C52.745 259.008 53.0348 253.76 53.6289 248.584C53.3577 248.475 53.102 248.355 52.8644 248.229C50.773 247.113 48.5837 244.699 48.5121 241.223C48.5031 240.79 48.4448 240.535 48.4066 240.411C48.3872 240.348 48.3702 240.31 48.3605 240.29C48.351 240.271 48.3446 240.261 48.342 240.258C48.3409 240.256 48.3252 240.232 48.2628 240.185C48.1946 240.133 48.0596 240.046 47.8254 239.949C46.6976 239.48 44.5887 239.292 42.0441 239.714C37.8255 240.413 34.964 237.723 33.8144 235.883C32.6681 234.048 31.4519 230.18 34.1156 226.66M34.1156 226.66L39.5538 230.774L34.1156 226.66C34.1156 226.66 34.1156 226.66 34.1156 226.66ZM34.1156 226.66C36.3943 223.648 36.3107 222.32 36.1893 221.79C35.9979 220.954 34.9627 218.82 30.0006 215.482C26.7567 213.3 26.0515 209.595 26.7951 206.843C27.543 204.076 30.0628 201.184 34.0437 201.003C38.3732 200.806 41.2245 200.53 43.1131 200.158C43.3422 200.113 43.5444 200.068 43.7222 200.026M43.7222 200.026C43.7774 200.465 43.8038 200.809 43.8052 201.098C43.8058 201.216 43.8019 201.267 43.8037 201.267C43.8101 201.268 43.8929 200.578 44.556 199.925C44.7355 199.748 44.8616 199.675 44.8602 199.672C44.8581 199.669 44.5643 199.826 43.7222 200.026ZM61.7798 239.03C60.7658 239.677 59.7933 240.345 58.885 241.009C58.3602 241.393 57.8568 241.775 57.3791 242.152L61.7798 239.03ZM61.7798 239.03C61.841 239.189 61.8958 239.354 61.9433 239.525C61.8485 240 61.7565 240.475 61.6674 240.952C61.3269 242.775 61.0286 244.611 60.7718 246.459L61.7798 239.03ZM73.1111 195.811L76.4988 194.508C76.8303 195.37 77.1436 196.206 77.4369 196.989L77.4417 197.002C77.8493 198.09 78.2127 199.055 78.5558 199.925C76.9981 202.166 75.5414 204.456 74.1837 206.792C73.6733 205.847 73.2077 204.839 72.7586 203.772C73.6897 202.156 74.2688 200.406 74.66 198.801C74.2658 200.419 73.2887 201.567 72.1504 202.272C71.7883 201.35 71.4286 200.39 71.0557 199.394C71.0137 199.282 70.9716 199.17 70.9294 199.057C71.1464 198.721 71.3655 198.386 71.5866 198.052C72.0844 197.3 72.5926 196.553 73.1111 195.811ZM73.1111 195.811L76.4988 194.508C76.2203 193.784 75.8643 193.147 75.4505 192.592C74.6485 193.653 73.8688 194.727 73.1111 195.811ZM62.5455 195.849C63.4526 195.552 64.1443 195.749 64.1458 195.743C64.146 195.743 64.1375 195.74 64.1196 195.733C63.788 195.61 63.0576 195.213 61.839 194.28C61.6652 194.685 61.5203 195.115 61.4091 195.572L62.5455 195.849ZM62.5455 195.849C62.2426 195.948 61.9157 196.102 61.5825 196.337C61.1211 196.663 60.9515 196.945 60.9512 196.945C60.9509 196.945 61.1595 196.596 61.409 195.572L62.5455 195.849ZM86.0717 163.251C86.0716 163.251 86.0716 163.251 86.0716 163.251L86.5139 169.904L86.0717 163.251ZM86.0717 163.251C87.3183 163.168 88.2055 162.683 88.7329 162.125M86.0717 163.251L88.7329 162.125M103.707 154.178C100.621 149.944 95.8736 151.152 94.4243 151.777M103.707 154.178L94.4243 151.777M94.4243 151.777C92.8694 152.448 89.4127 154.731 89.6128 159.243M94.4243 151.777L89.6128 159.243M89.6128 159.243C89.6804 160.767 89.2063 161.624 88.7329 162.125M89.6128 159.243L88.7329 162.125M46.0358 232.7C45.8754 233.403 45.5541 234.145 44.9949 234.885C45.5158 234.196 46.0199 233.479 46.494 232.735C46.3418 232.721 46.189 232.71 46.0358 232.7ZM53.8604 236.251C53.6232 236.432 53.3905 236.613 53.1627 236.792C53.4041 236.602 53.6483 236.438 53.8935 236.297C53.8825 236.282 53.8715 236.267 53.8604 236.251ZM426.458 145.776L426.451 145.781C426.453 145.78 426.456 145.778 426.458 145.776ZM62.0208 239.14C62.0109 239.059 62.0004 238.978 61.9893 238.897C62.0203 238.878 62.0514 238.858 62.0825 238.839C62.0618 238.939 62.0412 239.04 62.0208 239.14ZM42.3477 225.943C42.2973 226.077 42.2443 226.21 42.1888 226.345C41.5024 226.167 40.7108 226.11 39.8135 226.259C40.6102 226.127 41.4604 226.017 42.3477 225.943ZM85.7488 178.136C85.2318 177.954 84.7418 177.788 84.2852 177.639C84.811 177.811 85.277 178.034 85.6885 178.294C85.7092 178.241 85.7293 178.189 85.7488 178.136ZM82.464 184.219C82.2935 184.403 82.1239 184.587 81.955 184.772C80.5437 186.317 79.1862 187.89 77.8818 189.492C78.495 189.948 79.2148 190.332 80.0536 190.605C81.2248 190.987 82.771 191.545 84.479 192.223C86.0305 190.394 87.6588 188.605 89.3651 186.858C88.9808 186.695 88.5987 186.535 88.2207 186.38C87.4744 187.082 86.638 187.738 85.7092 188.336C86.6508 187.73 87.3015 186.973 87.7332 186.181C86.0896 185.514 84.5378 184.933 83.225 184.478C82.9613 184.386 82.7072 184.3 82.464 184.219ZM65.5683 201.87C65.339 202.039 65.0999 202.172 64.8512 202.271C64.8188 202.184 64.7864 202.098 64.7542 202.012L64.6696 201.786C64.3719 200.991 64.0777 200.206 63.7692 199.404C64.1164 200.307 64.6266 201.024 65.2254 201.578C65.3368 201.681 65.4513 201.778 65.5683 201.87ZM57.3687 199.443C57.2174 197.645 56.8645 195.775 56.5537 194.127L56.5086 193.888C56.811 195.494 56.4652 196.938 55.722 198.086C56.2823 198.567 56.8317 199.022 57.3687 199.443ZM50.6198 200.793C50.6387 201.446 50.6028 202.039 50.4953 202.577C49.2549 201.483 48.0139 200.327 46.8155 199.2C47.958 200.274 49.3008 200.764 50.6198 200.793ZM41.7449 207.263C40.4661 206.181 39.0785 205.151 37.6133 204.166C38.9091 205.037 39.6405 206.235 39.9575 207.452C40.5874 207.394 41.1826 207.331 41.7449 207.263ZM38.1898 213.216C38.6034 213.595 38.9889 213.972 39.347 214.347C37.8915 214.461 36.3299 214.552 34.6624 214.627C36.1212 214.561 37.3037 213.999 38.1898 213.216ZM426.475 158.195C426.475 158.198 426.476 158.201 426.476 158.203L426.475 158.195ZM105.381 159.59C105.381 159.589 105.385 159.587 105.392 159.584C105.384 159.588 105.381 159.59 105.381 159.59Z" fill="#FFBFBF" stroke="white" stroke-width="13.6387"/>
<path d="M56.3657 264.138C56.3657 307.842 75.2078 348.814 121.711 395.725C164.087 438.474 219.572 451.153 273.294 444.384C326.95 437.623 379.087 411.454 415.294 376.142C451.279 341.048 470.642 298.635 474.867 261.481C479.071 224.514 468.285 191.789 442.603 177.747C428.786 170.193 420.055 158.563 412.241 145.461C410.072 141.826 407.956 138.035 405.81 134.191C400.352 124.416 394.699 114.29 387.501 105.479C377.798 93.6009 367.972 84.9567 357.251 79.2963C346.498 73.6194 335.017 71.0359 322.154 71.0359C297.43 71.0359 266.361 72.0983 242.17 96.5781C219.617 119.401 190.504 135.06 136.178 154.637C108.363 164.66 88.3555 180.194 75.3193 199.254C62.2915 218.302 56.3657 240.666 56.3657 264.138Z" fill="#94B8FF" stroke="black" stroke-width="6.81934" stroke-linecap="round"/>
<path d="M384.377 287.242C382.628 287.084 381.045 288.28 380.72 290.006L368.276 355.979C368.098 356.924 368.327 357.9 368.907 358.667C369.487 359.435 370.363 359.921 371.321 360.007L416.043 364.038C417.001 364.124 417.95 363.802 418.658 363.151C419.366 362.5 419.765 361.58 419.759 360.619L419.31 293.483C419.299 291.728 417.956 290.268 416.207 290.11L384.377 287.242Z" fill="#053048" stroke="black" stroke-width="6.81934" stroke-linejoin="round"/>
<path d="M409.11 200.772C408.551 199.817 407.555 199.203 406.442 199.129C405.328 199.054 404.239 199.528 403.526 200.398L324.447 296.765C323.634 297.755 323.433 299.103 323.924 300.264C324.415 301.425 325.518 302.206 326.784 302.291L467.735 311.753C469.002 311.838 470.224 311.213 470.906 310.13C471.588 309.048 471.617 307.689 470.982 306.602L409.11 200.772Z" fill="#074162" stroke="black" stroke-width="6.81934" stroke-linejoin="round"/>
<path d="M409.874 158.808L455.282 236.476L351.838 229.532L409.874 158.808Z" fill="#0E496A"/>
<mask id="mask0_39_186" style="mask-type:alpha" maskUnits="userSpaceOnUse" x="327" y="202" width="142" height="107">
<path d="M406.152 202.529L327.073 298.896L468.024 308.358L406.152 202.529Z" fill="#1B5F85"/>
</mask>
<g mask="url(#mask0_39_186)">
<path fill-rule="evenodd" clip-rule="evenodd" d="M421.416 185.122C425.423 188.241 426.079 194.054 422.881 198.106L335.975 308.219C332.777 312.271 326.936 313.028 322.928 309.909C318.921 306.791 318.265 300.978 321.463 296.925L408.369 186.813C411.567 182.761 417.409 182.004 421.416 185.122Z" fill="#0E3B55"/>
<path d="M331.837 284.022C318.956 285.604 310.195 295.687 310.195 295.687C310.195 295.687 322.32 303.207 335.201 301.625C348.082 300.043 356.842 289.959 356.842 289.959C356.842 289.959 344.718 282.44 331.837 284.022Z" fill="#F25252"/>
<path d="M436.266 316.538C443.197 325.755 457.909 328.578 457.909 328.578C457.909 328.578 461.383 316.457 454.452 307.24C447.52 298.022 432.809 295.199 432.809 295.199C432.809 295.199 429.335 307.32 436.266 316.538Z" fill="#4CABF0"/>
<path d="M428.548 255.37C435.479 264.587 450.191 267.41 450.191 267.41C450.191 267.41 453.665 255.289 446.733 246.072C439.802 236.854 425.09 234.031 425.09 234.031C425.09 234.031 421.616 246.153 428.548 255.37Z" fill="#F2D432"/>
</g>
<path d="M412.831 157.054C412.273 156.099 411.276 155.485 410.163 155.41C409.05 155.336 407.96 155.81 407.247 156.679L349.211 227.403C348.399 228.393 348.197 229.742 348.688 230.902C349.18 232.063 350.282 232.844 351.549 232.929L454.992 239.873C456.259 239.958 457.481 239.333 458.163 238.251C458.845 237.169 458.874 235.809 458.239 234.722L412.831 157.054Z" fill="#0D4A6C" stroke="black" stroke-width="6.81934" stroke-linejoin="round"/>
<mask id="mask1_39_186" style="mask-type:alpha" maskUnits="userSpaceOnUse" x="351" y="158" width="105" height="79">
<path d="M409.873 158.808L455.281 236.476L351.837 229.532L409.873 158.808Z" fill="#1F648B"/>
</mask>
<g mask="url(#mask1_39_186)">
<path d="M413.017 159.02L349.236 239.831" stroke="#0E3B55" stroke-width="13.6081" stroke-linecap="round"/>
<path d="M397.836 189.018C401.756 196.29 397.747 204.796 397.747 204.796C397.747 204.796 387.382 201.512 383.462 194.241C379.543 186.969 383.552 178.462 383.552 178.462C383.552 178.462 393.917 181.746 397.836 189.018Z" fill="#F25252"/>
<path d="M443.738 217.083C437.564 223.092 426.539 223.699 426.539 223.699C426.539 223.699 425.524 214.564 431.698 208.556C437.872 202.547 448.897 201.94 448.897 201.94C448.897 201.94 449.912 211.075 443.738 217.083Z" fill="#4CABF0"/>
<path d="M385.164 236.719C378.99 242.728 367.966 243.335 367.966 243.335C367.966 243.335 366.95 234.2 373.124 228.191C379.298 222.183 390.323 221.576 390.323 221.576C390.323 221.576 391.338 230.711 385.164 236.719Z" fill="#F2D432"/>
</g>
<path d="M411.635 134.618C412.169 133.599 413.676 133.765 413.976 134.876L417.053 146.279C417.182 146.755 417.575 147.113 418.062 147.196L429.705 149.183C430.839 149.376 431.146 150.861 430.183 151.489L420.288 157.939C419.875 158.209 419.656 158.694 419.728 159.182L421.436 170.869C421.603 172.007 420.286 172.759 419.391 172.036L410.199 164.619C409.815 164.31 409.286 164.251 408.844 164.47L398.257 169.707C397.226 170.217 396.104 169.197 396.515 168.122L400.728 157.088C400.904 156.627 400.796 156.106 400.451 155.753L392.199 147.302C391.395 146.479 392.019 145.098 393.168 145.156L404.964 145.753C405.457 145.778 405.919 145.514 406.148 145.077L411.635 134.618Z" fill="#FFE066"/>
<path fill-rule="evenodd" clip-rule="evenodd" d="M406.146 145.078C405.917 145.515 405.455 145.779 404.962 145.754L393.166 145.157C392.017 145.099 391.393 146.48 392.197 147.303L400.449 155.754C400.794 156.107 400.902 156.628 400.726 157.089L396.513 168.123C396.102 169.198 397.224 170.218 398.255 169.708L408.842 164.471C409.284 164.253 409.813 164.311 410.197 164.621L419.389 172.037C420.285 172.76 421.601 172.008 421.435 170.87L419.726 159.183C419.655 158.695 419.873 158.21 420.287 157.941L430.181 151.49C431.145 150.862 430.837 149.377 429.703 149.184L418.06 147.198C417.574 147.115 417.18 146.757 417.051 146.28L413.974 134.877C413.674 133.766 412.168 133.6 411.633 134.619L406.146 145.078ZM422.709 141.073L420.558 133.1C418.642 126 409.011 124.939 405.594 131.451L401.758 138.764L393.511 138.346C386.166 137.975 382.181 146.806 387.318 152.068L393.087 157.976L390.142 165.691C387.519 172.561 394.687 179.081 401.278 175.82L408.68 172.159L415.107 177.345C420.83 181.962 429.246 177.16 428.182 169.883L426.988 161.712L433.905 157.202C440.065 153.186 438.099 143.698 430.85 142.462L422.709 141.073Z" fill="black"/>
<path fill-rule="evenodd" clip-rule="evenodd" d="M234.719 240.099C276.797 237.079 314.146 265.848 325.215 306.849C346.399 317.882 361.532 339.316 363.366 364.878C366.179 404.065 336.676 438.112 297.47 440.926C294.438 441.144 291.435 441.168 288.476 441.01L210.575 446.601C206.988 447.414 203.287 447.968 199.493 448.24C161.552 450.963 128.734 424.464 126.193 389.052C124.563 366.353 135.77 345.502 154.019 332.739C152.927 284.434 188.183 243.439 234.719 240.099Z" fill="#E1E1E1"/>
<path fill-rule="evenodd" clip-rule="evenodd" d="M330.984 302.231C318.206 259.858 278.849 230.095 234.228 233.297C184.947 236.834 147.793 279.214 147.18 329.305C128.891 343.442 117.66 365.464 119.388 389.541C122.231 429.144 158.731 458.003 199.979 455.042C203.935 454.758 207.804 454.193 211.564 453.368L288.546 447.842C291.647 447.991 294.788 447.956 297.956 447.729C340.915 444.645 373.248 407.336 370.166 364.391C368.231 337.436 352.801 314.678 330.984 302.231ZM288.474 441.01C291.433 441.169 294.435 441.144 297.468 440.927C336.674 438.113 366.176 404.065 363.364 364.879C361.529 339.316 346.396 317.882 325.212 306.849C314.143 265.848 276.795 237.079 234.716 240.099C188.181 243.439 152.924 284.435 154.016 332.74C135.767 345.502 124.561 366.354 126.19 389.053C128.732 424.465 161.55 450.964 199.491 448.241C203.284 447.968 206.986 447.414 210.572 446.602L288.474 441.01Z" fill="black"/>
<path d="M235.135 260.358C270.054 257.852 295.969 226.23 293.372 190.043C290.775 153.856 260.609 126.26 225.69 128.766C190.771 131.273 164.855 162.894 167.453 199.081C170.05 235.268 200.216 262.864 235.135 260.358Z" fill="white" stroke="black" stroke-width="6.81934"/>
<path fill-rule="evenodd" clip-rule="evenodd" d="M243.37 255.925C214.199 253.722 190.164 229.605 187.934 198.528C185.703 167.452 206.044 140.151 234.6 133.803C231.792 133.591 228.938 133.582 226.05 133.789C193.157 136.15 168.473 165.681 170.919 199.75C173.364 233.818 202.012 259.522 234.905 257.161C237.794 256.953 240.62 256.536 243.37 255.925Z" fill="#E1E1E1"/>
<path d="M289.509 313.469L342.942 253.637" stroke="black" stroke-width="10.229" stroke-linecap="round"/>
<path d="M325.109 273.241L327.444 246.195" stroke="black" stroke-width="10.229" stroke-linecap="round"/>
<path d="M321.355 280.537L347.3 280.175" stroke="black" stroke-width="10.229" stroke-linecap="round"/>
<ellipse cx="261.111" cy="172.622" rx="8.53029" ry="8.93649" transform="rotate(-4.10541 261.111 172.622)" fill="black"/>
<path d="M165.191 100.32C164.072 95.5551 167.028 90.7322 171.782 89.5666L231.001 75.0455C235.721 73.888 240.433 76.7758 241.544 81.5071L253.855 133.929L177.481 152.656L165.191 100.32Z" fill="#212020"/>
<path d="M254.618 137.252L257.946 136.436L257.163 133.1L244.852 80.6786C243.312 74.1206 236.781 70.1179 230.238 71.7223L171.019 86.2434C164.43 87.859 160.332 94.544 161.883 101.148L174.174 153.485L174.949 156.787L178.244 155.979L254.618 137.252Z" fill="#212020" stroke="black" stroke-width="6.81934"/>
<ellipse cx="215.54" cy="184.892" rx="8.53029" ry="8.93649" transform="rotate(-4.10541 215.54 184.892)" fill="black"/>
<rect x="-4.07202" y="-2.51589" width="126.391" height="24.0901" rx="7.12079" transform="matrix(0.971508 -0.237007 0.222749 0.974876 160.413 155.815)" fill="#212020" stroke="black" stroke-width="6.81934"/>
<path fill-rule="evenodd" clip-rule="evenodd" d="M276.971 247.567C300.275 258.229 318.352 280.127 324.773 307.287C346.073 317.751 361.563 339.723 363.456 366.097C366.23 404.75 338.747 438.219 302.07 440.852C301.303 440.907 300.538 440.948 299.776 440.976L299.782 441.061L209.312 447.555C178.257 448.29 151.608 422.481 149.182 388.677C147.48 364.964 158.136 343.443 175.295 331.427C175.813 286.006 208.392 248.099 251.162 245.029C260.063 244.391 268.743 245.308 276.971 247.567Z" fill="#F7F7F7"/>
<path d="M181.941 316.204L125.072 271.52" stroke="black" stroke-width="10.229" stroke-linecap="round"/>
<path d="M269.244 258.971C269.244 258.971 257.761 277.714 257.553 304.607C257.346 331.501 250.964 331.959 250.964 331.959L214.804 334.554C214.804 334.554 222.265 322.458 221.615 294.759C220.966 267.06 230.956 261.719 230.956 261.719L269.244 258.971Z" fill="#FF4B4B"/>
<path fill-rule="evenodd" clip-rule="evenodd" d="M275.066 262.522C275.065 262.522 275.066 262.522 275.066 262.522C275.064 262.524 275.063 262.526 275.061 262.529L275.001 262.631C274.941 262.734 274.842 262.906 274.709 263.144C274.444 263.621 274.045 264.363 273.556 265.349C272.576 267.324 271.241 270.266 269.893 274.014C267.189 281.525 264.469 292.16 264.372 304.66C264.265 318.456 262.597 326.455 260.361 331.25C259.207 333.724 257.789 335.588 256.125 336.87C255.292 337.511 254.442 337.971 253.616 338.278C253.207 338.43 252.816 338.54 252.45 338.618C252.267 338.657 252.092 338.687 251.926 338.71C251.842 338.722 251.761 338.732 251.682 338.74L251.565 338.751L251.508 338.756L251.48 338.758C251.466 338.759 251.452 338.761 250.964 331.959C250.964 331.959 257.345 331.501 257.553 304.607C257.684 287.613 262.318 273.874 265.711 266.061C267.688 261.51 269.244 258.971 269.244 258.971L230.956 261.719L227.741 255.705L229.02 255.021L281.99 251.219L275.066 262.522ZM217.722 327.508C219.734 321.201 221.984 310.499 221.615 294.759C220.965 267.06 230.956 261.719 230.956 261.719C227.741 255.705 227.734 255.709 227.728 255.712L227.715 255.719L227.688 255.734L227.631 255.765C227.592 255.787 227.55 255.811 227.506 255.836C227.418 255.887 227.321 255.945 227.216 256.012C227.004 256.145 226.759 256.309 226.485 256.511C225.938 256.914 225.282 257.46 224.565 258.183C223.122 259.636 221.475 261.758 219.951 264.784C216.906 270.83 214.453 280.265 214.797 294.919C215.107 308.124 213.48 317.409 211.877 323.235C211.075 326.153 210.275 328.217 209.717 329.485C209.438 330.12 209.219 330.556 209.089 330.802C209.027 330.919 208.986 330.993 208.968 331.024L202.007 342.309L251.452 338.761L250.964 331.959L214.803 334.554C214.803 334.554 216.194 332.299 217.722 327.508Z" fill="black"/>
<path d="M273.854 233.842L193.024 239.644C182.922 240.369 175.321 249.145 176.046 259.247C176.771 269.349 185.548 276.95 195.65 276.225L276.479 270.423C286.581 269.698 294.182 260.921 293.457 250.82C292.732 240.718 283.955 233.117 273.854 233.842Z" fill="#FF4B4B" stroke="black" stroke-width="6.81934"/>
<path d="M160.573 295.703L161.572 270.953" stroke="black" stroke-width="10.229" stroke-linecap="round"/>
<path d="M122.828 300.125L147.615 290.027" stroke="black" stroke-width="10.229" stroke-linecap="round"/>
<path d="M242.486 219.009C242.656 219.062 242.829 219.101 243.005 219.126L309.716 228.777C311.313 229.008 312.854 228.087 313.407 226.571C313.96 225.054 313.374 223.358 312.002 222.506L259.805 190.094C254.227 186.346 248.552 185.459 243.558 186.699C238.626 187.924 234.649 191.153 232.262 195.109C229.882 199.054 228.945 203.973 230.528 208.583C232.147 213.297 236.181 217.059 242.486 219.009Z" fill="#FF6745" stroke="black" stroke-width="6.81934" stroke-linecap="round" stroke-linejoin="round"/>
<mask id="mask2_39_186" style="mask-type:alpha" maskUnits="userSpaceOnUse" x="164" y="74" width="90" height="79">
<path d="M165.191 100.32C164.072 95.5553 167.028 90.7324 171.782 89.5668L231.001 75.0458C235.721 73.8882 240.433 76.776 241.544 81.5073L253.855 133.929L177.481 152.656L165.191 100.32Z" fill="#212020"/>
</mask>
<g mask="url(#mask2_39_186)">
<rect x="176.881" y="153.727" width="66.383" height="18.845" transform="rotate(-102.645 176.881 153.727)" fill="black"/>
<rect x="161.813" y="140.388" width="102.363" height="11.7603" transform="rotate(-14.2105 161.813 140.388)" fill="#D9E5F0"/>
<path d="M162.392 140.493L191.578 133.102L192.629 144.737L163.308 153.255L162.392 140.493Z" fill="#C7D4E1"/>
</g>
<path d="M79.2149 245.1C71.7744 237.637 71.7928 225.555 79.2561 218.115V218.115C86.7194 210.674 98.8012 210.693 106.242 218.156V218.156C113.682 225.619 113.664 237.701 106.201 245.142V245.142C98.7373 252.582 86.6554 252.564 79.2149 245.1V245.1Z" fill="#AE2C2C"/>
<path d="M104.341 211.335C100.283 207.264 100.293 200.674 104.364 196.615V196.615C108.435 192.557 115.025 192.567 119.083 196.638V196.638C123.142 200.708 123.131 207.299 119.061 211.357V211.357C114.99 215.416 108.4 215.405 104.341 211.335V211.335Z" fill="#AE2C2C"/>
<path d="M57.3731 242.152C62.9899 237.728 72.1678 232.459 77.823 234.145L83.6601 214.57C75.0309 211.997 73.4565 205.61 70.128 196.956C69.7506 195.975 68.2774 196.165 68.0285 197.187C65.6209 207.068 59.1662 201.457 51.4801 194.232C50.7639 193.558 49.6191 194.185 49.8011 195.151C51.6082 204.743 51.9091 207.018 34.347 207.815C33.3247 207.862 32.9518 209.253 33.8009 209.824C44.6383 217.115 45.1271 223.4 39.5477 230.774C38.8964 231.635 39.8579 233.163 40.9228 232.986C47.2621 231.936 55.1597 233.117 55.3239 241.083C55.3441 242.062 56.6039 242.758 57.3731 242.152Z" fill="#2BA641"/>
<path fill-rule="evenodd" clip-rule="evenodd" d="M85.6086 208.034C89.2178 209.111 91.2712 212.909 90.195 216.518C89.6023 218.505 88.4995 220.435 87.4317 222.052C86.3026 223.763 84.9199 225.556 83.4311 227.328C80.4508 230.875 76.7909 234.636 73.2443 237.92C69.7454 241.161 66.1021 244.174 63.1457 246.08C61.8517 246.914 59.9191 248.055 57.8746 248.485C56.9306 248.683 54.5262 249.05 52.11 247.592C49.1999 245.836 48.5408 242.921 48.5058 241.223L48.5058 241.223C48.4969 240.79 48.4385 240.535 48.4004 240.411C48.3809 240.348 48.3639 240.309 48.3543 240.29C48.3448 240.27 48.3384 240.261 48.3358 240.257L48.3356 240.257C48.3337 240.254 48.3171 240.23 48.2565 240.184C48.1884 240.133 48.0533 240.046 47.8192 239.949C46.6914 239.479 44.5825 239.291 42.0379 239.713C42.0343 239.714 42.0296 239.715 42.0241 239.716C41.9062 239.736 41.359 239.828 40.714 239.824C40.7093 239.824 40.7028 239.824 40.6945 239.824C40.4887 239.825 39.1958 239.83 37.7802 239.155C36.9116 238.74 35.4074 237.784 34.5148 235.846C33.578 233.811 33.8652 231.907 34.2655 230.751C34.867 229.016 36.0261 228.012 36.1668 227.891C36.1723 227.886 36.1762 227.882 36.1785 227.88C36.5082 227.585 36.799 227.382 36.92 227.299C37.1782 227.122 37.4184 226.982 37.5034 226.932L37.5068 226.93C37.6512 226.846 37.7712 226.777 37.8793 226.716C38.1335 226.57 38.3223 226.463 38.6078 226.275C39.3897 225.76 39.7469 225.347 39.8564 225.163C39.8392 225.047 39.7633 224.702 39.4285 224.099C38.5124 222.45 36.0333 219.544 29.9943 215.482C29.6689 215.263 29.1049 214.848 28.5466 214.193C27.9948 213.546 27.1522 212.311 26.9398 210.524C26.4338 206.266 29.668 204.144 30.2552 203.79C31.151 203.25 31.9802 203.03 32.2435 202.96C32.6241 202.86 32.9689 202.798 33.2062 202.759C33.8683 202.65 34.7996 202.559 35.5636 202.484C35.7245 202.469 35.878 202.454 36.0199 202.439C38.0604 202.234 40.3291 201.954 42.2884 201.374C43.639 200.974 44.2981 200.588 44.58 200.392C44.5198 200.038 44.3253 199.387 43.7682 198.33C43.4509 197.728 43.2255 197.082 43.0995 196.413L43.0975 196.402C43.024 196.013 42.6709 194.142 43.6937 192.081C44.3102 190.839 45.3406 189.72 46.743 189.013C48.0479 188.356 49.27 188.258 50.0678 188.286C51.4945 188.337 52.529 188.828 52.8004 188.958C53.2181 189.157 53.5347 189.358 53.701 189.468C54.2328 189.821 54.7076 190.242 54.8771 190.392L54.8971 190.409C55.0293 190.526 55.3691 190.835 55.7226 191.157C56.0638 191.467 56.4178 191.789 56.6099 191.961C57.9572 193.165 59.5112 194.45 60.9933 195.33C61.1409 195.418 61.2779 195.496 61.4046 195.564C61.5636 194.914 61.8979 193.813 62.679 192.71C63.5514 191.479 65.1754 190.023 67.6294 189.695C69.869 189.396 71.5859 190.21 72.4424 190.734C73.3306 191.277 73.9609 191.907 74.3322 192.314C75.6395 193.75 76.6901 195.792 77.3182 197.07C78.0695 198.599 78.7792 200.241 79.3052 201.487C79.4827 201.908 79.6523 202.315 79.7924 202.651C79.8572 202.807 79.9158 202.948 79.9658 203.067C80.069 203.314 80.1244 203.442 80.1449 203.49C81.4139 205.864 82.7277 207.175 85.6086 208.034ZM60.9413 196.91C60.9404 196.907 60.9524 196.885 60.9797 196.849C60.9557 196.894 60.9421 196.912 60.9413 196.91ZM44.5872 200.733C44.5795 200.729 44.577 200.677 44.6028 200.588C44.6079 200.692 44.5949 200.737 44.5872 200.733ZM61.6657 238.794C60.4171 239.73 59.2872 240.491 58.3385 241.02C56.5033 242.045 55.3468 242.202 55.3237 241.082C55.2424 237.136 53.2629 234.854 50.5152 233.685C49.5915 233.292 48.581 233.024 47.5265 232.861C45.3864 232.53 43.0655 232.631 40.9226 232.986C40.625 233.035 40.6558 232.991 40.8994 232.846C40.969 232.805 41.0561 232.755 41.1578 232.697C42.1476 232.133 44.529 230.775 45.8177 228.475C46.2398 227.722 46.5447 226.867 46.6451 225.906C46.9192 223.283 45.669 219.866 41.1181 215.549C40.5203 214.982 39.8655 214.4 39.1497 213.801C37.6477 212.546 35.8771 211.22 33.8007 209.824C33.6309 209.709 33.7086 209.626 33.9818 209.554C34.3607 209.456 35.1157 209.381 36.1078 209.284C37.2978 209.166 38.8289 209.015 40.4614 208.749C41.3239 208.608 42.2146 208.435 43.0983 208.217C45.9159 207.523 48.6617 206.377 50.1894 204.385C50.7657 203.634 51.1687 202.763 51.3369 201.75C51.6264 200.005 51.2192 197.841 49.801 195.151C49.7913 195.099 49.8148 195.089 49.8689 195.115C49.8784 195.119 49.889 195.125 49.9005 195.132C50.0789 195.237 50.4853 195.609 51.0624 196.136C52.0075 197 53.4106 198.283 55.0206 199.501C56.0263 200.263 57.1127 201 58.2188 201.594C60.4899 202.815 62.8436 203.435 64.7504 202.44C64.8719 202.376 64.9915 202.306 65.1093 202.229C66.3548 201.416 67.3819 199.839 68.0283 197.186C68.3315 195.942 69.0248 196.405 69.8382 197.627C70.5859 198.75 71.435 200.513 72.1757 202.179C72.395 202.672 72.6048 203.157 72.7997 203.614C73.0601 204.224 73.2939 204.785 73.488 205.251C73.7597 205.903 73.9536 206.369 74.034 206.522C76.0126 210.29 78.6448 213.074 83.66 214.569C83.1963 216.124 81.9045 218.224 80.1124 220.573C75.5032 226.615 67.5848 234.301 61.9378 238.589C61.8465 238.658 61.7558 238.726 61.6657 238.794ZM45.7522 200.531C45.7517 200.531 45.7622 200.539 45.785 200.559C45.764 200.542 45.7526 200.532 45.7522 200.531Z" fill="black"/>
<path d="M81.2771 183.348C86.3027 185.904 93.1114 190.73 93.7758 195.336L109.719 193.036C108.705 186.008 112.756 182.767 117.848 177.521C118.426 176.926 117.802 175.935 116.989 176.095C109.119 177.641 110.999 171.164 113.627 163.272C113.872 162.536 113.045 161.924 112.414 162.374C106.146 166.842 104.617 167.81 98.2348 155.503C97.8632 154.787 96.744 154.98 96.6161 155.777C94.984 165.947 90.6468 168.377 83.5221 166.824C82.6904 166.642 81.9151 167.836 82.3938 168.54C85.2439 172.73 87.0119 178.773 81.3641 181.527C80.6701 181.866 80.5889 182.998 81.2771 183.348Z" fill="#2BA641"/>
<path fill-rule="evenodd" clip-rule="evenodd" d="M115.041 192.269C115.465 195.209 113.425 197.936 110.486 198.36C108.867 198.593 107.121 198.442 105.61 198.213C104.012 197.971 102.271 197.575 100.51 197.095C96.9849 196.136 93.0818 194.761 89.5571 193.309C86.0799 191.877 82.7171 190.267 80.375 188.781C79.35 188.131 77.8933 187.125 76.9092 185.804C76.4548 185.194 75.3966 183.594 75.6405 181.382C75.9343 178.718 77.8029 177.282 79.0067 176.695L79.0067 176.695C79.3137 176.545 79.477 176.419 79.5531 176.35C79.5919 176.316 79.6137 176.291 79.6246 176.277C79.6354 176.264 79.64 176.256 79.6417 176.253L79.6418 176.253C79.6432 176.251 79.655 176.231 79.6677 176.173C79.6819 176.107 79.6993 175.981 79.6916 175.782C79.6542 174.819 79.0909 173.247 77.9469 171.565C77.9453 171.563 77.9432 171.56 77.9407 171.556C77.8874 171.479 77.6401 171.118 77.4293 170.655C77.4278 170.651 77.4256 170.647 77.4228 170.641C77.3542 170.494 76.9229 169.57 76.9377 168.333C76.9469 167.574 77.1336 166.181 78.2257 164.901C79.3718 163.557 80.8302 163.132 81.7896 163.037C83.231 162.893 84.3328 163.39 84.4666 163.451C84.4717 163.453 84.4755 163.455 84.4777 163.456C84.7983 163.594 85.0397 163.735 85.1393 163.794C85.3514 163.92 85.5313 164.046 85.595 164.09L85.5975 164.092C85.7056 164.167 85.7943 164.231 85.8743 164.288C86.0623 164.422 86.2018 164.521 86.4308 164.663C87.0577 165.053 87.472 165.171 87.6395 165.189C87.7174 165.138 87.939 164.97 88.2597 164.531C89.137 163.329 90.3964 160.593 91.3059 154.926C91.3549 154.621 91.4652 154.08 91.7493 153.463C92.0301 152.854 92.6349 151.843 93.8437 151.099C96.724 149.328 99.3134 150.941 99.7609 151.244C100.444 151.706 100.876 152.227 101.013 152.392C101.21 152.632 101.369 152.858 101.476 153.015C101.772 153.453 102.146 154.089 102.452 154.611C102.517 154.721 102.578 154.826 102.635 154.923C103.458 156.316 104.409 157.847 105.472 159.057C106.206 159.892 106.7 160.236 106.934 160.373C107.167 160.213 107.569 159.858 108.141 159.109C108.467 158.683 108.855 158.308 109.292 157.996L109.299 157.991C109.553 157.81 110.775 156.938 112.589 156.988C113.682 157.018 114.824 157.386 115.794 158.156C116.696 158.872 117.171 159.714 117.415 160.295C117.851 161.333 117.841 162.236 117.838 162.473C117.834 162.838 117.795 163.131 117.771 163.287C117.694 163.784 117.551 164.263 117.499 164.434L117.493 164.454C117.453 164.587 117.344 164.933 117.231 165.292C117.122 165.639 117.009 165.999 116.949 166.194C116.533 167.557 116.127 169.094 115.988 170.446C115.974 170.581 115.964 170.704 115.957 170.818C116.475 170.716 117.374 170.591 118.421 170.786C119.592 171.003 121.171 171.683 122.218 173.331C123.173 174.835 123.158 176.334 123.067 177.12C122.972 177.935 122.73 178.595 122.561 178.996C121.966 180.406 120.852 181.834 120.145 182.707C119.299 183.751 118.359 184.802 117.641 185.591C117.398 185.857 117.163 186.113 116.969 186.325C116.879 186.423 116.798 186.511 116.729 186.587C116.586 186.742 116.513 186.824 116.485 186.855C115.206 188.548 114.702 189.923 115.041 192.269ZM114.841 170.931C114.842 170.93 114.862 170.931 114.897 170.939C114.857 170.937 114.839 170.933 114.841 170.931ZM106.692 160.491C106.692 160.484 106.728 160.465 106.801 160.454C106.728 160.492 106.692 160.498 106.692 160.491ZM85.1002 185.31C84.0172 184.726 83.0986 184.169 82.4057 183.666C81.0652 182.691 80.5696 181.915 81.3635 181.528C84.1616 180.164 85.1395 177.992 85.0674 175.638C85.0431 174.847 84.9002 174.035 84.6679 173.227C84.1964 171.585 83.3567 169.957 82.3933 168.541C82.2595 168.344 82.3014 168.352 82.4856 168.478C82.5383 168.514 82.6026 168.56 82.6778 168.614C83.4092 169.135 85.1689 170.391 87.2419 170.552C87.9209 170.605 88.6334 170.54 89.3544 170.294C91.3231 169.622 93.3549 167.597 94.9387 162.911C95.1468 162.295 95.3471 161.634 95.5385 160.923C95.9403 159.433 96.3028 157.727 96.6155 155.778C96.6411 155.619 96.7268 155.647 96.8681 155.819C97.0641 156.057 97.3672 156.573 97.7655 157.251C98.2432 158.064 98.8579 159.11 99.5891 160.19C99.9753 160.761 100.394 161.341 100.842 161.902C102.272 163.689 104.001 165.275 105.932 165.709C106.66 165.873 107.417 165.873 108.198 165.658C109.542 165.288 110.956 164.281 112.413 162.375C112.447 162.351 112.462 162.365 112.461 162.412C112.461 162.42 112.46 162.43 112.459 162.44C112.443 162.603 112.312 163.017 112.125 163.604C111.819 164.567 111.366 165.995 111.026 167.551C110.814 168.523 110.646 169.545 110.587 170.533C110.464 172.562 110.799 174.453 112.143 175.488C112.228 175.554 112.318 175.616 112.412 175.675C113.406 176.298 114.875 176.511 116.988 176.096C117.979 175.901 117.877 176.551 117.271 177.537C116.715 178.444 115.734 179.635 114.786 180.717C114.506 181.037 114.229 181.347 113.966 181.638C113.615 182.027 113.291 182.38 113.022 182.673C112.645 183.083 112.376 183.376 112.293 183.484C110.25 186.147 109.129 188.952 109.718 193.037C108.452 193.22 106.521 192.99 104.247 192.485C98.3972 191.185 90.2748 188.061 85.3372 185.437C85.2574 185.395 85.1783 185.353 85.1002 185.31ZM107.222 161.258C107.222 161.257 107.219 161.268 107.213 161.291C107.218 161.27 107.221 161.258 107.222 161.258Z" fill="black"/>
<path fill-rule="evenodd" clip-rule="evenodd" d="M49.4621 213.766C49.8066 212.889 50.7962 212.458 51.6725 212.803L79.8679 223.885C80.7442 224.23 81.1753 225.219 80.8309 226.096C80.4865 226.972 79.4969 227.403 78.6206 227.059L50.4252 215.976C49.5489 215.632 49.1177 214.642 49.4621 213.766Z" fill="#4BCC65"/>
<path fill-rule="evenodd" clip-rule="evenodd" d="M61.425 209.16C62.291 208.79 63.2927 209.193 63.6622 210.059L67.329 218.651C67.6986 219.517 67.2961 220.518 66.4301 220.888C65.5642 221.257 64.5625 220.855 64.193 219.989L60.5262 211.397C60.1566 210.531 60.559 209.529 61.425 209.16Z" fill="#4BCC65"/>
<path fill-rule="evenodd" clip-rule="evenodd" d="M49.6437 225.194C49.0976 224.427 49.2767 223.363 50.0437 222.817L58.6394 216.697C59.4064 216.151 60.4709 216.33 61.017 217.097C61.5631 217.864 61.384 218.928 60.617 219.474L52.0213 225.594C51.2543 226.14 50.1898 225.961 49.6437 225.194Z" fill="#4BCC65"/>
<path fill-rule="evenodd" clip-rule="evenodd" d="M59.816 229.823C59.2699 229.056 59.449 227.991 60.216 227.445L68.8117 221.325C69.5787 220.779 70.6432 220.958 71.1893 221.725C71.7354 222.492 71.5563 223.556 70.7893 224.103L62.1936 230.223C61.4266 230.769 60.3621 230.59 59.816 229.823Z" fill="#4BCC65"/>
<path fill-rule="evenodd" clip-rule="evenodd" d="M97.5958 169.279C98.4612 168.908 99.4635 169.309 99.8344 170.174L109.073 191.726C109.444 192.591 109.043 193.593 108.178 193.964C107.312 194.335 106.31 193.935 105.939 193.069L96.7005 171.517C96.3296 170.652 96.7304 169.65 97.5958 169.279Z" fill="#4BCC65"/>
<path fill-rule="evenodd" clip-rule="evenodd" d="M92.963 176.431C93.2621 175.539 94.2283 175.057 95.1211 175.356L102.477 177.821C103.37 178.12 103.851 179.086 103.552 179.979C103.253 180.872 102.287 181.353 101.394 181.054L94.0379 178.589C93.1451 178.29 92.6639 177.324 92.963 176.431Z" fill="#4BCC65"/>
<path fill-rule="evenodd" clip-rule="evenodd" d="M108.948 176.761C109.755 177.247 110.015 178.294 109.529 179.101L105.84 185.228C105.354 186.035 104.307 186.295 103.5 185.81C102.693 185.324 102.433 184.276 102.919 183.47L106.608 177.342C107.094 176.536 108.141 176.275 108.948 176.761Z" fill="#4BCC65"/>
<path d="M80.2306 246.12C72.2291 238.094 72.249 225.101 80.2749 217.099C88.3008 209.098 101.294 209.118 109.295 217.144C117.297 225.17 117.277 238.162 109.251 246.164C101.225 254.165 88.2321 254.146 80.2306 246.12Z" fill="#F26A6A"/>
<path fill-rule="evenodd" clip-rule="evenodd" d="M114.063 250.991C103.37 261.652 86.0593 261.625 75.3987 250.932C64.7382 240.239 64.7647 222.929 75.4578 212.268C86.1509 201.607 103.461 201.634 114.122 212.327C124.782 223.02 124.756 240.331 114.063 250.991ZM80.2724 217.097C72.2465 225.099 72.2267 238.092 80.2281 246.118C88.2296 254.143 101.222 254.163 109.248 246.162C117.274 238.16 117.294 225.168 109.293 217.142C101.291 209.116 88.2983 209.096 80.2724 217.097Z" fill="black"/>
<path d="M100.99 214.061C95.0876 208.141 95.1022 198.556 101.023 192.654C106.943 186.751 116.528 186.766 122.43 192.686C128.332 198.607 128.318 208.191 122.397 214.094C116.477 219.996 106.892 219.982 100.99 214.061Z" fill="#F26A6A"/>
<path fill-rule="evenodd" clip-rule="evenodd" d="M127.209 218.921C118.622 227.483 104.72 227.461 96.1582 218.874C87.5967 210.286 87.6179 196.384 96.2056 187.823C104.793 179.261 118.695 179.282 127.257 187.87C135.818 196.458 135.797 210.36 127.209 218.921ZM101.02 192.652C95.0997 198.554 95.0851 208.139 100.988 214.059C106.89 219.98 116.474 219.994 122.395 214.092C128.315 208.189 128.33 198.605 122.427 192.685C116.525 186.764 106.941 186.749 101.02 192.652Z" fill="black"/>
<path d="M334.238 97.4138C332.293 102.922 328.171 110.562 323.257 111.841L328.443 127.972C335.94 126.019 340.156 129.775 346.734 134.345C347.48 134.863 348.457 134.092 348.146 133.274C345.138 125.365 352.52 126.466 361.572 128.155C362.415 128.312 362.944 127.38 362.347 126.788C356.421 120.907 355.108 119.457 367.463 111.29C368.182 110.815 367.783 109.687 366.892 109.658C355.523 109.29 352.144 105.135 352.642 97.5926C352.701 96.7123 351.268 96.0675 350.581 96.6518C346.488 100.13 340.191 102.732 336.239 97.2683C335.753 96.597 334.504 96.6595 334.238 97.4138Z" fill="#2BA641"/>
<path fill-rule="evenodd" clip-rule="evenodd" d="M330.174 133.358C327.039 134.174 323.721 132.425 322.765 129.451C322.239 127.813 322.11 125.995 322.106 124.408C322.102 122.73 322.242 120.885 322.47 119.008C322.925 115.252 323.77 111.053 324.762 107.234C325.74 103.466 326.933 99.7924 328.16 97.1873C328.698 96.047 329.55 94.4162 330.827 93.2314C331.416 92.6844 332.983 91.3874 335.437 91.353C338.393 91.3117 340.274 93.0515 341.117 94.2161L341.117 94.2161C341.331 94.5131 341.496 94.6651 341.584 94.7347C341.628 94.7701 341.659 94.7894 341.676 94.7989C341.692 94.8083 341.701 94.812 341.705 94.8135L341.705 94.8135C341.708 94.8146 341.731 94.8242 341.797 94.8297C341.871 94.8359 342.011 94.8376 342.228 94.8038C343.272 94.641 344.892 93.8576 346.535 92.4615C346.537 92.4595 346.54 92.457 346.543 92.4539C346.619 92.389 346.972 92.0875 347.441 91.8105C347.445 91.8085 347.449 91.8057 347.455 91.802C347.604 91.7123 348.54 91.1485 349.892 91.0041C350.721 90.9155 352.272 90.928 353.853 91.8879C355.511 92.8953 356.219 94.3431 356.485 95.3193C356.884 96.786 356.526 97.9856 356.482 98.1312C356.481 98.1368 356.479 98.1409 356.479 98.1433C356.382 98.4915 356.268 98.7585 356.221 98.8687C356.119 99.1036 356.012 99.3052 355.974 99.3765L355.973 99.3794C355.908 99.5005 355.854 99.6001 355.805 99.6899C355.691 99.9009 355.606 100.058 355.489 100.312C355.169 101.008 355.109 101.45 355.118 101.625C355.187 101.699 355.408 101.905 355.941 102.179C357.399 102.928 360.595 103.872 366.931 104.077C367.272 104.088 367.881 104.132 368.601 104.345C369.313 104.556 370.518 105.049 371.532 106.198C373.948 108.937 372.623 111.814 372.367 112.314C371.977 113.077 371.482 113.59 371.325 113.752C371.097 113.987 370.877 114.18 370.723 114.31C370.295 114.672 369.663 115.139 369.145 115.522C369.036 115.603 368.932 115.68 368.836 115.751C367.455 116.778 365.944 117.956 364.802 119.208C364.015 120.072 363.722 120.625 363.612 120.884C363.826 121.104 364.28 121.472 365.193 121.965C365.713 122.245 366.187 122.597 366.601 123.007L366.607 123.013C366.848 123.252 368.004 124.399 368.254 126.274C368.405 127.404 368.196 128.629 367.519 129.727C366.888 130.75 366.049 131.348 365.457 131.674C364.398 132.257 363.411 132.364 363.152 132.392C362.753 132.434 362.426 132.432 362.253 132.427C361.697 132.413 361.15 132.326 360.955 132.295L360.932 132.292C360.78 132.268 360.385 132.2 359.974 132.13C359.577 132.062 359.165 131.992 358.943 131.956C357.386 131.703 355.641 131.484 354.142 131.515C353.993 131.518 353.856 131.524 353.731 131.531C353.929 132.052 354.216 132.961 354.18 134.066C354.14 135.3 353.663 137.015 352.04 138.307C350.56 139.486 348.923 139.664 348.05 139.671C347.144 139.679 346.384 139.515 345.918 139.392C344.279 138.962 342.534 137.998 341.464 137.382C340.183 136.646 338.878 135.813 337.897 135.174C337.566 134.959 337.247 134.75 336.983 134.577C336.861 134.497 336.751 134.424 336.658 134.363C336.464 134.236 336.362 134.172 336.324 134.147C334.262 133.048 332.677 132.706 330.174 133.358ZM353.42 130.395C353.422 130.396 353.424 130.417 353.421 130.454C353.417 130.413 353.419 130.394 353.42 130.395ZM363.443 120.65C363.45 120.649 363.477 120.684 363.501 120.758C363.448 120.688 363.435 120.651 363.443 120.65ZM332.74 101.608C333.195 100.416 333.649 99.398 334.082 98.6189C334.92 97.1118 335.683 96.5009 336.239 97.269C338.197 99.9759 340.731 100.703 343.286 100.325C344.146 100.197 345.007 99.9453 345.851 99.6015C347.562 98.9037 349.197 97.8281 350.581 96.6524C350.773 96.4891 350.772 96.5332 350.665 96.7395C350.634 96.7984 350.595 96.8706 350.549 96.9549C350.103 97.776 349.029 99.7514 349.201 101.908C349.257 102.615 349.447 103.341 349.837 104.052C350.9 105.993 353.451 107.825 358.829 108.852C359.536 108.987 360.291 109.108 361.098 109.213C362.792 109.435 364.714 109.588 366.892 109.659C367.071 109.664 367.054 109.756 366.891 109.924C366.663 110.157 366.151 110.536 365.479 111.034C364.672 111.631 363.634 112.399 362.578 113.292C362.02 113.764 361.458 114.271 360.922 114.805C359.212 116.508 357.772 118.495 357.622 120.541C357.565 121.312 357.692 122.093 358.058 122.869C358.687 124.207 360.024 125.534 362.347 126.789C362.379 126.82 362.367 126.837 362.315 126.843C362.306 126.844 362.296 126.845 362.284 126.845C362.104 126.849 361.63 126.767 360.958 126.651C359.857 126.46 358.222 126.177 356.467 126.028C355.372 125.935 354.229 125.894 353.141 125.96C350.906 126.097 348.9 126.686 347.996 128.204C347.939 128.301 347.885 128.401 347.837 128.506C347.325 129.61 347.339 131.152 348.147 133.275C348.525 134.271 347.799 134.249 346.622 133.753C345.539 133.297 344.074 132.44 342.735 131.603C342.339 131.356 341.954 131.11 341.593 130.877C341.11 130.566 340.67 130.277 340.305 130.038C339.794 129.702 339.43 129.463 339.298 129.391C336.049 127.631 332.801 126.838 328.443 127.973C328.031 126.691 327.958 124.672 328.127 122.263C328.564 116.068 330.608 107.295 332.641 101.868C332.674 101.781 332.707 101.694 332.74 101.608ZM362.695 121.295C362.695 121.295 362.684 121.294 362.658 121.29C362.681 121.293 362.694 121.295 362.695 121.295Z" fill="black"/>
<path fill-rule="evenodd" clip-rule="evenodd" d="M332.368 113.619C332.767 112.766 333.782 112.399 334.635 112.799C337.903 114.329 346.305 117.19 353.631 116.496C354.569 116.407 355.4 117.095 355.489 118.033C355.578 118.97 354.89 119.802 353.953 119.89C345.759 120.666 336.708 117.535 333.189 115.886C332.336 115.487 331.969 114.472 332.368 113.619Z" fill="#4BCC65"/>
<path fill-rule="evenodd" clip-rule="evenodd" d="M336.4 123.458C335.459 123.471 334.685 122.718 334.672 121.776L334.589 115.647C334.576 114.706 335.329 113.932 336.27 113.919C337.212 113.907 337.985 114.659 337.998 115.601L338.081 121.73C338.094 122.671 337.341 123.445 336.4 123.458Z" fill="#4BCC65"/>
<path fill-rule="evenodd" clip-rule="evenodd" d="M347.982 124.407C347.12 124.785 346.114 124.392 345.736 123.529L343.504 118.431C343.126 117.569 343.519 116.563 344.381 116.186C345.244 115.808 346.249 116.201 346.627 117.063L348.86 122.162C349.237 123.024 348.844 124.029 347.982 124.407Z" fill="#4BCC65"/>
<path fill-rule="evenodd" clip-rule="evenodd" d="M341.62 118.476C341.017 117.753 341.115 116.678 341.838 116.075L348.391 110.614C349.114 110.012 350.189 110.109 350.792 110.833C351.395 111.556 351.297 112.631 350.573 113.234L344.021 118.694C343.298 119.297 342.223 119.199 341.62 118.476Z" fill="#4BCC65"/>
<path fill-rule="evenodd" clip-rule="evenodd" d="M333.616 115.401C332.837 114.871 332.636 113.81 333.166 113.032L336.059 108.78C336.589 108.002 337.65 107.8 338.428 108.33C339.206 108.86 339.408 109.92 338.878 110.699L335.984 114.95C335.455 115.729 334.394 115.93 333.616 115.401Z" fill="#4BCC65"/>
<path d="M333.859 94.9837C328.363 97.1115 325.968 99.8402 322.342 100.735C318.138 97.9448 315.391 100.478 311.467 97.874C311.644 94.5334 310.336 86.6382 308.828 83.0744C308.641 82.6329 308.907 82.1018 309.376 82.002C315.925 80.6069 318.046 75.9406 314.973 67.9483C314.726 67.3065 315.485 66.6553 316.084 66.9929C324.24 71.5895 325.996 67.0143 334.064 60.691C334.543 60.3149 335.233 60.7258 335.158 61.3308C333.968 70.9648 336.336 75.8142 342.214 79.4027C342.787 79.7526 342.624 80.713 341.968 80.857C334.209 82.5604 328.028 87.8907 334.088 93.7465C334.472 94.1179 334.358 94.7907 333.859 94.9837Z" fill="#2BA641"/>
<path fill-rule="evenodd" clip-rule="evenodd" d="M318.572 106.417C320.163 107.473 322.124 107.813 323.978 107.356C326.853 106.646 329.153 105.241 330.764 104.258C330.827 104.22 330.889 104.182 330.95 104.145C332.687 103.086 334.2 102.165 336.322 101.343C341.638 99.2849 342.48 92.821 339.148 89.172C339.33 89.055 339.544 88.9294 339.792 88.7985C340.758 88.2895 342.009 87.8299 343.431 87.5177C347.045 86.7241 348.866 83.7628 349.276 81.3491C349.686 78.933 348.943 75.5205 345.768 73.5822C343.704 72.3222 342.828 71.2188 342.343 70.0406C341.788 68.6892 341.405 66.3894 341.927 62.167C342.695 55.9485 335.459 50.9336 329.858 55.3238C328.039 56.7496 326.481 58.1216 325.248 59.2079C324.988 59.4367 324.743 59.6528 324.512 59.8541C323.046 61.1353 322.323 61.6853 321.816 61.9644C321.763 61.994 321.72 62.0152 321.689 62.0302C321.471 61.9918 320.793 61.8185 319.433 61.0521C316.111 59.1799 312.686 60.2826 310.767 61.9319C308.846 63.583 307.234 66.8185 308.609 70.3952L314.974 67.9482C314.727 67.3064 315.486 66.6552 316.085 66.9928C316.277 67.1014 316.466 67.2048 316.652 67.3032C318.635 68.3545 320.23 68.8334 321.64 68.8589C321.906 68.8637 322.166 68.8524 322.42 68.8257C324.392 68.6193 326.053 67.4912 328.041 65.8144C328.477 65.4463 328.929 65.0519 329.403 64.6349C329.533 64.5211 329.664 64.4056 329.797 64.2885C330.889 63.3275 332.102 62.2591 333.514 61.1275C333.694 60.9829 333.878 60.8374 334.065 60.6909C334.544 60.3148 335.234 60.7257 335.159 61.3307C335.132 61.5528 335.106 61.7723 335.082 61.9894C334.863 64.0014 334.806 65.7986 334.911 67.4154C334.941 67.8777 334.985 68.3253 335.041 68.7589C335.37 71.2791 336.145 73.3282 337.366 75.064C337.491 75.2427 337.621 75.418 337.756 75.5903C338.763 76.8732 340.03 77.9816 341.558 78.9864C341.772 79.1271 341.991 79.2658 342.215 79.4026C342.788 79.7526 342.624 80.7129 341.969 80.8569C341.717 80.9122 341.467 80.9712 341.219 81.034C339.484 81.4732 337.848 82.094 336.436 82.8602C336.219 82.978 336.007 83.0992 335.801 83.2237C333.189 84.8019 331.499 86.9107 331.653 89.2821C331.715 90.2458 332.082 91.2528 332.816 92.2851C333.158 92.7673 333.58 93.255 334.089 93.7464C334.473 94.1178 334.359 94.7906 333.86 94.9836C333.285 95.2063 332.744 95.4356 332.231 95.6687C330.805 96.3179 329.603 96.9966 328.518 97.6444C328.489 97.6619 328.46 97.6795 328.43 97.697C328.11 97.8893 327.799 98.0787 327.496 98.2636C325.716 99.3485 324.189 100.279 322.343 100.735C320.205 99.3158 318.444 99.2738 316.712 99.2326C315.04 99.1928 313.396 99.1536 311.468 97.8739C311.645 94.5333 310.337 86.6381 308.829 83.0743L302.548 85.7314C302.994 86.7852 303.594 89.0364 304.062 91.7264C304.532 94.4338 304.705 96.6305 304.658 97.5132C304.53 99.9232 305.686 102.221 307.697 103.556C311.283 105.936 314.614 106.008 316.418 106.047C316.494 106.049 316.567 106.05 316.637 106.052C318.075 106.087 318.157 106.141 318.569 106.415L318.572 106.417ZM316.352 74.6421C316.219 78.6089 313.815 81.0565 309.377 82.0019C308.908 82.1018 308.642 82.6328 308.829 83.0743L302.548 85.7314C300.754 81.4889 303.145 76.3569 307.956 75.3322L307.956 75.3322C308.909 75.129 309.35 74.8827 309.495 74.783C309.555 74.4946 309.704 73.243 308.609 70.3952L314.974 67.9482C315.053 68.1544 315.129 68.3583 315.201 68.56C315.886 70.4689 316.263 72.1796 316.342 73.6932C316.359 74.0186 316.362 74.3349 316.352 74.6421ZM338.324 88.2572C338.324 88.2572 338.326 88.2627 338.333 88.2737C338.328 88.2627 338.324 88.2572 338.324 88.2572Z" fill="black"/>
<path fill-rule="evenodd" clip-rule="evenodd" d="M318.198 96.2955C317.329 95.9324 316.919 94.9338 317.282 94.0651C319.339 89.1439 326.145 73.9288 328.935 69.2867C329.42 68.4797 330.468 68.2187 331.275 68.7037C332.082 69.1888 332.343 70.2362 331.858 71.0432C329.216 75.4376 322.501 90.4214 320.428 95.3799C320.065 96.2487 319.066 96.6586 318.198 96.2955Z" fill="#4BCC65"/>
<path fill-rule="evenodd" clip-rule="evenodd" d="M318.636 93.4645C318.357 92.5652 318.86 91.6101 319.759 91.3312L327.88 88.8133C328.779 88.5344 329.734 89.0374 330.013 89.9367C330.292 90.836 329.789 91.7911 328.89 92.07L320.769 94.5879C319.87 94.8668 318.915 94.3638 318.636 93.4645Z" fill="#4BCC65"/>
<path fill-rule="evenodd" clip-rule="evenodd" d="M314.072 83.3499C314.825 82.7849 315.894 82.9376 316.459 83.6908L321.452 90.3477C322.017 91.1009 321.864 92.1695 321.111 92.7345C320.358 93.2994 319.289 93.1468 318.724 92.3936L313.731 85.7367C313.166 84.9834 313.319 83.9148 314.072 83.3499Z" fill="#4BCC65"/>
<path fill-rule="evenodd" clip-rule="evenodd" d="M324.766 84.0431C323.892 84.391 322.9 83.9639 322.552 83.089L318.77 73.5799C318.423 72.705 318.85 71.7136 319.725 71.3657C320.6 71.0177 321.591 71.4449 321.939 72.3198L325.721 81.8289C326.069 82.7038 325.641 83.6951 324.766 84.0431Z" fill="#4BCC65"/>
<path fill-rule="evenodd" clip-rule="evenodd" d="M322.101 84.6501C321.735 83.7823 322.142 82.7827 323.01 82.4173L334.514 77.5734C335.382 77.208 336.382 77.6153 336.747 78.483C337.113 79.3508 336.705 80.3505 335.838 80.7159L324.333 85.5598C323.466 85.9251 322.466 85.5179 322.101 84.6501Z" fill="#4BCC65"/>
<path d="M305.846 98.6004C314.11 94.2011 324.375 97.3341 328.775 105.598C333.174 113.862 330.041 124.128 321.777 128.527C313.513 132.927 303.247 129.794 298.848 121.529C294.449 113.265 297.582 103 305.846 98.6004Z" fill="#F26A6A"/>
<path fill-rule="evenodd" clip-rule="evenodd" d="M302.639 92.5803C314.228 86.4112 328.623 90.8046 334.792 102.393C340.962 113.982 336.568 128.377 324.98 134.546C313.391 140.715 298.996 136.322 292.826 124.733C286.657 113.145 291.051 98.7493 302.639 92.5803ZM328.773 105.598C324.374 97.3335 314.108 94.2005 305.844 98.5998C297.58 102.999 294.447 113.265 298.846 121.529C303.245 129.793 313.511 132.926 321.775 128.527C330.039 124.127 333.172 113.862 328.773 105.598Z" fill="black"/>
<circle cx="148.427" cy="227.881" r="3.40967" fill="white"/>
<circle cx="409.267" cy="348.925" r="5.11451" fill="white"/>
<ellipse cx="426.316" cy="323.352" rx="5.11451" ry="6.81934" fill="white"/>
<circle cx="342.778" cy="186.965" r="3.40967" fill="white"/>
<ellipse cx="102.397" cy="323.352" rx="5.11451" ry="6.81934" fill="white"/>
<circle cx="324.025" cy="209.128" r="5.11451" fill="white"/>
<circle cx="312.091" cy="169.917" r="3.40967" fill="white"/>
<circle cx="380.285" cy="313.123" r="3.40967" fill="white"/>
<ellipse cx="129.674" cy="336.99" rx="5.11451" ry="3.40967" fill="white"/>
<circle cx="83.6436" cy="275.616" r="3.40967" fill="white"/>
<circle cx="88.7581" cy="222.767" r="5.11451" fill="#FFBBBB"/>
<circle cx="114.331" cy="193.784" r="3.40967" fill="#FFBBBB"/>
<circle cx="318.911" cy="105.133" r="3.40967" fill="#FFD1D1"/>
</g>
<defs>
<clipPath id="clip0_39_186">
<rect width="512" height="512" fill="white"/>
</clipPath>
</defs>
</svg>
