<svg width="512" height="512" viewBox="0 0 512 512" fill="none" xmlns="http://www.w3.org/2000/svg">
<g clip-path="url(#clip0_39_342)">
<path d="M59.5119 221.834C58.0681 228.331 57.2662 235.122 57.0665 242.116C46.9531 247.022 40.1244 257.144 39.3394 271.063L55.2455 271.96C55.4824 267.76 56.4967 264.474 58.0246 261.951C62.1516 296.156 78.7322 332.956 103.672 362.882L97.5538 367.168C96.0245 368.24 96.4327 370.608 98.2325 371.105L112.51 375.052C113.005 375.189 113.436 375.493 113.73 375.913L122.23 388.045C123.301 389.575 125.669 389.166 126.167 387.367L126.492 386.191C144.391 401.669 164.982 413.591 187.332 419.8C259.927 439.965 380.352 443.898 433.855 349.606C434.92 352.395 435.82 355.585 436.482 359.218L453.516 356.116C451.624 345.725 447.969 337.178 443.136 330.608C447.444 320.279 451.061 308.986 453.884 296.656C455.67 288.854 457.139 281.251 458.308 273.847L464.727 270.393C463.25 267.649 461.61 265.168 459.832 262.951C469.424 184.061 444.217 129.136 407.986 99.5224L406.998 94.3512C406.648 92.5171 404.321 91.9189 403.129 93.3565L401.891 94.8508C389.83 86.1976 376.759 80.1879 363.475 76.8669C301.123 61.2791 251.242 84.661 204.479 134.542C201.493 137.727 198.386 140.461 195.18 142.813L187.829 126.74L180.834 129.939C182.629 125.611 185.663 122.623 188.894 121.419L183.329 106.491C173.568 110.129 167.018 118.985 164.5 128.667C163.73 131.626 163.313 134.735 163.292 137.904C157.905 140.012 152.051 142.982 145.92 146.721C143.301 136.103 144.92 124.256 153.261 112.706L140.346 103.379C128.78 119.393 126.526 136.801 130.952 152.421C131.304 153.662 131.696 154.888 132.129 156.1C130.675 157.187 129.215 158.31 127.749 159.467C120.625 160.149 113.662 161.089 107.031 162.844C106.963 162.258 106.922 161.67 106.908 161.082L90.981 161.459C91.0418 164.023 91.3804 166.493 91.9314 168.856C77.696 176.939 66.1164 192.114 59.5119 221.834Z" fill="#F55197"/>
<path d="M38.9642 277.713L54.125 278.568C60.46 307.207 74.4903 336.44 94.0159 361.513L93.7317 361.713C87.5889 366.016 89.2287 375.527 96.4576 377.526L109.193 381.046L116.774 391.868C119.23 395.372 123.38 396.344 126.863 395.189C144.27 409.294 164.07 420.251 185.549 426.218C222.52 436.488 271.821 442.688 318.937 434.18C362.324 426.345 404.207 405.938 432.425 364.502C433.865 365.607 435.749 366.123 437.675 365.772L454.709 362.67C456.448 362.353 457.989 361.359 458.994 359.906C459.999 358.453 460.386 356.661 460.07 354.923C458.299 345.202 455.064 336.763 450.651 329.807C454.513 320.04 457.777 309.5 460.377 298.142C461.935 291.339 463.257 284.678 464.354 278.158L467.883 276.259C471.123 274.516 472.336 270.476 470.593 267.236C469.415 265.048 468.135 262.99 466.759 261.068C475.535 183.092 450.94 127.223 414.082 95.9309L413.541 93.1011C412.431 87.2871 406.374 84.5648 401.518 86.5141C389.988 78.9349 377.651 73.5447 365.09 70.4045C332.649 62.2942 303.18 64.2878 275.721 74.9435C248.381 85.5532 223.422 104.596 199.619 129.986C198.947 130.703 198.27 131.393 197.587 132.059L194.421 125.137C194.622 124.837 194.801 124.52 194.953 124.187C195.687 122.58 195.753 120.748 195.135 119.092L189.571 104.164C188.954 102.509 187.704 101.166 186.098 100.432C184.491 99.6978 182.658 99.632 181.003 100.249C168.77 104.809 160.99 115.7 158.053 126.99C157.514 129.063 157.122 131.196 156.888 133.367C155.108 134.16 153.298 135.028 151.464 135.968C151.743 129.766 153.888 123.216 158.661 116.607C160.815 113.624 160.144 109.46 157.161 107.306L144.246 97.9785C142.814 96.9442 141.029 96.5211 139.285 96.8024C137.541 97.0837 135.98 98.0464 134.945 99.4786C122.449 116.782 119.679 135.85 124.239 153.127C119.544 153.631 114.818 154.288 110.156 155.264C109.15 154.702 107.986 154.393 106.75 154.422L90.8231 154.8C87.1452 154.887 84.2343 157.939 84.3215 161.617C84.3534 162.961 84.4494 164.281 84.6023 165.575C70.23 175.33 59.3023 192.07 53.0092 220.389C51.7328 226.132 50.9326 232.059 50.5748 238.111C40.1096 244.696 33.5044 256.224 32.6886 270.687C32.5891 272.451 33.1944 274.183 34.3713 275.5C35.5482 276.818 37.2003 277.614 38.9642 277.713ZM119.746 385.592C119.747 385.589 119.748 385.586 119.749 385.584L119.746 385.592ZM408.258 97.6072C408.255 97.6107 408.252 97.6143 408.249 97.6178L408.258 97.6072L407.501 96.9792L408.258 97.6072ZM108.275 379.735L108.279 379.741C108.278 379.739 108.276 379.737 108.275 379.735Z" stroke="white" stroke-width="13.3227" stroke-linecap="round" stroke-linejoin="round"/>
<path d="M59.1312 220.526C43.4865 290.726 102.936 395.246 187.417 418.645C271.898 442.045 420.919 443.605 454.941 295.406C484.666 165.926 426.781 91.0463 364.202 75.4463C301.623 59.8464 251.561 83.2464 204.627 133.166C157.693 183.086 81.0679 122.093 59.1312 220.526Z" fill="#FFE99C"/>
<path fill-rule="evenodd" clip-rule="evenodd" d="M80.0647 340.647C56.0175 301.882 44.3068 256.414 52.6276 219.077C58.3175 193.545 67.7852 177.342 80.3269 167.192C92.801 157.096 107.425 153.735 121.718 152.039C126.923 151.421 132.292 151.006 137.539 150.6C139.446 150.453 141.337 150.306 143.198 150.152C150.303 149.563 157.189 148.845 163.863 147.503C177.076 144.847 189.254 139.79 199.772 128.603C223.661 103.194 248.708 84.1393 276.142 73.5238C303.693 62.8628 333.26 60.8681 365.812 68.9826C432.877 85.7011 491.727 164.933 461.432 296.896C443.829 373.574 396.119 411.951 341.967 427.769C288.31 443.444 228.594 436.963 185.637 425.065C141.381 412.807 104.167 379.501 80.0647 340.647ZM187.416 418.645C102.934 395.245 43.4848 290.726 59.1294 220.526C72.0963 162.342 104.171 159.862 137.927 157.252C161.278 155.446 185.434 153.578 204.625 133.166C251.559 83.2463 301.622 59.8462 364.2 75.4462C426.779 91.0461 484.664 165.926 454.939 295.406C420.917 443.605 271.897 442.045 187.416 418.645Z" fill="black"/>
<path d="M192.042 139.834L66.5542 267.47L266.531 344.196C270.228 345.614 273.836 341.939 272.351 338.269L192.042 139.834Z" fill="#5E5AF7"/>
<path fill-rule="evenodd" clip-rule="evenodd" d="M60.0453 268.884C59.5688 266.69 60.2304 264.403 61.8049 262.801L187.293 135.165C188.866 133.564 191.14 132.864 193.341 133.301C195.543 133.739 197.376 135.255 198.218 137.336L278.526 335.771C282.197 344.841 273.28 353.921 264.146 350.416L64.1688 273.691C62.072 272.886 60.5217 271.079 60.0453 268.884ZM66.555 267.471L266.532 344.197C270.228 345.615 273.837 341.941 272.351 338.27L192.043 139.835L66.555 267.471Z" fill="black"/>
<mask id="mask0_39_342" style="mask-type:alpha" maskUnits="userSpaceOnUse" x="66" y="139" width="207" height="206">
<path d="M192.042 139.834L66.5542 267.47L266.531 344.196C270.228 345.614 273.836 341.939 272.351 338.269L192.042 139.834Z" fill="#28FF71"/>
</mask>
<g mask="url(#mask0_39_342)">
<path fill-rule="evenodd" clip-rule="evenodd" d="M273.854 354.795L172.712 133.654L187.829 126.74L288.97 347.881L273.854 354.795Z" fill="#5C7CFA"/>
<path d="M58.8677 262.102C85.8917 264.444 164.388 249.812 216.736 157.269L202.268 149.085C153.337 235.586 81.2869 247.36 60.3031 245.541L58.8677 262.102Z" fill="#DCEEFF"/>
<path d="M83.102 296.378C97.2534 297.605 122.168 292.557 150.396 277.485C178.909 262.263 211.386 236.526 240.58 195.481L227.035 185.847C199.341 224.782 168.826 248.803 142.568 262.822C116.025 276.993 94.3899 280.672 84.5375 279.818L83.102 296.378Z" fill="#DCEEFF"/>
<path d="M271.679 226.056C213.527 307.813 148.694 325.647 121.066 323.252L122.502 306.692C142.882 308.458 202.509 294.625 258.133 216.422L271.679 226.056Z" fill="#DCEEFF"/>
<path d="M152.165 353.828C179.793 356.222 244.626 338.388 302.778 256.631L289.232 246.997C233.608 325.2 173.981 339.034 153.601 337.267L152.165 353.828Z" fill="#DCEEFF"/>
</g>
<path d="M152.512 226.264C170.06 208.417 183.508 189.661 191.015 173.675C194.762 165.696 197.111 158.235 197.649 151.819C198.186 145.428 196.949 139.565 192.862 135.546C188.774 131.527 182.89 130.391 176.51 131.036C170.104 131.683 162.684 134.158 154.77 138.04C138.913 145.817 120.389 159.582 102.842 177.429C85.2945 195.277 71.8463 214.032 64.3391 230.019C60.5923 237.997 58.2435 245.459 57.705 251.875C57.1686 258.265 58.405 264.129 62.4925 268.147C66.58 272.166 72.4638 273.303 78.844 272.658C85.2502 272.011 92.6704 269.536 100.584 265.654C116.441 257.876 134.965 244.112 152.512 226.264Z" fill="#364FC7" stroke="black" stroke-width="6.66133" stroke-linejoin="round"/>
<path d="M286.29 143.089C285.601 142.202 284.512 141.723 283.392 141.813C282.273 141.903 281.275 142.552 280.737 143.537L136.362 408.135C132.298 415.582 139.076 424.291 147.293 422.18L439.076 347.234C440.163 346.955 441.036 346.147 441.399 345.085C441.762 344.023 441.566 342.85 440.877 341.964L286.29 143.089Z" fill="#2898FF" stroke="black" stroke-width="6.66133" stroke-linejoin="round"/>
<mask id="mask1_39_342" style="mask-type:alpha" maskUnits="userSpaceOnUse" x="138" y="145" width="301" height="275">
<path d="M438.248 344.008L283.661 145.132L139.286 409.729C136.617 414.621 141.068 420.34 146.465 418.954L438.248 344.008Z" fill="#2E9BFF"/>
</mask>
<g mask="url(#mask1_39_342)">
<path fill-rule="evenodd" clip-rule="evenodd" d="M123.132 417.963L450.477 318.2L457.296 340.576L129.952 440.339L123.132 417.963Z" fill="#74C0FC"/>
<path d="M292.583 135.413C284.267 172.669 290.013 284.89 409.313 375.193L423.431 356.542C311.92 272.134 308.957 169.438 315.414 140.509L292.583 135.413Z" fill="white"/>
<path d="M240.246 162.811C235.892 182.32 238.279 218.014 254.027 260.203C269.933 302.817 299.764 352.924 351.56 401.312L367.529 384.218C318.395 338.317 290.591 291.267 275.942 252.023C261.135 212.354 260.045 181.489 263.077 167.907L240.246 162.811Z" fill="white"/>
<path d="M303.104 438.977C199.932 342.594 187.168 248.832 195.669 210.745L218.5 215.84C212.228 243.937 220.385 329.689 319.073 421.884L303.104 438.977Z" fill="white"/>
<path d="M147.213 248.41C138.711 286.497 151.475 380.259 254.647 476.642L270.616 459.549C171.928 367.354 163.772 281.602 170.043 253.505L147.213 248.41Z" fill="white"/>
</g>
<path d="M326.15 271.891C347.698 299.612 371.237 321.757 391.973 335.111C402.328 341.78 412.143 346.361 420.776 348.263C429.385 350.16 437.32 349.484 443.244 344.879C449.168 340.274 451.781 332.751 452.066 323.942C452.353 315.106 450.335 304.464 446.428 292.784C438.602 269.394 422.95 241.119 401.402 213.398C379.855 185.676 356.315 163.532 335.579 150.177C325.225 143.509 315.409 138.928 306.776 137.026C298.168 135.129 290.233 135.805 284.309 140.41C278.385 145.014 275.772 152.537 275.486 161.347C275.199 170.183 277.217 180.825 281.125 192.505C288.951 215.895 304.602 244.17 326.15 271.891Z" fill="#228BE6" stroke="black" stroke-width="6.66133" stroke-linejoin="round"/>
<path fill-rule="evenodd" clip-rule="evenodd" d="M159.821 189.474C146.159 180.936 135.471 167.734 131.119 152.375C126.707 136.805 128.952 119.451 140.486 103.48L153.123 112.607C144.394 124.693 142.996 137.115 146.116 148.125C149.295 159.344 157.313 169.525 168.082 176.256L159.821 189.474ZM179.753 132.635C181.274 126.785 184.898 122.726 188.834 121.259L183.39 106.652C173.692 110.267 167.174 119.071 164.667 128.711C162.124 138.489 163.444 149.916 170.242 159.712L183.048 150.826C179.03 145.035 178.267 138.346 179.753 132.635ZM464.576 270.475C455.779 254.126 441.171 247.188 426.218 249.509C411.851 251.738 398.659 262.258 390.834 277.511L404.703 284.626C410.744 272.851 420.155 266.224 428.609 264.912C436.476 263.691 444.907 266.817 450.85 277.861L464.576 270.475ZM453.517 356.117C450.213 337.973 441.535 325.452 430.597 319.262C419.788 313.144 406.735 313.489 397.769 321.543L409.338 334.424C411.776 332.235 416.487 331.171 422.069 334.331C427.524 337.418 433.868 344.86 436.482 359.219L453.517 356.117ZM39.5112 271.073C40.4163 255.027 49.3798 244.069 62.1306 240.356C74.312 236.809 88.4935 240.275 100.117 249.286L90.566 261.605C82.0315 254.989 72.9242 253.449 66.4884 255.323C60.622 257.031 55.6401 261.92 55.0743 271.951L39.5112 271.073ZM100.36 185.904C105.061 192.184 110.628 196.935 114.572 199.524L123.126 186.493C120.586 184.826 116.381 181.294 112.84 176.564C109.291 171.821 106.865 166.493 106.737 161.086L91.1533 161.456C91.3848 171.222 95.6688 179.635 100.36 185.904Z" fill="#F55197"/>
<path fill-rule="evenodd" clip-rule="evenodd" d="M161.319 195.965C159.598 196.362 157.789 196.059 156.291 195.123C141.395 185.813 129.565 171.321 124.71 154.191C119.747 136.673 122.353 117.212 135.087 99.5798C136.121 98.1476 137.682 97.1849 139.426 96.9036C141.171 96.6223 142.955 97.0454 144.387 98.0798L157.024 107.206C160.007 109.36 160.678 113.524 158.524 116.507C150.994 126.933 149.958 137.248 152.526 146.309C155.204 155.76 162.081 164.649 171.613 170.607C174.733 172.557 175.682 176.666 173.732 179.786L165.47 193.005C164.534 194.503 163.041 195.568 161.319 195.965ZM195.077 118.932C196.362 122.379 194.609 126.215 191.162 127.5C189.67 128.057 187.295 130.104 186.2 134.312L179.754 132.635C181.275 126.787 184.896 122.728 188.831 121.26C188.833 121.259 188.834 121.259 188.835 121.259L183.391 106.652C181.249 107.451 179.262 108.502 177.44 109.76C171.01 114.197 166.621 121.2 164.668 128.711C162.613 136.611 163.08 145.587 166.92 153.91C167.831 155.885 168.933 157.824 170.236 159.703C170.238 159.706 170.24 159.709 170.242 159.712L183.049 150.826C183.048 150.824 183.047 150.822 183.045 150.821C179.031 145.031 178.268 138.345 179.754 132.635L186.2 134.312C185.168 138.282 185.69 142.947 188.522 147.028C189.529 148.48 189.919 150.272 189.604 152.011C189.29 153.749 188.298 155.292 186.847 156.299L174.04 165.185C172.589 166.192 170.796 166.582 169.058 166.268C167.319 165.953 165.777 164.961 164.77 163.51C156.782 151.999 155.226 138.548 158.221 127.034C161.147 115.785 168.895 104.946 181.064 100.411C182.719 99.7936 184.552 99.8594 186.159 100.594C187.766 101.328 189.015 102.67 189.632 104.326L195.077 118.932ZM470.957 272.391C470.449 274.083 469.289 275.504 467.733 276.341L454.007 283.727C450.767 285.47 446.727 284.257 444.984 281.017C442.518 276.434 439.801 273.967 437.36 272.688C434.931 271.415 432.324 271.077 429.631 271.495C423.696 272.416 415.905 277.386 410.631 287.667C408.952 290.94 404.937 292.232 401.663 290.553L387.794 283.438C386.222 282.631 385.035 281.233 384.494 279.552C383.953 277.87 384.102 276.042 384.908 274.47C393.493 257.737 408.298 245.549 425.197 242.926C443.186 240.135 460.43 248.71 470.443 267.318C471.28 268.874 471.465 270.699 470.957 272.391ZM460.071 354.923C460.73 358.543 458.33 362.011 454.711 362.67L437.676 365.772C434.057 366.432 430.589 364.032 429.93 360.412C427.582 347.519 422.142 342.025 418.789 340.128C416.994 339.112 415.703 338.97 414.966 339.018C414.188 339.07 413.836 339.339 413.79 339.38C412.476 340.561 410.746 341.171 408.982 341.076C407.218 340.981 405.563 340.19 404.383 338.875L392.813 325.994C390.355 323.257 390.581 319.045 393.318 316.587C404.816 306.26 421.084 306.223 433.879 313.465C446.93 320.851 456.503 335.33 460.071 354.923ZM34.5439 275.51C33.367 274.193 32.7617 272.462 32.8612 270.698C33.9106 252.091 44.5673 238.533 60.2689 233.961C74.9118 229.697 91.2616 233.991 104.199 244.021C105.595 245.104 106.504 246.696 106.726 248.449C106.948 250.202 106.464 251.971 105.382 253.367L95.8312 265.686C93.5771 268.594 89.3928 269.124 86.4852 266.87C79.2801 261.284 72.3413 260.557 68.3514 261.718C66.6025 262.228 65.1693 263.14 64.0927 264.553C63.0049 265.981 61.9496 268.358 61.7258 272.326C61.5186 275.999 58.373 278.809 54.6999 278.601L39.1368 277.724C37.3729 277.624 35.7208 276.828 34.5439 275.51ZM115.926 206.047C114.196 206.406 112.394 206.062 110.917 205.093C106.373 202.11 100.224 196.838 95.0278 189.895C89.8497 182.976 84.7702 173.244 84.4945 161.613C84.4073 157.936 87.3182 154.883 90.9961 154.796L106.58 154.427C110.257 154.34 113.31 157.25 113.397 160.928C113.481 164.475 115.114 168.484 118.174 172.572C121.219 176.641 124.842 179.651 126.783 180.925C128.259 181.894 129.291 183.411 129.649 185.141C130.008 186.87 129.665 188.672 128.696 190.149L120.141 203.18C119.172 204.657 117.655 205.688 115.926 206.047ZM159.821 189.474C157.935 188.295 156.104 187.027 154.34 185.676C143.328 177.248 134.871 165.613 131.119 152.375C127.218 138.606 128.522 123.442 136.853 109.073C137.943 107.193 139.153 105.327 140.487 103.48L153.124 112.607C153.123 112.608 153.122 112.609 153.121 112.611C144.394 124.696 142.997 137.117 146.117 148.125C149.296 159.344 157.313 169.525 168.083 176.256L159.821 189.474ZM394.192 271.746C392.994 273.569 391.878 275.48 390.854 277.473C390.848 277.486 390.841 277.498 390.835 277.511L404.704 284.626C404.71 284.615 404.715 284.604 404.721 284.593C410.763 272.838 420.164 266.223 428.609 264.912C436.477 263.691 444.908 266.817 450.85 277.861L464.577 270.475C463.484 268.443 462.301 266.556 461.038 264.815C452.143 252.544 439.313 247.477 426.219 249.509C413.741 251.445 402.151 259.634 394.192 271.746ZM403.323 317.757C411.65 313.594 421.857 314.315 430.598 319.262C440.176 324.683 448.021 334.959 452.042 349.614C452.613 351.694 453.107 353.862 453.517 356.117L436.483 359.219C433.868 344.86 427.525 337.418 422.07 334.331C416.488 331.171 411.776 332.235 409.339 334.424L397.769 321.543C399.486 320.001 401.351 318.742 403.323 317.757ZM39.5119 271.073C39.6425 268.757 39.9409 266.548 40.3943 264.451C43.0828 252.015 51.2205 243.533 62.1312 240.356C72.4422 237.354 84.1861 239.376 94.5986 245.532C96.4798 246.645 98.3176 247.892 100.096 249.269C100.103 249.275 100.11 249.28 100.117 249.286L90.5667 261.605C90.5614 261.601 90.5561 261.597 90.5508 261.593C82.021 254.987 72.9209 253.45 66.4891 255.323C60.6227 257.031 55.6408 261.92 55.075 271.951L39.5119 271.073ZM114.573 199.524C113.009 198.497 111.189 197.131 109.27 195.464C106.349 192.926 103.197 189.694 100.361 185.904C96.771 181.107 93.4195 175.054 91.94 168.1C91.4867 165.97 91.2092 163.755 91.1542 161.466C91.1541 161.463 91.1541 161.459 91.154 161.456L106.737 161.086C106.866 166.493 109.291 171.821 112.841 176.564C116.381 181.294 120.587 184.826 123.127 186.493L114.573 199.524Z" fill="black"/>
<path d="M289.601 118.956C305.839 125.009 313.758 149.596 300.876 168.16" stroke="#3EF3E8" stroke-width="15.9315"/>
<path fill-rule="evenodd" clip-rule="evenodd" d="M426.219 249.508C441.172 247.188 455.78 254.125 464.577 270.474L450.851 277.861C444.908 266.817 436.477 263.691 428.61 264.912C420.156 266.224 410.746 272.85 404.704 284.626L390.835 277.51C398.66 262.258 411.852 251.738 426.219 249.508Z" fill="#3EF3E8"/>
<path fill-rule="evenodd" clip-rule="evenodd" d="M430.597 319.261C441.534 325.451 450.212 337.973 453.516 356.116L436.482 359.218C433.867 344.86 427.524 337.417 422.069 334.33C416.486 331.171 411.775 332.234 409.337 334.424L397.768 321.542C406.735 313.489 419.787 313.144 430.597 319.261Z" fill="#F55197"/>
<path d="M369.713 213.108C377.436 208.038 392.99 193.38 393.418 175.308" stroke="#3EF3E8" stroke-width="15.9315"/>
<path d="M323.08 203.888C353.836 185.509 369.214 121.971 328.023 87.3145" stroke="#F55197" stroke-width="15.9315"/>
<path fill-rule="evenodd" clip-rule="evenodd" d="M179.754 132.633C181.276 126.783 184.899 122.724 188.836 121.257L183.391 106.651C173.694 110.265 167.176 119.069 164.668 128.709C162.125 138.487 163.445 149.914 170.243 159.711L183.05 150.824C179.032 145.034 178.269 138.344 179.754 132.633Z" fill="#FFC279"/>
<path fill-rule="evenodd" clip-rule="evenodd" d="M62.1308 240.356C49.3801 244.069 40.4165 255.027 39.5115 271.073L55.0746 271.951C55.6403 261.92 60.6222 257.031 66.4887 255.323C72.9244 253.449 82.0318 254.989 90.5662 261.605L100.117 249.286C88.4937 240.275 74.3122 236.809 62.1308 240.356Z" fill="#FFC279"/>
<path fill-rule="evenodd" clip-rule="evenodd" d="M100.36 185.903C105.061 192.184 110.628 196.935 114.572 199.524L123.126 186.493C120.586 184.825 116.381 181.294 112.84 176.563C109.291 171.821 106.865 166.493 106.737 161.086L91.1534 161.455C91.3849 171.222 95.669 179.635 100.36 185.903Z" fill="#3EF3E8"/>
<path fill-rule="evenodd" clip-rule="evenodd" d="M131.875 153.205C135.957 168.673 145.98 181.967 158.791 190.565L166.538 177.254C156.439 170.476 148.92 160.224 145.939 148.926C143.014 137.839 144.324 125.33 152.51 113.158L140.66 103.968C129.843 120.051 127.738 137.527 131.875 153.205Z" fill="#F55197"/>
<circle cx="386.363" cy="153.928" r="6.66133" fill="#F07E6E"/>
<circle cx="442.984" cy="307.139" r="3.33067" fill="#F07E6E"/>
<circle cx="231.486" cy="128.948" r="4.996" fill="#3EF3E8"/>
<circle cx="96.5943" cy="200.557" r="3.33067" fill="#3EF3E8"/>
<circle cx="306.426" cy="187.235" r="3.33067" fill="#F0AC6E"/>
<path d="M114.494 343.17C114.991 341.371 117.359 340.962 118.43 342.492L126.93 354.624C127.224 355.044 127.656 355.348 128.15 355.485L142.428 359.432C144.228 359.929 144.636 362.297 143.107 363.369L130.974 371.868C130.554 372.163 130.25 372.594 130.113 373.089L126.166 387.366C125.669 389.166 123.301 389.574 122.229 388.045L113.73 375.913C113.435 375.493 113.004 375.188 112.51 375.052L98.2319 371.105C96.4322 370.607 96.024 368.239 97.5532 367.168L109.685 358.668C110.105 358.374 110.41 357.943 110.547 357.448L114.494 343.17Z" fill="#5C7CFA"/>
<path fill-rule="evenodd" clip-rule="evenodd" d="M110.548 357.449C110.411 357.943 110.106 358.375 109.686 358.669L97.5541 367.169C96.0248 368.24 96.433 370.608 98.2328 371.106L112.51 375.052C113.005 375.189 113.436 375.494 113.731 375.914L122.23 388.046C123.302 389.575 125.67 389.167 126.167 387.367L130.114 373.09C130.251 372.595 130.555 372.164 130.975 371.869L143.107 363.37C144.637 362.298 144.228 359.93 142.429 359.433L128.151 355.486C127.657 355.349 127.225 355.045 126.931 354.625L118.431 342.493C117.36 340.963 114.992 341.372 114.494 343.171L110.548 357.449ZM131.468 349.492L123.887 338.67C119.583 332.528 110.072 334.167 108.074 341.396L104.553 354.132L93.7319 361.713C87.5892 366.017 89.2289 375.528 96.4579 377.526L109.193 381.047L116.775 391.868C121.078 398.011 130.589 396.371 132.588 389.142L136.108 376.407L146.93 368.825C153.072 364.522 151.433 355.011 144.204 353.012L131.468 349.492Z" fill="black"/>
<path d="M403.13 93.3571C404.321 91.9194 406.648 92.5177 406.999 94.3518L408.734 103.431C408.83 103.935 409.098 104.39 409.493 104.717L416.611 110.616C418.048 111.807 417.45 114.134 415.616 114.485L406.536 116.22C406.033 116.316 405.578 116.585 405.251 116.979L399.352 124.097C398.161 125.534 395.833 124.936 395.483 123.102L393.748 114.022C393.652 113.519 393.383 113.064 392.988 112.737L385.871 106.838C384.433 105.647 385.032 103.319 386.866 102.969L395.945 101.234C396.449 101.138 396.904 100.869 397.231 100.474L403.13 93.3571Z" fill="#2898FF"/>
<path fill-rule="evenodd" clip-rule="evenodd" d="M397.233 100.472C396.906 100.867 396.451 101.136 395.947 101.232L386.868 102.967C385.034 103.317 384.435 105.645 385.873 106.836L392.99 112.735C393.385 113.062 393.654 113.517 393.75 114.021L395.485 123.1C395.835 124.934 398.163 125.532 399.354 124.095L405.253 116.977C405.58 116.583 406.035 116.314 406.538 116.218L415.618 114.483C417.452 114.132 418.05 111.805 416.613 110.614L409.495 104.715C409.101 104.388 408.832 103.933 408.736 103.429L407.001 94.3498C406.65 92.5157 404.323 91.9175 403.132 93.3551L397.233 100.472ZM414.978 100.607L413.544 93.0997C412.136 85.7328 402.789 83.3298 398.003 89.1045L393.125 94.9897L385.618 96.4241C378.251 97.8316 375.848 107.179 381.622 111.965L387.508 116.842L388.942 124.35C390.35 131.717 399.697 134.12 404.483 128.345L409.36 122.46L416.868 121.026C424.235 119.618 426.638 110.271 420.863 105.485L414.978 100.607Z" fill="black"/>
<rect x="92.2461" y="277.865" width="13.9082" height="13.4855" rx="0.637259" transform="rotate(-12.5876 92.2461 277.865)" fill="#3EF3E8"/>
<rect x="419.591" y="217.106" width="21.2244" height="20.5793" rx="0.637259" transform="rotate(-12.5876 419.591 217.106)" fill="#FFB155"/>
<path d="M68.5888 231.47L76.2851 201.757C76.4056 201.292 76.9781 201.123 77.3325 201.447L99.4038 221.666C99.7648 221.997 99.6335 222.595 99.167 222.743L69.3993 232.237C68.9215 232.39 68.463 231.956 68.5888 231.47Z" fill="#F55197"/>
</g>
<defs>
<clipPath id="clip0_39_342">
<rect width="512" height="512" fill="white"/>
</clipPath>
</defs>
</svg>
