<svg width="512" height="512" viewBox="0 0 512 512" fill="none" xmlns="http://www.w3.org/2000/svg">
<path d="M111.958 147.414H99.1005C97.5999 147.414 96.23 146.469 95.9957 144.987C93.7444 130.741 109.263 105.11 126.56 105.11C131.397 105.11 136.68 106.214 141.87 107.97C189.855 58.8308 271.559 44.4874 325.738 80.6066C335.956 87.4185 344.449 95.2182 351.705 103.6C359.059 106.206 362.69 111.407 363.906 114.88C362.82 110.213 365.919 103.239 377.316 104.748C387.996 106.161 395.598 114.365 402.488 121.844C404.644 124.184 402.957 128.199 399.775 128.199H369.155C376.11 139.984 381.757 152.11 387.155 163.699C397.46 185.822 406.853 205.989 422.686 218.097C482.617 263.927 462.416 376.196 410.347 411.993C325.738 470.162 124.791 482.501 78.9607 350.299C49.7177 265.944 83.1955 192.055 111.958 147.414Z" fill="white"/>
<path d="M99.1005 153.83H100.419C72.8872 199.839 44.7939 271.328 72.8989 352.4C96.9701 421.836 161.667 452.632 229.519 458.923C297.295 465.207 370.24 447.352 413.982 417.28C442.039 397.99 460.702 358.951 464.896 319.485C469.099 279.942 458.975 237.771 426.583 213C412.255 202.044 403.474 183.54 392.971 160.99L392.915 160.87C388.98 152.422 384.833 143.518 380.095 134.615H399.775C408.8 134.615 412.978 123.761 407.207 117.497C407.051 117.327 406.893 117.156 406.734 116.983C400.226 109.911 391.212 100.115 378.158 98.3877C371.658 97.5274 366.108 98.7843 362.225 102.176C360.338 100.66 358.105 99.2879 355.496 98.1903C348.133 89.8736 339.545 82.1009 329.296 75.2685L325.738 80.6066L329.296 75.2685C273.146 37.8351 190.142 52.008 140.068 100.705C135.614 99.4728 131.011 98.6939 126.56 98.6939C114.807 98.6939 104.925 107.165 98.6997 116.015C92.4546 124.893 88.1677 136.554 89.6587 145.989C90.4893 151.245 95.1567 153.83 99.1005 153.83Z" stroke="white" stroke-width="12.8313"/>
<path d="M325.738 80.6034C267.569 41.8242 177.672 61.214 131.842 119.383C104.227 155.224 42.2971 244.534 78.9611 350.296C124.791 482.498 325.738 470.159 410.347 411.99C462.416 376.193 482.618 263.924 422.686 218.094C386.173 190.172 383.907 119.383 325.738 80.6034Z" fill="#885DE3"/>
<path fill-rule="evenodd" clip-rule="evenodd" d="M126.759 115.468L126.802 115.414C174.375 55.0323 267.923 34.351 329.296 75.2664C359.912 95.677 375.636 124.447 388.124 150.662C389.832 154.247 391.467 157.758 393.065 161.187C397.392 170.477 401.442 179.173 405.91 187.151C411.976 197.98 418.451 206.781 426.582 212.998C458.975 237.769 469.098 279.94 464.896 319.483C460.701 358.949 442.039 397.988 413.981 417.278C370.24 447.35 297.294 465.205 229.519 458.921C161.666 452.63 96.9695 421.834 72.8983 352.398C35.0455 243.207 99.0861 151.384 126.759 115.468ZM131.841 119.384C104.225 155.225 42.2961 244.535 78.9601 350.297C124.79 482.499 325.737 470.16 410.346 411.991C462.415 376.194 482.617 263.925 422.685 218.095C406.852 205.987 397.459 185.82 387.155 163.697C373.696 134.801 358.683 102.568 325.737 80.6045C267.568 41.8253 177.671 61.2151 131.841 119.384Z" fill="black"/>
<path d="M292.078 126.067C287.812 115.025 284.72 96.4692 301.641 96.4692C317.199 96.4692 325.285 104.654 328.34 110.45C327.443 106.685 329.379 101.987 341.595 101.987C355.936 101.987 362.225 110.081 363.905 114.879C362.819 110.212 365.917 103.238 377.314 104.746C387.994 106.16 395.597 114.363 402.486 121.842C404.642 124.182 402.955 128.198 399.773 128.198H295.26C293.859 128.198 292.583 127.373 292.078 126.067Z" fill="#C4A8FF"/>
<path fill-rule="evenodd" clip-rule="evenodd" d="M328.339 110.45C328.092 109.412 328.06 108.304 328.399 107.242C328.819 105.93 329.806 104.689 331.655 103.743C333.736 102.678 336.91 101.987 341.595 101.987C349.423 101.987 354.853 104.399 358.442 107.37C360.229 108.849 361.559 110.465 362.504 111.992C363.138 113.018 363.598 114.003 363.904 114.879C363.672 113.88 363.631 112.775 363.822 111.671C364.13 109.898 365.035 108.124 366.706 106.789C368.856 105.071 372.273 104.079 377.314 104.746C387.994 106.16 395.596 114.363 402.486 121.842C404.642 124.182 402.955 128.198 399.773 128.198H295.259C293.859 128.198 292.583 127.373 292.078 126.067C287.812 115.025 284.719 96.4691 301.64 96.4691C311.559 96.4691 318.441 99.7956 322.918 103.709C324.417 105.02 325.647 106.396 326.631 107.735C327.317 108.67 327.884 109.586 328.339 110.45ZM327.196 98.9308C330.787 96.5259 335.728 95.5715 341.595 95.5715C350.805 95.5715 357.551 98.421 362.222 102.175C366.105 98.7828 371.655 97.5256 378.156 98.3859C391.21 100.114 400.224 109.909 406.732 116.981C406.891 117.154 407.049 117.325 407.205 117.495C412.976 123.759 408.798 134.613 399.773 134.613H295.259C291.372 134.613 287.611 132.307 286.094 128.379C283.825 122.507 281.532 113.892 282.556 106.273C283.084 102.341 284.577 98.1152 288.001 94.8785C291.499 91.5718 296.209 90.0535 301.64 90.0535C313.285 90.0535 321.635 94.0433 327.196 98.9308Z" fill="black"/>
<path d="M96.7509 145.244C94.4996 130.997 110.018 105.366 127.315 105.366C144.464 105.366 167.224 119.248 171.534 126.812C169.796 121.864 170.468 114.179 184.493 114.179C199.045 114.179 205.426 124.521 207.131 130.652C206.029 124.688 209.173 115.777 220.738 117.705C232.402 119.649 240.447 131.642 247.868 141.715C249.641 144.122 247.928 147.671 244.939 147.671H99.8556C98.355 147.671 96.9851 146.726 96.7509 145.244Z" fill="#C4A8FF"/>
<path fill-rule="evenodd" clip-rule="evenodd" d="M171.534 126.812C171.194 125.844 170.946 124.772 170.873 123.672C170.744 121.752 171.147 119.75 172.518 118.082C174.374 115.824 178.005 114.179 184.493 114.179C192.616 114.179 198.193 117.401 201.832 121.315C203.728 123.355 205.099 125.582 206.028 127.639C206.51 128.706 206.874 129.727 207.131 130.652C206.945 129.646 206.88 128.556 206.956 127.448C207.117 125.099 207.912 122.669 209.532 120.792C211.676 118.309 215.263 116.792 220.738 117.705C231.628 119.52 239.364 130.095 246.383 139.689C246.881 140.371 247.376 141.047 247.868 141.715C249.641 144.122 247.928 147.67 244.939 147.67H99.8558C98.3552 147.67 96.9853 146.726 96.7511 145.243C94.4997 130.997 110.018 105.366 127.315 105.366C139.954 105.366 155.642 112.907 164.744 119.902C166.698 121.403 168.349 122.88 169.601 124.251C170.429 125.159 171.082 126.02 171.534 126.812ZM167.567 113.998C171.136 109.642 177.114 107.764 184.493 107.764C193.977 107.764 200.76 111.302 205.407 115.806C209.248 111.92 214.943 110.235 221.793 111.376C229.547 112.669 235.648 117.229 240.483 122.178C244.644 126.437 248.358 131.519 251.593 135.944C252.084 136.616 252.565 137.273 253.034 137.91C257.773 144.344 253.448 154.086 244.939 154.086H99.8558C95.912 154.086 91.2447 151.501 90.4141 146.245C88.923 136.81 93.2099 125.149 99.455 116.271C105.68 107.421 115.562 98.9502 127.315 98.9502C137.369 98.9502 148.422 102.931 157.232 107.578C161.018 109.575 164.544 111.775 167.567 113.998Z" fill="black"/>
<path d="M113.137 222.573C113.759 223.679 114.975 224.315 116.238 224.194C117.198 224.102 118.048 223.587 118.577 222.817C119.112 223.595 119.963 224.099 120.905 224.193C121.861 224.287 122.81 223.948 123.489 223.269L125.38 221.378L130.363 223.87C131.357 224.367 132.538 224.314 133.484 223.729C134.429 223.145 135.005 222.112 135.005 221C135.005 216.579 134.167 209.854 131.56 203.932C128.952 198.006 124.245 192.256 116.287 191.372C112.355 190.935 108.958 192.005 107.085 195.123C105.466 197.818 105.532 201.259 106.025 204.248C107.042 210.413 110.432 217.765 113.137 222.573Z" fill="white" stroke="black" stroke-width="6.41565" stroke-linecap="round" stroke-linejoin="round"/>
<path d="M186.871 327.682C186.427 329.312 187.323 331.008 188.92 331.559C190.517 332.11 192.268 331.327 192.923 329.77C193.625 328.101 194.302 326.398 194.95 324.666C197.348 319.888 201.361 314.179 206.271 307.621C207.866 305.49 209.556 303.271 211.299 300.98C214.898 296.252 218.727 291.221 222.44 286.037C233.431 270.69 244.072 253.128 246.035 235.458C251.442 186.796 226.227 135.391 174.666 126.184C156.097 122.868 141.485 126.664 131.159 135.016C120.887 143.325 115.257 155.821 113.955 169.181C111.362 195.793 125.87 226.95 157.159 238.124C179.615 246.144 190.126 259.64 193.891 274.594C197.704 289.741 194.71 306.859 189.055 322.112C188.119 324.012 187.364 325.877 186.871 327.682Z" fill="white" stroke="black" stroke-width="6.41565" stroke-linecap="round" stroke-linejoin="round"/>
<path d="M135.321 146.968C136.496 148.143 138.846 151.903 138.846 157.544C138.846 163.184 137.671 165.77 137.083 166.357" stroke="black" stroke-width="0.705077" stroke-linecap="round" stroke-linejoin="round"/>
<path d="M126.509 164.595C126.509 166.945 128.977 169.883 131.797 169.883" stroke="black" stroke-width="0.705077" stroke-linecap="round" stroke-linejoin="round"/>
<path d="M156.475 154.019C155.887 155.782 154.712 160.365 154.712 164.595" stroke="black" stroke-width="0.705077" stroke-linecap="round" stroke-linejoin="round"/>
<path d="M167.051 164.595C166.464 167.533 164.583 173.761 161.763 175.171" stroke="black" stroke-width="0.705077" stroke-linecap="round" stroke-linejoin="round"/>
<ellipse cx="3.5227" cy="9.41518" rx="3.5227" ry="9.41518" transform="matrix(0.99711 0.0759774 -0.0958891 0.995392 130.077 148.731)" fill="black"/>
<ellipse cx="143.262" cy="187.773" rx="3.52539" ry="10.5762" transform="rotate(4.89691 143.262 187.773)" fill="black"/>
<ellipse cx="3.5227" cy="9.41518" rx="3.5227" ry="9.41518" transform="matrix(0.99711 0.0759774 -0.0958891 0.995392 158.189 150.604)" fill="black"/>
<path d="M345.209 259.666C345.831 260.772 347.047 261.407 348.31 261.286C349.174 261.204 349.948 260.778 350.481 260.133C351.017 260.784 351.792 261.201 352.64 261.285C353.596 261.38 354.544 261.041 355.224 260.361L356.89 258.696L361.422 260.962C362.417 261.459 363.598 261.406 364.543 260.822C365.489 260.237 366.065 259.205 366.065 258.093C366.065 253.934 365.277 247.608 362.822 242.031C360.366 236.45 355.912 230.991 348.359 230.152C344.63 229.738 341.355 230.751 339.547 233.761C337.992 236.349 338.065 239.633 338.528 242.443C339.486 248.25 342.673 255.157 345.209 259.666Z" fill="white" stroke="black" stroke-width="6.41565" stroke-linecap="round" stroke-linejoin="round"/>
<path d="M290.068 334.733C290.513 336.363 289.617 338.059 288.02 338.611C286.423 339.162 284.672 338.381 284.017 336.824C282.97 334.338 282.14 331.807 281.535 329.245C280.294 325.789 278.774 321.831 277.102 317.476C276.746 316.551 276.384 315.608 276.016 314.648C273.896 309.116 271.604 303.062 269.417 296.785C265.057 284.269 261.054 270.692 259.685 258.393C257.623 239.858 260.337 220.086 269.123 204.646C277.994 189.056 293.022 177.999 314.986 177.291C329.378 176.828 340.528 180.707 348.312 187.483C356.087 194.251 360.206 203.652 361.009 213.668C362.607 233.608 351.136 256.327 328.573 267.593C294.816 284.446 283.14 307.316 287.701 327.434C288.672 330.151 289.49 332.618 290.068 334.733Z" fill="white" stroke="black" stroke-width="6.41565" stroke-linecap="round" stroke-linejoin="round"/>
<path d="M327.499 202.23C328.674 203.299 331.024 205.916 331.024 211.044C331.024 213.768 329.849 219.323 329.261 219.857" stroke="black" stroke-width="0.660072" stroke-linecap="round" stroke-linejoin="round"/>
<path d="M320.447 216.333C320.447 218.096 322.092 221.622 323.973 221.622" stroke="black" stroke-width="0.660072" stroke-linecap="round" stroke-linejoin="round"/>
<path d="M348.651 203.994C346.889 203.994 345.126 206.462 345.126 209.282" stroke="black" stroke-width="0.660072" stroke-linecap="round" stroke-linejoin="round"/>
<ellipse cx="2.83951" cy="7.5892" rx="2.83951" ry="7.5892" transform="matrix(0.99711 0.0759774 -0.0958891 0.995392 323.326 204.984)" fill="black"/>
<ellipse cx="333.954" cy="236.454" rx="2.84167" ry="8.52501" transform="rotate(4.89691 333.954 236.454)" fill="black"/>
<ellipse cx="2.83951" cy="7.5892" rx="2.83951" ry="7.5892" transform="matrix(0.99711 0.0759774 -0.0958891 0.995392 345.984 206.494)" fill="black"/>
<path d="M352.175 214.57C352.175 216.333 352.175 221.621 348.65 223.383" stroke="black" stroke-width="0.705077" stroke-linecap="round" stroke-linejoin="round"/>
<path d="M389.873 346.441C384.655 392.877 361.157 428.356 254.305 416.349C152.708 404.933 132.415 364.534 137.633 318.097C142.851 271.661 162.846 235.789 273.201 248.189C378.301 259.999 395.091 300.005 389.873 346.441Z" fill="#FC8C4E"/>
<path fill-rule="evenodd" clip-rule="evenodd" d="M286.202 418.627C366.037 420.535 385.221 387.843 389.873 346.441C395.091 300.005 378.301 259.999 273.201 248.189C255.519 246.203 240.157 245.455 226.804 245.792C236.944 246.029 248.098 246.811 260.37 248.189C365.47 259.999 382.26 300.005 377.042 346.441C372.65 385.528 355.306 416.851 286.202 418.627Z" fill="#DB6A2B"/>
<path fill-rule="evenodd" clip-rule="evenodd" d="M363.747 408.659C341.95 423.1 307.474 428.779 253.59 422.725C202.232 416.954 169.996 403.74 151.351 384.864C132.397 365.678 128.521 341.743 131.259 317.381C133.931 293.6 140.565 270.61 162.384 255.774C183.798 241.213 218.352 235.569 273.919 241.813C326.961 247.774 359.275 260.97 377.523 279.874C396.094 299.112 398.962 323.02 396.25 347.157C393.551 371.178 385.94 393.955 363.747 408.659ZM254.306 416.349C361.158 428.356 384.656 392.877 389.874 346.441C395.092 300.005 378.302 259.999 273.202 248.189C162.847 235.788 142.852 271.661 137.634 318.097C132.416 364.533 152.71 404.933 254.306 416.349Z" fill="black"/>
<path fill-rule="evenodd" clip-rule="evenodd" d="M230.942 260.767C231.059 261.733 230.371 262.612 229.404 262.729C220.129 263.855 208.952 265.223 198.84 272.904C188.77 280.553 179.485 294.696 174.671 321.98C171.641 339.155 174.987 355.411 180.319 368.335C185.672 381.313 192.936 390.719 197.486 394.259C198.254 394.857 198.392 395.964 197.794 396.733C197.196 397.501 196.089 397.639 195.321 397.041C190.128 393.001 182.556 383.002 177.06 369.679C171.541 356.301 168.025 339.358 171.199 321.367C176.109 293.537 185.704 278.455 196.707 270.097C207.599 261.824 219.604 260.367 228.803 259.251L228.979 259.229C229.946 259.112 230.824 259.8 230.942 260.767Z" fill="#F47730" fill-opacity="0.85"/>
<path fill-rule="evenodd" clip-rule="evenodd" d="M261.502 270.724C261.947 271.591 261.604 272.653 260.738 273.097C259.016 273.981 257.247 274.89 255.361 276.585C253.477 278.277 251.41 280.819 249.282 285.006C245 293.429 240.542 308.361 236.808 335.986C230.853 380.054 237.116 400.299 239.966 406.747C240.36 407.637 239.957 408.678 239.067 409.071C238.176 409.465 237.135 409.062 236.742 408.172C233.559 400.971 227.298 380.032 233.315 335.514C237.064 307.773 241.585 292.368 246.139 283.408C248.429 278.904 250.745 275.993 253.004 273.963C255.236 271.957 257.347 270.874 259.071 269.99L259.129 269.96C259.996 269.516 261.058 269.858 261.502 270.724Z" fill="#F47730" fill-opacity="0.85"/>
<path fill-rule="evenodd" clip-rule="evenodd" d="M321.728 274.519C321.399 275.435 321.876 276.444 322.792 276.773C331.586 279.929 342.18 283.744 350.336 293.478C358.457 303.171 364.372 319.022 363.011 346.694C361.12 385.128 335.418 407.105 324.724 412.107C323.842 412.519 323.461 413.568 323.874 414.45C324.286 415.332 325.335 415.713 326.217 415.3C337.885 409.844 364.566 386.822 366.532 346.867C367.92 318.641 361.912 301.806 353.038 291.214C344.255 280.73 332.872 276.645 324.15 273.515L323.983 273.455C323.067 273.126 322.057 273.602 321.728 274.519Z" fill="#F47730" fill-opacity="0.85"/>
<path fill-rule="evenodd" clip-rule="evenodd" d="M290.114 273.942C289.489 274.688 289.586 275.799 290.332 276.425C291.816 277.669 293.339 278.948 294.802 281.019C296.263 283.087 297.714 286.025 298.86 290.579C301.166 299.742 302.199 315.291 299.709 343.056C295.736 387.347 285.136 405.697 280.925 411.351C280.344 412.132 280.506 413.236 281.287 413.818C282.067 414.399 283.172 414.237 283.753 413.457C288.455 407.142 299.206 388.114 303.22 343.371C305.721 315.49 304.732 299.465 302.279 289.719C301.046 284.818 299.434 281.466 297.681 278.985C295.95 276.534 294.132 275.01 292.647 273.765L292.597 273.723C291.851 273.098 290.74 273.196 290.114 273.942Z" fill="#F47730" fill-opacity="0.85"/>
<path d="M309.572 271.786C309.246 274.688 292.513 275.19 272.197 272.907C251.881 270.625 235.676 266.421 236.002 263.519C236.328 260.617 253.062 260.115 273.378 262.397C293.694 264.68 309.899 268.884 309.572 271.786Z" fill="#762A00"/>
<path fill-rule="evenodd" clip-rule="evenodd" d="M295.256 230.528L289.968 230.527C284.834 230.526 281.762 231.824 279.864 233.384C277.946 234.961 276.662 237.272 275.981 240.318C274.563 246.656 276.078 254.83 278.162 260.574L279.965 265.545L270.023 269.152L268.22 264.181C265.813 257.544 263.616 247.146 265.66 238.009C266.709 233.318 268.95 228.665 273.148 225.214C277.366 221.746 283.003 219.95 289.97 219.951L295.258 219.952L295.256 230.528Z" fill="#762A00"/>
<path d="M214.747 294.833L238.215 332.059L183.603 325.922L214.747 294.833Z" fill="#592000"/>
<path fill-rule="evenodd" clip-rule="evenodd" d="M214.747 294.833L183.603 325.922L238.215 332.059L214.747 294.833ZM214.117 300.443L191.283 323.237L231.323 327.737L214.117 300.443Z" fill="#762A00"/>
<path d="M319.847 306.643L343.315 343.869L288.703 337.732L319.847 306.643Z" fill="#592000"/>
<path fill-rule="evenodd" clip-rule="evenodd" d="M319.847 306.643L288.703 337.732L343.315 343.869L319.847 306.643ZM319.217 312.253L296.383 335.047L336.423 339.547L319.217 312.253Z" fill="#762A00"/>
<path d="M260.17 395.721L211.84 361.022L314.995 372.614L260.17 395.721Z" fill="#592000"/>
<path fill-rule="evenodd" clip-rule="evenodd" d="M260.621 391.705L301.183 374.609L224.865 366.034L260.621 391.705ZM260.17 395.721L314.995 372.614L211.84 361.022L260.17 395.721Z" fill="#762A00"/>
<path fill-rule="evenodd" clip-rule="evenodd" d="M178.948 198.64C183.665 194.397 191.785 191.862 204.33 193.272C214.126 194.373 221.127 197.035 225.921 200.619C230.742 204.223 233.252 208.705 234.111 213.236C234.66 216.132 234.529 219.013 233.933 221.664C236.025 223.407 238.1 225.379 240.107 227.498C245.013 232.677 249.617 238.839 253.205 244.937C256.777 251.01 259.415 257.144 260.267 262.26C260.427 263.22 259.778 264.128 258.818 264.288C257.858 264.448 256.95 263.799 256.79 262.839C256.038 258.331 253.638 252.626 250.166 246.725C246.71 240.85 242.266 234.903 237.547 229.922C235.966 228.253 234.366 226.705 232.773 225.31C232.703 225.478 232.631 225.645 232.557 225.81C230.958 229.383 228.437 232.373 225.579 233.678C220.159 236.154 214.158 234.441 210.675 230.987C208.914 229.24 207.698 226.952 207.614 224.408C207.529 221.826 208.62 219.238 210.991 216.966C214.85 213.268 219.989 213.597 224.96 215.822C226.869 216.677 228.825 217.836 230.787 219.232C231.011 217.498 230.988 215.691 230.647 213.892C229.954 210.233 227.93 206.522 223.81 203.442C219.663 200.342 213.318 197.829 203.936 196.775C191.957 195.429 185 197.938 181.305 201.262C177.614 204.582 176.922 208.921 177.804 211.954C178.076 212.889 177.538 213.867 176.604 214.139C175.669 214.411 174.691 213.873 174.419 212.938C173.169 208.637 174.226 202.887 178.948 198.64ZM229.901 222.957C227.705 221.286 225.554 219.95 223.519 219.04C219.142 217.081 215.785 217.255 213.43 219.511C211.66 221.208 211.091 222.868 211.138 224.292C211.186 225.754 211.893 227.229 213.158 228.484C215.726 231.031 220.184 232.267 224.114 230.472C225.93 229.642 227.952 227.471 229.339 224.37C229.543 223.913 229.731 223.442 229.901 222.957Z" fill="#762A00"/>
<path fill-rule="evenodd" clip-rule="evenodd" d="M369.83 234.585C370.527 235.265 370.541 236.381 369.861 237.078C366.071 240.964 360.723 243.652 354.893 245.459C349.045 247.272 342.586 248.238 336.437 248.597C332.176 248.846 328.037 248.805 324.32 248.544C323.931 251.948 322.789 254.932 321.012 257.494C318.627 260.931 315.173 263.502 311.105 265.337C303.007 268.989 292.23 269.837 281.547 268.636C280.58 268.528 279.884 267.655 279.992 266.688C280.101 265.72 280.973 265.024 281.941 265.133C292.278 266.295 302.349 265.418 309.656 262.123C313.291 260.484 316.178 258.276 318.115 255.484C319.528 253.448 320.475 251.045 320.809 248.217C320.416 248.171 320.029 248.123 319.65 248.072C317.282 247.752 315.171 247.329 313.446 246.822C311.777 246.33 310.273 245.704 309.289 244.875C306.361 242.409 305.58 239.31 306.417 236.523C307.212 233.876 309.397 231.739 311.947 230.803C314.568 229.841 317.712 230.108 320.218 232.487C322.645 234.791 324.202 238.824 324.447 244.833C324.449 244.895 324.452 244.957 324.454 245.019C328.039 245.276 332.068 245.321 336.231 245.078C342.177 244.731 348.342 243.799 353.849 242.091C359.374 240.379 364.111 237.924 367.338 234.617C368.017 233.92 369.133 233.906 369.83 234.585ZM320.911 244.679C320.646 239.296 319.243 236.423 317.79 235.043C316.389 233.712 314.704 233.547 313.162 234.113C311.55 234.704 310.239 236.055 309.794 237.537C309.391 238.879 309.626 240.55 311.559 242.178C311.965 242.519 312.883 242.981 314.442 243.44C315.946 243.883 317.872 244.274 320.122 244.578C320.381 244.613 320.644 244.647 320.911 244.679Z" fill="#762A00"/>
<path d="M147.711 196.837C152.86 188.901 176.919 189.476 190.539 194.554C193.196 197.217 198.156 205.698 196.738 218.31C195.363 230.546 183.886 223.726 177.817 218.384C179.752 220.24 183.539 225.278 182.115 237.952C180.54 251.965 169 244.165 164.401 237.735C164.401 237.735 151.946 248.447 142.594 242.38C136.783 238.61 138.246 226.986 142.735 223.872C138.922 224.846 134.046 223.734 134.839 216.676C135.731 208.741 147.028 206.609 154.241 206.565C150.166 206.302 143.086 203.966 147.711 196.837Z" fill="#42AEA1"/>
<path fill-rule="evenodd" clip-rule="evenodd" d="M154.239 206.565C153.287 206.503 152.172 206.329 151.08 206.007C148.531 205.255 146.111 203.698 146.199 200.897C146.235 199.759 146.685 198.415 147.71 196.836C152.859 188.9 176.918 189.476 190.537 194.553C193.194 197.217 198.154 205.697 196.737 218.309C195.989 224.966 192.25 225.983 188.02 224.666C185.442 223.863 182.682 222.195 180.304 220.408C179.41 219.736 178.571 219.048 177.815 218.383C178.376 218.922 179.093 219.727 179.793 220.909C180.85 222.693 181.87 225.333 182.26 229.202C182.502 231.612 182.501 234.498 182.113 237.951C180.786 249.764 172.377 246.076 167.014 240.775C166.015 239.787 165.122 238.744 164.4 237.735C164.4 237.735 163.039 238.905 160.878 240.254C156.504 242.983 148.853 246.441 142.592 242.379C139.075 240.098 138.223 234.939 139.093 230.531C139.402 228.969 139.926 227.502 140.626 226.29C141.213 225.271 141.925 224.433 142.734 223.872C141.701 224.135 140.591 224.246 139.536 224.127C138.033 223.958 136.643 223.322 135.753 221.998C134.961 220.82 134.566 219.098 134.838 216.675C135.307 212.499 138.659 209.93 142.781 208.427C145.402 207.472 148.334 206.947 151.035 206.714C152.156 206.617 153.237 206.571 154.239 206.565ZM133.02 228.29C129.163 225.457 127.918 220.8 128.462 215.959C129.298 208.523 135.048 204.594 139.791 202.702C139.828 202.687 139.865 202.673 139.901 202.658C139.856 202.356 139.822 202.046 139.803 201.729C139.61 198.669 140.719 195.823 142.328 193.344C144.822 189.499 149.014 187.442 152.771 186.286C156.702 185.076 161.241 184.517 165.783 184.401C174.825 184.17 185.08 185.672 192.779 188.542C193.643 188.864 194.428 189.369 195.079 190.023C199.132 194.085 204.744 204.504 203.112 219.026C202.667 222.985 201.243 226.924 197.841 229.412C194.859 231.594 191.521 231.814 188.822 231.418C188.885 233.602 188.787 236.011 188.489 238.668C188.016 242.876 186.657 246.994 183.42 249.675C179.911 252.581 175.782 252.543 172.695 251.697C169.703 250.877 166.99 249.168 164.854 247.442C164.367 247.048 163.889 246.637 163.425 246.213C162.302 246.877 161.023 247.561 159.627 248.187C154.734 250.38 146.583 252.616 139.101 247.762C133.376 244.048 132.141 237.285 132.394 232.538C132.469 231.115 132.679 229.681 133.02 228.29Z" fill="black"/>
<path fill-rule="evenodd" clip-rule="evenodd" d="M186.311 198.519C186.696 199.413 186.284 200.45 185.39 200.835C179.21 203.502 171.375 210.093 164.516 217.351C157.651 224.614 152.089 232.199 150.265 236.633C149.895 237.533 148.865 237.963 147.965 237.593C147.064 237.222 146.635 236.192 147.005 235.292C149.086 230.231 155.028 222.258 161.954 214.929C168.884 207.595 177.126 200.561 183.994 197.598C184.888 197.213 185.925 197.625 186.311 198.519Z" fill="#347E83"/>
<path fill-rule="evenodd" clip-rule="evenodd" d="M171.156 196.944C175.179 197.501 179.051 198.296 181.403 198.862C182.349 199.09 182.932 200.042 182.704 200.989C182.476 201.935 181.524 202.518 180.578 202.29C178.324 201.747 174.567 200.975 170.672 200.436C166.732 199.89 162.832 199.609 160.204 199.961C159.239 200.09 158.352 199.413 158.223 198.448C158.094 197.483 158.771 196.596 159.736 196.467C162.872 196.047 167.179 196.393 171.156 196.944Z" fill="#347E83"/>
<path fill-rule="evenodd" clip-rule="evenodd" d="M177.446 202.811C178.037 202.038 179.143 201.89 179.917 202.481C181.339 203.567 183.448 205.375 185.183 207.302C186.048 208.264 186.866 209.305 187.454 210.341C188.015 211.327 188.514 212.56 188.372 213.821C188.264 214.788 187.391 215.484 186.424 215.376C185.457 215.267 184.76 214.395 184.869 213.427C184.885 213.286 184.831 212.861 184.389 212.083C183.975 211.354 183.34 210.524 182.562 209.661C181.012 207.938 179.077 206.276 177.777 205.282C177.003 204.691 176.855 203.585 177.446 202.811Z" fill="#347E83"/>
<path fill-rule="evenodd" clip-rule="evenodd" d="M161.64 214.364L161.702 214.371C162.669 214.479 163.366 215.352 163.257 216.319C163.148 217.287 162.276 217.983 161.308 217.874C156.643 217.35 152.809 216.927 147.662 218.023C146.71 218.226 145.774 217.619 145.571 216.667C145.368 215.714 145.976 214.778 146.928 214.575C152.66 213.355 156.987 213.841 161.64 214.364Z" fill="#347E83"/>
<path fill-rule="evenodd" clip-rule="evenodd" d="M166.056 211.832C166.817 211.225 167.926 211.35 168.533 212.111C173.636 218.506 174.357 228.047 173.552 235.214C173.443 236.182 172.571 236.878 171.603 236.769C170.636 236.661 169.94 235.788 170.048 234.821C170.818 227.975 170.003 219.605 165.778 214.31C165.17 213.549 165.295 212.44 166.056 211.832Z" fill="#347E83"/>
<path d="M383.007 261.662C376.243 265.288 359.367 255.466 351.673 246.528C350.827 243.595 350.619 235.627 356.561 227.217C362.326 219.058 367.816 228.396 370.039 234.568C369.39 232.491 368.67 227.429 374.641 218.978C381.243 209.633 386.393 219.693 387.146 226.062C387.146 226.062 400.19 223.321 404.464 231.293C407.119 236.246 401.532 243.936 397.122 244.393C400.214 245.192 403.244 247.89 399.919 252.597C396.181 257.888 387.317 254.983 382.173 252.192C384.966 253.973 389.085 258.404 383.007 261.662Z" fill="#42AEA1"/>
<path fill-rule="evenodd" clip-rule="evenodd" d="M382.173 252.191C382.969 252.699 383.872 253.421 384.617 254.27C386.153 256.022 387.013 258.314 384.857 260.368C384.39 260.813 383.781 261.246 383.008 261.661C376.243 265.287 359.367 255.465 351.674 246.527C350.827 243.594 350.62 235.626 356.562 227.216C359.294 223.349 361.964 223.412 364.254 225.206C366.061 226.622 367.632 229.115 368.809 231.604C369.288 232.617 369.702 233.628 370.04 234.567C369.818 233.859 369.589 232.804 369.619 231.386C369.658 229.52 370.148 227.025 371.697 223.865C372.424 222.383 373.385 220.755 374.641 218.976C380.206 211.1 384.74 217.01 386.478 222.876C386.802 223.969 387.028 225.061 387.147 226.061C387.147 226.061 388.572 225.761 390.635 225.648C394.812 225.42 401.603 225.955 404.464 231.292C405.895 233.96 404.933 237.422 403.053 240.12C402.205 241.336 401.171 242.397 400.084 243.16C399.106 243.846 398.086 244.292 397.122 244.392C398.162 244.661 399.195 245.144 399.981 245.847C401.031 246.785 401.642 248.113 401.244 249.842C401.054 250.668 400.633 251.586 399.919 252.596C398.192 255.04 395.371 255.735 392.328 255.501C389.901 255.313 387.332 254.534 385.065 253.579C384.023 253.14 383.045 252.664 382.173 252.191ZM407.164 245.285C408.583 249.093 407.452 253.052 405.159 256.298C401.515 261.455 395.832 262.241 391.597 261.877C390.382 264.395 388.265 266.122 386.039 267.316C382.392 269.27 378.269 269.035 375.036 268.365C371.627 267.657 368.074 266.229 364.74 264.503C358.108 261.07 351.277 255.9 346.811 250.712C346.209 250.013 345.765 249.192 345.509 248.306C344.115 243.474 344.271 233.493 351.322 223.514C353.286 220.734 356.102 218.19 359.966 217.692C362.723 217.336 365.068 218.141 366.885 219.241C367.596 217.972 368.429 216.65 369.401 215.274C371.461 212.359 374.275 209.668 378.072 208.944C382.217 208.153 385.516 210.042 387.556 212.023C389.526 213.935 390.864 216.377 391.742 218.525C391.832 218.746 391.919 218.967 392.003 219.191C392.859 219.187 393.776 219.215 394.727 219.293C399.19 219.659 406.401 221.326 410.119 228.261C413.034 233.698 411.025 239.484 408.891 242.916C408.378 243.741 407.799 244.537 407.164 245.285Z" fill="black"/>
<path fill-rule="evenodd" clip-rule="evenodd" d="M356.23 245.36C356.306 244.574 357.005 243.998 357.791 244.074C363.227 244.597 371.375 242.977 379.09 240.502C386.811 238.025 393.732 234.81 396.763 232.372C397.379 231.877 398.279 231.975 398.774 232.59C399.269 233.206 399.171 234.106 398.556 234.601C395.096 237.384 387.753 240.727 379.964 243.226C372.168 245.727 363.558 247.502 357.517 246.921C356.731 246.845 356.154 246.146 356.23 245.36Z" fill="#347E83"/>
<path fill-rule="evenodd" clip-rule="evenodd" d="M366.385 252.409C363.743 250.439 361.303 248.359 359.852 247.036C359.269 246.504 359.227 245.6 359.759 245.016C360.292 244.432 361.196 244.391 361.78 244.923C363.169 246.19 365.538 248.209 368.095 250.116C370.682 252.046 373.345 253.772 375.35 254.549C376.086 254.835 376.452 255.664 376.166 256.4C375.88 257.137 375.052 257.502 374.315 257.216C371.922 256.288 368.996 254.357 366.385 252.409Z" fill="#347E83"/>
<path fill-rule="evenodd" clip-rule="evenodd" d="M364.212 245.778C363.489 246.097 362.645 245.769 362.327 245.047C361.741 243.718 360.949 241.608 360.47 239.559C360.231 238.537 360.057 237.477 360.044 236.511C360.032 235.59 360.159 234.519 360.753 233.678C361.209 233.033 362.101 232.879 362.747 233.335C363.392 233.791 363.545 234.683 363.089 235.329C363.023 235.422 362.894 235.746 362.904 236.472C362.914 237.152 363.041 237.99 363.255 238.908C363.683 240.739 364.408 242.678 364.944 243.893C365.262 244.616 364.935 245.46 364.212 245.778Z" fill="#347E83"/>
<path fill-rule="evenodd" clip-rule="evenodd" d="M379.965 243.751L379.924 243.722C379.279 243.266 379.125 242.374 379.581 241.729C380.037 241.084 380.929 240.93 381.574 241.386C384.685 243.584 387.245 245.385 391.332 246.619C392.088 246.847 392.516 247.646 392.288 248.402C392.059 249.158 391.261 249.586 390.505 249.357C385.953 247.982 383.068 245.944 379.965 243.751Z" fill="#347E83"/>
<path fill-rule="evenodd" clip-rule="evenodd" d="M375.835 243.824C375.057 243.958 374.317 243.436 374.183 242.657C373.058 236.115 376.279 229.051 379.656 224.272C380.111 223.627 381.004 223.474 381.649 223.929C382.294 224.385 382.447 225.278 381.992 225.923C378.766 230.488 376.071 236.755 377.002 242.173C377.136 242.951 376.614 243.691 375.835 243.824Z" fill="#347E83"/>
<mask id="mask0_39_2278" style="mask-type:alpha" maskUnits="userSpaceOnUse" x="67" y="60" width="393" height="394">
<path d="M325.738 80.6037C267.569 41.8244 177.672 61.2143 131.842 119.383C104.227 155.225 42.2971 244.534 78.9611 350.296C124.791 482.498 325.738 470.159 410.347 411.99C462.416 376.193 482.618 263.924 422.686 218.094C386.173 190.172 383.907 119.383 325.738 80.6037Z" fill="#551E67"/>
</mask>
<g mask="url(#mask0_39_2278)">
<path d="M382.364 368.916C380.884 362.322 380.053 355.648 380.59 349.751C381.335 341.584 384.837 334.222 393.483 331.383C406.589 327.079 420.895 333.449 431.273 340.076C429.996 337.68 428.849 335.179 427.968 332.658C425.626 325.953 424.87 318.184 429.881 312.114C434.766 306.198 444.263 303.02 459.398 303.02C460.342 303.02 461.238 303.436 461.847 304.156C462.331 304.729 462.725 305.546 462.998 306.145C463.33 306.875 463.71 307.808 464.119 308.912C464.941 311.126 465.925 314.134 466.948 317.797C468.994 325.124 471.216 335.153 472.59 346.802C475.333 370.056 474.733 400.05 462.329 427.912C449.638 456.417 421.59 471.113 390.286 477.08C358.945 483.055 323.704 480.434 295.397 473.741C291.51 472.822 288.725 470.287 286.925 466.944C285.168 463.683 284.307 459.607 284.061 455.219C283.569 446.43 285.499 435.487 289.041 424.842C292.59 414.177 297.852 403.528 304.247 395.366C310.563 387.306 318.441 381.106 327.313 380.584C340.434 379.812 350.524 390.003 357.008 399.252C356.455 389.221 358.361 377.09 369.216 371.168C373.166 369.013 376.932 368.164 380.473 368.572C381.122 368.647 381.752 368.763 382.364 368.916Z" fill="#FFC9AB" stroke="black" stroke-width="6.41565" stroke-linecap="round" stroke-linejoin="round"/>
<path d="M461.557 339.534C407.363 339.534 450.575 380.47 450.575 380.47C450.575 380.47 423.72 356.118 402.556 362.286C389.887 365.979 391.473 381.213 396.027 395.182C392.27 392.166 387.359 391.109 380.987 394.195C363.395 402.715 375.151 430.832 375.489 431.63C375.138 430.807 362.281 401.027 341.677 402.103C314.441 403.525 292.576 467.833 313.168 472.154C364.021 482.826 439.593 480.438 461.557 436.648C483.522 392.858 463.845 341.935 461.557 339.534Z" fill="#FFA674"/>
<path d="M210.582 381.027C210.021 375.983 209.098 370.747 207.623 365.814C204.888 356.665 200.041 347.868 191.354 343.859C185.019 340.935 179.074 341.29 173.807 343.84C168.697 346.314 164.41 350.757 160.88 355.724C160.309 356.528 159.753 357.352 159.211 358.193C160.15 352.062 160.865 345.675 161.13 339.462C161.524 330.207 160.933 321.06 158.41 313.643C155.861 306.153 151.18 300.047 143.276 297.851C135.461 295.68 128.106 297.44 121.682 301.013C115.306 304.559 109.694 309.963 105.093 315.437C100.747 320.607 97.1957 325.97 94.6587 330.184C94.2934 329.076 93.843 327.941 93.2868 326.829C91.7523 323.76 89.306 320.66 85.4409 318.942C81.5454 317.211 76.7195 317.109 70.895 319.051C70.4226 319.208 69.9933 319.473 69.6411 319.826C65.5119 323.955 47.4044 355.397 76.1217 409.96C90.7862 437.822 115.825 451.752 142.983 458.339C170.068 464.908 199.562 464.257 223.696 462.786C223.842 462.777 223.987 462.758 224.13 462.729C232.33 461.089 238.17 453.659 242.029 444.952C245.964 436.072 248.269 424.945 248.9 414.205C249.529 403.496 248.516 392.814 245.525 384.88C244.029 380.911 241.949 377.395 239.106 374.972C236.166 372.467 232.527 371.242 228.367 371.795C220.935 372.781 215.55 375.705 211.767 379.684C211.35 380.122 210.956 380.57 210.582 381.027Z" fill="#FFDBA5" stroke="black" stroke-width="6.41565" stroke-linecap="round" stroke-linejoin="round"/>
<path d="M72.069 359.005C91.0354 353.789 91.0354 372.045 91.0354 372.045C91.0354 372.045 110.924 337.773 135.291 343.357C158.777 348.74 146.717 392.348 141.794 407.401C146.139 395.974 158.448 369.829 177.965 377.261C191.295 382.337 193.982 400.036 194.224 411.843C195.906 405.873 200.596 399.455 212.737 398.125C235.781 395.6 231.704 456.805 207.995 460.717C164.794 462.89 103.68 462.542 78.3913 422.901C53.1027 383.259 69.4348 361.178 72.069 359.005Z" fill="#F4BA63"/>
</g>
<path d="M247.443 66.8721L249.911 83.7938L266.832 86.2617L249.911 88.7296L247.443 105.651L244.975 88.7296L228.053 86.2617L244.975 83.7938L247.443 66.8721Z" fill="white"/>
<path d="M108.927 230.433L112.068 251.97L133.605 255.111L112.068 258.252L108.927 279.789L105.786 258.252L84.2495 255.111L105.786 251.97L108.927 230.433Z" fill="white"/>
<path d="M318.686 149.348L320.256 160.117L331.025 161.687L320.256 163.257L318.686 174.026L317.116 163.257L306.347 161.687L317.116 160.117L318.686 149.348Z" fill="white"/>
<path d="M417.395 297.416L418.966 308.184L429.734 309.754L418.966 311.325L417.395 322.093L415.825 311.325L405.057 309.754L415.825 308.184L417.395 297.416Z" fill="white"/>
</svg>
