<svg width="512" height="512" viewBox="0 0 512 512" fill="none" xmlns="http://www.w3.org/2000/svg">
<path d="M345.824 434.197C318.978 448.081 288.5 455.923 256.19 455.923C230.036 455.923 205.083 450.785 182.284 441.463L150.679 448.89L148.276 438.664L158.502 436.261L156.739 428.756C99.3051 394.729 60.7978 332.127 60.7978 260.531C60.7978 258.845 60.8191 257.164 60.8616 255.488C60.8086 255.572 60.7737 255.668 60.7613 255.771L59.9326 262.663C59.8582 263.282 59.0627 263.488 58.6968 262.983L54.6236 257.362C54.4667 257.146 54.1982 257.04 53.9359 257.092L47.125 258.433C46.5131 258.554 46.0712 257.861 46.4384 257.357L50.5257 251.746C50.6831 251.53 50.7005 251.242 50.5703 251.009L47.1896 244.946C46.8859 244.401 47.4082 243.767 48.0011 243.96L54.6004 246.114C54.8546 246.196 55.1338 246.124 55.3157 245.928L60.0372 240.839C60.4614 240.382 61.2261 240.683 61.2254 241.306L61.2174 247.622C65.5688 180.911 103.4 123.332 158.073 91.5231L156.944 80.0217C156.639 76.9183 160.3 75.053 162.632 77.1236L171.061 84.6092C196.793 72.1346 225.674 65.1392 256.19 65.1392C338.691 65.1392 409.25 116.271 437.905 188.573L437.803 187.264C437.754 186.642 438.493 186.284 438.951 186.707L448.727 195.737C448.924 195.919 449.208 195.97 449.455 195.867L461.752 190.777C462.328 190.539 462.898 191.131 462.637 191.698L457.069 203.786C456.957 204.029 456.997 204.314 457.17 204.518L465.811 214.64C466.216 215.114 465.829 215.839 465.209 215.766L451.992 214.206C451.727 214.175 451.467 214.301 451.328 214.529L447.525 220.73C450.185 233.58 451.582 246.893 451.582 260.531C451.582 298.176 440.936 333.334 422.492 363.159L428.076 366.592C429.477 367.453 429.915 369.288 429.053 370.689L379.452 451.373C378.591 452.775 376.756 453.212 375.355 452.351L345.824 434.197Z" fill="white"/>
<path d="M156.739 428.756C101.828 396.224 64.2173 337.572 61.019 269.913L150.26 431.155L150.065 430.324L156.739 428.756ZM156.739 428.756L156.135 429.774L156.934 429.587L156.739 428.756ZM434.894 374.28C437.703 369.71 436.329 363.746 431.838 360.859C448.764 331.287 458.438 297.03 458.438 260.531C458.438 247.369 457.18 234.494 454.775 222.022L455.109 221.477L464.406 222.575C471.219 223.379 475.479 215.406 471.026 210.189L466.534 214.023L471.026 210.189L464.948 203.069L468.864 194.566C471.734 188.335 465.469 181.819 459.13 184.443L461.694 190.639L459.13 184.443L450.48 188.023L443.603 181.671L442.835 182.503L443.603 181.671C443.094 181.2 442.552 180.817 441.991 180.516C410.99 108.625 339.477 58.2833 256.19 58.2833C226.25 58.2833 197.813 64.7934 172.232 76.4806L167.184 71.9974C160.19 65.7856 149.207 71.3815 150.121 80.6916L150.825 87.8643C99.4045 119.307 63.1051 173.091 55.4466 235.741C55.2983 235.878 55.1531 236.023 55.0114 236.176L52.9746 238.371L50.1279 237.442C43.6059 235.314 37.8609 242.293 41.2017 248.285L42.6601 250.9L40.8969 253.32C36.8576 258.865 41.7192 266.486 48.4501 265.16L51.3881 264.581L53.1452 267.006L54.0245 266.369L53.1453 267.006C53.4341 267.405 53.7474 267.763 54.0803 268.083C56.609 336.971 93.595 397.055 148.285 431.619L146.708 431.99C143.022 432.856 140.736 436.546 141.602 440.232L144.005 450.458C144.871 454.144 148.561 456.43 152.247 455.564L181.739 448.633C204.79 457.764 229.912 462.779 256.19 462.779C288.235 462.779 318.556 455.322 345.496 442.043L371.765 458.191C376.392 461.036 382.448 459.591 385.293 454.964L434.894 374.28ZM462.385 200.067C462.387 200.069 462.389 200.071 462.391 200.073L462.385 200.067ZM463.298 206.649C463.298 206.651 463.297 206.653 463.296 206.654L457.692 204.073L463.296 206.654L463.298 206.649ZM446.833 189.533C446.836 189.531 446.839 189.53 446.841 189.529L446.833 189.533L449.193 195.234L446.833 189.533ZM46.4332 248.765L49.0526 250.673L46.4332 248.765ZM45.8 251.707C45.8032 251.706 45.8063 251.706 45.8095 251.705L45.8 251.707ZM54.6134 260.531L54.2881 258.88L54.6134 260.531ZM60.7999 261.459L60.0084 262.033L60.7999 261.459Z" stroke="white" stroke-width="13.7117" stroke-linejoin="round"/>
<circle cx="256.189" cy="260.532" r="198.82" fill="#B197FC" stroke="black" stroke-width="6.85587"/>
<path fill-rule="evenodd" clip-rule="evenodd" d="M356.792 112.413C347.503 136.765 325.867 182.414 303.415 195.511C308.127 198.995 317.922 208.051 319.397 216.411H256.64L256.64 216.414H189.127C190.602 208.054 200.396 198.997 205.109 195.514C183.249 182.762 150.61 156.479 139.233 134.273C138.349 132.549 140.287 130.771 142.09 131.48C146.731 133.306 152.497 134.876 158.837 136.602C181.889 142.877 212.534 151.22 224.29 181.449C235.698 175.288 244.577 173.574 253.253 173.359L253.254 173.333C253.62 173.333 253.986 173.335 254.352 173.34C254.658 173.337 254.964 173.335 255.27 173.335L255.27 173.357C263.947 173.572 272.825 175.286 284.234 181.447C294.216 138.574 322.372 118.303 354.405 109.772C355.996 109.349 357.379 110.874 356.792 112.413Z" fill="#FFF5F5"/>
<path d="M303.415 195.511L301.687 192.551C300.691 193.132 300.054 194.174 299.992 195.326C299.929 196.477 300.45 197.583 301.377 198.268L303.415 195.511ZM356.792 112.413L359.995 113.635L359.995 113.635L356.792 112.413ZM319.397 216.411V219.839C320.41 219.839 321.372 219.391 322.023 218.615C322.675 217.838 322.949 216.814 322.773 215.816L319.397 216.411ZM256.64 216.411V212.983C255.711 212.983 254.823 213.36 254.177 214.027C253.532 214.693 253.184 215.593 253.213 216.521L256.64 216.411ZM256.64 216.414V219.841C257.568 219.841 258.456 219.465 259.102 218.798C259.748 218.132 260.096 217.231 260.066 216.304L256.64 216.414ZM189.127 216.414L185.751 215.818C185.575 216.816 185.849 217.84 186.5 218.617C187.152 219.393 188.113 219.841 189.127 219.841V216.414ZM205.109 195.514L207.146 198.27C208.074 197.585 208.594 196.479 208.532 195.328C208.469 194.177 207.832 193.134 206.836 192.553L205.109 195.514ZM139.233 134.273L136.182 135.836L136.182 135.836L139.233 134.273ZM142.09 131.48L140.835 134.67L140.835 134.67L142.09 131.48ZM158.837 136.602L157.937 139.91L157.937 139.91L158.837 136.602ZM224.29 181.449L221.095 182.691C221.451 183.607 222.184 184.327 223.107 184.666C224.029 185.005 225.053 184.932 225.919 184.465L224.29 181.449ZM253.253 173.359L253.338 176.786C255.156 176.741 256.622 175.285 256.679 173.468L253.253 173.359ZM253.254 173.333V169.905C251.403 169.905 249.887 171.374 249.828 173.224L253.254 173.333ZM254.352 173.34L254.308 176.767C254.335 176.768 254.362 176.768 254.389 176.768L254.352 173.34ZM255.27 173.335L258.696 173.226C258.637 171.376 257.12 169.907 255.27 169.907V173.335ZM255.27 173.357L251.844 173.466C251.902 175.283 253.368 176.739 255.185 176.784L255.27 173.357ZM284.234 181.447L282.605 184.463C283.545 184.971 284.668 185.011 285.642 184.572C286.617 184.133 287.33 183.265 287.573 182.224L284.234 181.447ZM354.405 109.772L355.287 113.085L354.405 109.772ZM305.142 198.472C317.205 191.435 328.604 176.037 338.001 159.908C347.494 143.617 355.301 125.94 359.995 113.635L353.589 111.191C348.994 123.238 341.339 140.561 332.078 156.457C322.722 172.515 312.076 186.49 301.687 192.551L305.142 198.472ZM322.773 215.816C321.872 210.708 318.557 205.777 315.218 201.897C311.81 197.936 307.989 194.63 305.452 192.755L301.377 198.268C303.553 199.877 306.986 202.841 310.022 206.369C313.127 209.978 315.447 213.754 316.021 217.007L322.773 215.816ZM256.64 219.839H319.397V212.983H256.64V219.839ZM253.213 216.521L253.214 216.523L260.066 216.304L260.066 216.302L253.213 216.521ZM256.64 212.986H189.127V219.841H256.64V212.986ZM192.502 217.009C193.076 213.757 195.396 209.98 198.502 206.371C201.538 202.843 204.97 199.879 207.146 198.27L203.071 192.757C200.535 194.632 196.714 197.938 193.305 201.899C189.967 205.779 186.652 210.711 185.751 215.818L192.502 217.009ZM206.836 192.553C196.114 186.298 182.672 176.675 170.516 165.876C158.306 155.028 147.681 143.244 142.283 132.71L136.182 135.836C142.162 147.508 153.545 159.969 165.963 171.001C178.436 182.083 192.244 191.978 203.382 198.475L206.836 192.553ZM142.283 132.71C142.422 132.98 142.485 133.353 142.404 133.73C142.33 134.075 142.163 134.308 142.019 134.446C141.756 134.696 141.303 134.854 140.835 134.67L143.345 128.29C141.074 127.397 138.751 128.089 137.289 129.483C135.777 130.924 134.937 133.407 136.182 135.836L142.283 132.71ZM140.835 134.67C145.687 136.579 151.655 138.199 157.937 139.91L159.738 133.294C153.339 131.552 147.774 130.033 143.345 128.29L140.835 134.67ZM157.937 139.91C181.305 146.271 210.057 154.307 221.095 182.691L227.485 180.206C215.011 148.132 182.473 139.484 159.738 133.294L157.937 139.91ZM225.919 184.465C236.826 178.575 245.171 176.988 253.338 176.786L253.168 169.932C243.983 170.16 234.571 172.001 222.661 178.432L225.919 184.465ZM249.828 173.224L249.827 173.251L256.679 173.468L256.68 173.442L249.828 173.224ZM254.397 169.912C254.015 169.907 253.634 169.905 253.254 169.905V176.761C253.606 176.761 253.957 176.763 254.308 176.767L254.397 169.912ZM254.389 176.768C254.682 176.764 254.976 176.763 255.27 176.763V169.907C254.952 169.907 254.634 169.909 254.315 169.912L254.389 176.768ZM251.843 173.444L251.844 173.466L258.696 173.249L258.696 173.226L251.843 173.444ZM285.863 178.43C273.952 171.999 264.541 170.158 255.355 169.93L255.185 176.784C263.353 176.986 271.698 178.573 282.605 184.463L285.863 178.43ZM353.523 106.46C320.529 115.246 291.221 136.317 280.895 180.669L287.573 182.224C297.21 140.831 324.214 121.36 355.287 113.085L353.523 106.46ZM359.995 113.635C361.586 109.463 357.793 105.323 353.523 106.46L355.287 113.085C354.199 113.375 353.172 112.285 353.589 111.191L359.995 113.635Z" fill="black"/>
<path d="M160.207 236.536H345.315L330.802 372.958C329.309 386.998 317.465 397.649 303.346 397.649H202.158C188.047 397.649 176.208 387.016 174.71 372.985C172.944 356.433 170.614 334.547 168.777 317.092C165.349 284.527 160.207 236.536 160.207 236.536Z" fill="#4C6EF5"/>
<path d="M160.207 233.108C159.234 233.108 158.307 233.521 157.657 234.245C157.007 234.968 156.695 235.934 156.799 236.901L160.207 236.536C156.799 236.901 156.799 236.901 156.799 236.902L156.799 236.903L156.8 236.91L156.802 236.936L156.813 237.04L156.857 237.448L157.026 239.027C157.173 240.402 157.388 242.404 157.656 244.908C158.191 249.916 158.941 256.932 159.798 264.966C161.512 281.034 163.654 301.171 165.368 317.451C167.205 334.908 169.535 356.796 171.302 373.349C172.985 389.125 186.296 401.077 202.158 401.077H303.346C319.217 401.077 332.532 389.103 334.211 373.321L348.724 236.899C348.827 235.932 348.514 234.967 347.864 234.244C347.214 233.521 346.288 233.108 345.315 233.108H160.207Z" stroke="black" stroke-width="6.85587" stroke-linejoin="round"/>
<mask id="mask0_39_2353" style="mask-type:alpha" maskUnits="userSpaceOnUse" x="153" y="229" width="200" height="176">
<path d="M160.208 233.107C159.235 233.107 158.308 233.521 157.658 234.244C157.008 234.968 156.695 235.933 156.799 236.901L160.208 236.535C156.799 236.901 156.799 236.901 156.799 236.901L156.799 236.903L156.8 236.909L156.803 236.935L156.814 237.039L156.858 237.447L157.027 239.026C157.174 240.402 157.388 242.404 157.656 244.907C158.192 249.915 158.941 256.931 159.798 264.965C161.512 281.033 163.655 301.17 165.368 317.451C167.206 334.908 169.536 356.796 171.302 373.349C172.986 389.124 186.297 401.076 202.158 401.076H303.346C319.218 401.076 332.533 389.103 334.212 373.32L348.725 236.898C348.827 235.931 348.515 234.966 347.865 234.243C347.215 233.52 346.288 233.107 345.316 233.107H160.208Z" fill="#2D2272" stroke="black" stroke-width="6.85587" stroke-linejoin="round"/>
</mask>
<g mask="url(#mask0_39_2353)">
<path d="M160.208 253.675C159.237 253.675 158.312 254.087 157.661 254.808C157.011 255.529 156.698 256.492 156.798 257.457L160.358 291.736C160.539 293.483 162.011 294.81 163.767 294.81H341.756C343.512 294.81 344.984 293.483 345.166 291.736L348.725 257.457C348.826 256.492 348.512 255.529 347.862 254.808C347.212 254.087 346.287 253.675 345.316 253.675H160.208Z" fill="#C479FF" stroke="black" stroke-width="6.85587" stroke-linejoin="round"/>
</g>
<path d="M125.928 226.252C125.928 220.572 130.532 215.968 136.212 215.968H369.311C374.991 215.968 379.595 220.572 379.595 226.252V226.252C379.595 231.931 374.991 236.536 369.311 236.536H136.212C130.532 236.536 125.928 231.931 125.928 226.252V226.252Z" fill="#4C6EF5"/>
<path fill-rule="evenodd" clip-rule="evenodd" d="M136.211 209.112H369.311C378.777 209.112 386.451 216.786 386.451 226.252C386.451 235.718 378.777 243.391 369.311 243.391H136.211C126.745 243.391 119.072 235.718 119.072 226.252C119.072 216.786 126.745 209.112 136.211 209.112ZM136.211 215.968C130.532 215.968 125.928 220.572 125.928 226.252C125.928 231.931 130.532 236.536 136.211 236.536H369.311C374.99 236.536 379.595 231.931 379.595 226.252C379.595 220.572 374.99 215.968 369.311 215.968H136.211Z" fill="black"/>
<path d="M301.11 168.062C304.442 160.903 311.188 151.305 319.985 145.649" stroke="#E9E3E6" stroke-width="5.52227" stroke-linecap="round" stroke-linejoin="round"/>
<g style="mix-blend-mode:multiply">
<path fill-rule="evenodd" clip-rule="evenodd" d="M356.11 114.565C346.475 139.296 325.334 183.107 303.415 195.893C308.127 199.377 317.922 208.433 319.397 216.793H305.488C303.563 208.661 294.233 200.06 289.669 196.687C310.733 184.4 331.078 143.463 341.184 118.339C343.917 116.848 346.531 115.472 348.967 114.19C350.422 113.423 351.814 112.691 353.129 111.988C354.837 111.074 356.813 112.759 356.11 114.565ZM269.922 175.877C270.11 175.977 270.299 176.078 270.488 176.181C270.499 176.137 270.509 176.093 270.519 176.049C270.319 175.991 270.12 175.933 269.922 175.877Z" fill="white"/>
</g>
<rect x="164.668" y="113.108" width="16.3322" height="92.1926" rx="8.16611" transform="rotate(46.3391 164.668 113.108)" fill="#5C7CFA" stroke="black" stroke-width="6.85587" stroke-linecap="round" stroke-linejoin="round"/>
<path d="M199.391 107.361L207.46 88.8989C209.958 83.1842 204.147 77.3736 198.432 79.8712L179.97 87.9401L164.905 74.561C160.242 70.4198 152.92 74.1504 153.53 80.3572L155.499 100.409L138.119 110.602C132.739 113.758 134.025 121.874 140.116 123.212L159.795 127.536L164.119 147.215C165.457 153.306 173.574 154.592 176.729 149.212L186.922 131.833L206.974 133.801C213.181 134.411 216.911 127.089 212.77 122.426L199.391 107.361Z" fill="#FFF846" stroke="black" stroke-width="6.85587" stroke-linecap="round" stroke-linejoin="round"/>
<path d="M231.386 82.1029C231.958 81.8532 232.539 82.4342 232.289 83.0057L230.803 86.4061C230.696 86.6511 230.741 86.936 230.918 87.136L233.383 89.9107C233.797 90.3771 233.424 91.1092 232.803 91.0483L229.11 90.6857C228.844 90.6595 228.587 90.7905 228.451 91.0211L226.574 94.2222C226.258 94.7601 225.447 94.6316 225.313 94.0225L224.517 90.3979C224.459 90.1367 224.255 89.9328 223.994 89.8754L220.37 89.079C219.76 88.9452 219.632 88.1335 220.17 87.818L223.371 85.9405C223.601 85.8053 223.732 85.5483 223.706 85.2822L223.344 81.5889C223.283 80.9682 224.015 80.5951 224.481 81.0093L227.256 83.4735C227.456 83.651 227.741 83.6962 227.986 83.5891L231.386 82.1029Z" fill="#FFF6A0"/>
<path d="M60.0351 240.839C60.4593 240.382 61.224 240.682 61.2233 241.306L61.2146 248.248C61.2142 248.515 61.3694 248.758 61.612 248.871L67.9107 251.788C68.4766 252.051 68.4269 252.871 67.8336 253.063L61.2289 255.2C60.9745 255.282 60.7911 255.505 60.7592 255.77L59.9305 262.662C59.8561 263.281 59.0606 263.488 58.6947 262.983L54.6215 257.362C54.4646 257.145 54.1961 257.04 53.9338 257.091L47.1229 258.433C46.511 258.553 46.0691 257.861 46.4363 257.357L50.5236 251.746C50.681 251.53 50.6984 251.242 50.5682 251.008L47.1876 244.945C46.8838 244.4 47.4061 243.766 47.999 243.96L54.5983 246.113C54.8525 246.196 55.1317 246.123 55.3136 245.927L60.0351 240.839Z" fill="#FFE6A8"/>
<path fill-rule="evenodd" clip-rule="evenodd" d="M55.3118 245.929C55.13 246.125 54.8507 246.197 54.5966 246.114L47.9972 243.961C47.4043 243.768 46.882 244.402 47.1858 244.947L50.5664 251.01C50.6966 251.243 50.6792 251.531 50.5218 251.747L46.4345 257.358C46.0673 257.862 46.5093 258.555 47.1212 258.434L53.932 257.093C54.1944 257.041 54.4628 257.147 54.6197 257.363L58.6929 262.984C59.0589 263.489 59.8543 263.283 59.9288 262.664L60.7574 255.772C60.7894 255.506 60.9727 255.284 61.2271 255.201L67.8318 253.064C68.4252 252.872 68.4748 252.052 67.9089 251.79L61.6102 248.872C61.3676 248.76 61.2125 248.517 61.2128 248.249L61.2215 241.307C61.2223 240.684 60.4575 240.383 60.0333 240.84L55.3118 245.929ZM68.0736 244.311L70.7907 245.569C77.0154 248.453 76.4693 257.476 69.9422 259.587L67.0931 260.509L66.7356 263.482C65.9166 270.293 57.1668 272.562 53.1414 267.007L51.3843 264.582L48.4462 265.161C41.7153 266.487 36.8537 258.866 40.893 253.321L42.6562 250.901L41.1979 248.286C37.8569 242.294 43.6021 235.315 50.124 237.443L52.9708 238.372L55.0075 236.177C59.6736 231.148 68.0859 234.456 68.0773 241.316L68.0736 244.311Z" fill="black"/>
<path d="M263.184 145.512C263.589 145.987 263.201 146.712 262.582 146.638L255.858 145.845C255.592 145.814 255.333 145.939 255.193 146.167L251.654 151.94C251.328 152.471 250.519 152.327 250.397 151.715L249.074 145.075C249.021 144.813 248.822 144.605 248.562 144.542L241.978 142.96C241.372 142.814 241.259 142 241.803 141.695L247.71 138.385C247.943 138.254 248.079 138 248.058 137.733L247.528 130.983C247.48 130.361 248.219 130.003 248.677 130.426L253.651 135.02C253.847 135.202 254.131 135.252 254.378 135.15L260.634 132.561C261.21 132.322 261.78 132.914 261.519 133.481L258.687 139.631C258.575 139.874 258.614 140.159 258.788 140.363L263.184 145.512Z" fill="#FFF6A0"/>
<path d="M465.808 214.641C466.213 215.115 465.826 215.84 465.207 215.767L451.99 214.207C451.724 214.176 451.465 214.302 451.325 214.529L444.368 225.875C444.042 226.407 443.233 226.263 443.111 225.651L440.51 212.599C440.458 212.337 440.258 212.129 439.998 212.066L427.058 208.956C426.452 208.81 426.339 207.996 426.883 207.691L438.493 201.184C438.726 201.054 438.862 200.799 438.841 200.533L437.8 187.265C437.751 186.643 438.491 186.284 438.949 186.708L448.725 195.738C448.921 195.92 449.205 195.97 449.452 195.868L461.749 190.778C462.325 190.54 462.895 191.132 462.634 191.698L457.066 203.787C456.954 204.029 456.994 204.315 457.168 204.518L465.808 214.641Z" fill="#FFE6A8"/>
<path fill-rule="evenodd" clip-rule="evenodd" d="M457.167 204.517C456.994 204.314 456.954 204.028 457.066 203.786L462.634 191.697C462.895 191.131 462.325 190.539 461.749 190.777L449.452 195.867C449.205 195.969 448.921 195.919 448.724 195.737L438.948 186.707C438.49 186.283 437.751 186.642 437.8 187.264L438.841 200.532C438.861 200.798 438.725 201.053 438.492 201.183L426.883 207.69C426.339 207.995 426.451 208.809 427.058 208.955L439.998 212.065C440.258 212.128 440.458 212.336 440.51 212.598L443.111 225.65C443.233 226.262 444.042 226.406 444.368 225.874L451.324 214.529C451.464 214.301 451.724 214.175 451.989 214.206L465.206 215.766C465.826 215.839 466.213 215.114 465.808 214.64L457.167 204.517ZM455.106 221.477L464.403 222.574C471.216 223.378 475.477 215.406 471.022 210.189L464.944 203.068L468.861 194.565C471.731 188.334 465.466 181.819 459.127 184.442L450.477 188.023L443.6 181.67C438.561 177.016 430.428 180.961 430.965 187.8L431.697 197.133L423.531 201.71C417.546 205.064 418.785 214.018 425.455 215.621L434.558 217.809L436.387 226.99C437.728 233.718 446.626 235.306 450.212 229.458L455.106 221.477Z" fill="black"/>
<rect x="334.888" y="304.143" width="81.0627" height="107.524" rx="6.40639" transform="rotate(19.342 334.888 304.143)" fill="white" stroke="black" stroke-width="6.85587" stroke-linecap="round" stroke-linejoin="round"/>
<g style="mix-blend-mode:multiply">
<path d="M372.492 325.697L402.145 346.531L400.432 351.673L370.838 333.483L323.32 410.778L311.305 406.52L359.759 328.302C362.465 323.934 368.288 322.743 372.492 325.697Z" fill="white"/>
</g>
<path d="M355.321 377.246C355.795 380.058 357.934 386.004 362.698 387.291C368.654 388.899 371.698 384.477 372.687 380.811C374.571 373.835 368.971 364.057 361.494 354.381" stroke="#212529" stroke-width="7.14831" stroke-linecap="round" stroke-linejoin="round"/>
<path d="M355.32 377.248C353.495 379.439 348.654 383.501 343.889 382.214C337.934 380.607 337.529 375.254 338.518 371.588C340.402 364.612 350.162 358.981 361.493 354.382" stroke="#212529" stroke-width="7.14831" stroke-linecap="round" stroke-linejoin="round"/>
<path d="M350.849 336.314C350.709 336.711 350.453 336.959 350.08 337.059C349.707 337.158 349.287 337.125 348.82 336.961C348.495 336.84 348.228 336.639 348.018 336.356C347.817 336.07 347.705 335.753 347.682 335.408L347.547 333.364L342.072 331.442L340.747 332.973C340.526 333.234 340.25 333.414 339.92 333.514C339.599 333.61 339.274 333.603 338.945 333.495C338.458 333.324 338.103 333.077 337.878 332.754C337.654 332.43 337.614 332.053 337.758 331.622C337.88 331.355 337.995 331.162 338.102 331.041L347.03 321.066C347.224 320.861 347.476 320.73 347.783 320.673C348.1 320.611 348.409 320.633 348.71 320.739C349.011 320.844 349.262 321.019 349.464 321.263C349.675 321.502 349.796 321.764 349.825 322.048L350.973 335.559C350.985 335.794 350.943 336.045 350.849 336.314ZM347.034 325.729L344.062 329.152L347.338 330.302L347.034 325.729Z" fill="#212529"/>
<path d="M371.135 418.812C370.963 419.303 370.646 419.61 370.185 419.733C369.723 419.856 369.203 419.816 368.625 419.613C368.224 419.463 367.893 419.214 367.633 418.864C367.384 418.51 367.245 418.118 367.217 417.69L367.05 415.162L360.276 412.784L358.637 414.678C358.363 415.001 358.023 415.224 357.614 415.347C357.217 415.466 356.814 415.458 356.408 415.324C355.805 415.113 355.365 414.807 355.088 414.407C354.81 414.007 354.76 413.54 354.939 413.006C355.09 412.677 355.232 412.437 355.364 412.288L366.411 399.947C366.651 399.693 366.962 399.531 367.343 399.46C367.734 399.383 368.116 399.411 368.489 399.541C368.861 399.672 369.172 399.888 369.423 400.19C369.683 400.486 369.832 400.81 369.869 401.161L371.29 417.878C371.304 418.168 371.252 418.479 371.135 418.812ZM366.415 405.715L362.739 409.951L366.792 411.374L366.415 405.715Z" fill="#212529"/>
<rect x="366.268" y="324.573" width="81.0627" height="107.524" rx="6.40639" transform="rotate(31.5814 366.268 324.573)" fill="white" stroke="black" stroke-width="6.85587" stroke-linecap="round" stroke-linejoin="round"/>
<path fill-rule="evenodd" clip-rule="evenodd" d="M375.645 386.715C375.988 383.883 375.623 377.575 371.418 374.991C366.163 371.76 361.99 375.137 360.002 378.371C356.218 384.527 358.815 395.492 363.241 406.891L363.24 406.892C375.41 405.696 386.366 403.063 390.151 396.907C392.139 393.673 393.269 388.425 388.013 385.194C383.809 382.61 378.016 385.131 375.644 386.715L375.645 386.715Z" fill="#FA5252"/>
<path d="M374.895 359.678C374.675 360.037 374.372 360.225 373.987 360.243C373.601 360.261 373.197 360.14 372.775 359.881C372.484 359.694 372.266 359.44 372.12 359.12C371.984 358.797 371.941 358.464 371.993 358.121L372.294 356.096L367.351 353.057L365.731 354.272C365.46 354.48 365.153 354.597 364.809 354.625C364.475 354.651 364.158 354.576 363.86 354.4C363.421 354.13 363.125 353.813 362.974 353.449C362.824 353.086 362.864 352.709 363.097 352.318C363.273 352.083 363.426 351.918 363.556 351.823L374.396 343.968C374.629 343.808 374.903 343.733 375.216 343.743C375.538 343.75 375.835 343.837 376.107 344.004C376.379 344.171 376.587 344.395 376.733 344.676C376.889 344.954 376.951 345.236 376.92 345.519L375.177 358.967C375.139 359.199 375.045 359.436 374.895 359.678ZM373.411 348.525L369.782 351.241L372.739 353.059L373.411 348.525Z" fill="#212529"/>
<path d="M376.512 441.219C376.291 441.578 375.988 441.766 375.603 441.784C375.217 441.802 374.814 441.681 374.392 441.422C374.1 441.235 373.882 440.981 373.736 440.66C373.6 440.338 373.558 440.005 373.609 439.662L373.91 437.636L368.967 434.597L367.348 435.813C367.076 436.02 366.769 436.138 366.425 436.166C366.091 436.191 365.775 436.116 365.476 435.941C365.037 435.671 364.742 435.354 364.591 434.99C364.44 434.627 364.481 434.249 364.713 433.858C364.889 433.624 365.042 433.459 365.172 433.364L376.012 425.509C376.246 425.349 376.519 425.274 376.832 425.283C377.154 425.29 377.451 425.377 377.723 425.544C377.995 425.711 378.204 425.935 378.35 426.216C378.505 426.495 378.567 426.776 378.536 427.06L376.793 440.508C376.755 440.739 376.661 440.976 376.512 441.219ZM375.027 430.065L371.398 432.782L374.355 434.6L375.027 430.065Z" fill="#212529"/>
<g filter="url(#filter0_ii_39_2353)">
<circle cx="171.947" cy="386.342" r="42.0177" transform="rotate(-13.2242 171.947 386.342)" fill="#DB73FF" fill-opacity="0.9"/>
</g>
<circle cx="171.947" cy="386.342" r="45.4457" transform="rotate(-13.2242 171.947 386.342)" stroke="black" stroke-width="6.85587"/>
<path fill-rule="evenodd" clip-rule="evenodd" d="M203.819 414.823L156.098 426.037L158.501 436.263L148.275 438.666L150.678 448.892L218.851 432.872L216.448 422.646L206.222 425.049L203.819 414.823Z" fill="#FFE6A8"/>
<path fill-rule="evenodd" clip-rule="evenodd" d="M149.421 427.603C148.555 423.917 150.841 420.227 154.527 419.361L202.248 408.146C204.018 407.73 205.88 408.035 207.426 408.992C208.972 409.95 210.074 411.482 210.49 413.252L211.325 416.804L214.876 415.969C218.562 415.103 222.252 417.389 223.118 421.075L225.521 431.301C226.388 434.987 224.102 438.677 220.416 439.543L152.243 455.563C150.473 455.979 148.61 455.675 147.065 454.717C145.519 453.76 144.417 452.228 144.001 450.457L141.598 440.232C140.732 436.546 143.017 432.855 146.703 431.989L150.256 431.154L149.421 427.603ZM150.675 448.889L148.272 438.663L158.498 436.26L156.095 426.035L203.816 414.821L206.219 425.046L216.444 422.643L218.847 432.869L150.675 448.889Z" fill="black"/>
<circle cx="151.195" cy="382.229" r="5.25222" transform="rotate(-13.2242 151.195 382.229)" fill="white" fill-opacity="0.4"/>
<path d="M184.286 354.669C164.737 355.666 166.638 371.405 158.116 373.408C149.594 375.41 138.789 378.76 139.564 393.953C140.562 413.502 163.27 413.915 168.333 401.58C174.051 387.648 190.489 396.374 201.721 382.944C212.952 369.514 194.777 354.134 184.286 354.669Z" fill="#8E5DCC" fill-opacity="0.14"/>
<circle cx="167.44" cy="374.814" r="1.75074" transform="rotate(-13.2242 167.44 374.814)" fill="white" fill-opacity="0.4"/>
<circle cx="190.089" cy="394.668" r="1.75074" transform="rotate(-13.2242 190.089 394.668)" fill="white" fill-opacity="0.11"/>
<mask id="path-40-outside-1_39_2353" maskUnits="userSpaceOnUse" x="91.9893" y="220.909" width="322" height="147" fill="black">
<rect fill="white" x="91.9893" y="220.909" width="322" height="147"/>
<path d="M127.412 349.91C125.901 350.13 124.457 350.029 123.081 349.606C121.737 349.178 120.613 348.455 119.708 347.437C118.804 346.42 118.244 345.171 118.028 343.691L110.099 289.408C108.699 279.826 121.005 272.927 128.365 279.841L151.163 301.644L167.063 274.188C167.817 272.83 168.882 271.689 170.259 270.765C174.915 267.519 181.466 268.664 184.934 273.056C186.139 274.556 186.884 276.287 187.171 278.249L195.086 332.436C195.302 333.916 195.122 335.272 194.547 336.506C193.971 337.74 193.101 338.754 191.936 339.549C190.771 340.343 189.416 340.853 187.872 341.079C186.36 341.3 184.916 341.198 183.54 340.775C182.196 340.347 181.072 339.624 180.168 338.607C179.263 337.589 178.703 336.34 178.487 334.86C174.607 308.294 180.359 289.395 161.043 313.95C160.054 315.278 158.908 316.316 157.605 317.065C156.329 317.777 154.999 318.234 153.616 318.436C150.882 318.835 148.305 318.176 145.886 316.46C144.071 315.279 141.718 313.455 138.828 310.986C119.628 294.399 132.43 326.23 134.626 341.267C134.843 342.746 134.663 344.103 134.087 345.337C133.512 346.571 132.642 347.585 131.476 348.38C130.311 349.174 128.957 349.684 127.412 349.91ZM248.532 293.533C249.114 295.715 249.603 297.943 250.001 300.218C250.394 302.46 250.81 305.077 251.246 308.069L253.706 324.908C254.012 326.999 253.486 328.686 252.129 329.968C250.804 331.246 248.952 332.059 246.571 332.406C244.545 332.702 242.765 332.552 241.232 331.954C239.736 331.384 238.683 330.355 238.071 328.868C236.086 330.57 233.789 332.056 231.182 333.324C228.602 334.555 225.897 335.377 223.066 335.79C219.27 336.345 215.89 336.149 212.926 335.202C209.99 334.218 207.613 332.561 205.794 330.231C203.975 327.901 202.812 324.999 202.305 321.525C201.882 318.63 202.362 315.734 203.746 312.838C205.162 309.937 207.391 307.312 210.432 304.962C213.505 302.608 217.225 300.75 221.593 299.39C223.095 298.875 225.213 298.417 227.947 298.018C229.234 297.83 230.884 297.655 232.897 297.492L233.386 297.47C232.812 296.01 232.242 294.812 231.679 293.876C230.3 292.533 227.616 292.153 223.627 292.735L222.042 293.016C220.094 293.399 216.82 294.83 212.221 297.309C211.432 297.753 210.603 298.038 209.734 298.165C208.576 298.334 207.445 298.236 206.341 297.872C205.268 297.503 204.358 296.897 203.611 296.053C202.859 295.177 202.393 294.128 202.215 292.906C201.952 291.105 202.195 289.509 202.945 288.118C203.722 286.69 204.819 285.544 206.237 284.68C208.288 283.428 210.811 282.254 213.805 281.16C216.827 280.028 219.153 279.311 220.784 279.007L222.562 278.698C229.35 277.707 234.959 278.431 239.389 280.873C243.82 283.314 246.867 287.534 248.532 293.533ZM218.421 319.171C218.651 320.747 219.321 321.849 220.431 322.475C221.536 323.069 223.086 323.221 225.08 322.929C226.946 322.657 228.675 322.125 230.268 321.334C231.889 320.506 233.55 319.508 235.252 318.339L236.243 317.702L235.341 311.525C235.266 311.011 235.218 310.344 235.197 309.526C234.052 309.562 232.788 309.681 231.405 309.883C228.638 310.287 226.243 310.867 224.217 311.622C222.188 312.346 220.641 313.344 219.579 314.616C218.544 315.851 218.158 317.37 218.421 319.171ZM302.888 265.585C304.368 265.369 305.766 265.494 307.083 265.958C308.399 266.423 309.493 267.167 310.365 268.189C311.237 269.212 311.779 270.447 311.991 271.894L318.059 313.439C318.895 319.165 318.495 324.184 316.858 328.497C315.226 332.843 312.568 336.352 308.884 339.025C305.206 341.731 300.71 343.57 295.399 344.543L293.283 344.902C290.323 345.334 287.29 345.596 284.182 345.689C281.107 345.777 278.366 345.569 275.96 345.067C274.566 344.744 273.26 344.015 272.043 342.879C270.826 341.743 270.093 340.437 269.844 338.962C269.577 337.128 269.877 335.475 270.746 334.001C271.652 332.554 272.941 331.709 274.614 331.464C274.903 331.422 275.395 331.416 276.09 331.446C276.821 331.503 277.322 331.562 277.593 331.621C279.64 331.913 281.73 332.051 283.863 332.035C286.034 332.047 287.987 331.926 289.724 331.672C290.657 331.536 291.454 331.37 292.116 331.175C294.573 330.455 296.591 329.536 298.169 328.418C299.779 327.296 300.944 325.713 301.664 323.67C302.384 321.626 302.509 318.996 302.039 315.779L301.926 315.007C300.27 317.614 298.126 319.8 295.492 321.565C292.891 323.325 289.773 324.47 286.138 325.001C281.409 325.692 277.155 325.36 273.377 324.007C269.593 322.621 266.411 320.178 263.83 316.678C261.281 313.174 259.481 308.607 258.428 302.979C257.479 297.828 257.693 292.885 259.072 288.15C260.482 283.41 262.846 279.467 266.165 276.321C269.511 273.138 273.468 271.213 278.036 270.546C281.8 269.996 285.202 270.123 288.244 270.928C291.281 271.7 293.929 273.301 296.19 275.73L295.971 274.234C295.76 272.787 295.926 271.448 296.469 270.219C297.012 268.99 297.848 267.964 298.976 267.142C300.105 266.321 301.409 265.802 302.888 265.585ZM288.068 311.561C290.641 311.185 292.823 310.374 294.612 309.127C296.401 307.88 297.702 306.326 298.514 304.466C299.359 302.602 299.691 300.599 299.509 298.457L298.677 292.763C298.308 290.911 297.471 289.227 296.165 287.709C294.891 286.187 293.214 285.052 291.134 284.304C289.049 283.525 286.687 283.327 284.05 283.713C282.023 284.009 280.192 284.966 278.555 286.585C276.947 288.167 275.76 290.164 274.995 292.575C274.23 294.987 274.036 297.479 274.412 300.053C275.013 304.17 276.515 307.253 278.916 309.3C281.35 311.343 284.401 312.097 288.068 311.561ZM325.865 256.611C324.385 256.828 322.966 256.673 321.608 256.149C320.278 255.588 319.151 254.734 318.228 253.587C317.337 252.436 316.786 251.137 316.574 249.689L316.37 248.29C316.158 246.842 316.315 245.44 316.839 244.082C317.396 242.719 318.234 241.595 319.353 240.708C320.499 239.785 321.812 239.216 323.292 239C324.772 238.783 326.177 238.956 327.507 239.517C328.865 240.042 329.99 240.88 330.881 242.031C331.804 243.177 332.371 244.474 332.582 245.922L332.787 247.321C332.998 248.769 332.826 250.174 332.269 251.536C331.745 252.894 330.909 254.035 329.763 254.958C328.644 255.844 327.344 256.395 325.865 256.611ZM335.069 319.628C332.785 319.962 330.777 319.598 329.045 318.537C327.345 317.471 326.343 315.892 326.037 313.802L319.828 271.292C319.518 269.169 320.03 267.386 321.363 265.942C322.728 264.494 324.553 263.604 326.837 263.27C329.121 262.937 331.108 263.271 332.799 264.272C334.521 265.269 335.538 266.829 335.848 268.952L342.057 311.462C342.362 313.553 341.837 315.354 340.481 316.866C339.157 318.374 337.353 319.294 335.069 319.628ZM346.112 290.023C345.299 284.458 345.83 279.321 347.705 274.612C349.607 269.866 352.583 265.949 356.633 262.861C360.715 259.767 365.49 257.821 370.959 257.023C374.69 256.478 378.123 256.584 381.256 257.342C384.421 258.095 387.377 259.553 390.124 261.714C391.272 262.598 392.018 263.885 392.364 265.576C392.538 266.766 392.447 267.946 392.092 269.114C391.77 270.279 391.207 271.264 390.405 272.071C389.603 272.878 388.639 273.364 387.513 273.529C386.934 273.613 386.247 273.517 385.45 273.239C384.649 272.929 383.915 272.625 383.248 272.328C382.612 272.027 382.189 271.826 381.977 271.725C380.527 271.247 379.2 270.932 377.995 270.779C376.785 270.595 375.569 270.592 374.347 270.77C374.025 270.817 373.483 270.929 372.72 271.106C369.045 272.037 366.239 273.86 364.303 276.574C362.394 279.251 361.633 282.697 362.018 286.912C362.464 289.738 363.359 292.153 364.703 294.158C366.075 296.126 367.762 297.555 369.765 298.445C371.763 299.303 373.92 299.563 376.236 299.225C379.227 298.788 382.292 297.503 385.43 295.369C386.191 294.732 386.905 294.217 387.57 293.824C388.231 293.399 388.933 293.149 389.678 293.073C391.439 292.98 392.92 293.453 394.124 294.493C395.354 295.496 396.094 296.85 396.343 298.555C396.47 299.424 396.436 300.316 396.241 301.231C396.046 302.147 395.716 302.918 395.249 303.544C393.129 306.351 390.655 308.536 387.828 310.099C384.996 311.629 381.715 312.667 377.983 313.212C372.772 313.973 367.858 313.508 363.241 311.817C358.652 310.089 354.832 307.329 351.781 303.536C348.763 299.739 346.873 295.235 346.112 290.023Z"/>
</mask>
<path d="M127.412 349.91C125.901 350.13 124.457 350.029 123.081 349.606C121.737 349.178 120.613 348.455 119.708 347.437C118.804 346.42 118.244 345.171 118.028 343.691L110.099 289.408C108.699 279.826 121.005 272.927 128.365 279.841L151.163 301.644L167.063 274.188C167.817 272.83 168.882 271.689 170.259 270.765C174.915 267.519 181.466 268.664 184.934 273.056C186.139 274.556 186.884 276.287 187.171 278.249L195.086 332.436C195.302 333.916 195.122 335.272 194.547 336.506C193.971 337.74 193.101 338.754 191.936 339.549C190.771 340.343 189.416 340.853 187.872 341.079C186.36 341.3 184.916 341.198 183.54 340.775C182.196 340.347 181.072 339.624 180.168 338.607C179.263 337.589 178.703 336.34 178.487 334.86C174.607 308.294 180.359 289.395 161.043 313.95C160.054 315.278 158.908 316.316 157.605 317.065C156.329 317.777 154.999 318.234 153.616 318.436C150.882 318.835 148.305 318.176 145.886 316.46C144.071 315.279 141.718 313.455 138.828 310.986C119.628 294.399 132.43 326.23 134.626 341.267C134.843 342.746 134.663 344.103 134.087 345.337C133.512 346.571 132.642 347.585 131.476 348.38C130.311 349.174 128.957 349.684 127.412 349.91ZM248.532 293.533C249.114 295.715 249.603 297.943 250.001 300.218C250.394 302.46 250.81 305.077 251.246 308.069L253.706 324.908C254.012 326.999 253.486 328.686 252.129 329.968C250.804 331.246 248.952 332.059 246.571 332.406C244.545 332.702 242.765 332.552 241.232 331.954C239.736 331.384 238.683 330.355 238.071 328.868C236.086 330.57 233.789 332.056 231.182 333.324C228.602 334.555 225.897 335.377 223.066 335.79C219.27 336.345 215.89 336.149 212.926 335.202C209.99 334.218 207.613 332.561 205.794 330.231C203.975 327.901 202.812 324.999 202.305 321.525C201.882 318.63 202.362 315.734 203.746 312.838C205.162 309.937 207.391 307.312 210.432 304.962C213.505 302.608 217.225 300.75 221.593 299.39C223.095 298.875 225.213 298.417 227.947 298.018C229.234 297.83 230.884 297.655 232.897 297.492L233.386 297.47C232.812 296.01 232.242 294.812 231.679 293.876C230.3 292.533 227.616 292.153 223.627 292.735L222.042 293.016C220.094 293.399 216.82 294.83 212.221 297.309C211.432 297.753 210.603 298.038 209.734 298.165C208.576 298.334 207.445 298.236 206.341 297.872C205.268 297.503 204.358 296.897 203.611 296.053C202.859 295.177 202.393 294.128 202.215 292.906C201.952 291.105 202.195 289.509 202.945 288.118C203.722 286.69 204.819 285.544 206.237 284.68C208.288 283.428 210.811 282.254 213.805 281.16C216.827 280.028 219.153 279.311 220.784 279.007L222.562 278.698C229.35 277.707 234.959 278.431 239.389 280.873C243.82 283.314 246.867 287.534 248.532 293.533ZM218.421 319.171C218.651 320.747 219.321 321.849 220.431 322.475C221.536 323.069 223.086 323.221 225.08 322.929C226.946 322.657 228.675 322.125 230.268 321.334C231.889 320.506 233.55 319.508 235.252 318.339L236.243 317.702L235.341 311.525C235.266 311.011 235.218 310.344 235.197 309.526C234.052 309.562 232.788 309.681 231.405 309.883C228.638 310.287 226.243 310.867 224.217 311.622C222.188 312.346 220.641 313.344 219.579 314.616C218.544 315.851 218.158 317.37 218.421 319.171ZM302.888 265.585C304.368 265.369 305.766 265.494 307.083 265.958C308.399 266.423 309.493 267.167 310.365 268.189C311.237 269.212 311.779 270.447 311.991 271.894L318.059 313.439C318.895 319.165 318.495 324.184 316.858 328.497C315.226 332.843 312.568 336.352 308.884 339.025C305.206 341.731 300.71 343.57 295.399 344.543L293.283 344.902C290.323 345.334 287.29 345.596 284.182 345.689C281.107 345.777 278.366 345.569 275.96 345.067C274.566 344.744 273.26 344.015 272.043 342.879C270.826 341.743 270.093 340.437 269.844 338.962C269.577 337.128 269.877 335.475 270.746 334.001C271.652 332.554 272.941 331.709 274.614 331.464C274.903 331.422 275.395 331.416 276.09 331.446C276.821 331.503 277.322 331.562 277.593 331.621C279.64 331.913 281.73 332.051 283.863 332.035C286.034 332.047 287.987 331.926 289.724 331.672C290.657 331.536 291.454 331.37 292.116 331.175C294.573 330.455 296.591 329.536 298.169 328.418C299.779 327.296 300.944 325.713 301.664 323.67C302.384 321.626 302.509 318.996 302.039 315.779L301.926 315.007C300.27 317.614 298.126 319.8 295.492 321.565C292.891 323.325 289.773 324.47 286.138 325.001C281.409 325.692 277.155 325.36 273.377 324.007C269.593 322.621 266.411 320.178 263.83 316.678C261.281 313.174 259.481 308.607 258.428 302.979C257.479 297.828 257.693 292.885 259.072 288.15C260.482 283.41 262.846 279.467 266.165 276.321C269.511 273.138 273.468 271.213 278.036 270.546C281.8 269.996 285.202 270.123 288.244 270.928C291.281 271.7 293.929 273.301 296.19 275.73L295.971 274.234C295.76 272.787 295.926 271.448 296.469 270.219C297.012 268.99 297.848 267.964 298.976 267.142C300.105 266.321 301.409 265.802 302.888 265.585ZM288.068 311.561C290.641 311.185 292.823 310.374 294.612 309.127C296.401 307.88 297.702 306.326 298.514 304.466C299.359 302.602 299.691 300.599 299.509 298.457L298.677 292.763C298.308 290.911 297.471 289.227 296.165 287.709C294.891 286.187 293.214 285.052 291.134 284.304C289.049 283.525 286.687 283.327 284.05 283.713C282.023 284.009 280.192 284.966 278.555 286.585C276.947 288.167 275.76 290.164 274.995 292.575C274.23 294.987 274.036 297.479 274.412 300.053C275.013 304.17 276.515 307.253 278.916 309.3C281.35 311.343 284.401 312.097 288.068 311.561ZM325.865 256.611C324.385 256.828 322.966 256.673 321.608 256.149C320.278 255.588 319.151 254.734 318.228 253.587C317.337 252.436 316.786 251.137 316.574 249.689L316.37 248.29C316.158 246.842 316.315 245.44 316.839 244.082C317.396 242.719 318.234 241.595 319.353 240.708C320.499 239.785 321.812 239.216 323.292 239C324.772 238.783 326.177 238.956 327.507 239.517C328.865 240.042 329.99 240.88 330.881 242.031C331.804 243.177 332.371 244.474 332.582 245.922L332.787 247.321C332.998 248.769 332.826 250.174 332.269 251.536C331.745 252.894 330.909 254.035 329.763 254.958C328.644 255.844 327.344 256.395 325.865 256.611ZM335.069 319.628C332.785 319.962 330.777 319.598 329.045 318.537C327.345 317.471 326.343 315.892 326.037 313.802L319.828 271.292C319.518 269.169 320.03 267.386 321.363 265.942C322.728 264.494 324.553 263.604 326.837 263.27C329.121 262.937 331.108 263.271 332.799 264.272C334.521 265.269 335.538 266.829 335.848 268.952L342.057 311.462C342.362 313.553 341.837 315.354 340.481 316.866C339.157 318.374 337.353 319.294 335.069 319.628ZM346.112 290.023C345.299 284.458 345.83 279.321 347.705 274.612C349.607 269.866 352.583 265.949 356.633 262.861C360.715 259.767 365.49 257.821 370.959 257.023C374.69 256.478 378.123 256.584 381.256 257.342C384.421 258.095 387.377 259.553 390.124 261.714C391.272 262.598 392.018 263.885 392.364 265.576C392.538 266.766 392.447 267.946 392.092 269.114C391.77 270.279 391.207 271.264 390.405 272.071C389.603 272.878 388.639 273.364 387.513 273.529C386.934 273.613 386.247 273.517 385.45 273.239C384.649 272.929 383.915 272.625 383.248 272.328C382.612 272.027 382.189 271.826 381.977 271.725C380.527 271.247 379.2 270.932 377.995 270.779C376.785 270.595 375.569 270.592 374.347 270.77C374.025 270.817 373.483 270.929 372.72 271.106C369.045 272.037 366.239 273.86 364.303 276.574C362.394 279.251 361.633 282.697 362.018 286.912C362.464 289.738 363.359 292.153 364.703 294.158C366.075 296.126 367.762 297.555 369.765 298.445C371.763 299.303 373.92 299.563 376.236 299.225C379.227 298.788 382.292 297.503 385.43 295.369C386.191 294.732 386.905 294.217 387.57 293.824C388.231 293.399 388.933 293.149 389.678 293.073C391.439 292.98 392.92 293.453 394.124 294.493C395.354 295.496 396.094 296.85 396.343 298.555C396.47 299.424 396.436 300.316 396.241 301.231C396.046 302.147 395.716 302.918 395.249 303.544C393.129 306.351 390.655 308.536 387.828 310.099C384.996 311.629 381.715 312.667 377.983 313.212C372.772 313.973 367.858 313.508 363.241 311.817C358.652 310.089 354.832 307.329 351.781 303.536C348.763 299.739 346.873 295.235 346.112 290.023Z" stroke="black" stroke-width="34.2793" mask="url(#path-40-outside-1_39_2353)"/>
<path fill-rule="evenodd" clip-rule="evenodd" d="M123.132 358.271L123.084 358.255C120.097 357.304 117.418 355.614 115.276 353.202C112.943 350.577 111.64 347.463 111.172 344.258L103.552 292.087C103.022 288.459 103.441 284.835 104.826 281.412C106.167 278.059 108.291 275.16 111.128 272.881L111.162 272.854L111.196 272.827C114.083 270.547 117.432 269.104 121.073 268.573C124.169 268.12 127.302 268.331 130.349 269.277C133.324 270.201 136.025 271.751 138.324 273.91L138.358 273.942L150.85 285.888L159.538 270.885C161.086 268.133 163.221 265.901 165.741 264.194C168.339 262.4 171.263 261.242 174.403 260.783C178.071 260.247 181.74 260.681 185.199 262.125C188.562 263.482 191.441 265.635 193.695 268.478C196.022 271.387 197.447 274.762 197.977 278.39L198.312 280.683C199.583 279.239 201.067 278.002 202.729 276.989C205.42 275.348 208.482 273.953 211.786 272.743C214.817 271.609 217.716 270.668 220.178 270.209L220.24 270.197L222.148 269.866L222.285 269.846C230.247 268.683 238.089 269.348 244.906 273.105C248.243 274.943 250.969 277.357 253.148 280.19C254.977 276.378 257.436 272.949 260.552 269.994C265.307 265.474 271.064 262.674 277.556 261.725C282.075 261.065 286.586 261.126 290.932 262.186C291.606 261.508 292.335 260.884 293.113 260.318C295.642 258.476 298.489 257.389 301.442 256.958C303.949 256.592 306.517 256.7 309.041 257.378C308.476 256.002 308.08 254.555 307.861 253.056L307.665 251.712C307.207 248.578 307.554 245.441 308.699 242.476L308.735 242.384L308.772 242.292C309.949 239.411 311.801 236.884 314.291 234.903C316.841 232.859 319.811 231.588 323.007 231.121C326.167 230.659 329.367 231.012 332.396 232.258C335.357 233.431 337.895 235.329 339.859 237.838C341.855 240.344 343.133 243.275 343.598 246.463L343.795 247.808C344.26 250.996 343.875 254.169 342.679 257.143C342.433 257.769 342.155 258.377 341.846 258.965C343.139 260.189 344.184 261.591 344.982 263.116C347.022 260.363 349.453 257.905 352.257 255.766L352.282 255.747C357.696 251.644 363.943 249.155 370.775 248.157C375.438 247.476 380.076 247.559 384.557 248.64C389.132 249.731 393.296 251.821 397.005 254.732C400.394 257.362 402.186 260.952 402.91 264.494L402.968 264.779L403.01 265.067C403.393 267.692 403.193 270.312 402.448 272.824C401.689 275.488 400.306 277.972 398.246 280.045C397.013 281.286 395.606 282.288 394.07 283.028C396.573 283.542 398.996 284.651 401.136 286.467C404.419 289.192 406.264 292.859 406.834 296.763C407.144 298.882 407.043 300.969 406.619 302.962C406.183 305.009 405.345 307.187 403.853 309.189L403.833 309.216L403.812 309.243C400.984 312.987 397.537 316.084 393.45 318.344L393.407 318.367L393.364 318.39C389.419 320.523 385.077 321.843 380.499 322.512C373.923 323.472 367.463 322.906 361.307 320.651L361.264 320.635L361.221 320.619C358.036 319.42 355.102 317.83 352.443 315.864C351.831 318.427 350.59 320.844 348.706 322.959C345.587 326.49 341.51 328.349 337.298 328.964C333.907 329.459 330.392 329.155 327.074 327.754C326.772 328.929 326.407 330.089 325.974 331.232C323.715 337.236 319.943 342.248 314.757 346.02C309.762 349.687 303.932 351.972 297.583 353.135L297.515 353.147L295.298 353.523L295.182 353.54C291.932 354.014 288.622 354.299 285.255 354.4L285.243 354.4C281.674 354.502 278.212 354.271 274.944 353.588L274.838 353.566L274.732 353.542C271.362 352.763 268.537 351.058 266.265 348.937C263.641 346.488 261.684 343.259 261.028 339.362L261.01 339.252L260.994 339.141C260.794 337.773 260.742 336.39 260.852 335.016C260.387 335.611 259.867 336.186 259.289 336.735C256.061 339.83 252.084 341.268 248.332 341.816C245.137 342.283 241.665 342.156 238.262 340.894C237.7 341.197 237.131 341.489 236.553 341.77L236.518 341.787L236.484 341.803C233.073 343.431 229.481 344.522 225.741 345.068C220.899 345.776 216.025 345.607 211.38 344.123L211.312 344.101L211.243 344.078C208.657 343.211 206.268 341.977 204.132 340.378C202.768 343.226 200.714 345.555 198.173 347.287C195.632 349.02 192.823 350.019 189.961 350.437C187.092 350.856 184.158 350.681 181.288 349.798L181.239 349.783L181.191 349.768C178.204 348.817 175.525 347.126 173.383 344.715C171.05 342.09 169.747 338.975 169.279 335.771L167.553 323.954C166.619 324.748 165.605 325.468 164.508 326.098L164.453 326.13L164.397 326.161C162.128 327.427 159.661 328.291 157.038 328.674C153.026 329.26 149.198 328.641 145.739 327.054L147.477 338.955C147.945 342.16 147.587 345.517 146.103 348.7C144.74 351.623 142.657 354.009 140.066 355.775C137.525 357.507 134.716 358.506 131.854 358.924C128.985 359.343 126.051 359.168 123.181 358.285L123.132 358.271ZM148.122 316.6C150.353 318.183 152.724 318.83 155.234 318.54C155.339 318.528 155.445 318.514 155.552 318.499C155.618 318.489 155.684 318.479 155.751 318.468C157.009 318.26 158.22 317.831 159.385 317.181C160.638 316.461 161.739 315.464 162.69 314.188C163.525 313.126 164.478 311.804 165.548 310.223C167.821 306.863 170.623 302.332 173.955 296.628L179.455 334.284C179.663 335.706 180.201 336.907 181.07 337.885C181.939 338.863 183.02 339.558 184.311 339.969C185.634 340.376 187.021 340.473 188.475 340.261C189.959 340.044 191.26 339.554 192.38 338.79C193.5 338.027 194.337 337.052 194.89 335.866C195.443 334.68 195.616 333.376 195.408 331.954L187.801 279.876C187.526 277.99 186.809 276.326 185.651 274.885C184.489 273.413 183.036 272.331 181.293 271.638C181.084 271.549 180.874 271.468 180.662 271.394C179.513 270.993 178.327 270.812 177.104 270.851C176.703 270.863 176.298 270.899 175.889 270.959C174.313 271.189 172.865 271.764 171.547 272.683C170.224 273.57 169.2 274.667 168.475 275.973L153.194 302.36L131.283 281.405C130.149 280.34 128.821 279.571 127.299 279.098C125.778 278.626 124.198 278.509 122.559 278.748C122.099 278.816 121.651 278.91 121.215 279.032C120.119 279.338 119.096 279.818 118.149 280.47C117.952 280.605 117.759 280.748 117.568 280.898C116.127 282.056 115.06 283.507 114.367 285.25C113.67 286.962 113.457 288.745 113.728 290.6L121.348 342.771C121.556 344.194 122.094 345.394 122.963 346.372C123.833 347.35 124.913 348.045 126.204 348.456C127.527 348.863 128.915 348.96 130.368 348.748C131.852 348.531 133.154 348.041 134.274 347.278C135.393 346.514 136.23 345.539 136.783 344.353C137.336 343.167 137.509 341.863 137.301 340.441L131.801 302.785C135.377 306.084 138.556 308.935 141.339 311.339C142.185 312.062 142.984 312.728 143.735 313.336C145.447 314.723 146.91 315.811 148.122 316.6ZM208.225 308.956C207.195 310.186 206.349 311.478 205.687 312.833C204.357 315.617 203.895 318.4 204.302 321.182C204.789 324.521 205.907 327.31 207.655 329.55C209.403 331.789 211.688 333.381 214.51 334.327C217.359 335.237 220.607 335.425 224.255 334.893C226.157 334.615 228 334.145 229.785 333.483C230.552 333.198 231.309 332.878 232.055 332.522C233.891 331.629 235.566 330.624 237.081 329.508C237.634 329.1 238.166 328.677 238.676 328.239C238.716 328.335 238.757 328.429 238.8 328.521C239.27 329.518 239.964 330.282 240.884 330.813C241.143 330.962 241.42 331.093 241.715 331.206C243.188 331.78 244.898 331.925 246.846 331.64C249.134 331.306 250.914 330.525 252.188 329.297C253.492 328.065 253.997 326.444 253.703 324.434L251.339 308.249C251.163 307.044 250.991 305.903 250.822 304.824C250.821 304.816 250.82 304.808 250.819 304.801C250.586 303.315 250.361 301.949 250.143 300.704C249.913 299.39 249.651 298.091 249.357 296.809C249.162 295.959 248.953 295.115 248.73 294.279C247.131 288.514 244.202 284.458 239.943 282.112C235.685 279.765 230.295 279.069 223.771 280.022L222.062 280.318C220.495 280.611 218.259 281.3 215.355 282.388C212.477 283.439 210.053 284.567 208.081 285.771C206.718 286.601 205.664 287.703 204.917 289.075C204.196 290.411 203.963 291.945 204.215 293.677C204.387 294.852 204.834 295.86 205.557 296.702C205.669 296.828 205.785 296.949 205.905 297.065C206.553 297.689 207.311 298.15 208.181 298.45C209.242 298.8 210.33 298.894 211.443 298.731C212.277 298.609 213.074 298.335 213.833 297.908C216.782 296.319 219.164 295.177 220.98 294.484C221.031 294.465 221.082 294.446 221.132 294.427C221.97 294.113 222.683 293.898 223.271 293.783L224.795 293.513C226.055 293.329 227.179 293.245 228.168 293.26C230.188 293.293 231.643 293.742 232.533 294.609C232.883 295.19 233.235 295.875 233.589 296.666C233.608 296.708 233.626 296.75 233.645 296.792C233.821 297.19 233.997 297.614 234.174 298.063L233.704 298.085C231.769 298.241 230.183 298.409 228.946 298.59C228.832 298.607 228.719 298.623 228.607 298.64C227.573 298.796 226.634 298.961 225.791 299.135C225.734 299.147 225.677 299.159 225.621 299.171C225.247 299.25 224.892 299.33 224.556 299.413C224.499 299.427 224.443 299.441 224.387 299.455C224.351 299.464 224.316 299.473 224.281 299.482C223.748 299.619 223.268 299.761 222.84 299.908C220.511 300.634 218.374 301.506 216.428 302.525C216.401 302.54 216.373 302.554 216.345 302.569C214.915 303.323 213.59 304.157 212.368 305.07C212.283 305.135 212.197 305.199 212.113 305.264C210.611 306.425 209.315 307.655 208.225 308.956ZM220.904 314.542C219.909 315.729 219.538 317.189 219.791 318.92C220.012 320.435 220.656 321.493 221.723 322.095C222.785 322.666 224.275 322.812 226.191 322.532C227.985 322.27 229.647 321.759 231.177 320.999C231.284 320.944 231.39 320.889 231.497 320.833C231.686 320.734 231.875 320.633 232.065 320.53C232.133 320.493 232.201 320.455 232.269 320.417C232.734 320.16 233.202 319.889 233.673 319.603C234.429 319.146 235.194 318.651 235.967 318.12L236.92 317.508L236.053 311.572C235.991 311.149 235.948 310.619 235.924 309.983C235.92 309.875 235.917 309.764 235.914 309.65C234.814 309.684 233.599 309.799 232.27 309.993C232.213 310.001 232.157 310.009 232.101 310.018C231.686 310.08 231.28 310.146 230.882 310.216C230.78 310.235 230.679 310.253 230.578 310.271C229.855 310.405 229.162 310.553 228.498 310.714C227.503 310.957 226.574 311.231 225.712 311.537C225.594 311.579 225.477 311.622 225.362 311.665C223.411 312.36 221.925 313.319 220.904 314.542ZM259.699 299.028C259.699 299.03 259.699 299.031 259.699 299.032C259.781 300.364 259.947 301.71 260.198 303.072C260.443 304.384 260.731 305.637 261.061 306.83C261.321 307.769 261.608 308.672 261.92 309.537C262.846 312.098 264.002 314.332 265.389 316.238C266.905 318.295 268.638 319.971 270.586 321.268C271.825 322.093 273.151 322.764 274.564 323.282C274.614 323.299 274.664 323.317 274.714 323.335C275.598 323.644 276.508 323.895 277.446 324.088C277.519 324.103 277.593 324.118 277.667 324.133C278.267 324.25 278.878 324.344 279.501 324.415C279.65 324.432 279.799 324.447 279.949 324.461C281.437 324.602 282.985 324.611 284.595 324.487C284.622 324.485 284.65 324.483 284.678 324.481C285.383 324.425 286.1 324.344 286.829 324.237C287.672 324.114 288.485 323.957 289.27 323.765C289.715 323.656 290.151 323.536 290.578 323.406C290.582 323.404 290.586 323.403 290.59 323.402C291.939 322.987 293.195 322.462 294.358 321.826C294.373 321.817 294.389 321.809 294.404 321.8C294.892 321.531 295.364 321.243 295.819 320.935C295.841 320.92 295.863 320.906 295.885 320.891C296.798 320.274 297.65 319.605 298.44 318.882C299.151 318.232 299.813 317.538 300.424 316.802C300.78 316.373 301.119 315.93 301.442 315.472C301.635 315.197 301.822 314.917 302.003 314.632L302.112 315.374C302.161 315.713 302.204 316.045 302.24 316.371C302.53 319.013 302.367 321.209 301.751 322.958C301.253 324.371 300.533 325.556 299.592 326.511C299.585 326.518 299.577 326.525 299.57 326.533C299.21 326.896 298.817 327.225 298.392 327.522C296.875 328.596 294.936 329.479 292.574 330.171C291.939 330.359 291.172 330.518 290.276 330.649C289.497 330.763 288.673 330.849 287.803 330.907C286.809 330.974 285.756 331.004 284.643 330.998C282.593 331.013 280.584 330.88 278.617 330.599C278.356 330.543 277.874 330.487 277.172 330.432C276.504 330.403 276.032 330.409 275.753 330.449C274.146 330.684 272.907 331.497 272.036 332.887C271.971 332.998 271.909 333.109 271.85 333.222C271.159 334.553 270.932 336.031 271.17 337.655C271.408 339.073 272.113 340.327 273.282 341.42C274.452 342.512 275.707 343.213 277.047 343.522C279.36 344.005 281.994 344.205 284.949 344.12C287.936 344.031 290.852 343.779 293.696 343.364L295.73 343.019C300.835 342.084 305.155 340.317 308.69 337.716C312.231 335.147 314.785 331.774 316.354 327.598C317.404 324.831 317.924 321.762 317.916 318.39C317.912 317.156 317.838 315.882 317.693 314.567C317.641 314.092 317.579 313.611 317.508 313.125L311.676 273.197C311.536 272.242 311.247 271.383 310.809 270.621C310.608 270.273 310.377 269.944 310.114 269.636C309.276 268.654 308.224 267.939 306.959 267.492C305.694 267.045 304.35 266.926 302.928 267.134C302.422 267.207 301.938 267.318 301.475 267.466C300.636 267.733 299.867 268.121 299.168 268.63C298.084 269.42 297.28 270.406 296.758 271.587C296.236 272.768 296.077 274.055 296.28 275.446L296.49 276.884C296.069 276.431 295.634 276.009 295.186 275.617C295.182 275.614 295.179 275.61 295.175 275.607C295.143 275.58 295.112 275.552 295.08 275.525C295.019 275.472 294.957 275.42 294.896 275.369C293.1 273.869 291.086 272.836 288.853 272.268C287.967 272.034 287.049 271.859 286.1 271.745C283.916 271.481 281.564 271.533 279.043 271.901C274.653 272.542 270.85 274.392 267.634 277.451C264.444 280.475 262.171 284.264 260.816 288.82C260.152 291.099 259.77 293.429 259.667 295.809C259.622 296.872 259.632 297.945 259.699 299.028ZM292.416 310.347C292.985 310.121 293.525 309.862 294.036 309.572C294.36 309.387 294.672 309.191 294.973 308.981C296.693 307.782 297.943 306.289 298.724 304.502C299.49 302.81 299.817 301 299.705 299.07C299.698 298.956 299.69 298.841 299.68 298.726L298.881 293.254C298.526 291.474 297.721 289.855 296.466 288.396C295.242 286.933 293.63 285.842 291.631 285.124C290.981 284.881 290.302 284.697 289.596 284.572C288.126 284.311 286.535 284.305 284.822 284.556C282.874 284.84 281.114 285.76 279.542 287.316C277.996 288.837 276.855 290.756 276.12 293.073C275.385 295.391 275.198 297.786 275.559 300.26C276.137 304.217 277.58 307.18 279.889 309.147C282.228 311.111 285.16 311.835 288.684 311.32C290.041 311.122 291.285 310.798 292.416 310.347ZM286.459 301.195C286.599 301.201 286.838 301.197 287.198 301.144C288.393 300.97 288.912 300.67 289.093 300.544C289.18 300.483 289.236 300.436 289.269 300.407C289.287 300.391 289.299 300.378 289.306 300.371L289.328 300.321L289.356 300.258C289.397 300.168 289.445 300.048 289.443 299.791L288.778 295.243C288.778 295.242 288.779 295.244 288.778 295.243C288.76 295.215 288.725 295.167 288.671 295.104L288.624 295.05L288.588 295.007C288.586 295.005 288.581 295.002 288.576 294.998C288.542 294.975 288.419 294.898 288.154 294.802L288.091 294.78L288.029 294.757C287.952 294.728 287.581 294.601 286.719 294.682C286.507 294.9 286.198 295.312 285.923 296.182C285.671 296.974 285.592 297.796 285.735 298.773C285.903 299.92 286.149 300.595 286.32 300.946C286.376 301.06 286.423 301.14 286.459 301.195ZM321.353 269.372C321.116 270.124 321.033 270.94 321.106 271.82C321.12 271.988 321.139 272.159 321.164 272.332L327.132 313.188C327.284 314.226 327.614 315.133 328.123 315.908C328.6 316.634 329.233 317.244 330.023 317.739C331.687 318.759 333.617 319.108 335.812 318.788C338.007 318.467 339.741 317.582 341.013 316.134C342.317 314.68 342.822 312.949 342.528 310.939L336.561 270.084C336.33 268.507 335.695 267.254 334.655 266.324C334.349 266.05 334.007 265.804 333.63 265.586C332.006 264.623 330.096 264.302 327.901 264.623C325.706 264.943 323.952 265.799 322.64 267.191C322.348 267.506 322.098 267.838 321.889 268.187C321.663 268.562 321.485 268.957 321.353 269.372ZM332.586 254.465C332.791 254.111 332.97 253.738 333.121 253.346C333.656 252.036 333.822 250.686 333.619 249.294L333.423 247.949C333.219 246.558 332.674 245.312 331.787 244.21C330.931 243.103 329.85 242.298 328.545 241.794C327.266 241.255 325.916 241.089 324.494 241.297C323.072 241.504 321.81 242.052 320.708 242.939C319.632 243.791 318.827 244.871 318.292 246.181C317.788 247.486 317.638 248.834 317.841 250.225L318.037 251.57C318.24 252.961 318.77 254.21 319.626 255.317C319.894 255.649 320.18 255.956 320.483 256.237C321.185 256.888 321.982 257.402 322.875 257.779C324.18 258.283 325.544 258.431 326.966 258.223C328.388 258.015 329.637 257.486 330.712 256.634C331.483 256.013 332.108 255.29 332.586 254.465ZM351.166 298.922C351.919 300.378 352.807 301.749 353.83 303.036C356.763 306.681 360.434 309.334 364.845 310.995C369.282 312.62 374.004 313.067 379.013 312.336C382.599 311.812 385.753 310.815 388.475 309.343C391.192 307.841 393.569 305.742 395.606 303.044C396.055 302.442 396.373 301.701 396.56 300.821C396.748 299.941 396.78 299.084 396.658 298.249C396.419 296.611 395.708 295.309 394.525 294.345C393.369 293.346 391.945 292.891 390.252 292.98C389.537 293.053 388.862 293.294 388.227 293.702C387.587 294.08 386.902 294.575 386.17 295.187C383.154 297.238 380.209 298.473 377.333 298.893C375.107 299.218 373.034 298.968 371.114 298.144C369.189 297.288 367.568 295.915 366.249 294.023C364.958 292.096 364.097 289.775 363.669 287.059C363.299 283.008 364.03 279.696 365.865 277.123C367.726 274.515 370.422 272.763 373.954 271.868C374.687 271.698 375.208 271.59 375.518 271.545C376.692 271.374 377.861 271.377 379.024 271.554C380.182 271.701 381.458 272.004 382.851 272.463L384.072 273.043C384.714 273.328 385.42 273.62 386.189 273.918C386.955 274.185 387.616 274.278 388.172 274.197C389.254 274.038 390.18 273.572 390.951 272.796C391.722 272.02 392.263 271.073 392.573 269.954C392.914 268.831 393.001 267.697 392.834 266.553C392.502 264.928 391.784 263.691 390.681 262.842C388.041 260.764 385.2 259.364 382.158 258.64C379.147 257.911 375.848 257.809 372.262 258.333C367.006 259.1 362.416 260.971 358.493 263.943C354.601 266.912 351.741 270.677 349.912 275.238C349.254 276.891 348.768 278.599 348.455 280.361C347.91 283.425 347.885 286.654 348.381 290.049C348.855 293.292 349.783 296.249 351.166 298.922ZM379.089 282.061C378.463 281.878 378.017 281.793 377.732 281.757L377.602 281.74L377.472 281.72C377.342 281.7 377.213 281.696 377.062 281.713C377.041 281.718 377.012 281.723 376.976 281.731C376.842 281.759 376.649 281.801 376.39 281.86C374.945 282.242 374.485 282.747 374.237 283.096C374.191 283.159 373.75 283.77 373.883 285.784C374.112 287.021 374.455 287.77 374.742 288.221C374.982 288.55 375.146 288.67 375.233 288.718C375.315 288.743 375.487 288.77 375.847 288.717C376.784 288.58 378.17 288.131 380.044 286.911C380.916 286.21 381.851 285.536 382.846 284.937C383.342 284.628 383.855 284.347 384.386 284.096C383.806 283.956 383.274 283.792 382.8 283.627L382.637 283.57L382.476 283.508C381.576 283.159 380.714 282.804 379.895 282.44L379.779 282.389L379.089 282.061Z" fill="#FFF3BF"/>
<path d="M130.366 348.745C128.913 348.958 127.525 348.86 126.202 348.454C124.911 348.042 123.831 347.348 122.961 346.369C122.092 345.391 121.554 344.191 121.346 342.769L113.726 290.598C113.455 288.743 113.668 286.959 114.365 285.247C115.058 283.504 116.125 282.054 117.566 280.896C119.038 279.734 120.702 279.017 122.557 278.746C124.196 278.507 125.776 278.623 127.297 279.096C128.819 279.568 130.147 280.337 131.281 281.403L153.192 302.358L168.473 275.971C169.198 274.665 170.222 273.568 171.545 272.68C172.863 271.761 174.311 271.187 175.887 270.956C177.773 270.681 179.575 270.907 181.291 271.635C183.034 272.328 184.487 273.411 185.649 274.883C186.807 276.324 187.524 277.988 187.799 279.873L195.406 331.952C195.614 333.374 195.441 334.678 194.888 335.864C194.335 337.05 193.498 338.024 192.378 338.788C191.259 339.551 189.957 340.042 188.473 340.258C187.02 340.471 185.632 340.373 184.309 339.966C183.018 339.555 181.937 338.86 181.068 337.882C180.199 336.904 179.661 335.704 179.453 334.282L173.953 296.626C169.053 305.015 165.297 310.868 162.688 314.185C161.737 315.461 160.636 316.459 159.383 317.178C158.157 317.863 156.879 318.302 155.55 318.496C152.922 318.88 150.445 318.247 148.12 316.597C146.376 315.463 144.115 313.709 141.337 311.336C138.554 308.932 135.375 306.081 131.799 302.783L137.299 340.439C137.507 341.861 137.334 343.165 136.781 344.351C136.228 345.537 135.392 346.512 134.272 347.275C133.152 348.039 131.85 348.529 130.366 348.745Z" fill="#CC5DE8"/>
<path d="M248.729 294.277C249.287 296.374 249.758 298.515 250.141 300.701C250.518 302.857 250.917 305.372 251.337 308.247L253.701 324.432C253.995 326.441 253.49 328.062 252.186 329.295C250.912 330.523 249.132 331.304 246.844 331.638C244.896 331.922 243.186 331.777 241.713 331.203C240.275 330.655 239.262 329.667 238.675 328.237C236.766 329.873 234.559 331.301 232.053 332.519C229.574 333.702 226.974 334.493 224.253 334.89C220.605 335.423 217.357 335.234 214.508 334.324C211.686 333.379 209.401 331.786 207.653 329.547C205.905 327.308 204.788 324.519 204.3 321.18C203.893 318.397 204.355 315.614 205.685 312.831C207.046 310.043 209.188 307.52 212.111 305.262C215.064 302.999 218.64 301.214 222.838 299.906C224.281 299.411 226.317 298.971 228.944 298.587C230.181 298.407 231.767 298.238 233.702 298.082L234.172 298.061C233.62 296.657 233.073 295.506 232.531 294.606C231.206 293.316 228.626 292.95 224.793 293.51L223.269 293.78C221.397 294.148 218.251 295.524 213.831 297.906C213.072 298.332 212.275 298.607 211.441 298.729C210.328 298.891 209.24 298.797 208.179 298.447C207.148 298.092 206.274 297.51 205.555 296.699C204.832 295.857 204.385 294.849 204.214 293.674C203.961 291.943 204.194 290.409 204.915 289.072C205.662 287.7 206.717 286.599 208.079 285.768C210.051 284.565 212.475 283.437 215.353 282.385C218.257 281.298 220.493 280.608 222.06 280.316L223.769 280.019C230.293 279.066 235.683 279.763 239.941 282.109C244.2 284.455 247.129 288.511 248.729 294.277ZM219.789 318.918C220.01 320.432 220.654 321.491 221.721 322.093C222.783 322.664 224.273 322.809 226.189 322.53C227.983 322.268 229.645 321.756 231.175 320.996C232.733 320.2 234.329 319.241 235.965 318.118L236.918 317.505L236.051 311.569C235.978 311.074 235.932 310.434 235.912 309.647C234.812 309.682 233.597 309.796 232.268 309.99C229.609 310.379 227.306 310.936 225.36 311.662C223.409 312.358 221.923 313.317 220.902 314.54C219.907 315.727 219.536 317.186 219.789 318.918Z" fill="#CC5DE8"/>
<path d="M302.926 267.131C304.348 266.923 305.692 267.043 306.957 267.49C308.222 267.936 309.274 268.651 310.112 269.634C310.95 270.616 311.471 271.803 311.674 273.195L317.506 313.123C318.31 318.626 317.925 323.45 316.352 327.595C314.783 331.771 312.229 335.144 308.689 337.714C305.153 340.314 300.833 342.082 295.728 343.017L293.694 343.361C290.85 343.777 287.934 344.029 284.948 344.118C281.992 344.202 279.358 344.003 277.045 343.52C275.705 343.21 274.45 342.509 273.281 341.417C272.111 340.325 271.406 339.07 271.168 337.652C270.91 335.89 271.199 334.301 272.034 332.884C272.905 331.494 274.144 330.682 275.751 330.447C276.03 330.406 276.502 330.4 277.17 330.429C277.872 330.484 278.354 330.54 278.615 330.597C280.582 330.878 282.591 331.011 284.641 330.995C286.727 331.007 288.604 330.89 290.274 330.646C291.17 330.515 291.937 330.356 292.572 330.169C294.934 329.476 296.873 328.593 298.39 327.519C299.937 326.44 301.057 324.919 301.749 322.955C302.441 320.991 302.561 318.463 302.11 315.372L302.001 314.63C300.41 317.136 298.348 319.237 295.817 320.932C293.317 322.624 290.321 323.725 286.827 324.235C282.282 324.899 278.194 324.58 274.562 323.279C270.926 321.947 267.868 319.6 265.387 316.236C262.938 312.868 261.207 308.479 260.196 303.069C259.283 298.119 259.489 293.368 260.814 288.817C262.169 284.262 264.442 280.472 267.632 277.449C270.848 274.39 274.651 272.54 279.041 271.899C282.658 271.37 285.928 271.493 288.851 272.266C291.77 273.008 294.315 274.546 296.488 276.881L296.278 275.443C296.075 274.052 296.234 272.766 296.756 271.585C297.278 270.403 298.082 269.417 299.166 268.628C300.251 267.838 301.504 267.339 302.926 267.131ZM288.682 311.318C291.155 310.957 293.252 310.177 294.971 308.978C296.691 307.78 297.941 306.287 298.722 304.499C299.534 302.707 299.852 300.782 299.678 298.723L299.468 297.286L299.455 297.193L298.879 293.251C298.524 291.472 297.719 289.852 296.464 288.394C295.24 286.931 293.628 285.84 291.629 285.122C289.625 284.372 287.355 284.183 284.82 284.553C282.872 284.838 281.112 285.758 279.54 287.314C277.994 288.834 276.853 290.753 276.118 293.071C275.383 295.388 275.196 297.784 275.557 300.257C276.135 304.214 277.578 307.177 279.887 309.145C282.226 311.108 285.158 311.833 288.682 311.318Z" fill="#CC5DE8"/>
<path d="M326.964 258.221C325.542 258.428 324.178 258.28 322.873 257.776C321.595 257.237 320.512 256.416 319.624 255.314C318.768 254.208 318.238 252.959 318.035 251.568L317.839 250.223C317.636 248.832 317.786 247.483 318.29 246.178C318.825 244.869 319.63 243.788 320.706 242.936C321.808 242.049 323.07 241.502 324.492 241.294C325.914 241.086 327.264 241.252 328.543 241.792C329.848 242.296 330.929 243.101 331.785 244.207C332.672 245.309 333.217 246.556 333.421 247.947L333.617 249.292C333.82 250.683 333.654 252.033 333.119 253.343C332.615 254.648 331.812 255.744 330.71 256.631C329.635 257.483 328.386 258.013 326.964 258.221ZM335.81 318.785C333.615 319.106 331.685 318.756 330.021 317.736C328.387 316.712 327.423 315.195 327.13 313.185L321.163 272.33C320.864 270.289 321.356 268.576 322.638 267.189C323.95 265.797 325.704 264.941 327.899 264.62C330.094 264.3 332.004 264.621 333.628 265.583C335.284 266.541 336.261 268.041 336.559 270.081L342.526 310.937C342.82 312.946 342.315 314.678 341.011 316.131C339.739 317.58 338.005 318.465 335.81 318.785Z" fill="#CC5DE8"/>
<path d="M348.379 290.047C347.598 284.698 348.108 279.761 349.91 275.235C351.739 270.674 354.599 266.909 358.491 263.941C362.414 260.968 367.004 259.098 372.26 258.33C375.846 257.806 379.145 257.909 382.156 258.637C385.198 259.361 388.04 260.762 390.68 262.839C391.782 263.688 392.5 264.926 392.832 266.551C392.999 267.695 392.912 268.828 392.571 269.952C392.261 271.07 391.72 272.018 390.949 272.793C390.179 273.569 389.252 274.036 388.17 274.194C387.614 274.275 386.953 274.182 386.187 273.915C385.418 273.617 384.712 273.326 384.07 273.04C383.46 272.751 383.053 272.558 382.849 272.461C381.456 272.001 380.18 271.698 379.022 271.552C377.859 271.374 376.69 271.371 375.516 271.543C375.206 271.588 374.685 271.696 373.952 271.866C370.42 272.761 367.724 274.512 365.863 277.121C364.029 279.694 363.297 283.005 363.667 287.056C364.095 289.772 364.956 292.094 366.247 294.021C367.566 295.912 369.187 297.286 371.112 298.141C373.032 298.966 375.105 299.216 377.331 298.891C380.207 298.471 383.152 297.235 386.168 295.184C386.9 294.572 387.585 294.077 388.225 293.7C388.86 293.291 389.535 293.051 390.251 292.978C391.943 292.888 393.367 293.343 394.523 294.343C395.706 295.307 396.417 296.608 396.656 298.247C396.778 299.081 396.746 299.939 396.558 300.819C396.371 301.698 396.053 302.44 395.604 303.042C393.567 305.739 391.19 307.839 388.473 309.341C385.751 310.812 382.597 311.81 379.011 312.333C374.002 313.065 369.28 312.618 364.843 310.993C360.432 309.332 356.761 306.679 353.828 303.034C350.927 299.384 349.111 295.055 348.379 290.047Z" fill="#CC5DE8"/>
<path d="M393.306 239.964C393.877 226.252 400.162 205.685 424.158 198.829" stroke="#FFE6A8" stroke-width="6.85587" stroke-linecap="round" stroke-linejoin="round"/>
<path d="M408.732 241.678C411.017 235.393 419.016 226.252 431.013 226.252" stroke="#FFE6A8" stroke-width="6.85587" stroke-linecap="round" stroke-linejoin="round"/>
<path d="M82.2886 250.248C87.679 254.635 94.6329 263.202 95.4967 275.532" stroke="#FFE6A8" stroke-width="6.85587" stroke-linecap="round" stroke-linejoin="round"/>
<path d="M84.0315 288.726C82.6814 285.326 78.1944 277.507 71.0469 273.433" stroke="#FFE6A8" stroke-width="6.85587" stroke-linecap="round" stroke-linejoin="round"/>
<path opacity="0.8" d="M134.497 353.086L136.964 369.473L153.351 371.939L136.964 374.406L134.497 390.793L132.031 374.406L115.644 371.939L132.031 369.473L134.497 353.086Z" fill="white"/>
<path opacity="0.8" d="M207.016 390.793L208.206 398.704L216.118 399.895L208.206 401.085L207.016 408.996L205.825 401.085L197.914 399.895L205.825 398.704L207.016 390.793Z" fill="white"/>
<defs>
<filter id="filter0_ii_39_2353" x="123.062" y="337.458" width="97.7695" height="97.7693" filterUnits="userSpaceOnUse" color-interpolation-filters="sRGB">
<feFlood flood-opacity="0" result="BackgroundImageFix"/>
<feBlend mode="normal" in="SourceGraphic" in2="BackgroundImageFix" result="shape"/>
<feColorMatrix in="SourceAlpha" type="matrix" values="0 0 0 0 0 0 0 0 0 0 0 0 0 0 0 0 0 0 127 0" result="hardAlpha"/>
<feOffset dx="-12.2552" dy="-8.17012"/>
<feComposite in2="hardAlpha" operator="arithmetic" k2="-1" k3="1"/>
<feColorMatrix type="matrix" values="0 0 0 0 0.383505 0 0 0 0 0.145087 0 0 0 0 0.570833 0 0 0 0.29 0"/>
<feBlend mode="normal" in2="shape" result="effect1_innerShadow_39_2353"/>
<feColorMatrix in="SourceAlpha" type="matrix" values="0 0 0 0 0 0 0 0 0 0 0 0 0 0 0 0 0 0 127 0" result="hardAlpha"/>
<feOffset dx="3.50148" dy="3.50148"/>
<feComposite in2="hardAlpha" operator="arithmetic" k2="-1" k3="1"/>
<feColorMatrix type="matrix" values="0 0 0 0 1 0 0 0 0 1 0 0 0 0 1 0 0 0 0.25 0"/>
<feBlend mode="normal" in2="effect1_innerShadow_39_2353" result="effect2_innerShadow_39_2353"/>
</filter>
</defs>
</svg>
