<svg width="512" height="512" viewBox="0 0 512 512" fill="none" xmlns="http://www.w3.org/2000/svg">
<path fill-rule="evenodd" clip-rule="evenodd" d="M162.358 94.5292L155.688 84.3287C173.973 72.3733 189.585 67.6293 204.287 67.7187C218.205 67.8033 230.063 72.3064 239.975 76.0703C240.213 76.1606 240.45 76.2505 240.685 76.3399C250.924 80.2247 259.661 83.4582 270.09 84.1007C280.235 84.7258 292.906 82.9048 310.119 74.7678C336.604 62.2478 360.494 61.0401 381.354 69.1004C401.778 76.9924 417.403 93.0437 429.272 111.396C452.862 147.87 464.482 197.885 469.305 230.575C473.216 257.084 476.95 285.685 476.582 313.078C476.214 340.456 471.754 367.748 458.393 391.16C430.735 439.625 369.683 464.491 255.235 452.166C168.041 442.776 104.96 407.21 70.5382 358.042C37.0741 310.241 31.8657 251.141 56.2731 195.228C53.2603 187.663 51.6064 179.417 51.6064 170.809C51.6064 134.345 81.1663 104.785 117.63 104.785C120.753 104.785 123.83 105.003 126.847 105.425C135.765 98.1167 145.378 91.0699 155.688 84.3287L162.358 94.5292ZM70.6015 195.229C19.8442 302.353 87.6742 421.002 256.632 439.197C482.458 463.517 472.036 338.444 456.401 232.479C446.918 168.205 411.236 41.3947 315.694 86.5601C277.918 104.418 256.266 96.2025 236.058 88.535C215.379 80.6887 196.212 73.4162 162.826 95.2457C151.067 102.935 140.287 111.011 130.474 119.396C126.362 118.372 122.06 117.828 117.63 117.828C88.37 117.828 64.65 141.548 64.65 170.809C64.65 179.616 66.7991 187.922 70.6015 195.229Z" fill="white"/>
<path d="M315.696 86.5614C239.262 122.694 228.839 52.0856 162.828 95.2471C-14.3589 211.101 30.8064 414.879 256.633 439.198C482.46 463.518 472.037 338.445 456.403 232.48C446.92 168.206 411.238 41.396 315.696 86.5614Z" fill="#5E5BE1"/>
<path fill-rule="evenodd" clip-rule="evenodd" d="M269.287 90.5863C280.773 91.3643 294.648 89.2975 312.907 80.6662C338.092 68.7605 360.109 67.8853 379.004 75.1861C397.68 82.4028 412.349 97.2412 423.796 114.94C446.616 150.223 458.071 199.116 462.854 231.529C466.763 258.029 470.422 286.173 470.061 312.993C469.701 339.805 465.326 365.855 452.729 387.93C427.066 432.899 369.614 457.926 255.934 445.684C141.231 433.331 70.5214 375.058 52.2776 303.153C34.0334 231.247 69.0424 148.777 159.258 89.7895C176.544 78.4866 190.792 74.2581 203.804 74.2415C216.616 74.2251 227.552 78.3363 237.664 82.1712L238.089 82.3322C248.249 86.1857 257.8 89.8084 269.287 90.5863ZM236.058 88.5373C256.266 96.2047 277.918 104.42 315.694 86.5623C411.236 41.397 446.919 168.207 456.402 232.481C472.036 338.446 482.459 463.519 256.632 439.199C30.805 414.88 -14.3604 211.102 162.827 95.248C196.213 73.4185 215.379 80.6909 236.058 88.5373Z" fill="black"/>
<circle cx="389.281" cy="189.052" r="1.73713" fill="white"/>
<circle cx="87.0184" cy="206.423" r="1.73713" fill="white"/>
<circle cx="73.1214" cy="272.434" r="1.73713" fill="white"/>
<circle cx="430.451" cy="231.63" r="3.47676" transform="rotate(-72.9962 430.451 231.63)" fill="white"/>
<path d="M220.777 93.5103L222.988 108.671L238.148 110.882L222.988 113.093L220.777 128.253L218.566 113.093L203.405 110.882L218.566 108.671L220.777 93.5103Z" fill="white"/>
<path d="M102.653 242.903L105.306 261.095L123.498 263.748L105.306 266.401L102.653 284.594L99.9995 266.401L81.8071 263.748L99.9995 261.095L102.653 242.903Z" fill="white"/>
<path d="M387.543 156.046L388.87 165.143L397.966 166.469L388.87 167.796L387.543 176.892L386.217 167.796L377.121 166.469L386.217 165.143L387.543 156.046Z" fill="white"/>
<path d="M432.175 263.751L433.876 275.414L445.539 277.115L433.876 278.816L432.175 290.479L430.474 278.816L418.812 277.115L430.474 275.414L432.175 263.751Z" fill="white"/>
<circle cx="269.42" cy="284.593" r="135.283" fill="#FFF16F" stroke="black" stroke-width="6.52176"/>
<mask id="mask0_39_2419" style="mask-type:luminance" maskUnits="userSpaceOnUse" x="137" y="152" width="265" height="265">
<circle cx="269.352" cy="284.089" r="132.088" fill="white"/>
</mask>
<g mask="url(#mask0_39_2419)">
<ellipse cx="225.164" cy="167.134" rx="23.7278" ry="12.201" transform="rotate(-8 225.164 167.134)" fill="#F7E74D"/>
<ellipse cx="370.366" cy="199.583" rx="18.9668" ry="19.7254" transform="rotate(19 370.366 199.583)" fill="#F7E74D"/>
</g>
<ellipse cx="306.797" cy="173.295" rx="13.0381" ry="9.0019" transform="rotate(9 306.797 173.295)" fill="#F7E74D"/>
<ellipse cx="344.711" cy="281.363" rx="23.9694" ry="18.0722" transform="rotate(9 344.711 281.363)" fill="#F7E74D"/>
<ellipse opacity="0.462227" cx="262.232" cy="192.139" rx="7.18744" ry="4.94606" fill="#F7E74D"/>
<ellipse opacity="0.462227" cx="292.67" cy="307.8" rx="7.18744" ry="4.94606" transform="rotate(-30 292.67 307.8)" fill="#F7E74D"/>
<ellipse opacity="0.462227" cx="180.87" cy="253.841" rx="31.7851" ry="28.6004" fill="#F7E74D"/>
<mask id="path-21-outside-1_39_2419" maskUnits="userSpaceOnUse" x="301.519" y="90.9998" width="107" height="89" fill="black">
<rect fill="white" x="301.519" y="90.9998" width="107" height="89"/>
<path fill-rule="evenodd" clip-rule="evenodd" d="M370.558 101.434C370.537 101.54 370.522 101.647 370.514 101.757L366.95 149.61L366.951 149.61L366.949 149.61L374.514 152.487L384.068 153.879L391.27 153.154L391.27 153.154L391.27 153.154L391.27 153.154L391.27 153.154L391.271 153.153L401.511 106.273C401.536 106.161 401.553 106.048 401.563 105.935C401.727 104.828 401.188 103.725 400.197 103.179L395.419 100.548L395.391 100.531L378.019 97.9998L372.656 99.1657C371.544 99.4074 370.71 100.318 370.558 101.434ZM308.614 115.053C308.586 114.923 308.567 114.792 308.555 114.661C308.352 113.303 309.017 111.952 310.236 111.29L316.112 108.094L337.304 105.123L337.328 105.129L343.834 106.58C345.191 106.883 346.204 108.004 346.379 109.37C346.402 109.495 346.418 109.622 346.427 109.752L350.283 165.587L350.457 168.106L350.456 168.105L342.277 171.412L330.621 173.047L330.621 173.047L330.62 173.047L320.786 172.265L320.787 172.263L308.614 115.053Z"/>
</mask>
<path fill-rule="evenodd" clip-rule="evenodd" d="M370.558 101.434C370.537 101.54 370.522 101.647 370.514 101.757L366.95 149.61L366.951 149.61L366.949 149.61L374.514 152.487L384.068 153.879L391.27 153.154L391.27 153.154L391.27 153.154L391.27 153.154L391.27 153.154L391.271 153.153L401.511 106.273C401.536 106.161 401.553 106.048 401.563 105.935C401.727 104.828 401.188 103.725 400.197 103.179L395.419 100.548L395.391 100.531L378.019 97.9998L372.656 99.1657C371.544 99.4074 370.71 100.318 370.558 101.434ZM308.614 115.053C308.586 114.923 308.567 114.792 308.555 114.661C308.352 113.303 309.017 111.952 310.236 111.29L316.112 108.094L337.304 105.123L337.328 105.129L343.834 106.58C345.191 106.883 346.204 108.004 346.379 109.37C346.402 109.495 346.418 109.622 346.427 109.752L350.283 165.587L350.457 168.106L350.456 168.105L342.277 171.412L330.621 173.047L330.621 173.047L330.62 173.047L320.786 172.265L320.787 172.263L308.614 115.053Z" fill="#FFB596" fill-opacity="0.3"/>
<path d="M370.514 101.757L364.01 101.272L364.01 101.272L370.514 101.757ZM370.558 101.434L376.956 102.696C376.981 102.57 377.002 102.444 377.019 102.318L370.558 101.434ZM366.95 149.61L360.447 149.125C360.233 151.999 361.93 154.672 364.621 155.701L366.95 149.61ZM366.951 149.61L369.739 155.505C372.101 154.388 373.568 151.97 373.468 149.36C373.368 146.75 371.72 144.451 369.28 143.518L366.951 149.61ZM366.949 149.61L364.161 143.715C361.798 144.833 360.33 147.254 360.433 149.866C360.535 152.478 362.188 154.777 364.631 155.706L366.949 149.61ZM374.514 152.487L372.196 158.583C372.64 158.752 373.102 158.872 373.573 158.94L374.514 152.487ZM384.068 153.879L383.128 160.333C383.656 160.409 384.191 160.421 384.721 160.368L384.068 153.879ZM391.27 153.154L391.923 159.643C394.265 159.408 396.298 157.928 397.243 155.772C398.188 153.617 397.898 151.119 396.484 149.237L391.27 153.154ZM391.27 153.154L390.533 146.674C388.209 146.938 386.205 148.426 385.28 150.574C384.355 152.722 384.651 155.201 386.056 157.071L391.27 153.154ZM391.27 153.154L396.479 149.23C395.09 147.385 392.828 146.413 390.533 146.674L391.27 153.154ZM391.27 153.154L386.061 157.078C387.597 159.117 390.182 160.073 392.676 159.522C395.169 158.972 397.112 157.017 397.647 154.52L391.27 153.154ZM391.27 153.154L390.611 146.665C387.796 146.951 385.486 149.02 384.893 151.787L391.27 153.154ZM391.271 153.153L391.93 159.642C394.736 159.357 397.041 157.301 397.643 154.545L391.271 153.153ZM401.511 106.273L407.883 107.665L407.883 107.665L401.511 106.273ZM401.563 105.935L395.112 104.979C395.093 105.105 395.078 105.232 395.067 105.359L401.563 105.935ZM400.197 103.179L403.343 97.4668L403.343 97.4668L400.197 103.179ZM395.419 100.548L392.123 106.175C392.173 106.204 392.223 106.233 392.273 106.26L395.419 100.548ZM395.391 100.531L398.687 94.9037C397.962 94.4792 397.162 94.1987 396.331 94.0776L395.391 100.531ZM378.019 97.9998L378.959 91.5462C378.185 91.4334 377.397 91.4608 376.633 91.6269L378.019 97.9998ZM372.656 99.1657L371.271 92.7928L371.271 92.7928L372.656 99.1657ZM308.555 114.661L315.051 114.079C315.039 113.952 315.024 113.825 315.005 113.699L308.555 114.661ZM308.614 115.053L302.235 116.411L302.235 116.411L308.614 115.053ZM310.236 111.29L313.351 117.019L313.351 117.019L310.236 111.29ZM316.112 108.094L315.207 101.636C314.432 101.744 313.684 101.991 312.997 102.365L316.112 108.094ZM337.304 105.123L338.892 98.7972C338.077 98.5928 337.231 98.5477 336.399 98.6643L337.304 105.123ZM337.328 105.129L335.741 111.455C335.797 111.468 335.852 111.482 335.908 111.494L337.328 105.129ZM343.834 106.58L345.254 100.215L345.254 100.215L343.834 106.58ZM346.379 109.37L339.909 110.197C339.926 110.323 339.945 110.449 339.969 110.574L346.379 109.37ZM346.427 109.752L339.921 110.201L339.921 110.201L346.427 109.752ZM350.283 165.587L343.776 166.036L343.777 166.038L350.283 165.587ZM350.457 168.106L346.532 173.314C348.572 174.851 351.322 175.056 353.567 173.838C355.813 172.62 357.14 170.203 356.964 167.654L350.457 168.106ZM350.456 168.105L354.382 162.897C352.553 161.518 350.135 161.2 348.011 162.059L350.456 168.105ZM342.277 171.412L343.182 177.871C343.711 177.797 344.228 177.658 344.722 177.459L342.277 171.412ZM330.621 173.047L330.091 179.547C330.569 179.586 331.051 179.572 331.527 179.505L330.621 173.047ZM330.621 173.047L331.151 166.546C330.67 166.507 330.185 166.521 329.707 166.589L330.621 173.047ZM330.62 173.047L330.103 179.548C330.58 179.586 331.059 179.571 331.533 179.504L330.62 173.047ZM320.786 172.265L316.452 167.392C314.499 169.128 313.772 171.863 314.603 174.34C315.435 176.817 317.664 178.559 320.269 178.766L320.786 172.265ZM320.787 172.263L325.122 177.136C326.874 175.578 327.654 173.199 327.166 170.906L320.787 172.263ZM377.018 102.241C377.006 102.394 376.986 102.546 376.956 102.696L364.159 100.172C364.088 100.534 364.038 100.901 364.01 101.272L377.018 102.241ZM373.454 150.094L377.018 102.241L364.01 101.272L360.447 149.125L373.454 150.094ZM369.28 143.518L369.279 143.518L364.621 155.701L364.622 155.701L369.28 143.518ZM369.738 155.506L369.739 155.505L364.162 143.714L364.161 143.715L369.738 155.506ZM376.832 146.391L369.267 143.514L364.631 155.706L372.196 158.583L376.832 146.391ZM385.009 147.425L375.454 146.033L373.573 158.94L383.128 160.333L385.009 147.425ZM390.617 146.665L383.415 147.39L384.721 160.368L391.923 159.643L390.617 146.665ZM386.056 157.071L386.056 157.072L396.484 149.237L396.484 149.236L386.056 157.071ZM390.533 146.674L390.533 146.674L392.006 159.634L392.006 159.634L390.533 146.674ZM396.479 149.23L396.479 149.23L386.061 157.077L386.061 157.078L396.479 149.23ZM384.893 151.787L384.893 151.787L397.647 154.52L397.647 154.52L384.893 151.787ZM390.612 146.665L390.611 146.665L391.929 159.642L391.93 159.642L390.612 146.665ZM395.14 104.882L384.9 151.762L397.643 154.545L407.883 107.665L395.14 104.882ZM395.067 105.359C395.081 105.198 395.105 105.039 395.14 104.882L407.883 107.665C407.966 107.283 408.025 106.898 408.059 106.512L395.067 105.359ZM397.05 108.892C395.642 108.116 394.879 106.552 395.112 104.979L408.014 106.892C408.576 103.104 406.734 99.3345 403.343 97.4668L397.05 108.892ZM392.273 106.26L397.05 108.892L403.343 97.4668L398.566 94.8354L392.273 106.26ZM392.095 106.159L392.123 106.175L398.716 94.9205L398.687 94.9037L392.095 106.159ZM377.078 104.453L394.45 106.985L396.331 94.0776L378.959 91.5462L377.078 104.453ZM374.042 105.539L379.404 104.373L376.633 91.6269L371.271 92.7928L374.042 105.539ZM377.019 102.318C376.803 103.903 375.62 105.195 374.042 105.539L371.271 92.7928C367.469 93.6193 364.618 96.7337 364.096 100.551L377.019 102.318ZM302.059 115.243C302.094 115.633 302.152 116.023 302.235 116.411L314.993 113.696C315.02 113.822 315.039 113.95 315.051 114.079L302.059 115.243ZM307.12 105.56C303.483 107.538 301.5 111.569 302.104 115.623L315.005 113.699C315.205 115.037 314.551 116.367 313.351 117.019L307.12 105.56ZM312.997 102.365L307.12 105.56L313.351 117.019L319.228 113.824L312.997 102.365ZM336.399 98.6643L315.207 101.636L317.018 114.553L338.21 111.581L336.399 98.6643ZM338.916 98.8032L338.892 98.7972L335.717 111.449L335.741 111.455L338.916 98.8032ZM345.254 100.215L338.748 98.7636L335.908 111.494L342.414 112.945L345.254 100.215ZM352.848 108.543C352.326 104.464 349.305 101.118 345.254 100.215L342.414 112.945C341.077 112.647 340.082 111.544 339.909 110.197L352.848 108.543ZM352.934 109.302C352.907 108.919 352.858 108.539 352.788 108.166L339.969 110.574C339.946 110.45 339.93 110.326 339.921 110.201L352.934 109.302ZM356.789 165.138L352.934 109.302L339.921 110.201L343.776 166.036L356.789 165.138ZM356.964 167.654L356.789 165.136L343.777 166.038L343.951 168.557L356.964 167.654ZM346.531 173.313L346.532 173.314L354.383 162.898L354.382 162.897L346.531 173.313ZM344.722 177.459L352.901 174.151L348.011 162.059L339.832 165.366L344.722 177.459ZM331.527 179.505L343.182 177.871L341.371 164.954L329.716 166.588L331.527 179.505ZM330.09 179.547L330.091 179.547L331.152 166.547L331.151 166.546L330.09 179.547ZM331.533 179.504L331.534 179.504L329.707 166.589L329.706 166.589L331.533 179.504ZM320.269 178.766L330.103 179.548L331.137 166.546L321.303 165.763L320.269 178.766ZM316.453 167.39L316.452 167.392L325.121 177.138L325.122 177.136L316.453 167.39ZM302.235 116.411L314.409 173.621L327.166 170.906L314.993 113.696L302.235 116.411Z" fill="black" mask="url(#path-21-outside-1_39_2419)"/>
<g opacity="0.9">
<path d="M370.514 101.754C370.601 100.589 371.427 99.6133 372.561 99.3352L378.019 97.9969L395.391 100.528L400.24 103.369C401.247 103.959 401.76 105.13 401.511 106.27L391.271 153.151L384.069 153.875L374.514 152.483L366.95 149.607L370.514 101.754Z" fill="#F97254"/>
<path d="M386.729 142.429C385.499 148.337 382.107 152.628 379.153 152.012C376.199 151.397 374.802 146.109 376.032 140.201C377.263 134.293 383.609 130.618 383.609 130.618C383.609 130.618 387.96 136.522 386.729 142.429Z" fill="#FFC061"/>
<path d="M371.93 147.243L366.95 149.608L374.514 152.484L384.069 153.877L391.271 153.152L388.97 150.067C388.543 149.493 387.905 149.113 387.197 149.01L373.475 147.011C372.949 146.934 372.411 147.015 371.93 147.243Z" fill="#E15124"/>
<path d="M372.668 146.892L378.019 97.9969L372.656 99.1628C371.49 99.4163 370.629 100.406 370.54 101.596L366.95 149.607L372.668 146.892Z" fill="#FFB596" fill-opacity="0.3"/>
<path d="M400.197 103.176L395.39 100.529L388.302 149.17L391.27 153.151L401.53 106.113C401.784 104.947 401.242 103.752 400.197 103.176Z" fill="#FFB596" fill-opacity="0.3"/>
</g>
<path d="M377.119 248.114C297.211 252.434 213.828 180.366 201.668 156.046C201.668 156.046 205.143 171.681 198.194 176.892C191.246 182.103 172.137 162.995 172.137 162.995C172.137 169.943 198.382 193.81 243.36 223.794C305.896 265.486 358.01 256.8 397.964 256.8C429.927 256.8 414.756 282.278 401.438 291.543C404.334 290.963 422.284 284.594 432.707 275.908C451.579 260.181 452.209 244.055 377.119 248.114Z" fill="#FFCCCC" fill-opacity="0.53"/>
<path d="M389.279 259.117C310.724 274.387 214.494 222.765 197.551 201.499C197.551 201.499 204.195 216.071 198.479 222.611C192.764 229.151 170.105 214.426 170.105 214.426C171.548 221.223 202.175 239.122 252.397 259.117C322.225 286.92 415.336 265.488 415.336 265.488C415.336 265.488 410.124 255.065 389.279 259.117Z" fill="#FFCCCC" fill-opacity="0.53"/>
<g opacity="0.9">
<path d="M308.614 115.054C308.318 113.662 308.951 112.237 310.183 111.525L316.113 108.094L337.305 105.123L343.949 106.79C345.329 107.137 346.33 108.332 346.428 109.752L350.457 168.105L342.277 171.413L330.622 173.047L320.788 172.265L308.614 115.054Z" fill="#F97254"/>
<path d="M341.679 153.594C342.468 161.049 340.085 167.413 336.358 167.807C332.63 168.202 328.969 162.477 328.18 155.022C327.391 147.566 333.502 140.808 333.502 140.808C333.502 140.808 340.891 146.138 341.679 153.594Z" fill="#FFC061"/>
<path d="M325.806 167.797L320.786 172.265L330.62 173.047L342.275 171.413L350.455 168.105L346.709 165.28C346.013 164.756 345.137 164.529 344.274 164.65L327.535 166.997C326.892 167.087 326.291 167.365 325.806 167.797Z" fill="#E15124"/>
<path d="M326.551 167.135L316.113 108.094L310.236 111.29C308.958 111.985 308.289 113.438 308.591 114.861L320.788 172.265L326.551 167.135Z" fill="#FFB596" fill-opacity="0.3"/>
<path d="M343.834 106.58L337.305 105.124L345.625 164.462L350.457 168.106L346.397 109.561C346.297 108.11 345.254 106.897 343.834 106.58Z" fill="#FFB596" fill-opacity="0.3"/>
</g>
<path d="M244.407 360.77C250.011 358.083 246.053 355.31 243.538 353.876L228.895 362.723C234.64 362 239.453 363.144 244.407 360.77Z" fill="#FCEBD3"/>
<circle cx="10.7896" cy="10.7896" r="10.7896" transform="matrix(-0.992164 0.124945 0.124945 0.992164 125.132 313.051)" fill="#FFFCF9"/>
<path d="M131.514 307.84C152.36 293.943 194.366 299.007 218.371 311.314C210.84 329.235 217.635 361.114 228.843 362.331C242.853 363.852 228.712 376.755 200.548 370.822C181.03 366.71 174.839 372.417 140.425 373.465C106.011 374.514 95.9629 331.542 131.514 307.84Z" fill="#FFFCF7"/>
<path d="M183.627 300.892L192.313 302.63L195.787 302.63L199.261 325.212L192.313 363.429C188.259 361.692 179.11 356.48 174.941 349.532C169.73 340.846 176.678 332.161 183.627 323.475C189.186 316.526 184.785 306.104 183.627 300.892Z" fill="#DDD0BD" fill-opacity="0.46"/>
<g filter="url(#filter0_i_39_2419)">
<path d="M246.69 267.69C249.294 288.372 239.307 304.002 237.894 309.067C233.832 323.619 250.09 325.106 247.622 344.61C245.628 360.368 218.14 369.368 199.377 364.692C181.373 360.206 177.104 339.864 185.366 332.16C191.975 325.996 193.105 312.173 191.997 306.092C187.047 292.854 175.693 264.166 181.17 247.927C189.249 246.91 214.16 273.537 208.67 307.213C213.928 303.352 217.492 304.769 221.696 305.573C218.041 276.55 238.641 258.408 241.927 243.777C244.565 243.001 243.766 244.471 246.69 267.69Z" fill="#FFFCF9"/>
</g>
<path d="M129.76 340.193C133.781 339.686 143.185 341.136 148.627 350.985C155.43 363.296 168.752 357.856 169.452 363.412C170.151 368.967 168.894 372.888 151.426 373.206" stroke="#D8C6AD" stroke-opacity="0.35" stroke-width="3.26088" stroke-linecap="round" stroke-linejoin="round"/>
<path fill-rule="evenodd" clip-rule="evenodd" d="M238.374 252.724C238.955 251.603 239.492 250.506 239.972 249.429C240.84 247.481 241.519 245.602 241.929 243.778C242.69 243.554 243.165 243.517 243.526 244.137C244.089 245.103 244.374 247.665 245.034 253.602C245.046 253.708 245.058 253.815 245.07 253.923C245.449 257.33 245.951 261.813 246.691 267.69C248.751 284.049 242.934 297.246 239.712 304.556C238.861 306.488 238.19 308.009 237.895 309.067C235.927 316.118 238.729 320.102 241.86 324.553C245.191 329.29 248.895 334.556 247.623 344.61C247.467 345.842 247.156 347.032 246.705 348.177C246.634 348.357 246.56 348.536 246.482 348.714C246.01 349.796 245.412 350.837 244.703 351.834C244.286 352.421 243.83 352.993 243.339 353.549C243.026 353.903 242.698 354.25 242.358 354.591L243.538 353.878C245.511 355.004 248.373 356.954 246.806 359.039C246.779 359.075 246.751 359.111 246.721 359.147C246.47 359.451 246.124 359.758 245.665 360.066C245.314 360.301 244.896 360.537 244.406 360.772C244.38 360.785 244.354 360.797 244.329 360.809C242.93 361.47 241.541 361.851 240.139 362.076C238.319 362.368 236.475 362.395 234.556 362.423C233.22 362.442 231.847 362.462 230.42 362.572C235.584 363.628 235.408 366.65 231.096 369.062C226.009 371.906 215.168 373.902 200.549 370.822C189.244 368.44 182.41 369.353 171.973 370.746L171.965 370.747C170.931 370.885 169.862 371.028 168.749 371.172C168.576 371.32 168.391 371.463 168.196 371.602C166.726 372.647 164.7 373.402 162.021 373.923C159.33 374.448 155.872 374.756 151.455 374.837C150.673 374.851 150.009 374.312 149.838 373.58C149.812 373.47 149.797 373.355 149.795 373.236C149.794 373.168 149.797 373.101 149.804 373.034C147.891 373.154 145.874 373.259 143.743 373.347C143.588 373.353 143.431 373.36 143.275 373.366C142.347 373.402 141.398 373.436 140.426 373.465C117.087 374.177 104.955 354.642 110.652 334.601C107.692 333.002 105.522 330.045 105.07 326.453C104.325 320.54 108.514 315.144 114.427 314.399C117.051 314.069 119.574 314.711 121.633 316.044C124.421 313.14 127.707 310.379 131.515 307.84C143.936 299.56 163.869 298.011 183.03 300.715C185.524 301.067 188.005 301.491 190.455 301.981C189.647 299.823 188.762 297.429 187.857 294.867C182.721 280.336 176.952 260.438 181.172 247.927C182.565 247.752 184.458 248.399 186.61 249.762C186.833 249.903 187.059 250.052 187.286 250.208C196.616 256.605 210.131 275.657 209.427 299.342C209.353 301.851 209.118 304.411 208.703 307.014C208.699 307.041 208.695 307.067 208.69 307.094L208.786 307.129C208.794 307.124 208.802 307.118 208.809 307.113C211.15 305.426 213.155 304.786 215.034 304.665C215.223 304.653 215.41 304.646 215.597 304.644C217.177 304.625 218.682 304.944 220.239 305.274C220.719 305.376 221.204 305.479 221.697 305.573C221.472 303.784 221.339 302.037 221.288 300.329C221.273 299.824 221.265 299.323 221.264 298.825C221.237 282.805 228.402 270.322 234.389 259.89C235.823 257.39 237.19 255.009 238.374 252.724ZM217.176 290.636C219.261 277.34 223.691 265.426 228.52 257.014L228.732 256.644C232.316 250.4 234.731 246.064 235.565 242.349C236.094 239.993 237.867 238.225 240.138 237.506C246.862 235.375 250.096 241.511 250.83 247.013C251.029 248.506 251.244 250.431 251.507 252.8L251.515 252.869L251.516 252.881C251.899 256.32 252.404 260.861 253.162 266.875C255.448 285.029 249.022 299.605 245.755 307.017L245.684 307.178L245.68 307.187C244.732 309.338 244.314 310.328 244.176 310.821C243.533 313.127 243.736 314.524 244.125 315.644C244.62 317.066 245.529 318.433 247.194 320.801L247.315 320.973C248.929 323.267 251.098 326.348 252.577 330.304C254.146 334.502 254.856 339.4 254.093 345.429C253.773 347.958 253.013 350.302 251.929 352.452C252.263 352.899 252.578 353.395 252.852 353.943C253.963 356.169 254.28 359.152 252.649 362.002C251.304 364.352 249.095 365.757 247.225 366.653C244.793 367.819 242.394 368.379 240.194 368.654C239.512 370.336 238.406 371.615 237.461 372.487C236.048 373.792 234.32 374.824 232.522 375.637C225.43 378.844 213.662 380.25 199.204 377.204C189.061 375.067 183.169 375.831 172.844 377.209L172.836 377.21L172.782 377.217L172.678 376.386C172.449 376.569 172.215 376.746 171.976 376.916C171.726 377.094 171.471 377.264 171.212 377.427C171.765 377.353 172.307 377.281 172.836 377.21M171.212 377.427C168.847 378.908 166.1 379.774 163.268 380.325C160.064 380.949 156.193 381.273 151.574 381.358C149.697 381.392 147.956 380.789 146.559 379.748C144.673 379.841 142.698 379.921 140.625 379.984C126.964 380.4 115.957 374.822 109.352 365.617C103.638 357.655 101.563 347.465 103.375 337.184C100.837 334.582 99.0889 331.158 98.5989 327.267C97.4044 317.782 104.126 309.123 113.612 307.929C115.883 307.643 118.111 307.812 120.2 308.365C122.529 306.274 125.094 304.283 127.898 302.414C136.177 296.894 146.812 294.18 157.752 293.303C165.151 292.71 172.919 292.938 180.593 293.827C178.777 288.479 176.952 282.53 175.575 276.532C173.265 266.477 171.894 255.028 174.992 245.843C175.791 243.473 177.875 241.769 180.357 241.457C183.163 241.103 185.782 241.988 187.724 242.924C189.801 243.925 191.877 245.361 193.859 247.046C197.837 250.426 201.967 255.255 205.551 261.122C210.212 268.75 215.829 279.668 217.176 290.636" fill="black"/>
<path d="M246.69 267.69C249.295 288.372 239.308 304.002 237.894 309.067C233.832 323.62 250.09 325.106 247.622 344.61C245.629 360.369 218.14 369.368 199.377 364.692C181.373 360.206 177.104 339.865 185.366 332.16C191.976 325.996 193.105 312.173 191.997 306.093C187.048 292.854 175.693 264.167 181.171 247.927C189.249 246.91 214.16 273.537 208.67 307.213C213.928 303.352 217.492 304.77 221.696 305.573C218.041 276.55 236.74 258.027 241.928 243.778C241.928 243.778 244.857 253.136 246.69 267.69Z" fill="#FFFCF9"/>
<path fill-rule="evenodd" clip-rule="evenodd" d="M242.076 237.259C239.28 237.195 236.755 238.92 235.798 241.548C234.728 244.489 232.881 247.84 230.417 252.1C230.138 252.583 229.852 253.076 229.56 253.579C227.376 257.34 224.887 261.628 222.626 266.292C219.461 272.823 216.646 280.276 215.393 288.768C213.978 278.081 210.134 268.639 205.575 261.165C201.988 255.286 197.854 250.446 193.872 247.059C191.887 245.371 189.808 243.932 187.73 242.929C185.786 241.991 183.164 241.104 180.355 241.458C177.873 241.77 175.789 243.474 174.99 245.844C171.591 255.921 173.559 268.808 176.354 279.75C178.961 289.962 182.672 299.826 185.156 306.429C185.33 306.894 185.499 307.342 185.661 307.773C185.965 309.986 185.955 313.829 185.173 317.851C184.303 322.32 182.733 325.698 180.917 327.392C174.278 333.583 173.548 343.639 176.357 351.765C179.304 360.29 186.488 368.203 197.799 371.022C208.659 373.728 221.594 372.448 232.125 368.404C242.278 364.505 252.629 356.985 254.091 345.43C254.83 339.588 254.188 334.801 252.711 330.677C251.274 326.666 249.137 323.572 247.498 321.237L247.486 321.221C245.705 318.682 244.725 317.285 244.169 315.771C243.742 314.608 243.514 313.188 244.174 310.822C244.334 310.251 244.761 309.277 245.626 307.309C245.8 306.912 245.993 306.473 246.205 305.989C247.326 303.428 248.722 300.132 249.992 296.277C252.535 288.558 254.619 278.469 253.16 266.876C252.211 259.347 250.978 253.149 249.975 248.808C249.472 246.637 249.027 244.926 248.702 243.742C248.539 243.15 248.407 242.689 248.312 242.368C248.265 242.207 248.227 242.082 248.2 241.992L248.167 241.884L248.157 241.85L248.152 241.834C248.152 241.834 248.15 241.83 241.927 243.779C241.927 243.779 243.086 247.483 244.403 253.855C245.179 257.611 246.009 262.294 246.689 267.691C248.749 284.05 242.932 297.247 239.71 304.557C238.859 306.489 238.188 308.01 237.893 309.068C235.925 316.119 238.727 320.103 241.858 324.554C245.189 329.291 248.893 334.557 247.621 344.611C245.627 360.37 218.139 369.369 199.376 364.694C181.372 360.207 177.103 339.866 185.365 332.161C191.975 325.997 193.104 312.174 191.996 306.094C191.765 305.475 191.519 304.823 191.262 304.139C186.022 290.201 175.948 263.409 181.17 247.928C182.563 247.753 184.456 248.4 186.608 249.763C186.831 249.904 187.057 250.053 187.285 250.209C196.614 256.606 210.129 275.658 209.425 299.343C209.349 301.916 209.104 304.543 208.669 307.215C211.068 305.453 213.114 304.79 215.03 304.666C215.219 304.654 215.408 304.647 215.595 304.645C217.175 304.626 218.68 304.945 220.237 305.275C220.717 305.377 221.202 305.48 221.695 305.574C221.403 303.254 221.254 301.001 221.229 298.811C221.03 281.269 228.829 267.831 235.196 256.861C235.997 255.48 236.776 254.138 237.513 252.832C239.33 249.613 240.895 246.612 241.927 243.779L248.15 241.83C247.315 239.162 244.871 237.323 242.076 237.259Z" fill="black"/>
<path d="M223.582 351.267C227.751 351.267 228.214 346.056 227.056 344.319C228.214 346.635 229.488 350.92 232.268 349.53" stroke="#7E7E7E" stroke-width="1.63044" stroke-linecap="round" stroke-linejoin="round"/>
<path d="M232.268 339.109C232.268 336.329 225.899 337.95 223.583 339.108C222.425 340.267 222.54 343.278 225.32 346.057C228.794 349.532 232.268 342.583 232.268 339.109Z" fill="#784E1C"/>
<path d="M202.738 304.365C205.518 289.078 191.157 262.095 183.63 250.514C187.683 253.988 198.958 265.23 202.738 276.571C206.213 286.994 206.213 297.996 202.738 304.365Z" fill="#FFDCDC"/>
<path d="M240.953 257.464C241.867 267.333 240.185 293.355 235.741 304.366C239.372 298.085 247.902 280.047 240.953 257.464Z" fill="#FFDCDC"/>
<ellipse cx="209.687" cy="328.685" rx="1.73713" ry="5.21139" fill="#484848"/>
<ellipse cx="234.006" cy="325.21" rx="1.73713" ry="5.21139" fill="#484848"/>
<mask id="mask1_39_2419" style="mask-type:alpha" maskUnits="userSpaceOnUse" x="57" y="86" width="409" height="357">
<path d="M316.372 109.377C239.544 145.673 237.798 55.5495 171.446 98.9069C-10.1476 217.568 30.0126 414.755 257.005 439.185C483.997 463.615 473.521 337.974 457.806 231.528C448.274 166.963 412.407 64.0067 316.372 109.377Z" fill="#160D79"/>
</mask>
<g mask="url(#mask1_39_2419)">
<path d="M126.976 411.801C129.292 390.377 144.493 352.739 187.775 352.739C222.339 352.739 238.894 369.904 241.313 378.508C239.667 363.701 250.412 339.213 295.44 336.286C333.117 333.837 352.223 360.267 352.802 371.847C359.751 368.952 376.08 364.899 385.808 371.847C388.124 347.528 404.222 302.015 450.082 314.522C495.942 327.03 481.929 393.851 469.19 425.698C427.499 443.07 330.22 473.643 274.632 456.967C219.043 440.29 162.297 419.908 140.873 411.801H126.976Z" fill="#C45141"/>
<path fill-rule="evenodd" clip-rule="evenodd" d="M187.775 352.739C144.493 352.739 129.292 390.377 126.976 411.801H129.377C136.142 391.516 152.816 368.486 186.673 368.486C221.237 368.486 237.792 385.651 240.211 394.254C238.565 379.448 249.31 354.96 294.338 352.033C332.015 349.584 351.121 376.013 351.7 387.594C358.649 384.699 374.978 380.646 384.706 387.594C387.022 363.274 403.119 317.762 448.98 330.269C473.138 336.857 480.681 358.518 480.549 382.198C484.295 353.006 479.542 322.557 450.082 314.522C404.222 302.015 388.124 347.527 385.808 371.847C376.08 364.899 359.751 368.952 352.802 371.847C352.223 360.266 333.117 333.837 295.44 336.286C250.412 339.213 239.667 363.701 241.313 378.507C238.894 369.904 222.339 352.739 187.775 352.739Z" fill="#EC8F82"/>
<path fill-rule="evenodd" clip-rule="evenodd" d="M241.313 378.508C241.197 377.466 241.143 376.377 241.157 375.25C241.189 372.754 241.56 370.076 242.352 367.335C246.283 353.726 260.598 338.551 295.44 336.286C327.212 334.221 345.778 352.691 351.164 365.476C352.166 367.852 352.712 370.032 352.802 371.847C354.456 371.158 356.642 370.404 359.143 369.747C365.125 368.177 372.913 367.17 379.561 368.969C381.812 369.577 383.933 370.508 385.808 371.847C386.017 369.655 386.337 367.29 386.782 364.811C391.269 339.792 408.356 303.142 450.082 314.522C495.942 327.029 481.929 393.851 469.19 425.698C427.499 443.07 330.22 473.643 274.631 456.967C219.043 440.29 162.297 419.908 140.872 411.801H126.975C127.196 409.759 127.534 407.57 128.002 405.28C132.445 383.544 148.618 352.739 187.775 352.739C211.984 352.739 227.358 361.16 235.229 369.162C237.398 371.368 238.998 373.542 240.055 375.499C240.638 376.578 241.055 377.591 241.313 378.508ZM237.246 362.118C239.095 357.414 242.001 352.712 246.198 348.395C255.737 338.586 271.387 331.314 295.017 329.778C315.558 328.443 331.358 334.999 342.14 343.74C347.494 348.08 351.616 352.962 354.473 357.685C355.623 359.584 356.61 361.53 357.389 363.465C360.508 362.641 364.054 361.958 367.729 361.656C371.692 361.33 376.19 361.418 380.579 362.496C382.838 350.698 387.711 336.575 396.477 325.359C402.083 318.185 409.415 312.04 418.801 308.649C428.229 305.243 439.224 304.801 451.798 308.23C464.95 311.817 474.069 319.445 479.849 329.422C485.518 339.208 487.793 350.914 488.13 362.671C488.801 386.127 481.805 411.72 475.245 428.12C474.594 429.748 473.316 431.044 471.698 431.718C450.534 440.537 415.403 452.655 378.474 460.48C341.81 468.25 302.215 472.051 272.757 463.213C217.925 446.764 162.007 426.733 139.682 418.323H126.975C125.124 418.323 123.359 417.536 122.122 416.158C120.885 414.78 120.292 412.941 120.491 411.1C121.748 399.473 126.463 383.467 136.885 370.206C147.495 356.706 163.937 346.217 187.775 346.217C206.16 346.217 220.136 350.791 230.005 356.836C232.694 358.483 235.115 360.265 237.246 362.118Z" fill="black"/>
<path d="M103.743 364.178C69.7407 362.052 48.1551 379.686 44.6808 407.481C41.2063 435.275 65.5266 463.069 103.743 459.66C131.537 497.811 207.971 483.914 207.971 483.914C322.622 513.446 390.949 476.512 432.061 447.56C395.929 469.795 335.94 446.402 310.462 431.926C295.175 422.198 268.192 427.873 256.611 431.926C264.717 417.45 254.284 379.836 223.605 372.864C185.388 364.178 154.699 386.761 147.172 404.132C150.646 386.761 131.537 365.915 103.743 364.178Z" fill="#EFB797"/>
<path fill-rule="evenodd" clip-rule="evenodd" d="M44.6929 407.381C48.2063 379.644 69.7809 362.055 103.743 364.178C131.537 365.915 150.645 386.761 147.171 404.132C154.699 386.761 185.388 364.178 223.605 372.864C254.283 379.836 264.717 417.45 256.61 431.926C268.191 427.873 295.175 422.198 310.461 431.926C335.939 446.402 395.928 469.795 432.061 447.56C421.736 454.831 409.696 462.605 395.637 469.703C362.92 470.911 325.832 455.556 307.201 444.97C291.914 435.242 264.93 440.916 253.349 444.97C261.456 430.494 251.022 392.88 220.344 385.907C182.127 377.222 151.438 399.804 143.91 417.176C147.384 399.804 128.276 378.959 100.482 377.221C72.2109 375.454 52.5236 387.346 44.6929 407.381Z" fill="#FFCFB5"/>
<path fill-rule="evenodd" clip-rule="evenodd" d="M207.97 483.914C207.97 483.914 131.536 497.811 103.743 459.66C65.5259 463.069 41.2055 435.275 44.6801 407.48C48.1544 379.686 69.7399 362.052 103.743 364.178C125.585 365.543 142.064 378.709 146.433 392.716C147.623 396.533 147.915 400.412 147.171 404.132C148.551 400.947 150.71 397.587 153.551 394.276C166.205 379.531 192.394 365.77 223.604 372.863C249.838 378.825 261.268 407.193 258.961 424.339C258.57 427.245 257.785 429.828 256.61 431.926C258.773 431.169 261.474 430.355 264.535 429.596C277.863 426.29 298.03 424.015 310.461 431.926C330.676 443.412 372.618 460.511 407.131 455.979C416.116 454.799 424.597 452.153 432.06 447.56C425.253 452.354 417.699 457.367 409.312 462.261C367.05 486.921 303.636 508.555 207.97 483.914ZM313.815 426.33C326.104 433.294 346.779 442.436 368.636 447.133C390.793 451.895 412.741 451.791 428.642 442.006C431.643 440.159 435.568 441.029 437.506 443.972C439.445 446.914 438.696 450.863 435.815 452.892C414.914 467.612 386.806 484.564 349.178 493.994C311.8 503.362 265.38 505.222 207.686 490.573C207.124 490.662 206.408 490.771 205.551 490.893C203.316 491.212 200.116 491.619 196.197 491.983C188.377 492.71 177.613 493.276 165.906 492.605C144.063 491.353 116.864 485.679 100.732 466.394C60.8929 468.106 34.2703 438.176 38.2087 406.671M313.815 426.33C304.41 420.417 292.191 419.515 281.689 420.252C276.037 420.649 270.537 421.547 265.681 422.627C265.799 420.838 265.8 419.021 265.699 417.206C265.334 410.696 263.625 403.639 260.6 396.908C254.566 383.477 242.884 370.557 225.05 366.504C204.313 361.791 185.545 365.562 170.95 372.899C163.23 376.78 156.531 381.737 151.282 387.106C149.109 382.17 145.795 377.569 141.728 373.616C132.765 364.902 119.559 358.632 104.149 357.668C85.9545 356.531 70.418 360.651 58.8315 369.406C47.1925 378.2 40.1393 391.226 38.2087 406.671" fill="black"/>
</g>
<path d="M117.63 227.051C148.691 227.051 173.871 201.871 173.871 170.81C173.871 168.731 173.553 166.863 172.787 165.248C171.997 163.58 170.816 162.369 169.411 161.517C167.015 160.063 163.901 159.683 161.374 159.375C161.229 159.357 161.086 159.339 160.945 159.322C155.307 158.625 149.567 157.817 144.988 151.178C140.3 144.381 141.051 138.631 142.409 133.889C142.693 132.897 142.996 131.978 143.298 131.06C143.373 130.831 143.449 130.603 143.524 130.373C143.879 129.284 144.251 128.103 144.459 126.993C144.661 125.912 144.791 124.498 144.306 123.086C143.761 121.499 142.609 120.382 141.154 119.711C133.993 116.409 126.022 114.569 117.63 114.569C86.5685 114.569 61.3885 139.749 61.3885 170.81C61.3885 201.871 86.5685 227.051 117.63 227.051Z" fill="#FFE066" stroke="black" stroke-width="6.52176" stroke-linecap="round" stroke-linejoin="round"/>
<path d="M137.287 125.959C132.075 122.484 113.077 118.363 99.1801 124.777C76.5974 135.2 69.6489 152.571 69.6489 169.942C69.649 187.4 76.5975 204.685 93.9688 215.108C108.445 223.794 132.186 223.793 147.82 209.896C163.454 195.999 166.928 180.365 165.191 168.205" stroke="#FFD04A" stroke-width="6.52176" stroke-linecap="round" stroke-linejoin="round"/>
<path d="M158.48 161.828C147.067 161.828 142.282 152.731 140.545 150.415C138.808 148.099 137.395 149.096 137.395 150.834C137.974 151.992 138.437 153.613 142.606 157.782C146.776 161.951 156.743 163.565 158.48 161.828Z" fill="#EF9001"/>
<circle cx="163.452" cy="147.361" r="5.21139" fill="#FFE066"/>
<circle cx="179.086" cy="149.098" r="3.47426" fill="#FFE066"/>
<circle cx="102.652" cy="176.892" r="10.4228" fill="#FFD04A"/>
<circle cx="128.709" cy="189.052" r="5.21139" fill="#FFD04A"/>
<circle cx="147.818" cy="173.418" r="3.47426" fill="#FFD04A"/>
<circle cx="113.075" cy="138.675" r="6.94852" fill="#FFD04A"/>
<defs>
<filter id="filter0_i_39_2419" x="179.711" y="243.628" width="68.167" height="122.3" filterUnits="userSpaceOnUse" color-interpolation-filters="sRGB">
<feFlood flood-opacity="0" result="BackgroundImageFix"/>
<feBlend mode="normal" in="SourceGraphic" in2="BackgroundImageFix" result="shape"/>
<feColorMatrix in="SourceAlpha" type="matrix" values="0 0 0 0 0 0 0 0 0 0 0 0 0 0 0 0 0 0 127 0" result="hardAlpha"/>
<feOffset dx="6.52176" dy="-3.26088"/>
<feComposite in2="hardAlpha" operator="arithmetic" k2="-1" k3="1"/>
<feColorMatrix type="matrix" values="0 0 0 0 0.6625 0 0 0 0 0.651458 0 0 0 0 0.651458 0 0 0 0.12 0"/>
<feBlend mode="normal" in2="shape" result="effect1_innerShadow_39_2419"/>
</filter>
</defs>
</svg>
