<svg width="512" height="512" viewBox="0 0 512 512" fill="none" xmlns="http://www.w3.org/2000/svg">
<path d="M468.821 312.007C471.632 310.433 472.876 307.045 471.753 304.025L456.43 262.84C454.075 218.686 441.386 175.079 419.025 149.168V123.203C419.025 115.025 411.616 108.961 403.692 110.31C360.112 117.728 323.22 122.36 288.026 124.267C281.137 120.347 274.959 115.434 268.163 110.009L267.939 109.829C257.577 101.557 246.03 92.3379 229.909 86.2895C213.572 80.1601 193.028 77.4394 164.578 81.1503C140.541 84.2857 121.261 95.8263 105.85 111.73C102.919 111.256 99.958 110.771 96.9652 110.272C89.0574 108.956 81.6795 115.013 81.6795 123.172V144.855C64.2777 175.802 54.2461 212.307 47.8679 240.611C38.2655 283.221 39.3535 334.088 57.599 372.851C53.5542 374.978 50.796 379.222 50.796 384.11C50.796 391.131 56.488 396.823 63.5094 396.823H72.4989C83.9497 410.914 98.934 421.8 117.853 427.657C137.858 433.851 161.842 434.294 190.108 427.526C227.604 418.548 254.976 416.134 276.138 416.655C297.271 417.175 312.44 420.621 325.839 423.671L326.208 423.755C336.743 426.154 346.732 428.428 357.407 428.395C368.416 428.362 379.853 425.9 393.668 419.356C404.748 414.108 414.213 406.342 422.16 396.823H437.194C444.216 396.823 449.908 391.131 449.908 384.11C449.908 377.419 444.739 371.935 438.176 371.434C445.453 356.182 450.473 338.803 453.457 320.614L468.821 312.007Z" fill="#FFFCB4" stroke="white" stroke-width="13.0737" stroke-linejoin="round"/>
<path d="M166.469 84.3918C129.521 89.2111 104.209 114.549 86.6464 145.31C69.0874 176.065 58.9666 212.743 52.5246 241.33C42.5005 285.811 44.3524 339.046 65.0855 377.534C75.4915 396.852 90.701 412.525 111.583 421.36C132.451 430.189 158.654 432.049 190.815 424.348C258.707 408.093 294.112 413.103 319.801 418.645C322.564 419.241 325.245 419.851 327.867 420.449C337.395 422.619 346.129 424.609 355.056 425.04C366.667 425.6 378.627 423.56 393.737 416.403C419.142 404.369 435.926 378.421 445.382 347.453C454.857 316.424 457.146 279.854 453.168 245.684C449.195 211.555 438.925 179.446 422.943 157.52C414.935 146.534 405.401 137.982 394.384 133.114C383.315 128.223 370.943 127.14 357.507 130.804C332.43 137.643 315.36 137.219 302.114 133.262C288.803 129.287 278.987 121.656 268.382 113.194C268.088 112.959 267.793 112.724 267.498 112.488C257.217 104.279 246.152 95.4437 230.82 89.5742C214.989 83.5135 194.852 80.6897 166.469 84.3918Z" fill="#91A7FF" stroke="black" stroke-width="6.53685" stroke-linecap="square" stroke-linejoin="round"/>
<circle cx="72.5366" cy="303.509" r="4.5346" fill="white"/>
<circle cx="370.719" cy="279.107" r="3.0883" fill="white"/>
<circle cx="88.1413" cy="293.006" r="1.54415" fill="white"/>
<circle cx="111.239" cy="399.486" r="3.02306" fill="white"/>
<circle cx="415.217" cy="349.163" r="4.5346" transform="rotate(-72.9962 415.217 349.163)" fill="white"/>
<circle cx="229.134" cy="121.95" r="4.5346" transform="rotate(-72.9962 229.134 121.95)" fill="#F5ED28"/>
<circle cx="184.22" cy="104.962" r="1.51153" transform="rotate(-72.9962 184.22 104.962)" fill="#FFF385"/>
<circle cx="407.732" cy="319.209" r="4.90757" transform="rotate(-72.9962 407.732 319.209)" fill="white"/>
<circle cx="72.4996" cy="272.055" r="3.02306" fill="#FFF385"/>
<path d="M182.019 354.537C185.63 354.537 188.556 351.61 188.556 348V318.09C188.556 305.225 178.128 294.797 165.263 294.797H129.374C116.509 294.797 106.081 305.225 106.081 318.09V348C106.081 351.61 109.007 354.537 112.618 354.537H182.019Z" fill="#FA5252" stroke="black" stroke-width="13.0737" stroke-linejoin="round"/>
<path d="M251.418 354.537C255.028 354.537 257.955 351.61 257.955 348V318.09C257.955 305.225 247.527 294.797 234.662 294.797H198.773C185.908 294.797 175.48 305.225 175.48 318.09V348C175.48 351.61 178.406 354.537 182.017 354.537H251.418Z" fill="#FA5252" stroke="black" stroke-width="13.0737" stroke-linejoin="round"/>
<path d="M320.822 354.537C324.432 354.537 327.358 351.61 327.358 348V318.09C327.358 305.225 316.93 294.797 304.065 294.797H268.176C255.312 294.797 244.883 305.225 244.883 318.09V348C244.883 351.61 247.81 354.537 251.42 354.537H320.822Z" fill="#FA5252" stroke="black" stroke-width="13.0737" stroke-linejoin="round"/>
<path d="M390.225 354.537C393.835 354.537 396.762 351.61 396.762 348V318.09C396.762 305.225 386.333 294.797 373.469 294.797H337.579C324.715 294.797 314.286 305.225 314.286 318.09V348C314.286 351.61 317.213 354.537 320.823 354.537H390.225Z" fill="#FA5252" stroke="black" stroke-width="13.0737" stroke-linejoin="round"/>
<g style="mix-blend-mode:multiply">
<rect x="110.942" y="321.985" width="281.756" height="25.4269" fill="#DEE2E6"/>
<rect x="110.942" y="321.985" width="281.756" height="25.4269" stroke="black" stroke-width="13.0737"/>
</g>
<path d="M147.318 390.732C150.928 390.732 153.855 387.805 153.855 384.195V354.285C153.855 341.421 143.426 330.992 130.562 330.992H94.6727C81.8083 330.992 71.3797 341.421 71.3797 354.285V384.195C71.3797 387.805 74.3063 390.732 77.9165 390.732H147.318Z" fill="#FA5252" stroke="black" stroke-width="13.0737" stroke-linejoin="round"/>
<path d="M216.721 390.732C220.331 390.732 223.258 387.805 223.258 384.195V354.285C223.258 341.421 212.829 330.992 199.965 330.992H164.075C151.211 330.992 140.782 341.421 140.782 354.285V384.195C140.782 387.805 143.709 390.732 147.319 390.732H216.721Z" fill="#FA5252" stroke="black" stroke-width="13.0737" stroke-linejoin="round"/>
<path d="M286.121 390.732C289.731 390.732 292.658 387.805 292.658 384.195V354.285C292.658 341.421 282.229 330.992 269.365 330.992H233.475C220.611 330.992 210.182 341.421 210.182 354.285V384.195C210.182 387.805 213.109 390.732 216.719 390.732H286.121Z" fill="#FA5252" stroke="black" stroke-width="13.0737" stroke-linejoin="round"/>
<path d="M355.524 390.732C359.134 390.732 362.061 387.805 362.061 384.195V354.285C362.061 341.421 351.632 330.992 338.768 330.992H302.878C290.014 330.992 279.585 341.421 279.585 354.285V384.195C279.585 387.805 282.512 390.732 286.122 390.732H355.524Z" fill="#FA5252" stroke="black" stroke-width="13.0737" stroke-linejoin="round"/>
<path d="M424.927 390.732C428.537 390.732 431.463 387.805 431.463 384.195V354.285C431.463 341.421 421.035 330.992 408.17 330.992H372.281C359.417 330.992 348.988 341.421 348.988 354.285V384.195C348.988 387.805 351.915 390.732 355.525 390.732H424.927Z" fill="#FA5252" stroke="black" stroke-width="13.0737" stroke-linejoin="round"/>
<path d="M112.617 318.089C112.617 308.835 120.119 301.333 129.373 301.333H165.263C174.517 301.333 182.019 308.835 182.019 318.089V348H112.617V318.089Z" fill="#FA5252" stroke="#BE2C2C" stroke-width="11.7293" stroke-linejoin="round"/>
<path d="M182.016 318.089C182.016 308.835 189.518 301.333 198.772 301.333H234.662C243.916 301.333 251.418 308.835 251.418 318.089V348H182.016V318.089Z" fill="#FA5252" stroke="#BE2C2C" stroke-width="11.7293" stroke-linejoin="round"/>
<path d="M251.419 318.089C251.419 308.835 258.921 301.333 268.176 301.333H304.065C313.319 301.333 320.821 308.835 320.821 318.089V348H251.419V318.089Z" fill="#FA5252" stroke="#BE2C2C" stroke-width="11.7293" stroke-linejoin="round"/>
<path d="M320.823 318.089C320.823 308.835 328.325 301.333 337.579 301.333H373.468C382.722 301.333 390.224 308.835 390.224 318.089V348H320.823V318.089Z" fill="#FA5252" stroke="#BE2C2C" stroke-width="11.7293" stroke-linejoin="round"/>
<g style="mix-blend-mode:multiply">
<rect x="117.479" y="328.521" width="268.682" height="12.3532" fill="#DEE2E6"/>
</g>
<g style="mix-blend-mode:multiply">
<path fill-rule="evenodd" clip-rule="evenodd" d="M237.065 300.497C237.082 300.086 237.112 299.668 237.161 299.247C237.68 294.847 240.298 290.182 250.751 289.561C260.638 288.973 264.42 292.528 265.945 296.555C266.421 297.814 266.677 299.118 266.83 300.356C266.861 300.614 266.889 300.87 266.913 301.122C266.977 301.795 267.017 302.44 267.052 303.038L267.027 303.039C267.03 303.243 266.974 303.435 266.873 303.597C266.774 303.755 266.633 303.885 266.464 303.97C266.343 304.031 266.208 304.069 266.064 304.078L265.548 304.109C265.828 304.835 266.039 305.714 266.189 306.693C266.199 306.694 266.21 306.695 266.22 306.696C266.587 306.737 266.937 306.833 267.261 306.977C267.27 306.981 267.278 306.985 267.287 306.989C268.29 307.443 269.043 308.353 269.283 309.454C269.311 309.58 269.331 309.709 269.345 309.84C269.358 309.962 269.364 310.085 269.364 310.21C269.364 311.959 268.093 313.412 266.424 313.695C266.245 317.066 265.728 320.334 265.104 322.205L264.059 322.793C262.939 324.684 261.342 326.259 259.435 327.353V334.084L276.333 339.386C280.19 340.596 283.21 343.413 284.748 346.961C285.473 348.633 285.869 350.467 285.869 352.371V353.498H221.477V352.218C221.477 350.372 221.849 348.592 222.533 346.961C224.024 343.403 226.998 340.556 230.822 339.294L246.652 334.07H247.03V327.486C245.596 326.703 244.329 325.652 243.296 324.4L242.957 324.349C241.208 322.823 240.27 318.277 239.923 313.74C239.863 313.743 239.802 313.745 239.74 313.745C238.596 313.745 237.579 313.201 236.932 312.358C236.503 311.797 236.238 311.104 236.208 310.35C236.206 310.304 236.206 310.257 236.206 310.21C236.206 309.164 236.66 308.225 237.381 307.577C238.007 307.016 238.834 306.675 239.74 306.675C239.779 306.675 239.817 306.676 239.856 306.677C239.881 306.309 239.911 305.959 239.945 305.63L228.888 306.287C228.324 306.321 227.839 305.891 227.806 305.326C227.772 304.762 228.202 304.278 228.767 304.244L237.154 303.746C237.127 303.352 237.1 302.937 237.08 302.505C237.051 301.865 237.038 301.19 237.065 300.497ZM230.8 297.575L228.379 297.719C228.379 297.719 228.379 297.719 228.379 297.719C224.211 297.966 221.033 301.546 221.28 305.714C221.528 309.882 225.108 313.06 229.276 312.813L229.997 312.77C230.601 315.075 232.001 317.057 233.886 318.406C234.071 319.577 234.304 320.734 234.591 321.831C235.121 323.852 236.178 327.109 238.659 329.274L239.117 329.673L228.774 333.086C220.518 335.81 214.94 343.524 214.94 352.218V360.035H292.406V352.371C292.406 343.568 286.69 335.784 278.29 333.148L267.035 329.617C267.604 329.022 268.135 328.39 268.624 327.725L270.508 326.665L271.305 324.273C271.906 322.472 272.358 320.095 272.648 317.622C274.648 315.782 275.901 313.145 275.901 310.21C275.901 307.803 275.058 305.594 273.649 303.862L273.577 302.65C273.572 302.564 273.567 302.473 273.562 302.379C273.416 299.843 273.107 294.485 269.763 290.035C265.858 284.839 259.307 282.504 250.363 283.035C241.981 283.533 236.004 286.421 232.841 291.796C231.713 293.713 231.109 295.716 230.8 297.575Z" fill="black"/>
</g>
<path d="M221.479 352.22V353.5H285.87V352.373C285.87 346.426 282.009 341.168 276.334 339.387L259.393 334.072H246.654L230.824 339.295C225.246 341.136 221.479 346.346 221.479 352.22Z" fill="#20C997" stroke="#212529" stroke-width="2.41947" stroke-linecap="round" stroke-linejoin="round"/>
<path d="M247.032 318.509H259.437V334.455C259.437 334.455 256.065 336.796 253.283 336.796C250.501 336.796 247.032 334.455 247.032 334.455V318.509Z" fill="#FFF9DB" stroke="#212529" stroke-width="2.11704" stroke-linecap="round" stroke-linejoin="round"/>
<path fill-rule="evenodd" clip-rule="evenodd" d="M240.29 305.875C240.203 303.311 242.258 301.186 244.823 301.186H255.773L257.104 299.045L259.227 301.186H261.294C263.799 301.186 265.83 303.217 265.83 305.722V306.677C265.83 306.677 265.83 306.677 265.83 306.677C267.783 306.677 269.365 308.259 269.365 310.212C269.365 312.164 267.783 313.746 265.83 313.746C265.83 313.746 265.83 313.746 265.83 313.746V316.444C265.83 323.397 260.194 329.033 253.241 329.033C246.453 329.033 240.888 323.652 240.659 316.868L240.551 313.653C240.291 313.714 240.019 313.746 239.741 313.746C237.788 313.746 236.206 312.164 236.206 310.212C236.206 308.259 237.788 306.677 239.741 306.677C239.937 306.677 240.13 306.693 240.318 306.724L240.29 305.875Z" fill="#FFF9DB"/>
<path d="M242.957 324.35C239.851 321.64 239.303 309.409 240.079 304.611L264.921 302.917C267.405 306.304 266.532 317.92 265.104 322.207L260.263 324.932L252.5 325.779L242.957 324.35Z" fill="#212529"/>
<path d="M250.754 289.562C235.409 290.474 236.948 300.1 237.228 304.812L267.055 303.04C266.739 297.718 266.099 288.65 250.754 289.562Z" fill="#0C8599"/>
<rect x="227.746" y="304.305" width="39.2886" height="2.04681" rx="1.02341" transform="rotate(-3.401 227.746 304.305)" fill="#0C8599"/>
<path d="M262.027 300.698C261.785 299.235 260.18 298.837 259.408 298.821C257.678 298.891 257.092 300.25 257.015 300.92L262.027 300.698Z" fill="#212529"/>
<g style="mix-blend-mode:multiply">
<path d="M247.91 330.037V328.043C248.876 328.26 251.293 328.812 253.233 329.285C255.173 329.758 257.591 328.654 258.557 328.043V334.431L256.939 335.403V331.022C256.371 331.376 255.399 331.819 253.233 331.739C250.344 331.634 248.422 330.648 247.91 330.037Z" fill="#E9ECEF"/>
</g>
<g style="mix-blend-mode:multiply">
<path d="M279.656 341.417L263.15 336.393C268.802 339.241 277.331 341.449 279.656 344.255C280.904 345.761 282.412 349.838 282.412 352.683H285.009C285.177 351.081 284.297 347.7 283.538 345.742C282.93 344.175 280.64 342.04 279.656 341.417Z" fill="#DEE2E6"/>
</g>
<g style="mix-blend-mode:multiply">
<path d="M265.12 305.558L241.009 305.829L265.12 304.063V305.558Z" fill="#E9ECEF"/>
</g>
<g style="mix-blend-mode:multiply">
<path d="M263.55 297.396C262.951 294.797 260.191 292.148 258.886 291.149C263.95 291.549 265.549 295.48 265.716 297.396L266.549 302.311H264.3C264.3 301.755 264.15 299.995 263.55 297.396Z" fill="#E9ECEF"/>
</g>
<path d="M177.57 335.58L162.971 340.436C157.935 342.111 154.538 346.822 154.538 352.129C154.538 352.886 155.151 353.499 155.907 353.499H212.098C212.844 353.499 213.449 352.894 213.449 352.148C213.449 346.845 210.013 342.155 204.957 340.556L189.225 335.58H177.57Z" fill="#FF8787"/>
<path d="M178.039 321.625H189.162V335.924C189.162 335.924 185.824 337.997 184.165 337.997C182.506 337.997 178.039 335.924 178.039 335.924V321.625Z" fill="#FFF9DB"/>
<path fill-rule="evenodd" clip-rule="evenodd" d="M196.13 311.642V305.384C196.13 297.189 187.067 295.508 182.535 295.692C172.456 296.252 170.011 302.387 170.047 305.384V311.551C168.526 311.837 167.379 313.121 167.379 314.661C167.379 316.202 168.526 317.485 170.047 317.771V318.499C170.047 325.702 175.886 331.541 183.089 331.541C190.292 331.541 196.13 325.702 196.13 318.499V317.68C197.464 317.271 198.429 316.074 198.429 314.661C198.429 313.248 197.464 312.052 196.13 311.642Z" fill="#FFF9DB"/>
<g style="mix-blend-mode:multiply">
<path d="M178.668 332.606V331.184C179.567 331.339 181.814 331.733 183.618 332.07C185.421 332.407 187.668 331.62 188.567 331.184V335.74L187.062 338.088V333.309C186.534 333.561 185.631 333.877 183.618 333.82C180.932 333.745 179.145 333.042 178.668 332.606Z" fill="#E9ECEF"/>
</g>
<g style="mix-blend-mode:multiply">
<path d="M208.379 342.588L197.579 338.458C201.611 341.143 206.243 343.244 209.386 346.879C210.482 348.146 210.825 350.816 210.825 353.497H212.382C212.502 351.987 212.557 349.304 212.015 347.458C211.582 345.982 209.081 343.175 208.379 342.588Z" fill="#DEE2E6"/>
</g>
<path d="M169.911 311.408C169.911 324.639 174.321 328.154 180.648 328.154C191.896 328.154 195.888 327.451 196.612 311.692C196.893 309.443 196.87 304.394 195.888 301.757C194.662 298.46 190.935 292.988 182.483 293.392C174.032 293.796 171.214 297.701 169.911 301.757C169.343 303.524 168.921 307.067 169.911 311.408Z" fill="#FC93B8"/>
<circle cx="182.767" cy="294.82" r="6.17661" fill="#FAA2C1"/>
<path fill-rule="evenodd" clip-rule="evenodd" d="M177.571 335.579H178.038V330.525C177.881 330.458 177.725 330.389 177.571 330.317C176.942 330.023 176.341 329.681 175.772 329.294C172.317 326.948 170.048 322.988 170.048 318.497V317.771C168.527 317.484 167.38 316.201 167.38 314.661C167.38 313.167 168.459 311.915 169.912 311.579L169.911 311.409C168.922 307.068 169.343 303.525 169.911 301.758C170.848 298.843 172.567 296.005 176.599 294.49C176.77 291.232 179.466 288.643 182.767 288.643C186.045 288.643 188.726 291.196 188.931 294.422C192.966 296.108 195.034 299.461 195.889 301.758C196.87 304.395 196.894 309.445 196.613 311.693L196.607 311.827C197.689 312.349 198.431 313.422 198.431 314.661C198.431 316.074 197.465 317.271 196.13 317.68V318.497C196.13 322.917 193.932 326.823 190.569 329.182C190.14 329.483 189.691 329.759 189.226 330.007C189.205 330.019 189.183 330.03 189.162 330.041V335.579H189.226L204.958 340.555C208.262 341.6 210.875 343.966 212.288 346.961C212.321 347.029 212.353 347.099 212.384 347.168C213.072 348.7 213.449 350.39 213.449 352.147C213.449 352.794 212.994 353.335 212.386 353.467L212.384 353.497H212.119L212.099 353.498H155.908C155.151 353.498 154.538 352.885 154.538 352.128C154.538 346.821 157.936 342.11 162.972 340.435L177.571 335.579ZM168.607 331.671C166.088 328.905 164.35 325.411 163.746 321.539C161.981 319.818 160.843 317.421 160.843 314.661C160.843 312.38 161.622 310.345 162.889 308.736C162.572 305.089 162.984 301.948 163.688 299.758C164.77 296.391 166.822 292.596 171.006 289.986C172.908 285.361 177.456 282.106 182.767 282.106C188.097 282.106 192.658 285.384 194.549 290.036C198.74 292.796 200.988 296.716 202.016 299.479C202.868 301.769 203.152 304.514 203.253 306.546C203.298 307.455 203.313 308.375 203.301 309.256C204.34 310.777 204.968 312.625 204.968 314.661C204.968 317.184 204.011 319.41 202.497 321.089C201.976 325.028 200.283 328.595 197.786 331.43L206.929 334.322C214.703 336.781 219.986 343.994 219.986 352.147C219.986 355.418 218 358.214 215.171 359.412C214.324 359.812 213.378 360.034 212.384 360.034H212.119L212.099 360.034H155.908C151.541 360.034 148.001 356.495 148.001 352.128C148.001 344.006 153.202 336.796 160.909 334.232L168.607 331.671Z" fill="black"/>
<path d="M313.086 334.567L296.313 339.839C290.97 341.519 287.334 346.472 287.334 352.073C287.334 352.86 287.972 353.498 288.759 353.498H351.794C352.571 353.498 353.201 352.868 353.201 352.091C353.201 346.496 349.527 341.563 344.166 339.961L326.117 334.567H313.086Z" fill="#748FFC"/>
<path d="M313.416 319.69H326.212V334.629C326.212 334.629 322.733 336.822 319.864 336.822C316.994 336.822 313.416 334.629 313.416 334.629V319.69Z" fill="#FFF9DB"/>
<path fill-rule="evenodd" clip-rule="evenodd" d="M332.809 307.787V306.537C332.809 303.931 330.697 301.819 328.09 301.819H325.998H322.435H311.019C308.413 301.819 306.3 303.931 306.3 306.537V307.609C306.017 307.526 305.717 307.481 305.407 307.481C303.663 307.481 302.25 308.894 302.25 310.638C302.25 312.381 303.663 313.795 305.407 313.795C305.717 313.795 306.017 313.75 306.3 313.666V317.29C306.3 324.61 312.235 330.545 319.555 330.545C326.875 330.545 332.809 324.61 332.809 317.29V312.677C333.187 312.872 333.617 312.983 334.072 312.983C335.591 312.983 336.823 311.751 336.823 310.232C336.823 308.713 335.591 307.481 334.072 307.481C333.617 307.481 333.187 307.591 332.809 307.787Z" fill="#FFF9DB"/>
<path d="M333.067 308.214C333.067 308.214 335.029 319.234 330.571 324.436C326.112 329.638 314.898 328.152 308.953 324.436C304.896 321.901 306.315 311.806 306.315 311.806V307.533L302.759 308.214C301.9 306.448 301.444 301.273 301.587 298.36C301.853 296.045 303.396 291.604 307.438 292.364C311.353 287.589 325.817 286.938 332.25 293.204C335.468 296.339 336.256 303.577 335.81 307.533L333.067 308.214Z" fill="#D69B5C"/>
<path fill-rule="evenodd" clip-rule="evenodd" d="M301.586 298.36C301.852 296.045 303.395 291.604 307.437 292.364C311.352 287.589 325.816 286.938 332.249 293.204C335.054 295.936 336.012 301.785 335.918 305.862C335.904 306.463 335.867 307.025 335.81 307.533L335.14 307.699C335.459 307.835 335.748 308.028 335.992 308.267C336.503 308.767 336.819 309.463 336.819 310.234C336.819 310.527 336.774 310.809 336.689 311.073C336.583 311.405 336.416 311.709 336.201 311.972C335.84 312.414 335.344 312.743 334.776 312.893C334.55 312.953 334.313 312.985 334.068 312.985C333.869 312.985 333.674 312.964 333.487 312.923C333.533 314.896 333.423 317.241 332.904 319.449C332.56 320.913 332.036 322.317 331.258 323.513C329.03 327.698 324.623 330.546 319.552 330.546C314.324 330.546 309.803 327.52 307.646 323.124C307.118 322.324 306.757 321.332 306.516 320.27C306.044 318.189 306.03 315.84 306.113 314.145C306.12 313.995 306.128 313.85 306.137 313.711C305.902 313.767 305.656 313.797 305.404 313.797C305.155 313.797 304.912 313.768 304.68 313.713C304.678 313.713 304.677 313.712 304.676 313.712C304.621 313.699 304.567 313.685 304.513 313.669C304.44 313.648 304.368 313.624 304.297 313.597C304.1 313.523 303.913 313.431 303.737 313.321C302.842 312.763 302.247 311.771 302.247 310.64C302.247 309.938 302.476 309.289 302.864 308.765C303.067 308.491 303.313 308.251 303.592 308.055L302.758 308.214C302.675 308.043 302.596 307.841 302.52 307.611C302.512 307.586 302.504 307.562 302.496 307.536C302.355 307.091 302.229 306.553 302.117 305.955C301.938 304.995 301.799 303.882 301.704 302.76C301.702 302.733 301.7 302.705 301.697 302.677C301.673 302.376 301.651 302.074 301.633 301.774C301.557 300.526 301.539 299.32 301.586 298.36ZM306.297 307.536V307.611C306.243 307.595 306.189 307.581 306.134 307.568L306.297 307.536ZM295.964 308.431C295.897 308.158 295.84 307.899 295.791 307.665C295.576 306.624 295.415 305.503 295.297 304.421C295.067 302.291 294.965 299.916 295.057 298.039C295.064 297.897 295.076 297.755 295.092 297.614C295.305 295.763 296.004 292.911 297.761 290.43C298.686 289.125 300.058 287.71 302.017 286.766C302.945 286.318 303.923 286.017 304.929 285.863C306.578 284.69 308.406 283.899 310.09 283.367C312.84 282.498 315.903 282.092 318.93 282.107C324.732 282.135 331.908 283.746 336.811 288.522C339.839 291.471 341.181 295.64 341.811 298.769C342.322 301.301 342.517 303.926 342.447 306.222C343.029 307.435 343.356 308.795 343.356 310.234C343.356 313.181 341.984 315.808 339.843 317.509C339.526 320.482 338.734 323.883 336.897 326.827C333.539 332.927 327.035 337.083 319.552 337.083C311.872 337.083 305.226 332.708 301.948 326.342C300.454 323.886 299.933 321.116 299.715 319.137C299.69 318.903 299.667 318.671 299.648 318.44C297.259 316.675 295.71 313.838 295.71 310.64C295.71 309.88 295.798 309.141 295.964 308.431Z" fill="black"/>
<g style="mix-blend-mode:multiply">
<path d="M314.137 331.271V329.39C315.174 329.594 317.768 330.115 319.851 330.562C321.933 331.008 324.528 329.966 325.565 329.39V335.416L323.828 336.333V332.2C323.218 332.534 322.176 332.952 319.851 332.877C316.75 332.777 314.687 331.848 314.137 331.271Z" fill="#E9ECEF"/>
</g>
<g style="mix-blend-mode:multiply">
<path d="M347.403 341.867L331.832 336.897C337.164 339.714 345.21 341.898 347.403 344.673C348.58 346.163 350.003 350.196 350.003 353.01H352.452C352.611 351.425 351.781 348.082 351.064 346.145C350.491 344.595 348.331 342.483 347.403 341.867Z" fill="#DEE2E6"/>
</g>
<path d="M77.916 354.285C77.916 345.031 85.418 337.529 94.6722 337.529H130.562C139.816 337.529 147.318 345.031 147.318 354.285V384.195H77.916V354.285Z" stroke="black" stroke-width="24.8073" stroke-linejoin="round"/>
<path d="M147.319 354.285C147.319 345.031 154.821 337.529 164.075 337.529H199.964C209.219 337.529 216.721 345.031 216.721 354.285V384.195H147.319V354.285Z" stroke="black" stroke-width="24.8073" stroke-linejoin="round"/>
<path d="M216.719 354.285C216.719 345.031 224.221 337.529 233.475 337.529H269.364C278.618 337.529 286.12 345.031 286.12 354.285V384.195H216.719V354.285Z" stroke="black" stroke-width="24.8073" stroke-linejoin="round"/>
<path d="M286.122 354.285C286.122 345.031 293.624 337.529 302.878 337.529H338.767C348.021 337.529 355.523 345.031 355.523 354.285V384.195H286.122V354.285Z" stroke="black" stroke-width="24.8073" stroke-linejoin="round"/>
<path d="M355.524 354.285C355.524 345.031 363.026 337.529 372.281 337.529H408.17C417.424 337.529 424.926 345.031 424.926 354.285V384.195H355.524V354.285Z" stroke="black" stroke-width="24.8073" stroke-linejoin="round"/>
<path d="M77.916 354.285C77.916 345.031 85.418 337.529 94.6722 337.529H130.562C139.816 337.529 147.318 345.031 147.318 354.285V384.195H77.916V354.285Z" fill="#FA5252" stroke="#BE2C2C" stroke-width="11.7293" stroke-linejoin="round"/>
<path d="M147.319 354.285C147.319 345.031 154.821 337.529 164.075 337.529H199.964C209.219 337.529 216.721 345.031 216.721 354.285V384.195H147.319V354.285Z" fill="#FA5252" stroke="#BE2C2C" stroke-width="11.7293" stroke-linejoin="round"/>
<path d="M216.719 354.285C216.719 345.031 224.221 337.529 233.475 337.529H269.364C278.618 337.529 286.12 345.031 286.12 354.285V384.195H216.719V354.285Z" fill="#FA5252" stroke="#BE2C2C" stroke-width="11.7293" stroke-linejoin="round"/>
<path d="M286.122 354.285C286.122 345.031 293.624 337.529 302.878 337.529H338.767C348.021 337.529 355.523 345.031 355.523 354.285V384.195H286.122V354.285Z" fill="#FA5252" stroke="#BE2C2C" stroke-width="11.7293" stroke-linejoin="round"/>
<path d="M355.524 354.285C355.524 345.031 363.026 337.529 372.281 337.529H408.17C417.424 337.529 424.926 345.031 424.926 354.285V384.195H355.524V354.285Z" fill="#FA5252" stroke="#BE2C2C" stroke-width="11.7293" stroke-linejoin="round"/>
<rect x="55.5353" y="374.665" width="392.575" height="18.8901" rx="9.44503" fill="#BE2C2C" stroke="black" stroke-width="6.53685" stroke-linejoin="round"/>
<path d="M89.6875 123.171C89.6875 119.122 93.3688 116.054 97.3628 116.719C217.615 136.741 287.796 136.916 406.26 116.753C410.262 116.072 413.959 119.143 413.959 123.202V271.713C413.959 275.641 410.483 278.676 406.583 278.206C286.998 263.794 216.664 263.941 97.0551 278.217C93.1584 278.682 89.6875 275.647 89.6875 271.723V123.171Z" fill="#CEDBEE"/>
<path fill-rule="evenodd" clip-rule="evenodd" d="M98.4366 110.272C217.991 130.177 287.438 130.347 405.164 110.31C413.087 108.961 420.497 115.025 420.497 123.203V271.714C420.497 279.626 413.529 285.629 405.801 284.697C286.741 270.348 216.93 270.494 97.83 284.708C90.1069 285.63 83.1509 279.629 83.1509 271.724V123.172C83.1509 115.013 90.5288 108.955 98.4366 110.272ZM97.363 116.72C93.369 116.055 89.6877 119.123 89.6877 123.172V271.724C89.6877 275.648 93.1587 278.683 97.0553 278.217C216.664 263.942 286.998 263.794 406.584 278.207C410.483 278.677 413.96 275.642 413.96 271.714V123.203C413.96 119.143 410.262 116.073 406.26 116.754C287.797 136.917 217.615 136.741 97.363 116.72Z" fill="black"/>
<path d="M270.793 201.075L238.918 218.81C235.623 220.644 231.57 218.261 231.57 214.49V178.926C231.57 175.15 235.632 172.768 238.928 174.611L270.802 192.439C274.181 194.329 274.175 199.193 270.793 201.075Z" fill="#F8F9FA" stroke="black" stroke-width="6.53685" stroke-linejoin="round"/>
<path d="M350.424 211.793L350.089 212.205L349.902 212.701C349.382 214.084 349.265 216.206 350.005 218.379C349.217 218.958 348.56 219.704 348.102 220.574C347.305 222.088 347.14 223.945 347.91 225.733C348.145 226.279 348.452 226.785 348.82 227.252C347.29 229.705 346.895 232.479 348.375 234.948C349.75 237.241 352.146 238.222 354.63 238.133C355.275 239.503 356.177 240.653 357.41 241.452C359.602 242.871 362.006 242.652 363.854 241.981C365.68 241.317 367.33 240.107 368.632 238.83C369.204 238.269 369.748 237.657 370.239 237.016C371.681 237.137 373.082 236.737 374.244 236.078C376.191 234.974 377.709 233.083 378.635 231.156C379.555 229.243 380.141 226.765 379.521 224.37C379.167 223.002 378.458 221.817 377.439 220.893C377.65 219.96 377.661 218.998 377.494 218.058C377.107 215.876 375.814 213.961 374.278 212.581C371.837 210.39 367.716 208.772 363.838 210.422C361.563 208.672 359.16 207.935 356.77 208.193C353.834 208.51 351.669 210.258 350.424 211.793Z" fill="#FFF975" stroke="black" stroke-width="6.53685"/>
<path d="M430.867 236.586L430.743 236.07L430.462 235.621C429.775 234.521 428.423 233.342 426.616 232.657C426.588 231.866 426.408 231.083 426.071 230.358C425.399 228.908 424.112 227.73 422.35 227.288C421.92 227.18 421.485 227.122 421.049 227.107C420.097 224.818 418.347 223.095 415.78 222.806C413.409 222.539 411.428 223.642 410.112 225.353C408.877 225.129 407.64 225.171 406.453 225.596C404.163 226.416 402.984 228.314 402.454 230.006C401.931 231.676 401.899 233.499 402.096 235.09C402.173 235.709 402.289 236.334 402.444 236.947C401.65 237.91 401.208 239.082 401.053 240.214C400.777 242.23 401.305 244.342 402.166 246.036C403.02 247.715 404.47 249.504 406.558 250.384C407.675 250.855 408.847 251.01 410.004 250.847C410.535 251.43 411.17 251.908 411.869 252.269C413.67 253.199 415.757 253.313 417.568 252.971C420.371 252.442 423.721 250.462 424.759 246.912C427.095 246.226 428.863 244.942 429.963 243.127C431.357 240.826 431.282 238.307 430.867 236.586Z" fill="#FFF975" stroke="black" stroke-width="6.53685"/>
<path d="M415.089 168.364L414.601 168.154L414.073 168.11C412.294 167.961 409.655 168.589 407.327 170.385C406.363 169.506 405.187 168.882 403.914 168.613C402.052 168.219 400.02 168.604 398.336 169.974C397.674 170.511 397.114 171.161 396.647 171.903C393.206 170.742 389.826 171.134 387.516 173.593C385.353 175.895 385.085 179.032 386.178 181.891C384.631 183.127 383.502 184.593 382.969 186.329C382.111 189.121 383.066 191.67 384.409 193.532C385.739 195.376 387.651 196.874 389.559 197.964C390.531 198.519 391.563 199.003 392.606 199.389C392.832 201.163 393.75 202.717 394.937 203.888C396.78 205.706 399.399 206.827 401.908 207.262C404.401 207.695 407.362 207.547 409.806 206.116C411.322 205.228 412.473 203.942 413.155 202.335C414.404 202.348 415.625 202.051 416.745 201.507C419.031 200.397 420.775 198.35 421.85 196.156C423.617 192.548 424.061 187.224 420.679 183.4C422.122 180.059 422.214 176.983 421.137 174.315C419.862 171.159 417.229 169.282 415.089 168.364Z" fill="#FFF975" stroke="black" stroke-width="6.53685"/>
<path d="M383.272 257.477C382.439 257.943 381.852 258.751 381.665 259.687C381.477 260.623 381.709 261.594 382.298 262.345L432.445 326.29C433.44 327.558 435.209 327.912 436.615 327.124L468.69 309.157C470.096 308.369 470.718 306.675 470.156 305.165L441.82 229.003C441.487 228.108 440.78 227.403 439.884 227.074C438.988 226.745 437.993 226.824 437.16 227.291L383.272 257.477Z" fill="#FC5F5F" stroke="black" stroke-width="6.53685" stroke-linejoin="round"/>
<path d="M388.719 258.174L394.493 254.94L441.433 320.681L437.584 322.837L388.719 258.174Z" fill="white"/>
<path d="M398.343 252.783L405.079 249.01L447.207 317.446L443.358 319.602L398.343 252.783Z" fill="white"/>
<path d="M424.324 238.228L417.588 242.001L454.906 313.133L458.755 310.977L424.324 238.228Z" fill="white"/>
<path d="M433.947 232.837L427.211 236.61L460.68 309.898L464.529 307.742L433.947 232.837Z" fill="white"/>
<path d="M407.966 247.392L414.702 243.619L452.981 314.211L449.132 316.367L407.966 247.392Z" fill="white"/>
<path fill-rule="evenodd" clip-rule="evenodd" d="M99.1548 262.751C99.2254 278.848 100.118 291.577 101.209 291.577C102.3 291.577 103.193 278.848 103.264 262.751C121.638 262.688 136.21 261.792 136.21 260.695C136.21 259.599 121.638 258.702 103.264 258.64C103.193 242.541 102.3 229.811 101.209 229.811C100.118 229.811 99.2253 242.541 99.1548 258.64C80.7804 258.702 66.208 259.599 66.208 260.695C66.208 261.792 80.7804 262.688 99.1548 262.751Z" fill="#FFFCB4"/>
<path fill-rule="evenodd" clip-rule="evenodd" d="M331.92 152.577C331.972 164.651 332.642 174.198 333.46 174.198C334.279 174.198 334.948 164.651 335.001 152.577C348.782 152.53 359.711 151.858 359.711 151.036C359.711 150.214 348.782 149.541 335.001 149.494C334.948 137.421 334.279 127.873 333.46 127.873C332.642 127.873 331.972 137.421 331.92 149.494C318.139 149.541 307.209 150.213 307.209 151.036C307.209 151.858 318.139 152.531 331.92 152.577Z" fill="#FFFCB4"/>
</svg>
