<svg width="512" height="512" viewBox="0 0 512 512" fill="none" xmlns="http://www.w3.org/2000/svg">
<mask id="path-1-outside-1_39_1729" maskUnits="userSpaceOnUse" x="44.7512" y="48.7458" width="422" height="402" fill="black">
<rect fill="white" x="44.7512" y="48.7458" width="422" height="402"/>
<path d="M293.907 92.4314C294.278 92.4314 294.649 92.4321 295.021 92.4335L316.227 88.2222L317.196 93.3654C360.838 96.9661 409.538 112.033 435.842 156.38C468.055 210.689 453.549 299.523 409.408 359.86L413.175 360.146L419.282 403.645L410.618 376.09L400.509 377.301C399.945 380.212 397.128 382.113 394.218 381.549L391.504 381.023C385.353 387.288 378.807 393.029 371.894 398.138C349.902 414.393 321.965 423.503 292.35 426.799C279.371 437.633 256.994 442.593 216.35 430.854C196.796 425.207 182.762 418.51 172.835 411.276C171.496 410.762 170.168 410.238 168.851 409.704L167.484 411.729L179.493 429.466L161.74 417.479L144.003 429.488L155.99 411.736L147.915 399.81C136.921 393.778 127.2 386.934 119.218 379.421C114.73 375.197 110.408 370.241 106.291 364.68L100.599 365.784C97.6884 366.348 94.8714 364.445 94.3073 361.535L89.4055 336.245C70.5582 297.196 59.7237 245.481 63.45 202.33L57.8503 173.44C57.2861 170.529 59.1884 167.712 62.0992 167.148L71.2835 165.368C83.8301 131.735 110.999 111.444 158.211 122.066C194.322 130.191 217.806 118.982 240.608 108.099C257.201 100.179 273.433 92.4314 293.907 92.4314Z"/>
<path fill-rule="evenodd" clip-rule="evenodd" d="M324.987 86.4825L316.227 88.2222L315.377 83.7064L315.414 83.7175L324.987 86.4825Z"/>
<path d="M295.021 92.4335L315.668 80.2548C315.348 80.2982 315.047 80.4287 314.797 80.6282L311.872 65.0988L309.285 64.3514L309.286 64.2962C309.291 64.1003 309.135 63.9377 308.94 63.933C308.788 63.9294 308.656 64.0216 308.602 64.1544L304.377 62.9339L304.379 62.8911C304.39 62.6955 304.241 62.5278 304.045 62.5167C303.889 62.5078 303.752 62.6006 303.696 62.7374L301.922 62.225L301.924 62.206C301.949 62.0116 301.811 61.8343 301.616 61.8099C301.453 61.7895 301.302 61.8833 301.243 62.029L300.263 61.7458L295.021 92.4335Z"/>
</mask>
<path d="M293.907 92.4314C294.278 92.4314 294.649 92.4321 295.021 92.4335L316.227 88.2222L317.196 93.3654C360.838 96.9661 409.538 112.033 435.842 156.38C468.055 210.689 453.549 299.523 409.408 359.86L413.175 360.146L419.282 403.645L410.618 376.09L400.509 377.301C399.945 380.212 397.128 382.113 394.218 381.549L391.504 381.023C385.353 387.288 378.807 393.029 371.894 398.138C349.902 414.393 321.965 423.503 292.35 426.799C279.371 437.633 256.994 442.593 216.35 430.854C196.796 425.207 182.762 418.51 172.835 411.276C171.496 410.762 170.168 410.238 168.851 409.704L167.484 411.729L179.493 429.466L161.74 417.479L144.003 429.488L155.99 411.736L147.915 399.81C136.921 393.778 127.2 386.934 119.218 379.421C114.73 375.197 110.408 370.241 106.291 364.68L100.599 365.784C97.6884 366.348 94.8714 364.445 94.3073 361.535L89.4055 336.245C70.5582 297.196 59.7237 245.481 63.45 202.33L57.8503 173.44C57.2861 170.529 59.1884 167.712 62.0992 167.148L71.2835 165.368C83.8301 131.735 110.999 111.444 158.211 122.066C194.322 130.191 217.806 118.982 240.608 108.099C257.201 100.179 273.433 92.4314 293.907 92.4314Z" fill="#E599F7"/>
<path fill-rule="evenodd" clip-rule="evenodd" d="M324.987 86.4825L316.227 88.2222L315.377 83.7064L315.414 83.7175L324.987 86.4825Z" fill="#E599F7"/>
<path d="M295.021 92.4335L315.668 80.2548C315.348 80.2982 315.047 80.4287 314.797 80.6282L311.872 65.0988L309.285 64.3514L309.286 64.2962C309.291 64.1003 309.135 63.9377 308.94 63.933C308.788 63.9294 308.656 64.0216 308.602 64.1544L304.377 62.9339L304.379 62.8911C304.39 62.6955 304.241 62.5278 304.045 62.5167C303.889 62.5078 303.752 62.6006 303.696 62.7374L301.922 62.225L301.924 62.206C301.949 62.0116 301.811 61.8343 301.616 61.8099C301.453 61.7895 301.302 61.8833 301.243 62.029L300.263 61.7458L295.021 92.4335Z" fill="#E599F7"/>
<path d="M327.185 85.2705L333.179 87.0016L333.179 87.0015L327.185 85.2705ZM323.256 92.4764C323.782 92.6283 324.314 92.7237 324.842 92.766L325.84 80.3281C326.133 80.3517 326.427 80.4044 326.719 80.4886L323.256 92.4764ZM321.191 83.5393C321.697 81.7885 323.176 80.5993 324.844 80.3592L326.621 92.7098C329.627 92.2771 332.274 90.1355 333.179 87.0016L321.191 83.5393ZM333.179 87.0015C334.409 82.7433 331.948 78.306 327.703 77.08L324.241 89.0679C321.878 88.3856 320.505 85.9151 321.191 83.5394L333.179 87.0015ZM315.753 86.4751C315.388 86.4626 315.023 86.4053 314.668 86.3028L318.13 74.315C317.487 74.1292 316.832 74.0269 316.179 74.0046L315.753 86.4751ZM293.907 92.4314L293.907 79.9536L293.907 79.9536L293.907 92.4314ZM295.021 92.4335L294.975 104.911C295.807 104.914 296.636 104.834 297.452 104.672L295.021 92.4335ZM317.196 93.3654L304.934 95.6749C305.973 101.194 310.572 105.339 316.17 105.801L317.196 93.3654ZM435.842 156.38L425.11 162.746L425.11 162.746L435.842 156.38ZM409.408 359.86L399.338 352.492C396.663 356.148 396.18 360.966 398.075 365.08C399.97 369.194 403.946 371.958 408.462 372.302L409.408 359.86ZM413.175 360.146L425.532 358.411C424.716 352.605 419.968 348.149 414.121 347.704L413.175 360.146ZM419.282 403.645L407.379 407.388C409.326 413.581 415.697 417.247 422.03 415.817C428.363 414.387 432.541 408.34 431.639 401.91L419.282 403.645ZM410.618 376.09L422.521 372.347C420.72 366.619 415.095 362.986 409.133 363.701L410.618 376.09ZM400.509 377.301L399.025 364.912C393.643 365.557 389.293 369.603 388.26 374.924L400.509 377.301ZM394.218 381.549L391.843 393.799L391.844 393.799L394.218 381.549ZM391.504 381.023L393.878 368.773C389.768 367.977 385.533 369.294 382.6 372.281L391.504 381.023ZM371.894 398.138L379.311 408.173L379.311 408.173L371.894 398.138ZM292.35 426.799L290.97 414.398C288.535 414.669 286.234 415.651 284.354 417.22L292.35 426.799ZM216.35 430.854L212.887 442.842L212.887 442.842L216.35 430.854ZM172.835 411.276L180.184 401.192C179.297 400.546 178.329 400.019 177.304 399.626L172.835 411.276ZM168.851 409.704L173.542 398.142C168.078 395.925 161.809 397.835 158.509 402.721L168.851 409.704ZM167.484 411.729L157.142 404.746C154.29 408.97 154.294 414.504 157.151 418.724L167.484 411.729ZM179.493 429.466L172.51 439.807C177.465 443.153 184.097 442.514 188.321 438.283C192.546 434.053 193.177 427.421 189.825 422.47L179.493 429.466ZM161.74 417.479L168.723 407.138C164.499 404.286 158.965 404.289 154.745 407.147L161.74 417.479ZM144.003 429.488L133.662 422.505C130.316 427.46 130.955 434.092 135.186 438.317C139.416 442.542 146.048 443.172 150.999 439.82L144.003 429.488ZM155.99 411.736L166.331 418.718C169.183 414.494 169.18 408.961 166.322 404.74L155.99 411.736ZM147.915 399.81L158.248 392.814C157.138 391.174 155.653 389.822 153.917 388.87L147.915 399.81ZM119.218 379.421L110.666 388.508L110.666 388.508L119.218 379.421ZM106.291 364.68L116.321 357.257C113.461 353.393 108.636 351.516 103.917 352.43L106.291 364.68ZM100.599 365.784L102.973 378.033L102.973 378.033L100.599 365.784ZM94.3073 361.535L82.0574 363.909L82.0574 363.909L94.3073 361.535ZM89.4055 336.245L101.655 333.87C101.451 332.814 101.11 331.789 100.643 330.821L89.4055 336.245ZM63.45 202.33L75.8815 203.404C75.981 202.252 75.9199 201.091 75.6998 199.956L63.45 202.33ZM57.8503 173.44L45.6005 175.814L45.6005 175.814L57.8503 173.44ZM62.0992 167.148L59.7249 154.898L59.7249 154.898L62.0992 167.148ZM71.2835 165.368L73.6578 177.617C77.9254 176.79 81.455 173.802 82.9744 169.729L71.2835 165.368ZM158.211 122.066L155.472 134.24L155.472 134.24L158.211 122.066ZM240.608 108.099L235.233 96.838L235.233 96.838L240.608 108.099ZM324.987 86.4825L327.418 98.7213C333.063 97.6003 337.209 92.7636 337.454 87.0134C337.699 81.2633 333.979 76.0916 328.45 74.4947L324.987 86.4825ZM315.377 83.7064L318.967 71.7562C314.795 70.5028 310.271 71.5162 307.032 74.4296C303.793 77.3431 302.308 81.7348 303.115 86.0159L315.377 83.7064ZM315.414 83.7175L311.824 95.6678C311.866 95.6805 311.909 95.693 311.951 95.7054L315.414 83.7175ZM315.668 80.2548L322.008 91.0023C327.124 87.9843 329.404 81.7776 327.457 76.1654C325.51 70.5532 319.877 67.0915 313.99 67.8903L315.668 80.2548ZM314.797 80.6282L302.535 82.9377C303.345 87.2408 306.352 90.8043 310.457 92.3271C314.563 93.85 319.166 93.1094 322.587 90.3758L314.797 80.6282ZM311.872 65.0988L324.135 62.7894C323.263 58.161 319.859 54.4178 315.335 53.111L311.872 65.0988ZM309.285 64.3514L296.81 64.0559C296.676 69.7219 300.377 74.7667 305.822 76.3393L309.285 64.3514ZM309.286 64.2962L296.812 63.9991L296.812 64.0006L309.286 64.2962ZM308.94 63.933L308.642 76.4073L308.642 76.4073L308.94 63.933ZM308.602 64.1544L305.14 76.1423C311.278 77.915 317.764 74.765 320.165 68.8445L308.602 64.1544ZM304.377 62.9339L291.919 62.2215C291.587 68.0353 295.32 73.306 300.914 74.9218L304.377 62.9339ZM304.379 62.8911L316.836 63.6035L316.837 63.6019L304.379 62.8911ZM304.045 62.5167L304.755 50.0591L304.755 50.0591L304.045 62.5167ZM303.696 62.7374L300.234 74.7253C306.371 76.4977 312.855 73.3493 315.258 67.4307L303.696 62.7374ZM301.922 62.225L289.541 60.6755C288.778 66.7677 292.561 72.5093 298.46 74.2129L301.922 62.225ZM301.924 62.206L289.543 60.6556L289.543 60.6565L301.924 62.206ZM301.616 61.8099L303.167 49.4288L303.167 49.4287L301.616 61.8099ZM301.243 62.029L297.781 74.0169C303.929 75.7924 310.423 72.6298 312.816 66.6951L301.243 62.029ZM300.263 61.7458L303.725 49.758C300.312 48.7724 296.642 49.2879 293.632 51.1755C290.623 53.063 288.561 56.1435 287.963 59.6449L300.263 61.7458ZM293.907 104.909C294.263 104.909 294.619 104.91 294.975 104.911L295.067 79.9557C294.679 79.9543 294.293 79.9536 293.907 79.9536V104.909ZM297.452 104.672L318.658 100.461L313.797 75.9833L292.591 80.1946L297.452 104.672ZM303.965 90.5316L304.934 95.6749L329.458 91.056L328.49 85.9127L303.965 90.5316ZM316.17 105.801C358.331 109.28 401.895 123.606 425.11 162.746L446.574 150.015C417.182 100.46 363.345 84.6527 318.222 80.9299L316.17 105.801ZM425.11 162.746C439.336 186.729 443.763 219.411 438.901 254.129C434.057 288.714 420.144 324.053 399.338 352.492L419.479 367.227C442.814 335.33 458.224 296.084 463.615 257.59C468.988 219.23 464.562 180.341 446.574 150.015L425.11 162.746ZM408.462 372.302L412.229 372.588L414.121 347.704L410.354 347.418L408.462 372.302ZM400.818 361.881L406.925 405.38L431.639 401.91L425.532 358.411L400.818 361.881ZM431.185 399.903L422.521 372.347L398.715 379.833L407.379 407.388L431.185 399.903ZM409.133 363.701L399.025 364.912L401.994 389.691L412.103 388.479L409.133 363.701ZM388.26 374.924C389.008 371.071 392.738 368.552 396.592 369.299L391.844 393.799C401.518 395.674 410.881 389.352 412.759 379.679L388.26 374.924ZM396.592 369.299L393.878 368.773L389.13 393.273L391.843 393.799L396.592 369.299ZM382.6 372.281C376.879 378.108 370.826 383.411 364.477 388.104L379.311 408.173C386.787 402.647 393.827 396.467 400.407 389.765L382.6 372.281ZM364.477 388.104C344.716 402.71 319.051 411.273 290.97 414.398L293.73 439.201C324.878 435.734 355.089 426.076 379.311 408.173L364.477 388.104ZM284.354 417.22C276.046 424.155 258.794 430.125 219.812 418.866L212.887 442.842C255.195 455.061 282.696 451.111 300.346 436.379L284.354 417.22ZM219.812 418.866C201.18 413.485 188.594 407.321 180.184 401.192L165.486 421.36C176.93 429.7 192.412 436.928 212.887 442.842L219.812 418.866ZM177.304 399.626C176.038 399.141 174.784 398.646 173.542 398.142L164.159 421.267C165.551 421.831 166.953 422.384 168.366 422.926L177.304 399.626ZM158.509 402.721L157.142 404.746L177.825 418.711L179.192 416.687L158.509 402.721ZM157.151 418.724L169.16 436.461L189.825 422.47L177.816 404.733L157.151 418.724ZM186.475 419.125L168.723 407.138L154.758 427.82L172.51 439.807L186.475 419.125ZM154.745 407.147L137.008 419.156L150.999 439.82L168.736 427.811L154.745 407.147ZM154.344 436.471L166.331 418.718L145.649 404.753L133.662 422.505L154.344 436.471ZM166.322 404.74L158.248 392.814L137.583 406.805L145.658 418.731L166.322 404.74ZM153.917 388.87C143.666 383.246 134.846 376.995 127.77 370.335L110.666 388.508C119.554 396.873 130.176 404.31 141.914 410.749L153.917 388.87ZM127.77 370.335C123.907 366.7 120.07 362.322 116.321 357.257L96.2622 372.104C100.746 378.161 105.552 383.695 110.666 388.508L127.77 370.335ZM103.917 352.43L98.2249 353.534L102.973 378.033L108.666 376.93L103.917 352.43ZM98.225 353.534C102.08 352.787 105.81 355.306 106.557 359.16L82.0574 363.909C83.9329 373.585 93.2973 379.909 102.973 378.033L98.225 353.534ZM106.557 359.16L101.655 333.87L77.1556 338.619L82.0574 363.909L106.557 359.16ZM100.643 330.821C82.6633 293.57 72.3683 244.088 75.8815 203.404L51.0184 201.257C47.0792 246.874 58.453 300.822 78.1682 341.668L100.643 330.821ZM75.6998 199.956L70.1002 171.065L45.6005 175.814L51.2001 204.705L75.6998 199.956ZM70.1002 171.065C70.8473 174.92 68.3281 178.65 64.4735 179.398L59.7249 154.898C50.0487 156.773 43.725 166.138 45.6005 175.814L70.1002 171.065ZM64.4735 179.398L73.6578 177.617L68.9092 153.118L59.7249 154.898L64.4735 179.398ZM82.9744 169.729C88.5193 154.865 96.8269 144.149 107.823 138.021C118.754 131.928 134.045 129.419 155.472 134.24L160.95 109.893C135.164 104.091 113.266 106.416 95.673 116.222C78.1446 125.992 66.5943 142.238 59.5927 161.006L82.9744 169.729ZM155.472 134.24C196.029 143.365 222.918 130.369 245.983 119.36L235.233 96.838C212.694 107.596 192.615 117.018 160.95 109.893L155.472 134.24ZM245.983 119.36C262.822 111.322 276.64 104.909 293.907 104.909L293.907 79.9536C270.226 79.9536 251.58 89.0356 235.233 96.838L245.983 119.36ZM322.557 74.2437L313.797 75.9833L318.658 100.461L327.418 98.7213L322.557 74.2437ZM328.49 85.9127L327.639 81.397L303.115 86.0159L303.965 90.5316L328.49 85.9127ZM311.787 95.6567L311.824 95.6678L319.004 71.7672L318.967 71.7562L311.787 95.6567ZM311.951 95.7054L321.525 98.4704L328.45 74.4947L318.876 71.7296L311.951 95.7054ZM301.361 103.181L322.008 91.0023L309.329 69.5073L288.682 81.686L301.361 103.181ZM313.99 67.8903C311.409 68.2405 309.001 69.2875 307.007 70.8807L322.587 90.3758C321.093 91.5699 319.287 92.3559 317.346 92.6193L313.99 67.8903ZM327.059 78.3188L324.135 62.7894L299.61 67.4083L302.535 82.9377L327.059 78.3188ZM315.335 53.111L312.747 52.3636L305.822 76.3393L308.41 77.0867L315.335 53.111ZM321.759 64.647L321.76 64.5917L296.812 64.0006L296.81 64.0559L321.759 64.647ZM321.76 64.5932C321.929 57.5086 316.323 51.6277 309.237 51.4588L308.642 76.4073C301.948 76.2477 296.652 70.692 296.812 63.9991L321.76 64.5932ZM309.237 51.4588C303.729 51.3274 298.979 54.6814 297.039 59.4643L320.165 68.8445C318.333 73.3618 313.846 76.5314 308.642 76.4073L309.237 51.4588ZM312.065 52.1665L307.839 50.9461L300.914 74.9218L305.14 76.1423L312.065 52.1665ZM316.834 63.6464L316.836 63.6035L291.922 62.1787L291.919 62.2215L316.834 63.6464ZM316.837 63.6019C317.24 56.5249 311.83 50.4623 304.755 50.0591L303.335 74.9743C296.651 74.5934 291.54 68.866 291.921 62.1803L316.837 63.6019ZM304.755 50.0591C299.107 49.7372 294.137 53.112 292.134 58.0441L315.258 67.4307C313.366 72.0892 308.671 75.2784 303.335 74.9743L304.755 50.0591ZM307.158 50.7495L305.384 50.2372L298.46 74.2129L300.234 74.7253L307.158 50.7495ZM314.303 63.7746L314.306 63.7556L289.543 60.6565L289.541 60.6755L314.303 63.7746ZM314.306 63.7564C315.186 56.7234 310.198 50.3092 303.167 49.4288L300.066 74.1911C293.423 73.3593 288.711 67.2998 289.543 60.6556L314.306 63.7564ZM303.167 49.4287C297.246 48.6875 291.794 52.0971 289.671 57.363L312.816 66.6951C310.81 71.6696 305.66 74.8914 300.066 74.1911L303.167 49.4287ZM304.706 50.0412L303.725 49.758L296.801 73.7337L297.781 74.0169L304.706 50.0412ZM287.963 59.6449L282.721 90.3326L307.321 94.5344L312.563 63.8468L287.963 59.6449Z" fill="white" mask="url(#path-1-outside-1_39_1729)"/>
<path d="M158.21 122.067C220.599 136.104 245.297 92.4319 293.907 92.4319C342.259 92.4319 404.723 103.916 435.842 156.381C475.944 223.991 443.642 345.108 371.894 398.139C302.056 449.758 172.248 429.333 119.217 379.422C52.4119 316.546 22.4675 91.5244 158.21 122.067Z" fill="#FFE066"/>
<path fill-rule="evenodd" clip-rule="evenodd" d="M237.653 102.586C254.241 94.6451 271.899 86.1929 293.907 86.1929C342.671 86.1929 408.283 97.6868 441.208 153.198C462.407 188.937 464.129 238.004 451.842 284.326C439.532 330.738 412.855 375.621 375.602 403.156C338.979 430.225 287.299 438.042 238.618 433.061C189.961 428.081 142.776 410.163 114.942 383.965C97.2109 367.277 82.3857 340.366 72.1349 310.409C61.848 280.346 55.9399 246.555 56.5206 215.595C57.0981 184.807 64.1205 155.863 80.7193 136.492C97.7569 116.608 123.873 107.946 159.58 115.98C188.884 122.573 209.174 115.732 228.632 106.839C231.617 105.475 234.617 104.039 237.653 102.586ZM240.608 108.099C217.806 118.983 194.322 130.192 158.211 122.067C22.4677 91.5243 52.4121 316.546 119.218 379.422C172.248 429.333 302.056 449.757 371.894 398.139C443.642 345.108 475.944 223.991 435.842 156.381C404.723 103.916 342.259 92.4318 293.907 92.4318C273.433 92.4318 257.201 100.179 240.608 108.099Z" fill="black"/>
<path d="M233.271 170.93C228.191 168.39 223.747 169.871 222.16 170.93L225.334 164.581C226.922 164.051 231.366 163.628 236.446 166.168C241.525 168.708 242.795 172.517 242.795 174.104L234.858 178.866C236.446 177.279 238.35 173.469 233.271 170.93Z" fill="white"/>
<path d="M57.8504 173.44C57.2862 170.53 59.1885 167.713 62.0992 167.148L148.679 150.367C151.59 149.803 154.407 151.705 154.971 154.616L191.428 342.711C191.992 345.622 190.09 348.439 187.179 349.003L100.599 365.784C97.6885 366.348 94.8715 364.446 94.3073 361.535L57.8504 173.44Z" fill="#A0DEDE"/>
<path fill-rule="evenodd" clip-rule="evenodd" d="M60.9129 161.023L147.493 144.242C153.786 143.022 159.877 147.135 161.097 153.429L197.553 341.524C198.773 347.817 194.66 353.908 188.367 355.128L101.787 371.909C95.4937 373.129 89.403 369.016 88.1832 362.722L51.7262 174.627C50.5064 168.334 54.6194 162.243 60.9129 161.023ZM62.1 167.148C59.1893 167.712 57.287 170.529 57.8512 173.44L94.3081 361.535C94.8723 364.446 97.6893 366.348 100.6 365.784L187.18 349.003C190.09 348.439 191.993 345.622 191.429 342.711L154.972 154.616C154.407 151.705 151.59 149.803 148.68 150.367L62.1 167.148Z" fill="black"/>
<path d="M167.373 298.58C170.972 317.147 158.837 335.116 140.27 338.715C121.703 342.314 103.734 330.179 100.136 311.612C96.537 293.045 108.671 275.076 127.238 271.478C145.805 267.879 163.774 280.013 167.373 298.58Z" fill="#BBC2FF"/>
<path fill-rule="evenodd" clip-rule="evenodd" d="M173.499 297.393C177.753 319.343 163.408 340.585 141.458 344.84C119.508 349.094 98.2659 334.749 94.0115 312.799C89.7572 290.849 104.102 269.607 126.052 265.352C148.002 261.098 169.244 275.443 173.499 297.393ZM140.271 338.715C158.838 335.116 170.972 317.147 167.374 298.58C163.775 280.013 145.806 267.879 127.239 271.477C108.672 275.076 96.5377 293.045 100.136 311.612C103.735 330.179 121.704 342.313 140.271 338.715Z" fill="black"/>
<path d="M148.695 302.201C150.294 310.453 144.901 318.44 136.649 320.039C128.397 321.638 120.411 316.245 118.812 307.993C117.212 299.741 122.605 291.755 130.857 290.156C139.109 288.556 147.096 293.949 148.695 302.201Z" fill="#526DD0"/>
<path d="M144.699 221.588C147.498 236.029 138.06 250.005 123.619 252.804C109.178 255.603 95.202 246.165 92.403 231.724C89.604 217.283 99.0417 203.307 113.483 200.508C127.924 197.709 141.9 207.147 144.699 221.588Z" fill="#BBC2FF"/>
<path fill-rule="evenodd" clip-rule="evenodd" d="M150.825 220.4C154.279 238.224 142.631 255.473 124.807 258.928C106.983 262.383 89.7337 250.734 86.2791 232.91C82.8245 215.087 94.4729 197.837 112.297 194.383C130.12 190.928 147.37 202.576 150.825 220.4ZM123.62 252.803C138.061 250.004 147.499 236.028 144.7 221.587C141.901 207.146 127.925 197.708 113.484 200.507C99.0428 203.306 89.605 217.282 92.404 231.723C95.203 246.164 109.179 255.602 123.62 252.803Z" fill="black"/>
<path d="M129.756 224.483C130.955 230.672 126.91 236.662 120.721 237.861C114.532 239.061 108.543 235.016 107.343 228.827C106.144 222.638 110.188 216.649 116.377 215.449C122.566 214.25 128.556 218.294 129.756 224.483Z" fill="#526DD0"/>
<path d="M74.6641 179.103C74.382 177.648 75.3331 176.239 76.7885 175.957L138.755 163.947C140.211 163.665 141.619 164.616 141.901 166.071L143.153 172.527C143.435 173.982 142.483 175.391 141.028 175.673L79.0613 187.683C77.6059 187.965 76.1974 187.014 75.9153 185.559L74.6641 179.103Z" fill="#E7F5FF"/>
<path fill-rule="evenodd" clip-rule="evenodd" d="M75.6024 169.832L137.569 157.822C142.407 156.884 147.09 160.046 148.027 164.884L149.279 171.339C150.216 176.178 147.054 180.86 142.216 181.797L80.2495 193.808C75.4114 194.746 70.7292 191.584 69.7914 186.746L68.5402 180.29C67.6025 175.452 70.7643 170.77 75.6024 169.832ZM76.7895 175.957C75.3342 176.239 74.383 177.648 74.6651 179.103L75.9164 185.559C76.1984 187.014 77.6069 187.965 79.0623 187.683L141.029 175.673C142.485 175.39 143.436 173.982 143.154 172.527L141.902 166.071C141.62 164.616 140.212 163.664 138.756 163.947L76.7895 175.957Z" fill="black"/>
<path d="M436.969 189.205C437.533 186.294 435.631 183.477 432.72 182.913L346.141 166.132C343.23 165.568 340.413 167.47 339.849 170.381L303.392 358.476C302.828 361.387 304.73 364.204 307.641 364.768L394.22 381.549C397.131 382.113 399.948 380.211 400.512 377.3L436.969 189.205Z" fill="#A0DEDE"/>
<path fill-rule="evenodd" clip-rule="evenodd" d="M433.906 176.788L347.327 160.007C341.033 158.787 334.943 162.9 333.723 169.194L297.266 357.289C296.046 363.582 300.159 369.673 306.452 370.893L393.032 387.674C399.326 388.893 405.416 384.78 406.636 378.487L443.093 190.392C444.313 184.098 440.2 178.008 433.906 176.788ZM432.719 182.913C435.63 183.477 437.532 186.294 436.968 189.205L400.511 377.3C399.947 380.211 397.13 382.113 394.219 381.549L307.64 364.768C304.729 364.203 302.827 361.386 303.391 358.476L339.848 170.381C340.412 167.47 343.229 165.568 346.14 166.132L432.719 182.913Z" fill="black"/>
<path d="M327.446 314.345C323.848 332.912 335.982 350.881 354.549 354.48C373.116 358.078 391.085 345.944 394.684 327.377C398.282 308.81 386.148 290.841 367.581 287.243C349.014 283.644 331.045 295.778 327.446 314.345Z" fill="#BBC2FF"/>
<path fill-rule="evenodd" clip-rule="evenodd" d="M321.32 313.158C317.066 335.107 331.411 356.35 353.361 360.604C375.311 364.859 396.553 350.514 400.808 328.564C405.062 306.614 390.717 285.371 368.767 281.117C346.817 276.863 325.575 291.208 321.32 313.158ZM354.548 354.479C335.981 350.881 323.847 332.912 327.445 314.345C331.044 295.778 349.013 283.643 367.58 287.242C386.147 290.841 398.281 308.81 394.683 327.377C391.084 345.944 373.115 358.078 354.548 354.479Z" fill="black"/>
<path d="M346.125 317.966C344.525 326.218 349.918 334.204 358.17 335.804C366.422 337.403 374.408 332.01 376.008 323.758C377.607 315.506 372.214 307.52 363.962 305.92C355.71 304.321 347.724 309.714 346.125 317.966Z" fill="#526DD0"/>
<path d="M350.12 237.352C347.321 251.793 356.759 265.769 371.2 268.568C385.641 271.367 399.617 261.929 402.416 247.488C405.215 233.047 395.777 219.072 381.336 216.273C366.895 213.474 352.919 222.911 350.12 237.352Z" fill="#BBC2FF"/>
<path fill-rule="evenodd" clip-rule="evenodd" d="M343.995 236.165C340.54 253.989 352.189 271.238 370.012 274.693C387.836 278.148 405.086 266.499 408.54 248.675C411.995 230.852 400.346 213.602 382.523 210.147C364.699 206.693 347.449 218.341 343.995 236.165ZM371.199 268.568C356.758 265.769 347.321 251.793 350.12 237.352C352.919 222.911 366.895 213.473 381.336 216.272C395.777 219.071 405.214 233.047 402.415 247.488C399.616 261.929 385.641 271.367 371.199 268.568Z" fill="black"/>
<path d="M365.064 240.248C363.864 246.437 367.909 252.427 374.098 253.626C380.287 254.826 386.276 250.781 387.476 244.592C388.676 238.403 384.631 232.414 378.442 231.214C372.253 230.014 366.263 234.059 365.064 240.248Z" fill="#526DD0"/>
<path d="M420.155 194.868C420.437 193.412 419.486 192.004 418.03 191.722L356.063 179.711C354.608 179.429 353.2 180.38 352.918 181.836L351.666 188.291C351.384 189.747 352.335 191.155 353.791 191.437L415.758 203.448C417.213 203.73 418.621 202.779 418.904 201.324L420.155 194.868Z" fill="#E7F5FF"/>
<path fill-rule="evenodd" clip-rule="evenodd" d="M419.217 185.597L357.25 173.586C352.412 172.649 347.73 175.811 346.792 180.649L345.541 187.104C344.603 191.942 347.765 196.625 352.603 197.562L414.57 209.573C419.408 210.511 424.09 207.349 425.028 202.511L426.279 196.055C427.217 191.217 424.055 186.535 419.217 185.597ZM418.03 191.722C419.485 192.004 420.436 193.413 420.154 194.868L418.903 201.324C418.621 202.779 417.212 203.73 415.757 203.448L353.79 191.437C352.335 191.155 351.384 189.747 351.666 188.292L352.917 181.836C353.199 180.38 354.608 179.429 356.063 179.711L418.03 191.722Z" fill="black"/>
<mask id="path-26-outside-2_39_1729" maskUnits="userSpaceOnUse" x="298.691" y="71.275" width="50.0832" height="51.4497" fill="black">
<rect fill="white" x="298.691" y="71.275" width="50.0832" height="51.4497"/>
<path fill-rule="evenodd" clip-rule="evenodd" d="M314.201 81.5211C314.472 80.5798 315.456 80.0372 316.397 80.309L325.971 83.0741C326.912 83.3459 327.455 84.3293 327.183 85.2706C326.911 86.2118 325.928 86.7545 324.986 86.4826L315.413 83.7176C314.471 83.4458 313.929 82.4624 314.201 81.5211ZM317.646 95.6895C317.918 94.7483 318.902 94.2056 319.843 94.4775L329.417 97.2425C330.358 97.5143 330.9 98.4978 330.629 99.439C330.357 100.38 329.373 100.923 328.432 100.651L318.858 97.8861C317.917 97.6142 317.374 96.6308 317.646 95.6895ZM321.945 107.735C321.004 107.463 320.02 108.006 319.748 108.947C319.476 109.889 320.019 110.872 320.96 111.144L330.534 113.909C331.475 114.181 332.459 113.638 332.731 112.697C333.002 111.756 332.46 110.772 331.519 110.5L321.945 107.735Z"/>
</mask>
<path fill-rule="evenodd" clip-rule="evenodd" d="M314.201 81.5211C314.472 80.5798 315.456 80.0372 316.397 80.309L325.971 83.0741C326.912 83.3459 327.455 84.3293 327.183 85.2706C326.911 86.2118 325.928 86.7545 324.986 86.4826L315.413 83.7176C314.471 83.4458 313.929 82.4624 314.201 81.5211ZM317.646 95.6895C317.918 94.7483 318.902 94.2056 319.843 94.4775L329.417 97.2425C330.358 97.5143 330.9 98.4978 330.629 99.439C330.357 100.38 329.373 100.923 328.432 100.651L318.858 97.8861C317.917 97.6142 317.374 96.6308 317.646 95.6895ZM321.945 107.735C321.004 107.463 320.02 108.006 319.748 108.947C319.476 109.889 320.019 110.872 320.96 111.144L330.534 113.909C331.475 114.181 332.459 113.638 332.731 112.697C333.002 111.756 332.46 110.772 331.519 110.5L321.945 107.735Z" fill="#E2E1FF"/>
<path d="M324.986 86.4826L323.255 92.4766L324.986 86.4826ZM315.413 83.7176L317.144 77.7237L315.413 83.7176ZM314.666 86.303C317.035 86.9872 319.51 85.6213 320.195 83.2522L308.207 79.79C309.435 75.5384 313.877 73.0872 318.128 74.3151L314.666 86.303ZM324.24 89.068L314.666 86.303L318.128 74.3151L327.702 77.0801L324.24 89.068ZM321.189 83.5394C320.505 85.9085 321.871 88.3838 324.24 89.068L327.702 77.0801C331.954 78.308 334.405 82.7501 333.177 87.0017L321.189 83.5394ZM326.718 80.4887C324.348 79.8045 321.873 81.1703 321.189 83.5394L333.177 87.0017C331.949 91.2533 327.507 93.7045 323.255 92.4766L326.718 80.4887ZM317.144 77.7237L326.718 80.4887L323.255 92.4766L313.682 89.7115L317.144 77.7237ZM320.195 83.2522C320.879 80.8831 319.513 78.4079 317.144 77.7237L313.682 89.7115C309.43 88.4836 306.979 84.0416 308.207 79.79L320.195 83.2522ZM318.112 100.471C320.481 101.156 322.956 99.7898 323.64 97.4207L311.652 93.9584C312.88 89.7068 317.322 87.2556 321.574 88.4835L318.112 100.471ZM327.685 103.236L318.112 100.471L321.574 88.4835L331.148 91.2486L327.685 103.236ZM324.635 97.7079C323.95 100.077 325.316 102.552 327.685 103.236L331.148 91.2486C335.399 92.4765 337.85 96.9185 336.623 101.17L324.635 97.7079ZM330.163 94.6572C327.794 93.9729 325.319 95.3388 324.635 97.7079L336.623 101.17C335.395 105.422 330.953 107.873 326.701 106.645L330.163 94.6572ZM320.589 91.8921L330.163 94.6572L326.701 106.645L317.127 103.88L320.589 91.8921ZM323.64 97.4207C324.324 95.0516 322.959 92.5764 320.589 91.8921L317.127 103.88C312.876 102.652 310.424 98.21 311.652 93.9584L323.64 97.4207ZM313.754 107.216C314.982 102.965 319.424 100.513 323.676 101.741L320.214 113.729C322.583 114.413 325.058 113.048 325.742 110.678L313.754 107.216ZM319.229 117.138C314.978 115.91 312.526 111.468 313.754 107.216L325.742 110.678C326.426 108.309 325.061 105.834 322.691 105.15L319.229 117.138ZM328.803 119.903L319.229 117.138L322.691 105.15L332.265 107.915L328.803 119.903ZM338.725 114.428C337.497 118.68 333.055 121.131 328.803 119.903L332.265 107.915C329.896 107.231 327.421 108.597 326.737 110.966L338.725 114.428ZM333.25 104.506C337.501 105.734 339.952 110.176 338.725 114.428L326.737 110.966C326.052 113.335 327.418 115.81 329.787 116.494L333.25 104.506ZM323.676 101.741L333.25 104.506L329.787 116.494L320.214 113.729L323.676 101.741Z" fill="black" mask="url(#path-26-outside-2_39_1729)"/>
<path fill-rule="evenodd" clip-rule="evenodd" d="M318.361 312.16C310.962 317.773 304.465 322.702 301.331 333.555C299.457 340.042 302.071 347.291 305.093 355.674C309.235 367.163 314.144 380.781 309.32 397.483C302.486 421.146 287.074 451.28 216.35 430.854L216.35 430.854C145.625 410.428 147.112 376.273 153.946 352.61C158.77 335.908 170.184 327.004 179.814 319.493C186.84 314.012 192.916 309.272 194.789 302.786C198.934 288.432 198.147 284.942 195.476 273.097C195.148 271.642 194.791 270.061 194.412 268.318C189.673 246.544 199.744 214.595 206.183 227.563C225.528 266.526 238.692 269.786 261.621 274.106L261.689 273.87C285.141 280.643 304.796 279.567 340.11 258.949C343.009 257.256 346.871 257.809 347.586 261.089C349.824 271.355 342.5 289.508 329.48 302.758C325.749 306.556 321.949 309.438 318.361 312.16Z" fill="#748FFC"/>
<path fill-rule="evenodd" clip-rule="evenodd" d="M301.331 327.316C304.465 316.463 310.962 311.534 318.361 305.921L318.361 305.921C321.949 303.199 325.749 300.316 329.48 296.519C339.799 286.018 346.539 272.438 347.779 262.144C349.328 272.563 342.065 289.951 329.48 302.758C325.749 306.555 321.949 309.438 318.361 312.16C310.962 317.773 304.465 322.702 301.331 333.555C301.168 334.117 301.04 334.685 300.942 335.259C300.552 332.482 300.601 329.841 301.331 327.316ZM311.222 380.363C311.546 385.689 311.083 391.38 309.32 397.482C302.486 421.146 287.074 451.28 216.35 430.854L216.35 430.854C160.539 414.735 149.696 390.067 150.963 368.751C152.2 388.498 165.912 410.048 216.35 424.615L216.35 424.615C287.074 445.041 302.486 414.907 309.32 391.244C310.412 387.462 311.006 383.839 311.222 380.363ZM197.532 283.974C197.225 280.85 196.485 277.569 195.476 273.097L195.475 273.093C195.147 271.639 194.791 270.059 194.412 268.318C193.347 263.424 193.03 258.015 193.252 252.718C193.393 255.935 193.764 259.102 194.412 262.079C194.791 263.82 195.147 265.4 195.475 266.854L195.476 266.858C197.146 274.264 198.08 278.404 197.532 283.974Z" fill="#3B5BDB"/>
<path fill-rule="evenodd" clip-rule="evenodd" d="M305.094 355.674L310.963 353.558C309.415 349.266 308.166 345.769 307.474 342.581C306.795 339.456 306.784 337.163 307.326 335.287C309.837 326.591 314.742 322.738 322.132 317.131L322.24 317.05C325.778 314.366 329.881 311.253 333.931 307.131C340.998 299.94 346.518 291.431 349.997 283.246C353.39 275.265 355.202 266.729 353.683 259.761C352.752 255.49 349.561 252.904 346.11 252.085C342.933 251.33 339.612 252.016 336.965 253.562C319.66 263.666 306.665 268.695 295.448 270.524C284.358 272.333 274.549 271.091 263.421 267.877C262.645 267.653 261.861 267.586 261.104 267.658C250.469 265.621 243.168 263.818 236.224 258.777C228.864 253.434 221.285 243.95 211.772 224.789C210.735 222.702 208.938 220.003 205.791 218.844C202.055 217.468 198.823 219.025 196.917 220.648C195.119 222.179 193.796 224.261 192.814 226.2C191.783 228.235 190.888 230.599 190.131 233.118C187.163 242.997 185.677 257.519 188.317 269.646C188.701 271.413 189.062 273.014 189.39 274.466L189.391 274.471C190.765 280.564 191.441 283.691 191.451 287.02C191.461 290.265 190.821 294.042 188.796 301.055C188.254 302.931 187.022 304.865 184.782 307.147C182.497 309.475 179.575 311.767 175.977 314.574L175.686 314.801C166.131 322.253 153.34 332.229 147.953 350.879C144.383 363.241 141.786 379.695 150.579 395.919C159.339 412.082 178.527 426.425 214.62 436.849C214.648 436.857 214.676 436.865 214.704 436.873C250.731 447.264 274.27 445.272 289.949 436.085C305.658 426.881 311.794 411.406 315.315 399.215C320.702 380.564 315.198 365.304 311.088 353.906L310.963 353.558L305.094 355.674ZM216.351 430.854C287.075 451.281 302.487 421.147 309.321 397.483C314.145 380.781 309.235 367.163 305.094 355.674C302.072 347.292 299.458 340.043 301.332 333.556C304.466 322.703 310.963 317.774 318.361 312.161C321.949 309.439 325.75 306.556 329.481 302.758C342.501 289.509 349.824 271.356 347.587 261.09C346.872 257.809 343.01 257.257 340.111 258.95C304.797 279.568 285.142 280.644 261.69 273.871L261.621 274.106C238.693 269.786 225.529 266.526 206.184 227.564C199.745 214.595 189.673 246.544 194.413 268.319C194.792 270.062 195.149 271.643 195.477 273.098C198.148 284.943 198.935 288.433 194.79 302.786C192.916 309.273 186.84 314.013 179.815 319.493C170.185 327.005 158.771 335.908 153.947 352.61C147.113 376.274 145.626 410.429 216.351 430.855" fill="black"/>
<path d="M252.313 301.724C272.808 308.972 278.15 301.213 288.451 296.216C296.355 291.855 302.71 289.173 306.33 298.722C310.855 310.659 290.142 317.964 284.475 337.587C276.634 364.736 309.224 389.913 264.475 402.234C242.925 408.168 229.763 390.941 228.116 362.501C226.344 331.886 240.927 297.697 252.313 301.724Z" fill="#E2E1FF"/>
<path d="M313.007 136.1C314.094 132.335 311.923 128.401 308.158 127.314L298.308 124.469C294.543 123.382 290.61 125.553 289.522 129.318L237.283 310.192L260.768 316.974L313.007 136.1Z" fill="#1864AB"/>
<path fill-rule="evenodd" clip-rule="evenodd" d="M231.146 308.421C230.168 311.809 232.121 315.35 235.51 316.328L258.994 323.111C262.383 324.09 265.923 322.136 266.902 318.747L319.14 137.873C321.206 130.72 317.082 123.246 309.929 121.18L300.079 118.335C292.925 116.269 285.451 120.393 283.385 127.547L231.146 308.421ZM308.157 127.315C311.922 128.403 314.092 132.336 313.005 136.101L260.766 316.975L237.282 310.193L289.521 129.319C290.608 125.554 294.542 123.383 298.307 124.47L308.157 127.315Z" fill="black"/>
<path d="M253.108 343.502L229.623 336.72L234.485 319.888L257.969 326.671L253.108 343.502Z" fill="#8F4C0E"/>
<path d="M253.105 343.502L229.62 336.719L234.482 319.887L257.966 326.67L253.105 343.502Z" fill="#1864AB"/>
<path fill-rule="evenodd" clip-rule="evenodd" d="M259.101 345.234C258.145 348.544 254.686 350.452 251.376 349.496L227.891 342.714C224.581 341.758 222.672 338.299 223.629 334.989L228.49 318.157C229.446 314.847 232.905 312.938 236.215 313.894L259.699 320.677C263.01 321.633 264.918 325.091 263.962 328.402L259.101 345.234ZM253.107 343.502L257.968 326.671L234.484 319.888L229.622 336.72L253.107 343.502Z" fill="black"/>
<path d="M312.197 141.429L324.029 129.647L311.873 65.0993L300.263 61.7463L287.854 134.398L312.197 141.429Z" fill="#1864AB"/>
<path fill-rule="evenodd" clip-rule="evenodd" d="M328.533 134.17C330.032 132.678 330.694 130.541 330.303 128.463L318.146 63.9153C317.7 61.5465 315.958 59.6307 313.643 58.9618L302.033 55.6088C300.286 55.1044 298.408 55.3683 296.868 56.3343C295.327 57.3004 294.272 58.877 293.966 60.669L281.556 133.321C281.009 136.525 282.956 139.629 286.079 140.531L310.423 147.562C312.653 148.206 315.056 147.59 316.701 145.952L328.533 134.17ZM300.261 61.7443L287.851 134.396L312.195 141.427L324.027 129.645L311.87 65.0973L300.261 61.7443Z" fill="black"/>
<path d="M308.932 64.2864L307.139 139.506L239.675 368.496" stroke="#E2E1FF" stroke-width="0.709581" stroke-linecap="round" stroke-linejoin="round"/>
<path d="M304.024 62.8699L299.778 137.381L233.895 365.499" stroke="#E2E1FF" stroke-width="0.709581" stroke-linecap="round" stroke-linejoin="round"/>
<path d="M301.572 62.1599L292.42 135.255L227.409 364.952" stroke="#E2E1FF" stroke-width="0.709581" stroke-linecap="round" stroke-linejoin="round"/>
<path fill-rule="evenodd" clip-rule="evenodd" d="M314.201 81.5209C314.472 80.5796 315.456 80.0369 316.397 80.3088L325.971 83.0738C326.912 83.3457 327.455 84.3291 327.183 85.2703C326.911 86.2116 325.928 86.7542 324.986 86.4824L315.413 83.7174C314.471 83.4455 313.929 82.4621 314.201 81.5209ZM317.646 95.6893C317.918 94.748 318.902 94.2054 319.843 94.4772L329.417 97.2423C330.358 97.5141 330.9 98.4975 330.629 99.4388C330.357 100.38 329.373 100.923 328.432 100.651L318.858 97.8858C317.917 97.614 317.374 96.6306 317.646 95.6893ZM321.945 107.735C321.004 107.463 320.02 108.006 319.748 108.947C319.476 109.888 320.019 110.872 320.96 111.144L330.534 113.909C331.475 114.18 332.459 113.638 332.731 112.697C333.002 111.755 332.46 110.772 331.519 110.5L321.945 107.735Z" fill="#E2E1FF"/>
<rect x="3.86253" y="-2.1314" width="58.6695" height="20.3089" rx="6.66736" transform="matrix(-0.960733 -0.277473 -0.277473 0.960733 266.124 374.207)" fill="#1864AB" stroke="black" stroke-width="6.23891" stroke-linecap="round" stroke-linejoin="round"/>
<circle cx="195.575" cy="337.158" r="5.41599" transform="rotate(61.1094 195.575 337.158)" fill="#1864AB"/>
<circle cx="181.839" cy="357.109" r="5.41599" transform="rotate(61.1094 181.839 357.109)" fill="#1864AB"/>
<path d="M168.043 161.412L214.665 133.789L190.464 165.744L198.03 192.79L150.523 221.986L177.182 189.343L168.043 161.412Z" fill="#F783AC"/>
<path d="M410.086 217.059L387.492 234.03L408.477 224.327L422.211 237.235L445.612 218.65L427.855 225.928L410.086 217.059Z" fill="white"/>
<path d="M87.8989 207.437L75.6733 193.436L84.1133 215.631L101.39 210.09L115.758 225.478L103.787 204.038L87.8989 207.437Z" fill="white"/>
<path d="M378.948 331.168C378.465 329.634 376.896 328.718 375.323 329.052C373.75 329.387 372.689 330.863 372.873 332.46L378.341 379.945C378.436 380.77 378.855 381.522 379.506 382.037C380.158 382.551 380.987 382.785 381.811 382.686L408.42 379.497L416.308 404.582C416.794 406.131 418.387 407.047 419.97 406.689C421.554 406.332 422.598 404.82 422.373 403.213L416.266 359.714C416.062 358.262 414.875 357.148 413.413 357.037L386.437 354.986L378.948 331.168Z" fill="#F783AC" stroke="black" stroke-width="6.23891" stroke-linecap="round" stroke-linejoin="round"/>
<path d="M336.98 368.243C334.829 356.863 324.023 353.383 318.889 353.065L320.89 362.311C324.25 362.233 334.907 362.565 336.004 368.001C336.787 371.883 327.055 375.196 323.722 375.398L325.24 382.41C329.937 381.913 339.131 379.622 336.98 368.243Z" fill="#F178B6"/>
<path d="M337.236 370.164C337.153 355.375 324.025 353.381 318.891 353.063L321.227 363.857C324.587 363.78 336.581 361.733 337.236 370.164Z" fill="#5C7CFA"/>
<path d="M326.283 398.468C333.715 396.86 342.581 387.648 338.144 382.125C340.258 388.15 330.362 391.102 324.943 392.275L326.283 398.468Z" fill="#F178B6"/>
<path d="M322.764 382.211C322.764 382.211 319.54 374.805 325.294 375.181C325.294 375.181 321.147 376.629 329.229 378.381C338.582 380.409 342.348 382.836 338.102 389.427C339.922 386.602 339.419 384.28 335.988 383.402C332.556 382.523 324.041 384.366 322.764 382.211Z" fill="#5C7CFA"/>
<path d="M295.637 229.4C295.637 226.192 298.519 222.112 300.825 220.329L309.473 223.003C307.167 224.785 303.593 228.884 307.743 231.023C311.894 233.162 309.473 242.098 302.555 245.726L293.907 243.912C295.637 243.467 299.442 240.933 300.825 236.656C302.555 231.309 295.637 233.41 295.637 229.4Z" fill="#F178B6"/>
<path d="M241.207 230.507C230.045 225.818 231.905 216.832 235.626 210.971L224.463 214.878C217.766 224.256 227.254 233.112 232.835 236.368L241.207 230.507Z" fill="#91A7FF"/>
<path d="M346.256 148.578C348.206 142.847 344.227 140.561 340.8 140.008L345.966 137.129C351.696 137.735 351.86 144.223 351.226 147.391L346.256 148.578Z" fill="white"/>
<path d="M145.728 391.415C144.489 390.578 142.831 390.738 141.775 391.796C140.719 392.853 140.561 394.511 141.399 395.749L152.226 411.74L141.419 427.744C140.583 428.983 140.742 430.64 141.8 431.697C142.858 432.753 144.516 432.911 145.753 432.073L161.744 421.246L177.748 432.052C178.987 432.889 180.645 432.729 181.701 431.672C182.757 430.614 182.915 428.956 182.077 427.718L171.25 411.728L182.057 395.723C182.893 394.485 182.734 392.827 181.676 391.771C180.619 390.714 178.96 390.557 177.723 391.395L161.732 402.221L145.728 391.415Z" fill="#E599F7" stroke="black" stroke-width="6.23891" stroke-linejoin="round"/>
</svg>
