<svg width="512" height="512" viewBox="0 0 512 512" fill="none" xmlns="http://www.w3.org/2000/svg">
<path fill-rule="evenodd" clip-rule="evenodd" d="M78.2506 200.992C77.8758 200.96 77.5022 200.91 77.1314 200.842C77.7893 204.415 76.7368 208.24 73.9739 211.003L63.969 221.008C59.5059 225.471 52.2699 225.471 47.8068 221.008C43.3437 216.545 43.3437 209.309 47.8068 204.846L57.8117 194.841C60.5746 192.078 64.4003 191.026 67.9729 191.683C67.315 188.111 68.3675 184.285 71.1304 181.522L71.8764 180.776L49.946 180.776C43.6342 180.776 38.5176 175.66 38.5176 169.348C38.5176 163.036 43.6343 157.919 49.946 157.919L70.8754 157.919C68.0726 154.934 67.1755 150.811 68.1838 147.097C64.3592 148.135 60.1002 147.153 57.0969 144.15L47.092 134.145C42.629 129.682 42.629 122.446 47.0921 117.983C51.5551 113.52 58.7912 113.52 63.2543 117.983L73.2591 127.988C76.2623 130.991 77.2446 135.25 76.2062 139.074C80.0309 138.035 84.2899 139.018 87.2931 142.021L87.5337 142.262L87.5338 117.017C87.5338 110.706 92.6505 105.589 98.9622 105.589C105.274 105.589 110.391 110.706 110.391 117.018L110.391 120.093C124.021 102.812 140.644 88.4365 157.553 78.3969C168.683 71.7884 181.541 66.3843 195.401 62.2513C198.951 57.8702 204.371 55.0691 210.458 55.0691C213.256 55.0691 215.918 55.6655 218.32 56.7333C253.589 50.1227 293.849 50.7173 330.674 60.8766C349.214 65.9913 367.122 73.6079 383.105 84.1197C387.083 81.2222 392.687 81.5679 396.276 85.1569L403.788 92.6698C405.28 94.1608 406.211 95.9997 406.582 97.9253C406.661 97.9406 406.74 97.9568 406.819 97.974L406.819 83.0667C406.819 77.4501 411.373 72.8969 416.989 72.8969C422.606 72.8969 427.159 77.4501 427.159 83.0667L427.159 97.2916C427.637 95.7975 428.468 94.392 429.654 93.2064L437.167 85.6935C441.138 81.722 447.577 81.722 451.549 85.6935C455.52 89.665 455.52 96.1042 451.549 100.076L444.036 107.589C443.119 108.505 442.071 109.211 440.952 109.704L453.796 109.704C459.413 109.704 463.966 114.257 463.966 119.874C463.966 125.49 459.413 130.044 453.796 130.044L439.178 130.044C439.231 130.248 439.277 130.453 439.317 130.66C441.242 131.031 443.081 131.962 444.573 133.454L452.085 140.966C456.057 144.938 456.057 151.377 452.085 155.349C449.318 158.116 445.353 158.955 441.86 157.866C469.12 217.016 483.935 300.467 426.607 391.236C397.769 436.896 337.038 458.803 277.914 463.836C220.619 468.712 159.591 458.236 121.772 433.074C120.935 433.107 120.09 433.123 119.241 433.123C111.959 433.123 104.754 431.837 98.8909 429.232C95.9757 427.937 92.8271 426.064 90.2345 423.341C87.5795 420.552 85.0331 416.305 85.0331 410.839V395.116C70.5166 373.965 65.6453 355.263 66.899 337.931C68.1464 320.686 75.4685 306.261 81.2695 294.833L81.6371 294.109C90.6535 276.336 95.0494 266.259 89.0188 253.488C80.7019 235.875 77.5568 218.127 78.2506 200.992ZM89.861 153.605L82.7852 146.529C80.8118 144.556 77.6123 144.556 75.6389 146.529C73.6655 148.502 73.6655 151.702 75.6389 153.675L85.6437 163.68C85.6737 163.71 85.7039 163.74 85.7344 163.769C86.9794 160.322 88.3595 156.932 89.861 153.605ZM80.825 180.844L75.6383 186.03C73.6649 188.004 73.6649 191.203 75.6383 193.177C76.4909 194.029 77.5723 194.513 78.6849 194.629C79.1313 189.976 79.8538 185.375 80.825 180.844ZM100.625 160.789C101.489 158.79 102.404 156.811 103.365 154.854C103.366 154.854 103.365 154.854 103.365 154.854C102.404 156.811 101.489 158.79 100.625 160.789C100.625 160.789 100.625 160.789 100.625 160.789ZM96.7221 170.98C97.1135 169.808 97.5227 168.641 97.9493 167.481C97.9495 167.48 97.9491 167.481 97.9493 167.481C97.5227 168.641 97.1135 169.808 96.7221 170.98C96.7221 170.98 96.7222 170.98 96.7221 170.98ZM94.2633 179.346C94.0288 180.269 93.8058 181.196 93.5945 182.124C93.5943 182.125 93.5947 182.124 93.5945 182.124C93.8058 181.196 94.0288 180.269 94.2633 179.346C94.2633 179.347 94.2633 179.346 94.2633 179.346ZM104.015 128.711L104.015 117.018C104.015 114.227 101.753 111.964 98.9622 111.964C96.1714 111.964 93.909 114.227 93.9089 117.017L93.9089 144.305C93.9089 144.605 93.9351 144.899 93.9853 145.185C96.9957 139.492 100.361 133.989 104.015 128.711ZM434.698 143.328L434.657 143.286C434.328 142.662 433.998 142.042 433.668 141.425C433.414 140.214 433.758 138.902 434.698 137.962C435.726 136.934 437.195 136.619 438.494 137.016C439.069 137.192 439.61 137.507 440.065 137.962L447.578 145.474C449.059 146.956 449.059 149.359 447.578 150.841C446.096 152.323 443.693 152.323 442.211 150.841L434.698 143.328ZM432.015 135.279C431.643 135.651 431.213 135.929 430.755 136.114C429.441 133.772 428.117 131.482 426.79 129.246C425.166 126.512 423.459 123.861 421.674 121.291C422.219 121.27 422.767 121.366 423.278 121.579C423.723 121.764 424.14 122.038 424.502 122.4L432.015 129.912L432.071 129.969C432.495 130.412 432.792 130.932 432.96 131.483C433.357 132.782 433.042 134.252 432.015 135.279ZM420.203 118.858C420.053 118.788 419.907 118.707 419.766 118.616C419.242 117.901 418.712 117.192 418.176 116.489C418.095 116.213 418.046 115.928 418.03 115.642C417.99 114.949 418.14 114.246 418.479 113.619C418.65 113.303 418.869 113.007 419.135 112.74L426.648 105.228C426.784 105.092 426.927 104.969 427.076 104.858C427.232 104.743 427.393 104.642 427.56 104.554C428.993 103.797 430.809 104.022 432.015 105.228C433.22 106.434 433.445 108.249 432.688 109.682L432.666 109.724C432.496 110.036 432.279 110.33 432.014 110.594L424.501 118.107C424.112 118.496 423.659 118.783 423.176 118.968C422.671 119.161 422.133 119.242 421.6 119.212C421.121 119.184 420.646 119.067 420.203 118.858ZM391.768 89.6648L394.431 92.3278C392.822 91.0439 391.188 89.7946 389.529 88.5794C390.347 88.6754 391.14 89.0372 391.768 89.6648ZM447.041 90.2015C445.559 88.7196 443.157 88.7196 441.675 90.2015L434.162 97.7143C433.886 97.9903 433.661 98.2983 433.488 98.6263C432.731 100.059 432.956 101.874 434.162 103.08C435.367 104.286 437.183 104.511 438.616 103.755C438.944 103.581 439.252 103.357 439.528 103.081L447.041 95.5678C448.523 94.0859 448.523 91.6833 447.041 90.2015ZM415.724 107.136C416.12 107.276 416.545 107.352 416.989 107.352C417.433 107.352 417.859 107.276 418.255 107.136C419.728 106.615 420.784 105.209 420.784 103.557L420.784 83.0667C420.784 80.971 419.085 79.2721 416.989 79.2721C414.893 79.2721 413.195 80.971 413.195 83.0667L413.195 103.557C413.195 105.209 414.25 106.615 415.724 107.136ZM429.727 118.609C429.587 119.004 429.511 119.43 429.511 119.874C429.511 120.522 429.673 121.131 429.959 121.665C430.599 122.857 431.858 123.668 433.306 123.668L453.796 123.668C455.892 123.668 457.591 121.97 457.591 119.874C457.591 117.778 455.892 116.079 453.796 116.079L433.306 116.079C431.653 116.079 430.248 117.135 429.727 118.609ZM69.466 206.495L59.4611 216.5C57.4877 218.473 54.2881 218.473 52.3147 216.5C50.3413 214.527 50.3413 211.327 52.3147 209.354L62.3196 199.349C64.293 197.375 67.4925 197.375 69.466 199.349C71.4394 201.322 71.4394 204.522 69.466 206.495ZM81.9053 167.419C82.1325 167.968 82.2656 168.567 82.2843 169.194C82.2858 169.245 82.2866 169.296 82.2866 169.348C82.2866 169.794 82.2288 170.227 82.1202 170.639C81.9973 171.105 81.8094 171.545 81.5667 171.949C80.8728 173.102 79.7315 173.956 78.3829 174.27C78.0136 174.356 77.6288 174.401 77.2334 174.401L49.946 174.401C47.1552 174.401 44.8928 172.139 44.8928 169.348C44.8928 166.557 47.1552 164.295 49.946 164.295L77.2424 164.295C79.3461 164.298 81.1483 165.588 81.9053 167.419ZM61.6049 139.642C63.5783 141.615 66.7778 141.615 68.7512 139.642C70.7246 137.669 70.7246 134.469 68.7512 132.496L58.7463 122.491C56.7729 120.517 53.5734 120.517 51.6 122.491C49.6266 124.464 49.6266 127.664 51.6 129.637L61.6049 139.642Z" fill="white"/>
<path d="M162.435 86.6229C138.029 101.114 114.17 125.295 100.212 154.05C86.226 182.864 82.11 216.466 97.6657 249.408C103.047 260.804 101.938 270.832 98.165 281.099C96.2539 286.298 93.6795 291.5 90.9031 296.983C90.6566 297.47 90.4086 297.958 90.1595 298.449C87.6269 303.441 84.9774 308.663 82.6984 314.126C77.6596 326.204 74.3142 339.719 77.5524 355.78C80.7777 371.778 90.4512 389.894 110.621 411.408C125.298 427.063 148.496 438.674 175.557 446.023C202.677 453.388 233.976 456.557 265.181 455.096C327.336 452.186 390.305 430.809 418.521 386.133C483.174 283.766 452.551 191.368 418.567 134.132C393.163 91.3463 345.266 69.8484 296.031 63.7916C246.809 57.7364 195.48 67.0022 162.435 86.6229Z" fill="#FFEEB4" stroke="black" stroke-width="6.37519" stroke-linecap="round" stroke-linejoin="round"/>
<mask id="mask0_39_2124" style="mask-type:alpha" maskUnits="userSpaceOnUse" x="79" y="64" width="372" height="389">
<path d="M100.549 248.045C70.438 184.281 114.718 120.517 162.541 88.6347C217.449 52.0295 359.869 49.1965 409.297 132.444C442.951 189.123 479.591 283.47 415.827 384.429C361.092 471.094 169.405 469.448 112.947 409.226C33.242 324.208 123.968 297.64 100.549 248.045Z" fill="#FFEEB4"/>
</mask>
<g mask="url(#mask0_39_2124)">
<path d="M79.293 359.631H458.335V455.277H79.293V359.631Z" fill="#E29853"/>
<path d="M160.77 423.626C160.77 427.539 151.254 430.711 139.515 430.711C127.777 430.711 118.26 427.539 118.26 423.626C118.26 419.713 127.777 416.541 139.515 416.541C151.254 416.541 160.77 419.713 160.77 423.626Z" fill="#A76D37" fill-opacity="0.65"/>
</g>
<path fill-rule="evenodd" clip-rule="evenodd" d="M416.991 107.351C414.895 107.351 413.196 105.652 413.196 103.557L413.196 83.066C413.196 80.9704 414.895 79.2715 416.991 79.2715C419.086 79.2715 420.785 80.9704 420.785 83.0661L420.785 103.557C420.785 105.652 419.086 107.351 416.991 107.351ZM447.042 95.568C448.524 94.0862 448.524 91.6836 447.042 90.2017C445.56 88.7198 443.158 88.7198 441.676 90.2017L434.163 97.7146C432.681 99.1964 432.681 101.599 434.163 103.081C435.645 104.563 438.048 104.563 439.529 103.081L447.042 95.568ZM432.017 110.594C433.499 109.112 433.499 106.709 432.017 105.227C430.535 103.746 428.132 103.746 426.65 105.227L419.138 112.74C417.656 114.222 417.656 116.625 419.138 118.107C420.62 119.589 423.022 119.589 424.504 118.107L432.017 110.594ZM414.846 122.401C416.328 123.883 416.328 126.286 414.846 127.768L407.333 135.281C405.852 136.763 403.449 136.763 401.967 135.281C400.485 133.799 400.485 131.396 401.967 129.914L409.48 122.401C410.962 120.92 413.364 120.92 414.846 122.401ZM399.82 142.794C401.302 141.312 401.302 138.909 399.82 137.427C398.338 135.945 395.936 135.945 394.454 137.427L386.941 144.94C385.459 146.422 385.459 148.825 386.941 150.306C388.423 151.788 390.825 151.788 392.307 150.306L399.82 142.794ZM432.017 135.279C430.535 136.761 428.132 136.761 426.651 135.279L419.138 127.766C417.656 126.285 417.656 123.882 419.138 122.4C420.62 120.918 423.022 120.918 424.504 122.4L432.017 129.913C433.499 131.395 433.499 133.797 432.017 135.279ZM409.48 118.106C410.962 119.587 413.364 119.587 414.846 118.106C416.328 116.624 416.328 114.221 414.846 112.739L407.333 105.226C405.852 103.744 403.449 103.744 401.967 105.226C400.485 106.708 400.485 109.111 401.967 110.593L409.48 118.106ZM413.196 156.681C413.196 158.777 414.895 160.476 416.991 160.476C419.086 160.476 420.785 158.777 420.785 156.681L420.785 136.191C420.785 134.095 419.086 132.396 416.991 132.396C414.895 132.396 413.196 134.095 413.196 136.191L413.196 156.681ZM429.513 119.873C429.513 117.777 431.212 116.079 433.308 116.079L453.798 116.079C455.894 116.079 457.593 117.777 457.593 119.873C457.593 121.969 455.894 123.668 453.798 123.668L433.308 123.668C431.212 123.668 429.513 121.969 429.513 119.873ZM380.183 116.079C378.088 116.079 376.389 117.777 376.389 119.873C376.389 121.969 378.088 123.668 380.183 123.668L400.674 123.668C402.77 123.668 404.468 121.969 404.468 119.873C404.468 117.777 402.77 116.079 400.674 116.079L380.183 116.079ZM399.282 102.544C397.8 104.026 395.398 104.026 393.916 102.544L386.403 95.0314C384.921 93.5496 384.921 91.147 386.403 89.6651C387.885 88.1832 390.287 88.1832 391.769 89.6651L399.282 97.178C400.764 98.6598 400.764 101.062 399.282 102.544ZM442.212 150.841C443.694 152.322 446.096 152.322 447.578 150.841C449.06 149.359 449.06 146.956 447.578 145.474L440.066 137.961C438.584 136.479 436.181 136.479 434.699 137.961C433.217 139.443 433.217 141.846 434.699 143.328L442.212 150.841Z" fill="#FFC42D"/>
<circle cx="104.777" cy="313.423" r="6.9938" fill="#F35050"/>
<circle cx="141.942" cy="299.973" r="7.70397" fill="#FFBE5C"/>
<circle cx="210.458" cy="67.8211" r="6.62797" fill="#FFBE5C"/>
<circle cx="116.009" cy="281.573" r="4.97098" fill="#FFD954"/>
<circle cx="405.119" cy="295.619" r="6.9938" transform="rotate(-21.5544 405.119 295.619)" fill="#F35050"/>
<circle cx="438.946" cy="249.914" r="4.97098" transform="rotate(-21.5544 438.946 249.914)" fill="#FFD954"/>
<path fill-rule="evenodd" clip-rule="evenodd" d="M145.612 123.208C147.585 125.181 147.585 128.381 145.612 130.354L135.607 140.359C133.634 142.332 130.434 142.332 128.461 140.359C126.487 138.385 126.487 135.186 128.461 133.213L138.466 123.208C140.439 121.234 143.639 121.234 145.612 123.208Z" fill="#FD90FF"/>
<path fill-rule="evenodd" clip-rule="evenodd" d="M69.4677 199.352C71.4411 201.326 71.4411 204.525 69.4677 206.499L59.4628 216.503C57.4894 218.477 54.2899 218.477 52.3165 216.503C50.3431 214.53 50.3431 211.331 52.3165 209.357L62.3214 199.352C64.2948 197.379 67.4943 197.379 69.4677 199.352Z" fill="#FD90FF"/>
<path fill-rule="evenodd" clip-rule="evenodd" d="M98.9636 149.361C96.1728 149.361 93.9104 147.098 93.9104 144.308L93.9104 117.02C93.9104 114.229 96.1728 111.967 98.9637 111.967C101.754 111.967 104.017 114.229 104.017 117.02L104.017 144.308C104.017 147.098 101.754 149.361 98.9636 149.361Z" fill="#90E4FF"/>
<path fill-rule="evenodd" clip-rule="evenodd" d="M98.9636 223.419C96.1728 223.419 93.9104 221.157 93.9104 218.366L93.9104 191.078C93.9104 188.288 96.1728 186.025 98.9637 186.025C101.754 186.025 104.017 188.288 104.017 191.078L104.017 218.366C104.017 221.157 101.754 223.419 98.9636 223.419Z" fill="#90E4FF"/>
<path fill-rule="evenodd" clip-rule="evenodd" d="M115.641 169.351C115.641 166.56 117.903 164.298 120.694 164.298L147.982 164.298C150.772 164.298 153.035 166.561 153.035 169.351C153.035 172.142 150.772 174.405 147.982 174.405L120.694 174.405C117.903 174.405 115.641 172.142 115.641 169.351Z" fill="#91E4FF"/>
<path fill-rule="evenodd" clip-rule="evenodd" d="M44.8941 169.351C44.8941 166.56 47.1565 164.298 49.9474 164.298L77.2348 164.298C80.0256 164.298 82.288 166.561 82.288 169.351C82.288 172.142 80.0256 174.405 77.2347 174.405L49.9474 174.405C47.1565 174.405 44.8941 172.142 44.8941 169.351Z" fill="#91E4FF"/>
<path fill-rule="evenodd" clip-rule="evenodd" d="M68.7528 139.644C66.7794 141.617 63.5798 141.617 61.6064 139.644L51.6015 129.639C49.6281 127.666 49.6281 124.466 51.6015 122.493C53.575 120.519 56.7745 120.519 58.7479 122.493L68.7528 132.498C70.7262 134.471 70.7262 137.671 68.7528 139.644Z" fill="#FD90FF"/>
<path fill-rule="evenodd" clip-rule="evenodd" d="M139.699 210.59C137.725 212.563 134.526 212.563 132.552 210.59L122.547 200.585C120.574 198.611 120.574 195.412 122.547 193.438C124.521 191.465 127.72 191.465 129.694 193.438L139.699 203.443C141.672 205.417 141.672 208.616 139.699 210.59Z" fill="#FD90FF"/>
<path fill-rule="evenodd" clip-rule="evenodd" d="M122.287 146.533C124.261 148.506 124.261 151.706 122.287 153.679L112.282 163.684C110.309 165.657 107.109 165.657 105.136 163.684C103.163 161.71 103.163 158.511 105.136 156.538L115.141 146.533C117.114 144.559 120.314 144.559 122.287 146.533Z" fill="#FD91FF"/>
<path fill-rule="evenodd" clip-rule="evenodd" d="M92.7927 176.027C94.7661 178.001 94.7661 181.2 92.7927 183.174L82.7878 193.178C80.8144 195.152 77.6148 195.152 75.6414 193.178C73.668 191.205 73.668 188.006 75.6414 186.032L85.6463 176.027C87.6197 174.054 90.8192 174.054 92.7927 176.027Z" fill="#FD91FF"/>
<path fill-rule="evenodd" clip-rule="evenodd" d="M122.288 193.179C120.315 195.153 117.115 195.153 115.142 193.179L105.137 183.174C103.164 181.201 103.164 178.002 105.137 176.028C107.11 174.055 110.31 174.055 112.283 176.028L122.288 186.033C124.262 188.006 124.262 191.206 122.288 193.179Z" fill="#FD90FF"/>
<path fill-rule="evenodd" clip-rule="evenodd" d="M92.7933 163.682C90.8199 165.655 87.6204 165.655 85.6469 163.682L75.6421 153.677C73.6687 151.703 73.6687 148.504 75.6421 146.53C77.6155 144.557 80.815 144.557 82.7884 146.53L92.7933 156.535C94.7667 158.509 94.7667 161.708 92.7933 163.682Z" fill="#FD90FF"/>
<g filter="url(#filter0_i_39_2124)">
<rect x="146.298" y="160.728" width="238.236" height="218.708" fill="#F35050"/>
</g>
<rect x="143.111" y="157.54" width="244.611" height="225.083" stroke="black" stroke-width="6.37519"/>
<g filter="url(#filter1_i_39_2124)">
<rect x="146.298" y="160.728" width="35.1495" height="214.803" fill="#D72626"/>
</g>
<rect x="143.111" y="157.54" width="41.5247" height="221.178" stroke="black" stroke-width="6.37519"/>
<g filter="url(#filter2_i_39_2124)">
<rect x="349.386" y="160.728" width="35.1495" height="214.803" fill="#D72626"/>
</g>
<rect x="346.199" y="157.54" width="41.5247" height="221.178" stroke="black" stroke-width="6.37519"/>
<rect x="259.557" y="160.728" width="7.811" height="218.708" fill="#D72626"/>
<path fill-rule="evenodd" clip-rule="evenodd" d="M264.458 160.726H122.864L153.558 94.333H264.458H266.372H377.272L407.965 160.726H266.372H264.458Z" fill="#FFBE5C"/>
<path fill-rule="evenodd" clip-rule="evenodd" d="M383.643 108.107H267.385H265.289H147.193L153.561 94.333H264.461H266.375H377.275L383.643 108.107Z" fill="#FFD179"/>
<path fill-rule="evenodd" clip-rule="evenodd" d="M129.759 145.812H264.458H266.372H401.071L407.966 160.726H266.372H264.458H122.865L129.759 145.812Z" fill="#DDA24B"/>
<path fill-rule="evenodd" clip-rule="evenodd" d="M117.493 164.161C116.322 162.329 116.165 160.026 117.078 158.051L147.771 91.658C148.814 89.4022 151.073 87.958 153.558 87.958H377.272C379.757 87.958 382.016 89.4022 383.059 91.658L413.752 158.051C414.665 160.026 414.508 162.329 413.337 164.161C412.165 165.993 410.141 167.102 407.966 167.102H122.864C120.69 167.102 118.665 165.993 117.493 164.161ZM122.864 160.727L153.558 94.3332H377.272L407.966 160.727H122.864Z" fill="black"/>
<path d="M241.112 254.638C241.112 260.81 236.109 265.814 229.936 265.814C223.764 265.814 218.76 260.81 218.76 254.638C218.76 248.465 223.764 243.462 229.936 243.462C236.109 243.462 241.112 248.465 241.112 254.638Z" fill="#FFBE5C"/>
<path fill-rule="evenodd" clip-rule="evenodd" d="M229.937 278.049C236.227 278.049 241.326 272.95 241.326 266.66C241.326 260.37 236.227 255.271 229.937 255.271C223.647 255.271 218.548 260.37 218.548 266.66C218.548 272.95 223.647 278.049 229.937 278.049ZM229.937 283.424C239.195 283.424 246.701 275.919 246.701 266.66C246.701 257.402 239.195 249.896 229.937 249.896C220.678 249.896 213.173 257.402 213.173 266.66C213.173 275.919 220.678 283.424 229.937 283.424Z" fill="#FFE68F"/>
<path d="M308.166 254.638C308.166 260.81 303.162 265.814 296.99 265.814C290.818 265.814 285.814 260.81 285.814 254.638C285.814 248.465 290.818 243.462 296.99 243.462C303.162 243.462 308.166 248.465 308.166 254.638Z" fill="#FFBE5C"/>
<path fill-rule="evenodd" clip-rule="evenodd" d="M296.991 278.049C303.281 278.049 308.38 272.95 308.38 266.66C308.38 260.37 303.281 255.271 296.991 255.271C290.701 255.271 285.602 260.37 285.602 266.66C285.602 272.95 290.701 278.049 296.991 278.049ZM296.991 283.424C306.25 283.424 313.755 275.919 313.755 266.66C313.755 257.402 306.25 249.896 296.991 249.896C287.732 249.896 280.227 257.402 280.227 266.66C280.227 275.919 287.732 283.424 296.991 283.424Z" fill="#FFE68F"/>
<path fill-rule="evenodd" clip-rule="evenodd" d="M137.42 250.774C138.301 250.774 139.014 251.487 139.014 252.368V262.512C139.014 263.392 138.301 264.106 137.42 264.106C136.54 264.106 135.827 263.392 135.827 262.512V252.368C135.827 251.487 136.54 250.774 137.42 250.774Z" fill="#E6BE30"/>
<path fill-rule="evenodd" clip-rule="evenodd" d="M133.115 250.774C133.996 250.774 134.709 251.487 134.709 252.368V262.512C134.709 263.392 133.996 264.106 133.115 264.106C132.235 264.106 131.521 263.392 131.521 262.512V252.368C131.521 251.487 132.235 250.774 133.115 250.774Z" fill="#E6BE30"/>
<path fill-rule="evenodd" clip-rule="evenodd" d="M141.664 250.774C142.544 250.774 143.257 251.487 143.257 252.368V262.512C143.257 263.392 142.544 264.106 141.664 264.106C140.783 264.106 140.07 263.392 140.07 262.512V252.368C140.07 251.487 140.783 250.774 141.664 250.774Z" fill="#E6BE30"/>
<path d="M115.054 200.863C115.054 189.507 124.26 180.301 135.616 180.301H138.259C149.615 180.301 158.82 189.507 158.82 200.863V218.55C158.82 229.906 149.615 239.112 138.259 239.112H135.616C124.26 239.112 115.054 229.906 115.054 218.55V200.863Z" fill="#F35050"/>
<path fill-rule="evenodd" clip-rule="evenodd" d="M135.616 173.926H138.259C153.136 173.926 165.195 185.986 165.195 200.863V218.55C165.195 233.427 153.135 245.487 138.259 245.487H135.616C120.739 245.487 108.679 233.427 108.679 218.55V200.863C108.679 185.986 120.739 173.926 135.616 173.926ZM135.616 180.301C124.26 180.301 115.054 189.507 115.054 200.863V218.55C115.054 229.906 124.26 239.112 135.616 239.112H138.259C149.615 239.112 158.82 229.906 158.82 218.55V200.863C158.82 189.507 149.615 180.301 138.259 180.301H135.616Z" fill="black"/>
<g style="mix-blend-mode:soft-light" opacity="0.8">
<path d="M126.283 187.181C125.276 186.96 123.606 188.776 122.619 190.271C121.61 191.801 120.364 194.287 121.345 194.75C122.326 195.213 123.991 192.045 124.326 191.201C125.116 189.647 127.291 187.402 126.283 187.181Z" fill="#F8F9FA"/>
</g>
<path d="M130.152 248.184C130.152 246.834 131.246 245.74 132.596 245.74H142.241C143.59 245.74 144.685 246.834 144.685 248.184C144.685 249.534 143.59 250.628 142.241 250.628H132.596C131.246 250.628 130.152 249.534 130.152 248.184Z" fill="#FFD954"/>
<path fill-rule="evenodd" clip-rule="evenodd" d="M132.596 239.365H142.241C147.111 239.365 151.06 243.314 151.06 248.184C151.06 253.055 147.111 257.003 142.241 257.003H132.596C127.725 257.003 123.777 253.055 123.777 248.184C123.777 243.314 127.725 239.365 132.596 239.365ZM132.596 245.74C131.246 245.74 130.152 246.835 130.152 248.184C130.152 249.534 131.246 250.628 132.596 250.628H142.241C143.59 250.628 144.684 249.534 144.684 248.184C144.684 246.835 143.59 245.74 142.241 245.74H132.596Z" fill="black"/>
<path d="M130.152 171.231C130.152 169.881 131.246 168.787 132.596 168.787H142.241C143.59 168.787 144.685 169.881 144.685 171.231C144.685 172.58 143.59 173.674 142.241 173.674H132.596C131.246 173.674 130.152 172.58 130.152 171.231Z" fill="#FFD954"/>
<path fill-rule="evenodd" clip-rule="evenodd" d="M132.596 162.412H142.241C147.111 162.412 151.06 166.36 151.06 171.231C151.06 176.101 147.111 180.05 142.241 180.05H132.596C127.725 180.05 123.777 176.101 123.777 171.231C123.777 166.36 127.725 162.412 132.596 162.412ZM132.596 168.787C131.246 168.787 130.152 169.881 130.152 171.231C130.152 172.58 131.246 173.675 132.596 173.675H142.241C143.59 173.675 144.684 172.58 144.684 171.231C144.684 169.881 143.59 168.787 142.241 168.787H132.596Z" fill="black"/>
<path d="M391.279 262.512V252.368" stroke="#E6BE30" stroke-width="3.18759" stroke-linecap="round" stroke-linejoin="round"/>
<path d="M386.97 262.512V252.368" stroke="#E6BE30" stroke-width="3.18759" stroke-linecap="round" stroke-linejoin="round"/>
<path d="M395.521 262.512V252.368" stroke="#E6BE30" stroke-width="3.18759" stroke-linecap="round" stroke-linejoin="round"/>
<path d="M384.01 248.184C384.01 246.834 385.104 245.74 386.454 245.74H396.099C397.448 245.74 398.543 246.834 398.543 248.184C398.543 249.534 397.448 250.628 396.099 250.628H386.454C385.104 250.628 384.01 249.534 384.01 248.184Z" fill="#FFD954"/>
<path fill-rule="evenodd" clip-rule="evenodd" d="M386.454 239.365H396.098C400.969 239.365 404.918 243.314 404.918 248.184C404.918 253.055 400.969 257.003 396.098 257.003H386.454C381.583 257.003 377.635 253.055 377.635 248.184C377.635 243.314 381.583 239.365 386.454 239.365ZM386.454 245.74C385.104 245.74 384.01 246.835 384.01 248.184C384.01 249.534 385.104 250.628 386.454 250.628H396.098C397.448 250.628 398.542 249.534 398.542 248.184C398.542 246.835 397.448 245.74 396.098 245.74H386.454Z" fill="black"/>
<path d="M384.01 171.231C384.01 169.881 385.104 168.787 386.454 168.787H396.099C397.448 168.787 398.543 169.881 398.543 171.231C398.543 172.58 397.448 173.674 396.099 173.674H386.454C385.104 173.674 384.01 172.58 384.01 171.231Z" fill="#FFD954"/>
<path fill-rule="evenodd" clip-rule="evenodd" d="M386.454 162.412H396.098C400.969 162.412 404.918 166.36 404.918 171.231C404.918 176.101 400.969 180.05 396.098 180.05H386.454C381.583 180.05 377.635 176.101 377.635 171.231C377.635 166.36 381.583 162.412 386.454 162.412ZM386.454 168.787C385.104 168.787 384.01 169.881 384.01 171.231C384.01 172.58 385.104 173.675 386.454 173.675H396.098C397.448 173.675 398.542 172.58 398.542 171.231C398.542 169.881 397.448 168.787 396.098 168.787H386.454Z" fill="black"/>
<path d="M368.913 200.863C368.913 189.507 378.118 180.301 389.474 180.301H392.117C403.473 180.301 412.678 189.507 412.678 200.863V218.55C412.678 229.906 403.473 239.112 392.117 239.112H389.474C378.118 239.112 368.913 229.906 368.913 218.55V200.863Z" fill="#F35050"/>
<path fill-rule="evenodd" clip-rule="evenodd" d="M389.474 173.926H392.117C406.994 173.926 419.054 185.986 419.054 200.863V218.55C419.054 233.427 406.994 245.487 392.117 245.487H389.474C374.598 245.487 362.538 233.427 362.538 218.55V200.863C362.538 185.986 374.598 173.926 389.474 173.926ZM389.474 180.301C378.118 180.301 368.913 189.507 368.913 200.863V218.55C368.913 229.906 378.118 239.112 389.474 239.112H392.117C403.473 239.112 412.679 229.906 412.679 218.55V200.863C412.679 189.507 403.473 180.301 392.117 180.301H389.474Z" fill="black"/>
<g style="mix-blend-mode:soft-light" opacity="0.8">
<path d="M381.458 187.181C380.451 186.96 378.781 188.776 377.794 190.271C376.785 191.801 375.539 194.287 376.52 194.75C377.501 195.213 379.166 192.045 379.501 191.201C380.291 189.647 382.466 187.402 381.458 187.181Z" fill="#F8F9FA"/>
</g>
<path d="M188.023 356.139H342.627V376.023H188.023V356.139Z" fill="#FFD954"/>
<path fill-rule="evenodd" clip-rule="evenodd" d="M181.648 349.764H349.002V382.398H181.648V349.764ZM188.023 356.139V376.023H342.627V356.139H188.023Z" fill="black"/>
<path d="M146.298 375.529H384.534V395.057H146.298V375.529Z" fill="#FFD954"/>
<path fill-rule="evenodd" clip-rule="evenodd" d="M139.923 375.529C139.923 372.008 142.777 369.154 146.298 369.154H384.534C388.055 369.154 390.909 372.008 390.909 375.529V395.057C390.909 398.578 388.055 401.432 384.534 401.432H146.298C142.777 401.432 139.923 398.578 139.923 395.057V375.529ZM146.298 375.529V395.057H384.534V375.529H146.298Z" fill="black"/>
<path fill-rule="evenodd" clip-rule="evenodd" d="M198.057 94.6128C200.059 95.1587 201.239 97.2238 200.693 99.2254L188.977 142.186C188.431 144.187 186.366 145.368 184.364 144.822C182.362 144.276 181.182 142.211 181.728 140.209L193.445 97.2486C193.991 95.247 196.056 94.0669 198.057 94.6128Z" fill="#FFCA6B"/>
<path fill-rule="evenodd" clip-rule="evenodd" d="M244.309 98.4052C246.373 98.6116 247.879 100.452 247.673 102.517L243.767 141.572C243.561 143.636 241.72 145.142 239.656 144.936C237.591 144.73 236.085 142.889 236.292 140.824L240.197 101.769C240.404 99.7049 242.244 98.1987 244.309 98.4052Z" fill="#FFCA6B"/>
<path fill-rule="evenodd" clip-rule="evenodd" d="M333.089 94.5437C331.048 94.9148 329.694 96.8704 330.065 98.9116L337.876 141.872C338.248 143.913 340.203 145.267 342.244 144.896C344.286 144.525 345.639 142.569 345.268 140.528L337.457 97.5676C337.086 95.5264 335.131 94.1725 333.089 94.5437Z" fill="#FFCA6B"/>
<path fill-rule="evenodd" clip-rule="evenodd" d="M286.522 98.4052C284.458 98.6116 282.952 100.452 283.158 102.517L287.064 141.572C287.27 143.636 289.111 145.142 291.176 144.936C293.24 144.73 294.746 142.889 294.54 140.824L290.634 101.769C290.428 99.7049 288.587 98.1987 286.522 98.4052Z" fill="#FFCA6B"/>
<path d="M331.42 140.73C331.42 143.381 319.822 142.387 323.136 145.701C349.095 145.701 400.683 145.038 399.357 142.387C397.7 139.073 392.729 142.387 382.787 142.387C372.845 142.387 364.56 139.073 356.275 140.73C347.99 142.387 331.42 137.416 331.42 140.73Z" fill="#E7FFFF"/>
<path d="M97.7815 365.22V409.079C97.7815 414.812 108.243 419.461 121.147 419.461C134.052 419.461 144.513 415.15 144.513 409.079V365.22C144.513 359.149 134.052 354.838 121.147 354.838C108.243 354.838 97.7815 359.486 97.7815 365.22Z" fill="#FA5252"/>
<path fill-rule="evenodd" clip-rule="evenodd" d="M91.4065 409.079V365.22C91.4065 361.712 93.0333 358.85 95.0003 356.783C96.9361 354.75 99.4357 353.209 102.037 352.053C107.255 349.734 114.017 348.463 121.148 348.463C128.212 348.463 134.97 349.629 140.21 351.905C144.939 353.959 150.889 358.12 150.889 365.22V409.079C150.889 416.179 144.938 420.34 140.21 422.394C134.97 424.67 128.212 425.836 121.148 425.836C114.017 425.836 107.255 424.565 102.037 422.246C99.4357 421.09 96.936 419.549 95.0003 417.515C93.0333 415.449 91.4065 412.587 91.4065 409.079ZM97.7817 409.079V365.22C97.7817 359.486 108.243 354.838 121.148 354.838C134.052 354.838 144.513 359.149 144.513 365.22V409.079C144.513 415.15 134.052 419.461 121.148 419.461C108.243 419.461 97.7817 414.813 97.7817 409.079Z" fill="black"/>
<path d="M143.556 364.795C143.556 370.294 133.523 374.752 121.147 374.752C108.77 374.752 98.7371 370.294 98.7371 364.795C98.7371 359.296 108.77 354.838 121.147 354.838C133.523 354.838 143.556 359.296 143.556 364.795Z" fill="#FF6B6B"/>
<path fill-rule="evenodd" clip-rule="evenodd" d="M139.581 377.662C134.536 379.904 128.013 381.128 121.147 381.128C114.28 381.128 107.757 379.904 102.712 377.662C100.198 376.545 97.768 375.049 95.8807 373.067C93.9621 371.051 92.3621 368.245 92.3621 364.795C92.3621 361.346 93.9621 358.539 95.8807 356.524C97.768 354.541 100.198 353.046 102.712 351.929C107.757 349.687 114.28 348.463 121.147 348.463C128.013 348.463 134.536 349.687 139.581 351.929C142.096 353.046 144.525 354.541 146.413 356.524C148.331 358.539 149.931 361.346 149.931 364.795C149.931 368.245 148.331 371.051 146.413 373.067C144.525 375.049 142.096 376.545 139.581 377.662ZM121.147 374.753C133.523 374.753 143.556 370.295 143.556 364.795C143.556 359.296 133.523 354.838 121.147 354.838C108.77 354.838 98.7372 359.296 98.7372 364.795C98.7372 370.295 108.77 374.753 121.147 374.753Z" fill="black"/>
<path fill-rule="evenodd" clip-rule="evenodd" d="M126.612 345.292C127.81 346.582 127.735 348.599 126.445 349.797C125.155 350.995 123.96 352.455 123.378 354.402C122.81 356.301 122.713 359.041 124.302 363.014C124.956 364.648 124.161 366.503 122.526 367.157C120.892 367.811 119.037 367.016 118.383 365.382C116.357 360.316 116.22 356.086 117.27 352.576C118.305 349.114 120.384 346.725 122.107 345.125C123.397 343.928 125.414 344.002 126.612 345.292Z" fill="#B83838"/>
<path fill-rule="evenodd" clip-rule="evenodd" d="M115.449 328.156C116.884 327.136 118.874 327.473 119.893 328.909L124.501 335.395C125.52 336.83 125.183 338.82 123.748 339.839C122.313 340.859 120.323 340.522 119.303 339.087L114.696 332.6C113.677 331.165 114.014 329.175 115.449 328.156Z" fill="white"/>
<path fill-rule="evenodd" clip-rule="evenodd" d="M135.225 347.884C135.364 346.129 136.9 344.82 138.655 344.959L146.586 345.59C148.341 345.729 149.651 347.265 149.511 349.02C149.372 350.775 147.836 352.084 146.081 351.945L138.15 351.314C136.395 351.175 135.085 349.639 135.225 347.884Z" fill="white"/>
<path fill-rule="evenodd" clip-rule="evenodd" d="M138.759 326.752C140.348 327.51 141.02 329.413 140.262 331.002L136.631 338.604C135.872 340.193 133.969 340.865 132.381 340.107C130.792 339.348 130.12 337.445 130.878 335.857L134.509 328.254C135.268 326.666 137.17 325.993 138.759 326.752Z" fill="white"/>
<path d="M110.891 398.454L121.963 389.821L133.33 398.454L121.963 407.773L110.891 398.454Z" fill="#FFE066"/>
<path fill-rule="evenodd" clip-rule="evenodd" d="M118.043 384.793C120.324 383.015 123.515 382.995 125.818 384.744L137.186 393.376C138.74 394.556 139.668 396.384 139.704 398.335C139.74 400.286 138.881 402.146 137.372 403.384L126.005 412.703C123.63 414.649 120.206 414.627 117.858 412.65L106.786 403.331C105.314 402.093 104.481 400.257 104.517 398.334C104.553 396.412 105.455 394.608 106.971 393.426L118.043 384.793ZM110.891 398.453L121.963 407.772L133.33 398.453L121.963 389.821L110.891 398.453Z" fill="black"/>
<path d="M153.403 371.817L140.8 408.527C139.152 413.326 146.573 420.222 157.374 423.93C168.175 427.639 178.17 427.036 179.914 421.955L192.517 385.245C194.261 380.164 186.744 373.549 175.943 369.841C165.142 366.133 155.05 367.018 153.403 371.817Z" fill="#FA5252"/>
<path fill-rule="evenodd" clip-rule="evenodd" d="M134.771 406.456L147.373 369.747C148.459 366.585 150.804 364.53 153.161 363.305C155.477 362.102 158.114 361.513 160.684 361.288C165.842 360.836 171.971 361.737 178.013 363.811C183.993 365.864 189.411 368.826 193.236 372.322C196.65 375.443 200.739 380.93 198.547 387.315L185.944 424.025C183.752 430.409 177.155 432.228 172.544 432.594C167.379 433.003 161.284 432.013 155.304 429.96C149.262 427.886 143.872 424.832 140.079 421.307C138.189 419.551 136.47 417.467 135.381 415.095C134.274 412.681 133.685 409.619 134.771 406.456ZM140.8 408.526L153.403 371.817C155.05 367.018 165.142 366.133 175.943 369.841C186.744 373.549 194.262 380.164 192.517 385.245L179.915 421.955C178.17 427.036 168.175 427.638 157.374 423.93C146.573 420.222 139.153 413.326 140.8 408.526Z" fill="black"/>
<path d="M191.841 384.617C190.261 389.22 180.582 390.068 170.223 386.512C159.864 382.955 152.748 376.341 154.328 371.738C155.908 367.135 165.587 366.287 175.946 369.843C186.305 373.4 193.421 380.014 191.841 384.617Z" fill="#FF6B6B"/>
<path fill-rule="evenodd" clip-rule="evenodd" d="M184.881 394.975C179.89 395.412 173.974 394.54 168.153 392.541C162.332 390.543 157.128 387.598 153.458 384.187C151.63 382.488 149.956 380.462 148.893 378.146C147.812 375.789 147.229 372.781 148.298 369.668C149.367 366.555 151.674 364.54 153.975 363.343C156.236 362.168 158.801 361.598 161.288 361.38C166.279 360.943 172.194 361.815 178.015 363.813C183.837 365.812 189.041 368.757 192.71 372.168C194.539 373.867 196.213 375.892 197.275 378.209C198.357 380.566 198.939 383.573 197.871 386.687C196.802 389.8 194.495 391.815 192.193 393.011C189.932 394.187 187.368 394.757 184.881 394.975ZM170.223 386.512C180.582 390.068 190.261 389.219 191.841 384.617C193.421 380.014 186.304 373.399 175.945 369.843C165.586 366.287 155.908 367.135 154.328 371.738C152.747 376.341 159.864 382.955 170.223 386.512Z" fill="black"/>
<path d="M153.366 402.39L164.059 398.952L170.223 408.564L159.12 412.437L153.366 402.39Z" fill="#FFE066"/>
<path fill-rule="evenodd" clip-rule="evenodd" d="M162.106 392.884C164.859 391.999 167.863 393.078 169.424 395.512L175.588 405.124C176.642 406.767 176.885 408.802 176.248 410.646C175.611 412.491 174.164 413.942 172.322 414.585L161.219 418.458C158.32 419.469 155.112 418.271 153.587 415.607L147.833 405.56C146.878 403.891 146.726 401.88 147.421 400.088C148.116 398.295 149.583 396.911 151.414 396.323L162.106 392.884ZM153.366 402.392L159.119 412.438L170.222 408.565L164.058 398.953L153.366 402.392Z" fill="black"/>
<path fill-rule="evenodd" clip-rule="evenodd" d="M181.09 361.993C179.366 361.637 177.68 362.746 177.324 364.471C177.236 364.896 177.164 365.296 177.094 365.682C176.869 366.928 176.671 368.025 176.07 369.32C175.356 370.857 174.003 372.711 171.001 374.557C169.501 375.479 169.033 377.442 169.955 378.942C170.878 380.442 172.841 380.91 174.34 379.988C178.341 377.528 180.578 374.748 181.852 372.006C182.84 369.877 183.212 367.757 183.438 366.465C183.486 366.189 183.528 365.951 183.568 365.758C183.923 364.034 182.814 362.348 181.09 361.993Z" fill="#B83838"/>
<path fill-rule="evenodd" clip-rule="evenodd" d="M161.652 352.279C162.706 350.869 164.704 350.581 166.114 351.635L172.03 356.06C173.44 357.115 173.728 359.112 172.674 360.522C171.619 361.932 169.622 362.22 168.212 361.166L162.295 356.741C160.885 355.686 160.597 353.689 161.652 352.279Z" fill="white"/>
<path fill-rule="evenodd" clip-rule="evenodd" d="M186.935 363.516C186.531 361.803 187.592 360.086 189.306 359.682L196.497 357.985C198.21 357.581 199.927 358.643 200.331 360.356C200.735 362.069 199.674 363.786 197.96 364.19L190.769 365.887C189.056 366.291 187.339 365.229 186.935 363.516Z" fill="white"/>
<path fill-rule="evenodd" clip-rule="evenodd" d="M181.983 343.256C183.728 343.492 184.951 345.098 184.714 346.842L183.665 354.595C183.429 356.34 181.823 357.563 180.079 357.326C178.334 357.09 177.111 355.485 177.347 353.74L178.397 345.987C178.633 344.243 180.239 343.02 181.983 343.256Z" fill="white"/>
<path d="M225.417 395.637C223.125 394.491 221.119 395.16 220.403 395.637L221.835 392.772C222.552 392.533 224.557 392.342 226.85 393.488C229.142 394.634 229.715 396.354 229.715 397.07L226.133 399.219C226.85 398.502 227.709 396.783 225.417 395.637Z" fill="#CA3333"/>
<path d="M213.673 428.684C214.954 429.772 216.336 429.66 216.867 429.468L215.506 431.069C215.013 431.109 213.705 430.917 212.424 429.828C211.144 428.74 211.048 427.555 211.16 427.099L213.777 426.29C213.209 426.635 212.392 427.595 213.673 428.684Z" fill="#CA3333"/>
<path d="M349.162 406.37C349.582 405.093 351.264 403.847 352.416 403.44L355.508 405.638C354.356 406.045 352.396 407.208 353.768 408.603C355.14 409.999 353.005 413.239 349.775 413.776L346.571 411.921C347.318 411.97 349.164 411.46 350.276 409.939C351.665 408.037 348.636 407.967 349.162 406.37Z" fill="#CE2424"/>
<path d="M280.288 433.892C273.559 433.976 272.516 428.983 273.114 425.171L268.29 429.636C266.954 435.901 273.753 438.312 277.32 438.735L280.288 433.892Z" fill="#B92319"/>
<path d="M164.796 139.463C160.772 142.395 174.297 143.128 181.562 143.128C191.622 143.433 215.431 144.044 230.185 144.044C248.629 144.044 246.952 137.631 231.862 137.631C216.772 137.631 216.983 134.374 212.686 133.051C205.238 130.757 191.622 129.387 189.946 133.051C188.269 136.715 169.826 135.799 164.796 139.463Z" fill="#E7FFFF"/>
<path d="M234.952 122.213C231.582 116.425 231.015 108.723 231.153 105.596C233.483 104.132 238.534 102.632 240.095 108.34C242.046 115.476 239.164 129.448 234.952 122.213Z" fill="#E7FFFF"/>
<defs>
<filter id="filter0_i_39_2124" x="139.923" y="154.353" width="250.986" height="231.458" filterUnits="userSpaceOnUse" color-interpolation-filters="sRGB">
<feFlood flood-opacity="0" result="BackgroundImageFix"/>
<feBlend mode="normal" in="SourceGraphic" in2="BackgroundImageFix" result="shape"/>
<feColorMatrix in="SourceAlpha" type="matrix" values="0 0 0 0 0 0 0 0 0 0 0 0 0 0 0 0 0 0 127 0" result="hardAlpha"/>
<feOffset dy="6.37519"/>
<feComposite in2="hardAlpha" operator="arithmetic" k2="-1" k3="1"/>
<feColorMatrix type="matrix" values="0 0 0 0 0.670833 0 0 0 0 0.30467 0 0 0 0 0.30467 0 0 0 0.25 0"/>
<feBlend mode="normal" in2="shape" result="effect1_innerShadow_39_2124"/>
</filter>
<filter id="filter1_i_39_2124" x="139.923" y="154.353" width="47.8999" height="227.553" filterUnits="userSpaceOnUse" color-interpolation-filters="sRGB">
<feFlood flood-opacity="0" result="BackgroundImageFix"/>
<feBlend mode="normal" in="SourceGraphic" in2="BackgroundImageFix" result="shape"/>
<feColorMatrix in="SourceAlpha" type="matrix" values="0 0 0 0 0 0 0 0 0 0 0 0 0 0 0 0 0 0 127 0" result="hardAlpha"/>
<feOffset dy="3.18759"/>
<feComposite in2="hardAlpha" operator="arithmetic" k2="-1" k3="1"/>
<feColorMatrix type="matrix" values="0 0 0 0 0 0 0 0 0 0 0 0 0 0 0 0 0 0 0.1 0"/>
<feBlend mode="normal" in2="shape" result="effect1_innerShadow_39_2124"/>
</filter>
<filter id="filter2_i_39_2124" x="343.011" y="154.353" width="47.8999" height="227.553" filterUnits="userSpaceOnUse" color-interpolation-filters="sRGB">
<feFlood flood-opacity="0" result="BackgroundImageFix"/>
<feBlend mode="normal" in="SourceGraphic" in2="BackgroundImageFix" result="shape"/>
<feColorMatrix in="SourceAlpha" type="matrix" values="0 0 0 0 0 0 0 0 0 0 0 0 0 0 0 0 0 0 127 0" result="hardAlpha"/>
<feOffset dy="3.18759"/>
<feComposite in2="hardAlpha" operator="arithmetic" k2="-1" k3="1"/>
<feColorMatrix type="matrix" values="0 0 0 0 0 0 0 0 0 0 0 0 0 0 0 0 0 0 0.1 0"/>
<feBlend mode="normal" in2="shape" result="effect1_innerShadow_39_2124"/>
</filter>
</defs>
</svg>
