<svg width="14" height="14" viewBox="0 0 14 14" fill="none" xmlns="http://www.w3.org/2000/svg">
<path d="M0 6.4C0 4.15979 0 3.03968 0.435974 2.18404C0.819467 1.43139 1.43139 0.819467 2.18404 0.435974C3.03968 0 4.15979 0 6.4 0H7.6C9.84021 0 10.9603 0 11.816 0.435974C12.5686 0.819467 13.1805 1.43139 13.564 2.18404C14 3.03968 14 4.15979 14 6.4V7.6C14 9.84021 14 10.9603 13.564 11.816C13.1805 12.5686 12.5686 13.1805 11.816 13.564C10.9603 14 9.84021 14 7.6 14H6.4C4.15979 14 3.03968 14 2.18404 13.564C1.43139 13.1805 0.819467 12.5686 0.435974 11.816C0 10.9603 0 9.84021 0 7.6V6.4Z" fill="url(#paint0_linear_4625_17293)"/>
<rect x="0.5" y="0.5" width="13" height="13" rx="3.5" fill="url(#paint1_linear_4625_17293)"/>
<path fill-rule="evenodd" clip-rule="evenodd" d="M5.77435 4.95755V4.95749C5.77438 4.28101 6.3228 3.73262 6.99931 3.73262C7.67585 3.73262 8.22428 4.28105 8.22428 4.95755V4.95761L8.22435 5.54095H4.85518L5.77442 5.54084L5.77435 4.95755ZM4.72442 5.54095L4.72435 4.95761V4.95755C4.72435 3.70113 5.74289 2.68262 6.99931 2.68262C8.25571 2.68262 9.27424 3.7011 9.27428 4.95749V4.95755L9.27435 5.54084L8.35511 5.54095H9.33268C9.81593 5.54095 10.2077 5.9327 10.2077 6.41595V9.91595C10.2077 10.3992 9.81593 10.791 9.33268 10.791H4.66601C4.18277 10.791 3.79102 10.3992 3.79102 9.91595V6.41595C3.79102 5.9327 4.18277 5.54095 4.66602 5.54095H4.72442Z" fill="white"/>
<defs>
<linearGradient id="paint0_linear_4625_17293" x1="-7.95483e-09" y1="1.26047" x2="14.0251" y2="1.2881" gradientUnits="userSpaceOnUse">
<stop stop-color="#EBE8FC"/>
<stop offset="1" stop-color="#FDE2E5"/>
</linearGradient>
<linearGradient id="paint1_linear_4625_17293" x1="0.5" y1="1.67044" x2="13.5233" y2="1.69609" gradientUnits="userSpaceOnUse">
<stop stop-color="#6C69FF"/>
<stop offset="1" stop-color="#FF3737"/>
</linearGradient>
</defs>
</svg>
