<svg width="26" height="12" viewBox="0 0 26 12" fill="none" xmlns="http://www.w3.org/2000/svg">
<rect width="26" height="12" rx="6" fill="url(#paint0_linear_4627_17303)"/>
<rect x="0.5" y="0.5" width="25" height="11" rx="5.5" fill="url(#paint1_linear_4627_17303)"/>
<path d="M6.02324 9.17613H4.78955V3.20784H6.02324V9.17613ZM5.47958 6.16923H7.10637C7.31826 6.16923 7.50366 6.12925 7.66258 6.04929C7.82149 5.96932 7.94416 5.85489 8.03059 5.706C8.11702 5.5571 8.16023 5.38339 8.16023 5.18486C8.16023 4.98633 8.11702 4.81261 8.03059 4.66372C7.94416 4.51482 7.8201 4.40039 7.65839 4.32043C7.49669 4.24046 7.3085 4.20048 7.09383 4.20048H5.47958V3.20784H7.23601C7.67094 3.20784 8.05011 3.28918 8.37351 3.45186C8.69971 3.61179 8.95063 3.84065 9.12627 4.13844C9.3047 4.43624 9.39392 4.78504 9.39392 5.18486C9.39392 5.58467 9.3047 5.93348 9.12627 6.23127C8.95063 6.52907 8.69971 6.75931 8.37351 6.92199C8.05011 7.08192 7.67094 7.16188 7.23601 7.16188H5.47958V6.16923Z" fill="white"/>
<path d="M11.8293 9.17613H10.5956V3.20784H11.8293V9.17613ZM15.3422 9.17613H13.9746L12.2893 6.42567H13.5104L15.3422 9.17613ZM11.2522 5.96243H12.9919C13.2986 5.96243 13.5411 5.88523 13.7195 5.73081C13.898 5.5764 13.9872 5.36684 13.9872 5.10214C13.9872 4.8264 13.898 4.60719 13.7195 4.44451C13.5411 4.28182 13.2986 4.20048 12.9919 4.20048H11.2522V3.20784H13.0839C13.5216 3.20784 13.9022 3.28504 14.2256 3.43945C14.5518 3.59111 14.8027 3.80894 14.9783 4.09295C15.154 4.3742 15.2418 4.70508 15.2418 5.08559C15.2418 5.46059 15.154 5.78734 14.9783 6.06583C14.8027 6.34432 14.5518 6.5594 14.2256 6.71105C13.9022 6.85995 13.5216 6.9344 13.0839 6.9344H11.2522V5.96243Z" fill="white"/>
<path d="M19.3667 9.29193C18.7282 9.29193 18.172 9.16647 17.6981 8.91556C17.2269 8.66188 16.8631 8.30067 16.6066 7.83192C16.3529 7.36317 16.226 6.81307 16.226 6.18164C16.226 5.55296 16.3529 5.00563 16.6066 4.53964C16.8631 4.07364 17.2269 3.71519 17.6981 3.46427C18.172 3.21335 18.7282 3.08789 19.3667 3.08789C20.0023 3.08789 20.5558 3.21335 21.0269 3.46427C21.4981 3.71519 21.8605 4.07364 22.1142 4.53964C22.3679 5.00563 22.4948 5.55296 22.4948 6.18164C22.4948 6.81307 22.3679 7.36317 22.1142 7.83192C21.8605 8.30067 21.4981 8.66188 21.0269 8.91556C20.5558 9.16647 20.0023 9.29193 19.3667 9.29193ZM19.3667 8.23725C19.7514 8.23725 20.086 8.15453 20.3704 7.98909C20.6575 7.82089 20.8778 7.58238 21.0311 7.27355C21.1844 6.96473 21.2611 6.60076 21.2611 6.18164C21.2611 5.76804 21.1844 5.4082 21.0311 5.10214C20.8778 4.79331 20.6575 4.55618 20.3704 4.39074C20.086 4.2253 19.7514 4.14258 19.3667 4.14258C18.9791 4.14258 18.6418 4.2253 18.3546 4.39074C18.0675 4.55618 17.8458 4.79331 17.6897 5.10214C17.5364 5.4082 17.4597 5.76804 17.4597 6.18164C17.4597 6.60076 17.5364 6.96473 17.6897 7.27355C17.8458 7.58238 18.0675 7.82089 18.3546 7.98909C18.6418 8.15453 18.9791 8.23725 19.3667 8.23725Z" fill="white"/>
<defs>
<linearGradient id="paint0_linear_4627_17303" x1="-1.47733e-08" y1="1.08041" x2="26.0462" y2="1.19156" gradientUnits="userSpaceOnUse">
<stop stop-color="#EBE8FC"/>
<stop offset="1" stop-color="#FDE2E5"/>
</linearGradient>
<linearGradient id="paint1_linear_4627_17303" x1="0.5" y1="1.49037" x2="25.5444" y2="1.60248" gradientUnits="userSpaceOnUse">
<stop stop-color="#6C69FF"/>
<stop offset="1" stop-color="#FF3737"/>
</linearGradient>
</defs>
</svg>
