<svg width="26" height="12" viewBox="0 0 26 12" fill="none" xmlns="http://www.w3.org/2000/svg">
<rect width="26" height="12" rx="5.97297" fill="url(#paint0_linear_4386_24014)"/>
<path d="M6.13065 9.1771H4.91602V3.20881H6.13065V9.1771ZM5.59539 6.17021H7.19705C7.40567 6.17021 7.58821 6.13023 7.74467 6.05026C7.90113 5.9703 8.02191 5.85587 8.107 5.70697C8.19209 5.55808 8.23464 5.38436 8.23464 5.18583C8.23464 4.9873 8.19209 4.81359 8.107 4.66469C8.02191 4.5158 7.89976 4.40137 7.74055 4.3214C7.58134 4.24144 7.39606 4.20146 7.1847 4.20146H5.59539V3.20881H7.32469C7.7529 3.20881 8.12621 3.29015 8.44463 3.45284C8.76578 3.61276 9.01283 3.84162 9.18576 4.13942C9.36143 4.43721 9.44927 4.78602 9.44927 5.18583C9.44927 5.58565 9.36143 5.93446 9.18576 6.23225C9.01283 6.53004 8.76578 6.76028 8.44463 6.92297C8.12621 7.08289 7.7529 7.16286 7.32469 7.16286H5.59539V6.17021Z" fill="white"/>
<path d="M11.847 9.1771H10.6324V3.20881H11.847V9.1771ZM15.3056 9.1771H13.9592L12.2999 6.42664H13.5022L15.3056 9.1771ZM11.2788 5.96341H12.9917C13.2936 5.96341 13.5324 5.8862 13.7081 5.73179C13.8838 5.57738 13.9716 5.36782 13.9716 5.10311C13.9716 4.82738 13.8838 4.60817 13.7081 4.44548C13.5324 4.2828 13.2936 4.20146 12.9917 4.20146H11.2788V3.20881H13.0822C13.5132 3.20881 13.8879 3.28602 14.2063 3.44043C14.5274 3.59208 14.7745 3.80991 14.9474 4.09392C15.1204 4.37517 15.2068 4.70605 15.2068 5.08657C15.2068 5.46157 15.1204 5.78832 14.9474 6.06681C14.7745 6.3453 14.5274 6.56037 14.2063 6.71203C13.8879 6.86093 13.5132 6.93537 13.0822 6.93537H11.2788V5.96341Z" fill="white"/>
<path d="M19.268 9.29291C18.6394 9.29291 18.0918 9.16745 17.6252 8.91653C17.1613 8.66286 16.8031 8.30164 16.5505 7.83289C16.3007 7.36414 16.1758 6.81405 16.1758 6.18262C16.1758 5.55394 16.3007 5.00661 16.5505 4.54061C16.8031 4.07462 17.1613 3.71616 17.6252 3.46525C18.0918 3.21433 18.6394 3.08887 19.268 3.08887C19.8938 3.08887 20.4387 3.21433 20.9026 3.46525C21.3665 3.71616 21.7233 4.07462 21.9731 4.54061C22.2229 5.00661 22.3478 5.55394 22.3478 6.18262C22.3478 6.81405 22.2229 7.36414 21.9731 7.83289C21.7233 8.30164 21.3665 8.66286 20.9026 8.91653C20.4387 9.16745 19.8938 9.29291 19.268 9.29291ZM19.268 8.23822C19.6468 8.23822 19.9762 8.1555 20.2562 7.99006C20.5389 7.82186 20.7558 7.58335 20.9067 7.27453C21.0577 6.96571 21.1332 6.60173 21.1332 6.18262C21.1332 5.76901 21.0577 5.40918 20.9067 5.10311C20.7558 4.79429 20.5389 4.55716 20.2562 4.39172C19.9762 4.22628 19.6468 4.14355 19.268 4.14355C18.8865 4.14355 18.5543 4.22628 18.2716 4.39172C17.9889 4.55716 17.7706 4.79429 17.6169 5.10311C17.466 5.40918 17.3905 5.76901 17.3905 6.18262C17.3905 6.60173 17.466 6.96571 17.6169 7.27453C17.7706 7.58335 17.9889 7.82186 18.2716 7.99006C18.5543 8.1555 18.8865 8.23822 19.268 8.23822Z" fill="white"/>
<defs>
<linearGradient id="paint0_linear_4386_24014" x1="-1.47733e-08" y1="1.08041" x2="26.0462" y2="1.19156" gradientUnits="userSpaceOnUse">
<stop stop-color="#6C69FF"/>
<stop offset="1" stop-color="#FF3737"/>
</linearGradient>
</defs>
</svg>
