<svg width="128" height="128" viewBox="0 0 128 128" fill="none" xmlns="http://www.w3.org/2000/svg">
<g clip-path="url(#clip0_4394_12179)">
<g filter="url(#filter0_dddd_4394_12179)">
<path d="M23 26.0553C23 21.0542 27.0542 17 32.0553 17H82.2427C83.4466 17 84.6009 17.4795 85.4505 18.3324L103.42 36.3728C104.266 37.2214 104.74 38.3703 104.74 39.5681V101.362C104.74 106.363 100.686 110.418 95.685 110.418H32.0553C27.0542 110.418 23 106.363 23 101.362V26.0553Z" fill="url(#paint0_linear_4394_12179)"/>
</g>
<mask id="mask0_4394_12179" style="mask-type:alpha" maskUnits="userSpaceOnUse" x="23" y="17" width="82" height="94">
<path d="M23 26.0553C23 21.0542 27.0542 17 32.0553 17H83.3825C84.574 17 85.7174 17.4696 86.5649 18.3071L103.395 34.9381C104.256 35.7887 104.74 36.9484 104.74 38.1586V101.362C104.74 106.363 100.686 110.418 95.685 110.418H32.0553C27.0542 110.418 23 106.363 23 101.362V26.0553Z" fill="url(#paint1_linear_4394_12179)"/>
</mask>
<g mask="url(#mask0_4394_12179)">
<path fill-rule="evenodd" clip-rule="evenodd" d="M37.5964 29.4063C37.5964 28.1971 38.5767 27.2168 39.7859 27.2168H53.6526C54.8618 27.2168 55.842 28.1971 55.842 29.4063C55.842 30.6155 54.8618 31.5957 53.6526 31.5957H39.7859C38.5767 31.5957 37.5964 30.6155 37.5964 29.4063Z" fill="#6A6A6A"/>
<path fill-rule="evenodd" clip-rule="evenodd" d="M37.5965 37.4352C37.5965 36.6291 38.25 35.9756 39.0561 35.9756H88.6842C89.4903 35.9756 90.1438 36.6291 90.1438 37.4352C90.1438 38.2414 89.4903 38.8949 88.6842 38.8949H39.0561C38.25 38.8949 37.5965 38.2414 37.5965 37.4352ZM37.5965 43.2738C37.5965 42.4677 38.25 41.8142 39.0561 41.8142H88.6842C89.4903 41.8142 90.1438 42.4677 90.1438 43.2738C90.1438 44.08 89.4903 44.7335 88.6842 44.7335H39.0561C38.25 44.7335 37.5965 44.08 37.5965 43.2738ZM37.5965 49.1124C37.5965 48.3062 38.25 47.6527 39.0561 47.6527H40.5158C41.3219 47.6527 41.9754 48.3062 41.9754 49.1124C41.9754 49.9185 41.3219 50.572 40.5158 50.572H39.0561C38.25 50.572 37.5965 49.9185 37.5965 49.1124ZM43.435 49.1124C43.435 48.3062 44.0885 47.6527 44.8947 47.6527H77.007C77.8131 47.6527 78.4666 48.3062 78.4666 49.1124C78.4666 49.9185 77.8131 50.572 77.007 50.572H44.8947C44.0885 50.572 43.435 49.9185 43.435 49.1124ZM37.5964 54.9507C37.5964 54.1445 38.2499 53.491 39.0561 53.491H40.5157C41.3219 53.491 41.9754 54.1445 41.9754 54.9507C41.9754 55.7568 41.3219 56.4103 40.5157 56.4103H39.0561C38.2499 56.4103 37.5964 55.7568 37.5964 54.9507ZM43.435 54.9507C43.435 54.1445 44.0885 53.491 44.8947 53.491H82.8456C83.6517 53.491 84.3052 54.1445 84.3052 54.9507C84.3052 55.7568 83.6517 56.4103 82.8456 56.4103H44.8947C44.0885 56.4103 43.435 55.7568 43.435 54.9507Z" fill="#6A6A6A"/>
<g filter="url(#filter1_ddi_4394_12179)">
<path d="M84.3661 29.3571V19.3538C84.3661 18.1035 83.3526 17.09 82.1023 17.09L88.8938 14.8262L97.9491 23.8815L107.004 32.9368L104.741 39.7283C104.741 38.6566 103.872 37.7879 102.8 37.7879H92.7969C88.1407 37.7879 84.3661 34.0133 84.3661 29.3571Z" fill="url(#paint2_linear_4394_12179)"/>
</g>
</g>
<g filter="url(#filter2_dd_4394_12179)">
<rect x="33.2175" y="63.709" width="61.3053" height="37.9509" rx="5.8386" fill="url(#paint3_linear_4394_12179)"/>
</g>
<g filter="url(#filter3_di_4394_12179)">
<path d="M40.5159 93.4046V72.4678H46.6738L52.8317 80.1651L58.9896 72.4678H65.1474V93.4046H58.9896V81.3967L52.8317 89.0941L46.6738 81.3967V93.4046H40.5159ZM79.0027 93.4046L69.7659 83.2441H75.9238V72.4678H82.0817V83.2441H88.2395L79.0027 93.4046Z" fill="url(#paint4_linear_4394_12179)"/>
</g>
</g>
<defs>
<filter id="filter0_dddd_4394_12179" x="20.0807" y="15.5404" width="102.175" height="122.611" filterUnits="userSpaceOnUse" color-interpolation-filters="sRGB">
<feFlood flood-opacity="0" result="BackgroundImageFix"/>
<feColorMatrix in="SourceAlpha" type="matrix" values="0 0 0 0 0 0 0 0 0 0 0 0 0 0 0 0 0 0 127 0" result="hardAlpha"/>
<feOffset dy="1.45965"/>
<feGaussianBlur stdDeviation="1.45965"/>
<feColorMatrix type="matrix" values="0 0 0 0 0 0 0 0 0 0 0 0 0 0 0 0 0 0 0.16 0"/>
<feBlend mode="normal" in2="BackgroundImageFix" result="effect1_dropShadow_4394_12179"/>
<feColorMatrix in="SourceAlpha" type="matrix" values="0 0 0 0 0 0 0 0 0 0 0 0 0 0 0 0 0 0 127 0" result="hardAlpha"/>
<feOffset dx="2.9193" dy="4.37895"/>
<feGaussianBlur stdDeviation="2.9193"/>
<feColorMatrix type="matrix" values="0 0 0 0 0 0 0 0 0 0 0 0 0 0 0 0 0 0 0.14 0"/>
<feBlend mode="normal" in2="effect1_dropShadow_4394_12179" result="effect2_dropShadow_4394_12179"/>
<feColorMatrix in="SourceAlpha" type="matrix" values="0 0 0 0 0 0 0 0 0 0 0 0 0 0 0 0 0 0 127 0" result="hardAlpha"/>
<feOffset dx="4.37895" dy="11.6772"/>
<feGaussianBlur stdDeviation="3.64912"/>
<feColorMatrix type="matrix" values="0 0 0 0 0 0 0 0 0 0 0 0 0 0 0 0 0 0 0.08 0"/>
<feBlend mode="normal" in2="effect2_dropShadow_4394_12179" result="effect3_dropShadow_4394_12179"/>
<feColorMatrix in="SourceAlpha" type="matrix" values="0 0 0 0 0 0 0 0 0 0 0 0 0 0 0 0 0 0 127 0" result="hardAlpha"/>
<feOffset dx="8.75789" dy="18.9754"/>
<feGaussianBlur stdDeviation="4.37895"/>
<feColorMatrix type="matrix" values="0 0 0 0 0 0 0 0 0 0 0 0 0 0 0 0 0 0 0.02 0"/>
<feBlend mode="normal" in2="effect3_dropShadow_4394_12179" result="effect4_dropShadow_4394_12179"/>
<feBlend mode="normal" in="SourceGraphic" in2="effect4_dropShadow_4394_12179" result="shape"/>
</filter>
<filter id="filter1_ddi_4394_12179" x="27.7704" y="-39.5057" width="133.566" height="133.566" filterUnits="userSpaceOnUse" color-interpolation-filters="sRGB">
<feFlood flood-opacity="0" result="BackgroundImageFix"/>
<feColorMatrix in="SourceAlpha" type="matrix" values="0 0 0 0 0 0 0 0 0 0 0 0 0 0 0 0 0 0 127 0" result="hardAlpha"/>
<feOffset dx="-0.905531" dy="0.905531"/>
<feGaussianBlur stdDeviation="1.3583"/>
<feComposite in2="hardAlpha" operator="out"/>
<feColorMatrix type="matrix" values="0 0 0 0 0 0 0 0 0 0 0 0 0 0 0 0 0 0 0.29 0"/>
<feBlend mode="normal" in2="BackgroundImageFix" result="effect1_dropShadow_4394_12179"/>
<feColorMatrix in="SourceAlpha" type="matrix" values="0 0 0 0 0 0 0 0 0 0 0 0 0 0 0 0 0 0 127 0" result="hardAlpha"/>
<feOffset/>
<feGaussianBlur stdDeviation="27.1659"/>
<feComposite in2="hardAlpha" operator="out"/>
<feColorMatrix type="matrix" values="0 0 0 0 0 0 0 0 0 0 0 0 0 0 0 0 0 0 0.37 0"/>
<feBlend mode="normal" in2="effect1_dropShadow_4394_12179" result="effect2_dropShadow_4394_12179"/>
<feBlend mode="normal" in="SourceGraphic" in2="effect2_dropShadow_4394_12179" result="shape"/>
<feColorMatrix in="SourceAlpha" type="matrix" values="0 0 0 0 0 0 0 0 0 0 0 0 0 0 0 0 0 0 127 0" result="hardAlpha"/>
<feOffset dy="-0.452766"/>
<feGaussianBlur stdDeviation="1.58762"/>
<feComposite in2="hardAlpha" operator="arithmetic" k2="-1" k3="1"/>
<feColorMatrix type="matrix" values="0 0 0 0 0.345833 0 0 0 0 0.345833 0 0 0 0 0.345833 0 0 0 1 0"/>
<feBlend mode="normal" in2="shape" result="effect3_innerShadow_4394_12179"/>
</filter>
<filter id="filter2_dd_4394_12179" x="20.3082" y="54.2421" width="87.1239" height="63.7699" filterUnits="userSpaceOnUse" color-interpolation-filters="sRGB">
<feFlood flood-opacity="0" result="BackgroundImageFix"/>
<feColorMatrix in="SourceAlpha" type="matrix" values="0 0 0 0 0 0 0 0 0 0 0 0 0 0 0 0 0 0 127 0" result="hardAlpha"/>
<feOffset dy="0.860624"/>
<feGaussianBlur stdDeviation="1.72125"/>
<feComposite in2="hardAlpha" operator="out"/>
<feColorMatrix type="matrix" values="0 0 0 0 0 0 0 0 0 0 0 0 0 0 0 0 0 0 0.13 0"/>
<feBlend mode="normal" in2="BackgroundImageFix" result="effect1_dropShadow_4394_12179"/>
<feColorMatrix in="SourceAlpha" type="matrix" values="0 0 0 0 0 0 0 0 0 0 0 0 0 0 0 0 0 0 127 0" result="hardAlpha"/>
<feOffset dy="3.4425"/>
<feGaussianBlur stdDeviation="6.45468"/>
<feComposite in2="hardAlpha" operator="out"/>
<feColorMatrix type="matrix" values="0 0 0 0 0 0 0 0 0 0 0 0 0 0 0 0 0 0 0.1 0"/>
<feBlend mode="normal" in2="effect1_dropShadow_4394_12179" result="effect2_dropShadow_4394_12179"/>
<feBlend mode="normal" in="SourceGraphic" in2="effect2_dropShadow_4394_12179" result="shape"/>
</filter>
<filter id="filter3_di_4394_12179" x="33.2176" y="66.6292" width="62.3201" height="35.533" filterUnits="userSpaceOnUse" color-interpolation-filters="sRGB">
<feFlood flood-opacity="0" result="BackgroundImageFix"/>
<feColorMatrix in="SourceAlpha" type="matrix" values="0 0 0 0 0 0 0 0 0 0 0 0 0 0 0 0 0 0 127 0" result="hardAlpha"/>
<feOffset dy="1.45965"/>
<feGaussianBlur stdDeviation="3.64912"/>
<feComposite in2="hardAlpha" operator="out"/>
<feColorMatrix type="matrix" values="0 0 0 0 0.261267 0 0 0 0 0.41126 0 0 0 0 0.420833 0 0 0 0.25 0"/>
<feBlend mode="normal" in2="BackgroundImageFix" result="effect1_dropShadow_4394_12179"/>
<feBlend mode="normal" in="SourceGraphic" in2="effect1_dropShadow_4394_12179" result="shape"/>
<feColorMatrix in="SourceAlpha" type="matrix" values="0 0 0 0 0 0 0 0 0 0 0 0 0 0 0 0 0 0 127 0" result="hardAlpha"/>
<feOffset dx="0.58386" dy="0.58386"/>
<feGaussianBlur stdDeviation="0.729825"/>
<feComposite in2="hardAlpha" operator="arithmetic" k2="-1" k3="1"/>
<feColorMatrix type="matrix" values="0 0 0 0 0.608333 0 0 0 0 0.7885 0 0 0 0 1 0 0 0 0.25 0"/>
<feBlend mode="normal" in2="shape" result="effect2_innerShadow_4394_12179"/>
</filter>
<linearGradient id="paint0_linear_4394_12179" x1="23" y1="13.3509" x2="104.74" y2="114.796" gradientUnits="userSpaceOnUse">
<stop stop-color="#464748"/>
<stop offset="1" stop-color="#343638"/>
</linearGradient>
<linearGradient id="paint1_linear_4394_12179" x1="27.5411" y1="17" x2="63.6627" y2="89.502" gradientUnits="userSpaceOnUse">
<stop stop-color="#EBEBEB"/>
<stop offset="1" stop-color="#FAFAFB"/>
</linearGradient>
<linearGradient id="paint2_linear_4394_12179" x1="96.8172" y1="27.8432" x2="88.3278" y2="36.3326" gradientUnits="userSpaceOnUse">
<stop stop-color="#333436"/>
<stop offset="1" stop-color="#454647"/>
</linearGradient>
<linearGradient id="paint3_linear_4394_12179" x1="36.8069" y1="58.2891" x2="96.552" y2="105.613" gradientUnits="userSpaceOnUse">
<stop stop-color="#1C1D1F"/>
<stop offset="1" stop-color="#2C3037"/>
</linearGradient>
<linearGradient id="paint4_linear_4394_12179" x1="64.3777" y1="72.4678" x2="64.8506" y2="99.7222" gradientUnits="userSpaceOnUse">
<stop stop-color="white"/>
<stop offset="1" stop-color="#C0C3C9"/>
</linearGradient>
<clipPath id="clip0_4394_12179">
<rect width="128" height="128" fill="white"/>
</clipPath>
</defs>
</svg>
