<svg width="128" height="128" viewBox="0 0 128 128" fill="none" xmlns="http://www.w3.org/2000/svg">
<g clip-path="url(#clip0_4394_12210)">
<g filter="url(#filter0_dddd_4394_12210)">
<path d="M23 26.0553C23 21.0542 27.0542 17 32.0553 17H82.2427C83.4466 17 84.6009 17.4795 85.4505 18.3324L103.42 36.3728C104.266 37.2214 104.74 38.3703 104.74 39.5681V101.362C104.74 106.363 100.686 110.418 95.685 110.418H32.0553C27.0542 110.418 23 106.363 23 101.362V26.0553Z" fill="url(#paint0_linear_4394_12210)"/>
</g>
<mask id="mask0_4394_12210" style="mask-type:alpha" maskUnits="userSpaceOnUse" x="23" y="17" width="82" height="94">
<path d="M23 26.0553C23 21.0542 27.0542 17 32.0553 17H83.3825C84.574 17 85.7174 17.4696 86.5649 18.3071L103.395 34.9381C104.256 35.7887 104.74 36.9484 104.74 38.1586V101.362C104.74 106.363 100.686 110.418 95.685 110.418H32.0553C27.0542 110.418 23 106.363 23 101.362V26.0553Z" fill="url(#paint1_linear_4394_12210)"/>
</mask>
<g mask="url(#mask0_4394_12210)">
<path fill-rule="evenodd" clip-rule="evenodd" d="M38.0342 40.3532C38.0342 38.1766 39.7986 36.4121 41.9752 36.4121H61.5345C63.7111 36.4121 65.4756 38.1766 65.4756 40.3532V52.0304C65.4756 54.2069 63.7111 55.9714 61.5345 55.9714H41.9752C39.7986 55.9714 38.0342 54.2069 38.0342 52.0304V40.3532ZM41.9752 38.4556C40.9272 38.4556 40.0777 39.3052 40.0777 40.3532V52.0304C40.0777 53.0783 40.9272 53.9279 41.9752 53.9279H61.5345C62.5825 53.9279 63.4321 53.0783 63.4321 52.0304V40.3532C63.4321 39.3052 62.5825 38.4556 61.5345 38.4556H41.9752ZM46.9316 43.8341C47.8463 42.5676 49.7324 42.5676 50.6472 43.8341L52.8523 46.8875L53.3764 46.1763C54.2922 44.9333 56.1503 44.9333 57.0662 46.1763L59.5637 49.5659C59.8985 50.0202 59.8016 50.6598 59.3473 50.9945C58.893 51.3293 58.2533 51.2324 57.9186 50.7781L55.421 47.3885C55.3219 47.2539 55.1207 47.2539 55.0215 47.3885L54.1088 48.6272L54.7928 49.5743C55.1232 50.0317 55.0202 50.6704 54.5627 51.0008C54.1053 51.3312 53.4666 51.2282 53.1362 50.7707L48.9905 45.0306C48.8915 44.8935 48.6873 44.8935 48.5882 45.0306L44.4426 50.7707C44.1122 51.2282 43.4735 51.3312 43.016 51.0008C42.5586 50.6704 42.4556 50.0317 42.786 49.5743L46.9316 43.8341Z" fill="#515151"/>
<path d="M59.1811 42.5098C59.1811 42.7637 58.9753 42.9696 58.7213 42.9696C58.4674 42.9696 58.2615 42.7637 58.2615 42.5098C58.2615 42.2558 58.4674 42.05 58.7213 42.05C58.9753 42.05 59.1811 42.2558 59.1811 42.5098Z" fill="#515151" stroke="#515151" stroke-width="1.26989"/>
<path fill-rule="evenodd" clip-rule="evenodd" d="M37.5963 29.4063C37.5963 28.1971 38.5766 27.2168 39.7858 27.2168H53.6525C54.8617 27.2168 55.8419 28.1971 55.8419 29.4063C55.8419 30.6155 54.8617 31.5957 53.6525 31.5957H39.7858C38.5766 31.5957 37.5963 30.6155 37.5963 29.4063Z" fill="#515151"/>
<path fill-rule="evenodd" clip-rule="evenodd" d="M69.7086 37.4343C69.7086 36.6281 70.3621 35.9746 71.1683 35.9746H88.6841C89.4902 35.9746 90.1437 36.6281 90.1437 37.4343C90.1437 38.2404 89.4902 38.8939 88.6841 38.8939H71.1683C70.3621 38.8939 69.7086 38.2404 69.7086 37.4343ZM69.7086 43.2728C69.7086 42.4667 70.3621 41.8132 71.1683 41.8132H88.6841C89.4902 41.8132 90.1437 42.4667 90.1437 43.2728C90.1437 44.079 89.4902 44.7325 88.6841 44.7325H71.1683C70.3621 44.7325 69.7086 44.079 69.7086 43.2728ZM69.7086 49.1114C69.7086 48.3053 70.3621 47.6518 71.1683 47.6518H88.6841C89.4902 47.6518 90.1437 48.3053 90.1437 49.1114C90.1437 49.9175 89.4902 50.5711 88.6841 50.5711H71.1683C70.3621 50.5711 69.7086 49.9175 69.7086 49.1114ZM69.7086 54.95C69.7086 54.1438 70.3621 53.4903 71.1683 53.4903H88.6841C89.4902 53.4903 90.1437 54.1438 90.1437 54.95C90.1437 55.7561 89.4902 56.4096 88.6841 56.4096H71.1683C70.3621 56.4096 69.7086 55.7561 69.7086 54.95ZM37.5963 62.2487C37.5963 61.4425 38.2498 60.789 39.056 60.789H88.684C89.4902 60.789 90.1437 61.4425 90.1437 62.2487C90.1437 63.0548 89.4902 63.7083 88.684 63.7083H39.056C38.2498 63.7083 37.5963 63.0548 37.5963 62.2487ZM37.5963 69.5469C37.5963 68.7407 38.2498 68.0872 39.056 68.0872H88.684C89.4902 68.0872 90.1437 68.7407 90.1437 69.5469C90.1437 70.353 89.4902 71.0065 88.684 71.0065H39.056C38.2498 71.0065 37.5963 70.353 37.5963 69.5469ZM37.5963 75.3855C37.5963 74.5793 38.2498 73.9258 39.056 73.9258H88.684C89.4902 73.9258 90.1437 74.5793 90.1437 75.3855C90.1437 76.1916 89.4902 76.8451 88.684 76.8451H39.056C38.2498 76.8451 37.5963 76.1916 37.5963 75.3855ZM37.5963 82.6842C37.5963 81.878 38.2498 81.2245 39.056 81.2245H88.684C89.4902 81.2245 90.1437 81.878 90.1437 82.6842C90.1437 83.4903 89.4902 84.1438 88.684 84.1438H39.056C38.2498 84.1438 37.5963 83.4903 37.5963 82.6842ZM37.5963 89.9814C37.5963 89.1753 38.2498 88.5218 39.056 88.5218H88.684C89.4902 88.5218 90.1437 89.1753 90.1437 89.9814C90.1437 90.7876 89.4902 91.4411 88.684 91.4411H39.056C38.2498 91.4411 37.5963 90.7876 37.5963 89.9814ZM37.5963 97.2802C37.5963 96.4741 38.2498 95.8206 39.056 95.8206H88.684C89.4902 95.8206 90.1437 96.4741 90.1437 97.2802C90.1437 98.0864 89.4902 98.7399 88.684 98.7399H39.056C38.2498 98.7399 37.5963 98.0864 37.5963 97.2802Z" fill="#515151"/>
<g filter="url(#filter1_ddi_4394_12210)">
<path d="M84.366 29.3571V19.3538C84.366 18.1035 83.3525 17.09 82.1022 17.09L88.8937 14.8262L97.949 23.8815L107.004 32.9368L104.74 39.7283C104.74 38.6566 103.872 37.7879 102.8 37.7879H92.7968C88.1406 37.7879 84.366 34.0133 84.366 29.3571Z" fill="url(#paint2_linear_4394_12210)"/>
</g>
</g>
<path d="M52.7276 63.1214C52.7283 63.1224 52.7276 63.1237 52.7265 63.1237C51.3434 63.1237 50.0312 63.1307 48.7189 63.1219C47.7532 63.1149 46.7329 62.5102 46.4764 61.6987C46.34 61.271 46.3182 60.7627 46.4091 60.321C46.8111 58.3631 47.3767 56.4491 48.3115 54.6525C48.5752 54.1442 49.0117 53.8901 49.5537 53.8129C50.223 53.7183 50.9014 53.6534 51.5779 53.6272C52.3472 53.5956 53.122 53.6394 53.8913 53.6131C54.326 53.5991 54.7607 53.5325 55.1863 53.4414C55.3045 53.4168 55.43 53.2345 55.4718 53.1013C56.0247 51.303 56.5576 49.4994 57.1032 47.6993C57.9744 44.823 58.8328 41.9449 59.7349 39.0774C60.0004 38.2343 60.3678 37.4175 60.7515 36.6165C60.877 36.3536 61.1644 36.0942 61.4427 35.9785C64.9946 34.4904 68.5593 33.0303 72.1185 31.558C73.0188 31.1864 73.89 30.7412 74.8139 30.4432C75.4559 30.2364 76.1797 30.0839 76.8399 30.1523C78.0966 30.282 78.5131 31.0427 78.1694 32.2171C77.5801 34.2327 77 36.2519 76.4289 38.2711C75.6196 41.1334 74.8175 43.9974 74.0209 46.8615C73.4826 48.7965 72.9624 50.7368 72.4204 52.6701C72.3295 52.9927 72.4532 53.0505 72.746 53.0505C74.3192 53.0505 75.8924 53.0417 77.4637 53.075C78.0312 53.0873 78.6077 53.1574 79.1588 53.2854C79.7972 53.4326 80.0445 53.9094 79.8735 54.5281C79.3097 56.5771 78.7514 58.6296 78.1567 60.6715C77.9948 61.2272 77.7129 61.7495 77.4892 62.2894C77.3492 62.6294 77.1091 62.7644 76.7162 62.7538C74.7047 62.7065 72.6932 62.682 70.6836 62.6504C70.5617 62.6487 70.4417 62.6504 70.3198 62.6539C69.5614 62.6785 69.525 62.6697 69.3232 63.3568C68.9776 64.5329 68.6921 65.723 68.3647 66.9044C67.9955 68.2383 67.6081 69.5669 67.2262 70.8955C66.6624 72.8551 66.0913 74.8129 65.5329 76.7743C65.1346 78.1765 64.7127 79.5752 64.3726 80.9897C64.0561 82.3043 63.7724 83.6311 63.5851 84.9667C63.4632 85.8378 64.0762 86.2375 64.9291 85.8992C66.546 85.2612 68.1319 84.5478 69.7524 83.9221C70.4999 83.6346 71.291 83.4208 72.0822 83.2788C72.9006 83.1316 73.388 83.5294 73.3625 84.3375C73.3334 85.3085 73.2552 86.2901 73.0606 87.2418C72.7969 88.5336 72.4259 89.8079 72.0603 91.0786C71.6257 92.5843 70.458 93.4326 69.0885 94.1197C67.0298 95.1521 64.8473 95.8619 62.6212 96.4351C60.3551 97.0188 58.0416 97.3676 55.6791 97.2501C53.0947 97.1222 50.7522 96.351 48.7044 94.7928C47.7768 94.0881 47.213 93.182 46.9056 92.0935C46.3637 90.1795 46.2182 88.2549 46.6838 86.3093C47.4349 83.1666 48.1551 80.0169 48.9717 76.8899C49.852 73.5211 50.8341 70.1786 51.7653 66.822C52.0781 65.6985 52.3763 64.5732 52.6764 63.4479C52.7087 63.3288 52.7145 63.2028 52.7251 63.122C52.7252 63.1207 52.7269 63.1204 52.7276 63.1214V63.1214ZM76.5289 31.6017C76.5289 31.6018 76.5289 31.6019 76.5288 31.6019C75.8959 31.8315 75.3176 32.0225 74.7575 32.2486C72.8806 33.0058 71 33.7612 69.1358 34.5482C67.0789 35.4159 65.0328 36.308 62.9904 37.2072C62.472 37.4351 62.0392 37.7173 61.8555 38.3377C61.2953 40.2255 60.6497 42.0904 60.0513 43.9676C59.4093 45.9816 58.7928 48.0043 58.1435 50.0164C57.647 51.5554 57.1141 53.0855 56.6067 54.621C56.4866 54.9838 56.2593 55.1082 55.8665 55.1082C54.1878 55.1082 52.5073 55.1591 50.8286 55.1451C49.9902 55.138 49.4373 55.3869 49.1663 56.2142C48.6898 57.6673 48.1369 59.0958 47.6331 60.5401C47.4603 61.0361 47.7968 61.5059 48.3552 61.5865C48.5934 61.6215 48.8371 61.6303 49.079 61.6233C50.4994 61.5795 51.9198 61.5286 53.3403 61.4761C54.2278 61.4428 54.5497 61.7337 54.4715 62.5663C54.4297 63.015 54.3478 63.4637 54.2333 63.9001C53.6767 66.042 53.1238 68.1857 52.5291 70.317C51.527 73.9102 50.4867 77.4929 49.4737 81.0826C48.6771 83.908 47.935 86.7493 47.8259 89.6922C47.7586 91.5116 48.337 93.1224 49.9283 94.2441C51.0578 95.0416 52.3854 95.3975 53.7386 95.6464C56.4175 96.1389 59.0692 95.897 61.6882 95.2678C64.2144 94.6613 66.5878 93.6517 68.923 92.5702C69.5341 92.288 70.2052 91.9392 70.4508 91.2697C71.1728 89.3031 71.582 87.2611 71.8584 85.1963V85.1963C71.8955 84.9245 71.5777 84.7409 71.3289 84.8566C70.8621 85.0736 70.4273 85.2763 69.9906 85.4733C69.3904 85.7449 68.7903 86.0131 68.1846 86.2708C67.0279 86.7633 65.8967 87.3365 64.5963 87.3961C62.723 87.4819 62.0119 86.432 62.0956 84.9772C62.1483 84.0588 62.4211 83.1456 62.6521 82.2447C63.185 80.1571 63.747 78.0748 64.3108 75.9943C64.8018 74.1784 65.3111 72.3678 65.8094 70.5554C66.2568 68.9253 66.6951 67.2935 67.1462 65.6634C67.4735 64.4838 67.8136 63.3077 68.1574 62.1334C68.2628 61.7758 68.4902 61.5041 68.8903 61.4393C69.3941 61.3569 69.9033 61.2675 70.4107 61.2465C72.2695 61.1711 74.13 61.1203 75.9888 61.0677C76.2252 61.0607 76.3689 61.0098 76.4453 60.7557C76.8417 59.4306 77.2655 58.1125 77.6729 56.7909C77.8259 56.2953 77.9712 55.7965 78.1225 55.2787C78.189 55.0512 78.0262 54.8134 77.7893 54.8103V54.8103C75.8833 54.798 73.9773 54.7963 72.0712 54.7735C71.6347 54.7682 71.1946 54.7244 70.7672 54.642C70.3325 54.5596 70.1761 54.2687 70.2907 53.855C70.8291 51.92 71.3674 49.9849 71.9148 48.0516C72.8151 44.8668 73.7281 41.6855 74.6247 38.499C75.2593 36.2419 75.8739 33.9778 76.5285 31.6016C76.5286 31.6014 76.5289 31.6014 76.5289 31.6017V31.6017Z" fill="url(#paint3_linear_4394_12210)"/>
<path d="M69.9107 87.3411C69.9103 87.3411 69.9099 87.3414 69.9098 87.3418C69.6061 88.4598 69.3061 89.5796 68.9879 90.6941C68.9588 90.7993 68.8151 90.8869 68.706 90.9553C66.7454 92.177 64.583 92.9254 62.3296 93.4442C61.0401 93.7405 59.747 94.0752 58.4357 94.219C56.5806 94.4223 54.691 94.6712 52.8595 94.0963C51.2645 93.5967 50.1605 92.6064 49.6949 90.9711C49.1475 89.0571 49.3839 87.1711 49.8659 85.3201C50.6097 82.4614 51.4973 79.6394 52.3121 76.7982C53.0832 74.1094 53.8689 71.4224 54.5909 68.7214C55.0947 66.8372 55.5148 64.9302 55.9513 63.0301C56.3624 61.2441 55.3548 60.0487 53.4579 60.068C52.3539 60.0802 51.2518 60.1398 50.1478 60.1766V60.1766C49.8878 60.186 49.7001 59.9269 49.7726 59.677C49.8898 59.2726 50.0015 58.8881 50.1169 58.5045C50.2715 57.9874 50.4515 57.4756 50.5806 56.9515C50.6589 56.6343 50.8171 56.5449 51.1481 56.5396C53.0687 56.5063 54.9874 56.4275 56.908 56.4117C57.61 56.4064 57.9592 56.0664 58.1502 55.4915C58.4411 54.6203 58.7249 53.7457 58.9959 52.8676C59.5178 51.1691 60.0307 49.4672 60.5418 47.7653C61.0274 46.1439 61.5039 44.5191 61.9876 42.8961C62.3896 41.5429 62.7861 40.188 63.2098 38.8401C63.2662 38.6596 63.439 38.4528 63.6118 38.3774C66.9873 36.9349 70.3701 35.5099 73.7529 34.0814C73.933 34.006 74.1058 33.9149 74.2913 33.8535C74.3051 33.8488 74.3192 33.8446 74.3333 33.8407C74.5229 33.7893 74.7494 33.9685 74.6932 34.1567V34.1567C74.3986 35.1488 74.0912 36.1374 73.7893 37.1277C73.2073 39.0382 72.6235 40.9487 72.0488 42.861C70.9503 46.519 69.8572 50.1788 68.7624 53.8369C68.4605 54.8465 69.1789 55.8946 70.3901 56.1575C70.783 56.2434 71.1958 56.2767 71.5996 56.2732C73.1873 56.2592 74.775 56.2241 76.3628 56.1891C76.6301 56.1838 76.7738 56.2189 76.6647 56.5326C76.33 57.4949 76.01 58.4642 75.6935 59.4335C75.6044 59.7051 75.408 59.7174 75.1643 59.7192C73.3037 59.7262 71.4432 59.7174 69.5844 59.7647C68.6914 59.7875 67.8021 60.0154 67.2583 60.7463C66.8836 61.2511 66.6454 61.8751 66.4581 62.478C65.7251 64.846 64.9976 67.2175 64.3447 69.6065C63.5226 72.6143 62.7679 75.6378 61.9967 78.6579C61.5402 80.4509 61.0928 82.2458 60.6709 84.0459C60.3708 85.3219 60.4454 86.5629 61.2602 87.6741C61.8512 88.4821 62.7297 88.7906 63.7082 88.9011C65.4705 89.1009 67.0219 88.4436 68.5769 87.7986C68.9824 87.6298 69.3792 87.4425 69.7811 87.2648C69.7944 87.2589 69.8098 87.2607 69.8214 87.2696C69.8512 87.2927 69.8818 87.3166 69.9113 87.3393C69.9121 87.3399 69.9117 87.3411 69.9107 87.3411V87.3411Z" fill="url(#paint4_linear_4394_12210)"/>
</g>
<defs>
<filter id="filter0_dddd_4394_12210" x="20.0807" y="15.5404" width="102.175" height="122.611" filterUnits="userSpaceOnUse" color-interpolation-filters="sRGB">
<feFlood flood-opacity="0" result="BackgroundImageFix"/>
<feColorMatrix in="SourceAlpha" type="matrix" values="0 0 0 0 0 0 0 0 0 0 0 0 0 0 0 0 0 0 127 0" result="hardAlpha"/>
<feOffset dy="1.45965"/>
<feGaussianBlur stdDeviation="1.45965"/>
<feColorMatrix type="matrix" values="0 0 0 0 0 0 0 0 0 0 0 0 0 0 0 0 0 0 0.16 0"/>
<feBlend mode="normal" in2="BackgroundImageFix" result="effect1_dropShadow_4394_12210"/>
<feColorMatrix in="SourceAlpha" type="matrix" values="0 0 0 0 0 0 0 0 0 0 0 0 0 0 0 0 0 0 127 0" result="hardAlpha"/>
<feOffset dx="2.9193" dy="4.37895"/>
<feGaussianBlur stdDeviation="2.9193"/>
<feColorMatrix type="matrix" values="0 0 0 0 0 0 0 0 0 0 0 0 0 0 0 0 0 0 0.14 0"/>
<feBlend mode="normal" in2="effect1_dropShadow_4394_12210" result="effect2_dropShadow_4394_12210"/>
<feColorMatrix in="SourceAlpha" type="matrix" values="0 0 0 0 0 0 0 0 0 0 0 0 0 0 0 0 0 0 127 0" result="hardAlpha"/>
<feOffset dx="4.37895" dy="11.6772"/>
<feGaussianBlur stdDeviation="3.64912"/>
<feColorMatrix type="matrix" values="0 0 0 0 0 0 0 0 0 0 0 0 0 0 0 0 0 0 0.08 0"/>
<feBlend mode="normal" in2="effect2_dropShadow_4394_12210" result="effect3_dropShadow_4394_12210"/>
<feColorMatrix in="SourceAlpha" type="matrix" values="0 0 0 0 0 0 0 0 0 0 0 0 0 0 0 0 0 0 127 0" result="hardAlpha"/>
<feOffset dx="8.75789" dy="18.9754"/>
<feGaussianBlur stdDeviation="4.37895"/>
<feColorMatrix type="matrix" values="0 0 0 0 0 0 0 0 0 0 0 0 0 0 0 0 0 0 0.02 0"/>
<feBlend mode="normal" in2="effect3_dropShadow_4394_12210" result="effect4_dropShadow_4394_12210"/>
<feBlend mode="normal" in="SourceGraphic" in2="effect4_dropShadow_4394_12210" result="shape"/>
</filter>
<filter id="filter1_ddi_4394_12210" x="27.7703" y="-39.5057" width="133.566" height="133.566" filterUnits="userSpaceOnUse" color-interpolation-filters="sRGB">
<feFlood flood-opacity="0" result="BackgroundImageFix"/>
<feColorMatrix in="SourceAlpha" type="matrix" values="0 0 0 0 0 0 0 0 0 0 0 0 0 0 0 0 0 0 127 0" result="hardAlpha"/>
<feOffset dx="-0.905531" dy="0.905531"/>
<feGaussianBlur stdDeviation="1.3583"/>
<feComposite in2="hardAlpha" operator="out"/>
<feColorMatrix type="matrix" values="0 0 0 0 0 0 0 0 0 0 0 0 0 0 0 0 0 0 0.29 0"/>
<feBlend mode="normal" in2="BackgroundImageFix" result="effect1_dropShadow_4394_12210"/>
<feColorMatrix in="SourceAlpha" type="matrix" values="0 0 0 0 0 0 0 0 0 0 0 0 0 0 0 0 0 0 127 0" result="hardAlpha"/>
<feOffset/>
<feGaussianBlur stdDeviation="27.1659"/>
<feComposite in2="hardAlpha" operator="out"/>
<feColorMatrix type="matrix" values="0 0 0 0 0 0 0 0 0 0 0 0 0 0 0 0 0 0 0.37 0"/>
<feBlend mode="normal" in2="effect1_dropShadow_4394_12210" result="effect2_dropShadow_4394_12210"/>
<feBlend mode="normal" in="SourceGraphic" in2="effect2_dropShadow_4394_12210" result="shape"/>
<feColorMatrix in="SourceAlpha" type="matrix" values="0 0 0 0 0 0 0 0 0 0 0 0 0 0 0 0 0 0 127 0" result="hardAlpha"/>
<feOffset dy="-0.452766"/>
<feGaussianBlur stdDeviation="1.58762"/>
<feComposite in2="hardAlpha" operator="arithmetic" k2="-1" k3="1"/>
<feColorMatrix type="matrix" values="0 0 0 0 0.345833 0 0 0 0 0.345833 0 0 0 0 0.345833 0 0 0 1 0"/>
<feBlend mode="normal" in2="shape" result="effect3_innerShadow_4394_12210"/>
</filter>
<linearGradient id="paint0_linear_4394_12210" x1="23" y1="13.3509" x2="104.74" y2="114.796" gradientUnits="userSpaceOnUse">
<stop stop-color="#464748"/>
<stop offset="1" stop-color="#343638"/>
</linearGradient>
<linearGradient id="paint1_linear_4394_12210" x1="27.5411" y1="17" x2="63.6627" y2="89.502" gradientUnits="userSpaceOnUse">
<stop stop-color="#EBEBEB"/>
<stop offset="1" stop-color="#FAFAFB"/>
</linearGradient>
<linearGradient id="paint2_linear_4394_12210" x1="96.8171" y1="27.8432" x2="88.3277" y2="36.3326" gradientUnits="userSpaceOnUse">
<stop stop-color="#333436"/>
<stop offset="1" stop-color="#454647"/>
</linearGradient>
<linearGradient id="paint3_linear_4394_12210" x1="79.9262" y1="100.42" x2="33.4147" y2="60.4637" gradientUnits="userSpaceOnUse">
<stop stop-color="#418CFF"/>
<stop offset="0.255208" stop-color="#3D8AFF"/>
<stop offset="1" stop-color="#5498FF"/>
</linearGradient>
<linearGradient id="paint4_linear_4394_12210" x1="76.7014" y1="97.295" x2="35.549" y2="65.4555" gradientUnits="userSpaceOnUse">
<stop stop-color="#418CFF"/>
<stop offset="0.255208" stop-color="#3D8AFF"/>
<stop offset="1" stop-color="#5498FF"/>
</linearGradient>
<clipPath id="clip0_4394_12210">
<rect width="128" height="128" fill="white"/>
</clipPath>
</defs>
</svg>
