<svg width="144" height="56" viewBox="0 0 144 56" fill="none" xmlns="http://www.w3.org/2000/svg">
<g clip-path="url(#clip0_4003_83951)">
<path d="M23.1561 8C19.7597 8 17.0117 10.7248 17.0117 14.0887V39.9125C17.0117 43.2737 19.7597 46 23.1561 46H49.2257C52.6195 46 55.3685 43.2739 55.3685 39.9125V39.6482C55.2543 39.6011 45.4 35.529 40.3913 33.143C37.0122 37.2627 32.6537 39.7621 28.1283 39.7621C20.4761 39.7621 17.8775 33.1272 21.5008 28.7597C22.2909 27.8076 23.6348 26.898 25.7206 26.3888C28.9836 25.5946 34.1765 26.8847 39.0436 28.4759C39.9191 26.8781 40.6556 25.1184 41.2042 23.2449H26.2054V21.7401H33.9394V19.0414H24.5721V17.5356H33.9394V13.6861C33.9394 13.6861 33.9394 13.0377 34.6026 13.0377H38.3834V17.5354H47.6437V19.0416H38.3834V21.7401H45.9422C45.2189 24.6757 44.1207 27.3779 42.742 29.75C45.0361 30.5721 47.0954 31.3519 48.6301 31.8611C53.7491 33.558 55.1839 33.7654 55.3689 33.7871V14.0888C55.3689 10.7249 52.6197 8.00013 49.226 8.00013H23.1565L23.1561 8ZM27.3624 28.5886C27.0339 28.5924 26.704 28.6101 26.3716 28.6426C25.4133 28.7379 23.6143 29.1568 22.6307 30.0188C19.6826 32.566 21.4471 37.2224 27.4139 37.2224C30.8825 37.2224 34.3481 35.0256 37.0706 31.5079C33.5606 29.8112 30.5376 28.5521 27.3624 28.5886Z" fill="#00A1E9"/>
<path d="M122.08 34.4166L120.367 38.1107L118.63 34.4166H116.932L119.576 39.5241V43.0869H121.133V39.5241L121.143 39.5042L123.776 34.4166H122.08ZM109.543 36.6515L110.751 40.2475H108.293L109.543 36.6515ZM111.122 41.3401L111.704 43.0864H113.336L110.123 34.416H108.875L105.672 43.0864H107.305L107.913 41.3401H111.122ZM98.9413 38.5614H97.2078V35.5952H98.9413C99.8128 35.5952 100.333 36.3523 100.333 37.0842C100.333 37.8003 99.8461 38.5613 98.9413 38.5613M99.0294 34.4163H95.6382V43.0868H97.2076V39.7534H99.0292C100.722 39.7534 101.904 38.6555 101.904 37.0842C101.904 35.5129 100.722 34.4165 99.0292 34.4165M87.7044 43.0869H89.2752V34.4165H87.7045L87.7044 43.0869ZM76.6636 34.4166V43.087H81.9471V41.9056H78.2332V34.4166H76.6636ZM67.7225 36.6515L68.929 40.2475H66.4722L67.7225 36.6515ZM69.3013 41.3401L69.8832 43.0864H71.5141L68.3005 34.416H67.0541L63.851 43.0864H65.4831L66.0904 41.3401H69.3013ZM80.3505 17.467H73.6178V15.0697H81.4249V13.5767H73.6178V10.5389H70.1373C69.7557 10.5389 69.4473 10.8571 69.4473 11.2483V13.5767H61.6949V15.0697H69.4473V17.4672H62.9042V18.9588H75.9371C75.9371 18.9588 75.215 21.7607 71.6398 24.7717C68.4369 22.3625 67.3666 20.4439 67.3666 20.4439H63.87C65.2847 22.8797 67.2945 24.8301 69.4591 26.3775C67.4707 27.661 64.8922 28.8982 61.5586 29.8887V31.676C61.5586 31.676 66.7019 30.7121 71.6732 27.8016C76.6525 30.6896 81.6529 31.676 81.6529 31.676V29.9841C78.4527 28.8266 75.917 27.5536 73.9259 26.3259C76.8099 24.203 79.3376 21.3215 80.3505 17.467ZM102.221 10.8381H98.7164V14.4765H90.0779V15.9417H98.7164V29.0227C98.6857 29.3224 98.4482 29.5557 98.1506 29.5717H96.369V31.0873H100.912C101.631 31.0581 102.205 30.4653 102.221 29.7308V15.9416H103.644V14.4764H102.221L102.221 10.8381ZM94.8301 18.4099C94.702 18.1502 94.4404 17.971 94.1362 17.9684H91.2162L93.4917 25.0861H96.9456L94.8301 18.4099ZM86.205 10.6659L82.1852 20.1133H85.2693V31.3547H88.6418V16.4432H87.4195L89.9592 10.666L86.205 10.6659ZM125.311 30.839L124.079 26.7047C123.997 26.4408 123.756 26.2499 123.471 26.2499H120.205L121.153 29.4255H117.313V23.2732H124.852V21.8093H117.313V18.9133H124.852V17.4494H106.039V18.9133H113.577V21.8092H106.039V23.2731H113.577V29.4254H106.039V30.8894H125.312L125.296 30.839H125.311ZM109.959 13.9567H120.938V16.1166H124.861V13.5574C124.859 13.5521 124.859 13.5494 124.859 13.5429C124.859 12.9674 124.406 12.502 123.844 12.4928H117.497V10.4786H113.393V12.4927H106.038V16.1166H109.959L109.959 13.9567Z" fill="white"/>
</g>
<defs>
<clipPath id="clip0_4003_83951">
<rect width="108.324" height="38" fill="white" transform="translate(17 8)"/>
</clipPath>
</defs>
</svg>
