<svg width="16" height="16" viewBox="0 0 16 16" fill="none" xmlns="http://www.w3.org/2000/svg">
<path d="M10.5444 1.91463L12.7381 5.05326C12.8525 5.21695 12.778 5.44465 12.589 5.50908L8.99632 6.73356C8.76295 6.8131 8.53858 6.59279 8.61386 6.35801L9.07075 4.93306C8.74292 4.8186 8.39655 4.75664 8.04441 4.75182C7.30789 4.74175 6.58982 4.98229 6.00798 5.43397C5.42615 5.88566 5.01509 6.52167 4.84223 7.23769C4.66938 7.9537 4.745 8.70721 5.05669 9.3746C5.36837 10.042 5.89762 10.5836 6.55761 10.9107C7.2176 11.2378 7.96915 11.3308 8.68898 11.1746C9.4088 11.0184 10.0542 10.6221 10.5192 10.0509C10.9841 9.47985 11.2412 8.76778 11.2483 8.03145C11.2523 7.61788 11.5906 7.28405 12.0062 7.28799C12.4217 7.29193 12.7538 7.63213 12.7498 8.04599C12.7394 9.12267 12.3634 10.1639 11.6836 10.9989C11.0036 11.8341 10.06 12.4135 9.00744 12.6419C7.95489 12.8704 6.85596 12.7343 5.89091 12.2561C4.92585 11.7778 4.15198 10.9858 3.69622 10.01C3.24047 9.03409 3.1299 7.93231 3.38264 6.88533C3.63539 5.83836 4.23645 4.90836 5.08723 4.2479C5.93801 3.58744 6.98799 3.23572 8.06493 3.25044C8.56684 3.2573 9.06072 3.34357 9.52929 3.50291L10.0128 1.9949C10.0886 1.75857 10.4022 1.71121 10.5444 1.91463Z" fill="#27292A"/>
</svg>
