<svg width="144" height="56" viewBox="0 0 144 56" fill="none" xmlns="http://www.w3.org/2000/svg">
<g clip-path="url(#clip0_4003_83955)">
<path d="M132.085 36.8966L133.731 41.3379C133.903 41.8355 134.089 42.4252 134.212 42.8749H134.243C134.384 42.4252 134.538 41.8502 134.724 41.3066L136.215 36.8966H137.66L135.609 42.2557C134.63 44.8357 133.963 46.1552 133.029 46.9624C132.625 47.3263 132.15 47.603 131.634 47.7751C131.522 47.5743 131.009 46.697 131.009 46.697C131.447 46.5529 131.853 46.3265 132.205 46.0299C132.702 45.6188 133.095 45.0976 133.355 44.5077C133.41 44.4062 133.447 44.2958 133.464 44.1815C133.451 44.0582 133.42 43.9375 133.37 43.824L130.589 36.8966H132.085ZM100.607 36.7252C102.905 36.7252 103.465 38.2935 103.465 39.801V42.6132C103.455 43.2164 103.496 43.8194 103.589 44.4155H102.347L102.238 43.4683H102.194C101.927 43.8238 101.579 44.1107 101.18 44.3052C100.78 44.4997 100.34 44.5963 99.8957 44.5869C98.3735 44.5869 97.5976 43.5144 97.5976 42.4271C97.5976 40.61 99.212 39.6167 102.118 39.6314V39.4766C102.118 38.8555 101.947 37.7369 100.41 37.7369C99.7805 37.7402 99.1618 37.8997 98.6093 38.2013L98.1394 37.3941C98.8837 36.9462 99.7384 36.7152 100.607 36.727V36.7252ZM126.185 36.7252C128.483 36.7252 129.043 38.2935 129.043 39.801V42.6132C129.033 43.2164 129.074 43.8194 129.166 44.4155H127.924L127.815 43.4683H127.769C127.503 43.8238 127.155 44.1107 126.755 44.3052C126.356 44.4997 125.916 44.5963 125.471 44.5869C123.949 44.5869 123.173 43.5144 123.173 42.4271C123.173 40.61 124.789 39.6167 127.694 39.6314V39.4766C127.694 38.8555 127.522 37.7369 125.985 37.7369C125.356 37.7401 124.737 37.8997 124.185 38.2013L123.719 37.3941C124.463 36.9466 125.317 36.7155 126.185 36.727V36.7252ZM84.5186 33.7765C85.8234 33.7765 86.6471 34.0567 87.0028 34.2428C87.0028 34.2428 86.59 34.9615 86.4205 35.2343C85.8269 35.0138 85.1978 34.9045 84.5647 34.9118C82.1099 34.9118 80.479 36.4801 80.479 39.2297C80.479 41.7931 81.9533 43.4388 84.502 43.4388C85.1592 43.4426 85.8123 43.3348 86.4334 43.12C86.5568 43.3356 86.9862 44.0765 86.9862 44.0765C86.4887 44.3252 85.4953 44.574 84.2219 44.574C81.2733 44.574 79.0489 42.7109 79.0489 39.2776C79.0508 36.0009 81.2714 33.7747 84.5186 33.7747V33.7765ZM74.3624 36.7252C76.8172 36.7252 77.4695 38.885 77.4695 40.2672C77.4674 40.4805 77.452 40.6934 77.4235 40.9048H72.1418C72.1731 42.7477 73.3525 43.5144 74.7218 43.5144C75.3344 43.5302 75.9449 43.436 76.5241 43.2361C76.6495 43.4425 77.0365 44.1041 77.0365 44.1041C76.2451 44.4341 75.3928 44.593 74.5357 44.5704C72.221 44.5704 70.8388 43.0481 70.8388 40.7795C70.8388 38.5109 72.1712 36.727 74.3661 36.727L74.3624 36.7252ZM107.719 34.7367V36.8966H109.676V37.9378H107.722V41.9921C107.722 42.9247 107.986 43.4517 108.747 43.4517C108.86 43.4517 108.961 43.4517 109.055 43.4388C109.215 43.7097 109.608 44.3824 109.608 44.3824C109.219 44.5176 108.808 44.5801 108.397 44.5667C107.759 44.5667 107.247 44.3639 106.923 43.9917C106.534 43.5881 106.394 42.921 106.394 42.0345V37.9378H105.229V36.8966H106.394V34.7385L107.719 34.7367ZM118.078 33.8668C119.414 33.8668 120.392 34.1783 121.013 34.7367C121.588 35.2343 121.935 35.9954 121.935 36.926C121.935 37.8567 121.655 38.6197 121.128 39.1633C120.413 39.9244 119.248 40.3133 117.928 40.3133C117.564 40.3246 117.199 40.2931 116.841 40.2193V44.4137H115.49V34.0696C116.346 33.9312 117.211 33.864 118.078 33.8687V33.8668ZM58.8158 33.9442L60.0579 39.2407C60.3694 40.5455 60.6476 41.8502 60.8338 42.8601H60.8651C61.0365 41.8189 61.3627 40.5768 61.7202 39.226L63.1245 33.9461H64.538L65.8114 39.2573C66.1063 40.4994 66.3864 41.7415 66.5486 42.8454H66.5799C66.7974 41.6954 67.0922 40.5307 67.4184 39.226L68.8006 33.9442H70.1828L67.2157 44.4137H65.8022L64.4827 38.9624C64.192 37.837 63.9638 36.6964 63.799 35.5457H63.7677C63.5533 36.6986 63.2771 37.8392 62.9402 38.9624L61.4659 44.4137H60.0524L57.3968 33.9442H58.8158ZM90.4656 33.3914V38.0815H90.4969C90.7283 37.6764 91.0669 37.3429 91.4755 37.1177C91.8997 36.868 92.382 36.7339 92.8743 36.7289C93.8842 36.7289 95.4985 37.3499 95.4985 39.9447V44.4174H94.1311V40.0977C94.1311 38.8869 93.6815 37.8604 92.3914 37.8604C91.9812 37.8681 91.5837 38.0041 91.2548 38.2494C90.9259 38.4946 90.6821 38.8368 90.5578 39.2278C90.4831 39.4368 90.4511 39.6586 90.4638 39.8802V44.4155H89.0963V33.3877L90.4656 33.3914ZM98.9595 42.2667C98.9595 43.1513 99.5492 43.5715 100.25 43.5715C100.647 43.582 101.037 43.4656 101.364 43.2393C101.691 43.013 101.937 42.6884 102.067 42.3128C102.115 42.1727 102.141 42.026 102.144 41.8779V40.5731C100.653 40.5473 98.9595 40.8109 98.9595 42.2667ZM124.537 42.2667C124.537 43.1513 125.127 43.5715 125.827 43.5715C126.224 43.582 126.615 43.4656 126.941 43.2393C127.268 43.013 127.514 42.6884 127.644 42.3128C127.692 42.1727 127.718 42.026 127.721 41.8779V40.5731C126.231 40.5473 124.537 40.8109 124.537 42.2667ZM74.2537 37.7056C72.8715 37.7056 72.2652 38.979 72.1565 39.9263H76.1482C76.1629 39.0564 75.7907 37.7056 74.2537 37.7056ZM118.115 34.9412C117.687 34.9294 117.26 34.9659 116.841 35.05V39.1191C117.208 39.2015 117.584 39.238 117.96 39.2278C119.591 39.2278 120.584 38.4354 120.584 36.9905C120.578 35.6084 119.6 34.9394 118.109 34.9394L118.115 34.9412ZM108.911 11.3394V14.0889H117.046V15.5172H108.911V18.5027H115.477C115.477 18.5027 114.635 22.7929 109.715 26.405C111.705 27.4536 114.322 28.1963 117.525 28.6975C117.525 28.6975 117.007 29.619 116.565 30.3285C113.063 29.7203 110.334 28.6551 108.192 27.4057C106.034 28.6865 103.244 29.8014 99.6358 30.428C99.3852 30.0594 98.6996 28.8431 98.6996 28.8431C101.971 28.3308 104.663 27.5033 106.676 26.4234C101.729 22.8758 100.778 18.499 100.778 18.499H107.326V15.5135H98.8766V14.0889H107.326V11.3394H108.911ZM60.7287 16.5953L61.9966 17.2679C61.394 18.6999 60.8338 19.6747 60.679 19.9807V30.3709H59.2544V22.2253C58.4362 23.331 57.9644 23.8968 57.7175 24.1677L56.9121 22.7726C58.438 21.1527 59.7907 18.9284 60.7287 16.5953ZM123.592 11.3965L125.25 11.7651L125.199 11.9014C124.524 13.6651 123.892 15.167 123.321 16.3649V30.3709H121.728V19.3817C121.149 20.3223 120.517 21.2298 119.836 22.1L118.964 20.5667C120.833 18.0235 122.405 14.9348 123.549 11.5034L123.592 11.3965ZM81.8759 11.3965L83.3779 11.7651C83.3779 11.7651 82.4214 14.7782 81.6898 16.3723V30.3783H80.103V19.437C79.4672 20.6349 79.0415 21.4218 78.5034 22.1258L77.6446 20.6386C79.869 17.83 81.8704 11.3928 81.8704 11.3928L81.8759 11.3965ZM71.775 11.3209L73.2033 11.6066L73.1701 11.7356C72.8752 12.8653 72.549 13.9747 72.2007 15.0362H76.4744V16.387H75.4442C75.1788 20.2221 74.4988 23.1928 73.4262 25.22C74.2777 26.8786 75.9178 28.4303 76.3749 28.8505C76.2717 29.0477 75.5566 30.2714 75.5566 30.2714C75.5566 30.2714 73.1811 27.8388 72.643 26.6611C72.0386 27.6766 70.9236 28.9924 69.4124 30.3469L68.6532 28.9979C68.6532 28.9979 70.7209 27.2822 71.893 25.2108C71.1523 23.3008 70.6683 21.301 70.4537 19.2638C70.203 19.7042 70.0667 19.942 69.8142 20.3198C69.8142 20.3198 69.1471 19.1606 69.0107 18.9431C70.2104 16.833 71.1097 14.347 71.7511 11.4407L71.775 11.3209ZM135.193 11.4831V15.9797H137.946V17.4872H135.182V27.2767C135.181 28.025 134.884 28.7427 134.356 29.2725C133.827 29.8024 133.11 30.1012 132.362 30.1037H130.519V28.4451H132.362C132.674 28.4446 132.972 28.3205 133.193 28.1001C133.413 27.8798 133.537 27.581 133.538 27.2693V17.4835H124.723V15.9761H133.536V11.4794L135.193 11.4831ZM95.681 23.4453V30.0226H84.502V23.4416L95.681 23.4453ZM68.2219 22.6602V26.2926C68.4891 26.0659 69.3074 25.3472 69.582 25.1021L70.2399 26.241L67.2249 28.786C67.2249 28.786 66.5873 27.6803 66.4583 27.4757C66.6426 27.2785 66.8729 26.8712 66.8729 26.0935V24.0055H64.1326C64.1326 27.1127 64.0072 28.2442 61.9358 29.8567C61.9358 29.8567 61.4364 28.9758 61.2134 28.6072C62.9936 27.2011 62.7817 25.279 62.7817 22.6565L68.2219 22.6602ZM94.1717 24.8717H86.0887V28.6699H94.168L94.1717 24.8717ZM113.251 19.9125H103.041C103.626 21.1288 105.069 23.4766 108.202 25.5186C111.305 23.4453 112.709 21.0735 113.251 19.9125ZM127.933 19.8148L130.816 24.3907L129.314 25.2108L126.616 20.6036L127.933 19.8148ZM74.0897 16.3833H71.7382C71.7142 16.4792 71.4931 17.0357 71.4433 17.1445C71.7363 19.9567 72.1694 22.1203 72.7333 23.5596C73.4318 21.8825 73.8888 19.472 74.0897 16.3833ZM95.8358 20.2976V21.6485H84.3454V20.2976H95.8358ZM68.9296 19.59V20.9408H62.4795V19.5992L68.9296 19.59ZM95.8358 17.1537V18.5045H84.3454V17.1537H95.8358ZM66.4896 11.6545V16.6063H67.9492V13.068H69.2208V17.8761H62.3321V13.1491H63.6774V16.6063H65.1351V11.6545H66.4896ZM60.7969 11.3265L62.0427 12.1429C61.0287 14.2623 59.6252 16.1721 57.9054 17.7729L57.1535 16.4663C58.5173 15.1505 59.8073 13.2947 60.7988 11.3246L60.7969 11.3265ZM90.0804 11.3946L91.2009 13.9341H96.9323V15.3605H83.3244V13.9323H89.6124L88.796 11.9512L90.0804 11.3946Z" fill="white"/>
<path d="M22.0276 33.6047C21.6895 33.7736 21.2994 33.8062 20.9379 33.6958C20.5765 33.5853 20.2712 33.3403 20.0852 33.0112L19.9894 32.8012L15.9793 23.9921C15.9346 23.895 15.9107 23.7895 15.9092 23.6825C15.9113 23.5472 15.9506 23.4151 16.0229 23.3006C16.0951 23.1861 16.1974 23.0937 16.3187 23.0336C16.44 22.9734 16.5754 22.9478 16.7103 22.9596C16.8451 22.9713 16.9741 23.02 17.0831 23.1002L21.8175 26.4708C22.1034 26.6589 22.4294 26.7772 22.7693 26.8163C23.1093 26.8553 23.4536 26.814 23.7747 26.6957L46.0386 16.7791C42.0469 12.076 35.4752 9.00208 28.0373 9.00208C15.8742 9.00208 6 17.2251 6 27.3683C6 32.897 8.9689 37.8838 13.6148 41.2508C13.8054 41.3874 13.9607 41.5675 14.0678 41.7762C14.1748 41.9848 14.2306 42.216 14.2303 42.4505C14.2261 42.6094 14.2 42.7669 14.1529 42.9186L13.1596 46.6228C13.0977 46.7959 13.058 46.9761 13.0417 47.1591C13.0417 47.3546 13.1193 47.5421 13.2576 47.6804C13.3958 47.8186 13.5833 47.8963 13.7788 47.8963C13.9299 47.8903 14.0765 47.8431 14.2027 47.7599L19.0274 44.9753C19.3802 44.7597 19.7843 44.6426 20.1976 44.6362C20.4169 44.6365 20.6349 44.6694 20.8445 44.7339C23.1816 45.4026 25.6008 45.7413 28.0318 45.7401C40.1948 45.7401 50.0709 37.5171 50.0709 27.3738C50.0606 24.3563 49.192 21.4039 47.5664 18.8615L22.1916 33.5125L22.0276 33.6047Z" fill="#1AAD19"/>
</g>
<defs>
<clipPath id="clip0_4003_83955">
<rect width="131.94" height="38.8887" fill="white" transform="translate(6 9)"/>
</clipPath>
</defs>
</svg>
