<svg width="16" height="16" viewBox="0 0 16 16" fill="none" xmlns="http://www.w3.org/2000/svg">
<g clip-path="url(#clip0_1422_368)">
<rect width="16" height="16" rx="1" fill="url(#paint0_linear_1422_368)"/>
<path fill-rule="evenodd" clip-rule="evenodd" d="M3.89062 15.1172V0.921875H3.92188V15.1172H3.89062Z" fill="url(#paint1_linear_1422_368)" fill-opacity="0.4"/>
<path fill-rule="evenodd" clip-rule="evenodd" d="M13.5 14.8594L13.5 1.17188L13.5312 1.17188L13.5312 14.8594L13.5 14.8594Z" fill="url(#paint2_linear_1422_368)" fill-opacity="0.4"/>
<path fill-rule="evenodd" clip-rule="evenodd" d="M2.46875 14.8516V1.11719H2.5V14.8516H2.46875Z" fill="url(#paint3_linear_1422_368)" fill-opacity="0.4"/>
<path fill-rule="evenodd" clip-rule="evenodd" d="M12.0781 15.125L12.0781 0.921875L12.1094 0.921875L12.1094 15.125L12.0781 15.125Z" fill="url(#paint4_linear_1422_368)" fill-opacity="0.4"/>
<path fill-rule="evenodd" clip-rule="evenodd" d="M14.8281 2.5L1.15625 2.5V2.46875L14.8281 2.46875V2.5Z" fill="url(#paint5_linear_1422_368)" fill-opacity="0.4"/>
<path fill-rule="evenodd" clip-rule="evenodd" d="M15.125 12.1406H0.875V12.1094H15.125V12.1406Z" fill="url(#paint6_linear_1422_368)" fill-opacity="0.4"/>
<path fill-rule="evenodd" clip-rule="evenodd" d="M15.1094 3.92188L0.875 3.92188V3.89062L15.1094 3.89063V3.92188Z" fill="url(#paint7_linear_1422_368)" fill-opacity="0.4"/>
<path fill-rule="evenodd" clip-rule="evenodd" d="M14.8438 13.5625H1.14062V13.5312H14.8438V13.5625Z" fill="url(#paint8_linear_1422_368)" fill-opacity="0.4"/>
<path fill-rule="evenodd" clip-rule="evenodd" d="M10.3725 7.09242C10.3815 7.13273 10.391 7.17297 10.401 7.21314L10.3403 7.22822C10.3302 7.18759 10.3206 7.14687 10.3115 7.10609L10.3725 7.09242ZM10.2867 6.60395C10.2971 6.68586 10.3095 6.76762 10.3239 6.84918L10.2623 6.85999C10.2478 6.77748 10.2353 6.69475 10.2247 6.61188L10.2867 6.60395ZM10.2467 6.10962C10.2495 6.1922 10.2543 6.27476 10.2609 6.35726L10.1986 6.36229C10.1919 6.27883 10.1871 6.19529 10.1842 6.11175L10.2467 6.10962ZM10.2529 5.61371C10.2481 5.69624 10.2451 5.77888 10.244 5.86159L10.1815 5.86081C10.1826 5.77713 10.1856 5.69351 10.1906 5.61002L10.2529 5.61371ZM10.3053 5.12055C10.2928 5.2023 10.2821 5.28431 10.2734 5.36652L10.2112 5.35992C10.2201 5.27674 10.2308 5.19376 10.2436 5.11105L10.3053 5.12055ZM10.4034 4.6344C10.3833 4.71467 10.3651 4.79533 10.3487 4.87633L10.2875 4.86397C10.304 4.78202 10.3224 4.7004 10.3428 4.61919L10.4034 4.6344ZM10.5464 4.15954C10.5189 4.23762 10.4932 4.31623 10.4694 4.3953L10.4096 4.37728C10.4336 4.29728 10.4596 4.21774 10.4875 4.13874L10.5464 4.15954ZM10.6824 3.81325C10.666 3.85122 10.65 3.88934 10.6344 3.92761L10.5765 3.90409C10.5922 3.86537 10.6084 3.82679 10.6251 3.78838C10.6417 3.74999 10.6588 3.71184 10.6763 3.67392L10.7331 3.70012C10.7158 3.73759 10.6989 3.77531 10.6824 3.81325ZM10.9616 3.26037C10.9202 3.33173 10.8803 3.40415 10.8422 3.47757L10.7867 3.44875C10.8253 3.37447 10.8656 3.3012 10.9075 3.229L10.9616 3.26037ZM11.2301 2.84386C11.1822 2.91109 11.1358 2.97948 11.091 3.04899L11.0384 3.01512C11.0838 2.9448 11.1307 2.8756 11.1792 2.80758L11.2301 2.84386ZM11.5363 2.4542C11.4823 2.5167 11.4297 2.58047 11.3786 2.64546L11.3295 2.60684C11.3812 2.54109 11.4343 2.47657 11.489 2.41334L11.5363 2.4542ZM11.8775 2.09481C11.8178 2.15203 11.7596 2.21061 11.7027 2.27052L11.6574 2.22749C11.7149 2.16688 11.7739 2.1076 11.8342 2.04971L11.8775 2.09481ZM12.2507 1.76881C12.186 1.82024 12.1225 1.87314 12.0603 1.92745L12.0192 1.88038C12.0821 1.82543 12.1463 1.77191 12.2119 1.71987L12.2507 1.76881ZM12.6528 1.47909C12.5834 1.52427 12.5153 1.57101 12.4483 1.61925L12.4118 1.56855C12.4795 1.51974 12.5485 1.47245 12.6186 1.42673L12.6528 1.47909ZM12.9711 1.2871C12.935 1.30721 12.8991 1.32771 12.8635 1.34861L12.8318 1.29472C12.8679 1.27357 12.9041 1.25282 12.9407 1.23248L12.9711 1.2871Z" fill="url(#paint9_linear_1422_368)"/>
<path fill-rule="evenodd" clip-rule="evenodd" d="M11.0732 8.78237C11.1204 8.85682 11.1695 8.93002 11.2203 9.00191L11.1692 9.03798C11.1178 8.96525 11.0682 8.89119 11.0204 8.81587L11.0732 8.78237ZM11.3781 9.21388C11.4325 9.28324 11.4885 9.35122 11.5462 9.41776L11.499 9.45871C11.4406 9.39139 11.3839 9.32261 11.3289 9.25243L11.3781 9.21388ZM10.8733 8.44007C10.8941 8.47894 10.9154 8.51753 10.9371 8.55582L10.8827 8.58665C10.8608 8.54792 10.8393 8.50888 10.8182 8.46955L10.8733 8.44007ZM11.7243 9.61305C11.7852 9.67665 11.8477 9.73875 11.9118 9.79928L11.8689 9.8447C11.8041 9.78346 11.7408 9.72064 11.6792 9.65629L11.7243 9.61305ZM12.1083 9.97598C12.1752 10.0332 12.2436 10.0888 12.3133 10.1427L12.2751 10.1922C12.2045 10.1376 12.1354 10.0814 12.0677 10.0235L12.1083 9.97598ZM12.5264 10.2991C12.5625 10.3242 12.599 10.3489 12.6358 10.3732C12.6725 10.3975 12.7096 10.4213 12.7469 10.4446L12.7138 10.4976C12.676 10.474 12.6385 10.45 12.6013 10.4254C12.5641 10.4008 12.5272 10.3758 12.4907 10.3503L12.5264 10.2991ZM12.9743 10.579C13.0513 10.622 13.1292 10.663 13.2081 10.702L13.1803 10.758C13.1006 10.7186 13.0217 10.6771 12.9438 10.6336L12.9743 10.579ZM13.4476 10.8132C13.5284 10.8483 13.6101 10.8814 13.6925 10.9124L13.6704 10.9709C13.5871 10.9395 13.5045 10.9061 13.4227 10.8705L13.4476 10.8132ZM13.9419 10.9993C14.0257 11.0262 14.1102 11.051 14.1953 11.0738L14.1792 11.1341C14.0931 11.1112 14.0076 11.0861 13.9228 11.0588L13.9419 10.9993ZM14.4522 11.1355C14.5382 11.154 14.6247 11.1703 14.7117 11.1844L14.7017 11.2461C14.6137 11.2318 14.5261 11.2153 14.4391 11.1966L14.4522 11.1355ZM14.9734 11.2204C15.0171 11.2253 15.061 11.2297 15.1048 11.2335L15.0994 11.2958C15.055 11.2919 15.0107 11.2875 14.9664 11.2825L14.9734 11.2204Z" fill="url(#paint10_linear_1422_368)"/>
<path fill-rule="evenodd" clip-rule="evenodd" d="M5.59485 11.4989C5.61674 11.4155 5.63656 11.3318 5.65432 11.2478L5.71547 11.2608C5.6975 11.3458 5.67744 11.4304 5.6553 11.5148L5.59485 11.4989ZM5.48304 11.8693C5.49697 11.8286 5.51039 11.7877 5.5233 11.7468L5.58291 11.7655C5.56985 11.807 5.55627 11.8483 5.54218 11.8895C5.52809 11.9308 5.51352 11.9717 5.49847 12.0125L5.43984 11.9909C5.45471 11.9506 5.46911 11.9101 5.48304 11.8693ZM5.70156 10.9942C5.71528 10.9092 5.72691 10.824 5.73647 10.7386L5.79858 10.7456C5.78891 10.8319 5.77714 10.9182 5.76327 11.0042L5.70156 10.9942ZM5.23803 12.4655C5.27541 12.3882 5.31097 12.3099 5.34468 12.2306L5.4022 12.2551C5.36809 12.3353 5.33211 12.4145 5.2943 12.4927L5.23803 12.4655ZM5.75895 10.4816C5.76438 10.3957 5.76771 10.3098 5.76897 10.2238L5.83146 10.2247C5.83019 10.3117 5.82682 10.3986 5.82133 10.4855L5.75895 10.4816ZM4.99125 12.9184C5.03596 12.845 5.07893 12.7705 5.12013 12.6949L5.17501 12.7248C5.13333 12.8013 5.08985 12.8767 5.04462 12.9509L4.99125 12.9184ZM5.7665 9.96583C5.76359 9.87987 5.7586 9.79399 5.75154 9.70828L5.81383 9.70314C5.82097 9.78987 5.82602 9.87675 5.82896 9.96372L5.7665 9.96583ZM4.70182 13.3453C4.75344 13.2766 4.80342 13.2066 4.85171 13.1353L4.90344 13.1704C4.85458 13.2425 4.80402 13.3133 4.75179 13.3828L4.70182 13.3453ZM5.72413 9.45175C5.71292 9.36652 5.69966 9.28153 5.68432 9.19685L5.74582 9.18572C5.76134 9.27139 5.77476 9.35738 5.78609 9.44361L5.72413 9.45175ZM4.37245 13.7422C4.43051 13.6787 4.48702 13.6139 4.54194 13.5477L4.59004 13.5876C4.53448 13.6546 4.4773 13.7202 4.41856 13.7844L4.37245 13.7422ZM5.63222 8.94418C5.61284 8.86048 5.5914 8.77718 5.56793 8.69433L5.62807 8.6773C5.65181 8.76111 5.6735 8.8454 5.69311 8.93008L5.63222 8.94418ZM4.00623 14.1053C4.07019 14.0478 4.13271 13.9887 4.19374 13.9282L4.23775 13.9726C4.176 14.0338 4.11275 14.0936 4.04804 14.1518L4.00623 14.1053ZM5.49161 8.4479C5.46422 8.36652 5.43483 8.28568 5.40342 8.20545L5.46162 8.18267C5.4934 8.26384 5.52314 8.34563 5.55084 8.42796L5.49161 8.4479ZM3.60658 14.4313C3.67585 14.3802 3.74379 14.3275 3.81036 14.2732L3.84986 14.3216C3.78252 14.3766 3.71377 14.4299 3.64369 14.4816L3.60658 14.4313ZM5.30358 7.96756C5.28601 7.92837 5.26793 7.88935 5.24937 7.8505L5.30576 7.82355C5.32454 7.86285 5.34283 7.90234 5.36061 7.94199L5.30358 7.96756ZM3.17722 14.7171C3.25116 14.6729 3.3239 14.627 3.39536 14.5794L3.42999 14.6315C3.35768 14.6796 3.28409 14.726 3.20928 14.7707L3.17722 14.7171ZM2.83811 14.9033C2.87657 14.884 2.91475 14.8642 2.95264 14.844L2.98207 14.8991C2.94373 14.9196 2.9051 14.9396 2.86619 14.9592L2.83811 14.9033Z" fill="url(#paint11_linear_1422_368)"/>
<path d="M4.10905 6.25457C5.04487 7.14405 5.65129 8.35957 5.76825 9.6902C5.76825 9.69022 5.76825 9.69023 5.76825 9.69024L4.10905 6.25457ZM4.10905 6.25457C6.97177 6.64046 9.00314 9.25036 8.66796 12.1241L8.66765 12.1241V12.1295C8.66765 12.1357 8.66677 12.1425 8.66525 12.1531L8.66477 12.153V12.1597C8.66477 12.1631 8.66424 12.1667 8.66287 12.1708L8.66199 12.1705L8.66082 12.1798C8.60252 12.6462 8.48473 13.0896 8.31538 13.5046" fill="url(#paint12_linear_1422_368)" stroke="white" stroke-width="0.09375"/>
<path d="M11.8853 9.78734C9.02261 9.40146 6.99124 6.79156 7.32642 3.9178L7.32674 3.91784V3.91237C7.32674 3.9062 7.32762 3.89946 7.32914 3.88881L7.32961 3.88888V3.88218C7.32961 3.87886 7.33015 3.87524 7.33152 3.87113L7.3324 3.87142L7.33356 3.86212C7.39187 3.39569 7.50966 2.95235 7.679 2.5373C8.80595 2.68276 9.80457 3.17308 10.5825 3.88901C10.5293 4.02437 10.4811 4.16234 10.4379 4.30409L10.4378 4.30427C10.3494 4.59858 10.2841 4.90449 10.245 5.22052L10.245 5.22065C10.1986 5.60334 10.1928 5.98182 10.2261 6.35172M10.2261 6.35172C10.2261 6.3517 10.2261 6.35169 10.2261 6.35167L10.2728 6.34757L10.2261 6.35178C10.2261 6.35176 10.2261 6.35174 10.2261 6.35172Z" fill="url(#paint13_linear_1422_368)" stroke="white" stroke-width="0.09375"/>
<path d="M11.9901 9.80228C12.0013 9.80345 12.0135 9.80463 12.0266 9.80582L12.0274 9.80589C12.503 9.85735 12.9717 9.84366 13.4231 9.7728C13.5617 8.62652 13.3229 7.52235 12.8053 6.58349C12.6127 6.61525 12.4164 6.63661 12.2175 6.64758L12.2174 6.64759C11.9071 6.66354 11.591 6.65339 11.272 6.61424L11.2719 6.61423C10.9211 6.57074 10.5818 6.49535 10.2569 6.38946C10.2569 6.38946 10.2569 6.38946 10.2569 6.38946L10.2714 6.34489C9.00787 5.9364 7.96933 5.07793 7.31807 3.97913L11.9901 9.80228ZM11.9901 9.80228V9.80095L11.949 9.79591C9.09908 9.44686 7.05455 6.89822 7.31043 4.05746L11.9901 9.80228Z" fill="url(#paint14_linear_1422_368)" stroke="white" stroke-width="0.09375"/>
<path d="M4.00283 6.24004V6.23921C4.00129 6.23903 3.99976 6.23886 3.99823 6.23869C3.98727 6.23745 3.97652 6.23624 3.96573 6.23511L3.96559 6.23509C3.49001 6.18364 3.02124 6.19733 2.56986 6.26819C2.43123 7.41447 2.67005 8.51863 3.18763 9.45749C3.38021 9.42574 3.57655 9.40438 3.77542 9.39341L3.7756 9.3934C4.08588 9.37745 4.40198 9.3876 4.72099 9.42675L4.72105 9.42676C5.07184 9.47024 5.41116 9.54564 5.73608 9.65152C5.73608 9.65153 5.73608 9.65153 5.73609 9.65153L5.72156 9.69609C6.98509 10.1046 8.02363 10.9631 8.67489 12.0619L4.00283 6.24004ZM4.00283 6.24004L4.044 6.24508C6.89388 6.59413 8.93841 9.14276 8.68253 11.9835L4.00283 6.24004Z" fill="url(#paint15_linear_1422_368)" stroke="white" stroke-width="0.09375"/>
<path fill-rule="evenodd" clip-rule="evenodd" d="M12.2812 0.9375H3.71875C2.18271 0.9375 0.9375 2.18271 0.9375 3.71875V12.2812C0.9375 13.8173 2.18271 15.0625 3.71875 15.0625H12.2812C13.8173 15.0625 15.0625 13.8173 15.0625 12.2812V3.71875C15.0625 2.18271 13.8173 0.9375 12.2812 0.9375ZM3.71875 0.78125C2.09641 0.78125 0.78125 2.09641 0.78125 3.71875V12.2812C0.78125 13.9036 2.09641 15.2188 3.71875 15.2188H12.2812C13.9036 15.2188 15.2188 13.9036 15.2188 12.2812V3.71875C15.2188 2.09641 13.9036 0.78125 12.2812 0.78125H3.71875Z" fill="white"/>
<path fill-rule="evenodd" clip-rule="evenodd" d="M4.04531 9.42236C4.00049 9.42283 3.95564 9.42387 3.91077 9.42548C3.8659 9.42709 3.82109 9.42926 3.77636 9.432L3.77255 9.36961C3.8178 9.36685 3.86314 9.36465 3.90853 9.36302C3.95393 9.36139 3.99931 9.36034 4.04465 9.35986L4.04531 9.42236ZM4.5829 9.44384C4.49366 9.43575 4.40412 9.4299 4.31436 9.42631L4.31686 9.36386C4.40767 9.36749 4.49826 9.37341 4.58854 9.3816L4.5829 9.44384ZM3.5083 9.45519C3.41903 9.46519 3.33014 9.47744 3.24172 9.4919L3.23163 9.43022C3.32109 9.41559 3.41102 9.4032 3.50134 9.39308L3.5083 9.45519ZM5.11557 9.51944C5.02756 9.50238 4.93907 9.48753 4.85019 9.47492L4.85897 9.41304C4.94889 9.4258 5.03842 9.44082 5.12747 9.45809L5.11557 9.51944ZM2.97735 9.54202C2.88961 9.56096 2.80242 9.5821 2.71585 9.60542L2.6996 9.54507C2.78718 9.52148 2.87539 9.50009 2.96416 9.48092L2.97735 9.54202ZM5.63791 9.64838C5.55201 9.62251 5.46547 9.59882 5.37837 9.57732L5.39335 9.51664C5.48147 9.53839 5.56903 9.56237 5.65594 9.58854L5.63791 9.64838ZM2.45788 9.68195C2.37255 9.70963 2.28793 9.73946 2.20411 9.77141L2.18185 9.71301C2.26665 9.68068 2.35227 9.6505 2.4386 9.6225L2.45788 9.68195ZM6.14458 9.82936C6.06168 9.79493 5.97797 9.76263 5.89354 9.73247L5.91456 9.67361C5.99998 9.70412 6.08467 9.73681 6.16855 9.77164L6.14458 9.82936ZM1.95518 9.87357C1.87313 9.9097 1.79195 9.94791 1.71173 9.98818L1.68369 9.93232C1.76485 9.89158 1.84698 9.85292 1.93 9.81637L1.95518 9.87357ZM6.6304 10.0605C6.55134 10.0179 6.47132 9.97731 6.39041 9.93881L6.41726 9.88237C6.49912 9.92133 6.58009 9.96239 6.66007 10.0055L6.6304 10.0605ZM1.47438 10.1149C1.39644 10.1591 1.31953 10.2053 1.24374 10.2535L1.2102 10.2008C1.28689 10.152 1.3647 10.1053 1.44356 10.0606L1.47438 10.1149ZM6.97808 10.2655C6.94029 10.2412 6.90223 10.2175 6.86391 10.1942L6.89633 10.1408C6.9351 10.1643 6.9736 10.1884 7.01184 10.2129L6.97808 10.2655ZM1.02041 10.4036C0.983862 10.4296 0.947604 10.456 0.911652 10.4829L0.874214 10.4328C0.910589 10.4056 0.947272 10.3789 0.984254 10.3526L1.02041 10.4036Z" fill="url(#paint16_linear_1422_368)"/>
<path fill-rule="evenodd" clip-rule="evenodd" d="M7.5521 10.6908C7.52023 10.6637 7.48802 10.6369 7.45548 10.6106L7.49485 10.562C7.52777 10.5887 7.56036 10.6158 7.5926 10.6432L7.5521 10.6908ZM7.91879 11.0339C7.86047 10.9739 7.80069 10.9153 7.7395 10.858L7.7822 10.8124C7.84411 10.8703 7.90459 10.9297 7.9636 10.9904L7.91879 11.0339ZM8.25147 11.4101C8.19904 11.3449 8.14506 11.2808 8.08958 11.2181L8.13639 11.1767C8.19253 11.2402 8.24715 11.305 8.30019 11.371L8.25147 11.4101ZM8.54715 11.816C8.50109 11.7461 8.4534 11.6773 8.40411 11.6096L8.45463 11.5728C8.5045 11.6412 8.55275 11.7109 8.59935 11.7817L8.54715 11.816ZM8.80318 12.2481C8.76391 12.174 8.72293 12.101 8.68027 12.029L8.73404 11.9972C8.7772 12.07 8.81866 12.1439 8.85839 12.2188L8.80318 12.2481ZM8.96777 12.5869C8.95082 12.5486 8.93342 12.5105 8.91558 12.4727L8.97212 12.446C8.99016 12.4843 9.00777 12.5228 9.02493 12.5616C9.04207 12.6004 9.05875 12.6393 9.07496 12.6784L9.01723 12.7023C9.00121 12.6637 8.98472 12.6252 8.96777 12.5869ZM9.18734 13.1745C9.16275 13.0946 9.13625 13.0152 9.10787 12.9364L9.16667 12.9152C9.19539 12.995 9.2222 13.0753 9.24707 13.1562L9.18734 13.1745ZM9.31207 13.6607C9.29513 13.5788 9.27626 13.4973 9.25546 13.4162L9.316 13.4006C9.33704 13.4827 9.35614 13.5652 9.37328 13.6481L9.31207 13.6607ZM9.3903 14.1566C9.38118 14.0733 9.37009 13.9904 9.35705 13.9077L9.41879 13.898C9.43198 13.9816 9.4432 14.0655 9.45243 14.1497L9.3903 14.1566ZM9.42132 14.6575C9.4201 14.5738 9.41691 14.4901 9.41174 14.4067L9.47412 14.4028C9.47935 14.4873 9.48258 14.5719 9.48381 14.6566L9.42132 14.6575ZM9.41342 15.034C9.41578 14.9922 9.41765 14.9504 9.41902 14.9086L9.48149 14.9106C9.4801 14.9529 9.47821 14.9952 9.47582 15.0375L9.41342 15.034Z" fill="url(#paint17_linear_1422_368)"/>
<path fill-rule="evenodd" clip-rule="evenodd" d="M3.27511 6.23534C3.197 6.2367 3.119 6.23977 3.04117 6.24456L3.03733 6.18217C3.11608 6.17733 3.19499 6.17422 3.27403 6.17285L3.27511 6.23534ZM3.62622 6.24086C3.58721 6.23896 3.54821 6.23749 3.50923 6.23644L3.5109 6.17397C3.55034 6.17502 3.5898 6.17651 3.62927 6.17844C3.66873 6.18037 3.70815 6.18273 3.74751 6.18552L3.74308 6.24786C3.70418 6.2451 3.66523 6.24277 3.62622 6.24086ZM2.80786 6.26407C2.7302 6.27229 2.65278 6.28222 2.57564 6.29385L2.56633 6.23204C2.64437 6.22028 2.72271 6.21024 2.80128 6.20192L2.80786 6.26407ZM4.2081 6.30152C4.13111 6.28918 4.05378 6.27852 3.97617 6.26956L3.98334 6.20748C4.06186 6.21654 4.1401 6.22732 4.21799 6.23981L4.2081 6.30152ZM2.34495 6.33383C2.26836 6.34885 2.19211 6.36555 2.11625 6.38393L2.10154 6.32319C2.17828 6.30459 2.25543 6.28769 2.33293 6.27249L2.34495 6.33383ZM4.66658 6.39591C4.59094 6.37683 4.51486 6.35941 4.43838 6.34366L4.45098 6.28245C4.52836 6.29838 4.60534 6.316 4.68187 6.33531L4.66658 6.39591ZM1.88998 6.44407C1.81505 6.46576 1.74056 6.48911 1.66659 6.51411L1.64658 6.4549C1.72143 6.42961 1.79679 6.40598 1.8726 6.38403L1.88998 6.44407ZM5.11497 6.53031C5.04127 6.50463 4.96702 6.48057 4.89226 6.45817L4.9102 6.3983C4.98584 6.42097 5.06097 6.44531 5.13554 6.47129L5.11497 6.53031ZM1.4465 6.59394C1.3738 6.62214 1.30166 6.65196 1.23013 6.6834L1.20498 6.62618C1.27735 6.59437 1.35034 6.5642 1.4239 6.53567L1.4465 6.59394ZM5.54978 6.70367C5.4786 6.67158 5.40675 6.64108 5.33429 6.61219L5.35744 6.55414C5.43075 6.58337 5.50345 6.61422 5.57547 6.64669L5.54978 6.70367ZM1.01794 6.7823C0.982959 6.79955 0.948148 6.8172 0.913512 6.83524L0.884636 6.77981C0.91968 6.76156 0.9549 6.7437 0.990289 6.72625L1.01794 6.7823ZM5.96764 6.91466C5.89952 6.87641 5.83064 6.8397 5.76103 6.80455L5.7892 6.74876C5.85963 6.78432 5.92932 6.82146 5.99824 6.86017L5.96764 6.91466ZM6.26793 7.09663C6.23522 7.0753 6.2023 7.05434 6.16917 7.03377L6.20215 6.98067C6.23566 7.00149 6.26897 7.0227 6.30207 7.04428L6.26793 7.09663Z" fill="url(#paint18_linear_1422_368)"/>
<path fill-rule="evenodd" clip-rule="evenodd" d="M8.47561 9.88721C8.48773 9.92476 8.49943 9.96242 8.5107 10.0002L8.45082 10.0181C8.43968 9.98074 8.42811 9.94352 8.41613 9.9064L8.47561 9.88721ZM8.57335 10.2283C8.59257 10.3049 8.61007 10.3818 8.62586 10.459L8.56463 10.4715C8.54903 10.3952 8.53173 10.3192 8.51273 10.2435L8.57335 10.2283ZM8.66812 10.6917C8.6805 10.7697 8.69114 10.8478 8.70006 10.9261L8.63796 10.9332C8.62915 10.8558 8.61863 10.7785 8.60639 10.7015L8.66812 10.6917ZM8.7216 11.1617C8.72705 11.2404 8.73075 11.3192 8.73272 11.398L8.67023 11.3996C8.66829 11.3217 8.66463 11.2438 8.65925 11.166L8.7216 11.1617ZM8.73338 11.6346C8.73185 11.7134 8.72859 11.7922 8.72358 11.8709L8.66121 11.867C8.66616 11.7892 8.66938 11.7113 8.67089 11.6334L8.73338 11.6346ZM8.70335 12.1066C8.69488 12.185 8.68467 12.2632 8.67272 12.3412L8.61094 12.3318C8.62275 12.2546 8.63284 12.1773 8.64121 12.0999L8.70335 12.1066ZM8.63176 12.5742C8.62408 12.6129 8.61596 12.6515 8.60742 12.69C8.59887 12.7285 8.58991 12.7669 8.58052 12.8052L8.51982 12.7903C8.52909 12.7525 8.53796 12.7145 8.5464 12.6765C8.55485 12.6384 8.56286 12.6002 8.57045 12.562L8.63176 12.5742ZM8.51913 13.0337C8.49696 13.1095 8.47314 13.1848 8.44769 13.2594L8.38854 13.2392C8.41369 13.1654 8.43723 13.0911 8.45914 13.0162L8.51913 13.0337ZM8.36636 13.4816C8.3376 13.5551 8.30724 13.6279 8.27529 13.7L8.21815 13.6747C8.24972 13.6034 8.27974 13.5314 8.30816 13.4588L8.36636 13.4816ZM8.17466 13.9142C8.13954 13.9848 8.10287 14.0546 8.06466 14.1237L8.00998 14.0934C8.04774 14.0252 8.08398 13.9561 8.11869 13.8863L8.17466 13.9142ZM7.94552 14.3281C7.90433 14.3954 7.86164 14.4617 7.81748 14.5271L7.76568 14.4922C7.80933 14.4275 7.85152 14.3619 7.89223 14.2955L7.94552 14.3281ZM7.68077 14.7203C7.63383 14.7836 7.58545 14.8459 7.53566 14.9072L7.48715 14.8678C7.53636 14.8072 7.58417 14.7456 7.63056 14.683L7.68077 14.7203ZM7.38245 15.0875C7.35628 15.117 7.32976 15.1462 7.30289 15.1751L7.2571 15.1326C7.28364 15.104 7.30985 15.0752 7.33573 15.046L7.38245 15.0875Z" fill="url(#paint19_linear_1422_368)"/>
<path fill-rule="evenodd" clip-rule="evenodd" d="M8.24004 7.4575C8.26341 7.49225 8.28722 7.52676 8.31145 7.56102L8.26043 7.59711C8.23591 7.56245 8.21182 7.52754 8.18818 7.49238L8.24004 7.4575ZM7.9794 7.02748C8.01937 7.10105 8.06112 7.17376 8.10464 7.24556L8.05119 7.27795C8.00717 7.20532 7.96492 7.13175 7.92448 7.05732L7.9794 7.02748ZM7.76042 6.57483C7.79331 6.65188 7.82803 6.72821 7.86457 6.80375L7.80831 6.83097C7.77134 6.75454 7.73621 6.67732 7.70294 6.59937L7.76042 6.57483ZM7.58506 6.10357C7.61055 6.18341 7.63793 6.26267 7.66718 6.34127L7.60861 6.36307C7.57901 6.28355 7.55131 6.20336 7.52552 6.12258L7.58506 6.10357ZM7.45486 5.61788C7.47273 5.69982 7.49253 5.7813 7.51423 5.86226L7.45386 5.87844C7.43191 5.79653 7.41188 5.7141 7.3938 5.6312L7.45486 5.61788ZM7.37101 5.12209C7.38108 5.20539 7.39312 5.28837 7.40709 5.37098L7.34546 5.3814C7.33133 5.29783 7.31915 5.21387 7.30896 5.12959L7.37101 5.12209ZM7.33428 4.62061C7.33645 4.70454 7.34061 4.78828 7.34672 4.87179L7.28439 4.87635C7.2782 4.79187 7.274 4.70714 7.2718 4.62223L7.33428 4.62061ZM7.33786 4.24342C7.33598 4.28534 7.33459 4.32724 7.3337 4.36912L7.27121 4.36778C7.27212 4.32542 7.27352 4.28303 7.27543 4.24062C7.27733 4.19824 7.27974 4.15592 7.28263 4.11368L7.34499 4.11796C7.34212 4.15971 7.33975 4.20153 7.33786 4.24342ZM7.403 3.61889C7.38943 3.70143 7.37779 3.7844 7.3681 3.86773L7.30602 3.86052C7.31582 3.77621 7.32759 3.69226 7.34132 3.60875L7.403 3.61889ZM7.50781 3.12752C7.4865 3.20847 7.46709 3.28998 7.4496 3.37198L7.38847 3.35894C7.40617 3.27597 7.42581 3.19351 7.44737 3.11161L7.50781 3.12752ZM7.65851 2.64824C7.62965 2.72685 7.60264 2.80616 7.5775 2.8861L7.51788 2.86735C7.54331 2.78647 7.57064 2.70623 7.59984 2.62669L7.65851 2.64824ZM7.85377 2.18531C7.81759 2.26089 7.78322 2.3373 7.75067 2.41446L7.69308 2.39018C7.72601 2.3121 7.76079 2.23479 7.79739 2.15833L7.85377 2.18531ZM8.09185 1.74287C8.04868 1.81474 8.00724 1.88757 7.96758 1.96128L7.91254 1.93166C7.95267 1.85708 7.99459 1.7834 8.03828 1.71069L8.09185 1.74287ZM8.37065 1.32492C8.32085 1.39243 8.27273 1.46101 8.22631 1.5306L8.17431 1.49592C8.22128 1.42551 8.26997 1.35612 8.32036 1.28782L8.37065 1.32492ZM8.60501 1.02975C8.57779 1.06164 8.55098 1.09382 8.52457 1.12629L8.47608 1.08685C8.5028 1.054 8.52993 1.02144 8.55747 0.989175L8.60501 1.02975Z" fill="url(#paint20_linear_1422_368)"/>
<path fill-rule="evenodd" clip-rule="evenodd" d="M10.9477 9.52985C10.9889 9.54387 11.0303 9.55737 11.0718 9.57036L11.0532 9.63001C11.0112 9.61687 10.9693 9.60321 10.9276 9.58902L10.9477 9.52985ZM11.3229 9.64218C11.4073 9.66408 11.4921 9.68389 11.5773 9.7016L11.5646 9.76279C11.4784 9.74487 11.3926 9.72483 11.3072 9.70268L11.3229 9.64218ZM11.8342 9.74847C11.9202 9.76199 12.0066 9.7734 12.0932 9.78268L12.0865 9.84482C11.9989 9.83543 11.9116 9.82389 11.8245 9.81022L11.8342 9.74847ZM12.3535 9.80414C12.4403 9.80915 12.5274 9.81204 12.6145 9.81279L12.614 9.87529C12.5258 9.87453 12.4378 9.87161 12.3499 9.86653L12.3535 9.80414ZM12.8756 9.80861C12.9191 9.80685 12.9626 9.80455 13.0061 9.80171C13.0495 9.79888 13.0929 9.79552 13.1362 9.79162L13.1418 9.85387C13.098 9.85781 13.0541 9.86122 13.0101 9.86408C12.9662 9.86695 12.9222 9.86928 12.8782 9.87106L12.8756 9.80861ZM13.3956 9.76186C13.4818 9.74981 13.5677 9.73566 13.6531 9.71941L13.6648 9.78081C13.5784 9.79725 13.4915 9.81157 13.4042 9.82376L13.3956 9.76186ZM13.9083 9.66435C13.9929 9.64391 14.077 9.62139 14.1605 9.59682L14.1781 9.65678C14.0937 9.68164 14.0086 9.70442 13.923 9.7251L13.9083 9.66435ZM14.409 9.51699C14.4912 9.48837 14.5727 9.45771 14.6534 9.42504L14.6768 9.48298C14.5951 9.51603 14.5127 9.54705 14.4296 9.57601L14.409 9.51699ZM14.8929 9.3212C14.9324 9.30293 14.9716 9.28416 15.0107 9.2649L15.0383 9.32095C14.9988 9.34044 14.9591 9.35943 14.9192 9.37792L14.8929 9.3212Z" fill="url(#paint21_linear_1422_368)"/>
<path fill-rule="evenodd" clip-rule="evenodd" d="M8.62151 5.49006C8.6557 5.51678 8.69025 5.54311 8.72513 5.56902L8.68786 5.61919C8.65257 5.59297 8.61762 5.56634 8.58302 5.5393L8.62151 5.49006ZM8.22735 5.14957C8.29015 5.20944 8.35447 5.26783 8.42025 5.32465L8.3794 5.37195C8.31284 5.31445 8.24776 5.25538 8.18422 5.19481L8.22735 5.14957ZM7.86845 4.77208C7.92512 4.83786 7.98341 4.90227 8.04327 4.96523L7.99797 5.0083C7.93741 4.94459 7.87843 4.87943 7.8211 4.81287L7.86845 4.77208ZM7.54829 4.36123C7.59826 4.4323 7.64996 4.5021 7.70333 4.57059L7.65403 4.60901C7.60003 4.53971 7.54772 4.46909 7.49716 4.39719L7.54829 4.36123ZM7.26995 3.92098C7.31274 3.99664 7.35734 4.07118 7.40371 4.14452L7.35088 4.17792C7.30397 4.10371 7.25884 4.0283 7.21555 3.95174L7.26995 3.92098ZM7.09028 3.57401C7.10883 3.61331 7.12784 3.65236 7.14732 3.69113L7.09148 3.71919C7.07177 3.67996 7.05252 3.64045 7.03376 3.60069C7.01499 3.56093 6.99673 3.52097 6.97897 3.48082L7.03613 3.45554C7.05368 3.49522 7.07173 3.53472 7.09028 3.57401ZM6.84909 2.96945C6.87623 3.05186 6.90542 3.13367 6.93664 3.21479L6.87831 3.23724C6.84672 3.15516 6.81719 3.07239 6.78972 2.98901L6.84909 2.96945ZM6.71062 2.46736C6.72956 2.55209 6.75059 2.63636 6.77369 2.72011L6.71343 2.73672C6.69007 2.65199 6.66879 2.56673 6.64962 2.481L6.71062 2.46736ZM6.62204 1.95412C6.6326 2.04035 6.64526 2.12627 6.66003 2.21183L6.59844 2.22246C6.5835 2.1359 6.57068 2.04895 6.56 1.96171L6.62204 1.95412ZM6.58421 1.43466C6.58626 1.52156 6.59045 1.60831 6.59675 1.69485L6.53441 1.69939C6.52804 1.61184 6.5238 1.52406 6.52173 1.43614L6.58421 1.43466ZM6.58937 1.04399C6.58719 1.08739 6.58556 1.13079 6.58445 1.17417L6.52197 1.17258C6.52309 1.12869 6.52475 1.08478 6.52694 1.04087L6.58937 1.04399Z" fill="url(#paint22_linear_1422_368)"/>
<path fill-rule="evenodd" clip-rule="evenodd" d="M14.0461 6.16452C14.1257 6.12944 14.2045 6.09237 14.2824 6.05333L14.3104 6.10921C14.2316 6.1487 14.1519 6.18621 14.0714 6.22171L14.0461 6.16452ZM13.5587 6.35154C13.6414 6.32439 13.7234 6.29521 13.8047 6.264L13.8271 6.32236C13.7448 6.35392 13.6619 6.38345 13.5782 6.41092L13.5587 6.35154ZM14.5129 5.93069C14.5886 5.88801 14.6634 5.84341 14.7371 5.7969L14.7705 5.84977C14.6958 5.89682 14.6202 5.94195 14.5436 5.98513L14.5129 5.93069ZM13.0553 6.48997C13.1403 6.47102 13.2248 6.45 13.3087 6.42692L13.3253 6.48718C13.2404 6.51054 13.1549 6.5318 13.0689 6.55097L13.0553 6.48997ZM14.9545 5.65228C14.9901 5.62732 15.0255 5.6019 15.0605 5.57602L15.0977 5.6263C15.0622 5.65249 15.0264 5.67821 14.9904 5.70345L14.9545 5.65228ZM12.5408 6.57848C12.6273 6.56793 12.7134 6.55528 12.7992 6.54053L12.8098 6.60212C12.723 6.61704 12.6359 6.62985 12.5484 6.64052L12.5408 6.57848ZM12.0201 6.61619C12.1073 6.61416 12.1942 6.61 12.281 6.60372L12.2855 6.66605C12.1977 6.67241 12.1097 6.67662 12.0216 6.67867L12.0201 6.61619ZM11.4983 6.60271C11.5852 6.60924 11.6722 6.61361 11.759 6.61585L11.7574 6.67833C11.6695 6.67606 11.5816 6.67164 11.4936 6.66504L11.4983 6.60271ZM11.1091 6.55907C11.1522 6.56551 11.1953 6.57142 11.2384 6.5768L11.2307 6.63882C11.1871 6.63338 11.1434 6.6274 11.0998 6.62088L11.1091 6.55907Z" fill="url(#paint23_linear_1422_368)"/>
</g>
<defs>
<linearGradient id="paint0_linear_1422_368" x1="8" y1="0" x2="8" y2="16" gradientUnits="userSpaceOnUse">
<stop stop-color="#FF8080"/>
<stop offset="1" stop-color="#E32020"/>
</linearGradient>
<linearGradient id="paint1_linear_1422_368" x1="4.40625" y1="0.921875" x2="4.40625" y2="15.1172" gradientUnits="userSpaceOnUse">
<stop stop-color="white" stop-opacity="0"/>
<stop offset="0.489583" stop-color="white" stop-opacity="0.5"/>
<stop offset="1" stop-color="white" stop-opacity="0"/>
</linearGradient>
<linearGradient id="paint2_linear_1422_368" x1="14.0156" y1="1.17188" x2="14.0156" y2="14.8594" gradientUnits="userSpaceOnUse">
<stop stop-color="white" stop-opacity="0"/>
<stop offset="0.489583" stop-color="white" stop-opacity="0.5"/>
<stop offset="1" stop-color="white" stop-opacity="0"/>
</linearGradient>
<linearGradient id="paint3_linear_1422_368" x1="2.48437" y1="1.11719" x2="4.71157" y2="14.4804" gradientUnits="userSpaceOnUse">
<stop stop-color="white" stop-opacity="0"/>
<stop offset="0.489583" stop-color="white" stop-opacity="0.5"/>
<stop offset="1" stop-color="white" stop-opacity="0"/>
</linearGradient>
<linearGradient id="paint4_linear_1422_368" x1="12.5938" y1="0.921875" x2="12.5938" y2="15.125" gradientUnits="userSpaceOnUse">
<stop stop-color="white" stop-opacity="0"/>
<stop offset="0.489583" stop-color="white" stop-opacity="0.5"/>
<stop offset="1" stop-color="white" stop-opacity="0"/>
</linearGradient>
<linearGradient id="paint5_linear_1422_368" x1="1.15625" y1="1.98438" x2="14.8281" y2="1.98437" gradientUnits="userSpaceOnUse">
<stop stop-color="white" stop-opacity="0"/>
<stop offset="0.489583" stop-color="white" stop-opacity="0.5"/>
<stop offset="1" stop-color="white" stop-opacity="0"/>
</linearGradient>
<linearGradient id="paint6_linear_1422_368" x1="0.875" y1="11.625" x2="15.125" y2="11.625" gradientUnits="userSpaceOnUse">
<stop stop-color="white" stop-opacity="0"/>
<stop offset="0.489583" stop-color="white" stop-opacity="0.5"/>
<stop offset="1" stop-color="white" stop-opacity="0"/>
</linearGradient>
<linearGradient id="paint7_linear_1422_368" x1="0.875" y1="3.40625" x2="15.1094" y2="3.40625" gradientUnits="userSpaceOnUse">
<stop stop-color="white" stop-opacity="0"/>
<stop offset="0.489583" stop-color="white" stop-opacity="0.5"/>
<stop offset="1" stop-color="white" stop-opacity="0"/>
</linearGradient>
<linearGradient id="paint8_linear_1422_368" x1="1.14062" y1="13.0469" x2="14.8438" y2="13.0469" gradientUnits="userSpaceOnUse">
<stop stop-color="white" stop-opacity="0"/>
<stop offset="0.489583" stop-color="white" stop-opacity="0.5"/>
<stop offset="1" stop-color="white" stop-opacity="0"/>
</linearGradient>
<linearGradient id="paint9_linear_1422_368" x1="14.6388" y1="0.282792" x2="9.63256" y2="3.46947" gradientUnits="userSpaceOnUse">
<stop offset="0.271129" stop-color="white" stop-opacity="0.26"/>
<stop offset="0.681812" stop-color="white"/>
</linearGradient>
<linearGradient id="paint10_linear_1422_368" x1="15.5625" y1="11.5156" x2="10.7734" y2="9.08596" gradientUnits="userSpaceOnUse">
<stop offset="0.271129" stop-color="white" stop-opacity="0.26"/>
<stop offset="0.681812" stop-color="white"/>
</linearGradient>
<linearGradient id="paint11_linear_1422_368" x1="6.42969" y1="10.7892" x2="3.21094" y2="14.7346" gradientUnits="userSpaceOnUse">
<stop offset="0.358923" stop-color="white"/>
<stop offset="1" stop-color="white" stop-opacity="0.26"/>
</linearGradient>
<linearGradient id="paint12_linear_1422_368" x1="6.39029" y1="6.19824" x2="6.39029" y2="13.5556" gradientUnits="userSpaceOnUse">
<stop stop-color="#EAEAEA" stop-opacity="0"/>
<stop offset="1" stop-color="white"/>
</linearGradient>
<linearGradient id="paint13_linear_1422_368" x1="9.60409" y1="2.48633" x2="9.60409" y2="9.84367" gradientUnits="userSpaceOnUse">
<stop stop-color="white"/>
<stop offset="1" stop-color="#EAEAEA" stop-opacity="0"/>
</linearGradient>
<linearGradient id="paint14_linear_1422_368" x1="5.82028" y1="3.91035" x2="12.7734" y2="9.58222" gradientUnits="userSpaceOnUse">
<stop stop-color="white"/>
<stop offset="1" stop-color="#F8FBFF" stop-opacity="0.9"/>
</linearGradient>
<linearGradient id="paint15_linear_1422_368" x1="1.0625" y1="6.15644" x2="8.01562" y2="11.8283" gradientUnits="userSpaceOnUse">
<stop stop-color="white"/>
<stop offset="1" stop-color="#F8FBFF" stop-opacity="0.9"/>
</linearGradient>
<linearGradient id="paint16_linear_1422_368" x1="1.56292" y1="9.92366" x2="7.18084" y2="10.0334" gradientUnits="userSpaceOnUse">
<stop stop-color="white" stop-opacity="0.26"/>
<stop offset="0.299436" stop-color="white"/>
</linearGradient>
<linearGradient id="paint17_linear_1422_368" x1="9.85156" y1="15.297" x2="8.65625" y2="11.6173" gradientUnits="userSpaceOnUse">
<stop stop-color="white" stop-opacity="0.26"/>
<stop offset="0.883407" stop-color="white"/>
</linearGradient>
<linearGradient id="paint18_linear_1422_368" x1="0.835939" y1="6.73455" x2="6.4375" y2="6.84392" gradientUnits="userSpaceOnUse">
<stop stop-color="white" stop-opacity="0.26"/>
<stop offset="0.299436" stop-color="white"/>
</linearGradient>
<linearGradient id="paint19_linear_1422_368" x1="6.66406" y1="15.3125" x2="8.51562" y2="13.5625" gradientUnits="userSpaceOnUse">
<stop stop-color="white" stop-opacity="0.26"/>
<stop offset="0.838921" stop-color="white"/>
</linearGradient>
<linearGradient id="paint20_linear_1422_368" x1="11.7321" y1="-1.16875" x2="6.89063" y2="4.48425" gradientUnits="userSpaceOnUse">
<stop offset="0.451535" stop-color="white" stop-opacity="0.26"/>
<stop offset="0.760256" stop-color="white"/>
</linearGradient>
<linearGradient id="paint21_linear_1422_368" x1="15.8438" y1="9.29669" x2="10.1953" y2="10.0389" gradientUnits="userSpaceOnUse">
<stop stop-color="white" stop-opacity="0.26"/>
<stop offset="0.399774" stop-color="white"/>
</linearGradient>
<linearGradient id="paint22_linear_1422_368" x1="6.17969" y1="1.06238" x2="8.28906" y2="6.60925" gradientUnits="userSpaceOnUse">
<stop stop-color="white" stop-opacity="0.26"/>
<stop offset="0.378156" stop-color="white"/>
</linearGradient>
<linearGradient id="paint23_linear_1422_368" x1="15.2109" y1="5.57816" x2="10.9609" y2="7.06253" gradientUnits="userSpaceOnUse">
<stop stop-color="white" stop-opacity="0.26"/>
<stop offset="0.334252" stop-color="white"/>
</linearGradient>
<clipPath id="clip0_1422_368">
<rect width="16" height="16" rx="1" fill="white"/>
</clipPath>
</defs>
</svg>
