<svg width="24" height="24" viewBox="0 0 24 24" fill="none" xmlns="http://www.w3.org/2000/svg">
<path d="M4.85863 5.8C4.67197 5.8 4.51797 5.86067 4.39663 5.982C4.2753 6.10333 4.21463 6.25733 4.21463 6.444V17.518C4.21463 17.7047 4.2753 17.8587 4.39663 17.98C4.51797 18.1013 4.67197 18.162 4.85863 18.162H6.52463C6.7113 18.162 6.8653 18.1013 6.98663 17.98C7.10797 17.8587 7.16863 17.7047 7.16863 17.518V6.444C7.16863 6.25733 7.10797 6.10333 6.98663 5.982C6.8653 5.86067 6.7113 5.8 6.52463 5.8H4.85863ZM2.67463 6.346C2.67463 5.97267 2.7633 5.62733 2.94063 5.31C3.1273 4.98333 3.37463 4.72667 3.68263 4.54C3.99997 4.35333 4.3453 4.26 4.71863 4.26H6.62263C6.99597 4.26 7.3413 4.35333 7.65863 4.54C7.9853 4.71733 8.24197 4.96467 8.42863 5.282C8.6153 5.59 8.70863 5.93067 8.70863 6.304V17.616C8.70863 17.9893 8.6153 18.3347 8.42863 18.652C8.2513 18.9787 8.00397 19.2353 7.68663 19.422C7.37863 19.6087 7.03797 19.702 6.66463 19.702H4.76063C4.3873 19.702 4.0373 19.6087 3.71063 19.422C3.3933 19.2447 3.1413 18.9973 2.95463 18.68C2.76797 18.372 2.67463 18.0313 2.67463 17.658V6.346ZM9.35263 10.308C9.16597 10.308 9.01197 10.3687 8.89063 10.49C8.7693 10.6113 8.70863 10.7653 8.70863 10.952V17.518C8.70863 17.7047 8.7693 17.8587 8.89063 17.98C9.01197 18.1013 9.16597 18.162 9.35263 18.162H12.1246C12.3113 18.162 12.4653 18.1013 12.5866 17.98C12.708 17.8587 12.7686 17.7047 12.7686 17.518V10.952C12.7686 10.7653 12.708 10.6113 12.5866 10.49C12.4653 10.3687 12.3113 10.308 12.1246 10.308H9.35263ZM7.16863 10.854C7.16863 10.4807 7.2573 10.1353 7.43463 9.818C7.6213 9.49133 7.86863 9.23467 8.17663 9.048C8.49397 8.86133 8.8393 8.768 9.21263 8.768H12.2226C12.596 8.768 12.9413 8.86133 13.2586 9.048C13.5853 9.22533 13.842 9.47267 14.0286 9.79C14.2153 10.098 14.3086 10.4387 14.3086 10.812V17.616C14.3086 17.9893 14.2153 18.3347 14.0286 18.652C13.8513 18.9787 13.604 19.2353 13.2866 19.422C12.9786 19.6087 12.638 19.702 12.2646 19.702H9.25463C8.8813 19.702 8.5313 19.6087 8.20463 19.422C7.8873 19.2447 7.6353 18.9973 7.44863 18.68C7.26197 18.372 7.16863 18.0313 7.16863 17.658V10.854ZM14.0146 7.186C13.8653 7.23267 13.7486 7.30733 13.6646 7.41C13.5806 7.51267 13.5386 7.634 13.5386 7.774C13.5386 7.81133 13.548 7.87667 13.5666 7.97L16.3666 17.63C16.4133 17.7793 16.488 17.896 16.5906 17.98C16.7026 18.064 16.8286 18.106 16.9686 18.106C17.006 18.106 17.0713 18.0967 17.1646 18.078L18.7186 17.63C18.868 17.5833 18.9846 17.504 19.0686 17.392C19.1526 17.2893 19.1946 17.168 19.1946 17.028C19.1946 16.9907 19.1853 16.9253 19.1666 16.832L16.3806 7.256C16.334 7.10667 16.2546 6.99 16.1426 6.906C16.0306 6.81267 15.9 6.766 15.7506 6.766L15.5686 6.794L14.0146 7.186ZM12.0546 8.278C11.9986 8.082 11.9706 7.886 11.9706 7.69C11.9706 7.242 12.106 6.84067 12.3766 6.486C12.6473 6.122 13.0066 5.87933 13.4546 5.758L15.2606 5.296C15.4473 5.24933 15.6246 5.226 15.7926 5.226C16.2593 5.226 16.684 5.366 17.0666 5.646C17.4586 5.926 17.72 6.29 17.8506 6.738L20.7066 16.566C20.7626 16.762 20.7906 16.958 20.7906 17.154C20.7906 17.602 20.6553 18.0033 20.3846 18.358C20.114 18.722 19.7546 18.9647 19.3066 19.086L17.5006 19.548C17.314 19.5947 17.1366 19.618 16.9686 19.618C16.502 19.618 16.0726 19.478 15.6806 19.198C15.298 18.918 15.0413 18.554 14.9106 18.106L12.0546 8.278Z" fill="#000"/>
</svg>
