<svg width="24" height="24" viewBox="0 0 24 24" fill="none" xmlns="http://www.w3.org/2000/svg">
<path d="M16.5066 11.19C16.7493 11.19 16.95 11.2647 17.1086 11.414C17.2673 11.554 17.3466 11.7407 17.3466 11.974C17.3466 12.198 17.2673 12.38 17.1086 12.52C16.95 12.66 16.7493 12.73 16.5066 12.73L12.4466 12.744C12.12 12.744 11.84 12.632 11.6066 12.408C11.3733 12.1747 11.2566 11.8947 11.2566 11.568V7.074C11.2566 6.83133 11.3266 6.63533 11.4666 6.486C11.616 6.32733 11.8026 6.248 12.0266 6.248C12.2506 6.248 12.4326 6.32733 12.5726 6.486C12.722 6.63533 12.7966 6.83133 12.7966 7.074L12.7826 11.036C12.7826 11.0827 12.7966 11.1247 12.8246 11.162C12.862 11.19 12.904 11.204 12.9506 11.204L16.5066 11.19ZM11.9986 20.78C10.3746 20.78 8.88597 20.388 7.53263 19.604C6.18863 18.8293 5.12463 17.77 4.34063 16.426C3.56597 15.0727 3.17863 13.5887 3.17863 11.974C3.17863 10.35 3.56597 8.866 4.34063 7.522C5.12463 6.16867 6.18863 5.1 7.53263 4.316C8.88597 3.532 10.3746 3.14 11.9986 3.14C13.6226 3.14 15.1066 3.532 16.4506 4.316C17.804 5.1 18.868 6.16867 19.6426 7.522C20.4266 8.866 20.8186 10.35 20.8186 11.974C20.8186 13.5887 20.4266 15.0727 19.6426 16.426C18.868 17.77 17.804 18.8293 16.4506 19.604C15.1066 20.388 13.6226 20.78 11.9986 20.78ZM11.9986 19.254C13.3426 19.254 14.57 18.932 15.6806 18.288C16.8006 17.644 17.6826 16.7667 18.3266 15.656C18.9706 14.536 19.2926 13.3087 19.2926 11.974C19.2926 10.63 18.9706 9.40267 18.3266 8.292C17.6826 7.172 16.8006 6.29 15.6806 5.646C14.57 5.002 13.3426 4.68 11.9986 4.68C10.6546 4.68 9.42263 5.002 8.30263 5.646C7.19197 6.29 6.31463 7.172 5.67063 8.292C5.02663 9.40267 4.70463 10.63 4.70463 11.974C4.70463 13.3087 5.02663 14.536 5.67063 15.656C6.31463 16.7667 7.19197 17.644 8.30263 18.288C9.42263 18.932 10.6546 19.254 11.9986 19.254Z" fill="#000"/>
</svg>
