<svg width="24" height="24" viewBox="0 0 24 24" fill="none" xmlns="http://www.w3.org/2000/svg">
<path d="M5.23663 12.688C4.82597 12.688 4.4713 12.5433 4.17263 12.254C3.8833 11.9647 3.73863 11.6193 3.73863 11.218V5.282C3.73863 4.87133 3.8833 4.52133 4.17263 4.232C4.46197 3.94267 4.8073 3.798 5.20863 3.798H9.75863C10.1693 3.798 10.5193 3.94267 10.8086 4.232C11.098 4.512 11.2426 4.85267 11.2426 5.254V11.19C11.2426 11.6007 11.098 11.9553 10.8086 12.254C10.5286 12.5433 10.188 12.688 9.78663 12.688H5.23663ZM5.15263 10.77C5.15263 10.91 5.19463 11.0267 5.27863 11.12C5.37197 11.2133 5.4933 11.26 5.64263 11.26H9.35263C9.49263 11.26 9.6093 11.218 9.70263 11.134C9.79597 11.0407 9.84263 10.9193 9.84263 10.77V5.688C9.84263 5.548 9.79597 5.43133 9.70263 5.338C9.61863 5.24467 9.50197 5.198 9.35263 5.198H5.64263C5.50263 5.198 5.38597 5.24467 5.29263 5.338C5.1993 5.422 5.15263 5.53867 5.15263 5.688V10.77ZM5.23663 20.108C4.82597 20.108 4.4713 19.9633 4.17263 19.674C3.8833 19.3847 3.73863 19.0393 3.73863 18.638V15.418C3.73863 15.0073 3.8833 14.6573 4.17263 14.368C4.46197 14.0787 4.8073 13.934 5.20863 13.934H9.75863C10.1693 13.934 10.5193 14.0787 10.8086 14.368C11.098 14.648 11.2426 14.9887 11.2426 15.39V18.61C11.2426 19.0207 11.098 19.3707 10.8086 19.66C10.5286 19.9587 10.188 20.108 9.78663 20.108H5.23663ZM5.15263 18.232C5.15263 18.372 5.19463 18.4887 5.27863 18.582C5.37197 18.6753 5.4933 18.722 5.64263 18.722H9.35263C9.49263 18.722 9.6093 18.6753 9.70263 18.582C9.79597 18.498 9.84263 18.3813 9.84263 18.232V15.81C9.84263 15.67 9.79597 15.5533 9.70263 15.46C9.61863 15.3667 9.50197 15.32 9.35263 15.32H5.64263C5.50263 15.32 5.38597 15.3667 5.29263 15.46C5.1993 15.544 5.15263 15.6607 5.15263 15.81V18.232ZM12.7126 12.744C12.7126 12.3427 12.8573 12.002 13.1466 11.722C13.4453 11.4327 13.8 11.288 14.2106 11.288H18.7606C19.162 11.288 19.5026 11.4327 19.7826 11.722C20.072 12.0113 20.2166 12.3613 20.2166 12.772V18.638C20.2166 19.0393 20.072 19.3847 19.7826 19.674C19.4933 19.9633 19.1433 20.108 18.7326 20.108H14.1826C13.7813 20.108 13.436 19.9587 13.1466 19.66C12.8573 19.3707 12.7126 19.0207 12.7126 18.61V12.744ZM14.6306 12.66C14.4813 12.66 14.36 12.7067 14.2666 12.8C14.1826 12.8933 14.1406 13.01 14.1406 13.15V18.232C14.1406 18.3813 14.1873 18.498 14.2806 18.582C14.374 18.6753 14.4906 18.722 14.6306 18.722H18.3266C18.476 18.722 18.5926 18.6753 18.6766 18.582C18.77 18.4887 18.8166 18.372 18.8166 18.232V13.15C18.8166 13.0007 18.77 12.884 18.6766 12.8C18.5833 12.7067 18.4666 12.66 18.3266 12.66H14.6306ZM12.7126 5.254C12.7126 4.85267 12.8573 4.512 13.1466 4.232C13.4453 3.94267 13.8 3.798 14.2106 3.798H18.7606C19.162 3.798 19.5026 3.94267 19.7826 4.232C20.072 4.52133 20.2166 4.87133 20.2166 5.282V8.572C20.2166 8.97333 20.072 9.31867 19.7826 9.608C19.4933 9.89733 19.1433 10.042 18.7326 10.042H14.1826C13.7813 10.042 13.436 9.89733 13.1466 9.608C12.8573 9.30933 12.7126 8.95467 12.7126 8.544V5.254ZM14.6306 5.17C14.4813 5.17 14.36 5.21667 14.2666 5.31C14.1826 5.40333 14.1406 5.52 14.1406 5.66V8.152C14.1406 8.30133 14.1873 8.42267 14.2806 8.516C14.374 8.6 14.4906 8.642 14.6306 8.642H18.3266C18.476 8.642 18.5926 8.59533 18.6766 8.502C18.77 8.40867 18.8166 8.292 18.8166 8.152V5.66C18.8166 5.51067 18.77 5.394 18.6766 5.31C18.5833 5.21667 18.4666 5.17 18.3266 5.17H14.6306Z" fill="#000"/>
</svg>
