<svg width="64" height="16" viewBox="0 0 64 16" fill="none" xmlns="http://www.w3.org/2000/svg">
<g clip-path="url(#clip0_4476_4202)">
<g clip-path="url(#clip1_4476_4202)">
<rect width="16" height="16" rx="2.2" fill="url(#paint0_linear_4476_4202)"/>
<path d="M4.054 6.17969C6.97374 6.53821 9.05693 9.18847 8.71715 12.1082C8.71715 12.1176 8.71715 12.1293 8.71481 12.1387C8.71481 12.1481 8.71481 12.1551 8.71012 12.1645C8.6492 12.6472 8.525 13.1065 8.34926 13.5353C7.18698 13.3923 6.15828 12.8885 5.36156 12.1457C5.42014 12.0028 5.47169 11.8551 5.51622 11.7052C5.60526 11.4146 5.66853 11.11 5.70837 10.7983C5.75523 10.4187 5.75992 10.0438 5.72711 9.67822C5.60995 8.33786 4.98897 7.11466 4.0376 6.2289C4.04228 6.21249 4.04931 6.19843 4.05634 6.18203L4.054 6.17969Z" fill="url(#paint1_linear_4476_4202)"/>
<path d="M11.9455 9.82044C9.02581 9.46191 6.94262 6.81165 7.2824 3.89191C7.2824 3.88254 7.2824 3.87082 7.28474 3.86145C7.28474 3.85207 7.28474 3.84504 7.28943 3.83567C7.35035 3.35295 7.47455 2.89367 7.65029 2.46484C8.81257 2.60778 9.84127 3.11159 10.638 3.85442C10.5794 3.99736 10.5279 4.14498 10.4833 4.29495C10.3943 4.58552 10.331 4.89015 10.2912 5.20181C10.2443 5.58142 10.2396 5.95635 10.2724 6.3219C10.3896 7.66227 11.0106 8.88546 11.962 9.77123C11.9573 9.78763 11.9502 9.80169 11.9432 9.8181L11.9455 9.82044Z" fill="url(#paint2_linear_4476_4202)"/>
<path d="M11.9455 9.82013C9.02581 9.46161 6.94262 6.81134 7.2824 3.8916C7.93149 5.02341 8.98597 5.90683 10.2724 6.32394C10.5935 6.42939 10.9309 6.50437 11.2777 6.54655C11.5941 6.58404 11.9081 6.59576 12.215 6.57936C12.4236 6.56764 12.6274 6.54421 12.8313 6.5114C13.3656 7.46747 13.6116 8.59459 13.471 9.76624C13.471 9.77561 13.471 9.78264 13.4663 9.79201C13 9.86934 12.5173 9.8834 12.0252 9.83185C11.9924 9.82716 11.9666 9.82482 11.9455 9.82247V9.82013Z" fill="white"/>
<path d="M4.0537 6.17896C6.97344 6.53748 9.05663 9.18774 8.71685 12.1075C8.06776 10.9757 7.01328 10.0923 5.72681 9.67515C5.40578 9.5697 5.06834 9.49472 4.72154 9.45254C4.40519 9.41504 4.09119 9.40333 3.78422 9.41973C3.57567 9.43145 3.3718 9.45488 3.16793 9.48769C2.63366 8.53162 2.38762 7.4045 2.52822 6.23285C2.52822 6.22348 2.52822 6.21645 2.5329 6.20708C2.99922 6.12975 3.48194 6.11569 3.97403 6.16724C4.00215 6.16958 4.02558 6.17193 4.0537 6.17661V6.17896Z" fill="white"/>
</g>
<path d="M28.8649 5.08203L26.5742 8.67679L28.8792 12.7445H26.3082L24.7411 10.0621L23.071 12.7445H20.5L22.9249 8.67679L20.5599 5.08203H23.1022L24.7579 7.64494L26.2651 5.08203H28.8673H28.8649Z" fill="white"/>
<path d="M31.8792 5.08134L32.2794 5.81701C32.634 5.21271 33.3432 4.78516 34.3927 4.78516C35.5453 4.78516 36.3887 5.24137 36.8607 6.09647C37.2441 5.38946 38.0732 4.78516 39.3 4.78516C41.9309 4.78516 42.2424 7.05427 42.2424 8.30826V12.7438H39.9062V8.33692C39.9062 7.46749 39.3886 6.90857 38.5907 6.90857C37.9102 6.90857 37.3352 7.62991 37.3352 8.45635V12.7438H34.999V8.33692C34.999 7.46749 34.4958 6.90857 33.7266 6.90857C33.0174 6.90857 32.3968 7.62991 32.3968 8.45635V12.7438H30.0605V5.08134H31.8792V5.08134Z" fill="white"/>
<path d="M44.6222 1.23633C45.4201 1.23633 46.0862 1.91467 46.0862 2.71006C46.0862 3.50544 45.4201 4.18379 44.6222 4.18379C43.8243 4.18379 43.1294 3.51978 43.1294 2.71006C43.1294 1.90034 43.7955 1.23633 44.6222 1.23633V1.23633ZM45.7747 5.08188V12.7443H43.4385V5.08188H45.7747Z" fill="white"/>
<path d="M48.9368 5.08134L49.337 5.81701C49.6916 5.21271 50.4008 4.78516 51.4503 4.78516C53.3433 4.78516 54.3928 6.00809 54.3928 8.23421V12.7438H52.0566V8.33692C52.0566 7.42211 51.5989 6.90857 50.7842 6.90857C50.075 6.90857 49.4544 7.62991 49.4544 8.45635V12.7438H47.1182V5.08134H48.9368V5.08134Z" fill="white"/>
<path d="M55.2798 8.85359C55.2798 6.5988 57.0385 4.7859 59.2262 4.7859C60.0696 4.7859 60.8532 5.06536 61.5025 5.53829V2.01758L63.8387 2.81296V12.7445H62.08L61.6654 12.0232C60.9993 12.5821 60.1439 12.9069 59.2262 12.9069C57.0385 12.9069 55.2798 11.094 55.2798 8.85598V8.85359ZM59.5808 10.7979C60.6902 10.7979 61.5768 9.92843 61.5768 8.80821C61.5768 7.68798 60.6902 6.83288 59.5808 6.83288C58.4714 6.83288 57.5992 7.71664 57.5992 8.80821C57.5992 9.89977 58.4714 10.7979 59.5808 10.7979V10.7979Z" fill="white"/>
</g>
<defs>
<linearGradient id="paint0_linear_4476_4202" x1="16.2507" y1="-0.700646" x2="1.98711" y2="14.3386" gradientUnits="userSpaceOnUse">
<stop offset="0.01" stop-color="#E9913E"/>
<stop offset="1" stop-color="#F20000"/>
</linearGradient>
<linearGradient id="paint1_linear_4476_4202" x1="4.02354" y1="13.943" x2="7.46349" y2="7.48724" gradientUnits="userSpaceOnUse">
<stop offset="0.19" stop-color="white"/>
<stop offset="0.4" stop-color="#FDFCFC" stop-opacity="0.99"/>
<stop offset="0.51" stop-color="#F9F4F5" stop-opacity="0.97"/>
<stop offset="0.6" stop-color="#F3E7E9" stop-opacity="0.93"/>
<stop offset="0.67" stop-color="#E9D4D7" stop-opacity="0.88"/>
<stop offset="0.74" stop-color="#DDBBC0" stop-opacity="0.81"/>
<stop offset="0.81" stop-color="#CE9CA4" stop-opacity="0.73"/>
<stop offset="0.87" stop-color="#BC7883" stop-opacity="0.63"/>
<stop offset="0.92" stop-color="#A84E5C" stop-opacity="0.51"/>
<stop offset="0.97" stop-color="#911F31" stop-opacity="0.38"/>
<stop offset="1" stop-color="#830317" stop-opacity="0.3"/>
</linearGradient>
<linearGradient id="paint2_linear_4476_4202" x1="13.1359" y1="-2.65056" x2="7.95023" y2="11.0085" gradientUnits="userSpaceOnUse">
<stop offset="0.19" stop-color="white"/>
<stop offset="0.4" stop-color="#FDFCFC" stop-opacity="0.99"/>
<stop offset="0.51" stop-color="#F9F4F5" stop-opacity="0.97"/>
<stop offset="0.6" stop-color="#F3E7E9" stop-opacity="0.93"/>
<stop offset="0.67" stop-color="#E9D4D7" stop-opacity="0.88"/>
<stop offset="0.74" stop-color="#DDBBC0" stop-opacity="0.81"/>
<stop offset="0.81" stop-color="#CE9CA4" stop-opacity="0.73"/>
<stop offset="0.87" stop-color="#BC7883" stop-opacity="0.63"/>
<stop offset="0.92" stop-color="#A84E5C" stop-opacity="0.51"/>
<stop offset="0.97" stop-color="#911F31" stop-opacity="0.38"/>
<stop offset="1" stop-color="#830317" stop-opacity="0.3"/>
</linearGradient>
<clipPath id="clip0_4476_4202">
<rect width="63.9999" height="16" fill="white"/>
</clipPath>
<clipPath id="clip1_4476_4202">
<rect width="16" height="16" rx="2.2" fill="white"/>
</clipPath>
</defs>
</svg>
