<svg width="24" height="24" viewBox="0 0 24 24" fill="none" xmlns="http://www.w3.org/2000/svg">
<path d="M12.0126 20.808C10.3793 20.808 8.8813 20.4113 7.51863 19.618C6.1653 18.834 5.09197 17.7653 4.29863 16.412C3.51463 15.0587 3.12263 13.5653 3.12263 11.932C3.12263 10.308 3.51463 8.824 4.29863 7.48C5.09197 6.12667 6.1653 5.06267 7.51863 4.288C8.8813 3.504 10.3793 3.112 12.0126 3.112C13.646 3.112 15.1393 3.504 16.4926 4.288C17.846 5.06267 18.9146 6.12667 19.6986 7.48C20.492 8.824 20.8886 10.308 20.8886 11.932C20.8886 13.5653 20.492 15.0587 19.6986 16.412C18.9146 17.7653 17.846 18.834 16.4926 19.618C15.1393 20.4113 13.646 20.808 12.0126 20.808ZM8.75063 16.566C8.77863 16.5847 8.8253 16.594 8.89063 16.594C8.97463 16.594 9.0493 16.5753 9.11463 16.538L12.0126 14.438L14.8686 16.524C14.9526 16.5893 15.0366 16.622 15.1206 16.622C15.1673 16.622 15.228 16.6033 15.3026 16.566C15.4146 16.5007 15.4706 16.4073 15.4706 16.286C15.4706 16.258 15.4613 16.216 15.4426 16.16L14.3506 12.758L17.2346 10.672C17.2813 10.644 17.3186 10.602 17.3466 10.546C17.384 10.49 17.4026 10.434 17.4026 10.378C17.4026 10.35 17.3933 10.308 17.3746 10.252C17.3653 10.1773 17.3233 10.1167 17.2486 10.07C17.174 10.014 17.0853 9.986 16.9826 9.986H13.4686L12.3626 6.584C12.316 6.50933 12.2553 6.44867 12.1806 6.402C12.1153 6.346 12.0593 6.318 12.0126 6.318C11.938 6.318 11.8633 6.346 11.7886 6.402C11.7233 6.44867 11.6766 6.50933 11.6486 6.584L10.5706 9.986H7.00063C6.9353 9.986 6.8653 10.0093 6.79063 10.056C6.7253 10.0933 6.67397 10.1447 6.63663 10.21C6.61797 10.266 6.60863 10.3127 6.60863 10.35C6.60863 10.4153 6.62263 10.4807 6.65063 10.546C6.68797 10.602 6.72997 10.644 6.77663 10.672L9.66063 12.758L8.56863 16.16C8.54997 16.188 8.54063 16.2347 8.54063 16.3C8.54063 16.3653 8.5593 16.426 8.59663 16.482C8.63397 16.5287 8.6853 16.5567 8.75063 16.566Z" fill="#000"/>
</svg>
