<svg width="512" height="512" viewBox="0 0 512 512" fill="none" xmlns="http://www.w3.org/2000/svg">
<mask id="path-1-outside-1_39_68" maskUnits="userSpaceOnUse" x="44.7097" y="42.5847" width="426" height="431" fill="black">
<rect fill="white" x="44.7097" y="42.5847" width="426" height="431"/>
<path fill-rule="evenodd" clip-rule="evenodd" d="M300.443 112.378C300.677 112.344 300.904 112.296 301.124 112.233C304.92 120.878 314.698 126.189 322.121 128.939C321.95 129.471 321.865 130.041 321.88 130.631L322.56 156.739C315.845 161.139 309.85 166.296 304.993 171.235C305.162 167.082 304.476 162.633 303.035 158.556C300.279 150.757 294.295 142.997 284.19 140.439C272.13 137.387 259.386 143.233 252.124 153.847C251.16 152.592 250.102 151.332 248.971 150.088C244.843 145.548 239.385 140.84 232.954 137.007C220.084 129.337 202.795 124.925 184.706 133.326C171.916 139.265 166.729 152.705 164.966 165.382C163.775 173.94 164.026 182.857 164.914 190.516C159.521 188.131 152.965 185.897 145.751 184.498C133.434 182.11 118.835 182.09 104.77 188.316C102.329 189.396 101.155 192.155 102.003 194.634C75.8955 210.522 72.1014 249.095 73.7049 267.649C42.2978 293.723 65.598 352.212 94.4451 362.463C94.0187 363.675 93.6062 365.009 93.2277 366.438C92.6804 366.117 92.0638 365.894 91.3979 365.794C88.6085 365.378 86.0101 367.303 85.5942 370.092C84.951 374.406 84.5422 382.641 87.3038 391.108C90.1289 399.77 96.2989 408.665 108.544 413.521C120.885 418.415 132.008 415.858 140.391 411.186C148.599 406.611 154.508 399.856 157.019 395.398C157.545 394.465 157.746 393.437 157.658 392.445C171.404 399.987 197.609 409.136 224.814 402.463C250.67 396.121 271.941 385.327 283.337 378.266C283.66 382.789 285.008 387.679 287.389 392.071C291.304 399.292 298.339 405.723 308.971 406.874C319.36 407.998 327.727 404.009 333.341 397.369C336.529 393.598 338.779 389.047 340.104 384.194C341.077 384.938 342.098 385.671 343.156 386.384C348.029 389.672 354.085 392.834 360.708 395.098C373.801 399.573 390.185 400.842 403.626 390.916C416.737 381.233 421.964 366.393 422.964 352.463C423.959 338.595 420.849 324.807 416.317 316.111C415.882 315.278 415.251 314.615 414.508 314.149C415.308 313.687 416.138 313.215 416.994 312.729C418.264 312.007 419.591 311.254 420.955 310.454L445.499 316.676L438.942 296.642C447.423 287.533 454.49 274.142 455.923 252.835C457.201 233.831 454.334 221.22 450.029 212.361L451.474 199.379L442.37 201.037C440.061 198.476 437.752 196.403 435.699 194.568C436.526 194.034 437.208 193.257 437.623 192.284C440.547 185.435 444.251 165.411 425.75 151.828C416.525 145.056 407.096 144.322 399.339 146.08C391.798 147.788 385.82 151.834 382.79 154.847C382.681 154.955 382.578 155.067 382.48 155.183C378.083 151.582 373.559 149.087 368.989 147.509C373.168 147.401 378.117 146.667 383.941 145.034C386.656 144.272 388.24 141.454 387.479 138.738C387.443 138.609 387.402 138.483 387.357 138.359C399.556 132.68 402.185 120.806 399.16 111.085C393.692 100.175 383.761 97.8945 375.541 99.6518C378.497 93.7761 380.595 86.3549 380.414 79.3203C380.295 74.6734 379.168 69.8477 376.259 65.7727C373.282 61.6032 368.762 58.6757 362.757 57.3988C346.394 53.9199 334.64 62.0515 331.515 73.0267C330.848 75.3677 330.47 77.815 330.308 80.2576C326.731 78.2512 322.275 76.8286 316.994 76.9146C307.283 77.0726 301.068 82.4915 297.739 89.0018C294.552 95.2364 293.878 102.596 294.662 108.05C295.064 110.842 297.652 112.779 300.443 112.378ZM356.342 145.338L356.204 145.336L356.235 145.289L356.342 145.338Z"/>
<path d="M129.58 86.6629C127.522 85.0757 124.6 85.2875 122.792 87.155C120.985 89.0224 120.868 91.9496 122.521 93.955C124.985 96.9436 128.699 104.186 130.264 112.079C131.854 120.096 130.907 126.931 126.63 130.982C122.387 135 114.817 135.649 105.75 133.63C96.9786 131.677 88.7484 127.631 85.1817 125.073C83.3967 123.792 80.9927 123.797 79.2126 125.084C77.4325 126.371 76.6752 128.653 77.3323 130.749C82.03 145.737 80.4331 153.907 77.7252 158.061C75.0979 162.091 70.4888 163.73 65.6102 163.473C62.7939 163.325 60.3908 165.489 60.2428 168.305C60.0948 171.121 62.2579 173.524 65.0743 173.672C72.3516 174.055 81.0687 171.634 86.281 163.638C90.123 157.744 91.5127 149.635 89.8321 139.114C93.9638 140.895 98.691 142.522 103.531 143.599C113.238 145.761 125.465 146.151 133.653 138.397C141.806 130.676 142.099 119.256 140.282 110.093C139.87 108.013 139.332 105.954 138.704 103.961C140.812 104.878 143.008 105.688 145.265 106.336C154.062 108.863 164.254 109.029 173.55 102.832C175.897 101.267 176.531 98.097 174.966 95.7504C173.402 93.4038 170.231 92.7697 167.885 94.3341C161.861 98.3498 155.032 98.5158 148.084 96.5202C141.062 94.5033 134.41 90.388 129.58 86.6629Z"/>
<path d="M402.341 441.708C402.678 440.557 402.998 439.333 403.33 438.062C404.56 433.352 405.958 427.998 409.024 423.335C410.859 420.542 413.176 418.248 416.237 416.753C419.288 415.262 423.44 414.388 429.239 415.007C432.043 415.306 434.559 413.276 434.859 410.471C435.158 407.667 433.127 405.151 430.323 404.852C422.944 404.064 416.808 405.107 411.753 407.577C406.708 410.042 403.102 413.751 400.49 417.724C397.17 422.774 395.266 428.676 394.021 433.233C379.554 427.578 367.875 427.861 358.779 431.819C348.669 436.218 342.772 444.717 339.916 452.035C338.891 454.662 340.189 457.623 342.816 458.648C345.444 459.674 348.405 458.375 349.43 455.748C351.607 450.17 355.923 444.2 362.854 441.184C369.651 438.227 380 437.663 395.254 444.889C396.605 445.528 398.167 445.544 399.531 444.933C400.894 444.321 401.921 443.142 402.341 441.708Z"/>
</mask>
<path fill-rule="evenodd" clip-rule="evenodd" d="M300.443 112.378C300.677 112.344 300.904 112.296 301.124 112.233C304.92 120.878 314.698 126.189 322.121 128.939C321.95 129.471 321.865 130.041 321.88 130.631L322.56 156.739C315.845 161.139 309.85 166.296 304.993 171.235C305.162 167.082 304.476 162.633 303.035 158.556C300.279 150.757 294.295 142.997 284.19 140.439C272.13 137.387 259.386 143.233 252.124 153.847C251.16 152.592 250.102 151.332 248.971 150.088C244.843 145.548 239.385 140.84 232.954 137.007C220.084 129.337 202.795 124.925 184.706 133.326C171.916 139.265 166.729 152.705 164.966 165.382C163.775 173.94 164.026 182.857 164.914 190.516C159.521 188.131 152.965 185.897 145.751 184.498C133.434 182.11 118.835 182.09 104.77 188.316C102.329 189.396 101.155 192.155 102.003 194.634C75.8955 210.522 72.1014 249.095 73.7049 267.649C42.2978 293.723 65.598 352.212 94.4451 362.463C94.0187 363.675 93.6062 365.009 93.2277 366.438C92.6804 366.117 92.0638 365.894 91.3979 365.794C88.6085 365.378 86.0101 367.303 85.5942 370.092C84.951 374.406 84.5422 382.641 87.3038 391.108C90.1289 399.77 96.2989 408.665 108.544 413.521C120.885 418.415 132.008 415.858 140.391 411.186C148.599 406.611 154.508 399.856 157.019 395.398C157.545 394.465 157.746 393.437 157.658 392.445C171.404 399.987 197.609 409.136 224.814 402.463C250.67 396.121 271.941 385.327 283.337 378.266C283.66 382.789 285.008 387.679 287.389 392.071C291.304 399.292 298.339 405.723 308.971 406.874C319.36 407.998 327.727 404.009 333.341 397.369C336.529 393.598 338.779 389.047 340.104 384.194C341.077 384.938 342.098 385.671 343.156 386.384C348.029 389.672 354.085 392.834 360.708 395.098C373.801 399.573 390.185 400.842 403.626 390.916C416.737 381.233 421.964 366.393 422.964 352.463C423.959 338.595 420.849 324.807 416.317 316.111C415.882 315.278 415.251 314.615 414.508 314.149C415.308 313.687 416.138 313.215 416.994 312.729C418.264 312.007 419.591 311.254 420.955 310.454L445.499 316.676L438.942 296.642C447.423 287.533 454.49 274.142 455.923 252.835C457.201 233.831 454.334 221.22 450.029 212.361L451.474 199.379L442.37 201.037C440.061 198.476 437.752 196.403 435.699 194.568C436.526 194.034 437.208 193.257 437.623 192.284C440.547 185.435 444.251 165.411 425.75 151.828C416.525 145.056 407.096 144.322 399.339 146.08C391.798 147.788 385.82 151.834 382.79 154.847C382.681 154.955 382.578 155.067 382.48 155.183C378.083 151.582 373.559 149.087 368.989 147.509C373.168 147.401 378.117 146.667 383.941 145.034C386.656 144.272 388.24 141.454 387.479 138.738C387.443 138.609 387.402 138.483 387.357 138.359C399.556 132.68 402.185 120.806 399.16 111.085C393.692 100.175 383.761 97.8945 375.541 99.6518C378.497 93.7761 380.595 86.3549 380.414 79.3203C380.295 74.6734 379.168 69.8477 376.259 65.7727C373.282 61.6032 368.762 58.6757 362.757 57.3988C346.394 53.9199 334.64 62.0515 331.515 73.0267C330.848 75.3677 330.47 77.815 330.308 80.2576C326.731 78.2512 322.275 76.8286 316.994 76.9146C307.283 77.0726 301.068 82.4915 297.739 89.0018C294.552 95.2364 293.878 102.596 294.662 108.05C295.064 110.842 297.652 112.779 300.443 112.378ZM356.342 145.338L356.204 145.336L356.235 145.289L356.342 145.338Z" fill="black"/>
<path d="M129.58 86.6629C127.522 85.0757 124.6 85.2875 122.792 87.155C120.985 89.0224 120.868 91.9496 122.521 93.955C124.985 96.9436 128.699 104.186 130.264 112.079C131.854 120.096 130.907 126.931 126.63 130.982C122.387 135 114.817 135.649 105.75 133.63C96.9786 131.677 88.7484 127.631 85.1817 125.073C83.3967 123.792 80.9927 123.797 79.2126 125.084C77.4325 126.371 76.6752 128.653 77.3323 130.749C82.03 145.737 80.4331 153.907 77.7252 158.061C75.0979 162.091 70.4888 163.73 65.6102 163.473C62.7939 163.325 60.3908 165.489 60.2428 168.305C60.0948 171.121 62.2579 173.524 65.0743 173.672C72.3516 174.055 81.0687 171.634 86.281 163.638C90.123 157.744 91.5127 149.635 89.8321 139.114C93.9638 140.895 98.691 142.522 103.531 143.599C113.238 145.761 125.465 146.151 133.653 138.397C141.806 130.676 142.099 119.256 140.282 110.093C139.87 108.013 139.332 105.954 138.704 103.961C140.812 104.878 143.008 105.688 145.265 106.336C154.062 108.863 164.254 109.029 173.55 102.832C175.897 101.267 176.531 98.097 174.966 95.7504C173.402 93.4038 170.231 92.7697 167.885 94.3341C161.861 98.3498 155.032 98.5158 148.084 96.5202C141.062 94.5033 134.41 90.388 129.58 86.6629Z" fill="black"/>
<path d="M402.341 441.708C402.678 440.557 402.998 439.333 403.33 438.062C404.56 433.352 405.958 427.998 409.024 423.335C410.859 420.542 413.176 418.248 416.237 416.753C419.288 415.262 423.44 414.388 429.239 415.007C432.043 415.306 434.559 413.276 434.859 410.471C435.158 407.667 433.127 405.151 430.323 404.852C422.944 404.064 416.808 405.107 411.753 407.577C406.708 410.042 403.102 413.751 400.49 417.724C397.17 422.774 395.266 428.676 394.021 433.233C379.554 427.578 367.875 427.861 358.779 431.819C348.669 436.218 342.772 444.717 339.916 452.035C338.891 454.662 340.189 457.623 342.816 458.648C345.444 459.674 348.405 458.375 349.43 455.748C351.607 450.17 355.923 444.2 362.854 441.184C369.651 438.227 380 437.663 395.254 444.889C396.605 445.528 398.167 445.544 399.531 444.933C400.894 444.321 401.921 443.142 402.341 441.708Z" fill="black"/>
<path fill-rule="evenodd" clip-rule="evenodd" d="M300.443 112.378C300.677 112.344 300.904 112.296 301.124 112.233C304.92 120.878 314.698 126.189 322.121 128.939C321.95 129.471 321.865 130.041 321.88 130.631L322.56 156.739C315.845 161.139 309.85 166.296 304.993 171.235C305.162 167.082 304.476 162.633 303.035 158.556C300.279 150.757 294.295 142.997 284.19 140.439C272.13 137.387 259.386 143.233 252.124 153.847C251.16 152.592 250.102 151.332 248.971 150.088C244.843 145.548 239.385 140.84 232.954 137.007C220.084 129.337 202.795 124.925 184.706 133.326C171.916 139.265 166.729 152.705 164.966 165.382C163.775 173.94 164.026 182.857 164.914 190.516C159.521 188.131 152.965 185.897 145.751 184.498C133.434 182.11 118.835 182.09 104.77 188.316C102.329 189.396 101.155 192.155 102.003 194.634C75.8955 210.522 72.1014 249.095 73.7049 267.649C42.2978 293.723 65.598 352.212 94.4451 362.463C94.0187 363.675 93.6062 365.009 93.2277 366.438C92.6804 366.117 92.0638 365.894 91.3979 365.794C88.6085 365.378 86.0101 367.303 85.5942 370.092C84.951 374.406 84.5422 382.641 87.3038 391.108C90.1289 399.77 96.2989 408.665 108.544 413.521C120.885 418.415 132.008 415.858 140.391 411.186C148.599 406.611 154.508 399.856 157.019 395.398C157.545 394.465 157.746 393.437 157.658 392.445C171.404 399.987 197.609 409.136 224.814 402.463C250.67 396.121 271.941 385.327 283.337 378.266C283.66 382.789 285.008 387.679 287.389 392.071C291.304 399.292 298.339 405.723 308.971 406.874C319.36 407.998 327.727 404.009 333.341 397.369C336.529 393.598 338.779 389.047 340.104 384.194C341.077 384.938 342.098 385.671 343.156 386.384C348.029 389.672 354.085 392.834 360.708 395.098C373.801 399.573 390.185 400.842 403.626 390.916C416.737 381.233 421.964 366.393 422.964 352.463C423.959 338.595 420.849 324.807 416.317 316.111C415.882 315.278 415.251 314.615 414.508 314.149C415.308 313.687 416.138 313.215 416.994 312.729C418.264 312.007 419.591 311.254 420.955 310.454L445.499 316.676L438.942 296.642C447.423 287.533 454.49 274.142 455.923 252.835C457.201 233.831 454.334 221.22 450.029 212.361L451.474 199.379L442.37 201.037C440.061 198.476 437.752 196.403 435.699 194.568C436.526 194.034 437.208 193.257 437.623 192.284C440.547 185.435 444.251 165.411 425.75 151.828C416.525 145.056 407.096 144.322 399.339 146.08C391.798 147.788 385.82 151.834 382.79 154.847C382.681 154.955 382.578 155.067 382.48 155.183C378.083 151.582 373.559 149.087 368.989 147.509C373.168 147.401 378.117 146.667 383.941 145.034C386.656 144.272 388.24 141.454 387.479 138.738C387.443 138.609 387.402 138.483 387.357 138.359C399.556 132.68 402.185 120.806 399.16 111.085C393.692 100.175 383.761 97.8945 375.541 99.6518C378.497 93.7761 380.595 86.3549 380.414 79.3203C380.295 74.6734 379.168 69.8477 376.259 65.7727C373.282 61.6032 368.762 58.6757 362.757 57.3988C346.394 53.9199 334.64 62.0515 331.515 73.0267C330.848 75.3677 330.47 77.815 330.308 80.2576C326.731 78.2512 322.275 76.8286 316.994 76.9146C307.283 77.0726 301.068 82.4915 297.739 89.0018C294.552 95.2364 293.878 102.596 294.662 108.05C295.064 110.842 297.652 112.779 300.443 112.378ZM356.342 145.338L356.204 145.336L356.235 145.289L356.342 145.338Z" stroke="white" stroke-width="27.2346" stroke-linecap="round" stroke-linejoin="round" mask="url(#path-1-outside-1_39_68)"/>
<path d="M129.58 86.6629C127.522 85.0757 124.6 85.2875 122.792 87.155C120.985 89.0224 120.868 91.9496 122.521 93.955C124.985 96.9436 128.699 104.186 130.264 112.079C131.854 120.096 130.907 126.931 126.63 130.982C122.387 135 114.817 135.649 105.75 133.63C96.9786 131.677 88.7484 127.631 85.1817 125.073C83.3967 123.792 80.9927 123.797 79.2126 125.084C77.4325 126.371 76.6752 128.653 77.3323 130.749C82.03 145.737 80.4331 153.907 77.7252 158.061C75.0979 162.091 70.4888 163.73 65.6102 163.473C62.7939 163.325 60.3908 165.489 60.2428 168.305C60.0948 171.121 62.2579 173.524 65.0743 173.672C72.3516 174.055 81.0687 171.634 86.281 163.638C90.123 157.744 91.5127 149.635 89.8321 139.114C93.9638 140.895 98.691 142.522 103.531 143.599C113.238 145.761 125.465 146.151 133.653 138.397C141.806 130.676 142.099 119.256 140.282 110.093C139.87 108.013 139.332 105.954 138.704 103.961C140.812 104.878 143.008 105.688 145.265 106.336C154.062 108.863 164.254 109.029 173.55 102.832C175.897 101.267 176.531 98.097 174.966 95.7504C173.402 93.4038 170.231 92.7697 167.885 94.3341C161.861 98.3498 155.032 98.5158 148.084 96.5202C141.062 94.5033 134.41 90.388 129.58 86.6629Z" stroke="white" stroke-width="27.2346" stroke-linecap="round" stroke-linejoin="round" mask="url(#path-1-outside-1_39_68)"/>
<path d="M402.341 441.708C402.678 440.557 402.998 439.333 403.33 438.062C404.56 433.352 405.958 427.998 409.024 423.335C410.859 420.542 413.176 418.248 416.237 416.753C419.288 415.262 423.44 414.388 429.239 415.007C432.043 415.306 434.559 413.276 434.859 410.471C435.158 407.667 433.127 405.151 430.323 404.852C422.944 404.064 416.808 405.107 411.753 407.577C406.708 410.042 403.102 413.751 400.49 417.724C397.17 422.774 395.266 428.676 394.021 433.233C379.554 427.578 367.875 427.861 358.779 431.819C348.669 436.218 342.772 444.717 339.916 452.035C338.891 454.662 340.189 457.623 342.816 458.648C345.444 459.674 348.405 458.375 349.43 455.748C351.607 450.17 355.923 444.2 362.854 441.184C369.651 438.227 380 437.663 395.254 444.889C396.605 445.528 398.167 445.544 399.531 444.933C400.894 444.321 401.921 443.142 402.341 441.708Z" stroke="white" stroke-width="27.2346" stroke-linecap="round" stroke-linejoin="round" mask="url(#path-1-outside-1_39_68)"/>
<mask id="path-2-outside-2_39_68" maskUnits="userSpaceOnUse" x="51.7097" y="49.5847" width="412" height="417" fill="black">
<rect fill="white" x="51.7097" y="49.5847" width="412" height="417"/>
<path fill-rule="evenodd" clip-rule="evenodd" d="M300.443 112.378C300.677 112.344 300.904 112.296 301.124 112.233C304.92 120.878 314.698 126.189 322.121 128.939C321.95 129.471 321.865 130.041 321.88 130.631L322.56 156.739C315.845 161.139 309.85 166.296 304.993 171.235C305.162 167.082 304.476 162.633 303.035 158.556C300.279 150.757 294.295 142.997 284.19 140.439C272.13 137.387 259.386 143.233 252.124 153.847C251.16 152.592 250.102 151.332 248.971 150.088C244.843 145.548 239.385 140.84 232.954 137.007C220.084 129.337 202.795 124.925 184.706 133.326C171.916 139.265 166.729 152.705 164.966 165.382C163.775 173.94 164.026 182.857 164.914 190.516C159.521 188.131 152.965 185.897 145.751 184.498C133.434 182.11 118.835 182.09 104.77 188.316C102.329 189.396 101.155 192.155 102.003 194.634C75.8955 210.522 72.1014 249.095 73.7049 267.649C42.2978 293.723 65.598 352.212 94.4451 362.463C94.0187 363.675 93.6062 365.009 93.2277 366.438C92.6804 366.117 92.0638 365.894 91.3979 365.794C88.6085 365.378 86.0101 367.303 85.5942 370.092C84.951 374.406 84.5422 382.641 87.3038 391.108C90.1289 399.77 96.2989 408.665 108.544 413.521C120.885 418.415 132.008 415.858 140.391 411.186C148.599 406.611 154.508 399.856 157.019 395.398C157.545 394.465 157.746 393.437 157.658 392.445C171.404 399.987 197.609 409.136 224.814 402.463C250.67 396.121 271.941 385.327 283.337 378.266C283.66 382.789 285.008 387.679 287.389 392.071C291.304 399.292 298.339 405.723 308.971 406.874C319.36 407.998 327.727 404.009 333.341 397.369C336.529 393.598 338.779 389.047 340.104 384.194C341.077 384.938 342.098 385.671 343.156 386.384C348.029 389.672 354.085 392.834 360.708 395.098C373.801 399.573 390.185 400.842 403.626 390.916C416.737 381.233 421.964 366.393 422.964 352.463C423.959 338.595 420.849 324.807 416.317 316.111C415.882 315.278 415.251 314.615 414.508 314.149C415.308 313.687 416.138 313.215 416.994 312.729C418.264 312.007 419.591 311.254 420.955 310.454L445.499 316.676L438.942 296.642C447.423 287.533 454.49 274.142 455.923 252.835C457.201 233.831 454.334 221.22 450.029 212.361L451.474 199.379L442.37 201.037C440.061 198.476 437.752 196.403 435.699 194.568C436.526 194.034 437.208 193.257 437.623 192.284C440.547 185.435 444.251 165.411 425.75 151.828C416.525 145.056 407.096 144.322 399.339 146.08C391.798 147.788 385.82 151.834 382.79 154.847C382.681 154.955 382.578 155.067 382.48 155.183C378.083 151.582 373.559 149.087 368.989 147.509C373.168 147.401 378.117 146.667 383.941 145.034C386.656 144.272 388.24 141.454 387.479 138.738C387.443 138.609 387.402 138.483 387.357 138.359C399.556 132.68 402.185 120.806 399.16 111.085C393.692 100.175 383.761 97.8945 375.541 99.6518C378.497 93.7761 380.595 86.3549 380.414 79.3203C380.295 74.6734 379.168 69.8477 376.259 65.7727C373.282 61.6032 368.762 58.6757 362.757 57.3988C346.394 53.9199 334.64 62.0515 331.515 73.0267C330.848 75.3677 330.47 77.815 330.308 80.2576C326.731 78.2512 322.275 76.8286 316.994 76.9146C307.283 77.0726 301.068 82.4915 297.739 89.0018C294.552 95.2364 293.878 102.596 294.662 108.05C295.064 110.842 297.652 112.779 300.443 112.378ZM356.342 145.338L356.204 145.336L356.235 145.289L356.342 145.338Z"/>
<path d="M129.58 86.6629C127.522 85.0757 124.6 85.2875 122.792 87.155C120.985 89.0224 120.868 91.9496 122.521 93.955C124.985 96.9436 128.699 104.186 130.264 112.079C131.854 120.096 130.907 126.931 126.63 130.982C122.387 135 114.817 135.649 105.75 133.63C96.9786 131.677 88.7484 127.631 85.1817 125.073C83.3967 123.792 80.9927 123.797 79.2126 125.084C77.4325 126.371 76.6752 128.653 77.3323 130.749C82.03 145.737 80.4331 153.907 77.7252 158.061C75.0979 162.091 70.4888 163.73 65.6102 163.473C62.7939 163.325 60.3908 165.489 60.2428 168.305C60.0948 171.121 62.2579 173.524 65.0743 173.672C72.3516 174.055 81.0687 171.634 86.281 163.638C90.123 157.744 91.5127 149.635 89.8321 139.114C93.9638 140.895 98.691 142.522 103.531 143.599C113.238 145.761 125.465 146.151 133.653 138.397C141.806 130.676 142.099 119.256 140.282 110.093C139.87 108.013 139.332 105.954 138.704 103.961C140.812 104.878 143.008 105.688 145.265 106.336C154.062 108.863 164.254 109.029 173.55 102.832C175.897 101.267 176.531 98.097 174.966 95.7504C173.402 93.4038 170.231 92.7697 167.885 94.3341C161.861 98.3498 155.032 98.5158 148.084 96.5202C141.062 94.5033 134.41 90.388 129.58 86.6629Z"/>
<path d="M402.341 441.708C402.678 440.557 402.998 439.333 403.33 438.062C404.56 433.352 405.958 427.998 409.024 423.335C410.859 420.542 413.176 418.248 416.237 416.753C419.288 415.262 423.44 414.388 429.239 415.007C432.043 415.306 434.559 413.276 434.859 410.471C435.158 407.667 433.127 405.151 430.323 404.852C422.944 404.064 416.808 405.107 411.753 407.577C406.708 410.042 403.102 413.751 400.49 417.724C397.17 422.774 395.266 428.676 394.021 433.233C379.554 427.578 367.875 427.861 358.779 431.819C348.669 436.218 342.772 444.717 339.916 452.035C338.891 454.662 340.189 457.623 342.816 458.648C345.444 459.674 348.405 458.375 349.43 455.748C351.607 450.17 355.923 444.2 362.854 441.184C369.651 438.227 380 437.663 395.254 444.889C396.605 445.528 398.167 445.544 399.531 444.933C400.894 444.321 401.921 443.142 402.341 441.708Z"/>
</mask>
<path fill-rule="evenodd" clip-rule="evenodd" d="M300.443 112.378C300.677 112.344 300.904 112.296 301.124 112.233C304.92 120.878 314.698 126.189 322.121 128.939C321.95 129.471 321.865 130.041 321.88 130.631L322.56 156.739C315.845 161.139 309.85 166.296 304.993 171.235C305.162 167.082 304.476 162.633 303.035 158.556C300.279 150.757 294.295 142.997 284.19 140.439C272.13 137.387 259.386 143.233 252.124 153.847C251.16 152.592 250.102 151.332 248.971 150.088C244.843 145.548 239.385 140.84 232.954 137.007C220.084 129.337 202.795 124.925 184.706 133.326C171.916 139.265 166.729 152.705 164.966 165.382C163.775 173.94 164.026 182.857 164.914 190.516C159.521 188.131 152.965 185.897 145.751 184.498C133.434 182.11 118.835 182.09 104.77 188.316C102.329 189.396 101.155 192.155 102.003 194.634C75.8955 210.522 72.1014 249.095 73.7049 267.649C42.2978 293.723 65.598 352.212 94.4451 362.463C94.0187 363.675 93.6062 365.009 93.2277 366.438C92.6804 366.117 92.0638 365.894 91.3979 365.794C88.6085 365.378 86.0101 367.303 85.5942 370.092C84.951 374.406 84.5422 382.641 87.3038 391.108C90.1289 399.77 96.2989 408.665 108.544 413.521C120.885 418.415 132.008 415.858 140.391 411.186C148.599 406.611 154.508 399.856 157.019 395.398C157.545 394.465 157.746 393.437 157.658 392.445C171.404 399.987 197.609 409.136 224.814 402.463C250.67 396.121 271.941 385.327 283.337 378.266C283.66 382.789 285.008 387.679 287.389 392.071C291.304 399.292 298.339 405.723 308.971 406.874C319.36 407.998 327.727 404.009 333.341 397.369C336.529 393.598 338.779 389.047 340.104 384.194C341.077 384.938 342.098 385.671 343.156 386.384C348.029 389.672 354.085 392.834 360.708 395.098C373.801 399.573 390.185 400.842 403.626 390.916C416.737 381.233 421.964 366.393 422.964 352.463C423.959 338.595 420.849 324.807 416.317 316.111C415.882 315.278 415.251 314.615 414.508 314.149C415.308 313.687 416.138 313.215 416.994 312.729C418.264 312.007 419.591 311.254 420.955 310.454L445.499 316.676L438.942 296.642C447.423 287.533 454.49 274.142 455.923 252.835C457.201 233.831 454.334 221.22 450.029 212.361L451.474 199.379L442.37 201.037C440.061 198.476 437.752 196.403 435.699 194.568C436.526 194.034 437.208 193.257 437.623 192.284C440.547 185.435 444.251 165.411 425.75 151.828C416.525 145.056 407.096 144.322 399.339 146.08C391.798 147.788 385.82 151.834 382.79 154.847C382.681 154.955 382.578 155.067 382.48 155.183C378.083 151.582 373.559 149.087 368.989 147.509C373.168 147.401 378.117 146.667 383.941 145.034C386.656 144.272 388.24 141.454 387.479 138.738C387.443 138.609 387.402 138.483 387.357 138.359C399.556 132.68 402.185 120.806 399.16 111.085C393.692 100.175 383.761 97.8945 375.541 99.6518C378.497 93.7761 380.595 86.3549 380.414 79.3203C380.295 74.6734 379.168 69.8477 376.259 65.7727C373.282 61.6032 368.762 58.6757 362.757 57.3988C346.394 53.9199 334.64 62.0515 331.515 73.0267C330.848 75.3677 330.47 77.815 330.308 80.2576C326.731 78.2512 322.275 76.8286 316.994 76.9146C307.283 77.0726 301.068 82.4915 297.739 89.0018C294.552 95.2364 293.878 102.596 294.662 108.05C295.064 110.842 297.652 112.779 300.443 112.378ZM356.342 145.338L356.204 145.336L356.235 145.289L356.342 145.338Z" stroke="black" stroke-width="13.6173" stroke-linecap="round" stroke-linejoin="round" mask="url(#path-2-outside-2_39_68)"/>
<path d="M129.58 86.6629C127.522 85.0757 124.6 85.2875 122.792 87.155C120.985 89.0224 120.868 91.9496 122.521 93.955C124.985 96.9436 128.699 104.186 130.264 112.079C131.854 120.096 130.907 126.931 126.63 130.982C122.387 135 114.817 135.649 105.75 133.63C96.9786 131.677 88.7484 127.631 85.1817 125.073C83.3967 123.792 80.9927 123.797 79.2126 125.084C77.4325 126.371 76.6752 128.653 77.3323 130.749C82.03 145.737 80.4331 153.907 77.7252 158.061C75.0979 162.091 70.4888 163.73 65.6102 163.473C62.7939 163.325 60.3908 165.489 60.2428 168.305C60.0948 171.121 62.2579 173.524 65.0743 173.672C72.3516 174.055 81.0687 171.634 86.281 163.638C90.123 157.744 91.5127 149.635 89.8321 139.114C93.9638 140.895 98.691 142.522 103.531 143.599C113.238 145.761 125.465 146.151 133.653 138.397C141.806 130.676 142.099 119.256 140.282 110.093C139.87 108.013 139.332 105.954 138.704 103.961C140.812 104.878 143.008 105.688 145.265 106.336C154.062 108.863 164.254 109.029 173.55 102.832C175.897 101.267 176.531 98.097 174.966 95.7504C173.402 93.4038 170.231 92.7697 167.885 94.3341C161.861 98.3498 155.032 98.5158 148.084 96.5202C141.062 94.5033 134.41 90.388 129.58 86.6629Z" stroke="black" stroke-width="13.6173" stroke-linecap="round" stroke-linejoin="round" mask="url(#path-2-outside-2_39_68)"/>
<path d="M402.341 441.708C402.678 440.557 402.998 439.333 403.33 438.062C404.56 433.352 405.958 427.998 409.024 423.335C410.859 420.542 413.176 418.248 416.237 416.753C419.288 415.262 423.44 414.388 429.239 415.007C432.043 415.306 434.559 413.276 434.859 410.471C435.158 407.667 433.127 405.151 430.323 404.852C422.944 404.064 416.808 405.107 411.753 407.577C406.708 410.042 403.102 413.751 400.49 417.724C397.17 422.774 395.266 428.676 394.021 433.233C379.554 427.578 367.875 427.861 358.779 431.819C348.669 436.218 342.772 444.717 339.916 452.035C338.891 454.662 340.189 457.623 342.816 458.648C345.444 459.674 348.405 458.375 349.43 455.748C351.607 450.17 355.923 444.2 362.854 441.184C369.651 438.227 380 437.663 395.254 444.889C396.605 445.528 398.167 445.544 399.531 444.933C400.894 444.321 401.921 443.142 402.341 441.708Z" stroke="black" stroke-width="13.6173" stroke-linecap="round" stroke-linejoin="round" mask="url(#path-2-outside-2_39_68)"/>
<path fill-rule="evenodd" clip-rule="evenodd" d="M122.791 87.1539C124.598 85.2865 127.52 85.0747 129.578 86.6619C134.408 90.3869 141.061 94.5022 148.083 96.5192C155.03 98.5147 161.86 98.3487 167.883 94.333C170.23 92.7686 173.4 93.4027 174.965 95.7493C176.529 98.0959 175.895 101.266 173.549 102.831C164.253 109.028 154.06 108.862 145.263 106.335C143.007 105.687 140.811 104.877 138.702 103.96C139.33 105.953 139.868 108.011 140.281 110.091C142.098 119.255 141.804 130.675 133.651 138.396C125.463 146.15 113.237 145.76 103.529 143.598C98.6896 142.521 93.9624 140.894 89.8307 139.113C91.5112 149.633 90.1215 157.743 86.2796 163.637C81.0672 171.633 72.3502 174.054 65.0728 173.671C62.2565 173.523 60.0933 171.12 60.2413 168.304C60.3893 165.487 62.7924 163.324 65.6088 163.472C70.4874 163.729 75.0964 162.09 77.7238 158.06C80.4317 153.905 82.0285 145.736 77.3308 130.748C76.6738 128.652 77.4311 126.37 79.2112 125.083C80.9913 123.796 83.3952 123.791 85.1802 125.072C88.747 127.63 96.9771 131.676 105.749 133.629C114.816 135.648 122.386 134.999 126.628 130.981C130.906 126.93 131.853 120.095 130.263 112.078C128.697 104.185 124.984 96.9425 122.52 93.9539C120.866 91.9485 120.983 89.0213 122.791 87.1539Z" fill="#F9C01B"/>
<path d="M73.7046 267.649C42.2975 293.723 65.5977 352.211 94.4448 362.463C89.7535 375.796 86.7412 403.944 112.222 409.87C137.704 415.796 149.506 398.512 152.222 389.13C163.333 396.784 193.407 410.166 224.814 402.463C256.221 394.759 280.863 380.488 289.258 374.315C292.468 384.932 302.295 405.426 315.924 402.463C329.554 399.5 336.911 382.463 338.887 374.315C347.282 384.438 370.886 401.574 398.145 389.13C425.404 376.685 419.38 334.562 412.96 315.056C427.034 306.661 453.021 295.969 455.923 252.835C458.824 209.7 440.367 199.502 432.219 191.354C435.923 184.687 439.627 168.391 424.812 156.539C409.997 144.688 391.479 151.601 384.072 156.539C352.664 128.688 314.196 159.255 298.887 178.021C301.833 160.349 294.531 153.656 285.713 145.574L285.554 145.428C278.443 138.91 259.875 156.539 251.48 166.169C246.542 156.292 229.11 136.391 198.888 135.798C168.666 135.206 168.024 180.983 171.481 203.946C163.827 194.317 140.518 178.317 108.519 191.354C76.5191 204.391 71.9761 247.649 73.7046 267.649Z" fill="#FFE066"/>
<path d="M79.0207 352.032C58.7465 331.269 48.2311 288.797 73.7046 267.649C71.9762 247.649 76.5192 204.391 108.519 191.354C140.519 178.317 163.827 194.317 171.481 203.946C168.024 180.983 168.666 135.206 198.888 135.798C225.734 136.325 242.488 152.087 249.358 162.525C240.507 153.599 225.984 144.501 205.697 144.103C175.475 143.511 174.833 189.288 178.29 212.251C170.636 202.621 147.327 186.621 115.328 199.658C83.3279 212.695 78.7848 255.954 80.5133 275.954C58.0854 294.573 63.5552 329.722 79.0207 352.032Z" fill="#FFEB9D"/>
<path d="M93.1888 366.585C90.1571 378.152 89.3787 395.8 101.393 404.973C95.921 394 98.2411 379.33 101.254 370.768C98.5005 369.79 95.798 368.372 93.1888 366.585Z" fill="#FFEB9D"/>
<path d="M293.309 384.541C295.82 389.677 299.175 394.924 303.218 398.459C299.84 393.058 297.39 386.999 296.066 382.62C295.285 383.194 294.364 383.838 293.309 384.541Z" fill="#FFEB9D"/>
<path d="M447.067 207.121C444.717 203.518 442.164 200.676 439.723 198.287C439.495 198.78 439.261 199.238 439.028 199.658C440.014 200.644 441.151 201.66 442.383 202.761C443.842 204.065 445.434 205.488 447.067 207.121Z" fill="#FFEB9D"/>
<path d="M432.49 165.563C430.813 162.43 428.336 159.359 424.812 156.539C409.997 144.688 391.479 151.601 384.072 156.539C356.409 132.008 323.267 152.798 305.298 170.925C306.488 175.02 306.757 179.96 305.696 186.325C321.004 167.56 359.473 136.993 390.88 164.844C398.288 159.906 416.806 152.992 431.621 164.844C431.918 165.082 432.208 165.321 432.49 165.563Z" fill="#FFEB9D"/>
<path d="M296.249 157.358C293.681 152.877 289.865 149.38 285.713 145.574L285.554 145.428C278.611 139.064 260.745 155.721 252.091 165.474C254.969 168.801 257.033 171.961 258.289 174.474C266.684 164.844 285.252 147.215 292.363 153.733L292.522 153.879C293.805 155.055 295.057 156.202 296.249 157.358Z" fill="#FFEB9D"/>
<path d="M106.449 343.198C103.577 343.771 101.234 343.466 99.4199 342.284C97.5988 341.069 96.3984 339.009 95.8188 336.105L85.099 282.392C84.5194 279.488 84.824 277.145 86.0127 275.363C87.2279 273.542 89.2876 272.342 92.1919 271.762L111.994 267.81C115.657 267.079 119.244 267.169 122.755 268.082C126.266 268.994 129.242 270.579 131.683 272.837C134.118 275.063 135.638 277.693 136.244 280.73C136.738 283.205 136.803 285.594 136.439 287.897C136.069 290.168 135.325 292.204 134.209 294.005C133.093 295.806 131.69 297.202 130 298.191C132.593 298.463 135.078 299.391 137.453 300.976C139.855 302.521 141.9 304.516 143.589 306.958C145.271 309.368 146.395 311.992 146.962 314.83C147.594 317.999 147.306 321.282 146.097 324.681C144.881 328.046 142.88 331.002 140.093 333.549C137.301 336.062 133.973 337.704 130.112 338.475L106.449 343.198ZM112.368 297.283C114.249 296.908 115.873 296.275 117.24 295.384C118.639 294.487 119.649 293.445 120.27 292.257C120.918 291.03 121.113 289.772 120.856 288.485C120.434 286.373 119.32 284.828 117.512 283.851C115.697 282.84 113.569 282.578 111.126 283.066L103.255 284.637L106.031 298.548L112.368 297.283ZM120.485 325.314C124.207 324.536 126.782 323.422 128.208 321.971C129.661 320.479 130.133 318.463 129.626 315.922C129.297 314.272 128.618 313.018 127.588 312.159C126.552 311.268 125.028 310.766 123.015 310.653C121.002 310.539 118.378 310.806 115.144 311.451L108.857 312.706L111.722 327.062L120.485 325.314Z" fill="#F9C01B"/>
<path d="M196.893 327.206C189.468 328.688 182.623 328.441 176.361 326.465C170.091 324.456 164.836 320.906 160.594 315.816C156.385 310.719 153.53 304.408 152.028 296.883C150.54 289.425 150.763 282.551 152.7 276.262C154.663 269.933 158.156 264.654 163.181 260.426C168.199 256.164 174.42 253.292 181.846 251.81C189.239 250.335 196.053 250.605 202.29 252.62C208.519 254.603 213.739 258.143 217.947 263.24C222.183 268.297 225.044 274.555 226.533 282.014C228.035 289.539 227.804 296.465 225.841 302.794C223.912 309.116 220.454 314.405 215.469 318.66C210.478 322.882 204.286 325.731 196.893 327.206ZM193.88 312.107C197.906 311.303 201.256 309.691 203.93 307.27C206.598 304.816 208.418 301.724 209.389 297.996C210.387 294.227 210.425 290.033 209.503 285.413C208.588 280.825 206.952 277.016 204.597 273.986C202.269 270.916 199.405 268.776 196.007 267.567C192.602 266.325 188.886 266.106 184.859 266.909C180.8 267.719 177.42 269.355 174.72 271.815C172.046 274.237 170.206 277.315 169.202 281.05C168.19 284.752 168.142 288.897 169.058 293.485C169.98 298.105 171.609 301.967 173.944 305.07C176.305 308.133 179.205 310.283 182.643 311.518C186.075 312.721 189.82 312.917 193.88 312.107Z" fill="#F9C01B"/>
<path d="M279.368 310.746C271.943 312.228 265.098 311.981 258.836 310.005C252.566 307.996 247.311 304.446 243.069 299.356C238.86 294.259 236.005 287.948 234.503 280.423C233.015 272.965 233.239 266.091 235.175 259.801C237.138 253.473 240.631 248.194 245.656 243.966C250.674 239.704 256.895 236.832 264.321 235.35C271.714 233.875 278.528 234.145 284.765 236.16C290.994 238.143 296.214 241.683 300.422 246.78C304.658 251.837 307.52 258.095 309.008 265.554C310.51 273.079 310.279 280.005 308.317 286.334C306.387 292.656 302.929 297.945 297.945 302.2C292.953 306.422 286.761 309.271 279.368 310.746ZM276.355 295.647C280.381 294.843 283.732 293.231 286.406 290.81C289.073 288.356 290.893 285.264 291.864 281.536C292.863 277.767 292.901 273.573 291.978 268.953C291.063 264.365 289.428 260.556 287.073 257.526C284.744 254.456 281.88 252.316 278.482 251.107C275.077 249.865 271.361 249.645 267.335 250.449C263.275 251.259 259.895 252.895 257.195 255.355C254.521 257.777 252.681 260.855 251.677 264.59C250.665 268.292 250.617 272.437 251.533 277.025C252.455 281.645 254.084 285.507 256.419 288.61C258.781 291.673 261.68 293.823 265.119 295.058C268.55 296.261 272.296 296.457 276.355 295.647Z" fill="#F9C01B"/>
<path d="M335.883 298.849C334.332 299.159 332.834 299.132 331.389 298.768C329.976 298.398 328.776 297.711 327.786 296.708C326.796 295.704 326.15 294.443 325.847 292.925L314.732 237.232C314.337 235.252 314.466 233.321 315.121 231.44C315.768 229.527 316.835 227.907 318.32 226.581C319.839 225.248 321.588 224.384 323.568 223.989C325.318 223.64 327.024 223.677 328.687 224.1C330.35 224.523 331.821 225.276 333.101 226.359L357.843 247.674L372.804 218.435C373.511 216.99 374.551 215.753 375.924 214.724C377.291 213.662 378.816 212.963 380.499 212.627C382.512 212.225 384.462 212.368 386.35 213.055C388.264 213.703 389.887 214.786 391.219 216.304C392.545 217.79 393.409 219.539 393.811 221.553L404.906 277.147C405.209 278.665 405.097 280.077 404.568 281.384C404.039 282.69 403.194 283.786 402.032 284.669C400.87 285.553 399.497 286.153 397.913 286.47C396.362 286.779 394.864 286.752 393.418 286.389C392.006 286.018 390.805 285.332 389.816 284.328C388.826 283.324 388.18 282.063 387.877 280.545L379.854 240.347C375.052 249.645 371.34 256.151 368.718 259.866C367.767 261.291 366.638 262.426 365.331 263.27C364.05 264.075 362.7 264.619 361.281 264.902C358.476 265.462 355.777 264.92 353.184 263.275C351.244 262.152 348.713 260.392 345.592 257.995C342.465 255.565 338.885 252.676 334.854 249.328L342.877 289.526C343.18 291.044 343.067 292.457 342.538 293.763C342.01 295.07 341.165 296.165 340.003 297.049C338.841 297.933 337.468 298.533 335.883 298.849Z" fill="#F9C01B"/>
<path d="M100.631 339.494C97.7595 340.067 95.4166 339.762 93.6021 338.58C91.7809 337.365 90.5805 335.305 90.0009 332.401L79.2811 278.688C78.7015 275.784 79.0061 273.441 80.1948 271.659C81.41 269.838 83.4697 268.638 86.374 268.058L106.176 264.106C109.839 263.375 113.426 263.466 116.937 264.378C120.448 265.29 123.424 266.875 125.865 269.134C128.3 271.359 129.82 273.99 130.426 277.026C130.92 279.501 130.985 281.89 130.621 284.194C130.251 286.464 129.507 288.5 128.391 290.301C127.275 292.103 125.872 293.498 124.182 294.487C126.776 294.759 129.26 295.687 131.636 297.272C134.037 298.818 136.083 300.812 137.771 303.254C139.453 305.664 140.578 308.288 141.144 311.126C141.776 314.295 141.488 317.578 140.279 320.977C139.063 324.342 137.062 327.298 134.276 329.845C131.483 332.358 128.156 334 124.294 334.771L100.631 339.494ZM106.55 293.579C108.431 293.204 110.055 292.571 111.422 291.68C112.821 290.783 113.832 289.741 114.452 288.553C115.1 287.326 115.295 286.068 115.038 284.781C114.617 282.669 113.502 281.124 111.694 280.147C109.879 279.136 107.751 278.875 105.308 279.362L97.4371 280.933L100.213 294.844L106.55 293.579ZM114.667 321.61C118.389 320.832 120.964 319.718 122.39 318.267C123.843 316.776 124.316 314.759 123.808 312.218C123.479 310.568 122.8 309.314 121.77 308.455C120.735 307.564 119.21 307.062 117.197 306.949C115.184 306.836 112.561 307.102 109.326 307.747L103.039 309.002L105.904 323.359L114.667 321.61Z" fill="white"/>
<path d="M191.075 323.502C183.65 324.984 176.805 324.737 170.543 322.761C164.273 320.752 159.018 317.202 154.776 312.112C150.567 307.015 147.712 300.704 146.21 293.179C144.722 285.721 144.946 278.847 146.882 272.558C148.845 266.229 152.338 260.95 157.363 256.722C162.381 252.46 168.602 249.588 176.028 248.106C183.421 246.631 190.235 246.901 196.472 248.917C202.701 250.899 207.921 254.439 212.129 259.536C216.365 264.593 219.227 270.851 220.715 278.31C222.217 285.835 221.986 292.762 220.024 299.09C218.094 305.412 214.636 310.701 209.652 314.956C204.66 319.178 198.468 322.027 191.075 323.502ZM188.062 308.403C192.088 307.6 195.439 305.987 198.113 303.566C200.78 301.112 202.6 298.021 203.571 294.292C204.57 290.524 204.608 286.329 203.685 281.709C202.77 277.121 201.135 273.312 198.78 270.282C196.451 267.212 193.587 265.072 190.189 263.863C186.784 262.621 183.068 262.402 179.042 263.205C174.982 264.015 171.602 265.651 168.902 268.112C166.228 270.533 164.388 273.611 163.384 277.346C162.372 281.048 162.324 285.193 163.24 289.781C164.162 294.401 165.791 298.263 168.126 301.366C170.488 304.429 173.387 306.579 176.826 307.814C180.257 309.017 184.003 309.213 188.062 308.403Z" fill="white"/>
<path d="M273.551 307.042C266.125 308.524 259.281 308.277 253.018 306.301C246.749 304.292 241.493 300.742 237.251 295.652C233.042 290.555 230.187 284.244 228.685 276.719C227.197 269.261 227.421 262.387 229.357 256.098C231.32 249.769 234.814 244.49 239.838 240.262C244.856 236 251.078 233.128 258.503 231.646C265.896 230.171 272.711 230.441 278.947 232.456C285.177 234.439 290.396 237.979 294.605 243.076C298.84 248.133 301.702 254.391 303.19 261.85C304.692 269.375 304.461 276.302 302.499 282.63C300.569 288.952 297.112 294.241 292.127 298.496C287.135 302.718 280.943 305.567 273.551 307.042ZM270.537 291.943C274.564 291.14 277.914 289.527 280.588 287.106C283.255 284.652 285.075 281.561 286.047 277.832C287.045 274.064 287.083 269.869 286.161 265.249C285.245 260.661 283.61 256.852 281.255 253.822C278.926 250.752 276.063 248.612 272.664 247.403C269.259 246.161 265.543 245.942 261.517 246.745C257.457 247.555 254.077 249.191 251.377 251.652C248.703 254.073 246.864 257.151 245.859 260.886C244.847 264.588 244.8 268.733 245.715 273.321C246.637 277.941 248.266 281.803 250.601 284.906C252.963 287.969 255.863 290.119 259.301 291.354C262.732 292.557 266.478 292.753 270.537 291.943Z" fill="white"/>
<path d="M330.066 295.145C328.514 295.455 327.016 295.428 325.571 295.064C324.159 294.694 322.958 294.007 321.968 293.004C320.978 292 320.332 290.739 320.029 289.221L308.914 233.528C308.519 231.548 308.648 229.617 309.303 227.737C309.95 225.823 311.017 224.203 312.502 222.877C314.021 221.544 315.77 220.68 317.751 220.285C319.5 219.936 321.206 219.973 322.869 220.396C324.532 220.819 326.003 221.572 327.283 222.655L352.025 243.97L366.986 214.731C367.693 213.286 368.733 212.049 370.106 211.02C371.473 209.958 372.998 209.259 374.681 208.923C376.694 208.521 378.645 208.664 380.532 209.351C382.446 209.999 384.069 211.082 385.402 212.601C386.728 214.086 387.591 215.836 387.993 217.849L399.088 273.443C399.391 274.961 399.279 276.373 398.75 277.68C398.222 278.986 397.376 280.082 396.214 280.966C395.052 281.85 393.679 282.45 392.095 282.766C390.544 283.075 389.046 283.048 387.6 282.685C386.188 282.315 384.987 281.628 383.998 280.624C383.008 279.62 382.362 278.36 382.059 276.841L374.036 236.643C369.234 245.941 365.522 252.447 362.9 256.162C361.949 257.587 360.82 258.722 359.513 259.566C358.233 260.371 356.883 260.915 355.463 261.198C352.658 261.758 349.959 261.216 347.366 259.571C345.426 258.448 342.895 256.688 339.774 254.291C336.647 251.861 333.068 248.972 329.036 245.624L337.059 285.822C337.362 287.34 337.249 288.753 336.72 290.059C336.192 291.366 335.347 292.461 334.185 293.345C333.023 294.229 331.65 294.829 330.066 295.145Z" fill="white"/>
<path fill-rule="evenodd" clip-rule="evenodd" d="M89.8549 344.263L89.8237 344.243C86.0319 341.712 84.1296 337.765 83.3247 333.732L72.6049 280.02C71.8098 276.036 72.0079 271.662 74.532 267.879C77.0621 264.087 81.009 262.185 85.0422 261.38L104.844 257.428C109.485 256.502 114.114 256.608 118.65 257.787C123.14 258.954 127.139 261.04 130.475 264.121C133.897 267.254 136.196 271.146 137.104 275.692C137.742 278.892 137.847 282.094 137.347 285.255L137.342 285.289C136.981 287.5 136.346 289.616 135.414 291.606C136.932 292.591 138.335 293.709 139.624 294.953C139.593 294.806 139.564 294.659 139.534 294.511C137.859 286.117 138.058 278.081 140.376 270.553L140.38 270.54C142.723 262.983 146.943 256.596 152.967 251.522C158.99 246.41 166.313 243.101 174.696 241.428C183.051 239.761 191.056 240.013 198.551 242.432C206.028 244.814 212.339 249.101 217.365 255.181C218.846 256.951 220.175 258.832 221.356 260.817C221.677 258.535 222.174 256.292 222.851 254.093L222.855 254.08C225.199 246.523 229.418 240.136 235.442 235.061C241.465 229.95 248.789 226.641 257.171 224.968C265.526 223.301 273.531 223.553 281.026 225.972C288.504 228.354 294.814 232.641 299.84 238.721C301.517 240.725 302.998 242.871 304.292 245.149L302.238 234.86C301.61 231.715 301.813 228.561 302.864 225.524C303.884 222.525 305.6 219.911 307.969 217.796L307.991 217.777L308.012 217.758C310.428 215.638 313.267 214.236 316.419 213.607C319.125 213.067 321.861 213.113 324.548 213.797C327.188 214.468 329.595 215.69 331.682 217.456L331.705 217.476L349.909 233.159L360.901 211.677C362.103 209.245 363.84 207.218 365.977 205.606C368.159 203.922 370.64 202.786 373.349 202.245C376.532 201.61 379.725 201.825 382.789 202.926C385.795 203.957 388.398 205.699 390.5 208.086C392.65 210.502 394.041 213.359 394.671 216.515L405.766 272.109C406.303 274.797 406.138 277.573 405.063 280.232C404.058 282.715 402.437 284.786 400.337 286.383C398.269 287.957 395.917 288.945 393.428 289.442C390.948 289.937 388.425 289.912 385.94 289.287L385.907 289.278L385.875 289.27C383.323 288.601 381.031 287.311 379.15 285.403C377.137 283.361 375.919 280.861 375.383 278.173L370.999 256.211C370.105 257.663 369.275 258.934 368.512 260.019C367.105 262.106 365.347 263.903 363.208 265.285L363.172 265.308L363.136 265.33C361.186 266.556 359.065 267.421 356.797 267.874C352.189 268.794 347.765 267.847 343.842 265.397C342.496 264.611 340.989 263.618 339.337 262.442L343.737 284.489C344.273 287.177 344.109 289.953 343.033 292.612C342.029 295.095 340.407 297.166 338.308 298.763C336.239 300.337 333.887 301.325 331.399 301.821C328.919 302.316 326.395 302.291 323.91 301.666L323.878 301.658L323.845 301.649C321.293 300.981 319.001 299.69 317.121 297.783C315.107 295.741 313.889 293.24 313.353 290.553L310.64 276.957C310.324 279.568 309.783 282.127 309.008 284.629C306.702 292.176 302.525 298.571 296.548 303.673L296.525 303.693C290.527 308.767 283.232 312.052 274.884 313.718C266.507 315.39 258.484 315.164 250.97 312.793L250.941 312.784C243.432 310.378 237.085 306.087 232.021 300.01L232.002 299.986C230.535 298.209 229.217 296.322 228.044 294.331C227.719 296.627 227.216 298.882 226.532 301.092C224.225 308.638 220.05 315.032 214.073 320.134L214.049 320.153C208.051 325.227 200.757 328.512 192.409 330.178C184.032 331.85 176.008 331.624 168.495 329.253L168.466 329.244C160.956 326.838 154.61 322.547 149.546 316.47L149.527 316.446C149.097 315.926 148.68 315.396 148.275 314.856C148.225 317.679 147.678 320.491 146.694 323.258L146.683 323.289C145.072 327.749 142.424 331.621 138.87 334.87L138.85 334.887L138.831 334.905C135.084 338.277 130.629 340.449 125.627 341.447L101.964 346.17C97.9768 346.965 93.655 346.739 89.8862 344.284L89.8549 344.263ZM220.024 299.089C221.987 292.761 222.218 285.834 220.716 278.309C219.227 270.85 216.365 264.592 212.13 259.535C207.921 254.438 202.702 250.898 196.472 248.915C190.236 246.9 183.422 246.63 176.029 248.105C168.603 249.587 162.381 252.459 157.364 256.721C152.339 260.949 148.846 266.228 146.883 272.557C144.946 278.846 144.722 285.72 146.211 293.178C147.713 300.703 150.568 307.014 154.777 312.111C159.019 317.201 164.274 320.751 170.543 322.76C176.806 324.736 183.65 324.983 191.076 323.501C198.469 322.026 204.661 319.177 209.652 314.955C214.637 310.7 218.094 305.411 220.024 299.089ZM302.499 282.629C304.462 276.3 304.693 269.374 303.191 261.849C301.702 254.39 298.841 248.132 294.605 243.075C290.397 237.978 285.177 234.438 278.948 232.455C272.711 230.44 265.897 230.17 258.504 231.645C251.078 233.127 244.857 235.999 239.839 240.261C234.814 244.489 231.321 249.768 229.358 256.097C227.421 262.386 227.198 269.26 228.686 276.718C230.188 284.243 233.043 290.554 237.252 295.651C241.494 300.741 246.749 304.291 253.019 306.3C259.281 308.276 266.126 308.523 273.551 307.041C280.944 305.566 287.136 302.717 292.127 298.495C297.112 294.24 300.57 288.951 302.499 282.629ZM329.037 245.623C332.053 248.128 334.816 250.376 337.326 252.367C338.171 253.037 338.987 253.678 339.775 254.29C342.896 256.687 345.426 258.447 347.366 259.57C349.96 261.215 352.659 261.757 355.464 261.197C356.883 260.914 358.233 260.37 359.514 259.565C360.821 258.721 361.95 257.586 362.901 256.161C364.516 253.873 366.544 250.526 368.986 246.121C370.509 243.373 372.192 240.214 374.037 236.642L382.06 276.84C382.362 278.358 383.009 279.619 383.998 280.623C384.988 281.627 386.189 282.314 387.601 282.684C389.046 283.047 390.545 283.074 392.096 282.765C393.68 282.449 395.053 281.849 396.215 280.965C397.377 280.081 398.222 278.985 398.751 277.679C399.279 276.372 399.392 274.96 399.089 273.442L387.994 217.848C387.592 215.834 386.728 214.085 385.402 212.6C384.07 211.081 382.446 209.998 380.533 209.35C378.645 208.663 376.695 208.52 374.682 208.922C372.999 209.258 371.474 209.957 370.107 211.019C368.734 212.048 367.694 213.285 366.987 214.73L352.026 243.969L327.284 222.654C326.004 221.571 324.533 220.818 322.87 220.395C321.207 219.972 319.5 219.935 317.751 220.284C315.771 220.679 314.022 221.543 312.503 222.876C311.018 224.202 309.951 225.822 309.303 227.736C308.649 229.616 308.52 231.547 308.915 233.527L320.03 289.22C320.333 290.738 320.979 291.999 321.969 293.003C322.958 294.006 324.159 294.693 325.572 295.063C327.017 295.427 328.515 295.454 330.066 295.144C331.65 294.828 333.023 294.228 334.185 293.344C335.347 292.46 336.193 291.365 336.721 290.058C337.25 288.752 337.363 287.339 337.06 285.821L329.037 245.623ZM129.288 288.633C129.917 287.269 130.361 285.789 130.622 284.193C130.986 281.889 130.921 279.5 130.427 277.025C129.821 273.988 128.301 271.358 125.866 269.132C123.425 266.874 120.449 265.289 116.938 264.377C113.427 263.465 109.84 263.374 106.177 264.105L86.3748 268.057C83.4705 268.637 81.4107 269.837 80.1956 271.658C79.0068 273.44 78.7023 275.783 79.2819 278.687L90.0017 332.4C90.5813 335.304 91.7817 337.364 93.6028 338.579C95.4174 339.761 97.7603 340.066 100.632 339.493L124.295 334.77C128.156 333.999 131.483 332.357 134.276 329.844C137.063 327.297 139.064 324.341 140.279 320.976C141.489 317.577 141.777 314.294 141.145 311.125C140.578 308.287 139.454 305.663 137.772 303.253C136.083 300.811 134.038 298.817 131.636 297.271C131.62 297.26 131.603 297.249 131.586 297.238C129.226 295.673 126.758 294.756 124.183 294.486C125.873 293.497 127.276 292.101 128.392 290.3C128.723 289.765 129.022 289.209 129.288 288.633ZM114.453 288.552C115.1 287.325 115.296 286.067 115.039 284.78C114.617 282.668 113.502 281.123 111.694 280.146C109.88 279.135 107.751 278.873 105.309 279.361L97.4379 280.932L100.214 294.843L106.551 293.578C106.665 293.555 106.778 293.532 106.89 293.507C108.628 293.125 110.139 292.516 111.422 291.679C112.822 290.782 113.832 289.74 114.453 288.552ZM105.558 286.828C106.55 286.597 107.232 286.283 107.705 285.975L107.727 285.961L107.748 285.947C107.754 285.943 107.76 285.94 107.765 285.936C107.502 285.919 107.139 285.939 106.642 286.038L105.447 286.276L105.558 286.828ZM108.427 285.384C108.427 285.385 108.427 285.384 108.427 285.384ZM122.391 318.266C120.965 319.717 118.39 320.831 114.667 321.609L105.905 323.357L103.04 309.001L109.327 307.746C109.458 307.72 109.588 307.695 109.717 307.67C112.773 307.08 115.266 306.839 117.198 306.948C119.211 307.061 120.735 307.563 121.771 308.454C122.8 309.313 123.48 310.567 123.809 312.217C124.316 314.758 123.844 316.775 122.391 318.266ZM111.05 314.347C113.813 313.816 115.677 313.682 116.816 313.746C116.907 313.751 116.991 313.757 117.067 313.764C116.961 313.818 116.834 313.877 116.686 313.942C115.944 314.262 114.847 314.614 113.304 314.938L111.249 315.348L111.05 314.347ZM193.38 274.427L193.356 274.396C191.771 272.306 189.97 271.011 187.907 270.277L187.882 270.268L187.856 270.258C185.774 269.499 183.343 269.289 180.375 269.881C177.364 270.482 175.157 271.623 173.488 273.143L173.472 273.158C171.838 274.637 170.65 276.546 169.959 279.114L169.952 279.139C169.274 281.623 169.164 284.673 169.918 288.447C170.678 292.257 171.95 295.111 173.543 297.24C175.148 299.31 176.984 300.63 179.104 301.397C181.227 302.136 183.71 302.328 186.73 301.725C189.708 301.131 191.884 300.013 193.524 298.536C195.157 297.026 196.322 295.111 196.984 292.574L196.99 292.547C197.673 289.972 197.77 286.851 197.009 283.04C196.256 279.266 194.984 276.492 193.404 274.459L193.38 274.427ZM168.903 268.111C166.229 270.532 164.389 273.61 163.384 277.345C162.373 281.047 162.325 285.192 163.241 289.78C164.163 294.4 165.791 298.262 168.127 301.365C170.488 304.428 173.388 306.578 176.826 307.813C180.258 309.016 184.003 309.212 188.063 308.402C192.089 307.599 195.439 305.986 198.113 303.565C200.781 301.111 202.6 298.019 203.572 294.291C204.57 290.523 204.608 286.328 203.686 281.708C202.771 277.12 201.135 273.311 198.78 270.281C196.452 267.211 193.588 265.071 190.19 263.862C186.784 262.62 183.069 262.401 179.042 263.204C174.983 264.014 171.603 265.65 168.903 268.111ZM275.855 257.967L275.831 257.936C274.246 255.846 272.446 254.551 270.382 253.817L270.357 253.808L270.331 253.798C268.249 253.039 265.818 252.829 262.85 253.421C259.839 254.022 257.632 255.163 255.964 256.683L255.948 256.698C254.314 258.177 253.125 260.086 252.434 262.654L252.428 262.679C251.749 265.163 251.64 268.213 252.393 271.987C253.153 275.797 254.425 278.651 256.019 280.779C257.623 282.85 259.459 284.17 261.579 284.937C263.702 285.675 266.185 285.868 269.205 285.265C272.183 284.671 274.359 283.553 275.998 282.076C277.632 280.567 278.798 278.651 279.459 276.114L279.466 276.087C280.148 273.512 280.245 270.391 279.484 266.58C278.731 262.806 277.459 260.032 275.879 257.999L275.855 257.967ZM250.602 284.905C248.267 281.802 246.638 277.94 245.716 273.32C244.8 268.732 244.848 264.587 245.86 260.885C246.864 257.15 248.704 254.072 251.378 251.65C254.078 249.19 257.458 247.554 261.517 246.744C265.544 245.941 269.26 246.16 272.665 247.402C276.063 248.611 278.927 250.751 281.256 253.821C283.611 256.851 285.246 260.66 286.161 265.248C287.083 269.868 287.045 274.063 286.047 277.831C285.076 281.559 283.256 284.651 280.589 287.105C277.914 289.526 274.564 291.139 270.538 291.942C266.478 292.752 262.733 292.556 259.301 291.353C255.863 290.118 252.963 287.968 250.602 284.905Z" fill="black"/>
<path d="M451.473 199.377L422.227 204.705L425.303 278.149L442.043 284.115L451.473 199.377Z" fill="white"/>
<path d="M420.258 310.275L424.437 295.149L438.124 294.142L445.498 316.674L420.258 310.275Z" fill="white"/>
<path fill-rule="evenodd" clip-rule="evenodd" d="M415.425 204.992C415.283 201.597 417.665 198.617 421.007 198.008L450.253 192.681C452.37 192.295 454.545 192.933 456.118 194.401C457.691 195.869 458.478 197.994 458.24 200.132L448.811 284.87C448.58 286.938 447.418 288.787 445.653 289.89C445.123 290.222 444.555 290.475 443.968 290.648C444.223 291.076 444.435 291.537 444.595 292.026L451.969 314.559C452.741 316.918 452.168 319.51 450.474 321.324C448.779 323.138 446.231 323.886 443.825 323.276L418.585 316.877C416.811 316.427 415.292 315.282 414.372 313.699C413.452 312.116 413.208 310.229 413.696 308.464L417.875 293.338C418.641 290.564 421.069 288.572 423.938 288.361L432.003 287.767L423.018 284.565C420.404 283.633 418.617 281.209 418.501 278.436L415.425 204.992ZM425.304 278.151L422.228 204.707L451.473 199.379L442.044 284.117L425.304 278.151ZM420.259 310.277L445.498 316.676L438.124 294.144L424.438 295.151L420.259 310.277Z" fill="black"/>
<path d="M298.13 178.388C302.649 169.995 298.915 149.433 282.936 145.389C270.743 142.304 256.859 150.605 252.533 164.609C248.726 153.186 219.047 123.007 186.856 137.957C166.08 147.606 167.82 182.694 171.627 199.827C160.733 192.809 132.522 181.616 106.836 192.985" stroke="#F9C01B" stroke-width="10.213" stroke-linecap="round" stroke-linejoin="round"/>
<path d="M411.788 318.471C419.9 334.035 423.626 369.797 400.592 386.808C377.558 403.819 343.06 383.476 336.426 373.429C336.426 388.785 326.769 403.664 309.52 401.797C292.272 399.929 286.623 381.197 288.816 371.921" stroke="#F9C01B" stroke-width="10.213" stroke-linecap="round" stroke-linejoin="round"/>
<path fill-rule="evenodd" clip-rule="evenodd" d="M91.3988 365.794C94.1882 366.21 96.1124 368.809 95.6965 371.598C95.1994 374.932 94.8998 381.458 97.0144 387.942C99.0656 394.231 103.357 400.477 112.31 404.028C121.169 407.541 129.06 405.809 135.42 402.265C141.954 398.623 146.518 393.233 148.123 390.385C149.507 387.928 152.621 387.058 155.078 388.443C157.535 389.827 158.405 392.942 157.02 395.399C154.509 399.856 148.6 406.611 140.392 411.186C132.009 415.858 120.886 418.415 108.545 413.521C96.2998 408.665 90.1299 399.77 87.3048 391.108C84.5431 382.641 84.952 374.406 85.5952 370.092C86.011 367.303 88.6094 365.379 91.3988 365.794Z" fill="#F9C01B"/>
<path d="M432.926 190.278C435.395 184.496 438.486 167.514 422.727 155.944C406.968 144.374 391.238 153.647 386.389 158.468" stroke="#F9C01B" stroke-width="10.213" stroke-linecap="round" stroke-linejoin="round"/>
<path d="M299.715 107.322C298.397 98.1571 302.099 82.2632 317.076 82.0194C329.193 81.8222 335.878 91.405 336.642 94.1528C333.598 81.5312 333.872 57.9681 359.097 63.3303C384.44 68.7175 375.54 91.8254 367.922 102.706C376.409 97.3455 391.812 96.4248 399.159 111.084C402.546 121.968 398.845 135.55 382.561 140.116C363.47 145.469 356.136 140.078 354.933 137.993L328.231 178.414L326.984 130.497C318.764 128.292 301.726 121.304 299.715 107.322Z" fill="#FFEB9D"/>
<path d="M299.718 107.323C298.4 98.1576 302.101 82.2637 317.078 82.0199C329.468 81.8182 336.179 91.8424 336.687 94.3284C335.312 88.7305 334.581 80.9077 336.427 74.4246C338.729 66.3419 347.633 59.4033 361.696 62.3931C381.305 66.5622 376.122 90.6619 368.505 101.543M382.563 140.117C363.472 145.469 356.138 140.079 354.935 137.994L328.233 178.415L326.986 130.497" stroke="#F9C01B" stroke-width="10.213" stroke-linecap="round" stroke-linejoin="round"/>
<path fill-rule="evenodd" clip-rule="evenodd" d="M403.328 438.063C402.996 439.334 402.676 440.558 402.339 441.709C401.919 443.143 400.892 444.322 399.529 444.933C398.165 445.545 396.603 445.529 395.252 444.89C379.998 437.664 369.649 438.227 362.852 441.185C355.921 444.201 351.605 450.17 349.428 455.749C348.403 458.376 345.442 459.675 342.814 458.649C340.187 457.624 338.889 454.663 339.914 452.035C342.77 444.718 348.667 436.219 358.777 431.82C367.873 427.862 379.552 427.579 394.019 433.234C395.264 428.676 397.168 422.775 400.488 417.725C403.1 413.752 406.706 410.043 411.751 407.578C416.806 405.108 422.942 404.065 430.321 404.853C433.126 405.152 435.156 407.668 434.857 410.472C434.557 413.277 432.041 415.307 429.237 415.008C423.438 414.389 419.286 415.263 416.235 416.754C413.174 418.249 410.857 420.543 409.022 423.336C405.956 427.999 404.558 433.353 403.328 438.063Z" fill="#F9C01B"/>
<path d="M305.208 205.773L295.156 220.696" stroke="#F9C01B" stroke-width="10.213" stroke-linecap="round" stroke-linejoin="round"/>
<path d="M275.852 188.283L273.044 213.577" stroke="#F9C01B" stroke-width="10.213" stroke-linecap="round" stroke-linejoin="round"/>
<path d="M243.979 197.189L249.437 213.231" stroke="#F9C01B" stroke-width="10.213" stroke-linecap="round" stroke-linejoin="round"/>
<path d="M116.583 356.867L394.036 300.696L239.139 351.761L366.801 327.93" stroke="#F9C01B" stroke-width="10.213" stroke-linecap="round" stroke-linejoin="round"/>
</svg>
