<svg width="512" height="512" viewBox="0 0 512 512" fill="none" xmlns="http://www.w3.org/2000/svg">
<path d="M151.27 81.7075C151.898 76.7866 156.396 73.3065 161.317 73.9346L242.593 84.3075C247.098 83.97 251.65 83.7982 256.241 83.7982C276.729 83.7982 296.419 87.2184 314.769 93.5191L403.699 104.869C408.62 105.497 412.1 109.995 411.472 114.916L409.582 129.724L447.202 134.525L423.319 172.799L436.823 215.844L429.636 214.927C431.003 219.775 432.173 224.707 433.136 229.711L444.783 222.53C445.418 222.139 446.251 222.353 446.618 223.002L455.522 238.713C455.898 239.378 455.632 240.223 454.941 240.55L435.823 249.625C436.183 254.198 436.372 258.819 436.383 263.481L441.056 262.547C441.87 262.384 442.63 263.007 442.63 263.837V278.9C442.63 279.668 441.975 280.272 441.209 280.211L435.698 279.77C432.614 315.187 419.282 347.669 398.684 374.233C394.562 390.408 390.478 406.575 386.96 422.061C371.84 424.91 359.107 419.406 352.956 415.946C344.681 421.222 335.947 425.841 326.826 429.729L329.427 432.226C329.7 432.488 329.604 432.945 329.249 433.075L321.765 435.82C321.605 435.879 321.485 436.013 321.445 436.178L319.54 443.918C319.449 444.286 319.005 444.431 318.715 444.189L312.596 439.081C312.465 438.971 312.289 438.934 312.126 438.982L304.47 441.202C304.107 441.308 303.759 440.996 303.823 440.623L304.351 437.587C289.036 441.821 272.903 444.083 256.241 444.083C243.175 444.083 230.434 442.692 218.157 440.049L210.783 453.263C210.394 453.961 209.545 454.261 208.803 453.962L178.175 441.617C177.113 441.189 176.84 439.811 177.659 439.01L186.697 430.168C179.03 426.957 171.632 423.231 164.547 419.033L153.633 424.442C152.891 424.81 151.989 424.545 151.565 423.833L141.958 407.722C141.459 406.886 141.824 405.801 142.727 405.437L144.061 404.899C138.075 400.128 132.399 394.985 127.069 389.503L119.975 407.211L63.4573 397.257L88.2833 329.2C80.4156 308.965 76.0991 286.957 76.0991 263.941C76.0991 223.432 89.4695 186.047 112.038 155.957L125.265 134.76L111.761 91.7142L149.38 96.5155L151.27 81.7075Z" fill="#FFE815"/>
<path d="M125.948 409.604L129.463 400.829C131.386 402.611 133.347 404.352 135.344 406.053C135.163 407.714 135.498 409.452 136.432 411.018L146.038 427.128C148.184 430.726 152.737 432.067 156.491 430.207L153.633 424.442L156.491 430.207L164.309 426.332C167.949 428.397 171.666 430.343 175.454 432.166L173.159 434.41L177.659 439.009L173.159 434.41C169.022 438.458 170.402 445.421 175.77 447.585L206.398 459.929L208.524 454.654L206.398 459.929C210.146 461.44 214.433 459.927 216.402 456.398L221.488 447.285C232.752 449.407 244.37 450.517 256.241 450.517C271.06 450.517 285.482 448.788 299.315 445.519C301.008 447.28 303.605 448.152 306.262 447.382L310.891 446.039L314.591 449.128L318.715 444.189L314.591 449.128C318.534 452.419 324.56 450.442 325.788 445.456L326.939 440.776L331.464 439.116C334.365 438.052 335.992 435.381 336.02 432.647C341.941 429.843 347.69 426.736 353.247 423.347C360.826 426.991 373.43 431.158 388.151 428.384C390.67 427.91 392.666 425.986 393.234 423.487C396.639 408.5 400.582 392.852 404.591 377.107C424.236 351.392 437.351 320.41 441.449 286.649C445.627 286.583 449.064 283.17 449.064 278.9V263.837C449.064 259.946 446.232 256.83 442.66 256.201C442.624 255.319 442.582 254.44 442.534 253.562L457.7 246.363L454.941 240.55L457.7 246.363C461.766 244.433 463.339 239.457 461.12 235.541L452.216 219.83C450.392 216.61 446.624 215.209 443.246 216.225C443.292 215.456 443.2 214.675 442.962 213.918L430.343 173.696L452.66 137.932C453.821 136.071 453.955 133.748 453.015 131.767C452.075 129.786 450.191 128.42 448.016 128.143L416.779 124.156L417.854 115.731C418.932 107.285 412.959 99.5644 404.513 98.4865L316.23 87.2192C297.396 80.8277 277.216 77.364 256.241 77.364C251.712 77.364 247.218 77.5256 242.767 77.8434L162.132 67.5521C153.686 66.4742 145.966 72.4471 144.888 80.893L143.812 89.3185L112.575 85.3318C110.4 85.0542 108.234 85.9033 106.827 87.5846C105.419 89.266 104.965 91.5482 105.622 93.6402L118.241 133.863L106.724 152.319C83.4498 183.446 69.6649 222.093 69.6649 263.941C69.6649 286.905 73.8169 308.915 81.4163 329.249L57.4127 395.052C56.7606 396.84 56.9332 398.825 57.8843 400.473C58.8353 402.121 60.4672 403.264 62.3413 403.594L118.859 413.548C121.858 414.076 124.816 412.43 125.948 409.604ZM308.473 444.02L308.478 444.024C308.476 444.023 308.474 444.021 308.472 444.02L312.268 439.473L308.473 444.02ZM323.981 441.861L323.992 441.857L323.981 441.861L323.981 441.861ZM321.445 436.178L321.942 436.301L321.445 436.178ZM141.678 407.889L141.958 407.722L141.678 407.889Z" stroke="white" stroke-width="12.8684" stroke-linecap="round" stroke-linejoin="round"/>
<path d="M436.384 263.941C436.384 363.431 355.732 444.083 256.242 444.083C156.752 444.083 76.0996 363.431 76.0996 263.941C76.0996 164.451 156.752 83.7986 256.242 83.7986C355.732 83.7986 436.384 164.451 436.384 263.941Z" fill="#E599F7"/>
<path fill-rule="evenodd" clip-rule="evenodd" d="M442.818 263.94C442.818 366.984 359.285 450.517 256.242 450.517C153.199 450.517 69.6655 366.984 69.6655 263.94C69.6655 160.897 153.199 77.364 256.242 77.364C359.285 77.364 442.818 160.897 442.818 263.94ZM256.242 444.083C355.732 444.083 436.384 363.43 436.384 263.94C436.384 164.451 355.732 83.7982 256.242 83.7982C156.752 83.7982 76.0997 164.451 76.0997 263.94C76.0997 363.43 156.752 444.083 256.242 444.083Z" fill="black"/>
<path d="M288.605 207.718C272.656 217.739 262.885 241.89 203.438 261.234C169.457 272.291 143.208 315.589 151.082 343.659C158.267 369.274 189.337 427.848 231.885 420.457C284.173 411.373 322.515 357.505 339.38 298.881C363.816 213.94 314.272 191.59 288.605 207.718Z" fill="white" fill-opacity="0.1"/>
<path d="M386.962 422.062C365.602 426.087 349.003 413.438 349.003 413.438L358.165 373.106C357.515 374.54 354.967 377.753 349.979 379.137C349.979 379.137 339.443 382.662 330.684 382.645C321.925 382.628 308.464 377.597 308.464 377.597L311.873 362.589L297.183 358.678L297.183 392.923C297.183 392.923 280.955 394.532 271.304 392.923C261.652 391.315 255.367 384.465 255.367 384.465L251.534 309.049C251.534 309.049 248.011 262.267 261.81 235.81C275.61 209.354 285.495 205.06 294.832 201.884C313.23 195.625 330.645 194.238 330.645 194.238L365.827 202.23C365.827 202.23 379.715 205.385 394.889 215.737C410.062 226.089 422.715 239.307 422.539 252.596C421.99 294.195 400.366 363.06 386.962 422.062Z" fill="#6BCCEB" stroke="black" stroke-width="6.4342" stroke-linecap="round" stroke-linejoin="round"/>
<path d="M336.907 218.315L330.53 197.166L355.978 199.992L365.973 205.217L353.742 222.14L313.635 361.772L297.473 359.086L336.907 218.315Z" fill="#0062B7" stroke="black" stroke-width="6.4342" stroke-linecap="round" stroke-linejoin="round"/>
<path d="M311.65 362.307L351.359 223.402" stroke="black" stroke-width="6.4342" stroke-linecap="round" stroke-linejoin="round"/>
<path d="M296.646 356.569L338.067 220.384" stroke="black" stroke-width="6.4342" stroke-linecap="round" stroke-linejoin="round"/>
<path d="M386.96 422.059C365.599 426.084 349 413.435 349 413.435L358.163 373.103C357.512 374.536 354.965 377.75 349.977 379.134C349.977 379.134 339.44 382.659 330.682 382.642C321.923 382.625 308.461 377.594 308.461 377.594L311.871 362.586L296.947 357.8L296.798 376.403L297.454 394.023C297.454 394.023 285.623 394.83 274.295 393.421C262.968 392.013 257.184 385.453 257.184 385.453L254.302 322.488C254.302 322.488 248.009 262.264 261.808 235.807C275.607 209.351 285.493 205.057 294.829 201.881C313.228 195.622 330.643 194.235 330.643 194.235L365.825 202.227C365.825 202.227 379.713 205.382 394.886 215.734C410.06 226.086 422.712 239.304 422.537 252.593C421.987 294.191 400.363 363.057 386.96 422.059Z" stroke="black" stroke-width="6.4342" stroke-linecap="round" stroke-linejoin="round"/>
<path d="M295.88 257.39L296.746 361.251" stroke="black" stroke-width="6.4342" stroke-linecap="round" stroke-linejoin="round"/>
<path d="M382.526 275.908L357.161 377.305" stroke="black" stroke-width="6.4342" stroke-linecap="round" stroke-linejoin="round"/>
<path d="M392.447 314.269L413.793 307.471L402.973 355.098L386.258 346.641L392.447 314.269Z" fill="#228BE6" stroke="black" stroke-width="6.4342" stroke-linecap="round" stroke-linejoin="round"/>
<path d="M392.951 312.055L414.649 308.831L402.973 355.099L385.15 346.391L392.951 312.055Z" stroke="black" stroke-width="6.4342" stroke-linecap="round" stroke-linejoin="round"/>
<path d="M380.907 200.996C369.88 188.008 339.975 181.214 316.414 187.509C316.717 193.014 318.802 198.535 317.675 207.597L356.542 221.085C369.833 224.105 391.933 213.983 380.907 200.996Z" fill="#0062B7" stroke="black" stroke-width="6.4342" stroke-linecap="round" stroke-linejoin="round"/>
<path d="M371.999 235.08L353.101 220.852L382.015 201.248L396.113 216.098L371.999 235.08Z" fill="#FFDC99" stroke="black" stroke-width="6.4342" stroke-linecap="round" stroke-linejoin="round"/>
<path d="M315.009 224.465L337.393 218.22L316.163 188.619L298.242 200.855L315.009 224.465Z" fill="#FFDC99" stroke="black" stroke-width="6.4342" stroke-linecap="round" stroke-linejoin="round"/>
<path d="M316.162 188.619C339.723 182.324 369.88 188.01 380.906 200.998" stroke="black" stroke-width="6.4342" stroke-linecap="round" stroke-linejoin="round"/>
<path d="M237.717 207.045C237.859 205.385 236.71 203.892 235.07 203.603L185.344 194.846L139.632 186.795C138.095 186.524 136.586 187.395 136.051 188.861L60.4349 396.155C60.1088 397.049 60.1952 398.041 60.6707 398.865C61.1462 399.689 61.9621 400.261 62.8992 400.426L116.655 409.893C118.155 410.157 119.634 409.334 120.2 407.921L168.222 288.047L166.171 319.436C166.098 320.556 166.614 321.633 167.532 322.278L207.799 350.576C208.635 351.164 209.702 351.319 210.671 350.994C211.641 350.669 212.398 349.903 212.711 348.929L230.159 294.696C230.233 294.464 230.281 294.226 230.302 293.984L237.717 207.045Z" fill="#228BE6" stroke="black" stroke-width="6.4342" stroke-linejoin="round"/>
<path d="M140.599 187.983C139.045 187.705 137.518 188.596 136.996 190.086C136.475 191.577 137.111 193.225 138.499 193.978L182.285 217.72C182.889 218.048 183.583 218.173 184.264 218.078L234.201 211.099C235.767 210.88 236.942 209.556 236.973 207.974C237.003 206.393 235.879 205.025 234.322 204.746L140.599 187.983Z" fill="#0062B7" stroke="black" stroke-width="6.4342" stroke-linejoin="round"/>
<path d="M168.059 316.713C167.014 317.184 166.299 318.176 166.181 319.316C166.063 320.456 166.561 321.573 167.488 322.247L207.487 351.353C208.41 352.024 209.619 352.157 210.665 351.701L297.552 313.856C298.421 313.478 299.079 312.735 299.35 311.827C299.621 310.919 299.478 309.937 298.959 309.144L274.461 271.738C273.593 270.413 271.891 269.917 270.448 270.568L168.059 316.713Z" fill="#0062B7" stroke="black" stroke-width="6.4342" stroke-linejoin="round"/>
<path d="M119.415 284.516C118.042 284.274 116.67 284.944 116.016 286.174L96.5202 322.852C96.0734 323.692 96.0218 324.688 96.3792 325.57C96.7367 326.452 97.4665 327.131 98.3723 327.423L132.53 338.453C134.028 338.937 135.657 338.265 136.378 336.865L157.703 295.496C158.171 294.587 158.18 293.509 157.726 292.593C157.271 291.677 156.408 291.031 155.401 290.854L119.415 284.516Z" fill="#D0EBFF" stroke="black" stroke-width="6.4342" stroke-linejoin="round"/>
<path d="M157.799 209.111L136.408 222.39" stroke="black" stroke-width="6.4342" stroke-linejoin="round"/>
<path d="M207.677 216.085L223.416 234.902" stroke="black" stroke-width="6.4342" stroke-linejoin="round"/>
<path fill-rule="evenodd" clip-rule="evenodd" d="M179.223 252.207L171.572 285.152L166.746 283.544L172.927 250.881L179.223 252.207Z" fill="black"/>
<mask id="path-26-outside-1_39_2905" maskUnits="userSpaceOnUse" x="93.5379" y="60.1652" width="364.36" height="163.598" fill="black">
<rect fill="white" x="93.5379" y="60.1652" width="364.36" height="163.598"/>
<path fill-rule="evenodd" clip-rule="evenodd" d="M151.267 81.7065C151.895 76.7855 156.394 73.3054 161.315 73.9335L403.696 104.868C408.617 105.496 412.097 109.994 411.469 114.915L409.579 129.723L447.199 134.524L423.316 172.798L436.821 215.843L373.627 207.778C369.073 207.197 365.752 203.3 365.781 198.822C365.694 199.161 365.628 199.508 365.582 199.864L365.84 197.843C365.845 197.806 365.849 197.768 365.854 197.731L368.856 174.21L177.625 149.804L174.244 176.294C173.825 179.574 170.827 181.894 167.546 181.476L101.382 173.031L125.265 134.758L111.76 91.7123L149.378 96.5133L151.267 81.7065Z"/>
</mask>
<path d="M161.315 73.9335L162.129 67.551L161.315 73.9335ZM403.696 104.868L402.882 111.25L403.696 104.868ZM409.579 129.723L403.197 128.908C402.981 130.601 403.446 132.31 404.49 133.66C405.534 135.01 407.072 135.889 408.765 136.105L409.579 129.723ZM447.199 134.524L452.658 137.931C453.819 136.07 453.952 133.747 453.013 131.766C452.073 129.785 450.189 128.42 448.014 128.142L447.199 134.524ZM423.316 172.798L417.858 169.392C416.864 170.985 416.615 172.933 417.177 174.724L423.316 172.798ZM436.821 215.843L436.006 222.226C438.181 222.503 440.348 221.654 441.755 219.973C443.162 218.292 443.616 216.009 442.96 213.917L436.821 215.843ZM365.781 198.822L372.215 198.863C372.236 195.612 369.828 192.856 366.603 192.441C363.379 192.025 360.351 194.08 359.547 197.231L365.781 198.822ZM359.2 199.049C358.75 202.574 361.243 205.796 364.768 206.246C368.293 206.696 371.515 204.203 371.965 200.678L359.2 199.049ZM365.84 197.843L372.223 198.658C372.226 198.632 372.229 198.606 372.232 198.581L365.84 197.843ZM365.854 197.731L372.236 198.545L365.854 197.731ZM368.856 174.21L375.238 175.025C375.688 171.5 373.195 168.278 369.67 167.828L368.856 174.21ZM177.625 149.804L178.439 143.422C176.747 143.206 175.038 143.671 173.688 144.715C172.338 145.759 171.459 147.297 171.242 148.989L177.625 149.804ZM174.244 176.294L180.627 177.108L174.244 176.294ZM167.546 181.476L166.731 187.858L167.546 181.476ZM101.382 173.031L95.9232 169.625C94.7625 171.485 94.6289 173.808 95.5687 175.789C96.5086 177.77 98.3924 179.136 100.567 179.414L101.382 173.031ZM125.265 134.758L130.723 138.164C131.717 136.571 131.966 134.623 131.404 132.832L125.265 134.758ZM111.76 91.7123L112.575 85.3299C110.4 85.0523 108.233 85.9014 106.826 87.5827C105.419 89.2641 104.965 91.5463 105.621 93.6383L111.76 91.7123ZM149.378 96.5133L148.563 102.896C152.088 103.346 155.31 100.853 155.76 97.3279L149.378 96.5133ZM162.129 67.551C153.683 66.4731 145.963 72.446 144.885 80.8919L157.65 82.521C157.828 81.125 159.104 80.1377 160.5 80.3159L162.129 67.551ZM404.511 98.4854L162.129 67.551L160.5 80.3159L402.882 111.25L404.511 98.4854ZM417.852 115.73C418.93 107.284 412.957 99.5633 404.511 98.4854L402.882 111.25C404.278 111.428 405.265 112.705 405.087 114.101L417.852 115.73ZM415.962 130.538L417.852 115.73L405.087 114.101L403.197 128.908L415.962 130.538ZM448.014 128.142L410.394 123.341L408.765 136.105L446.385 140.907L448.014 128.142ZM428.775 176.204L452.658 137.931L441.741 131.118L417.858 169.392L428.775 176.204ZM442.96 213.917L429.456 170.872L417.177 174.724L430.682 217.769L442.96 213.917ZM372.812 214.161L436.006 222.226L437.635 209.461L374.441 201.396L372.812 214.161ZM359.347 198.781C359.298 206.474 364.991 213.162 372.812 214.161L374.441 201.396C373.154 201.231 372.207 200.127 372.215 198.863L359.347 198.781ZM371.965 200.678C371.977 200.585 371.994 200.497 372.015 200.413L359.547 197.231C359.395 197.824 359.279 198.431 359.2 199.049L371.965 200.678ZM359.458 197.029L359.2 199.049L371.965 200.678L372.223 198.658L359.458 197.029ZM359.472 196.916C359.463 196.981 359.456 197.045 359.448 197.106L372.232 198.581C372.234 198.567 372.235 198.556 372.236 198.545L359.472 196.916ZM362.473 173.396L359.472 196.916L372.236 198.545L375.238 175.025L362.473 173.396ZM176.81 156.186L368.041 180.593L369.67 167.828L178.439 143.422L176.81 156.186ZM180.627 177.108L184.007 150.619L171.242 148.989L167.862 175.479L180.627 177.108ZM166.731 187.858C173.537 188.727 179.758 183.914 180.627 177.108L167.862 175.479C167.893 175.235 168.116 175.062 168.36 175.093L166.731 187.858ZM100.567 179.414L166.731 187.858L168.36 175.093L102.196 166.649L100.567 179.414ZM119.806 131.351L95.9232 169.625L106.841 176.438L130.723 138.164L119.806 131.351ZM105.621 93.6383L119.126 136.684L131.404 132.832L117.9 89.7863L105.621 93.6383ZM150.192 90.1309L112.575 85.3299L110.946 98.0948L148.563 102.896L150.192 90.1309ZM144.885 80.8919L142.995 95.6987L155.76 97.3279L157.65 82.521L144.885 80.8919Z" fill="black" mask="url(#path-26-outside-1_39_2905)"/>
<path d="M111.76 91.7124L183.865 100.915L174.244 176.294C173.826 179.574 170.827 181.894 167.546 181.476L101.382 173.031L125.265 134.758L111.76 91.7124Z" fill="#FFF06D"/>
<path d="M447.2 134.524L375.096 125.322L365.854 197.731C365.226 202.652 368.706 207.15 373.627 207.778L436.821 215.843L423.317 172.798L447.2 134.524Z" fill="#FFF06D"/>
<path fill-rule="evenodd" clip-rule="evenodd" d="M369.04 172.759L403.524 177.16L402.227 187.325L402.226 187.325C401.629 192.003 397.353 195.311 392.675 194.714L375.132 192.475C370.453 191.878 366.177 195.186 365.58 199.864L367.742 182.923L367.743 182.923L369.04 172.759Z" fill="#C9B927"/>
<path fill-rule="evenodd" clip-rule="evenodd" d="M177.81 148.351L143.325 143.949L142.028 154.114L142.034 154.115L142.029 154.116C141.432 158.794 144.741 163.071 149.419 163.668L166.962 165.907C171.64 166.504 174.949 170.78 174.352 175.459L176.514 158.517L176.51 158.515L176.513 158.516L177.81 148.351Z" fill="#C9B927"/>
<path d="M151.268 81.7065C151.896 76.7856 156.394 73.3055 161.315 73.9336L403.696 104.868C408.617 105.496 412.097 109.994 411.469 114.915L402.228 187.324V187.324C402.842 182.512 399.439 178.114 394.627 177.499L151.851 146.515C147.039 145.901 142.64 149.303 142.026 154.115V154.115L151.268 81.7065Z" fill="#FFE815"/>
<path d="M196.018 126.255C196.944 127.381 197.326 128.57 197.166 129.825C197.032 130.877 196.524 131.881 195.641 132.837C193.361 135.075 190.862 136.617 188.143 137.463C185.444 138.311 182.335 138.51 178.815 138.061C174.364 137.493 170.561 136.042 167.405 133.707C164.272 131.354 161.977 128.316 160.519 124.594C159.064 120.852 158.599 116.681 159.124 112.081C159.77 107.496 161.266 103.586 163.612 100.349C165.96 97.0916 168.945 94.7277 172.566 93.2571C176.209 91.7688 180.257 91.3086 184.707 91.8764C188.207 92.3229 191.156 93.2954 193.556 94.7939C195.955 96.2924 197.976 98.4211 199.618 101.18C200.222 102.244 200.457 103.302 200.323 104.354C200.243 104.981 200.023 105.58 199.662 106.151C199.324 106.704 198.87 107.201 198.3 107.642C197.276 108.416 196.259 108.739 195.247 108.61C193.993 108.45 192.855 107.616 191.835 106.108C190.599 104.511 189.325 103.3 188.012 102.475C186.698 101.649 185.212 101.131 183.553 100.919C181.187 100.617 179.018 100.937 177.048 101.878C175.08 102.799 173.445 104.255 172.142 106.248C170.839 108.24 169.989 110.63 169.593 113.416C169.275 116.233 169.486 118.769 170.226 121.022C170.989 123.257 172.207 125.078 173.878 126.484C175.551 127.869 177.582 128.714 179.969 129.018C181.587 129.225 183.125 129.092 184.584 128.62C186.062 128.151 187.619 127.311 189.253 126.101C190.708 124.848 192.033 124.297 193.226 124.449C194.218 124.576 195.148 125.178 196.018 126.255ZM207.56 99.356C207.674 98.4659 207.998 97.6952 208.534 97.044C209.069 96.3927 209.746 95.9239 210.563 95.6376C211.381 95.3513 212.255 95.2675 213.186 95.3863C214.117 95.505 214.942 95.8056 215.661 96.288C216.381 96.7704 216.918 97.3941 217.273 98.1589C217.648 98.9263 217.779 99.7551 217.665 100.645L213.991 129.442L213.945 129.806C213.898 130.171 213.823 130.439 213.719 130.61C213.697 131.265 213.824 131.724 214.099 131.985C214.376 132.226 214.778 132.38 215.304 132.447C215.608 132.486 215.841 132.505 216.006 132.506L216.768 132.572C217.476 132.662 218.003 132.884 218.349 133.236C218.927 133.865 219.139 134.776 218.987 135.97C218.904 136.617 218.754 137.153 218.535 137.578C218.225 138.237 217.843 138.815 217.389 139.312C216.958 139.792 216.381 140.202 215.659 140.541C214.059 141.324 212.176 141.577 210.011 141.301C207.988 141.043 206.471 140.531 205.458 139.764C204.446 138.998 203.802 137.836 203.528 136.28C203.274 134.726 203.325 132.553 203.681 129.761L207.56 99.356ZM239.377 145.356C235.958 144.919 232.999 143.781 230.499 141.941C228.002 140.08 226.165 137.718 224.989 134.854C223.835 131.973 223.475 128.833 223.908 125.434C224.342 122.036 225.478 119.097 227.315 116.617C229.173 114.14 231.543 112.325 234.425 111.171C237.306 110.018 240.456 109.659 243.875 110.095C247.274 110.529 250.223 111.665 252.722 113.506C255.222 115.346 257.05 117.697 258.206 120.558C259.383 123.422 259.754 126.553 259.321 129.952C258.887 133.351 257.74 136.298 255.88 138.795C254.042 141.275 251.681 143.101 248.797 144.275C245.915 145.429 242.775 145.789 239.377 145.356ZM240.499 136.556C241.956 136.741 243.308 136.534 244.557 135.932C245.808 135.311 246.843 134.374 247.66 133.121C248.481 131.848 248.999 130.362 249.216 128.663C249.433 126.963 249.303 125.405 248.826 123.987C248.371 122.552 247.616 121.386 246.558 120.491C245.5 119.595 244.243 119.054 242.787 118.868C241.31 118.68 239.947 118.887 238.699 119.488C237.45 120.089 236.405 121.025 235.565 122.295C234.747 123.548 234.23 125.024 234.013 126.723C233.796 128.423 233.925 129.991 234.4 131.429C234.877 132.847 235.643 134.014 236.698 134.93C237.755 135.825 239.023 136.367 240.499 136.556ZM286.887 116.199C288.061 116.349 288.979 116.887 289.642 117.815C290.327 118.725 290.594 119.776 290.442 120.97C290.336 121.799 290.047 122.533 289.575 123.172C289.123 123.814 288.548 124.295 287.849 124.617C287.15 124.939 286.406 125.05 285.617 124.949L280.155 124.253L278.407 135.779C278.185 137.19 278.054 138.057 278.013 138.381C277.933 139.008 277.933 139.491 278.013 139.83C278.093 140.17 278.306 140.433 278.652 140.621C278.998 140.809 279.538 140.93 280.272 140.982C280.583 140.96 281.017 140.943 281.573 140.932C282.13 140.921 282.457 140.932 282.556 140.965C284.84 141.112 285.825 142.41 285.513 144.858C285.382 145.89 284.919 146.776 284.125 147.518C283.334 148.239 282.336 148.811 281.131 149.233C280.44 149.494 279.398 149.68 278.007 149.79C276.636 149.903 275.568 149.891 274.805 149.752C272.114 149.409 270.118 148.455 268.817 146.891C267.538 145.309 267.106 143.054 267.521 140.126L270.08 122.967L267.258 122.607C266.489 122.509 265.806 122.227 265.208 121.76C264.629 121.295 264.201 120.706 263.922 119.992C263.643 119.278 263.554 118.527 263.655 117.738C263.758 116.928 264.044 116.215 264.514 115.596C264.986 114.957 265.57 114.487 266.266 114.185C266.986 113.866 267.75 113.758 268.559 113.861L271.351 114.217L272.37 107.439C272.483 106.549 272.816 105.79 273.37 105.161C273.923 104.533 274.607 104.086 275.422 103.819C276.26 103.536 277.144 103.453 278.075 103.572C279.005 103.691 279.82 103.99 280.52 104.47C281.242 104.932 281.772 105.534 282.109 106.276C282.466 107.021 282.588 107.838 282.474 108.728L281.456 115.506L286.887 116.199ZM316.763 119.394C324.896 120.431 328.371 125.583 327.189 134.848L325.013 151.902C324.84 153.257 324.25 154.261 323.241 154.914C322.233 155.566 321.01 155.801 319.574 155.618C318.118 155.432 316.933 154.89 316.019 153.992C315.128 153.077 314.768 151.952 314.939 150.616L316.847 135.656C317.077 133.856 317.124 132.361 316.988 131.172C316.872 129.985 316.461 129.018 315.754 128.27C315.05 127.502 313.96 127.023 312.483 126.835C311.613 126.724 310.681 126.862 309.686 127.249C308.691 127.636 307.767 128.269 306.915 129.147C306.083 130.027 305.483 131.102 305.116 132.371L302.975 149.152C302.805 150.487 302.185 151.477 301.116 152.122C300.067 152.769 298.824 153.001 297.388 152.818C295.952 152.635 294.797 152.097 293.924 151.204C293.072 150.314 292.73 149.202 292.901 147.867L297.674 110.451C297.844 109.116 298.454 108.125 299.503 107.478C300.574 106.812 301.828 106.572 303.265 106.755C304.701 106.938 305.844 107.485 306.694 108.395C307.567 109.288 307.919 110.402 307.748 111.737L306.231 123.632C307.558 121.93 309.119 120.731 310.915 120.035C312.71 119.339 314.659 119.125 316.763 119.394ZM347.829 159.191C344.066 158.711 340.925 157.632 338.404 155.954C335.907 154.258 334.113 152.045 333.022 149.315C331.951 146.588 331.643 143.444 332.097 139.884C332.593 136 333.641 132.782 335.241 130.232C336.843 127.661 338.969 125.825 341.618 124.723C344.266 123.622 347.37 123.309 350.928 123.783C354.157 124.257 356.882 125.293 359.104 126.892C361.329 128.471 362.937 130.527 363.93 133.059C364.946 135.573 365.28 138.433 364.933 141.637C364.732 143.05 364.413 144.181 363.976 145.03C363.541 145.859 362.909 146.457 362.081 146.824C361.256 147.171 360.165 147.258 358.81 147.085L341.544 144.882C341.347 146.584 341.96 147.906 343.382 148.848C344.806 149.77 346.667 150.408 348.966 150.763C350.096 150.928 351.217 150.927 352.328 150.761C353.459 150.596 354.784 150.282 356.303 149.818C356.607 149.693 356.982 149.566 357.431 149.438C357.879 149.31 358.196 149.237 358.383 149.22C358.593 149.185 358.82 149.183 359.063 149.214C359.649 149.289 360.17 149.561 360.624 150.03C361.081 150.479 361.411 151.035 361.614 151.699C361.837 152.364 361.906 153.031 361.821 153.699C361.679 154.811 361.239 155.763 360.501 156.552C359.766 157.322 358.956 157.866 358.072 158.185C356.5 158.746 354.83 159.108 353.061 159.273C351.313 159.441 349.569 159.413 347.829 159.191ZM355.674 138.79C355.831 137.721 355.682 136.715 355.227 135.773C354.771 134.831 354.08 134.043 353.153 133.411C352.247 132.782 351.187 132.389 349.973 132.234C348.82 132.087 347.704 132.212 346.625 132.609C345.549 132.986 344.641 133.579 343.9 134.389C343.182 135.182 342.758 136.094 342.626 137.126L355.674 138.79ZM380.874 163.407C378.851 163.149 376.905 162.613 375.035 161.799C373.186 160.987 371.338 159.919 369.492 158.594C368.894 158.127 368.401 157.478 368.014 156.647C367.626 155.817 367.479 155.037 367.572 154.309C367.737 153.014 368.234 152.019 369.063 151.323C369.894 150.606 370.907 150.324 372.101 150.477C372.381 150.533 372.717 150.638 373.109 150.79C373.501 150.943 373.82 151.097 374.068 151.252C376.962 153.06 379.598 154.157 381.974 154.543L383.067 154.682C384.018 154.803 384.759 154.795 385.29 154.657C385.824 154.499 386.137 154.066 386.227 153.358C386.323 152.61 385.849 151.891 384.806 151.203C383.786 150.498 381.989 149.672 379.417 148.727C376.432 147.627 374.292 146.192 372.996 144.423C371.721 142.657 371.251 140.459 371.586 137.829C371.622 137.546 371.699 137.103 371.817 136.502C372.206 134.742 373.002 133.178 374.204 131.81C375.43 130.425 376.989 129.4 378.883 128.737C380.797 128.077 382.917 127.895 385.244 128.192C387.125 128.432 388.713 128.799 390.007 129.293C391.321 129.79 392.671 130.486 394.057 131.382C394.85 131.936 395.515 132.607 396.052 133.395C396.589 134.183 396.814 134.993 396.729 135.825C396.545 137.261 396.042 138.307 395.218 138.963C394.415 139.621 393.497 139.884 392.465 139.753C391.838 139.673 391.268 139.466 390.756 139.134C389.68 138.544 388.809 138.114 388.145 137.844C387.503 137.557 386.761 137.329 385.919 137.16C385.095 137.013 384.368 136.992 383.737 137.097C383.128 137.204 382.641 137.389 382.279 137.651C381.937 137.916 381.746 138.2 381.708 138.503C381.641 139.029 381.729 139.462 381.974 139.802C382.239 140.144 382.641 140.452 383.182 140.727C383.745 140.984 384.693 141.372 386.025 141.891L386.965 142.258C390.47 143.63 393.003 145.208 394.564 146.99C396.125 148.772 396.742 150.948 396.414 153.517C396.373 153.841 396.263 154.382 396.084 155.14C395.249 158.302 393.557 160.605 391.009 162.048C388.46 163.491 385.082 163.944 380.874 163.407Z" fill="#C657E0"/>
<path d="M262.821 176.825C262.894 176.528 263.254 176.41 263.489 176.606L265.628 178.391C265.733 178.48 265.876 178.51 266.009 178.471L268.684 177.695C268.978 177.61 269.26 177.863 269.208 178.165L268.731 180.909C268.707 181.045 268.753 181.183 268.852 181.279L270.862 183.208C271.083 183.42 271.005 183.791 270.718 183.896L268.103 184.855C267.973 184.903 267.876 185.012 267.843 185.145L267.177 187.85C267.104 188.148 266.744 188.266 266.509 188.069L264.371 186.284C264.265 186.196 264.122 186.166 263.989 186.204L261.314 186.98C261.02 187.066 260.738 186.813 260.79 186.511L261.267 183.767C261.291 183.631 261.245 183.492 261.146 183.397L259.136 181.468C258.915 181.256 258.993 180.885 259.281 180.78L261.896 179.82C262.025 179.773 262.122 179.664 262.155 179.53L262.821 176.825Z" fill="#FFDFAE"/>
<path d="M311.954 423.578C312.045 423.211 312.489 423.065 312.779 423.308L316.958 426.797C317.089 426.906 317.265 426.943 317.429 426.896L322.658 425.379C323.021 425.274 323.369 425.585 323.305 425.958L322.373 431.322C322.344 431.49 322.4 431.661 322.523 431.779L326.45 435.549C326.723 435.811 326.627 436.269 326.272 436.399L321.161 438.274C321.001 438.332 320.881 438.467 320.84 438.632L319.539 443.919C319.449 444.286 319.004 444.432 318.714 444.189L314.535 440.7C314.404 440.591 314.228 440.554 314.064 440.601L308.835 442.118C308.472 442.223 308.124 441.911 308.188 441.539L309.12 436.175C309.15 436.007 309.093 435.836 308.971 435.718L305.043 431.948C304.77 431.686 304.866 431.228 305.221 431.098L310.332 429.223C310.492 429.165 310.612 429.03 310.653 428.865L311.954 423.578Z" fill="#FFDFAE"/>
<path fill-rule="evenodd" clip-rule="evenodd" d="M305.223 431.098C304.868 431.228 304.772 431.685 305.045 431.947L308.973 435.717C309.095 435.835 309.152 436.007 309.122 436.174L308.19 441.538C308.126 441.911 308.474 442.223 308.837 442.117L314.066 440.601C314.23 440.554 314.406 440.59 314.537 440.7L318.716 444.189C319.006 444.431 319.451 444.286 319.541 443.918L320.842 438.632C320.883 438.466 321.003 438.332 321.163 438.273L326.274 436.398C326.629 436.268 326.725 435.811 326.452 435.549L322.525 431.779C322.402 431.661 322.346 431.49 322.375 431.322L323.307 425.958C323.371 425.585 323.023 425.273 322.66 425.379L317.431 426.895C317.267 426.943 317.091 426.906 316.96 426.797L312.781 423.307C312.491 423.065 312.047 423.211 311.956 423.578L310.655 428.865C310.614 429.03 310.494 429.164 310.334 429.223L305.223 431.098ZM318.665 419.838L320.868 419.199C325.8 417.769 330.525 422 329.646 427.059L329.253 429.319L330.908 430.907C334.613 434.463 333.311 440.671 328.49 442.439L326.337 443.229L325.789 445.456C324.562 450.442 318.535 452.419 314.593 449.128L312.832 447.658L310.629 448.297C305.697 449.727 300.972 445.496 301.851 440.437L302.244 438.177L300.589 436.589C296.884 433.033 298.186 426.825 303.007 425.057L305.16 424.267L305.708 422.04C306.936 417.054 312.962 415.077 316.905 418.368L318.665 419.838Z" fill="black"/>
<path d="M348.547 298.031C348.926 297.903 349.308 298.217 349.256 298.614L348.787 302.22C348.764 302.399 348.831 302.577 348.966 302.696L351.696 305.1C351.996 305.365 351.915 305.852 351.546 306.006L348.188 307.403C348.022 307.472 347.901 307.62 347.865 307.796L347.148 311.362C347.069 311.754 346.606 311.928 346.288 311.685L343.399 309.476C343.256 309.366 343.068 309.335 342.898 309.393L339.451 310.554C339.072 310.682 338.69 310.368 338.742 309.971L339.211 306.365C339.234 306.186 339.167 306.008 339.032 305.889L336.302 303.485C336.002 303.22 336.083 302.733 336.452 302.579L339.81 301.182C339.976 301.113 340.097 300.965 340.133 300.789L340.85 297.223C340.929 296.831 341.392 296.657 341.71 296.9L344.599 299.109C344.742 299.219 344.93 299.25 345.1 299.192L348.547 298.031Z" fill="#FFDFAE"/>
<path d="M274.206 217.986C274.685 217.777 275.217 218.142 275.195 218.664L274.948 224.487C274.938 224.721 275.045 224.946 275.234 225.085L279.926 228.543C280.346 228.853 280.297 229.496 279.834 229.738L274.667 232.436C274.459 232.545 274.319 232.75 274.292 232.984L273.643 238.776C273.585 239.295 273.003 239.573 272.562 239.293L267.643 236.168C267.444 236.042 267.196 236.023 266.981 236.117L261.64 238.451C261.162 238.66 260.63 238.295 260.652 237.773L260.899 231.95C260.909 231.716 260.801 231.491 260.612 231.352L255.921 227.894C255.5 227.584 255.55 226.941 256.013 226.699L261.179 224.001C261.387 223.892 261.528 223.687 261.554 223.453L262.203 217.661C262.261 217.142 262.843 216.864 263.284 217.144L268.204 220.269C268.402 220.395 268.65 220.414 268.865 220.32L274.206 217.986Z" fill="#FFFDE8"/>
<path d="M99.3676 213.614C99.456 213.255 99.8904 213.112 100.174 213.349L103.942 216.495C104.07 216.601 104.242 216.637 104.402 216.591L109.116 215.224C109.471 215.121 109.812 215.426 109.749 215.79L108.908 220.626C108.88 220.79 108.935 220.957 109.055 221.073L112.596 224.471C112.863 224.728 112.769 225.175 112.421 225.302L107.814 226.993C107.657 227.05 107.54 227.181 107.5 227.343L106.327 232.109C106.239 232.468 105.804 232.61 105.52 232.373L101.753 229.228C101.625 229.121 101.452 229.085 101.292 229.131L96.5788 230.498C96.2234 230.602 95.8829 230.297 95.9462 229.932L96.7864 225.097C96.8149 224.933 96.7599 224.765 96.6398 224.65L93.099 221.251C92.832 220.995 92.9258 220.547 93.2733 220.42L97.881 218.73C98.0373 218.673 98.1549 218.541 98.1947 218.38L99.3676 213.614Z" fill="#FFD43B"/>
<path d="M454.942 240.551L394.341 269.315C393.568 269.682 392.655 269.224 392.487 268.385L390.242 257.166C390.134 256.626 390.374 256.076 390.842 255.788L444.784 222.531C445.419 222.139 446.252 222.353 446.619 223.002L455.523 238.714C455.899 239.378 455.633 240.223 454.942 240.551Z" fill="#FFE815"/>
<path fill-rule="evenodd" clip-rule="evenodd" d="M390.789 255.701L387.465 250.309L441.407 217.052C445.146 214.747 450.051 216.006 452.217 219.828L461.12 235.539L455.543 238.7L461.12 235.539C463.339 239.455 461.767 244.431 457.701 246.361L397.1 275.125C392.543 277.288 387.167 274.591 386.178 269.645L383.933 258.426L383.933 258.426C383.297 255.248 384.706 252.01 387.465 250.309L390.789 255.701ZM394.341 269.313L454.942 240.548C455.632 240.221 455.899 239.376 455.522 238.711L446.619 223C446.251 222.351 445.419 222.137 444.784 222.529L390.841 255.786C390.373 256.074 390.134 256.624 390.242 257.164L392.487 268.383C392.655 269.222 393.567 269.68 394.341 269.313Z" fill="black"/>
<path d="M410.323 276.525V269.772C410.323 269.145 410.765 268.605 411.38 268.482L441.058 262.546C441.872 262.383 442.631 263.006 442.631 263.836V278.899C442.631 279.667 441.976 280.272 441.211 280.211L411.533 277.836C410.85 277.782 410.323 277.211 410.323 276.525Z" fill="#FFE815"/>
<path fill-rule="evenodd" clip-rule="evenodd" d="M410.119 262.171L410.119 262.171L439.796 256.236C444.591 255.277 449.065 258.945 449.065 263.835V278.898C449.065 283.422 445.207 286.984 440.698 286.623L411.02 284.249C406.993 283.927 403.889 280.564 403.889 276.524V269.771C403.889 266.076 406.496 262.896 410.119 262.171ZM410.323 269.771V276.524C410.323 277.21 410.85 277.781 411.533 277.835L441.211 280.21C441.976 280.271 442.631 279.666 442.631 278.898V263.835C442.631 263.005 441.872 262.382 441.058 262.545L411.38 268.481C410.765 268.604 410.323 269.144 410.323 269.771Z" fill="black"/>
<path d="M142.727 405.437L220.69 373.981C221.238 373.759 221.864 373.861 222.314 374.244L232.47 382.896C233.338 383.635 233.167 385.021 232.146 385.527L153.633 424.442C152.89 424.81 151.989 424.545 151.564 423.833L141.957 407.722C141.458 406.886 141.824 405.801 142.727 405.437Z" fill="#FFE815"/>
<path fill-rule="evenodd" clip-rule="evenodd" d="M136.648 403.33C137.257 401.573 138.596 400.164 140.321 399.468L218.284 368.012C220.686 367.042 223.435 367.608 225.259 369.447L236.715 380.993C238.172 382.461 238.834 384.539 238.495 386.579C238.156 388.619 236.858 390.371 235.005 391.29L156.492 430.205C153.444 431.715 149.747 430.593 148.054 427.642L137.148 408.637C136.222 407.024 136.04 405.088 136.648 403.33ZM142.729 405.435L153.635 424.44L232.148 385.525L220.692 373.978L142.729 405.435Z" fill="black"/>
<path d="M177.659 439.009L212.155 405.263C212.529 404.898 213.058 404.74 213.57 404.84L233.273 408.694C234.332 408.901 234.88 410.083 234.354 411.025L210.784 453.262C210.394 453.96 209.546 454.26 208.804 453.961L178.176 441.616C177.114 441.188 176.841 439.81 177.659 439.009Z" fill="#FFE815"/>
<path fill-rule="evenodd" clip-rule="evenodd" d="M173.159 434.411L207.655 400.666C209.541 398.821 212.215 398.021 214.804 398.528L234.507 402.381C239.861 403.428 242.63 409.399 239.972 414.163L216.402 456.399C214.432 459.928 210.146 461.441 206.398 459.93L175.77 447.586C170.402 445.422 169.022 438.459 173.159 434.411ZM178.175 441.618C177.113 441.19 176.84 439.812 177.659 439.011L212.154 405.265C212.528 404.9 213.057 404.742 213.569 404.842L233.272 408.695C234.331 408.903 234.88 410.084 234.353 411.027L210.783 453.264C210.393 453.962 209.545 454.262 208.803 453.963L178.175 441.618Z" fill="black"/>
</svg>
