<svg width="512" height="512" viewBox="0 0 512 512" fill="none" xmlns="http://www.w3.org/2000/svg">
<path d="M420.248 208.301C437.061 215.161 448.909 231.673 448.909 250.953C448.909 269.318 438.157 285.173 422.603 292.565M420.248 208.301L321.085 100.972C298.342 93.7792 272.411 90.5318 243.927 90.5318C160.319 90.5318 86.477 133.608 86.477 237.584C86.477 239.429 86.556 241.273 86.7086 243.118H80.3391M420.248 208.301C422.302 207.177 423.911 205.447 424.902 203.405M420.248 208.301L424.902 203.405M422.603 292.565C417.214 343.863 395.341 392.263 353.845 421.771C279.576 474.584 89.4477 455.935 138.465 412.859C141.391 410.287 143.783 407.633 145.693 404.902C143.709 404.018 141.89 402.898 140.26 401.587M422.603 292.565L425.329 298.3C426.419 297.782 427.489 297.227 428.536 296.637M422.603 292.565L428.918 293.228C428.799 294.366 428.671 295.502 428.536 296.637M140.26 401.587C141.426 399.963 142.362 398.339 143.103 396.718L147.368 398.667C139.345 394.555 135.349 385.07 138.356 376.291L144.609 358.037C142.981 354.578 141.134 351.064 139.124 347.502H78.3813C71.3677 347.502 65.682 341.816 65.682 334.803V262.166C65.682 255.153 71.3677 249.467 78.3813 249.467H81.0823C80.7508 247.36 80.5002 245.243 80.3391 243.118M140.26 401.587C132.357 395.23 128.873 384.382 132.349 374.233L137.756 358.448C137.006 356.934 136.211 355.402 135.376 353.852H78.3813C67.8609 353.852 59.3324 345.323 59.3324 334.803V262.166C59.3324 251.646 67.8609 243.118 78.3813 243.118H80.3391M140.26 401.587C138.701 403.758 136.732 405.929 134.274 408.089C127.515 414.029 123.208 420.998 124.316 428.681C125.39 436.134 131.213 441.535 137.82 445.35C151.218 453.084 173.923 457.87 199.492 459.608C225.328 461.364 255.053 460.069 283.104 454.964C311.06 449.876 337.891 440.907 357.525 426.946C399.969 396.763 422.414 347.95 428.536 296.637M80.3391 243.118C80.1998 241.279 80.1273 239.435 80.1273 237.584C80.1273 183.947 99.2549 145.284 129.817 120.162C160.185 95.1979 201.13 84.1822 243.927 84.1822C270.754 84.1822 295.585 87.0146 317.813 93.3586C317.397 92.975 316.974 92.6737 316.564 92.455C311.148 89.5688 309.097 82.8387 311.983 77.4228C314.869 72.007 321.6 69.9563 327.015 72.8424C336.585 77.9424 341.881 87.8242 343.08 97.6343C343.286 99.3222 343.378 101.039 343.35 102.77C346.806 104.371 350.177 106.085 353.461 107.916C356.072 94.998 353.849 81.3499 344.558 70.6778C340.528 66.0491 341.014 59.0303 345.643 55.0008L349.812 59.7899L345.643 55.0007C350.271 50.9712 357.29 51.4569 361.32 56.0856C376.905 73.988 379.19 96.4814 374.565 115.357C374.098 117.265 373.556 119.153 372.944 121.011C375.848 123.349 378.654 125.809 381.358 128.394C381.859 127.234 382.206 126.071 382.388 124.916C382.781 122.428 383.971 120.264 385.657 118.643C385.257 117.871 384.999 117.01 384.918 116.09L383.675 101.807C383.347 98.0406 386.134 94.7212 389.901 94.3932L404.662 93.1077C408.429 92.7797 411.748 95.5673 412.076 99.334L413.32 113.617C413.648 117.383 410.86 120.703 407.094 121.031L406.543 114.705L407.094 121.031L403.146 121.375C404.263 123.442 404.735 125.88 404.34 128.38C403.248 135.301 400.215 141.171 396.684 145.893C402.914 154.41 408.311 163.876 412.827 174.334C418.822 179.551 423.318 186.811 425.655 195.744C426.352 198.411 426.019 201.106 424.902 203.405M428.536 296.637C444.476 287.661 455.259 270.572 455.259 250.953C455.259 229.88 442.823 211.726 424.902 203.405M422.19 202.238C422.138 202.034 422.085 201.83 422.033 201.627L421.177 201.848C420.441 201.574 419.698 201.315 418.947 201.073L422.19 202.238Z" stroke="white" stroke-width="12.6993"/>
<path fill-rule="evenodd" clip-rule="evenodd" d="M383.675 101.807C383.347 98.0408 386.134 94.7213 389.901 94.3933L404.663 93.1078C408.429 92.7798 411.749 95.5674 412.077 99.3341L413.32 113.617C413.648 117.383 410.861 120.703 407.094 121.031L403.146 121.375C404.263 123.442 404.735 125.88 404.341 128.38C402.806 138.102 397.444 145.754 392.224 151.081C386.988 156.423 381.127 160.224 376.947 162.233C371.416 164.892 364.777 162.563 362.118 157.032C359.459 151.501 361.788 144.862 367.319 142.203C369.341 141.231 373.047 138.897 376.351 135.525C379.669 132.14 381.823 128.497 382.389 124.916C382.781 122.428 383.971 120.264 385.657 118.643C385.257 117.871 384.999 117.01 384.919 116.09L383.675 101.807ZM391.299 115.727C391.39 115.899 391.577 116.008 391.782 115.991L406.543 114.705C406.816 114.681 407.019 114.441 406.995 114.168L405.751 99.8849C405.727 99.6118 405.487 99.4097 405.213 99.4335L390.452 100.719C390.179 100.743 389.977 100.983 390.001 101.257L391.244 115.539C391.25 115.607 391.27 115.67 391.299 115.727ZM391.351 122.332C389.966 122.98 388.917 124.282 388.661 125.906C387.819 131.24 384.749 136.028 380.886 139.97C377.03 143.905 372.709 146.658 370.07 147.926C367.699 149.066 366.701 151.911 367.841 154.281C368.98 156.652 371.825 157.65 374.196 156.51C377.76 154.797 383.005 151.416 387.689 146.636C392.366 141.863 396.811 135.357 398.069 127.391C398.442 125.026 397.006 122.794 394.787 122.103C394.568 122.034 394.341 121.981 394.107 121.944C393.489 121.847 392.88 121.873 392.306 122.004C391.975 122.079 391.655 122.19 391.351 122.332ZM361.32 56.0857C376.905 73.9881 379.19 96.4815 374.566 115.357C370.056 133.762 358.355 151.105 342.696 158.207C337.107 160.742 330.522 158.266 327.987 152.677C325.452 147.088 327.928 140.502 333.517 137.967C341.142 134.509 349.548 124.076 352.98 110.068C356.298 96.5286 354.367 81.9448 344.558 70.6779C340.529 66.0492 341.014 59.0304 345.643 55.0009C350.272 50.9713 357.291 51.457 361.32 56.0857ZM316.564 92.4551C311.148 89.5689 309.097 82.8388 311.984 77.4229C314.87 72.0071 321.6 69.9564 327.016 72.8426C337.05 78.1901 342.133 89.4347 343.446 99.4228C344.806 109.771 342.646 122.125 334.227 131.355C330.092 135.89 323.063 136.213 318.529 132.077C313.995 127.942 313.672 120.914 317.807 116.379C320.738 113.167 322.151 107.942 321.412 102.32C320.628 96.3548 317.94 93.1885 316.564 92.4551ZM356.531 60.2549C354.804 58.2712 351.796 58.063 349.812 59.79C347.829 61.5169 347.62 64.525 349.347 66.5087C360.804 79.6689 362.84 96.5111 359.148 111.579C355.406 126.848 346.057 139.253 336.14 143.75C333.744 144.836 332.683 147.659 333.77 150.054C334.856 152.449 337.678 153.511 340.074 152.424C353.434 146.365 364.195 130.999 368.398 113.846C372.651 96.4913 370.464 76.2591 356.531 60.2549ZM317.587 80.4092C318.824 78.0881 321.708 77.2092 324.029 78.4461C331.582 82.4708 335.987 91.3984 337.151 100.25C338.334 109.254 336.383 119.569 329.536 127.077C327.763 129.02 324.751 129.158 322.808 127.386C320.865 125.614 320.726 122.602 322.499 120.658C326.994 115.73 328.625 108.471 327.707 101.492C326.77 94.3615 323.39 88.8978 319.55 86.8515C317.229 85.6146 316.35 82.7302 317.587 80.4092Z" fill="black"/>
<path d="M243.927 87.3574C201.626 87.3574 161.473 98.2498 131.833 122.615C102.096 147.059 83.302 184.772 83.302 237.585C83.302 254.846 89.9026 271.905 98.698 288.233C104.952 299.843 112.465 311.335 119.687 322.381C122.596 326.83 125.458 331.207 128.17 335.49C137.745 350.606 145.455 364.53 147.904 377.175C149.115 383.427 149.013 389.252 147.279 394.702C145.549 400.139 142.128 405.414 136.369 410.474C129.926 416.136 126.578 422.122 127.458 428.229C128.321 434.22 133.081 438.948 139.407 442.601C152.152 449.958 174.251 454.711 199.707 456.441C225.298 458.181 254.758 456.896 282.535 451.841C310.264 446.794 336.584 437.941 355.685 424.359C424.024 375.762 439.874 277.568 417.804 198.115C406.668 158.026 385.022 130.211 355.058 112.494C325.191 94.8328 287.324 87.3574 243.927 87.3574Z" fill="#BBE7F0" stroke="black" stroke-width="6.34963" stroke-linecap="square" stroke-linejoin="round"/>
<rect x="232.912" y="90.4562" width="161.633" height="322.667" rx="21.6136" transform="rotate(18.9086 232.912 90.4562)" fill="#F1F3F5" stroke="black" stroke-width="6.34963"/>
<path d="M272.972 107.535L343.703 131.764L342.963 133.923C341.313 138.74 336.071 141.308 331.254 139.658L277.966 121.404C273.149 119.754 270.582 114.512 272.232 109.695L272.972 107.535Z" fill="black"/>
<rect opacity="0.6" x="231.789" y="139.023" width="132.278" height="86.2684" rx="9.21941" transform="rotate(18.9086 231.789 139.023)" fill="#A7D4E2"/>
<rect opacity="0.6" x="197.31" y="239.68" width="132.278" height="25.8805" rx="6.14627" transform="rotate(18.9086 197.31 239.68)" fill="#A7D4E2"/>
<rect opacity="0.6" x="184.263" y="277.766" width="46.0098" height="25.8805" rx="6.14627" transform="rotate(18.9086 184.263 277.766)" fill="#A7D4E2"/>
<rect x="169.353" y="321.292" width="132.278" height="8.62684" transform="rotate(18.9086 169.353 321.292)" fill="#CCDFE0" fill-opacity="0.54"/>
<rect x="162.83" y="340.335" width="132.278" height="8.62684" transform="rotate(18.9086 162.83 340.335)" fill="#CCDFE0" fill-opacity="0.54"/>
<path d="M421.254 198.557C414.801 173.88 388.562 169.901 372.401 185.768" stroke="#FF8CB6" stroke-width="9.52444" stroke-linecap="round"/>
<path d="M323.91 428.76C323.485 403.256 298.935 393.176 279.476 404.764" stroke="#FF8CB6" stroke-width="9.52444" stroke-linecap="round"/>
<path d="M295.584 378.06C302.316 376.633 317.079 370.671 322.268 358.246" stroke="#FF8CB6" stroke-width="9.52444" stroke-linecap="round"/>
<path d="M355.758 329.79C356.131 329.755 356.406 330.13 356.262 330.476L348.191 349.782C348.054 350.11 347.628 350.192 347.379 349.938L330.702 332.947C330.409 332.649 330.593 332.144 331.01 332.106L355.758 329.79Z" fill="#51CEF5"/>
<path fill-rule="evenodd" clip-rule="evenodd" d="M143.738 121.726C136.724 121.726 131.039 127.411 131.039 134.425V201.12C131.039 208.133 136.724 213.819 143.738 213.819H215.994C216.752 213.819 217.485 214.09 218.06 214.583L245.336 237.962C247.665 239.959 251.191 237.818 250.494 234.83L246.5 217.715C246.036 215.724 247.547 213.819 249.592 213.819H257.965C264.979 213.819 270.664 208.133 270.664 201.12V134.425C270.664 127.411 264.979 121.726 257.965 121.726H143.738Z" fill="#FF8CB6"/>
<path fill-rule="evenodd" clip-rule="evenodd" d="M124.689 134.425C124.689 123.904 133.218 115.376 143.738 115.376H257.965C268.485 115.376 277.014 123.904 277.014 134.425V201.12C277.014 211.64 268.485 220.169 257.965 220.169H253.593L256.677 233.388L250.494 234.831L246.5 217.715C246.036 215.724 247.547 213.819 249.592 213.819H257.965C264.979 213.819 270.664 208.133 270.664 201.12V134.425C270.664 127.411 264.979 121.726 257.965 121.726H143.738C136.724 121.726 131.039 127.411 131.039 134.425V201.12C131.039 208.133 136.724 213.819 143.738 213.819H215.994C216.752 213.819 217.485 214.09 218.06 214.583L245.336 237.962C247.665 239.959 251.191 237.818 250.494 234.831L256.677 233.388C258.769 242.351 248.192 248.773 241.204 242.783L214.82 220.169H143.738C133.218 220.169 124.689 211.64 124.689 201.12V134.425Z" fill="black"/>
<path fill-rule="evenodd" clip-rule="evenodd" d="M177.684 172.728C185.417 182.531 199.695 191.861 201.419 191.861C203.301 191.861 218.883 180.986 225.797 170.022C230.359 162.789 229.586 155.276 225.797 149.742C220.898 142.589 213.469 141.746 208.556 143.168C203.908 144.513 201.463 147.943 200.905 147.943C200.354 147.943 197.737 144.564 193.136 143.168C188.155 141.658 181.199 142.381 175.832 149.742C171.204 156.091 171.402 164.765 177.684 172.728Z" fill="white" stroke="black" stroke-width="6.34963"/>
<path fill-rule="evenodd" clip-rule="evenodd" d="M316.709 204.906C291.278 204.906 270.662 225.522 270.662 250.952C270.662 276.359 286.855 296.96 312.253 296.999L300.018 314.881C298.157 317.6 301.158 321.003 304.088 319.498L347.902 296.999H402.861C428.292 296.999 448.908 276.383 448.908 250.952C448.908 225.522 428.292 204.906 402.861 204.906H316.709Z" fill="#54E1B7"/>
<path fill-rule="evenodd" clip-rule="evenodd" d="M305.499 295.625C307.576 296.145 311.888 296.75 311.888 296.75L312.252 296.999L300.017 314.881C298.157 317.6 301.158 321.003 304.088 319.498L306.988 325.146C298.197 329.661 289.197 319.452 294.777 311.295L301.706 301.169C280.079 294.717 264.312 274.676 264.312 250.952C264.312 222.015 287.771 198.556 316.709 198.556H402.861C431.798 198.556 455.257 222.015 455.257 250.952C455.257 279.89 431.798 303.349 402.861 303.349H349.436L306.988 325.146L304.088 319.498L347.901 296.999H402.861C428.292 296.999 448.907 276.383 448.907 250.952C448.907 225.522 428.292 204.906 402.861 204.906H316.709C291.278 204.906 270.662 225.522 270.662 250.952C270.662 272.517 285.486 290.619 305.499 295.625Z" fill="black"/>
<path d="M330.077 252.437C330.077 259 324.756 264.32 318.194 264.32C311.631 264.32 306.311 259 306.311 252.437C306.311 245.875 311.631 240.554 318.194 240.554C324.756 240.554 330.077 245.875 330.077 252.437Z" fill="white"/>
<path fill-rule="evenodd" clip-rule="evenodd" d="M318.194 243.729C313.384 243.729 309.485 247.628 309.485 252.437C309.485 257.247 313.384 261.145 318.194 261.145C323.003 261.145 326.902 257.247 326.902 252.437C326.902 247.628 323.003 243.729 318.194 243.729ZM303.136 252.437C303.136 244.121 309.877 237.379 318.194 237.379C326.51 237.379 333.251 244.121 333.251 252.437C333.251 260.753 326.51 267.495 318.194 267.495C309.877 267.495 303.136 260.753 303.136 252.437Z" fill="black"/>
<path d="M371.669 252.437C371.669 259 366.348 264.32 359.785 264.32C353.223 264.32 347.902 259 347.902 252.437C347.902 245.875 353.223 240.554 359.785 240.554C366.348 240.554 371.669 245.875 371.669 252.437Z" fill="white"/>
<path fill-rule="evenodd" clip-rule="evenodd" d="M359.785 243.729C354.976 243.729 351.077 247.628 351.077 252.437C351.077 257.247 354.976 261.145 359.785 261.145C364.595 261.145 368.494 257.247 368.494 252.437C368.494 247.628 364.595 243.729 359.785 243.729ZM344.728 252.437C344.728 244.121 351.469 237.379 359.785 237.379C368.102 237.379 374.843 244.121 374.843 252.437C374.843 260.753 368.102 267.495 359.785 267.495C351.469 267.495 344.728 260.753 344.728 252.437Z" fill="black"/>
<path d="M413.257 252.437C413.257 259 407.937 264.32 401.374 264.32C394.812 264.32 389.491 259 389.491 252.437C389.491 245.875 394.812 240.554 401.374 240.554C407.937 240.554 413.257 245.875 413.257 252.437Z" fill="white"/>
<path fill-rule="evenodd" clip-rule="evenodd" d="M401.374 243.729C396.565 243.729 392.666 247.628 392.666 252.437C392.666 257.247 396.565 261.145 401.374 261.145C406.184 261.145 410.083 257.247 410.083 252.437C410.083 247.628 406.184 243.729 401.374 243.729ZM386.317 252.437C386.317 244.121 393.058 237.379 401.374 237.379C409.691 237.379 416.432 244.121 416.432 252.437C416.432 260.753 409.691 267.495 401.374 267.495C393.058 267.495 386.317 260.753 386.317 252.437Z" fill="black"/>
<path fill-rule="evenodd" clip-rule="evenodd" d="M78.3819 249.468C71.3683 249.468 65.6826 255.154 65.6826 262.168V334.804C65.6826 341.818 71.3683 347.503 78.3819 347.503H148.864L186.09 372.32C188.565 373.971 191.747 371.616 190.892 368.767L184.513 347.503H201.521C208.535 347.503 214.22 341.818 214.22 334.804V262.168C214.22 255.154 208.535 249.468 201.521 249.468H78.3819Z" fill="#2898FF"/>
<path fill-rule="evenodd" clip-rule="evenodd" d="M59.333 262.167C59.333 251.647 67.8615 243.118 78.3819 243.118H201.521C212.042 243.118 220.57 251.647 220.57 262.167V334.804C220.57 345.324 212.042 353.853 201.521 353.853H193.047L196.974 366.942C199.538 375.49 189.993 382.554 182.568 377.603L146.942 353.853H78.3819C67.8615 353.853 59.333 345.324 59.333 334.804V262.167ZM148.864 347.503H78.3819C71.3683 347.503 65.6826 341.817 65.6826 334.804V262.167C65.6826 255.154 71.3683 249.468 78.3819 249.468H201.521C208.535 249.468 214.22 255.154 214.22 262.167V334.804C214.22 341.817 208.535 347.503 201.521 347.503H184.513L190.892 368.766C191.747 371.616 188.565 373.97 186.09 372.32L148.864 347.503Z" fill="black"/>
<path d="M116.185 239.733C125.141 235.464 138.408 241.997 140.914 254.688" stroke="#FF8CB6" stroke-width="9.52444" stroke-linecap="round"/>
<path d="M164.088 259.532C168.195 240.322 148.127 209.302 118.503 211.676" stroke="#51CEF5" stroke-width="9.52444" stroke-linecap="round"/>
<path fill-rule="evenodd" clip-rule="evenodd" d="M154.934 272.872C155.238 277.495 154.467 281.514 151.69 287.785L151.69 287.786H166.575C169.714 287.786 172.258 290.33 172.258 293.469C172.258 296.608 169.714 299.153 166.575 299.153H161.998L167.443 299.153C170.102 299.153 172.258 301.309 172.258 303.968C172.258 306.627 170.102 308.783 167.443 308.783H165.683C168.296 308.837 170.397 310.972 170.397 313.597C170.397 316.257 168.241 318.412 165.582 318.412H163.576C165.843 318.439 167.673 320.285 167.673 322.558C167.673 324.848 165.817 326.704 163.527 326.704H156.14L156.14 326.705H128.426C125.357 326.705 122.87 324.217 122.87 321.149V296.46C122.87 293.358 125.451 290.673 128.333 289.527C130.536 288.651 133.26 287.181 136.235 284.715C137.824 283.398 143.21 278.297 143.707 269.235C144.014 263.63 148.827 263.421 151.69 265.618C154.64 267.881 154.812 270.819 154.915 272.561C154.921 272.669 154.927 272.773 154.934 272.872Z" fill="#F8F9FA"/>
<path fill-rule="evenodd" clip-rule="evenodd" d="M128.426 326.705C125.357 326.705 122.87 324.218 122.87 321.149V296.461C122.87 293.358 125.451 290.673 128.333 289.527C130.536 288.652 133.26 287.182 136.235 284.716C137.824 283.398 143.21 278.298 143.707 269.235C144.014 263.63 148.827 263.422 151.69 265.619C154.64 267.882 154.812 270.82 154.915 272.562C154.921 272.67 154.927 272.774 154.934 272.872C155.122 275.733 154.898 278.362 154.043 281.437C153.516 283.331 152.749 285.395 151.69 287.785C151.69 287.785 151.69 287.786 151.69 287.785L166.575 287.786C169.714 287.786 172.258 290.331 172.258 293.47C172.258 293.61 172.253 293.748 172.243 293.886C172.051 296.541 170.036 298.69 167.443 299.088C167.16 299.131 166.87 299.154 166.575 299.154L167.443 299.154C170.102 299.154 172.258 301.309 172.258 303.969C172.258 304.006 172.258 304.043 172.257 304.08C172.253 304.261 172.239 304.441 172.215 304.617C171.899 306.97 169.883 308.784 167.443 308.784H165.683C166.306 308.797 166.9 308.928 167.443 309.156C169.178 309.884 170.397 311.599 170.397 313.598C170.397 313.922 170.365 314.238 170.304 314.544C170.288 314.622 170.271 314.7 170.251 314.777C169.725 316.867 167.834 318.413 165.582 318.413H163.576C164.305 318.422 164.989 318.618 165.582 318.957C166.831 319.671 167.673 321.016 167.673 322.559C167.673 323.326 167.465 324.044 167.102 324.66C166.381 325.884 165.05 326.705 163.527 326.705H156.145L156.14 326.705L156.134 326.705H128.426ZM156.229 333.054C156.199 333.055 156.17 333.055 156.14 333.055H128.426C121.85 333.055 116.52 327.725 116.52 321.149V296.461C116.52 289.808 121.71 285.327 125.987 283.627C127.583 282.992 129.73 281.861 132.182 279.828C133.13 279.042 137.008 275.428 137.367 268.888C137.492 266.599 138.109 264.321 139.472 262.366C140.87 260.36 142.812 259.048 144.921 258.418C148.897 257.229 152.893 258.538 155.555 260.581C160.816 264.618 161.132 270.084 161.247 272.075C161.249 272.114 161.251 272.152 161.254 272.189C161.26 272.302 161.265 272.383 161.27 272.456C161.473 275.555 161.27 278.418 160.589 281.437H166.575C173.22 281.437 178.608 286.824 178.608 293.47C178.608 295.393 178.157 297.211 177.354 298.824C178.155 300.363 178.608 302.113 178.608 303.969C178.608 306.49 177.772 308.816 176.363 310.685C176.613 311.614 176.746 312.59 176.746 313.598C176.746 316.453 175.675 319.057 173.913 321.031C173.985 321.53 174.023 322.04 174.023 322.559C174.023 328.355 169.324 333.054 163.527 333.054H156.229Z" fill="black"/>
<path d="M104.208 298.47C104.208 295.401 106.696 292.914 109.764 292.914H111.649C114.718 292.914 117.205 295.401 117.205 298.47V321.15C117.205 324.219 114.718 326.706 111.649 326.706H109.764C106.696 326.706 104.208 324.219 104.208 321.15V298.47Z" fill="#F8F9FA"/>
<path fill-rule="evenodd" clip-rule="evenodd" d="M109.764 286.564H111.649C118.225 286.564 123.555 291.895 123.555 298.47V321.15C123.555 327.726 118.225 333.056 111.649 333.056H109.764C103.189 333.056 97.8585 327.726 97.8585 321.15V298.47C97.8585 291.895 103.189 286.564 109.764 286.564ZM109.764 292.914C106.696 292.914 104.208 295.402 104.208 298.47V321.15C104.208 324.219 106.696 326.706 109.764 326.706H111.649C114.718 326.706 117.205 324.219 117.205 321.15V298.47C117.205 295.402 114.718 292.914 111.649 292.914H109.764Z" fill="black"/>
<circle cx="331.565" cy="393.548" r="7.42689" fill="#FCC2D7"/>
<path d="M321.788 82.6475C333.18 88.7184 336.601 107.653 325.258 120.089" stroke="#FF8CB6" stroke-width="9.52444" stroke-linecap="round"/>
<path d="M372.133 152.219C378.336 149.238 391.266 139.95 393.365 126.649" stroke="#FF8CB6" stroke-width="9.52444" stroke-linecap="round"/>
<path fill-rule="evenodd" clip-rule="evenodd" d="M349.813 59.789C351.797 58.0621 354.805 58.2702 356.532 60.2539C370.465 76.2581 372.652 96.4903 368.399 113.845C364.196 130.998 353.435 146.364 340.075 152.423C337.679 153.51 334.857 152.448 333.771 150.053C332.684 147.658 333.745 144.836 336.141 143.749C346.058 139.252 355.407 126.847 359.149 111.578C362.841 96.5102 360.805 79.6679 349.348 66.5077C347.621 64.524 347.829 61.5159 349.813 59.789Z" fill="#51CEF5"/>
<rect x="389.956" y="100.763" width="15.8099" height="15.3294" rx="0.496355" transform="rotate(-4.97696 389.956 100.763)" fill="#51CEF5"/>
</svg>
