<svg width="512" height="512" viewBox="0 0 512 512" fill="none" xmlns="http://www.w3.org/2000/svg">
<mask id="path-1-outside-1_39_96" maskUnits="userSpaceOnUse" x="26.1785" y="63" width="461" height="369" fill="black">
<rect fill="white" x="26.1785" y="63" width="461" height="369"/>
<path fill-rule="evenodd" clip-rule="evenodd" d="M196.6 133.556L198.454 77L285.156 129.644L365.199 97.3462L410.044 188.626L408.537 188.928L413.376 193.625L473.351 205.286L473.355 205.286L473.354 205.287L437.754 268.074L443.366 320.244L391.614 295.759L391.772 295.554L390.051 295.254L411.71 333.574L411.486 334.165L411.709 334.286L380.645 418.542L304.815 360.967L243.027 418.542L175.622 360.967L92.77 383.435L103.846 353.9L121.815 303.585L110.135 303.208L49.4065 318.829L77.0907 264.999L40.1785 195.788L40.8277 196.024L40.1785 195.291L125.148 203.621L131.014 195.799L128.613 197.584L71.8335 146.974L125.537 136.064L183.46 95.3266V113.653L188.458 138.645L196.6 133.556ZM111.234 156.326H108.172L126.148 170.411L111.234 156.326ZM303.416 320.245L304.645 321.794L259.507 360.777L303.416 320.245ZM223.445 126.774L228.415 129.632L223.445 125.316V126.774Z"/>
</mask>
<path fill-rule="evenodd" clip-rule="evenodd" d="M196.6 133.556L198.454 77L285.156 129.644L365.199 97.3462L410.044 188.626L408.537 188.928L413.376 193.625L473.351 205.286L473.355 205.286L473.354 205.287L437.754 268.074L443.366 320.244L391.614 295.759L391.772 295.554L390.051 295.254L411.71 333.574L411.486 334.165L411.709 334.286L380.645 418.542L304.815 360.967L243.027 418.542L175.622 360.967L92.77 383.435L103.846 353.9L121.815 303.585L110.135 303.208L49.4065 318.829L77.0907 264.999L40.1785 195.788L40.8277 196.024L40.1785 195.291L125.148 203.621L131.014 195.799L128.613 197.584L71.8335 146.974L125.537 136.064L183.46 95.3266V113.653L188.458 138.645L196.6 133.556ZM111.234 156.326H108.172L126.148 170.411L111.234 156.326ZM303.416 320.245L304.645 321.794L259.507 360.777L303.416 320.245ZM223.445 126.774L228.415 129.632L223.445 125.316V126.774Z" fill="#4F7FFA"/>
<path d="M198.454 77L205.372 65.6072C201.323 63.149 196.274 63.0239 192.109 65.2787C187.944 67.5335 185.288 71.8294 185.133 76.5632L198.454 77ZM196.6 133.556L203.664 144.858C207.43 142.505 209.776 138.431 209.921 133.993L196.6 133.556ZM285.156 129.644L278.238 141.037C281.832 143.219 286.245 143.578 290.143 142.005L285.156 129.644ZM365.199 97.3462L377.162 91.469C374.083 85.2013 366.688 82.3729 360.212 84.986L365.199 97.3462ZM410.044 188.626L412.658 201.696C416.715 200.884 420.166 198.234 421.997 194.524C423.828 190.813 423.831 186.463 422.007 182.749L410.044 188.626ZM408.537 188.928L405.923 175.858C401.068 176.829 397.151 180.411 395.752 185.16C394.352 189.91 395.701 195.043 399.254 198.492L408.537 188.928ZM413.376 193.625L404.093 203.189C405.95 204.991 408.292 206.214 410.832 206.708L413.376 193.625ZM473.351 205.286L470.807 218.37C472.186 218.638 473.599 218.686 474.993 218.513L473.351 205.286ZM473.355 205.286L483.346 214.109C487.013 209.956 487.729 203.967 485.144 199.067C482.559 194.167 477.212 191.376 471.714 192.059L473.355 205.286ZM473.354 205.287L463.364 196.464C462.753 197.156 462.215 197.91 461.76 198.713L473.354 205.287ZM437.754 268.074L426.16 261.5C424.784 263.928 424.204 266.726 424.502 269.5L437.754 268.074ZM443.366 320.244L437.666 332.292C442.025 334.355 447.159 333.901 451.089 331.107C455.02 328.313 457.134 323.613 456.618 318.819L443.366 320.244ZM391.614 295.759L381.054 287.626C378.593 290.821 377.712 294.959 378.656 298.879C379.6 302.8 382.269 306.082 385.914 307.807L391.614 295.759ZM391.772 295.554L402.332 303.686C405.18 299.987 405.886 295.069 404.193 290.719C402.5 286.369 398.654 283.222 394.056 282.422L391.772 295.554ZM390.051 295.254L392.335 282.123C387.259 281.24 382.129 283.362 379.159 287.572C376.19 291.783 375.913 297.327 378.448 301.813L390.051 295.254ZM411.71 333.574L424.169 338.308C425.577 334.604 425.263 330.465 423.313 327.015L411.71 333.574ZM411.486 334.165L399.026 329.43C396.655 335.67 399.266 342.702 405.135 345.883L411.486 334.165ZM411.709 334.286L424.215 338.896C426.507 332.68 423.885 325.724 418.06 322.567L411.709 334.286ZM380.645 418.542L372.585 429.157C375.95 431.712 380.326 432.52 384.381 431.336C388.436 430.152 391.69 427.116 393.151 423.153L380.645 418.542ZM304.815 360.967L312.875 350.351C307.71 346.43 300.473 346.795 295.728 351.216L304.815 360.967ZM243.027 418.542L234.37 428.677C239.522 433.077 247.156 432.912 252.113 428.293L243.027 418.542ZM175.622 360.967L184.279 350.832C180.93 347.972 176.384 346.95 172.133 348.103L175.622 360.967ZM92.77 383.435L80.2901 378.755C78.5343 383.438 79.5471 388.709 82.9131 392.407C86.2792 396.105 91.4321 397.608 96.2585 396.299L92.77 383.435ZM103.846 353.9L116.326 358.58C116.35 358.514 116.374 358.448 116.398 358.383L103.846 353.9ZM121.815 303.585L134.367 308.067C135.8 304.057 135.229 299.604 132.833 296.083C130.436 292.563 126.502 290.4 122.245 290.263L121.815 303.585ZM110.135 303.208L110.565 289.886C109.302 289.846 108.039 289.985 106.815 290.3L110.135 303.208ZM49.4065 318.829L37.5537 312.733C35.153 317.401 35.7156 323.043 38.9907 327.145C42.2658 331.247 47.6434 333.045 52.7269 331.737L49.4065 318.829ZM77.0907 264.999L88.9436 271.095C90.9432 267.206 90.9087 262.585 88.8511 258.727L77.0907 264.999ZM40.1785 195.788L44.7194 183.257C39.5317 181.377 33.722 182.888 30.1076 187.058C26.4932 191.227 25.8214 197.192 28.418 202.061L40.1785 195.788ZM40.8277 196.024L36.2868 208.555C42.0175 210.631 48.4268 208.556 51.8523 203.514C55.2778 198.472 54.8467 191.749 50.8053 187.186L40.8277 196.024ZM40.1785 195.291L41.4789 182.026C36.0239 181.491 30.7976 184.35 28.3063 189.233C25.815 194.115 26.5667 200.025 30.2009 204.128L40.1785 195.291ZM125.148 203.621L123.847 216.886C128.481 217.34 133.017 215.343 135.81 211.618L125.148 203.621ZM131.014 195.799L141.677 203.796C145.651 198.498 145.131 191.086 140.458 186.393C135.785 181.701 128.375 181.152 123.061 185.104L131.014 195.799ZM128.613 197.584L119.745 207.534C124.465 211.742 131.492 212.053 136.567 208.28L128.613 197.584ZM71.8335 146.974L69.1799 133.913C64.2352 134.917 60.2817 138.628 58.9661 143.499C57.6504 148.37 59.1983 153.567 62.9649 156.924L71.8335 146.974ZM125.537 136.064L128.191 149.126C129.993 148.76 131.7 148.024 133.205 146.966L125.537 136.064ZM183.46 95.3266H196.788C196.788 90.3514 194.017 85.7904 189.602 83.4977C185.186 81.205 179.862 81.5623 175.792 84.4244L183.46 95.3266ZM183.46 113.653H170.131C170.131 114.531 170.218 115.406 170.39 116.267L183.46 113.653ZM188.458 138.645L175.388 141.258C176.247 145.551 179.158 149.148 183.177 150.882C187.196 152.616 191.81 152.267 195.522 149.947L188.458 138.645ZM108.172 156.326V142.997C102.487 142.997 97.428 146.603 95.5733 151.977C93.7185 157.351 95.4766 163.31 99.9515 166.817L108.172 156.326ZM111.234 156.326L120.385 146.636C117.911 144.299 114.637 142.997 111.234 142.997V156.326ZM126.148 170.411L117.927 180.902C123.533 185.295 131.602 184.505 136.249 179.107C140.896 173.709 140.477 165.612 135.299 160.721L126.148 170.411ZM304.645 321.794L313.356 331.882C318.763 327.212 319.527 319.11 315.088 313.512L304.645 321.794ZM303.416 320.245L313.859 311.963C311.555 309.058 308.144 307.244 304.447 306.957C300.75 306.67 297.101 307.936 294.376 310.451L303.416 320.245ZM259.507 360.777L250.467 350.983C245.121 355.917 244.72 364.227 249.565 369.654C254.411 375.081 262.713 375.619 268.219 370.864L259.507 360.777ZM228.415 129.632L221.771 141.186C227.721 144.607 235.296 142.951 239.275 137.359C243.254 131.767 242.336 124.068 237.154 119.568L228.415 129.632ZM223.445 126.774H210.117C210.117 131.544 212.666 135.951 216.801 138.328L223.445 126.774ZM223.445 125.316L232.184 115.252C228.242 111.829 222.665 111.023 217.915 113.189C213.165 115.355 210.117 120.095 210.117 125.316H223.445ZM185.133 76.5632L183.279 133.119L209.921 133.993L211.776 77.4368L185.133 76.5632ZM292.074 118.252L205.372 65.6072L191.537 88.3928L278.238 141.037L292.074 118.252ZM360.212 84.986L280.169 117.284L290.143 142.005L370.187 109.706L360.212 84.986ZM422.007 182.749L377.162 91.469L353.237 103.223L398.081 194.503L422.007 182.749ZM411.151 201.997L412.658 201.696L407.43 175.556L405.923 175.858L411.151 201.997ZM422.659 184.06L417.82 179.363L399.254 198.492L404.093 203.189L422.659 184.06ZM475.895 192.203L415.92 180.541L410.832 206.708L470.807 218.37L475.895 192.203ZM471.714 192.059L471.71 192.059L474.993 218.513L474.997 218.513L471.714 192.059ZM483.345 214.11L483.346 214.109L463.365 196.463L463.364 196.464L483.345 214.11ZM449.349 274.648L484.949 211.861L461.76 198.713L426.16 261.5L449.349 274.648ZM456.618 318.819L451.006 266.649L424.502 269.5L430.114 321.67L456.618 318.819ZM385.914 307.807L437.666 332.292L449.067 308.196L397.314 283.711L385.914 307.807ZM381.212 287.421L381.054 287.626L402.174 303.891L402.332 303.686L381.212 287.421ZM387.768 308.386L389.488 308.685L394.056 282.422L392.335 282.123L387.768 308.386ZM423.313 327.015L401.655 288.696L378.448 301.813L400.107 340.132L423.313 327.015ZM423.945 338.899L424.169 338.308L399.251 328.839L399.026 329.43L423.945 338.899ZM418.06 322.567L417.836 322.446L405.135 345.883L405.359 346.004L418.06 322.567ZM393.151 423.153L424.215 338.896L399.203 329.675L368.14 413.931L393.151 423.153ZM296.755 371.582L372.585 429.157L388.705 407.927L312.875 350.351L296.755 371.582ZM252.113 428.293L313.901 370.718L295.728 351.216L233.941 408.791L252.113 428.293ZM166.965 371.102L234.37 428.677L251.684 408.407L184.279 350.832L166.965 371.102ZM96.2585 396.299L179.11 373.831L172.133 348.103L89.2815 370.571L96.2585 396.299ZM91.366 349.22L80.2901 378.755L105.25 388.115L116.326 358.58L91.366 349.22ZM109.263 299.102L91.2938 349.417L116.398 358.383L134.367 308.067L109.263 299.102ZM109.706 316.529L121.386 316.906L122.245 290.263L110.565 289.886L109.706 316.529ZM52.7269 331.737L113.456 316.116L106.815 290.3L46.0861 305.921L52.7269 331.737ZM65.2378 258.903L37.5537 312.733L61.2594 324.925L88.9436 271.095L65.2378 258.903ZM28.418 202.061L65.3303 271.271L88.8511 258.727L51.9389 189.516L28.418 202.061ZM45.3686 183.493L44.7194 183.257L35.6376 208.319L36.2868 208.555L45.3686 183.493ZM30.2009 204.128L30.8502 204.861L50.8053 187.186L50.156 186.453L30.2009 204.128ZM126.448 190.356L41.4789 182.026L38.878 208.556L123.847 216.886L126.448 190.356ZM120.351 187.802L114.485 195.624L135.81 211.618L141.677 203.796L120.351 187.802ZM136.567 208.28L138.968 206.494L123.061 185.104L120.659 186.889L136.567 208.28ZM62.9649 156.924L119.745 207.534L137.482 187.635L80.7021 137.025L62.9649 156.924ZM122.883 123.002L69.1799 133.913L74.4871 160.036L128.191 149.126L122.883 123.002ZM175.792 84.4244L117.87 125.162L133.205 146.966L191.127 106.229L175.792 84.4244ZM196.788 113.653V95.3266H170.131V113.653H196.788ZM201.528 136.031L196.529 111.039L170.39 116.267L175.388 141.258L201.528 136.031ZM189.536 122.253L181.394 127.342L195.522 149.947L203.664 144.858L189.536 122.253ZM108.172 169.654H111.234V142.997H108.172V169.654ZM134.369 159.92L116.393 145.834L99.9515 166.817L117.927 180.902L134.369 159.92ZM102.082 166.016L116.996 180.101L135.299 160.721L120.385 146.636L102.082 166.016ZM315.088 313.512L313.859 311.963L292.973 328.528L294.202 330.077L315.088 313.512ZM268.219 370.864L313.356 331.882L295.933 311.707L250.795 350.689L268.219 370.864ZM294.376 310.451L250.467 350.983L268.548 370.57L312.457 330.039L294.376 310.451ZM235.059 118.077L230.089 115.219L216.801 138.328L221.771 141.186L235.059 118.077ZM214.706 135.379L219.676 139.695L237.154 119.568L232.184 115.252L214.706 135.379ZM236.774 126.774V125.316H210.117V126.774H236.774Z" fill="white" mask="url(#path-1-outside-1_39_96)"/>
<path d="M109.785 151.993C108.797 152.103 107.91 152.648 107.365 153.48C106.821 154.312 106.676 155.343 106.971 156.293L120.478 199.815L40.5036 191.974C39.1398 191.841 37.8332 192.555 37.2104 193.776C36.5876 194.997 36.7755 196.474 37.6841 197.5L87.9061 254.202L67.127 300.555C66.6726 301.569 66.7532 302.742 67.3419 303.684C67.9306 304.626 68.9499 305.213 70.0601 305.249L117.14 306.768L93.6866 372.438C93.2459 373.672 93.5692 375.05 94.513 375.959C95.4567 376.868 96.8455 377.14 98.0621 376.653L187.81 340.754L236.257 382.741C237.54 383.853 239.453 383.823 240.7 382.672L303.037 325.13L377.444 418.947C378.189 419.886 379.381 420.353 380.565 420.17C381.749 419.986 382.744 419.181 383.17 418.06L414.825 334.757C415.177 333.831 415.098 332.797 414.611 331.934L396.416 299.743L427.8 305.201C428.769 305.37 429.763 305.102 430.516 304.469C431.268 303.835 431.703 302.902 431.703 301.919V264.735L475.993 207.322C476.699 206.407 476.88 205.192 476.472 204.111C476.064 203.029 475.125 202.237 473.99 202.016L414.985 190.543L359.051 136.253C358.193 135.421 356.954 135.111 355.805 135.443L282.192 156.709L216.776 119.095C215.709 118.482 214.392 118.506 213.349 119.158L190.78 133.264L185.061 104.67C184.813 103.432 183.887 102.44 182.669 102.108C181.45 101.776 180.149 102.162 179.308 103.104L138.506 148.802L109.785 151.993Z" fill="#FFF9DB" stroke="black" stroke-width="6.66425" stroke-linecap="round" stroke-linejoin="round"/>
<path d="M205.685 229.05C207.168 229.05 208.509 229.366 209.708 229.997C210.939 230.628 211.901 231.528 212.596 232.695C213.322 233.831 213.684 235.125 213.684 236.577C213.621 237.397 213.479 238.139 213.258 238.802L198.205 291.487C197.416 294.17 195.917 296.331 193.708 297.972C191.499 299.613 188.754 300.434 185.472 300.434C182.253 300.434 179.634 299.645 177.614 298.067C175.626 296.458 174.222 294.296 173.401 291.582L169.377 278.375L163.602 291.819C162.498 294.47 160.92 296.568 158.869 298.114C156.817 299.661 154.309 300.434 151.342 300.434C148.281 300.434 145.646 299.645 143.437 298.067C141.26 296.489 139.729 294.406 138.845 291.819L120.81 239.133C120.495 238.155 120.321 237.287 120.289 236.53C120.289 235.109 120.637 233.831 121.331 232.695C122.057 231.528 123.035 230.628 124.266 229.997C125.496 229.366 126.853 229.05 128.337 229.05C130.072 229.082 131.603 229.508 132.928 230.328C134.254 231.149 135.169 232.301 135.674 233.784L151.674 280.837L162.088 258.352C162.372 257.721 162.64 257.247 162.892 256.932L157.165 238.044C156.944 237.161 156.833 236.435 156.833 235.867C156.833 234.541 157.165 233.358 157.827 232.317C158.49 231.275 159.389 230.471 160.526 229.902C161.662 229.334 162.908 229.05 164.265 229.05C165.969 229.05 167.437 229.461 168.667 230.281C169.93 231.07 170.782 232.19 171.224 233.642L185.093 281.073L198.016 234.21C198.458 232.569 199.373 231.307 200.762 230.423C202.15 229.508 203.791 229.05 205.685 229.05Z" fill="#99E9F2"/>
<path d="M252.784 300.481C245.684 300.481 239.436 298.998 234.039 296.032C228.643 293.034 224.461 288.805 221.495 283.345C218.56 277.886 217.093 271.559 217.093 264.363C217.093 257.231 218.56 250.951 221.495 245.524C224.461 240.064 228.643 235.851 234.039 232.885C239.436 229.887 245.684 228.388 252.784 228.388C259.853 228.388 266.07 229.887 271.435 232.885C276.8 235.851 280.95 240.064 283.885 245.524C286.851 250.951 288.334 257.231 288.334 264.363C288.334 271.559 286.851 277.886 283.885 283.345C280.95 288.805 276.8 293.034 271.435 296.032C266.07 298.998 259.853 300.481 252.784 300.481ZM252.784 286.044C256.634 286.044 260.011 285.176 262.914 283.44C265.818 281.673 268.058 279.164 269.636 275.914C271.246 272.632 272.05 268.782 272.05 264.363C272.05 259.977 271.246 256.174 269.636 252.955C268.058 249.705 265.818 247.212 262.914 245.476C260.011 243.709 256.634 242.825 252.784 242.825C248.903 242.825 245.495 243.709 242.56 245.476C239.656 247.212 237.4 249.705 235.791 252.955C234.181 256.174 233.376 259.977 233.376 264.363C233.376 268.782 234.165 272.632 235.743 275.914C237.353 279.164 239.625 281.673 242.56 283.44C245.495 285.176 248.903 286.044 252.784 286.044Z" fill="#99E9F2"/>
<path d="M374.865 229.05C376.349 229.05 377.69 229.366 378.889 229.997C380.12 230.628 381.082 231.528 381.777 232.695C382.502 233.831 382.865 235.125 382.865 236.577C382.802 237.397 382.66 238.139 382.439 238.802L367.386 291.487C366.597 294.17 365.098 296.331 362.889 297.972C360.68 299.613 357.935 300.434 354.653 300.434C351.434 300.434 348.815 299.645 346.795 298.067C344.807 296.458 343.402 294.296 342.582 291.582L338.558 278.375L332.783 291.819C331.679 294.47 330.101 296.568 328.05 298.114C325.998 299.661 323.489 300.434 320.523 300.434C317.462 300.434 314.827 299.645 312.618 298.067C310.44 296.489 308.91 294.406 308.026 291.819L289.991 239.133C289.675 238.155 289.502 237.287 289.47 236.53C289.47 235.109 289.817 233.831 290.512 232.695C291.238 231.528 292.216 230.628 293.447 229.997C294.677 229.366 296.034 229.05 297.517 229.05C299.253 229.082 300.784 229.508 302.109 230.328C303.435 231.149 304.35 232.301 304.855 233.784L320.854 280.837L331.268 258.352C331.552 257.721 331.821 257.247 332.073 256.932L326.345 238.044C326.125 237.161 326.014 236.435 326.014 235.867C326.014 234.541 326.345 233.358 327.008 232.317C327.671 231.275 328.57 230.471 329.706 229.902C330.842 229.334 332.089 229.05 333.446 229.05C335.15 229.05 336.617 229.461 337.848 230.281C339.111 231.07 339.963 232.19 340.404 233.642L354.274 281.073L367.197 234.21C367.639 232.569 368.554 231.307 369.942 230.423C371.331 229.508 372.972 229.05 374.865 229.05Z" fill="#99E9F2"/>
<path fill-rule="evenodd" clip-rule="evenodd" d="M171.224 233.639L185.094 281.07L198.017 234.207C198.459 232.566 199.374 231.304 200.762 230.42C202.151 229.505 203.792 229.048 205.685 229.048C207.168 229.048 208.51 229.363 209.709 229.994C210.94 230.625 211.902 231.525 212.596 232.692C213.322 233.829 213.685 235.122 213.685 236.574C213.622 237.395 213.48 238.136 213.259 238.799L198.206 291.484C197.417 294.167 195.918 296.329 193.709 297.97C192.046 299.205 190.079 299.975 187.807 300.281C187.062 300.381 186.284 300.431 185.473 300.431C184.471 300.431 183.528 300.355 182.642 300.202C180.682 299.864 179.006 299.151 177.615 298.064C175.627 296.455 174.222 294.293 173.402 291.579L169.378 278.372L163.603 291.816C162.499 294.467 160.921 296.565 158.869 298.112C156.818 299.658 154.309 300.431 151.343 300.431C151.265 300.431 151.187 300.431 151.109 300.43C150.791 300.425 150.477 300.412 150.167 300.391C147.602 300.212 145.359 299.436 143.438 298.064C141.26 296.486 139.73 294.404 138.846 291.816L120.811 239.13C120.495 238.152 120.322 237.284 120.29 236.527C120.29 235.107 120.637 233.829 121.332 232.692C122.057 231.525 123.036 230.625 124.266 229.994C125.497 229.363 126.854 229.048 128.337 229.048C130.073 229.079 131.604 229.505 132.929 230.326C134.254 231.146 135.17 232.298 135.675 233.781L151.674 280.834L162.088 258.349C162.372 257.718 162.641 257.244 162.893 256.929L157.165 238.042C156.944 237.158 156.834 236.432 156.834 235.864C156.834 234.539 157.165 233.355 157.828 232.314C158.491 231.272 159.39 230.468 160.526 229.9C161.662 229.332 162.909 229.048 164.266 229.048C165.97 229.048 167.437 229.458 168.668 230.278C169.93 231.067 170.782 232.188 171.224 233.639ZM172.858 223.79C175.683 225.588 177.65 228.229 178.612 231.391L178.625 231.431L184.876 252.809L190.567 232.173C191.49 228.767 193.526 225.889 196.563 223.939C199.369 222.105 202.516 221.325 205.685 221.325C208.288 221.325 210.869 221.886 213.269 223.141C215.715 224.404 217.731 226.263 219.171 228.64C220.069 230.072 220.682 231.598 221.036 233.172C223.718 230.401 226.812 228.044 230.305 226.122C237.007 222.403 244.578 220.662 252.785 220.662C260.966 220.662 268.512 222.405 275.187 226.132C277.906 227.636 280.381 229.407 282.604 231.434C282.94 230.483 283.378 229.557 283.923 228.665L283.938 228.64L283.954 228.615C285.424 226.251 287.454 224.389 289.923 223.122C292.323 221.892 294.9 221.325 297.518 221.325H297.588L297.659 221.326C300.621 221.38 303.538 222.127 306.175 223.759C309.03 225.527 311.088 228.124 312.166 231.292L321.956 260.082L323.771 256.162L318.9 240.1L318.854 239.915C318.56 238.739 318.292 237.325 318.292 235.864C318.292 233.183 318.984 230.54 320.493 228.168C321.93 225.91 323.903 224.167 326.253 222.992C328.534 221.852 330.975 221.325 333.447 221.325C336.402 221.325 339.379 222.046 342.039 223.791C344.864 225.588 346.831 228.229 347.793 231.391L347.806 231.431L354.057 252.809L359.74 232.2C359.743 232.19 359.745 232.181 359.748 232.172C360.672 228.766 362.708 225.889 365.744 223.939C368.55 222.105 371.697 221.325 374.866 221.325C377.469 221.325 380.051 221.886 382.451 223.142C384.896 224.404 386.912 226.263 388.352 228.64C389.886 231.086 390.589 233.807 390.589 236.574V236.871L390.566 237.166C390.468 238.446 390.241 239.757 389.828 241.053L374.804 293.635L374.796 293.664C373.542 297.927 371.074 301.511 367.495 304.169C363.758 306.946 359.371 308.126 354.817 308.153L354.493 309.332L354.147 308.149C349.829 308.067 345.596 306.927 342.041 304.15L341.988 304.109L341.936 304.067C340.177 302.643 338.731 300.981 337.578 299.133C336.253 301.086 334.633 302.821 332.699 304.278C329.107 306.986 324.897 308.154 320.524 308.154C316.067 308.154 311.813 306.979 308.13 304.349L308.108 304.333L308.087 304.318C304.595 301.787 302.108 298.381 300.718 294.311L294.659 276.61C293.773 280.266 292.455 283.743 290.679 287.016C287.053 293.752 281.859 299.051 275.203 302.77L275.173 302.787C268.499 306.477 260.959 308.201 252.785 308.201C244.585 308.201 237.02 306.48 230.32 302.796L230.289 302.78C223.602 299.065 218.372 293.769 214.71 287.03L214.693 286.999C212.854 283.577 211.512 279.932 210.635 276.093L205.623 293.635L205.615 293.664C204.361 297.927 201.893 301.511 198.314 304.169C194.577 306.946 190.19 308.126 185.637 308.153L185.312 309.332L184.966 308.149C180.648 308.067 176.415 306.927 172.86 304.15L172.808 304.109L172.756 304.067C170.997 302.643 169.55 300.981 168.397 299.133C167.072 301.086 165.452 302.821 163.518 304.278C159.927 306.986 155.716 308.154 151.343 308.154C146.886 308.154 142.632 306.979 138.949 304.349L138.928 304.333L138.906 304.318C135.416 301.788 132.93 298.384 131.54 294.317M131.538 294.311L113.482 241.566L113.461 241.501C113.002 240.078 112.643 238.499 112.574 236.848L112.567 236.688V236.527C112.567 233.784 113.257 231.095 114.742 228.665L114.757 228.64L114.773 228.615C116.243 226.251 118.273 224.389 120.742 223.122C123.142 221.892 125.719 221.325 128.337 221.325H128.408L128.478 221.326C131.44 221.38 134.357 222.127 136.994 223.759C139.85 225.527 141.907 228.124 142.985 231.292L152.775 260.082L154.59 256.162L149.719 240.1L149.673 239.915C149.379 238.739 149.111 237.325 149.111 235.864C149.111 233.183 149.803 230.54 151.313 228.168C152.749 225.91 154.723 224.167 157.072 222.992C159.354 221.852 161.794 221.325 164.266 221.325C167.221 221.325 170.198 222.046 172.858 223.79M287.558 255.866C286.889 252.401 285.788 249.184 284.254 246.215C284.134 245.982 284.011 245.751 283.885 245.521C280.95 240.061 276.801 235.848 271.436 232.882C266.071 229.884 259.854 228.385 252.785 228.385C245.685 228.385 239.436 229.884 234.04 232.882C228.643 235.848 224.462 240.061 221.496 245.521C218.561 250.949 217.093 257.229 217.093 264.361C217.093 271.556 218.561 277.883 221.496 283.343C224.462 288.802 228.643 293.031 234.04 296.029C239.436 298.995 245.685 300.478 252.785 300.478C259.854 300.478 266.071 298.995 271.436 296.029C276.801 293.031 280.95 288.802 283.885 283.343C286.852 277.883 288.335 271.556 288.335 264.361C288.335 261.38 288.076 258.549 287.558 255.866ZM242.56 245.473C239.657 247.209 237.401 249.702 235.791 252.953C234.182 256.171 233.377 259.974 233.377 264.361C233.377 268.779 234.166 272.629 235.744 275.911C237.353 279.161 239.626 281.67 242.56 283.437C245.495 285.173 248.904 286.041 252.785 286.041C256.635 286.041 260.012 285.173 262.915 283.437C265.818 281.67 268.059 279.161 269.637 275.911C271.246 272.629 272.051 268.779 272.051 264.361C272.051 259.974 271.246 256.171 269.637 252.953C268.059 249.702 265.818 247.209 262.915 245.473C260.012 243.706 256.635 242.823 252.785 242.823C248.904 242.823 245.495 243.706 242.56 245.473ZM308.027 291.816C308.91 294.404 310.441 296.486 312.619 298.064C314.54 299.436 316.783 300.212 319.348 300.391C319.658 300.412 319.971 300.425 320.29 300.43C320.368 300.431 320.446 300.431 320.524 300.431C323.49 300.431 325.999 299.658 328.05 298.112C330.102 296.565 331.679 294.467 332.784 291.816L338.559 278.372L342.583 291.579C343.403 294.293 344.807 296.455 346.796 298.064C348.187 299.151 349.863 299.864 351.823 300.202C352.708 300.355 353.652 300.431 354.653 300.431C355.464 300.431 356.243 300.381 356.988 300.281C359.26 299.975 361.227 299.205 362.89 297.97C365.099 296.329 366.598 294.167 367.387 291.484L382.44 238.799C382.661 238.136 382.803 237.395 382.866 236.574C382.866 235.122 382.503 233.829 381.777 232.692C381.083 231.525 380.12 230.625 378.89 229.994C377.691 229.363 376.349 229.048 374.866 229.048C372.973 229.048 371.332 229.505 369.943 230.42C368.555 231.304 367.639 232.566 367.198 234.207L354.275 281.07L340.405 233.639C339.963 232.188 339.111 231.067 337.849 230.278C336.618 229.458 335.151 229.048 333.447 229.048C332.09 229.048 330.843 229.332 329.707 229.9C328.571 230.468 327.672 231.272 327.009 232.314C326.346 233.355 326.015 234.539 326.015 235.864C326.015 236.432 326.125 237.158 326.346 238.042L332.074 256.929C331.821 257.244 331.553 257.718 331.269 258.349L320.855 280.834L304.855 233.781C304.35 232.298 303.435 231.146 302.11 230.326C300.784 229.505 299.254 229.079 297.518 229.048C296.035 229.048 294.678 229.363 293.447 229.994C292.216 230.625 291.238 231.525 290.512 232.692C289.818 233.829 289.471 235.107 289.471 236.527C289.503 237.284 289.676 238.152 289.992 239.13L308.027 291.816ZM262.709 256.366L262.69 256.325C261.721 254.331 260.476 253.013 258.952 252.102L258.926 252.086L258.9 252.07C257.361 251.133 255.411 250.545 252.785 250.545C250.116 250.545 248.123 251.139 246.544 252.089L246.523 252.102C244.986 253.021 243.713 254.358 242.712 256.379L242.699 256.406C241.73 258.343 241.1 260.915 241.1 264.361C241.1 267.84 241.716 270.49 242.685 272.524C243.672 274.501 244.945 275.852 246.518 276.805C248.101 277.735 250.106 278.318 252.785 278.318C255.422 278.318 257.383 277.74 258.926 276.824C260.47 275.878 261.722 274.531 262.69 272.538L262.703 272.51C263.696 270.485 264.328 267.843 264.328 264.361C264.328 260.915 263.698 258.343 262.73 256.406L262.709 256.366Z" fill="black"/>
<path d="M191.792 178.521C191.741 180.07 192.766 181.45 194.264 181.849C195.762 182.249 197.337 181.562 198.065 180.193L224.423 130.578L273.141 172.884C274.042 173.666 275.292 173.907 276.418 173.516L343.348 150.296L387.799 191.081C388.413 191.645 389.217 191.958 390.051 191.958H410.044C411.195 191.958 412.264 191.365 412.872 190.388C413.481 189.411 413.542 188.19 413.035 187.157L368.19 95.8769C367.42 94.3099 365.572 93.6028 363.953 94.2561L285.458 125.929L200.184 74.1518C199.172 73.5372 197.909 73.506 196.868 74.0697C195.827 74.6334 195.163 75.7073 195.124 76.8908L191.792 178.521Z" fill="#5C7CFA" stroke="black" stroke-width="6.66425" stroke-linecap="round" stroke-linejoin="round"/>
<path d="M148.472 178.63L160.135 200.289" stroke="#FFA26D" stroke-width="6.66425" stroke-linecap="round" stroke-linejoin="round"/>
<path d="M414.836 335.439C415.413 333.873 414.742 332.121 413.266 331.341C411.79 330.561 409.964 330.993 408.996 332.353L375.504 379.353L307.015 319.146C305.765 318.047 303.896 318.039 302.637 319.126L242.897 370.72L191.686 331.638C190.745 330.919 189.493 330.755 188.398 331.205L124.86 357.327L121.809 306.716C121.713 305.124 120.502 303.823 118.921 303.613C117.34 303.403 115.832 304.343 115.324 305.855L89.6114 382.375C89.2198 383.54 89.5018 384.827 90.345 385.721C91.1882 386.616 92.4555 386.974 93.6421 386.652L174.796 364.644L240.863 421.077C242.151 422.177 244.059 422.136 245.299 420.981L305.034 365.318L378.63 421.197C379.472 421.835 380.566 422.037 381.579 421.741C382.593 421.445 383.406 420.686 383.772 419.696L414.836 335.439Z" fill="#5C7CFA" stroke="black" stroke-width="6.66425" stroke-linecap="round" stroke-linejoin="round"/>
<path d="M185.778 177.278C186.656 178.466 188.211 178.934 189.599 178.428C190.986 177.923 191.876 176.564 191.783 175.09L186.785 95.1188C186.71 93.9147 185.99 92.8453 184.902 92.323C183.815 91.8007 182.53 91.9071 181.543 92.6011L124.19 132.938L71.1701 143.709C69.9339 143.96 68.9455 144.888 68.6166 146.106C68.2877 147.324 68.6747 148.623 69.6163 149.462L126.396 200.072C127.587 201.134 129.364 201.202 130.633 200.234C131.902 199.267 132.307 197.535 131.599 196.105L113.542 159.658H138.126C138.936 159.658 139.718 159.363 140.326 158.828L159.611 141.875L185.778 177.278Z" fill="#BAC8FF" stroke="black" stroke-width="6.66425" stroke-linecap="round" stroke-linejoin="round"/>
<path d="M40.4294 192.466C39.2175 192.374 38.0519 192.95 37.3878 193.968C36.7237 194.986 36.6664 196.284 37.2384 197.357L73.3293 265.027L46.4433 317.305C45.8432 318.472 45.9838 319.883 46.8026 320.908C47.6213 321.934 48.9657 322.383 50.2366 322.056L115.981 305.145C117.607 304.727 118.668 303.165 118.457 301.499C118.246 299.834 116.83 298.586 115.151 298.586H79.6537L102.389 263.754C103.112 262.645 103.111 261.213 102.385 260.106L72.3789 214.329L122.412 205.233C124.061 204.933 125.231 203.454 125.143 201.78C125.056 200.106 123.738 198.758 122.066 198.631L40.4294 192.466Z" fill="#7CA0FF" stroke="black" stroke-width="6.66425" stroke-linecap="round" stroke-linejoin="round"/>
<path d="M398.307 211.298C396.859 211.479 395.697 212.581 395.44 214.017C395.183 215.454 395.891 216.891 397.186 217.562L434.995 237.161L416.64 261.451C416.088 262.181 415.861 263.106 416.011 264.008L420.294 289.702L391.301 292.441C389.807 292.582 388.592 293.705 388.332 295.182C388.073 296.66 388.833 298.129 390.189 298.771L441.941 323.256C443.031 323.772 444.314 323.659 445.297 322.96C446.28 322.261 446.808 321.087 446.679 319.888L441.182 268.785L476.254 206.929C476.876 205.833 476.826 204.48 476.125 203.433C475.424 202.386 474.193 201.823 472.943 201.979L398.307 211.298Z" fill="#BAC8FF" stroke="black" stroke-width="6.66425" stroke-linecap="round" stroke-linejoin="round"/>
<path d="M185.126 206.953L181.794 191.958" stroke="#7BB8FF" stroke-width="6.66425" stroke-linecap="round" stroke-linejoin="round"/>
<path d="M331.74 206.953L341.736 173.631" stroke="#FFA26D" stroke-width="6.66425" stroke-linecap="round" stroke-linejoin="round"/>
<path d="M351.732 211.951L363.395 201.955" stroke="#7BB8FF" stroke-width="6.66425" stroke-linecap="round" stroke-linejoin="round"/>
<path d="M158.469 318.579L143.475 331.908" stroke="#FFA26D" stroke-width="6.66425" stroke-linecap="round" stroke-linejoin="round"/>
<path d="M360.063 320.245L375.057 343.57" stroke="#7BB8FF" stroke-width="6.66425" stroke-linecap="round" stroke-linejoin="round"/>
<path d="M211.783 313.581L215.115 328.575" stroke="#FFA26D" stroke-width="6.66425" stroke-linecap="round" stroke-linejoin="round"/>
<path d="M230.11 313.581L240.106 340.238" stroke="#7BB8FF" stroke-width="6.66425" stroke-linecap="round" stroke-linejoin="round"/>
<path d="M250.103 205.287L256.767 180.296" stroke="#FFA26D" stroke-width="6.66425" stroke-linecap="round" stroke-linejoin="round"/>
<path d="M305.083 205.287L308.415 186.96" stroke="#A7AAFF" stroke-width="6.66425" stroke-linecap="round" stroke-linejoin="round"/>
</svg>
