<svg width="512" height="512" viewBox="0 0 512 512" fill="none" xmlns="http://www.w3.org/2000/svg">
<path fill-rule="evenodd" clip-rule="evenodd" d="M391.498 82.0427C369.21 99.0863 352.543 125.497 340.826 147.89C339.821 148.366 338.874 148.889 337.99 149.457C308.631 105.418 229.728 120.098 216.883 142.117C210.937 140.368 205.29 139.136 199.941 138.353C200.786 121.199 197.118 105.818 183.756 103.495C170.195 101.138 170.655 119.402 172.088 127.616C169.795 114.474 131.532 98.9137 133.189 122.082C133.895 131.95 140.797 139.263 150.161 146.088C133.298 155.688 125.136 170.975 125.136 180.651C124.31 180.527 123.391 180.451 122.392 180.429C109.82 161.881 88.6818 139.437 68.3352 128.792L55.2934 148.958C68.4681 151.79 90.5675 165.319 108.821 182.622C105.528 183.672 102.104 185.129 98.7542 187.061C92.3667 182.547 83.6991 177.789 74.2776 175.654C71.785 175.089 69.3153 176.692 68.7613 179.233C68.2074 181.775 69.7791 184.293 72.2717 184.858C79.0408 186.391 85.4788 189.596 90.6611 192.909C83.2695 199.543 77.2964 209.22 75.5921 222.855C72.2687 249.442 87.4959 260.922 99.2614 269.792L99.2642 269.794C101.302 271.33 103.236 272.788 104.951 274.233C104.7 278.005 104.908 282.676 105.819 287.82C100.227 287.242 94.5758 287.013 89.0451 287.093C72.7571 287.33 56.7559 290.261 45.7004 295.528C42.9557 296.835 41.7906 300.12 43.0982 302.865C44.4057 305.61 47.6907 306.775 50.4354 305.467C59.5643 301.118 73.8397 298.325 89.2047 298.102C95.8145 298.006 102.485 298.389 108.887 299.279C112.491 309.244 118.863 319.749 129.369 328.385C116.505 331.06 101.898 336.351 88.6856 346.557L94.5574 362.505C101.441 354.782 119.086 341.022 138.381 334.672C144.945 338.541 152.7 341.747 161.835 343.961C168.56 345.591 175.009 346.569 181.174 347.017C141.729 368.392 119.785 402.132 112.291 422.643L174.187 422.643C181.84 405.705 209.902 371.829 260.922 371.829C311.943 371.829 337.453 405.705 343.83 422.643L413.222 422.643C406.673 404.718 389.089 376.691 358.433 355.642C365.138 353.438 370.547 350.141 374.798 346.165C389.214 348.498 410.627 357.28 426.289 381.485C427.941 384.037 431.349 384.768 433.901 383.116C436.454 381.464 437.184 378.056 435.532 375.504C419.839 351.25 398.814 340.487 382.341 336.476C386.165 329.56 387.753 321.845 387.533 314.602C393.789 318.077 408.932 317.603 423.536 310.149C440.167 312.983 457.605 312.925 460.935 303.759C463.767 295.962 448.948 295.208 442.199 295.586C451.908 295.042 465.181 277.604 454.041 273.853C468.854 232.102 446.694 209.021 429.737 200.835C440.492 163.79 389.961 142.067 356.938 144.178C372.876 122.9 392.95 103.336 409.847 94.8874L391.498 82.0427ZM260.922 323.777C261.599 324.889 262.456 326.044 263.476 327.227C263.236 327.226 262.997 327.226 262.757 327.226C260.084 327.226 257.45 327.279 254.855 327.383C256.243 326.568 257.551 325.787 258.778 325.054C259.523 324.609 260.237 324.183 260.922 323.777Z" fill="#FDFF9C"/>
<path d="M395.448 319.176C392.435 318.774 389.666 320.892 389.264 323.905C388.863 326.919 390.98 329.688 393.993 330.089C398.284 330.662 405.268 332.057 411.987 334.341C418.963 336.711 424.562 339.682 427.191 342.837C429.137 345.172 432.608 345.488 434.944 343.541C437.28 341.595 437.595 338.124 435.649 335.788C430.938 330.135 422.775 326.378 415.53 323.916C408.028 321.368 400.332 319.827 395.448 319.176Z" fill="#FDFF9C"/>
<path fill-rule="evenodd" clip-rule="evenodd" d="M383.384 71.4323C388.007 67.8965 394.389 67.7621 399.157 71.1001L417.506 83.9447C421.363 86.6441 423.513 91.174 423.168 95.8684C422.822 100.563 420.03 104.729 415.82 106.834C406.284 111.602 394.759 121.147 383.536 133.16C395.287 135.726 407 140.247 416.918 146.55C425.961 152.297 434.266 160.008 439.4 169.907C443.195 177.225 445.054 185.375 444.458 194.043C452.496 199.658 460.464 207.85 465.828 218.943C472.476 232.693 474.588 249.806 469.228 269.956C470.654 272.477 471.371 275.155 471.571 277.709C471.917 282.113 470.766 286.125 469.262 289.362C469.465 289.558 469.665 289.76 469.863 289.97C471.894 292.121 473.642 295.023 474.336 298.632C475.022 302.2 474.501 305.534 473.488 308.32C468.992 320.697 456.307 323.835 448.783 324.72C447.214 324.904 445.603 325.025 443.965 325.091C444.64 325.778 445.289 326.493 445.909 327.237C452.578 335.24 451.497 347.133 443.495 353.802L434.944 343.541C437.279 341.595 437.595 338.124 435.648 335.788C434.329 334.205 432.74 332.771 430.975 331.472C427.923 329.225 424.347 327.384 420.746 325.88C418.994 325.148 417.236 324.496 415.529 323.916C410.526 322.216 405.435 320.965 401.151 320.127C401.02 320.101 400.889 320.076 400.759 320.051C398.775 319.67 396.974 319.38 395.448 319.176C392.435 318.774 389.666 320.891 389.264 323.905C389.238 324.1 389.223 324.294 389.217 324.486C389.152 326.811 390.565 328.903 392.677 329.746C393.091 329.911 393.531 330.028 393.993 330.089C395.382 330.274 397.052 330.546 398.905 330.906C399.046 330.933 399.187 330.961 399.33 330.989C403.103 331.739 407.578 332.845 411.945 334.326C411.959 334.331 411.973 334.336 411.987 334.34C416.61 335.911 420.628 337.746 423.578 339.723C425.079 340.729 426.304 341.772 427.191 342.836C429.137 345.172 432.608 345.487 434.944 343.541L443.495 353.802C441.909 355.123 440.171 356.141 438.35 356.86C441.266 360.335 444.077 364.123 446.746 368.247C452.405 376.993 449.903 388.671 441.157 394.33C432.411 399.989 420.734 397.487 415.075 388.741C407.97 377.761 399.569 370.638 391.55 366.108C409.336 384.261 420.503 403.65 425.768 418.059C427.264 422.155 426.667 426.724 424.168 430.297C421.669 433.871 417.583 436 413.222 436L343.83 436C338.269 435.999 333.29 432.554 331.33 427.349C326.453 414.396 305.182 385.186 260.922 385.186C216.408 385.186 192.421 414.725 186.359 428.142C184.198 432.925 179.436 435.999 174.187 436L112.291 436C107.93 436 103.843 433.871 101.344 430.297C98.8453 426.724 98.2482 422.155 99.7448 418.059C106.215 400.35 121.686 374.936 147.571 353.624C143.976 352.333 140.572 350.884 137.356 349.292C122.584 355.39 109.459 365.86 104.528 371.392C101.406 374.895 96.6753 376.502 92.0657 375.627C87.4562 374.752 83.6438 371.522 82.0227 367.119L76.1509 351.171C74.1359 345.698 75.9046 339.551 80.5201 335.986C88.6102 329.737 97.0999 325.127 105.422 321.735C103.195 318.439 101.288 315.086 99.6658 311.74C96.2804 311.501 92.8378 311.407 89.3979 311.457C75.1528 311.664 62.971 314.29 56.1795 317.526C46.775 322.006 35.5194 318.014 31.0393 308.609C26.5592 299.205 30.5512 287.949 39.9556 283.469C51.8407 277.807 67.4288 274.729 82.9536 273.932C78.7626 270.331 74.3192 265.88 70.6502 260.37C63.9652 250.33 60.2899 237.583 62.338 221.198C63.4537 212.273 66.0863 204.558 69.7451 197.984C69.6032 197.949 69.4614 197.916 69.3198 197.884C59.4622 195.651 53.6415 185.881 55.7105 176.389L68.761 179.233C68.2127 181.749 69.7471 184.242 72.196 184.84C72.221 184.846 72.2461 184.852 72.2713 184.857C74.2353 185.302 76.1714 185.888 78.057 186.576C78.3307 186.676 78.6034 186.778 78.8749 186.882C83.1799 188.533 87.2003 190.697 90.6608 192.909C89.6599 193.807 88.685 194.761 87.7432 195.773C85.6743 197.997 83.7651 200.501 82.0905 203.309C78.8979 208.662 76.5583 215.122 75.5918 222.854C72.2684 249.442 87.4955 260.922 99.2611 269.792L99.2638 269.794C101.302 271.33 103.235 272.788 104.951 274.233C104.949 274.261 104.947 274.29 104.945 274.319C104.741 277.478 104.859 281.262 105.439 285.422C105.549 286.208 105.675 287.008 105.819 287.82C101.281 287.351 96.7044 287.112 92.1848 287.081C91.1346 287.074 90.0875 287.078 89.0447 287.093C75.2593 287.293 61.6793 289.424 51.1292 293.267C49.214 293.964 47.3987 294.718 45.7001 295.528C42.9553 296.835 41.7903 300.12 43.0978 302.865C44.4053 305.609 47.6903 306.775 50.435 305.467C51.9376 304.751 53.5797 304.078 55.3431 303.451C64.2929 300.268 76.3685 298.288 89.2043 298.102C94.381 298.027 99.5949 298.245 104.688 298.771C106.098 298.917 107.499 299.086 108.887 299.279C109.056 299.746 109.231 300.215 109.412 300.684C111.546 306.209 114.543 311.865 118.633 317.245C120.714 319.984 123.079 322.651 125.756 325.193C126.902 326.282 128.106 327.347 129.369 328.385C124.532 329.391 119.449 330.766 114.286 332.634C111.268 333.726 108.222 334.986 105.182 336.438C99.5937 339.109 94.0256 342.431 88.6852 346.556L94.557 362.504C96.9464 359.824 100.632 356.416 105.233 352.843C107.253 351.275 109.449 349.675 111.789 348.091C117.557 344.186 124.201 340.377 131.238 337.375C133.581 336.376 135.968 335.466 138.38 334.672C139.057 335.071 139.746 335.462 140.448 335.846C146.313 339.057 153.077 341.751 160.859 343.719C161.182 343.801 161.507 343.881 161.834 343.961C168.559 345.591 175.009 346.568 181.173 347.016C174.899 350.416 169.068 354.129 163.667 358.052C141.752 373.969 126.926 393.34 118.366 409.286C115.773 414.117 113.756 418.633 112.29 422.643L174.187 422.643C181.84 405.705 209.901 371.829 260.922 371.829C311.942 371.829 337.452 405.705 343.83 422.643L413.222 422.643C411.757 418.633 409.739 414.117 407.146 409.286C399.8 395.6 387.837 379.391 370.739 365.008C366.898 361.777 362.798 358.639 358.433 355.641C363.623 353.936 368.036 351.575 371.737 348.751C372.519 348.154 373.27 347.537 373.989 346.9C374.263 346.658 374.532 346.412 374.797 346.165C376.367 346.419 378.019 346.749 379.737 347.167C392.793 350.345 409.683 358.601 423.201 377.006C424.251 378.437 425.282 379.929 426.289 381.484C427.94 384.037 431.348 384.767 433.901 383.116C436.453 381.464 437.184 378.056 435.532 375.503C434.47 373.862 433.383 372.282 432.275 370.761C424.35 359.889 415.332 352.071 406.343 346.544C402.586 344.235 398.835 342.325 395.17 340.759C394.344 340.406 393.521 340.071 392.705 339.752C389.12 338.353 385.639 337.279 382.34 336.476C382.732 335.768 383.1 335.051 383.446 334.327C384.384 332.36 385.152 330.341 385.76 328.298C386.2 326.819 386.555 325.327 386.83 323.833C386.846 323.751 386.86 323.669 386.875 323.587C387.412 320.57 387.622 317.547 387.533 314.602C389.502 315.696 392.353 316.398 395.79 316.615C397.379 316.715 399.094 316.712 400.905 316.595C406.497 316.233 413.007 314.793 419.579 311.997C419.926 311.85 420.274 311.698 420.621 311.543C421.593 311.108 422.566 310.644 423.536 310.149C440.167 312.983 457.604 312.925 460.934 303.759C461.4 302.476 461.389 301.384 461.014 300.456C459.109 295.744 447.837 295.27 442.198 295.586C447.887 295.267 454.799 289.149 457.308 283.382C459.042 279.395 458.672 275.577 454.338 273.958C454.241 273.922 454.142 273.887 454.041 273.853C454.41 272.814 454.755 271.786 455.079 270.77C467.754 230.962 446.272 208.817 429.737 200.835C438.819 169.552 404.197 149.195 373.322 144.891C368.057 144.157 362.901 143.889 358.089 144.114C357.703 144.132 357.319 144.153 356.938 144.178C358.417 142.203 359.932 140.243 361.476 138.306C363.482 135.79 365.537 133.311 367.63 130.887C377.216 119.784 387.586 109.814 397.511 102.557C401.735 99.4682 405.879 96.8712 409.847 94.8871L391.497 82.0424C374.737 94.8589 361.155 112.972 350.467 130.691C349.256 132.699 348.082 134.702 346.944 136.692C346.694 137.13 346.445 137.568 346.198 138.004C345.338 139.526 344.499 141.039 343.682 142.539C342.792 144.173 341.927 145.792 341.087 147.392C340.999 147.558 340.912 147.724 340.826 147.889C339.821 148.366 338.873 148.888 337.989 149.457C336.811 147.689 335.553 146.016 334.222 144.434C332.868 142.825 331.44 141.31 329.944 139.887C296.285 107.843 228.687 121.881 216.883 142.116C210.936 140.367 205.29 139.135 199.94 138.353C200.786 121.198 197.118 105.818 183.756 103.495C178.657 102.609 175.54 104.638 173.712 107.951C170.678 113.451 171.194 122.49 172.088 127.616C171.228 122.687 165.308 117.417 158.331 113.978C146.708 108.249 132.153 107.603 133.189 122.081C133.59 127.695 135.996 132.481 139.72 136.821C142.543 140.111 146.123 143.145 150.161 146.087C145.862 148.535 142.129 151.352 138.952 154.351C134.706 158.36 131.454 162.695 129.175 166.908C127.77 169.504 126.736 172.054 126.065 174.454C125.673 175.856 125.406 177.206 125.262 178.484C125.178 179.232 125.135 179.956 125.135 180.65C124.31 180.527 123.39 180.451 122.392 180.429C122.207 180.157 122.021 179.885 121.834 179.611C120.463 177.617 118.997 175.581 117.445 173.523C116.466 172.223 115.453 170.914 114.408 169.601C114.208 169.349 114.007 169.097 113.804 168.845C101.314 153.297 84.5726 137.287 68.3349 128.792L55.293 148.958C58.973 149.749 63.3492 151.374 68.1435 153.684C74.701 156.842 82.0404 161.28 89.4496 166.611C92.1244 168.535 94.8082 170.576 97.4677 172.715C99.8793 174.655 102.271 176.675 104.618 178.763C104.628 178.772 104.638 178.781 104.648 178.79C106.057 180.044 107.449 181.322 108.82 182.622C108.487 182.728 108.153 182.838 107.817 182.953C105.82 183.635 103.783 184.467 101.751 185.464C100.749 185.956 99.748 186.487 98.7539 187.06C97.7896 186.379 96.7734 185.692 95.7105 185.009C91.9459 182.592 87.5954 180.228 82.8922 178.356C82.4861 178.194 82.0773 178.036 81.666 177.882C79.3008 176.997 76.8535 176.242 74.3528 175.671C74.3276 175.665 74.3024 175.66 74.2773 175.654C71.7846 175.089 69.3149 176.692 68.761 179.233L55.7105 176.389C56.6596 172.034 59.1405 168.327 62.4997 165.791C58.3758 163.794 54.9622 162.549 52.4864 162.016C48.1951 161.094 44.6308 158.122 42.9519 154.067C41.273 150.012 41.6936 145.39 44.0772 141.704L57.1191 121.538C60.8667 115.743 68.4118 113.757 74.5267 116.956C91.1116 125.633 107.498 140.709 120.32 155.77C122.808 152.072 125.806 148.487 129.268 145.148C124.315 139.263 120.509 132.034 119.866 123.034C119.536 118.423 120.111 113.574 122.368 109.106C124.71 104.471 128.387 101.2 132.562 99.2364C140.203 95.6438 148.673 96.706 154.679 98.3481C157.229 99.0451 159.781 99.9665 162.259 101.07C163.535 98.856 165.244 96.6679 167.543 94.7835C172.897 90.3963 179.527 89.2029 186.043 90.3354C198.475 92.4963 205.892 101.074 209.598 110.453C211.558 115.412 212.624 120.841 213.1 126.313C218.605 121.593 225.463 117.993 232.225 115.344C243.39 110.971 256.867 108.177 270.753 107.667C292.558 106.867 317.936 111.74 336.607 127.878C348.086 108.156 363.489 86.6459 383.384 71.4323ZM262.966 327.226C263.136 327.226 263.306 327.226 263.475 327.227C263.226 326.937 262.986 326.649 262.756 326.363C262.047 325.481 261.433 324.617 260.922 323.777C260.237 324.182 259.522 324.609 258.777 325.054C257.551 325.787 256.243 326.568 254.854 327.383C254.905 327.381 254.956 327.379 255.007 327.377C256.684 327.311 258.376 327.266 260.085 327.243C260.971 327.232 261.861 327.226 262.756 327.226C262.826 327.226 262.896 327.226 262.966 327.226Z" fill="white"/>
<path d="M216.881 142.116C154.493 123.766 125.133 162.3 125.133 180.65C112.9 178.814 79.9936 187.623 75.5898 222.854C71.6905 254.048 93.3276 264.446 104.949 274.232C103.726 292.581 113.39 332.216 161.832 343.96C210.275 355.704 244.405 333.562 260.92 323.776C269.483 337.844 306.793 358.64 337.987 358.64C374.716 358.64 388.142 334.785 387.531 314.601C398.541 320.717 437.075 314.601 451.754 279.737C470.903 234.258 447.472 209.397 429.735 200.834C442.946 155.327 363.677 132.941 337.987 149.456C308.628 105.417 229.725 120.097 216.881 142.116Z" fill="#91A7FF"/>
<path fill-rule="evenodd" clip-rule="evenodd" d="M214.27 134.466C157.416 119.778 124.844 150.554 119.304 173.822C111.832 174.292 102.48 176.871 93.9117 182.172C82.1007 189.479 71.4447 202.168 68.9627 222.025C66.7733 239.539 71.8149 251.756 79.2986 260.822C82.9239 265.213 87.0173 268.744 90.7766 271.707C92.5343 273.092 94.0727 274.249 95.4845 275.31C96.4286 276.02 97.3161 276.687 98.1746 277.352C98.2233 298.976 110.603 338.412 160.259 350.45C206.842 361.743 241.042 343.325 259.261 332.538C261.761 335.275 264.812 337.951 268.157 340.483C273.739 344.708 280.561 348.846 288.044 352.488C302.916 359.725 321.061 365.318 337.987 365.318C357.878 365.318 372.314 358.805 381.658 348.73C388.613 341.232 392.407 332.123 393.708 323.139C395.898 323.372 398.18 323.416 400.465 323.307C406.623 323.012 413.657 321.564 420.74 318.739C434.946 313.073 449.759 301.683 457.909 282.328C468.07 258.196 467.229 238.682 460.694 223.762C455.24 211.311 446.088 202.668 437.353 197.381C439.204 186.006 436.127 175.826 429.992 167.365C423.085 157.84 412.466 150.659 401.094 145.754C389.665 140.825 376.966 137.969 365.318 137.445C356.329 137.041 347.37 138.002 340.014 140.957C322.994 119.983 295.337 113.446 270.996 114.34C257.803 114.824 245.072 117.483 234.658 121.561C226.569 124.73 219.148 129.044 214.27 134.466ZM337.987 149.455C308.628 105.416 229.725 120.096 216.881 142.115C160.888 125.646 131.499 154.997 126.063 174.453C125.442 176.675 125.133 178.768 125.133 180.649C123.311 180.376 121.031 180.338 118.455 180.589C103.731 182.023 79.3376 192.869 75.5895 222.853C72.2662 249.44 87.4933 260.92 99.2589 269.79C101.298 271.327 103.232 272.786 104.949 274.231C103.725 292.581 113.389 332.216 161.832 343.959C208.267 355.216 241.551 335.339 258.775 325.053C259.52 324.608 260.235 324.181 260.919 323.775C269.482 337.843 306.793 358.639 337.987 358.639C370.459 358.639 384.717 339.993 387.163 321.723C387.484 319.328 387.601 316.939 387.531 314.6C389.193 315.524 391.484 316.169 394.226 316.477C409.636 318.213 439.291 309.335 451.754 279.736C470.903 234.257 447.472 209.396 429.734 200.833C442.946 155.327 363.676 132.941 337.987 149.455Z" fill="black"/>
<path d="M196.807 207.52C198.001 209.938 198.444 212.216 198.137 214.354L189.796 276.435L203.579 304.359C204.615 306.458 205.025 308.611 204.808 310.817C204.57 312.978 203.763 314.965 202.388 316.778C201.082 318.615 199.356 320.062 197.212 321.121C195.067 322.179 192.846 322.68 190.548 322.622C188.318 322.588 186.273 322.009 184.413 320.884C182.53 319.714 181.071 318.079 180.035 315.98L166.556 288.672L110.839 257.527C108.887 256.448 107.315 254.699 106.121 252.281C105.063 250.136 104.608 247.892 104.756 245.549C104.95 243.184 105.678 241.037 106.94 239.109C108.224 237.113 109.939 235.586 112.084 234.527C114.228 233.469 116.483 233.094 118.848 233.402C121.19 233.664 123.462 234.415 125.663 235.656L167.009 260.275L171.656 212.954C171.874 210.521 172.591 208.294 173.807 206.275C175.047 204.188 176.727 202.592 178.849 201.488C181.04 200.407 183.318 199.964 185.683 200.158C188.072 200.284 190.241 201.001 192.192 202.308C194.188 203.593 195.726 205.33 196.807 207.52Z" fill="white"/>
<path fill-rule="evenodd" clip-rule="evenodd" d="M104.756 245.549C104.607 247.892 105.062 250.136 106.121 252.281C107.314 254.699 108.887 256.448 110.838 257.528L166.555 288.672L180.034 315.98C181.07 318.079 182.53 319.714 184.412 320.884C186.273 322.009 188.318 322.588 190.547 322.622C192.846 322.68 195.067 322.179 197.211 321.121C199.356 320.062 201.081 318.615 202.388 316.778C203.763 314.965 204.569 312.978 204.808 310.817C205.024 308.611 204.614 306.458 203.578 304.36L189.796 276.435L198.137 214.354C198.444 212.216 198 209.939 196.807 207.52C195.726 205.33 194.187 203.593 192.191 202.308C190.241 201.001 188.072 200.284 185.683 200.158C183.317 199.964 181.039 200.407 178.849 201.488C176.727 202.592 175.046 204.188 173.807 206.275C172.59 208.294 171.873 210.521 171.656 212.955L167.009 260.275L125.663 235.656C123.462 234.416 121.19 233.664 118.848 233.402C116.483 233.094 114.228 233.469 112.083 234.528C109.939 235.586 108.224 237.113 106.94 239.109C105.678 241.037 104.95 243.184 104.756 245.549ZM101.337 235.473C99.456 238.356 98.3817 241.571 98.0999 245.003L98.0948 245.065L98.0909 245.127C97.8669 248.658 98.5665 252.065 100.132 255.237C101.798 258.611 104.225 261.497 107.591 263.363C107.596 263.366 107.601 263.369 107.605 263.371L161.485 293.489L174.046 318.936C175.601 322.087 177.885 324.691 180.887 326.556L180.922 326.578L180.957 326.599C183.848 328.347 187.045 329.243 190.414 329.3C193.826 329.379 197.103 328.622 200.167 327.109C203.21 325.608 205.792 323.484 207.771 320.732C209.803 318.024 211.072 314.934 211.446 311.551L211.451 311.51L211.455 311.468C211.799 307.952 211.122 304.555 209.567 301.404L196.686 275.306L204.752 215.269C205.284 211.51 204.432 207.879 202.795 204.564C201.204 201.34 198.877 198.682 195.858 196.726C192.927 194.775 189.642 193.696 186.132 193.494C182.558 193.219 179.107 193.914 175.893 195.5L175.83 195.531L175.767 195.564C172.53 197.248 169.939 199.716 168.076 202.847C166.329 205.752 165.314 208.943 165.007 212.328L161.39 249.156L129.011 229.877L128.941 229.837C126.033 228.199 122.924 227.147 119.649 226.772C115.994 226.307 112.432 226.908 109.127 228.539C105.914 230.125 103.281 232.462 101.337 235.473Z" fill="black"/>
<path d="M285.249 272.036C287.226 272.203 288.93 272.883 290.361 274.076C291.843 275.274 292.94 276.796 293.652 278.643C294.364 280.491 294.633 282.454 294.457 284.533C294.286 286.561 293.694 288.426 292.683 290.128C291.671 291.83 290.334 293.146 288.672 294.078C287.061 295.015 285.267 295.399 283.29 295.232L230.584 290.782C229.773 290.713 228.871 290.509 227.878 290.17C225.044 289.267 222.764 287.542 221.038 284.997C219.313 282.451 218.578 279.657 218.835 276.615L225.842 193.639C226.219 189.177 227.672 185.879 230.202 183.743C232.731 181.608 236.226 180.729 240.688 181.106L290.795 185.49C293.787 185.743 296.131 187.013 297.827 189.301C299.523 191.589 300.238 194.305 299.973 197.448C299.802 199.476 299.206 201.392 298.186 203.195C297.169 204.948 295.826 206.341 294.156 207.374C292.541 208.361 290.744 208.771 288.767 208.604L251.196 205.432L249.577 224.597L282.433 227.372C285.424 227.624 287.766 228.92 289.458 231.259C291.205 233.551 291.946 236.269 291.68 239.413C291.509 241.441 290.913 243.356 289.893 245.16C288.877 246.912 287.533 248.305 285.863 249.338C284.248 250.325 282.452 250.735 280.474 250.568L247.619 247.794L245.852 268.709L285.249 272.036Z" fill="white"/>
<path fill-rule="evenodd" clip-rule="evenodd" d="M294.154 207.374C292.539 208.361 290.742 208.772 288.765 208.605L251.194 205.432L249.575 224.597L282.431 227.372C285.423 227.625 287.764 228.92 289.456 231.259C291.203 233.551 291.944 236.269 291.678 239.413C291.507 241.441 290.911 243.356 289.891 245.16C288.875 246.912 287.531 248.305 285.861 249.339C284.246 250.326 282.45 250.736 280.472 250.569L247.617 247.794L245.85 268.709L285.247 272.036C287.224 272.203 288.928 272.883 290.359 274.076C291.841 275.274 292.938 276.796 293.65 278.644C294.363 280.491 294.631 282.454 294.455 284.533C294.284 286.561 293.692 288.426 292.681 290.128C291.669 291.83 290.332 293.147 288.67 294.079C287.059 295.015 285.265 295.4 283.288 295.233L230.582 290.782C229.771 290.713 228.869 290.509 227.876 290.17C225.042 289.267 222.762 287.543 221.036 284.997C219.311 282.451 218.576 279.657 218.833 276.615L225.841 193.639C226.217 189.178 227.67 185.879 230.2 183.744C232.729 181.608 236.225 180.729 240.686 181.106L290.793 185.49C293.785 185.743 296.129 187.013 297.825 189.301C299.521 191.589 300.236 194.305 299.971 197.449C299.8 199.477 299.204 201.392 298.184 203.196C297.167 204.948 295.824 206.341 294.154 207.374ZM291.355 178.836C291.359 178.836 291.363 178.836 291.367 178.837C296.147 179.243 300.285 181.406 303.19 185.324C305.961 189.061 307.012 193.435 306.626 198.011C306.372 201.015 305.482 203.859 303.996 206.485L303.979 206.515L303.961 206.545C302.412 209.218 300.303 211.423 297.668 213.054L297.636 213.073C294.748 214.838 291.523 215.54 288.203 215.259L257.287 212.648L256.792 218.505L282.993 220.717C287.806 221.124 291.937 223.334 294.818 227.277C297.63 231.001 298.721 235.377 298.333 239.975C298.079 242.98 297.189 245.823 295.703 248.449L295.686 248.479L295.668 248.51C294.119 251.182 292.01 253.388 289.375 255.018L289.343 255.037C286.455 256.802 283.23 257.504 279.91 257.223L253.709 255.011L253.067 262.616L285.809 265.381C289.041 265.654 292.051 266.806 294.596 268.913C297.006 270.872 298.772 273.361 299.882 276.242C300.977 279.083 301.366 282.064 301.11 285.095C300.856 288.101 299.964 290.945 298.421 293.541C296.843 296.194 294.685 298.352 291.981 299.879C289.118 301.53 285.958 302.16 282.726 301.887L230.02 297.437C228.559 297.313 227.134 296.97 225.785 296.513C221.501 295.133 218.031 292.466 215.508 288.744C212.932 284.943 211.792 280.63 212.179 276.053L219.186 193.077C219.658 187.491 221.586 182.275 225.891 178.641C230.196 175.006 235.661 173.979 241.248 174.451L241.269 174.453L291.355 178.836Z" fill="black"/>
<path d="M336.574 316.874C329.623 314.723 323.515 311.741 318.25 307.928C313 304.066 308.359 299.354 304.328 293.793C303.1 292.081 302.213 290.129 301.667 287.935C301.12 285.742 301.148 283.673 301.749 281.729C302.682 278.715 304.347 276.434 306.744 274.885C309.14 273.337 311.902 272.674 315.029 272.896C315.706 272.945 316.385 273.075 317.066 273.286C318.864 273.843 320.359 274.864 321.55 276.352C324.813 280.61 328.286 284.189 331.97 287.086C335.703 289.999 339.813 292.123 344.3 293.459C349.094 294.836 352.89 295.132 355.69 294.347C358.504 293.513 360.479 291.435 361.614 288.111C362.34 285.938 361.368 283.4 358.697 280.497C356.027 277.593 351.773 274.386 345.935 270.875C334.989 264.078 327.42 256.782 323.227 248.987C319.035 241.191 318.455 233.342 321.486 225.438C323.819 219.448 327.183 214.604 331.577 210.903C336.02 207.218 341.435 204.952 347.822 204.106C354.209 203.26 361.389 204.07 369.361 206.537L371.817 207.377C376.065 208.798 380.17 210.681 384.131 213.025C388.142 215.385 391.854 218.105 395.268 221.186C397.143 223.044 398.477 225.188 399.27 227.617C400.127 230.013 400.14 232.467 399.309 234.98C398.023 238.79 396.085 241.439 393.494 242.927C390.902 244.416 388.246 244.739 385.524 243.897C384.065 243.445 382.712 242.654 381.465 241.522C378.337 239.063 375.533 237.023 373.052 235.403C370.619 233.798 368.275 232.593 366.021 231.789C365.404 231.545 364.512 231.242 363.345 230.881C358.922 229.512 355.305 228.979 352.495 229.281C349.734 229.599 347.849 230.613 346.839 232.325C346.716 232.553 346.586 232.886 346.451 233.323C345.668 235.851 346.943 238.962 350.274 242.656C353.62 246.301 358.791 250.245 365.788 254.487C384.751 265.842 391.849 279.224 387.08 294.633C384.989 301.39 381.608 306.895 376.936 311.148C372.264 315.402 366.48 318.086 359.583 319.201C352.702 320.267 345.032 319.492 336.574 316.874Z" fill="white"/>
<path fill-rule="evenodd" clip-rule="evenodd" d="M314.313 313.322L314.293 313.308C308.457 309.015 303.335 303.802 298.921 297.712L298.902 297.686C297.146 295.239 295.922 292.502 295.186 289.55C294.378 286.308 294.368 282.989 295.369 279.755C296.713 275.412 299.264 271.767 303.119 269.276C306.852 266.864 311.082 265.92 315.502 266.234L315.518 266.235C316.724 266.323 317.9 266.553 319.04 266.906C322.13 267.862 324.748 269.66 326.763 272.177L326.808 272.233L326.851 272.29C329.819 276.164 332.905 279.323 336.089 281.829C339.161 284.224 342.511 285.954 346.174 287.048C350.453 288.274 352.8 288.206 353.847 287.927C354.121 287.843 354.562 287.663 355.027 286.634C354.835 286.299 354.465 285.76 353.781 285.017C351.745 282.803 348.12 279.982 342.493 276.598L342.453 276.573L342.413 276.548C330.897 269.399 322.287 261.338 317.345 252.15C312.28 242.731 311.487 232.857 315.251 223.046L315.263 223.014C317.953 216.109 321.928 210.297 327.275 205.795L327.294 205.779L327.313 205.763C332.833 201.185 339.461 198.477 346.945 197.485C354.527 196.48 362.703 197.485 371.335 200.157L371.429 200.186L373.958 201.051C378.654 202.623 383.178 204.701 387.525 207.273C391.916 209.858 395.991 212.843 399.742 216.227L399.858 216.332L399.97 216.442C402.551 219.001 404.454 222.022 405.59 225.458C406.937 229.288 406.918 233.241 405.649 237.076L405.637 237.115C404.012 241.929 401.25 246.173 396.82 248.718C392.709 251.08 388.138 251.696 383.549 250.276C381.15 249.534 379.022 248.276 377.172 246.643C374.219 244.326 371.632 242.452 369.4 240.995L369.374 240.977C367.295 239.606 365.431 238.669 363.777 238.079L363.669 238.041L363.563 237.999C363.185 237.849 362.485 237.606 361.371 237.261C357.549 236.078 355.004 235.789 353.463 235.899C353.822 236.477 354.376 237.23 355.214 238.161C357.946 241.131 362.5 244.683 369.236 248.768C379.303 254.798 386.912 261.764 391.233 269.91C395.673 278.28 396.332 287.327 393.46 296.607C391.06 304.363 387.087 310.938 381.432 316.086C375.701 321.304 368.685 324.494 360.649 325.794L360.606 325.801C352.487 327.059 343.772 326.092 334.6 323.254C327.034 320.913 320.254 317.625 314.333 313.337L314.313 313.322ZM365.787 254.487C358.791 250.245 353.62 246.301 350.274 242.655C346.943 238.961 345.668 235.851 346.45 233.323C346.586 232.885 346.715 232.553 346.839 232.325C347.848 230.613 349.734 229.598 352.495 229.281C355.305 228.979 358.922 229.512 363.345 230.881C364.512 231.242 365.404 231.545 366.02 231.789C368.275 232.593 370.619 233.798 373.051 235.403C375.533 237.023 378.337 239.063 381.465 241.522C382.712 242.654 384.065 243.445 385.523 243.896C388.246 244.739 390.902 244.416 393.493 242.927C396.085 241.439 398.023 238.789 399.309 234.979C400.139 232.467 400.127 230.013 399.27 227.617C398.477 225.188 397.143 223.044 395.268 221.185C391.854 218.105 388.141 215.385 384.131 213.025C380.169 210.68 376.065 208.798 371.817 207.377L369.361 206.537C361.389 204.07 354.209 203.259 347.822 204.106C341.435 204.952 336.02 207.218 331.577 210.903C327.183 214.603 323.819 219.448 321.486 225.438C318.454 233.341 319.035 241.191 323.227 248.987C327.419 256.782 334.989 264.078 345.935 270.875C351.773 274.386 356.027 277.593 358.697 280.496C361.367 283.4 362.34 285.938 361.614 288.11C360.479 291.434 358.504 293.513 355.69 294.347C352.89 295.131 349.093 294.835 344.3 293.458C339.813 292.123 335.703 289.999 331.97 287.086C328.286 284.188 324.813 280.61 321.55 276.351C320.359 274.864 318.864 273.842 317.066 273.286C316.385 273.075 315.706 272.945 315.029 272.895C311.902 272.673 309.14 273.337 306.743 274.885C304.347 276.434 302.682 278.715 301.749 281.729C301.148 283.673 301.12 285.742 301.666 287.935C302.213 290.128 303.1 292.081 304.328 293.792C308.359 299.354 313 304.066 318.25 307.928C323.515 311.741 329.623 314.723 336.574 316.874C345.032 319.492 352.702 320.267 359.583 319.201C366.48 318.086 372.264 315.402 376.936 311.148C381.608 306.895 384.989 301.39 387.08 294.633C391.849 279.224 384.751 265.842 365.787 254.487Z" fill="black"/>
<path d="M262.754 327.227C170.272 327.227 123.909 390.839 112.288 422.644H137.977C148.987 398.178 189.356 349.246 262.754 349.246C336.152 349.246 372.85 398.178 382.025 422.644H413.219C401.598 390.839 355.235 327.227 262.754 327.227Z" fill="#FF8D8D"/>
<path d="M262.754 341.905C184.501 341.905 145.271 395.73 135.437 422.642H157.174C166.49 401.941 200.648 360.537 262.754 360.537C324.86 360.537 355.913 401.941 363.677 422.642H390.072C380.238 395.73 341.008 341.905 262.754 341.905Z" fill="#FFCD82"/>
<path d="M260.919 356.585C196.633 356.585 164.405 400.624 156.327 422.644H174.184C181.837 405.706 209.898 371.83 260.919 371.83C311.939 371.83 337.45 405.706 343.827 422.644H365.511C357.433 400.624 325.205 356.585 260.919 356.585Z" fill="#FDFF9C"/>
<path fill-rule="evenodd" clip-rule="evenodd" d="M106.815 426.471C105.565 424.684 105.267 422.4 106.015 420.352C118.328 386.654 166.752 320.548 262.754 320.548C358.755 320.548 407.179 386.654 419.492 420.352C420.24 422.4 419.942 424.684 418.692 426.471C417.443 428.258 415.4 429.323 413.219 429.323H382.025C382.001 429.323 381.977 429.322 381.954 429.322L343.827 429.322C341.047 429.322 338.557 427.599 337.577 424.997C331.95 410.052 308.56 378.508 260.919 378.508C213.152 378.508 187.128 410.216 180.27 425.394C179.19 427.785 176.809 429.322 174.184 429.322L138.049 429.322C138.025 429.322 138.001 429.323 137.977 429.323H112.288C110.107 429.323 108.064 428.258 106.815 426.471ZM137.977 422.644L174.184 422.644C181.837 405.706 209.899 371.83 260.919 371.83C311.94 371.83 337.45 405.706 343.827 422.644L382.025 422.644L413.219 422.644C412.453 420.547 411.536 418.312 410.464 415.966C395.284 382.727 349.138 327.227 262.754 327.227C176.37 327.227 130.223 382.727 115.043 415.966C113.971 418.312 113.054 420.547 112.288 422.644L137.977 422.644Z" fill="black"/>
<path d="M154.743 331.378C129.788 332.86 103.364 352.623 94.5566 362.504L88.6848 346.556C112.172 328.414 140.063 325.805 154.743 325.805V331.378Z" fill="#FDFF9C"/>
<path fill-rule="evenodd" clip-rule="evenodd" d="M93.3116 369.066C91.0069 368.628 89.1007 367.013 88.2901 364.812L82.4183 348.864C81.4108 346.127 82.2952 343.053 84.6029 341.271C109.814 321.797 139.487 319.127 154.744 319.127C158.432 319.127 161.422 322.117 161.422 325.805V331.378C161.422 334.913 158.668 337.835 155.14 338.045C144.138 338.698 132.348 343.457 121.978 349.55C111.628 355.631 103.398 362.623 99.5427 366.948C97.9818 368.699 95.6164 369.503 93.3116 369.066ZM154.413 325.806C152.5 325.811 150.372 325.861 148.065 325.983C146.617 326.059 145.098 326.164 143.518 326.304C128.182 327.665 107.083 332.345 88.6855 346.556L94.5573 362.504C95.9076 360.989 97.672 359.242 99.7816 357.364C109.569 348.652 126.787 337.126 144.57 332.917C147.956 332.115 151.363 331.579 154.744 331.378V325.805C154.743 325.805 154.744 325.805 154.744 325.805C154.635 325.805 154.523 325.806 154.413 325.806Z" fill="black"/>
<path fill-rule="evenodd" clip-rule="evenodd" d="M89.2015 298.102C73.8366 298.325 59.5611 301.118 50.4322 305.467C47.6875 306.775 44.4025 305.61 43.095 302.865C41.7875 300.12 42.9525 296.835 45.6972 295.528C56.7527 290.261 72.7539 287.329 89.0419 287.093C105.367 286.857 122.742 289.315 136.548 295.47C139.325 296.707 140.573 299.962 139.335 302.739C138.097 305.516 134.843 306.763 132.066 305.525C120.184 300.229 104.53 297.88 89.2015 298.102Z" fill="#7BB8FF"/>
<path fill-rule="evenodd" clip-rule="evenodd" d="M89.3001 304.78C74.495 304.994 61.2664 307.705 53.3062 311.497C47.2316 314.391 39.9613 311.812 37.0675 305.737C34.1737 299.663 36.7522 292.392 42.8268 289.499C55.051 283.675 72.099 280.66 88.9469 280.416C105.876 280.17 124.295 282.695 139.269 289.37C145.415 292.109 148.176 299.312 145.437 305.458C142.697 311.604 135.495 314.365 129.349 311.626C118.634 306.849 104.024 304.566 89.3001 304.78ZM50.434 305.467C59.5629 301.119 73.8383 298.325 89.2033 298.102C104.531 297.88 120.185 300.229 132.068 305.526C134.845 306.763 138.099 305.516 139.337 302.739C140.575 299.962 139.327 296.708 136.55 295.47C122.743 289.315 105.368 286.857 89.0437 287.094C72.7557 287.33 56.7545 290.261 45.699 295.528C42.9543 296.835 41.7892 300.12 43.0968 302.865C44.4043 305.61 47.6893 306.775 50.434 305.467Z" fill="black"/>
<path d="M126.298 202.254C107.46 176.326 73.1649 152.799 55.2927 148.958L68.3346 128.791C95.8674 143.196 124.849 179.207 132.095 197.933L126.298 202.254Z" fill="#A7AAFF"/>
<path fill-rule="evenodd" clip-rule="evenodd" d="M49.1224 151.513C48.2829 149.485 48.4933 147.174 49.6851 145.331L62.7269 125.165C64.6008 122.268 68.3733 121.275 71.4307 122.874C86.2026 130.603 100.958 143.862 112.831 157.325C124.657 170.733 134.292 185.105 138.324 195.523C139.406 198.32 138.491 201.495 136.087 203.288L130.29 207.609C128.859 208.676 127.06 209.126 125.295 208.857C123.529 208.589 121.945 207.625 120.896 206.18C111.986 193.917 99.254 182.026 86.4974 172.719C73.5774 163.293 61.4466 157.112 53.8896 155.487C51.744 155.026 49.9619 153.54 49.1224 151.513ZM126.299 202.255L132.095 197.933C124.85 179.207 95.8676 143.196 68.3348 128.792L55.293 148.958C57.312 149.392 59.5407 150.077 61.933 150.989C80.1065 157.913 107.723 177.899 124.632 200.02C125.2 200.762 125.756 201.507 126.299 202.255Z" fill="black"/>
<path d="M183.755 103.495C207.436 107.611 200.669 152.739 192.293 176.07C170.65 154.331 134.845 145.249 133.188 122.081C131.531 98.9131 169.794 114.473 172.088 127.616C170.654 119.401 170.194 101.138 183.755 103.495Z" fill="#FF8D8D"/>
<path fill-rule="evenodd" clip-rule="evenodd" d="M193.746 182.589C191.51 183.087 189.176 182.405 187.56 180.782C179.975 173.164 170.714 167.34 161.272 161.403C158.032 159.366 154.771 157.315 151.549 155.174C139.887 147.424 127.612 137.742 126.526 122.558C126.258 118.804 126.754 115.234 128.328 112.117C129.945 108.917 132.468 106.66 135.403 105.28C140.918 102.687 147.503 103.31 152.917 104.79C157.329 105.996 161.784 107.99 165.697 110.454C165.743 110.263 165.791 110.073 165.841 109.884C166.73 106.522 168.426 102.694 171.776 99.949C175.373 97.0008 179.945 96.0543 184.898 96.9152C193.291 98.3739 198.913 103.612 202.241 110.324C205.433 116.764 206.605 124.65 206.723 132.476C206.959 148.19 202.962 166.117 198.579 178.327C197.805 180.482 195.981 182.091 193.746 182.589ZM171.659 114.98C172.504 108.138 175.585 102.075 183.755 103.495C205.22 107.226 201.669 144.654 194.578 169C193.846 171.513 193.077 173.887 192.293 176.07C190.584 174.354 188.787 172.716 186.925 171.144C179.885 165.201 171.924 160.198 164.326 155.423C148.483 145.467 134.219 136.503 133.188 122.081C131.947 104.737 153.08 109.098 164.745 117.9C168.661 120.856 171.511 124.312 172.087 127.616C171.517 124.35 171.101 119.495 171.659 114.98Z" fill="black"/>
<path d="M460.934 303.758C455.987 317.374 419.908 310.89 401.588 304.686C420.665 293.248 430.459 272.82 449.331 273.149C468.203 273.477 452.997 294.98 442.198 295.585C448.947 295.206 463.767 295.96 460.934 303.758Z" fill="#FF8D8D"/>
<path fill-rule="evenodd" clip-rule="evenodd" d="M394.946 305.398C394.669 302.81 395.92 300.297 398.152 298.958C404.663 295.055 409.793 290.172 415.199 285.027C417.095 283.223 419.024 281.386 421.059 279.549C428.454 272.87 437.293 266.26 449.446 266.472C455.111 266.57 460.905 268.316 463.641 273.667C466.171 278.613 464.578 283.878 462.843 287.29C462.136 288.681 461.273 290.041 460.298 291.335C461.948 292.066 463.624 293.09 465.006 294.553C466.296 295.919 467.356 297.704 467.776 299.891C468.193 302.059 467.893 304.158 467.21 306.038C464.91 312.369 459.249 315.482 453.934 316.955C448.553 318.447 442.173 318.688 435.887 318.322C423.237 317.585 409.04 314.261 399.444 311.012C396.979 310.177 395.223 307.986 394.946 305.398ZM455.251 296.63C459.397 297.753 462.339 299.888 460.933 303.758C456.659 315.523 429.141 312.282 409.92 307.181C406.896 306.378 404.077 305.53 401.586 304.686C404.049 303.209 406.358 301.583 408.551 299.87C412.77 296.576 416.563 292.963 420.211 289.489C429.352 280.783 437.582 272.944 449.33 273.149C461.802 273.366 459.39 282.831 453.203 289.4C450.028 292.771 445.859 295.38 442.197 295.585C445.597 295.394 451.044 295.491 455.251 296.63Z" fill="black"/>
<path d="M391.497 82.042C360.303 105.896 340.119 148.1 329.109 171.954L336.449 177.459C351.128 146.265 384.157 107.731 409.847 94.8866L391.497 82.042Z" fill="#FDFF9C"/>
<path fill-rule="evenodd" clip-rule="evenodd" d="M325.102 177.297C322.583 175.408 321.726 172.015 323.045 169.156C333.958 145.512 354.736 101.746 387.441 76.7369C389.752 74.969 392.943 74.9018 395.327 76.5708L413.677 89.4154C415.605 90.7651 416.68 93.0301 416.507 95.3773C416.334 97.7245 414.939 99.8074 412.834 100.86C401.105 106.724 387.096 118.839 374.036 133.7C361.048 148.479 349.508 165.393 342.492 180.303C341.637 182.12 340.009 183.456 338.061 183.94C336.112 184.425 334.048 184.007 332.442 182.802L325.102 177.297ZM339.486 171.389C338.403 173.437 337.388 175.463 336.449 177.459L329.109 171.954C340.119 148.1 360.303 105.896 391.497 82.042L409.847 94.8866C407.746 95.9368 405.597 97.1588 403.412 98.5345C380.589 112.907 353.942 144.055 339.486 171.389Z" fill="black"/>
<path fill-rule="evenodd" clip-rule="evenodd" d="M361.18 339.958C361.18 336.918 363.645 334.453 366.685 334.453C382.864 334.453 414.146 342.453 435.53 375.501C437.182 378.054 436.451 381.462 433.899 383.114C431.346 384.765 427.938 384.035 426.287 381.482C407.302 352.142 379.866 345.463 366.685 345.463C363.645 345.463 361.18 342.998 361.18 339.958Z" fill="#7BB8FF"/>
<path fill-rule="evenodd" clip-rule="evenodd" d="M354.502 339.958C354.502 333.23 359.957 327.775 366.685 327.775C384.679 327.775 418.296 336.574 441.137 371.874L435.53 375.502C414.146 342.454 382.863 334.453 366.685 334.453C363.645 334.453 361.18 336.918 361.18 339.958C361.18 342.998 363.645 345.463 366.685 345.463C379.866 345.463 407.302 352.142 426.287 381.483C427.938 384.035 431.346 384.765 433.899 383.114C436.451 381.462 437.182 378.054 435.53 375.502L441.137 371.874C444.792 377.523 443.176 385.065 437.527 388.721C431.878 392.376 424.335 390.76 420.68 385.111C403.149 358.017 378.045 352.141 366.685 352.141C359.957 352.141 354.502 346.687 354.502 339.958Z" fill="black"/>
<path d="M412.59 185.558C412.59 189.246 409.6 192.236 405.911 192.236C402.223 192.236 399.233 189.246 399.233 185.558C399.233 181.869 402.223 178.879 405.911 178.879C409.6 178.879 412.59 181.869 412.59 185.558Z" fill="#FF8D8D"/>
<path d="M92.0243 220.62C92.0243 223.386 89.7817 225.629 87.0154 225.629C84.2491 225.629 82.0066 223.386 82.0066 220.62C82.0066 217.853 84.2491 215.611 87.0154 215.611C89.7817 215.611 92.0243 217.853 92.0243 220.62Z" fill="#FFCD82"/>
<path d="M385.876 175.54C385.876 177.384 384.381 178.879 382.536 178.879C380.692 178.879 379.197 177.384 379.197 175.54C379.197 173.696 380.692 172.201 382.536 172.201C384.381 172.201 385.876 173.696 385.876 175.54Z" fill="#FFCD82"/>
<path d="M433.286 252.673C433.286 254.7 431.643 256.343 429.616 256.343C427.589 256.343 425.946 254.7 425.946 252.673C425.946 250.646 427.589 249.003 429.616 249.003C431.643 249.003 433.286 250.646 433.286 252.673Z" fill="#FDFF9C"/>
<path fill-rule="evenodd" clip-rule="evenodd" d="M389.264 323.905C389.665 320.891 392.434 318.774 395.448 319.176C400.331 319.827 408.028 321.367 415.529 323.916C422.774 326.378 430.937 330.135 435.648 335.788C437.594 338.123 437.279 341.595 434.943 343.541C432.608 345.487 429.136 345.172 427.19 342.836C424.561 339.681 418.962 336.71 411.987 334.34C405.267 332.057 398.283 330.661 393.993 330.089C390.979 329.687 388.862 326.918 389.264 323.905Z" fill="#FFCD82"/>
<path fill-rule="evenodd" clip-rule="evenodd" d="M382.641 323.023C383.531 316.354 389.658 311.668 396.328 312.557C401.571 313.256 409.7 314.884 417.675 317.593C425.09 320.113 434.804 324.347 440.776 331.513C445.084 336.683 444.385 344.365 439.216 348.672C434.047 352.98 426.365 352.282 422.057 347.113C420.693 345.476 416.654 342.981 409.836 340.665C403.59 338.542 397.039 337.234 393.107 336.71C386.438 335.821 381.752 329.693 382.641 323.023ZM395.445 319.177C392.432 318.775 389.663 320.892 389.261 323.906C388.859 326.919 390.977 329.688 393.99 330.09C398.281 330.662 405.264 332.058 411.984 334.341C418.959 336.711 424.559 339.682 427.188 342.837C429.134 345.173 432.605 345.488 434.941 343.542C437.276 341.596 437.592 338.124 435.646 335.789C430.935 330.136 422.772 326.379 415.526 323.917C408.025 321.368 400.329 319.828 395.445 319.177Z" fill="black"/>
<path fill-rule="evenodd" clip-rule="evenodd" d="M68.7605 179.233C69.3144 176.691 71.7841 175.089 74.2768 175.654C89.2583 179.048 102.334 189.076 107.366 194.207C109.171 196.048 109.171 199.033 107.366 200.874C105.56 202.715 102.633 202.715 100.827 200.874C96.6129 196.577 85.0299 187.748 72.2709 184.857C69.7782 184.293 68.2066 181.774 68.7605 179.233Z" fill="#FFCD82"/>
<path fill-rule="evenodd" clip-rule="evenodd" d="M62.2348 177.811C63.5547 171.755 69.5325 167.732 75.7521 169.141C92.3637 172.905 106.521 183.808 112.133 189.531C116.486 193.969 116.486 201.112 112.133 205.55C107.71 210.061 100.483 210.061 96.0589 205.55C92.4258 201.846 81.9244 193.893 70.7946 191.371C64.6195 189.972 60.9233 183.828 62.2348 177.811ZM74.2763 175.654C71.7837 175.09 69.3139 176.692 68.76 179.233C68.2061 181.775 69.7777 184.293 72.2704 184.858C85.0294 187.749 96.6124 196.577 100.827 200.874C102.632 202.715 105.56 202.715 107.365 200.874C109.171 199.033 109.171 196.048 107.365 194.207C102.333 189.077 89.2578 179.049 74.2763 175.654Z" fill="black"/>
</svg>
