<svg width="116" height="89" viewBox="0 0 116 89" fill="none" xmlns="http://www.w3.org/2000/svg">
<g filter="url(#filter0_d_5701_18834)">
<rect x="12" y="10.5" width="92" height="64" rx="6" fill="white"/>
<path d="M27.8779 26.6265C27.3766 26.6265 26.9334 26.5182 26.5483 26.3018C26.1655 26.0853 25.8682 25.7811 25.6562 25.3892C25.4466 24.9972 25.3418 24.5438 25.3418 24.0288C25.3418 23.5161 25.4466 23.0649 25.6562 22.6753C25.8682 22.2834 26.1655 21.9803 26.5483 21.7661C26.9334 21.5496 27.3766 21.4414 27.8779 21.4414C28.377 21.4414 28.8167 21.5496 29.1973 21.7661C29.5801 21.9803 29.8763 22.2834 30.0859 22.6753C30.2979 23.0649 30.4038 23.5161 30.4038 24.0288C30.4038 24.5438 30.299 24.9972 30.0894 25.3892C29.8797 25.7811 29.5835 26.0853 29.2007 26.3018C28.8179 26.5182 28.377 26.6265 27.8779 26.6265ZM27.8779 25.7446C28.1742 25.7446 28.4351 25.674 28.6606 25.5327C28.8862 25.3892 29.0605 25.1875 29.1836 24.9277C29.3089 24.668 29.3716 24.3683 29.3716 24.0288C29.3716 23.6916 29.3089 23.3942 29.1836 23.1367C29.0605 22.8792 28.8862 22.6799 28.6606 22.5386C28.4351 22.395 28.1742 22.3232 27.8779 22.3232C27.5794 22.3232 27.3162 22.395 27.0884 22.5386C26.8628 22.6799 26.6873 22.8792 26.562 23.1367C26.4367 23.3942 26.374 23.6916 26.374 24.0288C26.374 24.3683 26.4367 24.668 26.562 24.9277C26.6873 25.1875 26.8628 25.3892 27.0884 25.5327C27.3162 25.674 27.5794 25.7446 27.8779 25.7446ZM32.7871 26.5786C32.4385 26.5786 32.1309 26.5137 31.8643 26.3838C31.5999 26.2516 31.3949 26.0671 31.249 25.8301C31.1055 25.5908 31.0337 25.314 31.0337 24.9995V22.7402H32.0317V24.9995C32.0317 25.1613 32.0648 25.3026 32.1309 25.4233C32.1969 25.5418 32.2869 25.633 32.4009 25.6968C32.5148 25.7606 32.6436 25.7925 32.7871 25.7925C32.9284 25.7925 33.0537 25.7606 33.1631 25.6968C33.2725 25.633 33.3579 25.5418 33.4194 25.4233C33.481 25.3026 33.5117 25.1613 33.5117 24.9995V22.7402H34.5098V24.9995C34.5098 25.314 34.4403 25.5908 34.3013 25.8301C34.1623 26.0671 33.9629 26.2516 33.7031 26.3838C33.4434 26.5137 33.138 26.5786 32.7871 26.5786ZM36.6846 23.6084V25.1465C36.6846 25.2832 36.6994 25.3892 36.729 25.4644C36.7586 25.5373 36.8042 25.5885 36.8657 25.6182C36.9295 25.6478 37.0138 25.6626 37.1187 25.6626H37.4365V26.5H36.8828V26.4863L36.8794 26.5C36.492 26.5 36.1958 26.3952 35.9907 26.1855C35.7879 25.9759 35.6865 25.6706 35.6865 25.2695V23.6084H35.0713V22.7402H35.6865V21.9028L36.6846 21.561V22.7402H37.4707V23.6084H36.6846ZM39.5669 25.6626V26.5H39.2832C38.9596 26.5 38.7147 26.4658 38.5483 26.3975C38.382 26.3268 38.2647 26.2049 38.1963 26.0317C38.1302 25.8586 38.0972 25.6045 38.0972 25.2695V21.2842H39.0952V25.1465C39.0952 25.3037 39.1066 25.4188 39.1294 25.4917C39.1545 25.5623 39.1955 25.609 39.2524 25.6318C39.3117 25.6523 39.404 25.6626 39.5293 25.6626H39.5669ZM40.2617 21.1543H41.2734V22.166H40.2617V21.1543ZM40.2686 22.7402H41.2666V26.5H40.2686V22.7402ZM44.0874 22.6582C44.55 22.6582 44.902 22.7892 45.1436 23.0513C45.3851 23.3133 45.5059 23.695 45.5059 24.1963V26.5H44.5078V24.4048C44.5078 24.1108 44.4452 23.8875 44.3198 23.7349C44.1945 23.5822 44.0122 23.5059 43.773 23.5059C43.5702 23.5036 43.4027 23.5742 43.2705 23.7178C43.1384 23.8613 43.0597 24.0562 43.0347 24.3022V26.5H42.0366V22.7402H43.0347V23.2632H43.0723C43.1589 23.0695 43.2922 22.9202 43.4722 22.8154C43.6522 22.7106 43.8573 22.6582 44.0874 22.6582ZM47.978 26.582C47.5702 26.582 47.2204 26.5046 46.9287 26.3496C46.6393 26.1947 46.4183 25.9714 46.2656 25.6797C46.113 25.388 46.0355 25.0405 46.0332 24.6372C46.0309 24.243 46.1004 23.8966 46.2417 23.5981C46.3853 23.2974 46.5881 23.0661 46.8501 22.9043C47.1122 22.7402 47.4164 22.6593 47.7627 22.6616C48.1273 22.6685 48.4417 22.7482 48.7061 22.9009C48.9704 23.0513 49.1732 23.2655 49.3145 23.5435C49.4557 23.8192 49.5264 24.1427 49.5264 24.5142C49.5264 24.6463 49.5195 24.7887 49.5059 24.9414H47.021C47.0301 25.1921 47.1247 25.3857 47.3047 25.5225C47.4847 25.6592 47.7205 25.7275 48.0122 25.7275C48.2059 25.7275 48.4041 25.7048 48.6069 25.6592C48.8097 25.6136 49.0023 25.5452 49.1846 25.4541L49.3486 26.2129C49.1208 26.3496 48.8975 26.4453 48.6787 26.5C48.4622 26.5547 48.2287 26.582 47.978 26.582ZM48.5488 24.2715C48.5488 24.1234 48.5169 23.9935 48.4531 23.8818C48.3916 23.7702 48.3027 23.6836 48.1865 23.6221C48.0726 23.5605 47.9393 23.5298 47.7866 23.5298C47.6362 23.5298 47.5029 23.5617 47.3867 23.6255C47.2705 23.687 47.1794 23.7747 47.1133 23.8887C47.0495 24.0003 47.0176 24.1279 47.0176 24.2715H48.5488ZM51.1304 23.3145C51.2466 23.1117 51.3958 22.9533 51.5781 22.8394C51.7604 22.7231 51.978 22.6639 52.231 22.6616V23.5366C51.9006 23.5366 51.6522 23.5947 51.4858 23.7109C51.3195 23.8249 51.2101 23.9798 51.1577 24.1758C51.1076 24.3695 51.0814 24.6247 51.0791 24.9414V26.5H50.0845V22.7402H51.0791V23.3145H51.1304Z" fill="black"/>
<path d="M28.2562 36.2516L25.9686 34.6969C25.7694 34.5615 25.5 34.7042 25.5 34.945V38.0544C25.5 38.2952 25.7694 38.4379 25.9686 38.3025L28.2562 36.7478C28.4314 36.6288 28.4314 36.3706 28.2562 36.2516Z" fill="#A2A4A6"/>
<path d="M28.2562 45.2516L25.9686 43.6969C25.7694 43.5615 25.5 43.7042 25.5 43.945V47.0544C25.5 47.2952 25.7694 47.4379 25.9686 47.3025L28.2562 45.7478C28.4314 45.6288 28.4314 45.3706 28.2562 45.2516Z" fill="#A2A4A6"/>
<path d="M32 36.5H64" stroke="#BEBFC0" stroke-width="1.5" stroke-linecap="round"/>
<path d="M32 45.5H76" stroke="#BEBFC0" stroke-width="1.5" stroke-linecap="round"/>
<path d="M34 51.5H32V53.5H34V51.5Z" fill="#A2A4A6"/>
<path d="M38 52.5H66" stroke="#BEBFC0" stroke-width="1.5" stroke-linecap="round"/>
<path d="M34 58.5H32V60.5H34V58.5Z" fill="#A2A4A6"/>
<path d="M38 59.5H58" stroke="#BEBFC0" stroke-width="1.5" stroke-linecap="round"/>
</g>
<defs>
<filter id="filter0_d_5701_18834" x="0" y="0.5" width="116" height="88" filterUnits="userSpaceOnUse" color-interpolation-filters="sRGB">
<feFlood flood-opacity="0" result="BackgroundImageFix"/>
<feColorMatrix in="SourceAlpha" type="matrix" values="0 0 0 0 0 0 0 0 0 0 0 0 0 0 0 0 0 0 127 0" result="hardAlpha"/>
<feOffset dy="2"/>
<feGaussianBlur stdDeviation="6"/>
<feComposite in2="hardAlpha" operator="out"/>
<feColorMatrix type="matrix" values="0 0 0 0 0 0 0 0 0 0 0 0 0 0 0 0 0 0 0.15 0"/>
<feBlend mode="normal" in2="BackgroundImageFix" result="effect1_dropShadow_5701_18834"/>
<feBlend mode="normal" in="SourceGraphic" in2="effect1_dropShadow_5701_18834" result="shape"/>
</filter>
</defs>
</svg>
