<svg width="92" height="113" viewBox="0 0 92 113" fill="none" xmlns="http://www.w3.org/2000/svg">
<g filter="url(#filter0_d_5701_18229)">
<g clip-path="url(#clip0_5701_18229)">
<path d="M74 10.5H18C14.6863 10.5 12 13.1863 12 16.5V92.5C12 95.8137 14.6863 98.5 18 98.5H74C77.3137 98.5 80 95.8137 80 92.5V16.5C80 13.1863 77.3137 10.5 74 10.5Z" fill="white"/>
<path d="M27.8779 28.6265C27.3766 28.6265 26.9334 28.5182 26.5483 28.3018C26.1655 28.0853 25.8682 27.7811 25.6562 27.3892C25.4466 26.9972 25.3418 26.5438 25.3418 26.0288C25.3418 25.5161 25.4466 25.0649 25.6562 24.6753C25.8682 24.2834 26.1655 23.9803 26.5483 23.7661C26.9334 23.5496 27.3766 23.4414 27.8779 23.4414C28.377 23.4414 28.8167 23.5496 29.1973 23.7661C29.5801 23.9803 29.8763 24.2834 30.0859 24.6753C30.2979 25.0649 30.4038 25.5161 30.4038 26.0288C30.4038 26.5438 30.299 26.9972 30.0894 27.3892C29.8797 27.7811 29.5835 28.0853 29.2007 28.3018C28.8179 28.5182 28.377 28.6265 27.8779 28.6265ZM27.8779 27.7446C28.1742 27.7446 28.4351 27.674 28.6606 27.5327C28.8862 27.3892 29.0605 27.1875 29.1836 26.9277C29.3089 26.668 29.3716 26.3683 29.3716 26.0288C29.3716 25.6916 29.3089 25.3942 29.1836 25.1367C29.0605 24.8792 28.8862 24.6799 28.6606 24.5386C28.4351 24.395 28.1742 24.3232 27.8779 24.3232C27.5794 24.3232 27.3162 24.395 27.0884 24.5386C26.8628 24.6799 26.6873 24.8792 26.562 25.1367C26.4367 25.3942 26.374 25.6916 26.374 26.0288C26.374 26.3683 26.4367 26.668 26.562 26.9277C26.6873 27.1875 26.8628 27.3892 27.0884 27.5327C27.3162 27.674 27.5794 27.7446 27.8779 27.7446ZM32.7871 28.5786C32.4385 28.5786 32.1309 28.5137 31.8643 28.3838C31.5999 28.2516 31.3949 28.0671 31.249 27.8301C31.1055 27.5908 31.0337 27.314 31.0337 26.9995V24.7402H32.0317V26.9995C32.0317 27.1613 32.0648 27.3026 32.1309 27.4233C32.1969 27.5418 32.2869 27.633 32.4009 27.6968C32.5148 27.7606 32.6436 27.7925 32.7871 27.7925C32.9284 27.7925 33.0537 27.7606 33.1631 27.6968C33.2725 27.633 33.3579 27.5418 33.4194 27.4233C33.481 27.3026 33.5117 27.1613 33.5117 26.9995V24.7402H34.5098V26.9995C34.5098 27.314 34.4403 27.5908 34.3013 27.8301C34.1623 28.0671 33.9629 28.2516 33.7031 28.3838C33.4434 28.5137 33.138 28.5786 32.7871 28.5786ZM36.6846 25.6084V27.1465C36.6846 27.2832 36.6994 27.3892 36.729 27.4644C36.7586 27.5373 36.8042 27.5885 36.8657 27.6182C36.9295 27.6478 37.0138 27.6626 37.1187 27.6626H37.4365V28.5H36.8828V28.4863L36.8794 28.5C36.492 28.5 36.1958 28.3952 35.9907 28.1855C35.7879 27.9759 35.6865 27.6706 35.6865 27.2695V25.6084H35.0713V24.7402H35.6865V23.9028L36.6846 23.561V24.7402H37.4707V25.6084H36.6846ZM39.5669 27.6626V28.5H39.2832C38.9596 28.5 38.7147 28.4658 38.5483 28.3975C38.382 28.3268 38.2647 28.2049 38.1963 28.0317C38.1302 27.8586 38.0972 27.6045 38.0972 27.2695V23.2842H39.0952V27.1465C39.0952 27.3037 39.1066 27.4188 39.1294 27.4917C39.1545 27.5623 39.1955 27.609 39.2524 27.6318C39.3117 27.6523 39.404 27.6626 39.5293 27.6626H39.5669ZM40.2617 23.1543H41.2734V24.166H40.2617V23.1543ZM40.2686 24.7402H41.2666V28.5H40.2686V24.7402ZM44.0874 24.6582C44.55 24.6582 44.902 24.7892 45.1436 25.0513C45.3851 25.3133 45.5059 25.695 45.5059 26.1963V28.5H44.5078V26.4048C44.5078 26.1108 44.4452 25.8875 44.3198 25.7349C44.1945 25.5822 44.0122 25.5059 43.773 25.5059C43.5702 25.5036 43.4027 25.5742 43.2705 25.7178C43.1384 25.8613 43.0597 26.0562 43.0347 26.3022V28.5H42.0366V24.7402H43.0347V25.2632H43.0723C43.1589 25.0695 43.2922 24.9202 43.4722 24.8154C43.6522 24.7106 43.8573 24.6582 44.0874 24.6582ZM47.978 28.582C47.5702 28.582 47.2204 28.5046 46.9287 28.3496C46.6393 28.1947 46.4183 27.9714 46.2656 27.6797C46.113 27.388 46.0355 27.0405 46.0332 26.6372C46.0309 26.243 46.1004 25.8966 46.2417 25.5981C46.3853 25.2974 46.5881 25.0661 46.8501 24.9043C47.1122 24.7402 47.4164 24.6593 47.7627 24.6616C48.1273 24.6685 48.4417 24.7482 48.7061 24.9009C48.9704 25.0513 49.1732 25.2655 49.3145 25.5435C49.4557 25.8192 49.5264 26.1427 49.5264 26.5142C49.5264 26.6463 49.5195 26.7887 49.5059 26.9414H47.021C47.0301 27.1921 47.1247 27.3857 47.3047 27.5225C47.4847 27.6592 47.7205 27.7275 48.0122 27.7275C48.2059 27.7275 48.4041 27.7048 48.6069 27.6592C48.8097 27.6136 49.0023 27.5452 49.1846 27.4541L49.3486 28.2129C49.1208 28.3496 48.8975 28.4453 48.6787 28.5C48.4622 28.5547 48.2287 28.582 47.978 28.582ZM48.5488 26.2715C48.5488 26.1234 48.5169 25.9935 48.4531 25.8818C48.3916 25.7702 48.3027 25.6836 48.1865 25.6221C48.0726 25.5605 47.9393 25.5298 47.7866 25.5298C47.6362 25.5298 47.5029 25.5617 47.3867 25.6255C47.2705 25.687 47.1794 25.7747 47.1133 25.8887C47.0495 26.0003 47.0176 26.1279 47.0176 26.2715H48.5488ZM51.1304 25.3145C51.2466 25.1117 51.3958 24.9533 51.5781 24.8394C51.7604 24.7231 51.978 24.6639 52.231 24.6616V25.5366C51.9006 25.5366 51.6522 25.5947 51.4858 25.7109C51.3195 25.8249 51.2101 25.9798 51.1577 26.1758C51.1076 26.3695 51.0814 26.6247 51.0791 26.9414V28.5H50.0845V24.7402H51.0791V25.3145H51.1304Z" fill="black"/>
<path d="M28.2562 38.2516L25.9686 36.6969C25.7694 36.5615 25.5 36.7042 25.5 36.945V40.0544C25.5 40.2952 25.7694 40.4379 25.9686 40.3025L28.2562 38.7478C28.4314 38.6288 28.4314 38.3706 28.2562 38.2516Z" fill="#A2A4A6"/>
<path d="M28.2562 47.2516L25.9686 45.6969C25.7694 45.5615 25.5 45.7042 25.5 45.945V49.0544C25.5 49.2952 25.7694 49.4379 25.9686 49.3025L28.2562 47.7478C28.4314 47.6288 28.4314 47.3706 28.2562 47.2516Z" fill="#A2A4A6"/>
<path d="M26.7478 57.8774L28.3025 55.5897C28.4379 55.3906 28.2952 55.1211 28.0544 55.1211H24.945C24.7042 55.1211 24.5615 55.3906 24.6969 55.5897L26.2516 57.8774C26.3706 58.0525 26.6288 58.0525 26.7478 57.8774Z" fill="#A2A4A6"/>
<path d="M34 62.5H32V64.5H34V62.5Z" fill="#A2A4A6"/>
<path d="M34 69.5H32V71.5H34V69.5Z" fill="#A2A4A6"/>
<path d="M34 76.5H32V78.5H34V76.5Z" fill="#A2A4A6"/>
<path d="M32 38.5H51" stroke="#BEBFC0" stroke-width="1.5" stroke-linecap="round"/>
<path d="M38 63.5H55" stroke="#BEBFC0" stroke-width="1.5" stroke-linecap="round"/>
<path d="M32 47.5H61" stroke="#BEBFC0" stroke-width="1.5" stroke-linecap="round"/>
<path d="M38 70.5H51" stroke="#BEBFC0" stroke-width="1.5" stroke-linecap="round"/>
<path d="M38 77.5H61" stroke="#BEBFC0" stroke-width="1.5" stroke-linecap="round"/>
<path d="M32 56.5H44" stroke="#BEBFC0" stroke-width="1.5" stroke-linecap="round"/>
</g>
</g>
<defs>
<filter id="filter0_d_5701_18229" x="0" y="0.5" width="92" height="112" filterUnits="userSpaceOnUse" color-interpolation-filters="sRGB">
<feFlood flood-opacity="0" result="BackgroundImageFix"/>
<feColorMatrix in="SourceAlpha" type="matrix" values="0 0 0 0 0 0 0 0 0 0 0 0 0 0 0 0 0 0 127 0" result="hardAlpha"/>
<feOffset dy="2"/>
<feGaussianBlur stdDeviation="6"/>
<feComposite in2="hardAlpha" operator="out"/>
<feColorMatrix type="matrix" values="0 0 0 0 0 0 0 0 0 0 0 0 0 0 0 0 0 0 0.15 0"/>
<feBlend mode="normal" in2="BackgroundImageFix" result="effect1_dropShadow_5701_18229"/>
<feBlend mode="normal" in="SourceGraphic" in2="effect1_dropShadow_5701_18229" result="shape"/>
</filter>
<clipPath id="clip0_5701_18229">
<rect x="12" y="10.5" width="68" height="88" rx="6" fill="white"/>
</clipPath>
</defs>
</svg>
