<svg width="92" height="64" viewBox="0 0 92 64" fill="none" xmlns="http://www.w3.org/2000/svg">
<rect width="92" height="64" rx="6" fill="#2D2F31"/>
<path d="M15.8779 16.1265C15.3766 16.1265 14.9334 16.0182 14.5483 15.8018C14.1655 15.5853 13.8682 15.2811 13.6562 14.8892C13.4466 14.4972 13.3418 14.0438 13.3418 13.5288C13.3418 13.0161 13.4466 12.5649 13.6562 12.1753C13.8682 11.7834 14.1655 11.4803 14.5483 11.2661C14.9334 11.0496 15.3766 10.9414 15.8779 10.9414C16.377 10.9414 16.8167 11.0496 17.1973 11.2661C17.5801 11.4803 17.8763 11.7834 18.0859 12.1753C18.2979 12.5649 18.4038 13.0161 18.4038 13.5288C18.4038 14.0438 18.299 14.4972 18.0894 14.8892C17.8797 15.2811 17.5835 15.5853 17.2007 15.8018C16.8179 16.0182 16.377 16.1265 15.8779 16.1265ZM15.8779 15.2446C16.1742 15.2446 16.4351 15.174 16.6606 15.0327C16.8862 14.8892 17.0605 14.6875 17.1836 14.4277C17.3089 14.168 17.3716 13.8683 17.3716 13.5288C17.3716 13.1916 17.3089 12.8942 17.1836 12.6367C17.0605 12.3792 16.8862 12.1799 16.6606 12.0386C16.4351 11.895 16.1742 11.8232 15.8779 11.8232C15.5794 11.8232 15.3162 11.895 15.0884 12.0386C14.8628 12.1799 14.6873 12.3792 14.562 12.6367C14.4367 12.8942 14.374 13.1916 14.374 13.5288C14.374 13.8683 14.4367 14.168 14.562 14.4277C14.6873 14.6875 14.8628 14.8892 15.0884 15.0327C15.3162 15.174 15.5794 15.2446 15.8779 15.2446ZM20.7871 16.0786C20.4385 16.0786 20.1309 16.0137 19.8643 15.8838C19.5999 15.7516 19.3949 15.5671 19.249 15.3301C19.1055 15.0908 19.0337 14.814 19.0337 14.4995V12.2402H20.0317V14.4995C20.0317 14.6613 20.0648 14.8026 20.1309 14.9233C20.1969 15.0418 20.2869 15.133 20.4009 15.1968C20.5148 15.2606 20.6436 15.2925 20.7871 15.2925C20.9284 15.2925 21.0537 15.2606 21.1631 15.1968C21.2725 15.133 21.3579 15.0418 21.4194 14.9233C21.481 14.8026 21.5117 14.6613 21.5117 14.4995V12.2402H22.5098V14.4995C22.5098 14.814 22.4403 15.0908 22.3013 15.3301C22.1623 15.5671 21.9629 15.7516 21.7031 15.8838C21.4434 16.0137 21.138 16.0786 20.7871 16.0786ZM24.6846 13.1084V14.6465C24.6846 14.7832 24.6994 14.8892 24.729 14.9644C24.7586 15.0373 24.8042 15.0885 24.8657 15.1182C24.9295 15.1478 25.0138 15.1626 25.1187 15.1626H25.4365V16H24.8828V15.9863L24.8794 16C24.492 16 24.1958 15.8952 23.9907 15.6855C23.7879 15.4759 23.6865 15.1706 23.6865 14.7695V13.1084H23.0713V12.2402H23.6865V11.4028L24.6846 11.061V12.2402H25.4707V13.1084H24.6846ZM27.5669 15.1626V16H27.2832C26.9596 16 26.7147 15.9658 26.5483 15.8975C26.382 15.8268 26.2647 15.7049 26.1963 15.5317C26.1302 15.3586 26.0972 15.1045 26.0972 14.7695V10.7842H27.0952V14.6465C27.0952 14.8037 27.1066 14.9188 27.1294 14.9917C27.1545 15.0623 27.1955 15.109 27.2524 15.1318C27.3117 15.1523 27.404 15.1626 27.5293 15.1626H27.5669ZM28.2617 10.6543H29.2734V11.666H28.2617V10.6543ZM28.2686 12.2402H29.2666V16H28.2686V12.2402ZM32.0874 12.1582C32.55 12.1582 32.902 12.2892 33.1436 12.5513C33.3851 12.8133 33.5059 13.195 33.5059 13.6963V16H32.5078V13.9048C32.5078 13.6108 32.4452 13.3875 32.3198 13.2349C32.1945 13.0822 32.0122 13.0059 31.773 13.0059C31.5702 13.0036 31.4027 13.0742 31.2705 13.2178C31.1384 13.3613 31.0597 13.5562 31.0347 13.8022V16H30.0366V12.2402H31.0347V12.7632H31.0723C31.1589 12.5695 31.2922 12.4202 31.4722 12.3154C31.6522 12.2106 31.8573 12.1582 32.0874 12.1582ZM35.978 16.082C35.5702 16.082 35.2204 16.0046 34.9287 15.8496C34.6393 15.6947 34.4183 15.4714 34.2656 15.1797C34.113 14.888 34.0355 14.5405 34.0332 14.1372C34.0309 13.743 34.1004 13.3966 34.2417 13.0981C34.3853 12.7974 34.5881 12.5661 34.8501 12.4043C35.1122 12.2402 35.4164 12.1593 35.7627 12.1616C36.1273 12.1685 36.4417 12.2482 36.7061 12.4009C36.9704 12.5513 37.1732 12.7655 37.3145 13.0435C37.4557 13.3192 37.5264 13.6427 37.5264 14.0142C37.5264 14.1463 37.5195 14.2887 37.5059 14.4414H35.021C35.0301 14.6921 35.1247 14.8857 35.3047 15.0225C35.4847 15.1592 35.7205 15.2275 36.0122 15.2275C36.2059 15.2275 36.4041 15.2048 36.6069 15.1592C36.8097 15.1136 37.0023 15.0452 37.1846 14.9541L37.3486 15.7129C37.1208 15.8496 36.8975 15.9453 36.6787 16C36.4622 16.0547 36.2287 16.082 35.978 16.082ZM36.5488 13.7715C36.5488 13.6234 36.5169 13.4935 36.4531 13.3818C36.3916 13.2702 36.3027 13.1836 36.1865 13.1221C36.0726 13.0605 35.9393 13.0298 35.7866 13.0298C35.6362 13.0298 35.5029 13.0617 35.3867 13.1255C35.2705 13.187 35.1794 13.2747 35.1133 13.3887C35.0495 13.5003 35.0176 13.6279 35.0176 13.7715H36.5488ZM39.1304 12.8145C39.2466 12.6117 39.3958 12.4533 39.5781 12.3394C39.7604 12.2231 39.978 12.1639 40.231 12.1616V13.0366C39.9006 13.0366 39.6522 13.0947 39.4858 13.2109C39.3195 13.3249 39.2101 13.4798 39.1577 13.6758C39.1076 13.8695 39.0814 14.1247 39.0791 14.4414V16H38.0845V12.2402H39.0791V12.8145H39.1304Z" fill="white"/>
<path d="M16.2562 25.7516L13.9686 24.1969C13.7694 24.0615 13.5 24.2042 13.5 24.445V27.5544C13.5 27.7952 13.7694 27.9379 13.9686 27.8025L16.2562 26.2478C16.4314 26.1288 16.4314 25.8706 16.2562 25.7516Z" fill="#BEBFC0"/>
<path d="M16.2562 34.7516L13.9686 33.1969C13.7694 33.0615 13.5 33.2042 13.5 33.445V36.5544C13.5 36.7952 13.7694 36.9379 13.9686 36.8025L16.2562 35.2478C16.4314 35.1288 16.4314 34.8706 16.2562 34.7516Z" fill="#BEBFC0"/>
<path d="M20 26H52" stroke="#A2A4A6" stroke-width="1.5" stroke-linecap="round"/>
<path d="M20 35H64" stroke="#A2A4A6" stroke-width="1.5" stroke-linecap="round"/>
<path d="M22 41H20V43H22V41Z" fill="#BEBFC0"/>
<path d="M26 42H54" stroke="#A2A4A6" stroke-width="1.5" stroke-linecap="round"/>
<path d="M22 48H20V50H22V48Z" fill="#BEBFC0"/>
<path d="M26 49H46" stroke="#A2A4A6" stroke-width="1.5" stroke-linecap="round"/>
</svg>
