<svg width="512" height="512" viewBox="0 0 512 512" fill="none" xmlns="http://www.w3.org/2000/svg">
<path d="M284.032 42.2546C282.408 41.7816 280.664 41.9729 279.181 42.7864C277.699 43.5999 276.601 44.9689 276.128 46.5922L268.519 72.7091C222.668 71.4845 186.768 86.2357 150.328 120.941C131.76 138.625 124.157 159.398 115.789 182.26L115.581 182.829C106.972 206.349 97.1812 233.054 74.0876 264.395C41.544 308.561 50.9481 392.274 143.27 438.133L152.508 452.113C153.44 453.524 154.894 454.507 156.551 454.845C158.207 455.184 159.93 454.85 161.341 453.918L168.759 449.017C173.364 450.696 178.129 452.294 183.058 453.806C226.372 467.089 272.996 466.529 314.417 452.257L325.236 455.409C335.073 458.274 345.371 452.623 348.237 442.786L350.348 435.539C358.493 430.638 366.271 425.09 373.593 418.897C374.598 420.331 376.185 421.347 378.061 421.57L403.383 424.585C405.062 424.785 406.752 424.309 408.081 423.263C409.409 422.218 410.268 420.687 410.468 419.008L417.099 363.309C430.356 336.653 437.95 304.886 437.95 268.177C437.95 240.901 435.851 217.762 431.858 198.033C433.695 197.592 435.814 196.559 437.186 194.183C439.06 190.937 438.013 187.708 437.302 186.158C436.564 184.552 435.459 183.081 434.325 181.817C435.913 181.297 437.547 180.6 438.947 179.634C440.349 178.666 442.985 176.376 442.985 172.538C442.985 168.508 440.095 166.187 438.673 165.259C437.36 164.402 435.844 163.757 434.325 163.26C435.392 162.07 436.382 160.753 437.091 159.355C437.858 157.84 439.201 154.385 437.186 150.894L432.07 153.848L437.185 150.894C435.17 147.404 431.507 146.839 429.811 146.746C428.245 146.661 426.61 146.86 425.046 147.189C425.375 145.625 425.574 143.99 425.489 142.424C425.396 140.728 424.831 137.065 421.341 135.049C418.474 133.394 415.596 134.035 414.009 134.642C412.343 135.279 410.868 136.311 409.67 137.309C409.439 137.501 409.207 137.702 408.975 137.91C408.597 136.755 408.152 135.659 407.627 134.67C407.083 133.643 406.297 132.434 405.158 131.41C404.293 130.634 403.063 129.833 401.51 129.462C392.518 118.687 382.143 110.255 370.722 103.414L378.58 76.4407C379.053 74.8173 378.862 73.0725 378.048 71.5902C377.235 70.1079 375.866 69.0094 374.242 68.5365L284.032 42.2546Z" fill="#B58254" stroke="white" stroke-width="12.7507" stroke-linejoin="round"/>
<path d="M154.724 125.557C194.524 87.6523 233.025 74.6622 285.599 80.2551C367.815 100.389 431.574 118.761 431.574 268.177C431.574 420.864 297.01 482.083 184.926 447.71C59.0854 409.118 45.639 313.75 79.2198 268.177C126.2 204.418 119.489 159.116 154.724 125.557Z" fill="#FFD480"/>
<path fill-rule="evenodd" clip-rule="evenodd" d="M286.698 73.9606L287.114 74.0625C327.909 84.0528 366.215 93.9724 393.887 121.19C421.857 148.702 437.948 192.695 437.948 268.177C437.948 346.613 403.265 402.169 353.685 433.481C304.327 464.652 240.716 471.487 183.056 453.805C118.764 434.089 82.2312 399.531 66.4392 363.097C50.7196 326.83 55.837 289.161 74.0861 264.395C97.0097 233.284 106.826 206.739 115.389 183.35C115.518 182.996 115.647 182.643 115.777 182.29C124.148 159.415 131.754 138.628 150.326 120.94C170.715 101.522 191.055 88.2202 213.295 80.5659C235.543 72.909 259.285 71.0443 286.272 73.9153L286.698 73.9606ZM285.598 80.2549C233.024 74.662 194.523 87.6521 154.723 125.557C137.236 142.212 130.081 161.759 121.566 185.02C112.925 208.628 102.883 236.061 79.2186 268.177C45.6377 313.75 59.0842 409.118 184.925 447.71C297.009 482.082 431.573 420.863 431.573 268.177C431.573 118.761 367.814 100.389 285.598 80.2549Z" fill="black"/>
<path fill-rule="evenodd" clip-rule="evenodd" d="M70.7021 314.768L79.6429 322.063L75.6125 327.003L66.6717 319.708L70.7021 314.768Z" fill="#3D50FF"/>
<path fill-rule="evenodd" clip-rule="evenodd" d="M118.245 226.213L129.864 223.725L131.199 229.959L119.579 232.447L118.245 226.213Z" fill="#FB835D"/>
<path fill-rule="evenodd" clip-rule="evenodd" d="M97.742 275.117L101.265 302.214L94.9431 303.036L91.4199 275.939L97.742 275.117Z" fill="#FFFEFF"/>
<path fill-rule="evenodd" clip-rule="evenodd" d="M79.354 336.888L104.446 323.01L107.531 328.589L82.4397 342.467L79.354 336.888Z" fill="#FB835D"/>
<path fill-rule="evenodd" clip-rule="evenodd" d="M114.002 249.712L119.767 259.762L114.237 262.934L108.472 252.884L114.002 249.712Z" fill="#3D50FF"/>
<path fill-rule="evenodd" clip-rule="evenodd" d="M372.155 221.331L350.134 237.51L346.359 232.372L368.381 216.193L372.155 221.331Z" fill="#FFFEFF"/>
<path fill-rule="evenodd" clip-rule="evenodd" d="M402.255 223.292L396.242 233.196L390.793 229.887L396.806 219.983L402.255 223.292Z" fill="#3D50FF"/>
<path fill-rule="evenodd" clip-rule="evenodd" d="M103.111 351.336L111.885 358.904L107.721 363.731L98.9474 356.164L103.111 351.336Z" fill="#FFFEFF"/>
<path fill-rule="evenodd" clip-rule="evenodd" d="M398.666 281.67C406.355 282.803 415.17 279.058 419.561 270.784C420.386 269.229 422.316 268.638 423.871 269.463C425.426 270.288 426.018 272.218 425.192 273.773C419.484 284.53 407.98 289.486 397.737 287.978C392.579 287.218 387.678 284.809 384.031 280.619C380.374 276.418 378.151 270.628 378 263.409C377.851 256.278 379.652 250.839 382.961 247.192C386.292 243.521 390.799 242.06 395.201 242.242C403.727 242.593 412.749 249.214 413.683 259.254C414.009 262.757 413.291 265.741 411.668 268.029C410.052 270.307 407.734 271.618 405.374 272.119C401.02 273.044 395.212 271.233 393.714 265.954C392.957 263.288 393.092 260.864 393.705 258.934C394.008 257.98 394.439 257.112 394.97 256.391C395.456 255.729 396.207 254.945 397.255 254.523C398.888 253.865 400.745 254.655 401.403 256.288C402.001 257.771 401.404 259.439 400.066 260.225C399.99 260.344 399.88 260.554 399.781 260.864C399.552 261.585 399.426 262.732 399.847 264.213C400.114 265.154 401.711 266.379 404.05 265.883C405.036 265.673 405.886 265.16 406.468 264.34C407.042 263.531 407.549 262.144 407.335 259.845C406.745 253.506 400.83 248.854 394.938 248.612C392.132 248.496 389.559 249.408 387.682 251.477C385.783 253.569 384.248 257.237 384.374 263.275C384.499 269.226 386.3 273.516 388.84 276.433C391.39 279.363 394.858 281.109 398.666 281.67ZM400.15 260.115C400.15 260.115 400.143 260.124 400.128 260.139C400.142 260.121 400.149 260.114 400.15 260.115Z" fill="#FFF1C1"/>
<path d="M127.755 304.455L362.012 372.703L342.114 441.002C340.233 447.458 333.474 451.168 327.017 449.286L116.142 387.85C109.685 385.969 105.976 379.21 107.857 372.754L127.755 304.455Z" fill="#4DABF7"/>
<path fill-rule="evenodd" clip-rule="evenodd" d="M362.012 372.702L351.455 369.627L331.557 437.925C329.676 444.382 323.153 448.16 316.987 446.364L327.017 449.286C333.474 451.167 340.233 447.458 342.114 441.001L362.012 372.702Z" fill="#44A0EB"/>
<path fill-rule="evenodd" clip-rule="evenodd" d="M140.076 308.044L127.755 304.455L107.857 372.754C105.976 379.21 109.685 385.969 116.142 387.851L327.017 449.287C327.034 449.292 327.052 449.297 327.07 449.302L127.848 391.261C121.731 389.479 118.297 382.8 120.178 376.343L140.076 308.044Z" fill="#6BBDFF"/>
<path d="M146.9 201.012C148.781 194.555 155.54 190.846 161.997 192.727L393.138 260.068C399.595 261.949 403.304 268.708 401.423 275.164L375.552 363.964C373.671 370.421 366.912 374.13 360.455 372.249L129.314 304.909C122.857 303.028 119.148 296.268 121.029 289.812L146.9 201.012Z" fill="#1C7ED6"/>
<path fill-rule="evenodd" clip-rule="evenodd" d="M393.138 260.068L382.346 256.924C388.516 258.721 391.993 265.412 390.112 271.869L364.241 360.669C362.36 367.126 355.833 370.903 349.663 369.105L360.455 372.249C366.912 374.13 373.671 370.421 375.552 363.964L401.423 275.164C403.304 268.708 399.595 261.949 393.138 260.068Z" fill="#0E6EC5"/>
<path fill-rule="evenodd" clip-rule="evenodd" d="M172.578 195.81C166.436 194.084 159.971 197.854 158.1 204.274L132.229 293.074C130.348 299.531 133.827 306.223 140 308.021L360.565 372.281C360.528 372.27 360.492 372.26 360.455 372.249L129.314 304.909C122.857 303.028 119.148 296.268 121.029 289.812L146.9 201.012C148.781 194.555 155.54 190.846 161.997 192.727L172.578 195.81ZM401.63 274.352C401.57 274.623 401.5 274.893 401.422 275.164L375.551 363.963C375.47 364.241 375.38 364.514 375.282 364.782C375.381 364.515 375.471 364.242 375.552 363.964L401.423 275.164C401.501 274.894 401.57 274.623 401.63 274.352Z" fill="#3C9AEE"/>
<path fill-rule="evenodd" clip-rule="evenodd" d="M238.547 181.919C237.161 181.515 235.71 182.312 235.307 183.698L225.572 217.112L207.209 211.762L216.944 178.348C220.302 166.82 232.37 160.198 243.897 163.556L346.166 193.351C357.693 196.71 364.316 208.777 360.957 220.304L351.222 253.719L332.86 248.369L342.595 214.955C342.998 213.569 342.202 212.118 340.816 211.714L238.547 181.919Z" fill="#1C7ED6"/>
<path d="M180.14 304.655C182.021 298.199 188.78 294.49 195.237 296.371L197.505 297.032C203.962 298.913 207.671 305.672 205.79 312.128L197.703 339.888C195.822 346.345 189.063 350.054 182.606 348.173L180.337 347.512C173.881 345.631 170.172 338.872 172.053 332.415L180.14 304.655Z" fill="#DBE4FF"/>
<path d="M293.994 337.827C295.875 331.371 302.634 327.661 309.091 329.542L311.359 330.203C317.816 332.084 321.525 338.844 319.644 345.3L311.557 373.06C309.676 379.516 302.917 383.226 296.46 381.345L294.191 380.684C287.735 378.803 284.025 372.044 285.907 365.587L293.994 337.827Z" fill="#DBE4FF"/>
<path fill-rule="evenodd" clip-rule="evenodd" d="M122.863 300.366C124.095 302.067 125.772 303.462 127.787 304.351C128.277 304.568 128.787 304.754 129.315 304.908L127.758 304.455L107.859 372.754C105.978 379.21 109.687 385.969 116.144 387.85L327.018 449.287C333.475 451.168 340.234 447.458 342.115 441.002L362.011 372.712L362.013 372.703L360.456 372.249C360.984 372.403 361.514 372.519 362.044 372.6C364.221 372.931 366.385 372.657 368.338 371.883C371.714 370.547 374.459 367.72 375.553 363.964L401.424 275.164C403.305 268.707 399.596 261.948 393.139 260.067L352.797 248.314L360.958 220.304C364.316 208.776 357.694 196.709 346.166 193.351L243.897 163.556C232.37 160.197 220.303 166.819 216.944 178.347L208.784 206.357L161.998 192.727C155.541 190.846 148.782 194.555 146.901 201.012L121.03 289.812C119.936 293.567 120.734 297.425 122.863 300.366ZM120.359 307.056C115.201 302.442 112.845 295.116 114.91 288.028L140.78 199.228C143.646 189.391 153.944 183.74 163.781 186.606L204.446 198.453L210.824 176.564C215.167 161.656 230.773 153.091 245.681 157.435L347.95 187.23C362.857 191.573 371.422 207.179 367.078 222.087L360.701 243.976L394.923 253.946C404.76 256.812 410.411 267.11 407.545 276.947L381.674 365.747C379.609 372.835 373.686 377.75 366.857 378.871L348.236 442.785C345.37 452.622 335.072 458.273 325.235 455.407L114.36 393.971C104.523 391.105 98.872 380.807 101.738 370.97L120.359 307.056ZM240.376 189.091L335.422 216.782L330.097 235.06L235.051 207.369L240.376 189.091ZM236.764 188.039L236.769 188.041ZM227.147 211.707L235.307 183.697C235.711 182.311 237.162 181.515 238.548 181.918L340.817 211.713C342.202 212.117 342.999 213.568 342.595 214.954L334.434 242.964L227.147 211.707ZM336.474 213.171L336.472 213.177Z" fill="black"/>
<path fill-rule="evenodd" clip-rule="evenodd" d="M277.747 140.255L280.563 130.59L332.037 144.415L329.221 154.08C335.8 159.492 342.107 172.94 342.644 175.893C343.009 177.892 342.11 184.878 340.029 194.844L340.003 206.754C339.99 212.523 335.303 217.189 329.535 217.177C324.692 217.166 320.627 213.862 319.453 209.389L319.449 211.468C319.436 217.237 314.749 221.903 308.98 221.89C303.212 221.878 298.545 217.191 298.558 211.422L298.569 206.18L298.438 206.164L298.429 210.555C298.414 217.432 292.827 222.995 285.95 222.98C279.073 222.965 273.51 217.378 273.525 210.501L273.542 203.04L273.389 203.021C273.205 208.809 268.449 213.438 262.619 213.425C256.68 213.412 251.877 208.588 251.89 202.649L251.9 197.976C251.592 184.458 251.236 160.813 251.943 158.384C252.423 156.737 259.805 152.003 267.004 147.386L267.004 147.386L267.004 147.386L267.004 147.386L267.004 147.386C271.069 144.779 275.075 142.21 277.747 140.255Z" fill="#E9A2A2"/>
<path d="M277.299 113.343L344.957 133.055L340.264 149.164L272.606 129.452L277.299 113.343Z" fill="white"/>
<path d="M282.248 48.3752L372.459 74.6572L354.625 135.871L264.414 109.59L282.248 48.3752Z" fill="#101010"/>
<path fill-rule="evenodd" clip-rule="evenodd" d="M279.179 42.7863C280.661 41.9728 282.406 41.7815 284.029 42.2545L374.24 68.5364C377.62 69.5213 379.562 73.0601 378.577 76.4405L360.743 137.655C359.758 141.035 356.22 142.977 352.839 141.993L349.295 140.96L346.385 150.948C345.912 152.571 344.814 153.94 343.331 154.753C342.017 155.475 340.496 155.707 339.037 155.42C340.857 157.868 342.458 160.465 343.763 162.797C345.094 165.176 346.232 167.49 347.088 169.447C347.857 171.208 348.636 173.208 348.917 174.752C349.156 176.06 349.116 177.529 349.047 178.679C348.968 179.984 348.804 181.525 348.572 183.238C348.126 186.529 347.396 190.698 346.404 195.507L346.379 206.77C346.359 216.06 338.811 223.574 329.521 223.554C326.898 223.548 324.417 222.942 322.209 221.868C319.12 225.775 314.334 228.279 308.967 228.267C305.008 228.258 301.371 226.882 298.502 224.587C295.164 227.563 290.76 229.367 285.936 229.357C278.441 229.34 271.978 224.946 268.962 218.599C266.996 219.38 264.851 219.807 262.605 219.802C253.146 219.781 245.495 212.096 245.515 202.637L245.525 198.043C245.371 191.271 245.205 181.98 245.166 174.054C245.146 170.082 245.158 166.409 245.222 163.554C245.253 162.133 245.298 160.858 245.364 159.826C245.412 159.067 245.502 157.703 245.823 156.602C246.295 154.982 247.264 153.851 247.658 153.406C248.191 152.803 248.79 152.251 249.338 151.781C250.446 150.831 251.837 149.802 253.295 148.779C256.209 146.737 259.942 144.343 263.48 142.074L263.563 142.021L267.005 147.387C259.806 152.004 252.424 156.738 251.944 158.385C251.236 160.815 251.592 184.459 251.901 197.978L251.891 202.651C251.878 208.589 256.681 213.414 262.619 213.427C264.273 213.43 265.841 213.06 267.242 212.396C268.268 211.91 269.206 211.266 270.023 210.495C271.557 209.046 272.666 207.15 273.14 205.015C273.282 204.377 273.367 203.717 273.389 203.041C273.389 203.035 273.39 203.028 273.39 203.022L273.542 203.041L273.526 210.502C273.522 212.136 273.833 213.697 274.402 215.128C276.228 219.719 280.707 222.97 285.95 222.981C289.19 222.988 292.144 221.758 294.363 219.734C296.656 217.645 298.165 214.711 298.398 211.423C298.418 211.137 298.429 210.848 298.429 210.557L298.439 206.165L298.57 206.182L298.559 211.423C298.551 214.731 300.083 217.684 302.478 219.603C304.26 221.03 306.52 221.886 308.981 221.892C312.258 221.899 315.186 220.396 317.106 218.04C318.566 216.248 319.444 213.961 319.449 211.469L319.454 209.391C319.645 210.118 319.912 210.815 320.247 211.471C321.303 213.543 323.03 215.215 325.143 216.202C326.478 216.825 327.966 217.175 329.535 217.178C335.304 217.191 339.991 212.525 340.004 206.756L340.03 194.845C342.111 184.879 343.009 177.894 342.645 175.894C342.107 172.941 335.801 159.493 329.222 154.082L331.406 146.584L340.264 149.164L344.957 133.056L354.622 135.872L372.457 74.6573L282.246 48.3754L264.412 109.59L277.299 113.344L272.606 129.453L280.247 131.679L277.748 140.257C275.076 142.211 271.07 144.781 267.005 147.387L263.563 142.021C266.826 139.928 269.887 137.963 272.249 136.338L272.343 136.017L270.823 135.574C267.443 134.589 265.501 131.05 266.485 127.67L269.395 117.682L262.629 115.711C261.005 115.238 259.636 114.139 258.823 112.657C258.009 111.175 257.818 109.43 258.291 107.806L276.125 46.5921C276.598 44.9688 277.697 43.5998 279.179 42.7863Z" fill="black"/>
<path fill-rule="evenodd" clip-rule="evenodd" d="M161.798 141.349C159.958 148.899 162.87 158.024 170.701 163.162C172.172 164.128 172.583 166.104 171.617 167.576C170.651 169.048 168.675 169.458 167.203 168.492C157.022 161.812 153.152 149.898 155.604 139.839C156.838 134.774 159.691 130.117 164.2 126.874C168.722 123.622 174.693 121.945 181.895 122.463C189.01 122.975 194.258 125.273 197.582 128.905C200.929 132.563 201.966 137.185 201.378 141.551C200.238 150.009 192.809 158.378 182.726 158.378C179.208 158.378 176.303 157.386 174.176 155.558C172.057 153.739 170.966 151.309 170.686 148.912C170.169 144.491 172.51 138.877 177.905 137.874C180.63 137.367 183.031 137.726 184.895 138.515C185.818 138.905 186.642 139.415 187.311 140.01C187.924 140.556 188.636 141.376 188.959 142.459C189.463 144.145 188.504 145.921 186.817 146.426C185.286 146.883 183.68 146.135 183.021 144.73C182.91 144.643 182.711 144.513 182.411 144.386C181.715 144.092 180.584 143.86 179.071 144.142C178.109 144.32 176.741 145.797 177.018 148.172C177.136 149.174 177.568 150.068 178.33 150.722C179.083 151.369 180.417 152.003 182.726 152.003C189.092 152.003 194.272 146.544 195.059 140.7C195.435 137.916 194.765 135.27 192.879 133.21C190.971 131.125 187.462 129.256 181.438 128.822C175.501 128.395 171.062 129.791 167.922 132.05C164.77 134.317 162.709 137.609 161.798 141.349ZM183.123 144.823C183.122 144.823 183.114 144.815 183.101 144.799C183.117 144.814 183.124 144.823 183.123 144.823Z" fill="#FFF1C1"/>
<path fill-rule="evenodd" clip-rule="evenodd" d="M403.316 320.332L321.241 308.321L317.354 334.884L368.777 342.409L287.992 395.425L266.756 361.697C264.832 358.641 261.758 356.489 258.228 355.728C254.698 354.966 251.01 355.659 247.997 357.65L142.837 427.131L157.636 449.529L251.349 387.612L272.562 421.304C274.482 424.353 277.548 426.503 281.069 427.268C284.591 428.034 288.272 427.351 291.285 425.374L384.188 364.406L378.067 415.826L404.725 419L414.701 335.2C415.561 327.978 410.512 321.385 403.316 320.332Z" fill="#FB835D"/>
<path fill-rule="evenodd" clip-rule="evenodd" d="M314.933 307.399C315.443 303.915 318.68 301.504 322.164 302.014L404.239 314.025C414.853 315.578 422.3 325.303 421.032 335.955L411.055 419.755C410.639 423.251 407.467 425.748 403.971 425.332L377.313 422.158C375.634 421.958 374.103 421.1 373.058 419.771C372.012 418.442 371.536 416.753 371.736 415.074L376.239 377.25L294.783 430.705C290.339 433.621 284.909 434.628 279.715 433.499C274.521 432.37 269.999 429.2 267.167 424.701L249.426 396.525L161.15 454.849C158.213 456.79 154.258 455.982 152.317 453.045L137.518 430.646C136.586 429.235 136.252 427.512 136.59 425.855C136.929 424.199 137.912 422.745 139.322 421.812L244.483 352.331C248.927 349.395 254.366 348.374 259.572 349.497C264.779 350.62 269.313 353.794 272.151 358.301L289.925 386.531L351.248 346.288L316.431 341.193C314.758 340.948 313.25 340.049 312.241 338.693C311.231 337.337 310.801 335.635 311.046 333.962L314.933 307.399ZM368.777 342.41L287.992 395.426L266.756 361.698C264.832 358.642 261.758 356.49 258.228 355.729C254.698 354.967 251.01 355.66 247.997 357.651L142.837 427.132L157.636 449.53L251.348 387.613L272.562 421.305C274.482 424.354 277.548 426.504 281.069 427.269C284.591 428.035 288.272 427.352 291.285 425.375L384.188 364.407L378.067 415.827L404.725 419.001L414.701 335.201C415.561 327.979 410.512 321.386 403.316 320.333L321.241 308.322L317.354 334.885L368.777 342.41Z" fill="black"/>
<circle cx="398.356" cy="172.695" r="25.5015" fill="black"/>
<path fill-rule="evenodd" clip-rule="evenodd" d="M404.728 153.756C404.68 143.713 402.445 135.626 399.695 135.626C396.945 135.626 394.71 143.714 394.662 153.757C389.6 145.083 383.62 139.196 381.238 140.571C378.856 141.947 380.965 150.068 385.945 158.789C377.224 153.809 369.102 151.701 367.727 154.083C366.352 156.464 372.238 162.444 380.912 167.506C370.869 167.554 362.781 169.789 362.781 172.539C362.781 175.289 370.868 177.524 380.91 177.572C372.237 182.634 366.351 188.613 367.726 190.995C369.102 193.377 377.224 191.269 385.946 186.288C380.965 195.009 378.857 203.131 381.239 204.507C383.62 205.882 389.6 199.995 394.662 191.322C394.71 201.365 396.945 209.453 399.695 209.453C402.445 209.453 404.68 201.366 404.728 191.323C409.79 199.996 415.769 205.882 418.151 204.507C420.533 203.132 418.424 195.01 413.444 186.288C422.165 191.269 430.288 193.378 431.663 190.996C433.038 188.614 427.152 182.635 418.479 177.572C428.521 177.525 436.608 175.289 436.608 172.539C436.608 169.789 428.521 167.554 418.478 167.506C427.152 162.444 433.038 156.465 431.663 154.083C430.288 151.701 422.166 153.809 413.445 158.79C418.425 150.068 420.533 141.947 418.151 140.571C415.77 139.196 409.79 145.083 404.728 153.756Z" fill="#FB835D"/>
<path d="M413.118 172.539C413.118 179.953 407.108 185.962 399.695 185.962C392.282 185.962 386.272 179.953 386.272 172.539C386.272 165.126 392.282 159.116 399.695 159.116C407.108 159.116 413.118 165.126 413.118 172.539Z" fill="#B58254"/>
<path d="M389.18 203.956C390.153 203 391.159 201.878 392.171 200.621C392.419 202.216 392.729 203.69 393.093 205.005C393.589 206.793 394.235 208.47 395.085 209.774C395.848 210.943 397.336 212.64 399.695 212.64C402.054 212.64 403.542 210.943 404.305 209.774C405.155 208.47 405.801 206.794 406.297 205.006C406.661 203.69 406.971 202.216 407.22 200.622C408.232 201.879 409.237 203 410.21 203.957C411.534 205.258 412.931 206.387 414.32 207.09C415.564 207.721 417.702 208.447 419.745 207.268C421.788 206.088 422.228 203.874 422.304 202.48C422.389 200.926 422.109 199.151 421.645 197.354C421.303 196.033 420.834 194.601 420.252 193.096C421.757 193.679 423.189 194.147 424.51 194.489C426.307 194.954 428.082 195.233 429.636 195.149C431.03 195.073 433.244 194.633 434.424 192.59C435.604 190.547 434.877 188.409 434.246 187.164C433.543 185.776 432.413 184.378 431.113 183.055C430.156 182.082 429.034 181.076 427.778 180.064C429.372 179.816 430.846 179.506 432.161 179.141C433.949 178.646 435.626 178 436.93 177.149C438.098 176.387 439.796 174.899 439.796 172.539C439.796 170.18 438.098 168.692 436.93 167.93C435.626 167.079 433.949 166.433 432.161 165.938C430.846 165.573 429.372 165.263 427.777 165.015C429.034 164.003 430.156 162.997 431.112 162.024C432.413 160.701 433.542 159.303 434.246 157.915C434.877 156.67 435.603 154.532 434.423 152.489C433.244 150.446 431.029 150.006 429.636 149.93C428.082 149.846 426.307 150.125 424.51 150.59C423.189 150.931 421.757 151.4 420.252 151.982C420.835 150.477 421.303 149.046 421.645 147.724C422.11 145.928 422.389 144.153 422.304 142.598C422.228 141.205 421.789 138.991 419.745 137.811C417.702 136.631 415.565 137.358 414.32 137.989C412.932 138.692 411.534 139.822 410.211 141.122C409.237 142.079 408.232 143.201 407.22 144.457C406.971 142.863 406.661 141.389 406.297 140.074C405.801 138.286 405.155 136.609 404.305 135.305C403.542 134.136 402.054 132.439 399.695 132.439C397.336 132.439 395.848 134.136 395.085 135.305C394.235 136.609 393.589 138.286 393.093 140.074C392.729 141.389 392.419 142.863 392.171 144.458C391.158 143.201 390.153 142.079 389.18 141.122C387.856 139.822 386.458 138.692 385.07 137.989C383.825 137.358 381.688 136.631 379.644 137.811C377.601 138.991 377.162 141.205 377.086 142.598C377.001 144.153 377.28 145.928 377.745 147.724C378.087 149.046 378.555 150.477 379.137 151.982C377.633 151.4 376.201 150.931 374.88 150.589C373.083 150.124 371.308 149.845 369.754 149.93C368.361 150.006 366.146 150.446 364.966 152.489C363.787 154.532 364.513 156.67 365.144 157.914C365.848 159.303 366.977 160.701 368.278 162.024C369.235 162.997 370.356 164.003 371.613 165.015C370.019 165.263 368.544 165.573 367.229 165.938C365.441 166.433 363.764 167.079 362.46 167.93C361.292 168.692 359.594 170.18 359.594 172.539C359.594 174.898 361.291 176.387 362.46 177.149C363.764 178 365.44 178.645 367.228 179.141C368.544 179.506 370.018 179.816 371.612 180.064C370.355 181.076 369.234 182.081 368.277 183.055C366.976 184.378 365.847 185.776 365.143 187.164C364.513 188.409 363.786 190.546 364.966 192.589L366.97 191.432L364.966 192.589C366.146 194.632 368.36 195.072 369.754 195.148C371.308 195.233 373.083 194.954 374.88 194.489C376.201 194.147 377.633 193.678 379.138 193.096C378.556 194.601 378.087 196.032 377.745 197.354C377.281 199.15 377.001 200.925 377.086 202.48C377.162 203.873 377.602 206.088 379.645 207.267C381.688 208.447 383.826 207.721 385.07 207.09C386.459 206.386 387.856 205.257 389.18 203.956Z" stroke="black" stroke-width="6.37537"/>
</svg>
