<svg width="512" height="512" viewBox="0 0 512 512" fill="none" xmlns="http://www.w3.org/2000/svg">
<mask id="path-1-outside-1_39_555" maskUnits="userSpaceOnUse" x="46.4707" y="49" width="409" height="421" fill="black">
<rect fill="white" x="46.4707" y="49" width="409" height="421"/>
<path fill-rule="evenodd" clip-rule="evenodd" d="M229.766 62C186.142 62.0003 93.0368 86.6983 105.875 181.567C116.344 258.934 106.457 273 69.231 322.233C32.0054 371.467 102.385 498.195 261.175 443.558C292.632 432.735 321.306 416.047 346.084 395.7C352.049 396.316 357.641 392.343 358.915 386.345L359.397 384.075C363.446 380.318 367.371 376.463 371.166 372.521L379.005 380.091L379.007 380.093L386.218 387.057L412.556 359.783L405.343 352.817L395.675 343.481C446.193 274.865 459.952 190.995 412.986 139.366C351.563 71.846 268.155 62.0001 229.766 62ZM423.379 370.236L397.041 397.51L386.221 387.061L412.559 359.787L423.379 370.236Z"/>
</mask>
<path fill-rule="evenodd" clip-rule="evenodd" d="M229.766 62C186.142 62.0003 93.0368 86.6983 105.875 181.567C116.344 258.934 106.457 273 69.231 322.233C32.0054 371.467 102.385 498.195 261.175 443.558C292.632 432.735 321.306 416.047 346.084 395.7C352.049 396.316 357.641 392.343 358.915 386.345L359.397 384.075C363.446 380.318 367.371 376.463 371.166 372.521L379.005 380.091L379.007 380.093L386.218 387.057L412.556 359.783L405.343 352.817L395.675 343.481C446.193 274.865 459.952 190.995 412.986 139.366C351.563 71.846 268.155 62.0001 229.766 62ZM423.379 370.236L397.041 397.51L386.221 387.061L412.559 359.787L423.379 370.236Z" fill="#0E0E0E"/>
<path d="M105.875 181.567L93.3498 183.262L93.3498 183.262L105.875 181.567ZM229.766 62L229.766 49.3609L229.766 49.3609L229.766 62ZM69.231 322.233L79.3126 329.856L79.3126 329.856L69.231 322.233ZM261.175 443.558L257.063 431.607L257.063 431.607L261.175 443.558ZM346.084 395.7L347.382 383.128C344.026 382.781 340.67 383.791 338.063 385.932L346.084 395.7ZM358.915 386.345L371.278 388.971L371.278 388.971L358.915 386.345ZM359.397 384.075L350.8 374.81C348.89 376.582 347.575 378.901 347.033 381.45L359.397 384.075ZM371.166 372.521L379.946 363.429C377.532 361.099 374.291 359.823 370.936 359.884C367.582 359.945 364.389 361.338 362.061 363.755L371.166 372.521ZM379.005 380.091L370.225 389.182C370.398 389.35 370.576 389.512 370.759 389.67L379.005 380.091ZM379.007 380.093L387.787 371.001C387.613 370.833 387.435 370.671 387.252 370.514L379.007 380.093ZM386.218 387.057L377.438 396.148C379.849 398.477 383.087 399.752 386.438 399.694C389.79 399.635 392.981 398.248 395.31 395.836L386.218 387.057ZM412.556 359.783L421.648 368.563C426.497 363.541 426.357 355.54 421.336 350.691L412.556 359.783ZM405.343 352.817L414.122 343.725L414.122 343.725L405.343 352.817ZM395.675 343.481L385.497 335.987C381.743 341.086 382.341 348.175 386.895 352.573L395.675 343.481ZM412.986 139.366L403.636 147.871L403.636 147.871L412.986 139.366ZM397.041 397.51L388.261 406.601C390.673 408.93 393.91 410.205 397.262 410.147C400.613 410.088 403.804 408.701 406.133 406.29L397.041 397.51ZM423.379 370.236L432.471 379.016C437.32 373.995 437.18 365.993 432.159 361.144L423.379 370.236ZM386.221 387.061L377.129 378.281C372.28 383.302 372.42 391.304 377.441 396.153L386.221 387.061ZM412.559 359.787L421.339 350.695C418.928 348.367 415.69 347.091 412.338 347.15C408.987 347.208 405.796 348.596 403.467 351.007L412.559 359.787ZM118.4 179.872C115.485 158.335 118.654 141.554 125.051 128.384C131.483 115.142 141.566 104.763 153.645 96.7331C178.15 80.4417 209.695 74.6392 229.766 74.6391L229.766 49.3609C206.213 49.3611 169.394 55.9077 139.65 75.6825C124.604 85.6853 111.091 99.2689 102.313 117.339C93.5005 135.482 89.8453 157.365 93.3498 183.262L118.4 179.872ZM79.3126 329.856C97.5796 305.697 110.948 288.018 117.542 266.09C124.189 243.987 123.67 218.818 118.4 179.872L93.3498 183.262C98.5491 221.682 98.3209 242.23 93.3349 258.81C88.2963 275.566 78.1079 289.537 59.1493 314.611L79.3126 329.856ZM257.063 431.607C181.355 457.657 129.206 439.921 100.381 412.664C85.7205 398.801 76.821 382.286 73.5467 366.997C70.2448 351.58 72.8 338.47 79.3126 329.856L59.1493 314.611C47.0491 330.614 44.4421 351.807 48.829 372.291C53.2433 392.903 64.8833 413.887 83.0132 431.031C119.769 465.787 182.205 484.097 265.287 455.51L257.063 431.607ZM338.063 385.932C314.349 405.406 286.981 421.313 257.063 431.607L265.287 455.51C298.283 444.157 328.263 426.688 354.105 405.468L338.063 385.932ZM346.551 383.719C346.59 383.536 346.714 383.361 346.85 383.262C346.974 383.173 347.165 383.105 347.382 383.128L344.786 408.272C357.109 409.544 368.648 401.356 371.278 388.971L346.551 383.719ZM347.033 381.45L346.551 383.719L371.278 388.971L371.76 386.701L347.033 381.45ZM362.061 363.755C358.43 367.526 354.674 371.215 350.8 374.81L367.994 393.34C372.217 389.421 376.312 385.4 380.271 381.288L362.061 363.755ZM387.784 370.999L379.946 363.429L362.386 381.613L370.225 389.182L387.784 370.999ZM387.252 370.514L387.25 370.511L370.759 389.67L370.762 389.672L387.252 370.514ZM394.998 377.965L387.787 371.001L370.227 389.184L377.438 396.148L394.998 377.965ZM403.464 351.003L377.126 378.277L395.31 395.836L421.648 368.563L403.464 351.003ZM396.563 361.909L403.776 368.875L421.336 350.691L414.122 343.725L396.563 361.909ZM386.895 352.573L396.563 361.909L414.122 343.725L404.455 334.389L386.895 352.573ZM403.636 147.871C444.452 192.739 434.692 269.168 385.497 335.987L405.853 350.974C457.694 280.561 475.452 189.251 422.335 130.861L403.636 147.871ZM229.766 74.6391C266.648 74.6392 345.709 84.193 403.636 147.871L422.335 130.861C357.418 59.499 269.662 49.361 229.766 49.3609L229.766 74.6391ZM406.133 406.29L432.471 379.016L414.287 361.456L387.949 388.73L406.133 406.29ZM377.441 396.153L388.261 406.601L405.821 388.418L395.001 377.969L377.441 396.153ZM403.467 351.007L377.129 378.281L395.313 395.841L421.651 368.567L403.467 351.007ZM432.159 361.144L421.339 350.695L403.779 368.879L414.599 379.328L432.159 361.144Z" fill="white" mask="url(#path-1-outside-1_39_555)"/>
<path d="M229.766 58.8402C207.519 58.8404 172.677 65.1079 144.898 83.5765C130.965 92.8396 118.738 105.221 110.84 121.481C102.933 137.759 99.4603 157.728 102.744 181.99C107.969 220.608 108.021 242.889 102.413 261.54C96.7906 280.235 85.4098 295.597 66.7105 320.328C56.7057 333.56 54.1181 351.722 58.0981 370.306C62.0849 388.922 72.6972 408.23 89.5262 424.143C123.308 456.087 181.886 474.182 262.203 446.546C334.585 421.641 392.349 366.092 422.355 306.063C452.31 246.137 454.961 180.813 415.323 137.24C353.027 68.7593 268.532 58.8403 229.766 58.8402Z" fill="#7B80FD" stroke="black" stroke-width="6.31955" stroke-linecap="round" stroke-linejoin="round"/>
<path d="M128.986 401.676C91.0687 370.263 163.476 337.869 195.499 320.519C231.217 315.262 297.507 310.424 328.052 349.539C366.233 398.434 293.06 412.268 268.016 401.676C195.499 371.004 153.331 421.845 128.986 401.676Z" fill="white" fill-opacity="0.2"/>
<path d="M253.796 93.5985C279.074 106.257 266.435 128.356 236.417 148.895C198.5 169.433 126.176 203.417 126.176 153.788C126.177 122.037 153.849 98.3556 179.541 89.4501C214.299 77.4024 236.417 84.8957 253.796 93.5985Z" fill="white" fill-opacity="0.2"/>
<path d="M164.002 142.915C162.295 142.552 160.617 143.642 160.255 145.349L119.855 335.577C118.129 343.705 123.318 351.692 131.445 353.418L344.165 398.595C352.292 400.321 360.28 395.131 362.006 387.004L402.406 196.776C402.768 195.069 401.678 193.391 399.971 193.029L164.002 142.915Z" fill="#F1F3F5" stroke="black" stroke-width="6.31955" stroke-linejoin="round"/>
<path fill-rule="evenodd" clip-rule="evenodd" d="M182.799 110.863C176.379 109.499 170.069 113.598 168.705 120.019L162.318 150.093L398.49 200.25L404.877 170.176C406.24 163.755 402.141 157.446 395.721 156.082L182.799 110.863ZM215.928 145.343C221.049 146.43 226.082 143.16 227.17 138.039C228.257 132.918 224.988 127.885 219.867 126.798C214.746 125.71 209.712 128.98 208.625 134.101C207.537 139.222 210.807 144.255 215.928 145.343ZM260.699 145.158C259.612 150.279 254.579 153.549 249.458 152.461C244.337 151.374 241.067 146.341 242.154 141.22C243.242 136.098 248.275 132.829 253.396 133.916C258.517 135.004 261.787 140.037 260.699 145.158ZM286.548 160.339C291.669 161.427 296.702 158.157 297.79 153.036C298.877 147.915 295.607 142.882 290.486 141.794C285.365 140.706 280.332 143.976 279.245 149.097C278.157 154.218 281.427 159.252 286.548 160.339ZM334.88 160.914C333.793 166.035 328.759 169.304 323.638 168.217C318.517 167.129 315.247 162.096 316.335 156.975C317.423 151.854 322.456 148.584 327.577 149.672C332.698 150.759 335.968 155.793 334.88 160.914ZM357.636 175.437C362.758 176.525 367.791 173.255 368.878 168.134C369.966 163.013 366.696 157.98 361.575 156.892C356.454 155.805 351.421 159.075 350.333 164.196C349.246 169.317 352.515 174.35 357.636 175.437Z" fill="#FA5252"/>
<path d="M397.833 203.34L400.924 203.997L401.581 200.906L407.968 170.832C409.694 162.705 404.504 154.717 396.377 152.991L183.455 107.772C175.328 106.046 167.34 111.235 165.614 119.362L159.227 149.436L158.571 152.527L161.662 153.183L397.833 203.34Z" stroke="black" stroke-width="6.31955"/>
<rect x="217.358" y="105.876" width="12.6391" height="34.7575" rx="6.31955" transform="rotate(11.9901 217.358 105.876)" fill="#212529"/>
<rect x="251.357" y="113.096" width="12.6391" height="34.7575" rx="6.31955" transform="rotate(11.9901 251.357 113.096)" fill="#212529"/>
<rect x="288.447" y="120.974" width="12.6391" height="34.7575" rx="6.31955" transform="rotate(11.9901 288.447 120.974)" fill="#212529"/>
<rect x="325.537" y="128.852" width="12.6391" height="34.7575" rx="6.31955" transform="rotate(11.9901 325.537 128.852)" fill="#212529"/>
<rect x="359.539" y="136.072" width="12.6391" height="34.7575" rx="6.31955" transform="rotate(11.9901 359.539 136.072)" fill="#212529"/>
<path d="M251.02 198.481L351.8 219.877" stroke="#8F8F8F" stroke-opacity="0.56" stroke-width="9.83889" stroke-linecap="round" stroke-linejoin="round"/>
<path d="M247.033 217.254L314.936 231.671" stroke="#8F8F8F" stroke-opacity="0.56" stroke-width="9.83889" stroke-linecap="round" stroke-linejoin="round"/>
<rect x="198.782" y="182.612" width="31.5951" height="31.5951" rx="5.94201" transform="rotate(11.9863 198.782 182.612)" fill="#51CF66"/>
<rect x="187.226" y="237.031" width="31.5951" height="31.5951" rx="5.94201" transform="rotate(11.9863 187.226 237.031)" fill="#51CF66"/>
<path d="M239.176 254.271L355.996 279.073" stroke="#8F8F8F" stroke-opacity="0.56" stroke-width="9.83889" stroke-linecap="round" stroke-linejoin="round"/>
<path d="M235.19 273.047L313.902 289.758" stroke="#8F8F8F" stroke-opacity="0.56" stroke-width="9.83889" stroke-linecap="round" stroke-linejoin="round"/>
<rect x="175.648" y="291.572" width="31.5951" height="31.5951" rx="5.94201" transform="rotate(11.9863 175.648 291.572)" fill="#51CF66"/>
<path d="M227.596 308.811L293.086 322.715" stroke="#8F8F8F" stroke-opacity="0.56" stroke-width="9.83889" stroke-linecap="round" stroke-linejoin="round"/>
<path d="M223.609 327.587L319.576 347.962" stroke="#8F8F8F" stroke-opacity="0.56" stroke-width="9.83889" stroke-linecap="round" stroke-linejoin="round"/>
<path d="M199.297 198.635L205.444 208.889L224.791 191.365" stroke="#3A3A3A" stroke-width="9.83889" stroke-linecap="round" stroke-linejoin="round"/>
<path d="M176.138 307.713L182.285 317.966L201.633 300.442" stroke="#3A3A3A" stroke-width="9.83889" stroke-linecap="round" stroke-linejoin="round"/>
<circle cx="119.999" cy="352.777" r="46.7264" transform="rotate(-19.1211 119.999 352.777)" fill="#60ABF5" stroke="white" stroke-width="8.24584"/>
<path d="M113.545 336.45L120.606 356.817L138.551 364.911" stroke="#F8F9FA" stroke-width="8.76576" stroke-linecap="round"/>
<rect x="405.642" y="353.104" width="37.9159" height="143.007" transform="rotate(134 405.642 353.104)" fill="#FFBD3E"/>
<rect x="405.642" y="353.104" width="10.8331" height="143.007" transform="rotate(134 405.642 353.104)" fill="#FFD88C"/>
<rect x="386.831" y="372.584" width="10.8331" height="143.007" transform="rotate(134 386.831 372.584)" fill="#FFBD3E"/>
<rect width="16.2497" height="143.007" transform="matrix(0.694658 -0.71934 -0.71934 -0.694658 386.831 372.584)" fill="#FFCA63"/>
<path d="M405.642 353.104L379.303 380.378L386.394 387.226L412.733 359.952L405.642 353.104Z" fill="#F1F1F1"/>
<path d="M423.379 370.234L397.041 397.508L386.399 387.232L412.738 359.957L423.379 370.234Z" fill="#F0A6A6"/>
<path d="M262.334 241.069L276.44 281.046L302.779 253.771L262.334 241.069Z" fill="#FFBD3E"/>
<path d="M262.334 241.071L276.44 281.048L276.306 273.389L283.965 273.255L285.713 263.647L295.254 261.565L295.12 253.906L302.779 253.772L262.334 241.071Z" fill="#FFF7E9"/>
<path d="M262.362 241.096L271.175 243.864L265.436 249.807L262.362 241.096Z" fill="#727272"/>
<path fill-rule="evenodd" clip-rule="evenodd" d="M272.111 285.651C271.386 284.97 270.82 284.116 270.478 283.148L256.372 243.17C255.576 240.913 256.123 238.399 257.786 236.678C259.449 234.956 261.942 234.321 264.225 235.038L269.281 236.626L304.671 247.74C305.655 248.049 306.531 248.588 307.238 249.293L417.126 355.411C417.156 355.44 417.186 355.469 417.215 355.498L427.765 365.686C430.275 368.11 430.345 372.111 427.92 374.622L401.582 401.896C399.157 404.407 395.157 404.477 392.646 402.052L382.003 391.774C381.973 391.746 381.944 391.716 381.914 391.687L272.111 285.651ZM276.439 281.044L280.984 285.434L386.394 387.228L397.036 397.506L423.375 370.232L412.735 359.957L307.323 258.16L302.777 253.77L295.252 261.563L276.439 281.044ZM276.439 281.044L262.332 241.068L302.777 253.77L295.252 261.563L276.439 281.044Z" fill="black"/>
<path fill-rule="evenodd" clip-rule="evenodd" d="M102.299 287.995L104.301 293.494L107.109 292.472L111.432 304.349L93.6165 310.833L89.2937 298.956L92.4241 297.817L90.4225 292.318L102.299 287.995ZM133.914 298.727L118.356 295.984L116.709 305.319L132.268 308.063L133.914 298.727Z" fill="#FFD88C"/>
<path fill-rule="evenodd" clip-rule="evenodd" d="M104.411 282.41C105.977 283.09 107.202 284.374 107.806 285.971L107.89 286.194C108.571 286.278 109.239 286.472 109.868 286.777C111.405 287.52 112.576 288.854 113.114 290.475L113.768 292.446C114.211 291.831 114.766 291.294 115.412 290.868C116.825 289.934 118.554 289.606 120.211 289.959L135.151 293.138C138.15 293.776 140.202 296.447 140.156 299.41C155.345 305.147 167.989 317.342 173.73 333.899C183.99 363.493 168.316 395.801 138.723 406.061C109.129 416.321 76.8215 400.648 66.5615 371.054C58.3326 347.319 66.7846 321.851 85.7111 307.397L83.5395 300.854C82.8134 298.666 83.3492 296.357 84.7597 294.726C83.7494 291.605 85.3032 288.201 88.369 286.94L99.4909 282.363C101.07 281.714 102.844 281.731 104.411 282.41ZM90.7736 292.784L92.646 297.732L89.5374 298.863L93.1944 309.882C73.8453 322.102 64.7131 346.43 72.5324 368.984C81.6491 395.28 110.357 409.207 136.653 400.09C162.949 390.973 176.875 362.266 167.759 335.97C162.048 319.497 148.649 307.878 132.971 303.737L133.836 299.319L118.896 296.14L117.724 302.128C117.689 302.13 117.655 302.132 117.62 302.133C115.289 302.251 112.947 302.534 110.608 302.987L107.116 292.465L103.944 293.62L101.896 288.207L90.7736 292.784Z" fill="black"/>
<circle cx="120.244" cy="352.765" r="46.4514" transform="rotate(-19.1211 120.244 352.765)" stroke="white" stroke-width="8.24584"/>
</svg>
