<svg width="512" height="512" viewBox="0 0 512 512" fill="none" xmlns="http://www.w3.org/2000/svg">
<path d="M245.172 94.3693C225.712 103.576 211.624 104.314 195.309 105.168C192.323 105.325 189.262 105.485 186.08 105.702C165.167 107.127 141.096 111.067 103.541 132.485C64.5014 154.75 41.9198 201.785 40.1118 247.599C38.2977 293.566 57.3937 340.31 104.173 360.645C130.383 372.038 142.61 385.621 154.8 399.164C159.786 404.703 164.766 410.235 170.694 415.608C180.792 424.761 192.983 432.467 211.533 437.105C229.882 441.693 254.211 443.221 288.566 440.545C373.021 433.966 420.077 376.86 441.109 314.106C451.612 282.765 455.736 249.802 454.899 220.484C454.066 191.307 448.297 165.095 438.426 147.582C405.006 88.2857 319.515 59.1948 245.172 94.3693Z" fill="#FFD25E" stroke="white" stroke-width="13.0712" stroke-linecap="square" stroke-linejoin="round"/>
<mask id="path-2-outside-1_39_670" maskUnits="userSpaceOnUse" x="44.627" y="73.3054" width="433" height="335" fill="black">
<rect fill="white" x="44.627" y="73.3054" width="433" height="335"/>
<path d="M190.903 87.707C193.389 88.7786 194.536 91.6626 193.464 94.1486L185.531 112.554C184.46 115.04 181.576 116.186 179.089 115.115C176.603 114.043 175.457 111.159 176.528 108.673L184.462 90.2681C185.533 87.7821 188.417 86.6355 190.903 87.707Z"/>
<path d="M142.202 93.1C144.574 91.796 147.555 92.6622 148.859 95.0346L159.124 113.71C160.428 116.083 159.561 119.063 157.189 120.367C154.817 121.671 151.836 120.805 150.532 118.432L140.268 99.7566C138.964 97.3842 139.83 94.404 142.202 93.1Z"/>
<path d="M224.21 120.122C225.299 122.6 224.172 125.492 221.694 126.581L202.295 135.102C199.817 136.191 196.925 135.064 195.836 132.585C194.747 130.107 195.874 127.215 198.353 126.126L217.751 117.605C220.23 116.516 223.122 117.643 224.21 120.122Z"/>
<path d="M194.544 157.466C195.572 154.962 198.436 153.765 200.94 154.792L220.534 162.833C223.038 163.861 224.235 166.724 223.207 169.229C222.18 171.733 219.316 172.93 216.812 171.903L197.218 163.862C194.714 162.834 193.517 159.971 194.544 157.466Z"/>
<path d="M114.373 186.967C115.404 188.617 114.903 190.789 113.254 191.82C106.33 196.147 97.3217 203.486 88.9417 211.755C80.5399 220.046 73.0237 229.022 68.8939 236.558C66.8107 240.359 65.7762 243.462 65.677 245.745C65.5883 247.786 66.2131 248.957 67.5524 249.797C69.2185 250.842 72.4543 251.646 78.2002 251.302C83.8473 250.965 91.4503 249.55 101.412 246.704C126.849 239.436 148.439 236.104 165.449 235.759C167.149 235.725 168.808 235.72 170.426 235.744L178.355 206.525C181.468 195.055 191.879 187.092 203.764 187.092H270.592L270.638 186.925L285.74 131.816C286.215 130.081 286.858 128.426 287.648 126.867C283.613 124 281.54 118.692 283.271 113.499L283.696 112.223C285.302 107.406 289.81 104.157 294.887 104.157C300.498 104.157 304.959 107.987 306.287 112.894C307.863 112.6 309.483 112.447 311.131 112.447H384.505C401.878 112.447 414.488 128.977 409.896 145.733L398.562 187.092H425.042L406.409 253.76C409.179 255.501 411.362 258.052 412.666 261.031L433.331 187.092H447.999C458.893 187.092 466.81 197.444 463.957 207.958L440.942 292.766C437.829 304.236 427.418 312.198 415.533 312.198H402.409L389.551 359.342C397.826 356.874 403.822 352.894 408.018 348.723L403.969 347.668C401.14 346.931 400.389 343.268 402.699 341.478L408.085 337.304C409.003 336.592 409.511 335.472 409.442 334.312L409.039 327.51C408.866 324.593 412.118 322.746 414.534 324.39L420.168 328.222C421.129 328.876 422.351 329.013 423.433 328.589L429.777 326.104C432.498 325.037 435.259 327.559 434.443 330.366L432.539 336.908C432.214 338.024 432.461 339.228 433.199 340.127L437.523 345.392C439.378 347.651 437.833 351.056 434.911 351.146L428.101 351.358C426.939 351.394 425.87 352.001 425.244 352.98L421.573 358.719C419.998 361.182 416.282 360.764 415.293 358.014L413.544 353.151C407.817 359.051 399.33 364.492 387.416 367.171L384.971 376.137C384.419 378.159 383.499 380.005 382.294 381.607C384.393 390.636 373.425 394.292 373.425 394.292H118.52C99.8689 394.292 89.5069 377.713 89.5069 377.713L60.4934 336.265V326.09C60.2877 320.707 64.4818 315.541 70.6308 315.541H115.506L129.771 263.236C131.694 256.187 138.096 251.297 145.402 251.297H166.205L168.519 242.771C167.563 242.77 166.587 242.78 165.592 242.8C149.329 243.13 128.355 246.33 103.347 253.475C93.1297 256.394 84.9797 257.952 78.6205 258.332C72.3602 258.707 67.3367 257.974 63.8118 255.764C59.9602 253.349 58.4624 249.549 58.6411 245.439C58.8093 241.571 60.4323 237.344 62.718 233.173C67.3262 224.765 75.3941 215.229 83.9952 206.742C92.6182 198.233 102.031 190.529 109.521 185.848C111.17 184.817 113.343 185.318 114.373 186.967Z"/>
<path d="M83.8273 303.995C84.8737 305.75 87.4795 305.54 88.231 303.64L91.2857 295.916C91.5845 295.16 92.237 294.601 93.0293 294.421L101.128 292.58C103.121 292.127 103.726 289.584 102.151 288.282L95.7498 282.99C95.1235 282.472 94.793 281.679 94.8666 280.87L95.6188 272.598C95.8038 270.563 93.5722 269.202 91.8472 270.297L84.8362 274.75C84.1503 275.186 83.2935 275.255 82.5467 274.935L74.9124 271.664C73.0341 270.859 71.0496 272.56 71.5585 274.539L73.627 282.583C73.8294 283.37 73.6304 284.207 73.0952 284.818L67.6248 291.068C66.2789 292.605 67.2841 295.019 69.3235 295.146L77.613 295.665C78.424 295.715 79.1578 296.163 79.5739 296.861L83.8273 303.995Z"/>
</mask>
<path d="M190.903 87.707C193.389 88.7786 194.536 91.6626 193.464 94.1486L185.531 112.554C184.46 115.04 181.576 116.186 179.089 115.115C176.603 114.043 175.457 111.159 176.528 108.673L184.462 90.2681C185.533 87.7821 188.417 86.6355 190.903 87.707Z" fill="white"/>
<path d="M142.202 93.1C144.574 91.796 147.555 92.6622 148.859 95.0346L159.124 113.71C160.428 116.083 159.561 119.063 157.189 120.367C154.817 121.671 151.836 120.805 150.532 118.432L140.268 99.7566C138.964 97.3842 139.83 94.404 142.202 93.1Z" fill="white"/>
<path d="M224.21 120.122C225.299 122.6 224.172 125.492 221.694 126.581L202.295 135.102C199.817 136.191 196.925 135.064 195.836 132.585C194.747 130.107 195.874 127.215 198.353 126.126L217.751 117.605C220.23 116.516 223.122 117.643 224.21 120.122Z" fill="white"/>
<path d="M194.544 157.466C195.572 154.962 198.436 153.765 200.94 154.792L220.534 162.833C223.038 163.861 224.235 166.724 223.207 169.229C222.18 171.733 219.316 172.93 216.812 171.903L197.218 163.862C194.714 162.834 193.517 159.971 194.544 157.466Z" fill="white"/>
<path d="M114.373 186.967C115.404 188.617 114.903 190.789 113.254 191.82C106.33 196.147 97.3217 203.486 88.9417 211.755C80.5399 220.046 73.0237 229.022 68.8939 236.558C66.8107 240.359 65.7762 243.462 65.677 245.745C65.5883 247.786 66.2131 248.957 67.5524 249.797C69.2185 250.842 72.4543 251.646 78.2002 251.302C83.8473 250.965 91.4503 249.55 101.412 246.704C126.849 239.436 148.439 236.104 165.449 235.759C167.149 235.725 168.808 235.72 170.426 235.744L178.355 206.525C181.468 195.055 191.879 187.092 203.764 187.092H270.592L270.638 186.925L285.74 131.816C286.215 130.081 286.858 128.426 287.648 126.867C283.613 124 281.54 118.692 283.271 113.499L283.696 112.223C285.302 107.406 289.81 104.157 294.887 104.157C300.498 104.157 304.959 107.987 306.287 112.894C307.863 112.6 309.483 112.447 311.131 112.447H384.505C401.878 112.447 414.488 128.977 409.896 145.733L398.562 187.092H425.042L406.409 253.76C409.179 255.501 411.362 258.052 412.666 261.031L433.331 187.092H447.999C458.893 187.092 466.81 197.444 463.957 207.958L440.942 292.766C437.829 304.236 427.418 312.198 415.533 312.198H402.409L389.551 359.342C397.826 356.874 403.822 352.894 408.018 348.723L403.969 347.668C401.14 346.931 400.389 343.268 402.699 341.478L408.085 337.304C409.003 336.592 409.511 335.472 409.442 334.312L409.039 327.51C408.866 324.593 412.118 322.746 414.534 324.39L420.168 328.222C421.129 328.876 422.351 329.013 423.433 328.589L429.777 326.104C432.498 325.037 435.259 327.559 434.443 330.366L432.539 336.908C432.214 338.024 432.461 339.228 433.199 340.127L437.523 345.392C439.378 347.651 437.833 351.056 434.911 351.146L428.101 351.358C426.939 351.394 425.87 352.001 425.244 352.98L421.573 358.719C419.998 361.182 416.282 360.764 415.293 358.014L413.544 353.151C407.817 359.051 399.33 364.492 387.416 367.171L384.971 376.137C384.419 378.159 383.499 380.005 382.294 381.607C384.393 390.636 373.425 394.292 373.425 394.292H118.52C99.8689 394.292 89.5069 377.713 89.5069 377.713L60.4934 336.265V326.09C60.2877 320.707 64.4818 315.541 70.6308 315.541H115.506L129.771 263.236C131.694 256.187 138.096 251.297 145.402 251.297H166.205L168.519 242.771C167.563 242.77 166.587 242.78 165.592 242.8C149.329 243.13 128.355 246.33 103.347 253.475C93.1297 256.394 84.9797 257.952 78.6205 258.332C72.3602 258.707 67.3367 257.974 63.8118 255.764C59.9602 253.349 58.4624 249.549 58.6411 245.439C58.8093 241.571 60.4323 237.344 62.718 233.173C67.3262 224.765 75.3941 215.229 83.9952 206.742C92.6182 198.233 102.031 190.529 109.521 185.848C111.17 184.817 113.343 185.318 114.373 186.967Z" fill="white"/>
<path d="M83.8273 303.995C84.8737 305.75 87.4795 305.54 88.231 303.64L91.2857 295.916C91.5845 295.16 92.237 294.601 93.0293 294.421L101.128 292.58C103.121 292.127 103.726 289.584 102.151 288.282L95.7498 282.99C95.1235 282.472 94.793 281.679 94.8666 280.87L95.6188 272.598C95.8038 270.563 93.5722 269.202 91.8472 270.297L84.8362 274.75C84.1503 275.186 83.2935 275.255 82.5467 274.935L74.9124 271.664C73.0341 270.859 71.0496 272.56 71.5585 274.539L73.627 282.583C73.8294 283.37 73.6304 284.207 73.0952 284.818L67.6248 291.068C66.2789 292.605 67.2841 295.019 69.3235 295.146L77.613 295.665C78.424 295.715 79.1578 296.163 79.5739 296.861L83.8273 303.995Z" fill="white"/>
<path d="M190.903 87.707C193.389 88.7786 194.536 91.6626 193.464 94.1486L185.531 112.554C184.46 115.04 181.576 116.186 179.089 115.115C176.603 114.043 175.457 111.159 176.528 108.673L184.462 90.2681C185.533 87.7821 188.417 86.6355 190.903 87.707Z" stroke="white" stroke-width="26.1424" stroke-linecap="round" stroke-linejoin="round" mask="url(#path-2-outside-1_39_670)"/>
<path d="M142.202 93.1C144.574 91.796 147.555 92.6622 148.859 95.0346L159.124 113.71C160.428 116.083 159.561 119.063 157.189 120.367C154.817 121.671 151.836 120.805 150.532 118.432L140.268 99.7566C138.964 97.3842 139.83 94.404 142.202 93.1Z" stroke="white" stroke-width="26.1424" stroke-linecap="round" stroke-linejoin="round" mask="url(#path-2-outside-1_39_670)"/>
<path d="M224.21 120.122C225.299 122.6 224.172 125.492 221.694 126.581L202.295 135.102C199.817 136.191 196.925 135.064 195.836 132.585C194.747 130.107 195.874 127.215 198.353 126.126L217.751 117.605C220.23 116.516 223.122 117.643 224.21 120.122Z" stroke="white" stroke-width="26.1424" stroke-linecap="round" stroke-linejoin="round" mask="url(#path-2-outside-1_39_670)"/>
<path d="M194.544 157.466C195.572 154.962 198.436 153.765 200.94 154.792L220.534 162.833C223.038 163.861 224.235 166.724 223.207 169.229C222.18 171.733 219.316 172.93 216.812 171.903L197.218 163.862C194.714 162.834 193.517 159.971 194.544 157.466Z" stroke="white" stroke-width="26.1424" stroke-linecap="round" stroke-linejoin="round" mask="url(#path-2-outside-1_39_670)"/>
<path d="M114.373 186.967C115.404 188.617 114.903 190.789 113.254 191.82C106.33 196.147 97.3217 203.486 88.9417 211.755C80.5399 220.046 73.0237 229.022 68.8939 236.558C66.8107 240.359 65.7762 243.462 65.677 245.745C65.5883 247.786 66.2131 248.957 67.5524 249.797C69.2185 250.842 72.4543 251.646 78.2002 251.302C83.8473 250.965 91.4503 249.55 101.412 246.704C126.849 239.436 148.439 236.104 165.449 235.759C167.149 235.725 168.808 235.72 170.426 235.744L178.355 206.525C181.468 195.055 191.879 187.092 203.764 187.092H270.592L270.638 186.925L285.74 131.816C286.215 130.081 286.858 128.426 287.648 126.867C283.613 124 281.54 118.692 283.271 113.499L283.696 112.223C285.302 107.406 289.81 104.157 294.887 104.157C300.498 104.157 304.959 107.987 306.287 112.894C307.863 112.6 309.483 112.447 311.131 112.447H384.505C401.878 112.447 414.488 128.977 409.896 145.733L398.562 187.092H425.042L406.409 253.76C409.179 255.501 411.362 258.052 412.666 261.031L433.331 187.092H447.999C458.893 187.092 466.81 197.444 463.957 207.958L440.942 292.766C437.829 304.236 427.418 312.198 415.533 312.198H402.409L389.551 359.342C397.826 356.874 403.822 352.894 408.018 348.723L403.969 347.668C401.14 346.931 400.389 343.268 402.699 341.478L408.085 337.304C409.003 336.592 409.511 335.472 409.442 334.312L409.039 327.51C408.866 324.593 412.118 322.746 414.534 324.39L420.168 328.222C421.129 328.876 422.351 329.013 423.433 328.589L429.777 326.104C432.498 325.037 435.259 327.559 434.443 330.366L432.539 336.908C432.214 338.024 432.461 339.228 433.199 340.127L437.523 345.392C439.378 347.651 437.833 351.056 434.911 351.146L428.101 351.358C426.939 351.394 425.87 352.001 425.244 352.98L421.573 358.719C419.998 361.182 416.282 360.764 415.293 358.014L413.544 353.151C407.817 359.051 399.33 364.492 387.416 367.171L384.971 376.137C384.419 378.159 383.499 380.005 382.294 381.607C384.393 390.636 373.425 394.292 373.425 394.292H118.52C99.8689 394.292 89.5069 377.713 89.5069 377.713L60.4934 336.265V326.09C60.2877 320.707 64.4818 315.541 70.6308 315.541H115.506L129.771 263.236C131.694 256.187 138.096 251.297 145.402 251.297H166.205L168.519 242.771C167.563 242.77 166.587 242.78 165.592 242.8C149.329 243.13 128.355 246.33 103.347 253.475C93.1297 256.394 84.9797 257.952 78.6205 258.332C72.3602 258.707 67.3367 257.974 63.8118 255.764C59.9602 253.349 58.4624 249.549 58.6411 245.439C58.8093 241.571 60.4323 237.344 62.718 233.173C67.3262 224.765 75.3941 215.229 83.9952 206.742C92.6182 198.233 102.031 190.529 109.521 185.848C111.17 184.817 113.343 185.318 114.373 186.967Z" stroke="white" stroke-width="26.1424" stroke-linecap="round" stroke-linejoin="round" mask="url(#path-2-outside-1_39_670)"/>
<path d="M83.8273 303.995C84.8737 305.75 87.4795 305.54 88.231 303.64L91.2857 295.916C91.5845 295.16 92.237 294.601 93.0293 294.421L101.128 292.58C103.121 292.127 103.726 289.584 102.151 288.282L95.7498 282.99C95.1235 282.472 94.793 281.679 94.8666 280.87L95.6188 272.598C95.8038 270.563 93.5722 269.202 91.8472 270.297L84.8362 274.75C84.1503 275.186 83.2935 275.255 82.5467 274.935L74.9124 271.664C73.0341 270.859 71.0496 272.56 71.5585 274.539L73.627 282.583C73.8294 283.37 73.6304 284.207 73.0952 284.818L67.6248 291.068C66.2789 292.605 67.2841 295.019 69.3235 295.146L77.613 295.665C78.424 295.715 79.1578 296.163 79.5739 296.861L83.8273 303.995Z" stroke="white" stroke-width="26.1424" stroke-linecap="round" stroke-linejoin="round" mask="url(#path-2-outside-1_39_670)"/>
<path fill-rule="evenodd" clip-rule="evenodd" d="M170.336 107.902C168.397 108.202 166.414 108.546 164.383 108.942L155.031 91.6293C152.18 86.3524 145.592 84.3854 140.315 87.2358C135.038 90.0863 133.071 96.6748 135.921 101.952L142.855 114.787C131.468 118.734 118.666 124.483 103.794 132.927C64.6065 155.177 41.9271 202.193 40.1112 248.002C38.289 293.969 57.4724 340.692 104.425 361.011C130.785 372.419 143.639 386.594 156.036 400.29L156.267 400.544C167.271 412.701 178.366 424.96 198.126 432.92C217.842 440.862 245.501 444.292 289.54 440.877C349.426 436.232 390.778 406.305 417.285 366.792C420.911 367.27 424.787 365.822 427.078 362.241L429.892 357.841L435.113 357.679C443.457 357.42 447.871 347.695 442.573 341.244L439.258 337.207L440.717 332.192C441.639 329.024 440.972 326.019 439.368 323.71C451.49 291.971 456.724 258.005 456.629 227.487C456.529 195.638 450.619 166.802 439.982 148.014C406.426 88.7402 320.611 59.6803 245.996 94.8271C226.442 104.038 212.102 104.8 195.758 105.64L195.719 105.642C195.343 105.662 194.965 105.681 194.585 105.701L198.744 95.8828C201.084 90.3603 198.503 83.987 192.981 81.6475C187.458 79.3081 181.085 81.8885 178.745 87.411L171.014 105.662C170.702 106.398 170.478 107.148 170.336 107.902ZM177.032 108.211C176.399 109.706 176.671 111.359 177.602 112.556C177.856 112.883 178.16 113.176 178.508 113.423C178.214 113.455 177.919 113.488 177.622 113.521C175.507 113.762 173.346 114.048 171.129 114.393C169.562 114.638 167.966 114.912 166.339 115.221C164.148 115.637 161.898 116.117 159.583 116.673C159.946 115.581 159.874 114.347 159.284 113.254L149.28 94.7355C148.145 92.6344 145.522 91.8512 143.421 92.9861C141.32 94.1211 140.537 96.7444 141.672 98.8455L151.675 117.364C151.92 117.817 152.233 118.209 152.596 118.533C150.458 119.157 148.263 119.849 146.005 120.616C134.798 124.421 122.042 130.081 107.021 138.61C33.5157 180.345 19.5146 317.143 107.021 355.013C134.719 367 148.347 382.056 160.882 395.904C183.061 420.407 201.815 441.125 289.034 434.361C346.328 429.917 385.839 401.564 411.385 363.853C412.676 361.947 413.932 360.016 415.152 358.064C415.186 358.01 415.219 357.957 415.252 357.903L415.292 358.014C415.905 359.717 417.562 360.525 419.11 360.31C420.062 360.177 420.972 359.657 421.572 358.72L425.243 352.98C425.87 352.001 426.939 351.394 428.1 351.358L434.911 351.146C437.832 351.056 439.377 347.651 437.522 345.392L433.198 340.127C432.461 339.228 432.214 338.024 432.538 336.908L434.442 330.366C434.888 328.834 434.267 327.386 433.169 326.561C432.685 326.198 432.109 325.955 431.49 325.879C432.318 323.839 433.117 321.788 433.886 319.727C457.375 256.803 453.409 184.996 434.295 151.234C402.548 95.1565 320.537 66.9395 248.781 100.74C228.005 110.526 212.577 111.32 196.094 112.167C194.655 112.241 193.208 112.316 191.749 112.396C190.35 112.474 188.94 112.557 187.515 112.652C186.688 112.707 185.855 112.765 185.017 112.829C184.722 112.851 184.425 112.874 184.129 112.898C184.415 112.601 184.662 112.259 184.858 111.876C184.907 111.781 184.953 111.684 184.995 111.584L192.726 93.3335C193.658 91.1346 192.63 88.5969 190.431 87.6655C188.232 86.734 185.695 87.7614 184.763 89.9603L177.032 108.211Z" fill="black"/>
<path d="M248.782 100.74C199.779 123.823 180.527 96.8757 107.022 138.611C33.5166 180.346 19.5155 317.144 107.022 355.014C183.731 388.212 152.525 444.949 289.035 434.361C451.797 421.738 471.049 216.155 434.296 151.234C402.549 95.1571 320.538 66.9401 248.782 100.74Z" fill="#FFD25E"/>
<path fill-rule="evenodd" clip-rule="evenodd" d="M114.373 186.966C115.404 188.616 114.902 190.788 113.253 191.819C106.33 196.146 97.3212 203.485 88.9412 211.754C80.5394 220.045 73.0232 229.021 68.8934 236.557C66.8102 240.358 65.7758 243.461 65.6765 245.744C65.5878 247.785 66.2126 248.956 67.5519 249.796C69.218 250.841 72.4538 251.645 78.1997 251.301C83.8468 250.964 91.4498 249.549 101.411 246.703C126.849 239.435 148.438 236.103 165.449 235.758C182.293 235.416 195.2 237.989 202.769 243.12C206.644 245.747 209.351 249.216 210.124 253.471C210.891 257.699 209.627 262.04 206.926 266.195C201.612 274.371 190.047 282.936 172.316 291.12C168.012 293.106 164.93 294.814 162.869 296.255C161.841 296.974 161.138 297.578 160.681 298.061C160.617 298.128 160.56 298.192 160.509 298.25C161.249 298.67 162.572 299.178 164.679 299.665C169.628 300.807 177.294 301.484 187.008 301.79C196.66 302.093 208.115 302.024 220.531 301.743C237.156 301.367 255.391 300.614 273.221 299.878C282.049 299.514 290.777 299.154 299.162 298.845C324.317 297.92 346.579 297.449 358.614 298.838C364.799 299.551 369.522 301.178 372.766 303.9C376.159 306.747 377.547 310.465 377.636 314.388C377.722 318.156 376.623 322.135 375.142 325.94C373.646 329.781 371.636 333.748 369.664 337.522C369.297 338.226 368.931 338.922 368.569 339.61C366.958 342.676 365.431 345.584 364.176 348.33C362.622 351.731 361.67 354.506 361.462 356.642C361.268 358.637 361.742 359.547 362.501 360.153C363.541 360.983 365.891 361.872 370.822 361.872C402.366 361.872 414.042 343.745 416.05 335.713C416.522 333.826 418.434 332.679 420.32 333.151C422.207 333.622 423.354 335.534 422.883 337.421C420.086 348.606 405.579 368.914 370.822 368.914C365.394 368.914 361.045 368.001 358.108 365.657C354.891 363.089 354.112 359.453 354.453 355.959C354.78 352.605 356.151 348.948 357.77 345.403C359.114 342.462 360.756 339.339 362.37 336.266C362.723 335.595 363.075 334.925 363.422 334.261C365.392 330.49 367.238 326.828 368.579 323.385C369.934 319.906 370.65 316.947 370.596 314.549C370.544 312.307 369.835 310.634 368.238 309.294C366.492 307.829 363.333 306.471 357.807 305.834C346.421 304.52 324.768 304.95 299.421 305.883C291.106 306.189 282.415 306.547 273.605 306.911C255.735 307.649 237.378 308.406 220.691 308.784C208.222 309.066 196.622 309.138 186.787 308.829C177.014 308.522 168.761 307.834 163.096 306.527C160.329 305.888 157.75 305.012 155.928 303.66C154.979 302.955 154.039 301.978 153.515 300.645C152.962 299.238 153.011 297.786 153.475 296.464C154.301 294.113 156.437 292.16 158.834 290.484C161.382 288.702 164.887 286.793 169.365 284.726C186.766 276.694 196.821 268.82 201.022 262.357C203.078 259.193 203.546 256.666 203.194 254.729C202.848 252.819 201.586 250.826 198.817 248.949C193.099 245.072 182.021 242.465 165.592 242.799C149.329 243.129 128.354 246.329 103.346 253.474C93.1292 256.393 84.9792 257.951 78.62 258.331C72.3597 258.706 67.3362 257.973 63.8113 255.763C59.9597 253.348 58.462 249.548 58.6407 245.438C58.8088 241.57 60.4318 237.343 62.7175 233.172C67.3257 224.764 75.3936 215.228 83.9948 206.741C92.6177 198.232 102.031 190.528 109.521 185.847C111.17 184.816 113.342 185.317 114.373 186.966Z" fill="#FFE6A8"/>
<path d="M88.2316 303.639C87.48 305.539 84.8743 305.749 83.8278 303.994L79.5744 296.86C79.1583 296.162 78.4246 295.715 77.6136 295.664L69.3241 295.145C67.2846 295.018 66.2795 292.605 67.6254 291.067L73.0958 284.817C73.631 284.206 73.83 283.37 73.6276 282.583L71.5591 274.539C71.0501 272.56 73.0347 270.858 74.9129 271.663L82.5472 274.934C83.2941 275.254 84.1508 275.185 84.8367 274.749L91.8478 270.296C93.5727 269.201 95.8044 270.562 95.6193 272.597L94.8672 280.869C94.7936 281.678 95.1241 282.472 95.7504 282.989L102.152 288.281C103.727 289.583 103.122 292.126 101.129 292.579L93.0299 294.42C92.2375 294.6 91.5851 295.16 91.2862 295.915L88.2316 303.639Z" fill="#FFEEC1"/>
<path d="M256.033 135.193C255.604 136.277 254.119 136.396 253.522 135.396L251.097 131.329C250.86 130.931 250.442 130.675 249.979 130.647L245.253 130.351C244.091 130.278 243.518 128.902 244.285 128.026L247.404 124.463C247.709 124.114 247.822 123.638 247.707 123.189L246.528 118.603C246.237 117.475 247.369 116.504 248.44 116.963L252.792 118.828C253.218 119.011 253.706 118.971 254.097 118.723L258.094 116.184C259.078 115.56 260.35 116.336 260.245 117.496L259.816 122.212C259.774 122.673 259.962 123.126 260.319 123.421L263.969 126.438C264.867 127.18 264.522 128.63 263.386 128.888L258.768 129.937C258.317 130.04 257.945 130.359 257.774 130.79L256.033 135.193Z" fill="#FFEEC1"/>
<path d="M437.522 345.391C439.377 347.65 437.832 351.055 434.91 351.146L428.1 351.357C426.939 351.393 425.869 352 425.243 352.979L421.572 358.719C419.997 361.181 416.281 360.763 415.292 358.013L412.986 351.601C412.593 350.508 411.686 349.679 410.561 349.386L403.968 347.668C401.139 346.931 400.388 343.267 402.698 341.477L408.084 337.303C409.002 336.591 409.51 335.472 409.442 334.311L409.038 327.51C408.865 324.592 412.117 322.746 414.533 324.39L420.167 328.222C421.128 328.875 422.35 329.013 423.432 328.589L429.776 326.103C432.497 325.037 435.258 327.559 434.442 330.365L432.538 336.907C432.213 338.023 432.46 339.228 433.198 340.126L437.522 345.391Z" fill="#FFEEC1"/>
<path fill-rule="evenodd" clip-rule="evenodd" d="M60.4962 325.903V336.265L89.5097 377.713C89.5097 377.713 99.8717 394.292 118.523 394.292C137.175 394.292 373.428 394.292 373.428 394.292C373.428 394.292 385.862 390.148 381.718 379.786C377.573 369.424 60.4962 325.903 60.4962 325.903Z" fill="#427BFF"/>
<path fill-rule="evenodd" clip-rule="evenodd" d="M320.964 319.51C319.048 317.006 316.076 315.538 312.923 315.538H70.6337C62.2442 315.538 57.4936 325.155 62.5919 331.818L100.166 380.921C103.615 385.428 108.967 388.072 114.642 388.072H336.53C351.631 388.072 360.182 370.761 351.005 358.768L320.964 319.51Z" fill="#CFE3FF"/>
<path fill-rule="evenodd" clip-rule="evenodd" d="M413.439 271.761C416.25 261.454 408.491 251.296 397.808 251.296H145.405C138.098 251.296 131.696 256.186 129.774 263.235L101.308 367.609C98.497 377.916 106.256 388.074 116.939 388.074H369.342C376.649 388.074 383.051 383.184 384.973 376.135L413.439 271.761Z" fill="#E9F3FF"/>
<path fill-rule="evenodd" clip-rule="evenodd" d="M89.5076 377.711C89.5076 377.711 99.8696 394.291 118.521 394.291H373.426L375.493 400.491C374.826 400.713 374.128 400.826 373.426 400.826H118.521C107.158 400.826 98.4648 395.762 92.8102 391C89.9694 388.608 87.8078 386.223 86.3457 384.423C85.6115 383.52 85.0447 382.753 84.6485 382.191C84.4502 381.91 84.2939 381.679 84.1801 381.507C84.1413 381.449 84.1075 381.397 84.0785 381.352L55.1398 340.011C54.3709 338.913 53.9584 337.604 53.9584 336.264V326.197C53.7024 317.501 60.4961 309.004 70.6315 309.004H110.515L123.467 261.515C126.165 251.623 135.15 244.76 145.403 244.76H397.807C412.799 244.76 423.688 259.016 419.743 273.48L391.277 377.855C390.764 379.735 390.023 381.508 389.088 383.146C389.389 389.396 385.871 393.851 382.803 396.378C381.047 397.825 379.262 398.825 377.964 399.456C377.301 399.778 376.731 400.021 376.308 400.189C376.095 400.274 375.916 400.341 375.779 400.391C375.749 400.401 375.721 400.412 375.694 400.421C375.661 400.433 375.63 400.444 375.604 400.453L375.54 400.475L375.514 400.484L375.498 400.489C375.495 400.49 375.493 400.491 373.426 394.291C373.426 394.291 384.394 390.635 382.294 381.606C383.499 380.003 384.42 378.158 384.972 376.135L413.438 271.76C416.248 261.454 408.49 251.296 397.807 251.296H145.403C138.097 251.296 131.694 256.186 129.772 263.234L115.507 315.54H70.6315C64.4825 315.54 60.2884 320.706 60.494 326.088V336.264L89.5076 377.711Z" fill="black"/>
<path fill-rule="evenodd" clip-rule="evenodd" d="M445.188 178.763C462.548 178.763 475.156 195.27 470.589 212.018L447.646 296.14C444.522 307.595 434.119 315.541 422.246 315.541H405.052L442.355 178.763H445.188ZM434.066 178.763L396.762 315.541H190.834C173.474 315.541 160.866 299.034 165.434 282.286L188.377 198.163C191.5 186.709 201.904 178.763 213.777 178.763H434.066Z" fill="#A8C5FF"/>
<path fill-rule="evenodd" clip-rule="evenodd" d="M396.762 315.541H190.834C173.474 315.541 160.866 299.034 165.434 282.286L188.377 198.163C191.5 186.709 201.904 178.763 213.777 178.763H434.066L396.762 315.541ZM425.509 185.298L391.771 309.005H190.834C177.784 309.005 168.306 296.596 171.739 284.005L194.682 199.883C197.03 191.272 204.851 185.298 213.777 185.298H425.509ZM442.355 178.763H445.188C462.548 178.763 475.156 195.27 470.589 212.018L447.646 296.14C444.522 307.595 434.119 315.541 422.246 315.541H405.052L442.355 178.763ZM413.609 309.005L447.317 185.41C459.247 186.67 467.528 198.403 464.283 210.298L441.341 294.421C438.992 303.032 431.171 309.005 422.246 309.005H413.609Z" fill="black"/>
<path fill-rule="evenodd" clip-rule="evenodd" d="M395.963 217.103C395.963 214.866 394.15 213.052 391.913 213.052H217.501C215.264 213.052 213.451 214.866 213.451 217.103C213.451 219.34 215.264 221.153 217.501 221.153H391.913C394.15 221.153 395.963 219.34 395.963 217.103Z" fill="white"/>
<path fill-rule="evenodd" clip-rule="evenodd" d="M384.328 248.188C384.328 245.951 382.515 244.138 380.278 244.138H209.21C206.973 244.138 205.16 245.951 205.16 248.188C205.16 250.425 206.973 252.239 209.21 252.239H380.278C382.515 252.239 384.328 250.425 384.328 248.188Z" fill="white"/>
<path fill-rule="evenodd" clip-rule="evenodd" d="M330.352 280.278C330.333 278.041 328.505 276.242 326.268 276.261L200.888 277.297C198.651 277.316 196.853 279.144 196.871 281.381C196.89 283.618 198.718 285.416 200.955 285.398L326.335 284.361C328.572 284.343 330.37 282.515 330.352 280.278Z" fill="white"/>
<path fill-rule="evenodd" clip-rule="evenodd" d="M389.835 145.732C394.427 128.977 381.817 112.446 364.444 112.446H291.07C279.21 112.446 268.813 120.376 265.679 131.815L250.577 186.924C245.985 203.68 258.595 220.21 275.968 220.21H349.342C361.202 220.21 371.599 212.28 374.734 200.841L389.835 145.732Z" fill="#3465FF"/>
<path fill-rule="evenodd" clip-rule="evenodd" d="M368.877 134.618C368.302 133.866 367.41 133.425 366.463 133.425H287.758C286.386 133.425 285.185 134.344 284.826 135.668L269.455 192.408C269.208 193.321 269.4 194.297 269.975 195.048C270.549 195.799 271.441 196.24 272.387 196.24H351.028C352.398 196.24 353.599 195.322 353.959 193.999L369.395 137.26C369.643 136.347 369.452 135.37 368.877 134.618ZM362.489 139.5L348.706 190.164H276.358L290.082 139.5H362.489Z" fill="white"/>
<path fill-rule="evenodd" clip-rule="evenodd" d="M367.357 135.638C366.988 134.328 365.794 133.424 364.433 133.424H287.759C286.511 133.424 285.391 134.187 284.933 135.348C284.475 136.508 284.774 137.831 285.685 138.682L316.059 167.052C317.057 167.984 318.555 168.136 319.72 167.422L366.02 139.052C367.18 138.342 367.726 136.947 367.357 135.638ZM353.661 139.5L318.516 161.034L295.462 139.5H353.661Z" fill="white"/>
<path fill-rule="evenodd" clip-rule="evenodd" d="M286.018 119.681C288.564 112.043 282.878 104.155 274.827 104.155C269.749 104.155 265.241 107.404 263.636 112.221L263.21 113.497C260.664 121.135 266.35 129.024 274.401 129.024C279.479 129.024 283.987 125.774 285.592 120.958L286.018 119.681Z" fill="#FE413B"/>
<path fill-rule="evenodd" clip-rule="evenodd" d="M259.881 128.415C259.698 128.965 259.53 129.523 259.375 130.087L244.273 185.196C238.542 206.111 254.282 226.745 275.968 226.745H349.341C364.146 226.745 377.123 216.845 381.036 202.567L396.138 147.458C401.87 126.543 386.129 105.909 364.443 105.909H291.07C290.768 105.909 290.467 105.913 290.167 105.921C286.952 101.012 281.408 97.6194 274.826 97.6194C266.935 97.6194 259.93 102.669 257.434 110.154L257.009 111.43C254.957 117.587 256.354 123.831 259.881 128.415ZM286.226 112.892C287.802 112.598 289.422 112.445 291.07 112.445H364.443C381.817 112.445 394.427 128.975 389.835 145.731L374.733 200.84C371.598 212.279 361.202 220.209 349.341 220.209H275.968C258.595 220.209 245.985 203.678 250.576 186.923L265.678 131.814C266.154 130.078 266.797 128.424 267.586 126.865C263.552 123.998 261.478 118.69 263.209 113.497L263.635 112.221C265.24 107.404 269.748 104.155 274.826 104.155C280.436 104.155 284.898 107.985 286.226 112.892Z" fill="black"/>
<path fill-rule="evenodd" clip-rule="evenodd" d="M132.621 161.793L107.353 181.562C105.904 182.695 105.676 184.8 106.848 186.218L111.916 192.347C113.068 193.739 115.131 193.933 116.522 192.778L141.557 171.987L152.512 193.389C153.83 195.964 157.599 195.682 158.519 192.939L176.295 139.944C177.04 137.725 175.277 135.465 172.943 135.647L115.831 140.111C112.928 140.338 111.749 143.962 113.963 145.854L132.621 161.793Z" fill="#3465FF"/>
<path fill-rule="evenodd" clip-rule="evenodd" d="M198.601 158.202L217.696 166.175L198.601 158.202Z" fill="white"/>
<path fill-rule="evenodd" clip-rule="evenodd" d="M221.597 167.804C220.698 169.958 218.223 170.974 216.07 170.075L196.975 162.102C194.822 161.203 193.805 158.728 194.704 156.575C195.603 154.421 198.078 153.404 200.231 154.304L219.326 162.277C221.48 163.176 222.496 165.651 221.597 167.804Z" fill="#FE413B"/>
<path fill-rule="evenodd" clip-rule="evenodd" d="M181.013 109.896L188.745 91.6454L181.013 109.896Z" fill="white"/>
<path fill-rule="evenodd" clip-rule="evenodd" d="M190.392 87.7562C188.243 86.8459 185.763 87.8499 184.853 89.9987L177.122 108.25C176.212 110.398 177.216 112.878 179.364 113.789C181.513 114.699 183.993 113.695 184.903 111.546L192.635 93.2951C193.545 91.1463 192.541 88.6664 190.392 87.7562Z" fill="#FE413B"/>
<path fill-rule="evenodd" clip-rule="evenodd" d="M155.477 115.309L145.473 96.7896L155.477 115.309Z" fill="white"/>
<path fill-rule="evenodd" clip-rule="evenodd" d="M157.488 119.028C159.541 117.919 160.306 115.355 159.197 113.302L149.194 94.7831C148.084 92.7298 145.521 91.9644 143.468 93.0735C141.414 94.1827 140.649 96.7463 141.758 98.7996L151.762 117.319C152.871 119.372 155.434 120.137 157.488 119.028Z" fill="#FE413B"/>
<path fill-rule="evenodd" clip-rule="evenodd" d="M222.58 119.556C223.532 121.686 222.577 124.186 220.446 125.138L201.542 133.587C199.411 134.54 196.912 133.585 195.96 131.454C195.007 129.323 195.963 126.824 198.093 125.872L216.998 117.422C219.128 116.47 221.627 117.425 222.58 119.556Z" fill="#FE413B"/>
<path d="M134.065 217.485C134.065 220.42 131.685 222.799 128.751 222.799C125.816 222.799 123.437 220.42 123.437 217.485C123.437 214.551 125.816 212.172 128.751 212.172C131.685 212.172 134.065 214.551 134.065 217.485Z" fill="#FFF9DB" fill-opacity="0.5"/>
<path d="M113.265 232.164C113.265 233.972 111.8 235.437 109.992 235.437C108.184 235.437 106.719 233.972 106.719 232.164C106.719 230.356 108.184 228.891 109.992 228.891C111.8 228.891 113.265 230.356 113.265 232.164Z" fill="#FFF9DB" fill-opacity="0.5"/>
<path d="M419.206 160.223C422.012 161.081 423.591 164.052 422.733 166.858C421.875 169.665 418.904 171.244 416.098 170.386C413.291 169.528 411.712 166.557 412.57 163.75C413.428 160.944 416.399 159.365 419.206 160.223Z" fill="#FFF9DB" fill-opacity="0.5"/>
</svg>
