<svg width="512" height="512" viewBox="0 0 512 512" fill="none" xmlns="http://www.w3.org/2000/svg">
<path d="M76.335 387.452H86.9359C86.8105 388.24 86.7453 389.048 86.7453 389.871C86.7453 398.305 93.5825 405.142 102.017 405.142H168.838C176.421 408.675 184.39 411.839 192.737 414.621C227.331 426.152 263.112 426.611 296.245 420.107L358.183 467.682C365.539 473.332 376.084 471.949 381.734 464.593L469.794 349.947C475.444 342.591 474.061 332.046 466.705 326.396L459.812 321.101C461.239 314.347 458.38 307.131 452.16 303.314L440.506 296.162C439.574 291.478 437.827 286.977 435.209 282.754C432.637 278.606 430.317 274.58 428.225 270.668C429.672 269.193 430.334 267.093 429.96 265.025C429.532 262.665 427.826 260.739 425.534 260.03L422.537 259.103C417.011 246.783 413.745 235.621 411.887 225.36C414.699 221.985 416.492 218.484 417.499 216.265C417.5 216.264 417.5 216.263 417.5 216.262L417.557 216.138C418.391 214.302 418.315 212.181 417.352 210.409C416.388 208.637 414.649 207.421 412.654 207.124L409.83 206.703C409.367 196.041 410.066 186.222 410.755 176.626L410.802 175.974C412.188 156.712 413.548 137.819 402.738 118.225C388.704 92.7885 363.548 75.2719 334.77 64.139C305.947 52.9882 272.907 48.0001 242.091 48.0003C175.116 48.0007 101.972 76.3958 75.2707 152.288C57.9896 169.093 51.5998 195.314 61.1881 219.067C61.926 220.895 62.743 222.669 63.6339 224.387C62.8847 255.938 67.658 284.995 77.9178 310.744C72.7481 312.684 68.8128 317.369 68.1096 323.23C67.1049 331.604 73.079 339.207 81.453 340.212L93.6991 341.681C89.5132 344.404 86.7453 349.124 86.7453 354.49C86.7453 355.313 86.8104 356.121 86.9358 356.909H76.335C67.9009 356.909 61.0637 363.746 61.0637 372.18C61.0637 380.614 67.9009 387.452 76.335 387.452Z" fill="#FF835C" stroke="white" stroke-width="12.852" stroke-linecap="round" stroke-linejoin="round"/>
<path fill-rule="evenodd" clip-rule="evenodd" d="M421.771 272.207C424.133 276.713 426.781 281.354 429.748 286.141C464.013 341.407 320.419 450.407 194.771 408.525C186.173 405.659 178.006 402.383 170.274 398.716H102.018C97.1326 398.716 93.1725 394.756 93.1725 389.871C93.1725 389.032 93.2892 388.221 93.5074 387.452C94.5599 383.743 97.9715 381.026 102.018 381.026H140.316L76.3361 381.026C71.451 381.026 67.4909 377.065 67.4909 372.18C67.4909 367.295 71.451 363.335 76.3361 363.335H101.917C97.9146 363.29 94.5506 360.588 93.5072 356.909C93.2892 356.14 93.1725 355.329 93.1725 354.49C93.1725 351.257 94.9069 348.43 97.4961 346.887C98.8193 346.098 100.366 345.645 102.018 345.645H104.53C103.677 344.49 102.839 343.323 102.018 342.146C101.37 341.217 100.731 340.281 100.102 339.338C99.2994 338.134 98.5124 336.92 97.7413 335.694L82.2196 333.831C77.3693 333.249 73.9091 328.846 74.491 323.995C74.9089 320.513 77.2974 317.746 80.4069 316.679C81.6277 316.26 82.9596 316.103 84.3269 316.267L87.4361 316.64C86.5794 314.778 85.754 312.895 84.9598 310.992C84.7978 310.604 84.6372 310.215 84.4778 309.825C73.9935 284.184 69.1409 254.928 70.1047 222.851C69.0056 220.876 68.0165 218.811 67.1486 216.661C58.3742 194.925 64.5481 170.865 80.8301 155.874C105.852 82.4703 176.163 54.4266 242.093 54.4262C302.469 54.4259 371.004 74.0077 397.113 121.33C407 139.251 405.763 156.466 404.347 176.165C403.552 187.234 402.7 199.087 403.734 212.291L411.201 213.402L411.702 213.476L411.709 213.477L411.651 213.606C410.986 215.071 409.982 217.052 408.58 219.093C408.494 219.218 408.406 219.344 408.317 219.47C407.389 220.779 406.297 222.101 405.026 223.316C406.921 235.375 410.613 248.554 417.347 263.215C417.527 263.607 417.709 264 417.894 264.394L423.637 266.17C422.573 266.992 421.256 268.275 420.455 269.652C420.883 270.499 421.322 271.351 421.771 272.207ZM428.227 270.668C430.318 274.58 432.638 278.606 435.21 282.754C445.592 299.499 441.875 319.458 430.639 337.822C419.354 356.267 399.83 374.424 375.578 389.246C327.107 418.872 257.821 436.315 192.739 414.621C184.391 411.839 176.422 408.675 168.839 405.142H102.018C93.5836 405.142 86.7465 398.305 86.7465 389.871C86.7465 389.048 86.8116 388.24 86.9371 387.452H76.3361C67.902 387.452 61.0649 380.614 61.0649 372.18C61.0649 363.746 67.9021 356.909 76.3361 356.909H86.9369C86.8116 356.121 86.7465 355.313 86.7465 354.49C86.7465 349.124 89.5143 344.404 93.7002 341.681L81.4541 340.212C73.0801 339.207 67.1061 331.604 68.1108 323.23C68.8139 317.369 72.7493 312.684 77.9189 310.744C67.659 284.995 62.8857 255.937 63.6351 224.386C62.7444 222.668 61.9275 220.894 61.1898 219.066C51.6016 195.314 57.9911 169.093 75.2718 152.288C101.973 76.3958 175.117 48.0007 242.093 48.0002C272.909 48.0001 305.948 52.9881 334.771 64.1389C363.549 75.2719 388.705 92.7885 402.739 118.225C413.549 137.818 412.19 156.711 410.804 175.973L410.757 176.625C410.067 186.221 409.368 196.04 409.831 206.701L412.655 207.122C414.643 207.417 416.379 208.627 417.345 210.39C418.076 211.724 418.302 213.259 418.013 214.721C417.951 215.041 417.863 215.357 417.751 215.666C417.693 215.825 417.629 215.983 417.559 216.138L417.502 216.262C417.502 216.263 417.503 216.261 417.502 216.262C416.495 218.481 414.701 221.985 411.888 225.361C413.746 235.622 417.013 246.783 422.538 259.103L425.535 260.03C427.827 260.739 429.533 262.665 429.961 265.025C430.335 267.093 429.673 269.193 428.227 270.668Z" fill="black"/>
<path d="M397.114 121.329C371.006 74.0075 302.47 54.4256 242.094 54.426C168.501 54.4265 89.4478 89.3687 74.0198 183.338C56.07 292.667 98.3322 376.378 194.772 408.525C320.42 450.407 464.015 341.406 429.75 286.14C379.164 204.551 421.231 165.041 397.114 121.329Z" fill="#87C5FF"/>
<path fill-rule="evenodd" clip-rule="evenodd" d="M334.772 64.1387C363.55 75.2716 388.706 92.7883 402.74 118.225C413.631 137.965 412.197 157.411 410.737 177.221C410.429 181.405 410.12 185.605 409.925 189.827C408.791 214.397 410.755 243.31 435.211 282.754C445.592 299.499 441.876 319.457 430.64 337.822C419.355 356.267 399.831 374.423 375.579 389.246C327.108 418.872 257.821 436.315 192.739 414.621C143.118 398.08 107.045 368.1 85.8159 327.874C64.6343 287.737 58.5348 237.986 67.678 182.297C75.6859 133.522 100.335 99.7425 132.693 78.288C164.883 56.9449 204.365 48.0002 242.093 48C272.909 47.9998 305.949 52.9879 334.772 64.1387ZM242.094 54.426C302.469 54.4256 371.005 74.0075 397.113 121.329C407.001 139.251 405.764 156.466 404.348 176.165C402.311 204.512 399.903 238.002 429.749 286.14C464.014 341.406 320.419 450.407 194.771 408.525C98.3315 376.378 56.0693 292.667 74.0191 183.338C89.4471 89.3687 168.5 54.4264 242.094 54.426Z" fill="black"/>
<path d="M195.831 149.047C185.348 167.529 161.867 174.014 143.385 163.531C124.903 153.048 118.418 129.566 128.901 111.084C139.385 92.602 162.866 86.1174 181.348 96.6006C199.83 107.084 206.315 130.565 195.831 149.047Z" fill="#F1C71F"/>
<path fill-rule="evenodd" clip-rule="evenodd" d="M202.117 152.612C189.665 174.565 161.773 182.268 139.82 169.816C117.866 157.363 110.163 129.472 122.615 107.518C135.068 85.564 162.959 77.8614 184.913 90.3137C206.867 102.766 214.57 130.658 202.117 152.612ZM143.385 163.53C161.867 174.013 185.348 167.528 195.832 149.046C206.315 130.564 199.83 107.083 181.348 96.5997C162.866 86.1165 139.385 92.601 128.901 111.083C118.418 129.565 124.903 153.047 143.385 163.53Z" fill="#ECB216"/>
<path d="M166.387 128.339C169.778 131.723 171.927 134.844 172.834 137.701C173.759 140.568 173.421 143.414 171.818 146.239C170.624 148.344 169.115 149.981 167.293 151.151C165.497 152.312 163.442 152.932 161.125 153.009C158.836 153.079 156.402 152.545 153.824 151.408L152.943 152.96C152.525 153.697 151.974 154.138 151.289 154.283C150.593 154.445 149.877 154.318 149.141 153.9C148.421 153.492 147.953 152.948 147.735 152.268C147.508 151.605 147.603 150.906 148.021 150.169L148.932 148.563C147.149 147.251 145.563 145.713 144.174 143.951C142.812 142.182 141.714 140.295 140.879 138.291C140.612 137.699 140.474 137.064 140.464 136.386C140.472 135.718 140.63 135.112 140.938 134.568C141.406 133.743 142.036 133.184 142.828 132.891C143.648 132.591 144.506 132.591 145.403 132.891C145.633 132.975 145.81 133.052 145.933 133.122C146.389 133.38 146.778 133.798 147.1 134.375C147.998 136.392 149.134 138.231 150.511 139.893C151.915 141.547 153.38 142.807 154.906 143.673C157.14 145.009 159.101 145.6 160.789 145.444C162.488 145.271 163.817 144.379 164.778 142.767C165.514 141.469 165.457 139.975 164.606 138.286C163.755 136.598 162.09 134.483 159.613 131.941C156.222 128.556 154.053 125.286 153.107 122.129C152.172 118.954 152.57 116.003 154.303 113.275C155.483 111.44 156.921 110.029 158.616 109.043C160.34 108.049 162.267 107.554 164.399 107.557C166.548 107.57 168.822 108.141 171.22 109.269L172.22 107.506C172.638 106.769 173.195 106.319 173.89 106.157C174.585 105.995 175.292 106.117 176.011 106.525C176.748 106.943 177.225 107.492 177.443 108.172C177.66 108.852 177.56 109.561 177.142 110.297L176.052 112.219C178.508 114.145 180.495 116.385 182.014 118.94C182.424 119.567 182.673 120.253 182.76 120.998C182.875 121.736 182.739 122.447 182.351 123.131C181.763 124.166 181.029 124.828 180.146 125.116C179.282 125.414 178.463 125.344 177.691 124.906C177.288 124.677 176.93 124.347 176.618 123.915C175.718 122.477 174.737 121.201 173.675 120.089C172.641 118.969 171.607 118.093 170.574 117.46C170.391 117.333 170.124 117.17 169.773 116.971C167.703 115.797 165.902 115.251 164.371 115.333C162.84 115.416 161.731 116.063 161.045 117.273C160.338 118.519 160.454 120.092 161.394 121.993C162.343 123.877 164.007 125.992 166.387 128.339Z" fill="#D5A11D"/>
<path d="M159.718 178.821C169.164 202.22 157.852 228.846 134.453 238.292C111.054 247.738 84.4273 236.426 74.9815 213.027C65.5357 189.627 76.8474 163.001 100.247 153.555C123.646 144.11 150.272 155.421 159.718 178.821Z" fill="#FFE066"/>
<path fill-rule="evenodd" clip-rule="evenodd" d="M167.677 175.61C178.897 203.404 165.461 235.032 137.666 246.252C109.872 257.472 78.244 244.035 67.0239 216.241C55.8039 188.446 69.2402 156.819 97.0348 145.599C124.829 134.379 156.457 147.815 167.677 175.61ZM134.454 238.294C157.853 228.848 169.165 202.221 159.719 178.822C150.273 155.423 123.647 144.111 100.247 153.557C76.848 163.003 65.5364 189.629 74.9822 213.028C84.428 236.428 111.054 247.739 134.454 238.294Z" fill="#FFD258"/>
<path d="M118.035 189.231C123.687 188.577 128.176 188.883 131.503 190.149C134.853 191.406 137.249 193.823 138.693 197.399C139.769 200.065 140.177 202.677 139.919 205.236C139.673 207.763 138.731 210.133 137.092 212.345C135.466 214.525 133.172 216.394 130.21 217.952L131.004 219.917C131.38 220.85 131.383 221.689 131.012 222.433C130.649 223.199 130.002 223.771 129.069 224.147C128.158 224.515 127.306 224.549 126.513 224.249C125.729 223.971 125.149 223.366 124.773 222.433L123.952 220.4C121.414 221.089 118.813 221.429 116.148 221.419C113.497 221.379 110.931 221.006 108.451 220.302C107.703 220.114 107.01 219.773 106.373 219.281C105.757 218.781 105.31 218.186 105.032 217.497C104.611 216.453 104.557 215.455 104.869 214.502C105.196 213.518 105.829 212.719 106.77 212.107C107.019 211.955 107.221 211.848 107.376 211.785C107.954 211.552 108.63 211.498 109.404 211.625C111.942 212.28 114.492 212.581 117.054 212.528C119.63 212.444 121.884 212.012 123.816 211.232C126.709 210.142 128.706 208.755 129.809 207.07C130.902 205.362 131.054 203.467 130.264 201.383C129.601 199.739 128.169 198.689 125.97 198.234C123.772 197.778 120.575 197.764 116.382 198.191C110.73 198.845 106.086 198.446 102.452 196.994C98.8084 195.519 96.3581 192.969 95.1011 189.343C94.2659 186.89 94.0159 184.511 94.3511 182.206C94.6996 179.869 95.6625 177.711 97.2399 175.731C98.8395 173.742 101.05 172.049 103.87 170.652L102.969 168.419C102.592 167.486 102.585 166.637 102.947 165.871C103.31 165.104 103.946 164.537 104.857 164.17C105.79 163.793 106.653 163.755 107.446 164.055C108.238 164.355 108.823 164.971 109.2 165.904L110.182 168.337C113.787 167.475 117.338 167.282 120.836 167.756C121.722 167.837 122.543 168.113 123.301 168.582C124.072 169.02 124.632 169.672 124.982 170.538C125.511 171.849 125.584 173.021 125.2 174.054C124.838 175.079 124.169 175.788 123.192 176.183C122.681 176.389 122.109 176.477 121.478 176.448C119.475 176.223 117.564 176.194 115.745 176.36C113.94 176.494 112.362 176.808 111.011 177.302C110.757 177.378 110.409 177.506 109.964 177.686C107.343 178.744 105.505 180.015 104.451 181.5C103.397 182.985 103.18 184.493 103.798 186.026C104.435 187.603 105.984 188.657 108.446 189.188C110.899 189.696 114.095 189.71 118.035 189.231Z" fill="#D9A92D"/>
<path d="M149.649 136.684C149.649 119.618 163.484 105.783 180.549 105.783H357.601C374.667 105.783 388.502 119.618 388.502 136.684V346.619C388.502 363.684 374.667 377.519 357.601 377.519H180.549C163.484 377.519 149.649 363.685 149.649 346.619V136.684Z" fill="#464646"/>
<path fill-rule="evenodd" clip-rule="evenodd" d="M180.549 99.3574H357.601C378.216 99.3574 394.927 116.069 394.927 136.684V346.619C394.927 367.234 378.216 383.945 357.601 383.945H180.549C159.935 383.945 143.223 367.234 143.223 346.619V136.684C143.223 116.069 159.935 99.3574 180.549 99.3574ZM180.549 105.783C163.483 105.783 149.649 119.618 149.649 136.684V346.619C149.649 363.685 163.484 377.519 180.549 377.519H357.601C374.667 377.519 388.501 363.685 388.501 346.619V136.684C388.501 119.618 374.667 105.783 357.601 105.783H180.549Z" fill="black"/>
<path d="M182.463 151.025C182.463 145.336 187.074 140.725 192.763 140.725H345.39C351.078 140.725 355.69 145.336 355.69 151.025V197.112C355.69 202.8 351.078 207.412 345.39 207.412H192.763C187.074 207.412 182.463 202.8 182.463 197.112V151.025Z" fill="#EDF2FF"/>
<g style="mix-blend-mode:soft-light">
<path d="M315.563 146.944L288.943 201.199H343.914C346.758 201.199 349.064 198.893 349.064 196.049V152.094C349.064 149.249 346.758 146.944 343.914 146.944H315.563Z" fill="#F8F9FA"/>
</g>
<g style="mix-blend-mode:soft-light">
<path d="M257.293 146.944L230.673 201.199H251.887L277.739 146.944H257.293Z" fill="#F8F9FA" fill-opacity="0.8"/>
</g>
<path fill-rule="evenodd" clip-rule="evenodd" d="M176.037 151.025C176.037 141.787 183.525 134.299 192.763 134.299H345.39C354.627 134.299 362.116 141.787 362.116 151.025V197.112C362.116 206.35 354.627 213.838 345.39 213.838H192.763C183.525 213.838 176.037 206.35 176.037 197.112V151.025ZM192.763 147.151C190.623 147.151 188.889 148.885 188.889 151.025V197.112C188.889 199.252 190.623 200.986 192.763 200.986H345.39C347.529 200.986 349.264 199.252 349.264 197.112V151.025C349.264 148.885 347.529 147.151 345.39 147.151H192.763Z" fill="#6B6B6B"/>
<path d="M182.463 243.833C182.463 240.989 184.769 238.683 187.613 238.683H216.318C219.163 238.683 221.468 240.989 221.468 243.833V272.539C221.468 275.383 219.163 277.689 216.318 277.689H187.613C184.769 277.689 182.463 275.383 182.463 272.539V243.833Z" fill="#91A7FF"/>
<path d="M182.463 304.027C182.463 301.182 184.769 298.877 187.613 298.877H216.318C219.163 298.877 221.468 301.182 221.468 304.027V332.732C221.468 335.576 219.163 337.882 216.318 337.882H187.613C184.769 337.882 182.463 335.576 182.463 332.732V304.027Z" fill="#91A7FF"/>
<path d="M244.413 243.833C244.413 240.989 246.719 238.683 249.563 238.683H278.269C281.113 238.683 283.419 240.989 283.419 243.833V272.539C283.419 275.383 281.113 277.689 278.269 277.689H249.563C246.719 277.689 244.413 275.383 244.413 272.539V243.833Z" fill="#91A7FF"/>
<path d="M244.413 304.027C244.413 301.182 246.719 298.877 249.563 298.877H278.269C281.113 298.877 283.419 301.182 283.419 304.027V332.732C283.419 335.576 281.113 337.882 278.269 337.882H249.563C246.719 337.882 244.413 335.576 244.413 332.732V304.027Z" fill="#91A7FF"/>
<path d="M306.367 243.833C306.367 240.989 308.673 238.683 311.517 238.683H350.54C353.384 238.683 355.69 240.989 355.69 243.833V332.73C355.69 335.574 353.384 337.88 350.54 337.88H311.517C308.673 337.88 306.367 335.574 306.367 332.73V243.833Z" fill="#FF835C"/>
<path fill-rule="evenodd" clip-rule="evenodd" d="M182.463 269.326V272.539C182.463 275.383 184.769 277.689 187.613 277.689H216.319C219.163 277.689 221.469 275.383 221.469 272.539V269.326C221.469 272.17 219.163 274.476 216.319 274.476H187.613C184.769 274.476 182.463 272.17 182.463 269.326Z" fill="#728BD5"/>
<path fill-rule="evenodd" clip-rule="evenodd" d="M182.463 329.519V332.732C182.463 335.576 184.769 337.882 187.613 337.882H216.319C219.163 337.882 221.469 335.576 221.469 332.732V329.519C221.469 332.363 219.163 334.669 216.319 334.669H187.613C184.769 334.669 182.463 332.363 182.463 329.519Z" fill="#728BD5"/>
<path fill-rule="evenodd" clip-rule="evenodd" d="M244.413 269.326V272.539C244.413 275.383 246.719 277.689 249.563 277.689H278.269C281.113 277.689 283.419 275.383 283.419 272.539V269.326C283.419 272.17 281.113 274.476 278.269 274.476H249.563C246.719 274.476 244.413 272.17 244.413 269.326Z" fill="#728BD5"/>
<path fill-rule="evenodd" clip-rule="evenodd" d="M244.413 329.519V332.732C244.413 335.576 246.719 337.882 249.563 337.882H278.269C281.113 337.882 283.419 335.576 283.419 332.732V329.519C283.419 332.363 281.113 334.669 278.269 334.669H249.563C246.719 334.669 244.413 332.363 244.413 329.519Z" fill="#728BD5"/>
<path fill-rule="evenodd" clip-rule="evenodd" d="M306.367 329.519V332.732C306.367 335.576 308.673 337.882 311.517 337.882H350.54C353.384 337.882 355.69 335.576 355.69 332.732V329.519C355.69 332.364 353.384 334.669 350.54 334.669H311.517C308.673 334.669 306.367 332.364 306.367 329.519Z" fill="#F36C42"/>
<path d="M448.8 308.79C453.681 311.786 455.21 318.171 452.214 323.053L376.6 446.262C373.604 451.143 367.218 452.672 362.337 449.676L291.725 406.341C286.844 403.346 285.315 396.96 288.311 392.079L363.925 268.869C366.921 263.988 373.306 262.46 378.188 265.455L448.8 308.79Z" fill="#FFF5D3"/>
<path fill-rule="evenodd" clip-rule="evenodd" d="M457.692 326.414L382.077 449.624C377.225 457.53 366.883 460.006 358.977 455.154L288.365 411.819C280.459 406.967 277.983 396.625 282.835 388.719L358.449 265.509C363.301 257.603 373.644 255.127 381.55 259.979L452.162 303.314C460.068 308.166 462.544 318.508 457.692 326.414ZM452.215 323.053C455.21 318.172 453.682 311.787 448.801 308.791L378.188 265.456C373.307 262.46 366.922 263.989 363.926 268.87L288.312 392.08C285.316 396.961 286.845 403.346 291.726 406.342L362.338 449.677C367.219 452.673 373.605 451.144 376.6 446.263L452.215 323.053Z" fill="black"/>
<path d="M327.903 386.929C330.344 388.427 331.108 391.62 329.61 394.06L323.992 403.214C322.494 405.655 319.302 406.419 316.861 404.921L307.707 399.303C305.266 397.806 304.502 394.613 306 392.172L311.618 383.018C313.116 380.578 316.308 379.813 318.749 381.311L327.903 386.929Z" fill="#C5D0DB"/>
<path fill-rule="evenodd" clip-rule="evenodd" d="M391.048 293.946C392.561 294.874 393.034 296.852 392.106 298.365L376.463 323.854C375.535 325.366 373.557 325.84 372.044 324.911C370.532 323.983 370.058 322.005 370.986 320.492L386.629 295.003C387.557 293.491 389.536 293.017 391.048 293.946Z" fill="black"/>
<path fill-rule="evenodd" clip-rule="evenodd" d="M379.056 286.581C380.568 287.51 381.042 289.488 380.114 291L370.912 305.994C369.984 307.506 368.005 307.98 366.493 307.052C364.981 306.124 364.507 304.145 365.435 302.633L374.637 287.639C375.565 286.127 377.543 285.653 379.056 286.581Z" fill="black"/>
<path d="M462.793 331.493C467.335 334.981 468.189 341.492 464.701 346.033L376.641 460.679C373.152 465.221 366.642 466.075 362.1 462.586L296.396 412.119C291.854 408.63 291 402.12 294.489 397.578L382.549 282.932C386.037 278.39 392.547 277.537 397.089 281.025L462.793 331.493Z" fill="#FFD43B"/>
<path fill-rule="evenodd" clip-rule="evenodd" d="M469.798 349.947L381.738 464.592C376.087 471.949 365.543 473.332 358.187 467.681L292.482 417.213C285.126 411.563 283.743 401.019 289.394 393.662L377.453 279.017C383.104 271.66 393.648 270.277 401.005 275.928L466.709 326.395C474.065 332.046 475.448 342.59 469.798 349.947ZM464.701 346.032C468.19 341.49 467.336 334.98 462.794 331.491L397.09 281.024C392.548 277.535 386.038 278.389 382.55 282.931L294.49 397.577C291.001 402.118 291.855 408.629 296.397 412.117L362.101 462.585C366.643 466.074 373.153 465.22 376.642 460.678L464.701 346.032Z" fill="black"/>
<path d="M451.79 323.04L351.096 454.134L330.121 438.023L430.815 306.929L451.79 323.04Z" fill="#616161"/>
<path d="M451.79 323.04L351.096 454.134L344.104 448.763L444.798 317.67L451.79 323.04Z" fill="#C5D0DB"/>
<path d="M334.401 396.586C336.672 398.33 337.099 401.585 335.354 403.856L328.812 412.374C327.067 414.645 323.812 415.072 321.541 413.328L313.024 406.785C310.753 405.041 310.326 401.786 312.07 399.515L318.613 390.997C320.357 388.726 323.612 388.299 325.883 390.043L334.401 396.586Z" fill="#DD901D"/>
<path d="M85.7835 308.447C85.2815 303.588 88.8137 299.242 93.6729 298.74L175.249 290.312C180.108 289.81 184.454 293.342 184.956 298.201C185.458 303.06 181.926 307.407 177.067 307.909L95.491 316.337C90.6317 316.839 86.2856 313.307 85.7835 308.447Z" fill="#FFE066"/>
<path d="M74.4925 323.994C75.0744 319.144 79.4781 315.683 84.3284 316.265L165.755 326.034C170.605 326.616 174.065 331.02 173.483 335.87C172.901 340.721 168.498 344.181 163.647 343.599L82.2211 333.83C77.3708 333.248 73.9106 328.844 74.4925 323.994Z" fill="#F9D442"/>
<path d="M93.1738 354.49C93.1738 349.604 97.134 345.644 102.019 345.644H184.029C188.914 345.644 192.874 349.604 192.874 354.49C192.874 359.375 188.914 363.335 184.029 363.335H102.019C97.134 363.335 93.1738 359.375 93.1738 354.49Z" fill="#FFDF63"/>
<path d="M67.4917 372.18C67.4917 367.295 71.4519 363.334 76.3369 363.334H158.347C163.232 363.334 167.192 367.295 167.192 372.18C167.192 377.065 163.232 381.025 158.347 381.025H76.3369C71.4519 381.025 67.4917 377.065 67.4917 372.18Z" fill="#F2C71B"/>
<path d="M93.1738 389.87C93.1738 384.985 97.134 381.025 102.019 381.025H184.029C188.914 381.025 192.874 384.985 192.874 389.87C192.874 394.755 188.914 398.715 184.029 398.715H102.019C97.134 398.715 93.1738 394.755 93.1738 389.87Z" fill="#F9D442"/>
<path d="M236.897 99.8166C237.372 81.7804 222.065 72.9205 214.352 70.7451L214.352 85.4828C219.494 86.4716 235.611 90.4886 235.49 99.1263C235.404 105.296 219.494 107.134 214.352 106.343L214.352 119.989C221.669 120.78 236.423 117.853 236.897 99.8166Z" fill="#FF835C"/>
<path d="M236.651 102.828C241.397 80.283 222.065 72.9205 214.352 70.7451L214.352 87.9507C219.494 88.9395 238.431 89.7757 236.651 102.828Z" fill="#4B6FFF"/>
<path d="M386.704 227.53C400.557 229.965 409.146 219.178 411.708 213.48L400.344 211.789C398.991 215.641 394.044 227.608 387.397 226.524C382.65 225.75 383.058 213.27 384.258 209.396L373.735 207.83C372.286 213.382 372.85 225.094 386.704 227.53Z" fill="#91A7FF"/>
<path d="M384.412 226.992C401.253 233.239 409.148 219.176 411.711 213.478L398.443 211.504C397.09 215.355 394.273 229.863 384.412 226.992Z" fill="white"/>
<path d="M408.764 273.047C408.764 269.598 411.863 265.212 414.342 263.296L423.639 266.17C421.16 268.086 417.317 272.493 421.78 274.792C426.242 277.091 423.639 286.699 416.202 290.599L406.905 288.649C408.764 288.17 412.855 285.446 414.342 280.848C416.202 275.1 408.764 277.358 408.764 273.047Z" fill="#4B6FFF"/>
<path d="M154.402 258.425C137.491 254.252 138.131 241.064 142.111 231.905L127.118 239.948C119.691 254.77 135.152 265.24 143.811 268.622L154.402 258.425Z" fill="#FF835C"/>
</svg>
