<svg width="512" height="512" viewBox="0 0 512 512" fill="none" xmlns="http://www.w3.org/2000/svg">
<mask id="path-1-outside-1_39_1455" maskUnits="userSpaceOnUse" x="52.2061" y="57.0901" width="413" height="410" fill="black">
<rect fill="white" x="52.2061" y="57.0901" width="413" height="410"/>
<path fill-rule="evenodd" clip-rule="evenodd" d="M400.638 377.083C384.293 397.342 363.83 414.139 340.52 426.202C341.266 430.186 338.228 433.936 334.13 433.936H323.554C302.102 442.45 278.711 447.13 254.226 447.13C239.316 447.13 224.812 445.395 210.904 442.115L210.214 452.955L199.811 439.136C197.594 438.467 195.395 437.758 193.214 437.01L178.961 436.103L182.907 433.132C114.432 405.04 66.2061 337.707 66.2061 259.11C66.2061 214.969 81.4171 174.381 106.883 142.301L92.3422 127.313L99.4445 120.422L111.895 133.255L124.346 120.422L128.054 116.599L129.594 118.33C162.771 88.9359 206.415 71.0901 254.226 71.0901C317.248 71.0901 373.027 102.096 407.142 149.686L409.401 149.601L421.19 134.749L421.908 153.697L436.759 165.486L417.811 166.204L417.762 166.267C433.345 193.657 442.246 225.344 442.246 259.11C442.246 272.413 440.865 285.394 438.237 297.916H438.619C445.906 297.916 451.813 303.824 451.813 311.111V363.888C451.813 371.175 445.906 377.083 438.619 377.083H400.638Z"/>
</mask>
<path fill-rule="evenodd" clip-rule="evenodd" d="M400.638 377.083C384.293 397.342 363.83 414.139 340.52 426.202C341.266 430.186 338.228 433.936 334.13 433.936H323.554C302.102 442.45 278.711 447.13 254.226 447.13C239.316 447.13 224.812 445.395 210.904 442.115L210.214 452.955L199.811 439.136C197.594 438.467 195.395 437.758 193.214 437.01L178.961 436.103L182.907 433.132C114.432 405.04 66.2061 337.707 66.2061 259.11C66.2061 214.969 81.4171 174.381 106.883 142.301L92.3422 127.313L99.4445 120.422L111.895 133.255L124.346 120.422L128.054 116.599L129.594 118.33C162.771 88.9359 206.415 71.0901 254.226 71.0901C317.248 71.0901 373.027 102.096 407.142 149.686L409.401 149.601L421.19 134.749L421.908 153.697L436.759 165.486L417.811 166.204L417.762 166.267C433.345 193.657 442.246 225.344 442.246 259.11C442.246 272.413 440.865 285.394 438.237 297.916H438.619C445.906 297.916 451.813 303.824 451.813 311.111V363.888C451.813 371.175 445.906 377.083 438.619 377.083H400.638Z" fill="#FFF4E6"/>
<path d="M340.52 426.202L334.456 414.483C329.286 417.159 326.48 422.906 327.551 428.628L340.52 426.202ZM400.638 377.083V363.888C396.649 363.888 392.874 365.693 390.369 368.798L400.638 377.083ZM323.554 433.936V420.741C321.888 420.741 320.236 421.057 318.687 421.672L323.554 433.936ZM210.904 442.115L213.932 429.273C210.151 428.381 206.169 429.201 203.047 431.514C199.926 433.828 197.983 437.399 197.736 441.277L210.904 442.115ZM210.214 452.955L199.672 460.891C202.993 465.302 208.709 467.179 213.998 465.595C219.287 464.012 223.031 459.303 223.382 453.793L210.214 452.955ZM199.811 439.136L210.353 431.2C208.666 428.96 206.309 427.315 203.624 426.504L199.811 439.136ZM193.214 437.01L197.493 424.529C196.382 424.148 195.224 423.917 194.052 423.842L193.214 437.01ZM178.961 436.103L171.026 425.561C166.615 428.882 164.738 434.597 166.321 439.887C167.904 445.176 172.613 448.92 178.123 449.271L178.961 436.103ZM182.907 433.132L190.842 443.674C194.632 440.821 196.599 436.153 195.994 431.448C195.388 426.744 192.304 422.726 187.915 420.925L182.907 433.132ZM106.883 142.301L117.217 150.504C121.339 145.313 120.969 137.87 116.353 133.113L106.883 142.301ZM92.3422 127.313L83.1544 117.843C77.9244 122.917 77.7981 131.271 82.8724 136.501L92.3422 127.313ZM99.4445 120.422L108.914 111.234C106.478 108.723 103.143 107.282 99.644 107.229C96.145 107.176 92.7683 108.516 90.2568 110.952L99.4445 120.422ZM111.895 133.255L102.425 142.443C104.91 145.004 108.327 146.449 111.895 146.449C115.464 146.449 118.88 145.004 121.365 142.443L111.895 133.255ZM124.346 120.422L133.815 129.61L133.815 129.61L124.346 120.422ZM128.054 116.599L137.914 107.831C135.476 105.09 132.008 103.488 128.341 103.408C124.673 103.329 121.139 104.779 118.585 107.412L128.054 116.599ZM129.594 118.33L119.734 127.098C124.57 132.536 132.896 133.032 138.343 128.206L129.594 118.33ZM407.142 149.686L396.419 157.374C399 160.974 403.215 163.039 407.642 162.871L407.142 149.686ZM409.401 149.601L409.901 162.786C413.749 162.64 417.341 160.82 419.736 157.804L409.401 149.601ZM421.19 134.749L434.375 134.25C434.166 128.733 430.544 123.929 425.297 122.211C420.05 120.492 414.288 122.222 410.856 126.546L421.19 134.749ZM421.908 153.697L408.723 154.197C408.869 158.045 410.689 161.637 413.705 164.032L421.908 153.697ZM436.759 165.486L437.259 178.671C442.776 178.462 447.58 174.84 449.298 169.593C451.017 164.346 449.287 158.584 444.962 155.152L436.759 165.486ZM417.811 166.204L417.312 153.019C413.464 153.165 409.871 154.985 407.477 158.001L417.811 166.204ZM417.762 166.267L407.427 158.064C404.079 162.282 403.63 168.111 406.294 172.792L417.762 166.267ZM438.237 297.916L425.324 295.207C424.507 299.097 425.488 303.147 427.994 306.233C430.499 309.319 434.262 311.111 438.237 311.111V297.916ZM346.584 437.92C371.533 425.009 393.424 407.038 410.907 385.367L390.369 368.798C375.163 387.646 356.127 403.269 334.456 414.483L346.584 437.92ZM334.13 447.13C346.639 447.13 355.726 435.729 353.489 423.775L327.551 428.628C326.805 424.644 329.818 420.741 334.13 420.741V447.13ZM323.554 447.13H334.13V420.741H323.554V447.13ZM254.226 460.325C280.405 460.325 305.446 455.319 328.422 446.2L318.687 421.672C298.758 429.582 277.017 433.936 254.226 433.936V460.325ZM207.875 454.957C222.769 458.469 238.289 460.325 254.226 460.325V433.936C240.343 433.936 226.855 432.32 213.932 429.273L207.875 454.957ZM223.382 453.793L224.072 442.953L197.736 441.277L197.046 452.117L223.382 453.793ZM189.27 447.071L199.672 460.891L220.755 445.02L210.353 431.2L189.27 447.071ZM188.934 449.491C191.27 450.292 193.625 451.051 195.998 451.767L203.624 426.504C201.564 425.882 199.52 425.224 197.493 424.529L188.934 449.491ZM178.123 449.271L192.376 450.177L194.052 423.842L179.799 422.935L178.123 449.271ZM174.972 422.591L171.026 425.561L186.896 446.644L190.842 443.674L174.972 422.591ZM53.0117 259.11C53.0117 343.243 104.644 415.286 177.899 445.339L187.915 420.925C124.22 394.794 79.4004 332.17 79.4004 259.11H53.0117ZM96.5494 134.097C69.2975 168.426 53.0117 211.885 53.0117 259.11H79.4004C79.4004 218.053 93.5368 180.335 117.217 150.504L96.5494 134.097ZM116.353 133.113L101.812 118.125L82.8724 136.501L97.4136 151.488L116.353 133.113ZM101.53 136.783L108.632 129.892L90.2568 110.952L83.1544 117.843L101.53 136.783ZM89.9747 129.61L102.425 142.443L121.365 124.067L108.914 111.234L89.9747 129.61ZM121.365 142.443L133.815 129.61L114.876 111.234L102.425 124.067L121.365 142.443ZM133.815 129.61L137.524 125.787L118.585 107.412L114.876 111.234L133.815 129.61ZM118.195 125.368L119.734 127.098L139.453 109.561L137.914 107.831L118.195 125.368ZM254.226 57.8957C203.068 57.8957 156.341 77.0045 120.844 108.454L138.343 128.206C169.201 100.867 209.761 84.2845 254.226 84.2845V57.8957ZM417.866 141.999C381.38 91.1009 321.681 57.8957 254.226 57.8957V84.2845C312.815 84.2845 364.675 113.092 396.419 157.374L417.866 141.999ZM408.902 136.416L406.643 136.501L407.642 162.871L409.901 162.786L408.902 136.416ZM410.856 126.546L399.067 141.398L419.736 157.804L431.524 142.953L410.856 126.546ZM435.093 153.198L434.375 134.25L408.005 135.249L408.723 154.197L435.093 153.198ZM444.962 155.152L430.111 143.363L413.705 164.032L428.556 175.82L444.962 155.152ZM418.311 179.389L437.259 178.671L436.26 152.301L417.312 153.019L418.311 179.389ZM428.096 174.47L428.146 174.407L407.477 158.001L407.427 158.064L428.096 174.47ZM455.441 259.11C455.441 222.997 445.915 189.068 429.23 159.742L406.294 172.792C420.776 198.245 429.052 227.691 429.052 259.11H455.441ZM451.15 300.626C453.964 287.218 455.441 273.329 455.441 259.11H429.052C429.052 271.498 427.765 283.57 425.324 295.207L451.15 300.626ZM438.619 284.722H438.237V311.111H438.619V284.722ZM465.007 311.111C465.007 296.537 453.193 284.722 438.619 284.722V311.111L438.619 311.111H465.007ZM465.007 363.888V311.111H438.619V363.888H465.007ZM438.619 390.277C453.193 390.277 465.007 378.462 465.007 363.888H438.619L438.619 363.888V390.277ZM400.638 390.277H438.619V363.888H400.638V390.277Z" fill="white" mask="url(#path-1-outside-1_39_1455)"/>
<path d="M190.536 141.993C189.258 141.885 188.097 141.504 187.054 140.851C186.041 140.2 185.25 139.348 184.68 138.295C184.141 137.245 183.926 136.08 184.034 134.802L188.833 78.1806C188.941 76.9026 189.349 75.7913 190.057 74.8467C190.796 73.9047 191.72 73.1981 192.827 72.7268C193.965 72.2582 195.174 72.078 196.452 72.1863C197.73 72.2946 198.875 72.6742 199.887 73.3251C200.931 73.9786 201.722 74.8306 202.261 75.8809C202.831 76.9338 203.062 78.0993 202.953 79.3773L198.155 135.999C198.046 137.277 197.623 138.387 196.884 139.329C196.176 140.274 195.252 140.98 194.114 141.449C193.007 141.92 191.814 142.102 190.536 141.993ZM260.244 76.8389C262.208 77.0053 263.784 77.6726 264.972 78.8407C266.191 80.0115 266.724 81.5008 266.571 83.3087L261.578 142.222C261.425 144.029 260.65 145.392 259.254 146.31C257.892 147.199 256.228 147.56 254.265 147.394C252.301 147.228 250.707 146.59 249.482 145.482C248.291 144.345 247.772 142.872 247.926 141.065L248.076 139.288C246.013 141.405 243.522 143.015 240.603 144.117C237.715 145.222 234.448 145.621 230.801 145.311C226.343 144.934 222.501 143.603 219.272 141.321C216.075 139.04 213.673 135.886 212.068 131.857C210.466 127.797 209.805 123 210.086 117.467C210.358 112.404 211.64 107.835 213.931 103.759C216.254 99.6866 219.297 96.5695 223.059 94.4082C226.824 92.2157 230.904 91.3056 235.299 91.6781C242.967 92.3279 248.306 95.449 251.317 101.041L252.918 82.1517C253.071 80.3438 253.832 78.9641 255.2 78.0126C256.599 77.0637 258.28 76.6725 260.244 76.8389ZM249.341 123.808C249.354 123.652 249.379 123.544 249.415 123.484L249.966 116.985C250.141 114.928 249.76 112.933 248.825 111.002C247.924 109.042 246.509 107.399 244.581 106.074C242.655 104.718 240.336 103.925 237.624 103.695C235.38 103.505 233.232 104.029 231.18 105.268C229.163 106.479 227.476 108.235 226.119 110.538C224.796 112.811 224.014 115.367 223.774 118.203C223.518 121.227 223.791 123.934 224.593 126.325C225.426 128.719 226.722 130.65 228.481 132.117C230.274 133.557 232.433 134.383 234.958 134.597C237.608 134.822 239.99 134.49 242.106 133.602C244.225 132.683 245.906 131.365 247.151 129.65C248.429 127.906 249.159 125.958 249.341 123.808ZM296.583 150.933C290.848 150.447 286.041 149.004 282.163 146.603C278.285 144.202 275.452 140.964 273.662 136.888C271.906 132.784 271.261 127.988 271.726 122.502C272.217 116.705 273.619 111.832 275.932 107.883C278.247 103.904 281.366 100.998 285.289 99.1638C289.211 97.33 293.821 96.6532 299.117 97.1335C303.972 97.6391 308.123 99.0426 311.569 101.344C315.016 103.645 317.567 106.703 319.222 110.516C320.91 114.301 321.58 118.627 321.23 123.495C320.927 126.327 320.189 128.367 319.016 129.618C317.842 130.868 315.931 131.381 313.281 131.157L284.713 128.736C284.47 131.98 285.544 134.489 287.937 136.261C290.332 138.003 293.568 139.093 297.643 139.533C301.101 139.857 305.037 139.155 309.454 137.425C310.787 136.879 311.74 136.567 312.311 136.49C312.504 136.444 312.802 136.438 313.208 136.472C314.018 136.541 314.744 136.869 315.384 137.457C316.025 138.045 316.497 138.776 316.8 139.649C317.134 140.525 317.262 141.415 317.186 142.319C317.059 143.815 316.525 145.12 315.583 146.233C314.672 147.349 313.616 148.138 312.415 148.602C310.039 149.593 307.469 150.286 304.704 150.68C301.94 151.073 299.232 151.158 296.583 150.933ZM308.566 120.115C308.766 118.122 308.436 116.273 307.576 114.568C306.747 112.865 305.514 111.489 303.876 110.44C302.241 109.36 300.364 108.73 298.244 108.55C296.218 108.378 294.275 108.7 292.417 109.516C290.561 110.301 289.034 111.458 287.837 112.989C286.64 114.52 285.944 116.251 285.749 118.181L308.566 120.115ZM375.706 121.943C375.757 123.925 375.714 125.915 375.576 127.913C375.472 129.882 375.308 132.191 375.083 134.84L373.625 152.047C373.475 153.823 372.721 155.125 371.364 155.952C370.04 156.75 368.365 157.064 366.339 156.892C364.469 156.733 362.929 156.195 361.72 155.276C360.542 154.36 359.958 153.102 359.968 151.501C357.727 152.756 355.182 153.702 352.334 154.339C349.517 154.98 346.659 155.177 343.76 154.931C340.175 154.627 337.114 153.709 334.575 152.175C332.068 150.644 330.214 148.619 329.015 146.1C327.818 143.55 327.358 140.654 327.632 137.412C327.875 134.544 328.944 131.935 330.839 129.584C332.736 127.202 335.332 125.271 338.629 123.792C341.927 122.282 345.724 121.38 350.019 121.085C351.692 120.975 353.791 121.027 356.316 121.241C358.311 121.41 360.237 121.652 362.094 121.967C362.25 121.98 362.358 122.005 362.417 122.041C362.33 121.217 362.117 120.21 361.779 119.02C361.267 117.281 360.106 115.974 358.296 115.099C356.487 114.224 354.333 113.711 351.834 113.562C350.553 113.485 349.019 113.622 347.231 113.973C345.443 114.324 343.44 114.813 341.22 115.441C340.448 115.658 339.704 115.737 338.987 115.676C337.459 115.546 336.176 114.951 335.135 113.89C334.098 112.797 333.646 111.456 333.781 109.866C333.91 108.339 334.41 107.078 335.279 106.085C336.182 105.062 337.312 104.326 338.668 103.876C340.864 103.152 343.438 102.6 346.39 102.223C349.376 101.816 351.744 101.656 353.495 101.742C360.683 102.131 366.143 104.007 369.877 107.368C373.61 110.73 375.553 115.588 375.706 121.943ZM341.332 138.573C341.181 140.35 341.673 141.773 342.807 142.842C343.943 143.88 345.618 144.493 347.831 144.681C350.231 144.884 352.558 144.657 354.811 144.001C357.067 143.313 359.05 142.508 360.761 141.585L361.383 134.244C361.425 133.746 361.525 133.126 361.682 132.386C360.479 132.127 358.959 131.92 357.12 131.764C354.345 131.529 351.898 131.51 349.778 131.707C347.341 131.94 345.368 132.62 343.86 133.748C342.351 134.876 341.509 136.484 341.332 138.573Z" fill="#EB7100"/>
<path d="M187.054 140.851L176.35 157.498L176.449 157.561L176.548 157.624L187.054 140.851ZM184.68 138.295L167.071 147.33L167.171 147.525L167.276 147.718L184.68 138.295ZM190.057 74.8467L174.487 62.6294L174.351 62.8019L174.22 62.9774L190.057 74.8467ZM192.827 72.7268L185.294 54.4249L185.185 54.4697L185.077 54.5157L192.827 72.7268ZM199.887 73.3251L189.183 89.9722L189.282 90.0359L189.382 90.0983L199.887 73.3251ZM202.261 75.8809L184.652 84.9157L184.752 85.1108L184.856 85.3036L202.261 75.8809ZM196.884 139.329L181.313 127.112L181.178 127.284L181.046 127.46L196.884 139.329ZM194.114 141.449L186.581 123.147L186.472 123.192L186.364 123.238L194.114 141.449ZM192.207 122.272C193.931 122.419 195.822 122.989 197.559 124.077L176.548 157.624C180.373 160.019 184.585 161.352 188.865 161.714L192.207 122.272ZM197.758 124.203C199.537 125.348 201.058 126.975 202.085 128.872L167.276 147.718C169.443 151.721 172.546 155.052 176.35 157.498L197.758 124.203ZM202.289 129.26C203.59 131.794 203.932 134.388 203.755 136.474L164.314 133.131C163.92 137.773 164.693 142.695 167.071 147.33L202.289 129.26ZM203.755 136.474L208.554 79.8519L169.112 76.5094L164.314 133.131L203.755 136.474ZM208.554 79.8519C208.377 81.938 207.603 84.4366 205.895 86.7159L174.22 62.9774C171.096 67.1461 169.505 71.8672 169.112 76.5094L208.554 79.8519ZM205.628 87.0639C204.296 88.7612 202.524 90.1094 200.577 90.9378L185.077 54.5157C180.915 56.2867 177.297 59.0482 174.487 62.6294L205.628 87.0639ZM200.36 91.0287C198.464 91.8091 196.505 92.0533 194.78 91.9072L198.123 52.4654C193.843 52.1027 189.467 52.7073 185.294 54.4249L200.36 91.0287ZM194.78 91.9072C193.059 91.7614 191.064 91.1817 189.183 89.9722L210.591 56.678C206.686 54.1668 202.4 52.8279 198.123 52.4654L194.78 91.9072ZM189.382 90.0983C187.539 88.9443 185.812 87.1771 184.652 84.9157L219.87 66.846C217.632 62.484 214.322 59.013 210.393 56.5519L189.382 90.0983ZM184.856 85.3036C183.457 82.7189 183.039 79.9861 183.232 77.706L222.674 81.0485C223.084 76.2125 222.205 71.1487 219.665 66.4581L184.856 85.3036ZM183.232 77.706L178.434 134.328L217.876 137.67L222.674 81.0485L183.232 77.706ZM178.434 134.328C178.627 132.048 179.499 129.424 181.313 127.112L212.454 151.546C215.747 147.35 217.466 142.506 217.876 137.67L178.434 134.328ZM181.046 127.46C182.57 125.426 184.57 123.975 186.581 123.147L201.647 159.751C205.935 157.986 209.781 155.121 212.721 151.198L181.046 127.46ZM186.364 123.238C188.421 122.362 190.486 122.127 192.207 122.272L188.865 161.714C193.142 162.077 197.592 161.478 201.864 159.66L186.364 123.238ZM264.972 78.8407L251.097 92.9542L251.18 93.0362L251.264 93.1171L264.972 78.8407ZM259.254 146.31L270.07 162.885L270.097 162.867L270.124 162.849L259.254 146.31ZM249.482 145.482L235.815 159.797L236.006 159.979L236.201 160.156L249.482 145.482ZM248.076 139.288L267.797 140.959L272.462 85.9071L233.902 125.475L248.076 139.288ZM240.603 144.117L233.609 125.602L233.569 125.618L233.529 125.633L240.603 144.117ZM219.272 141.321L207.78 157.434L207.813 157.457L207.846 157.48L219.272 141.321ZM212.068 131.857L193.659 139.122L193.67 139.152L193.682 139.181L212.068 131.857ZM210.086 117.467L190.322 116.405L190.321 116.435L190.319 116.465L210.086 117.467ZM213.931 103.759L196.74 93.9538L196.71 94.006L196.68 94.0583L213.931 103.759ZM223.059 94.4082L232.918 111.569L232.969 111.54L233.019 111.511L223.059 94.4082ZM251.317 101.041L233.891 110.424L265.422 168.987L271.038 102.712L251.317 101.041ZM255.2 78.0126L244.09 61.6331L243.994 61.6987L243.898 61.7655L255.2 78.0126ZM249.415 123.484L266.307 133.798L268.742 129.811L269.136 125.155L249.415 123.484ZM248.825 111.002L230.843 119.271L230.926 119.449L231.011 119.626L248.825 111.002ZM244.581 106.074L233.185 122.256L233.278 122.322L233.372 122.386L244.581 106.074ZM231.18 105.268L241.362 122.24L241.387 122.225L241.412 122.21L231.18 105.268ZM226.119 110.538L209.068 100.49L209.04 100.537L209.012 100.585L226.119 110.538ZM224.593 126.325L205.828 132.619L205.864 132.725L205.901 132.831L224.593 126.325ZM228.481 132.117L215.803 147.315L215.947 147.435L216.093 147.553L228.481 132.117ZM242.106 133.602L249.766 151.851L249.876 151.805L249.985 151.758L242.106 133.602ZM247.151 129.65L231.187 117.951L231.158 117.99L231.129 118.03L247.151 129.65ZM258.573 96.5598C256.818 96.4112 253.777 95.5894 251.097 92.9542L278.847 64.7272C273.79 59.7558 267.597 57.5995 261.915 57.118L258.573 96.5598ZM251.264 93.1171C249.821 91.731 248.487 89.8391 247.652 87.5054C246.832 85.2142 246.722 83.1452 246.85 81.6375L286.292 84.98C286.907 77.7214 284.556 70.207 278.679 64.5643L251.264 93.1171ZM246.85 81.6375L241.858 140.55L281.299 143.893L286.292 84.98L246.85 81.6375ZM241.858 140.55C241.985 139.048 242.443 136.989 243.677 134.818C244.938 132.599 246.643 130.915 248.384 129.771L270.124 162.849C277.076 158.28 280.684 151.155 281.299 143.893L241.858 140.55ZM248.438 129.735C251.502 127.736 254.46 127.548 255.936 127.673L252.593 167.115C257.997 167.573 264.281 166.662 270.07 162.885L248.438 129.735ZM255.936 127.673C257.429 127.8 260.188 128.477 262.763 130.808L236.201 160.156C241.225 164.703 247.172 166.656 252.593 167.115L255.936 127.673ZM263.149 131.167C264.679 132.628 266.035 134.587 266.867 136.948C267.678 139.25 267.768 141.296 267.646 142.736L228.205 139.393C227.604 146.478 229.811 154.064 235.815 159.797L263.149 131.167ZM267.646 142.736L267.797 140.959L228.355 137.617L228.205 139.393L267.646 142.736ZM233.902 125.475C233.902 125.475 233.907 125.47 233.914 125.464C233.922 125.457 233.925 125.456 233.918 125.46C233.911 125.465 233.824 125.521 233.609 125.602L247.597 162.632C253.07 160.564 258.055 157.406 262.25 153.101L233.902 125.475ZM233.529 125.633C233.686 125.573 233.728 125.582 233.593 125.598C233.448 125.616 233.09 125.643 232.472 125.591L229.13 165.032C235.207 165.547 241.539 164.951 247.677 162.601L233.529 125.633ZM232.472 125.591C231.719 125.527 231.273 125.405 231.05 125.328C230.84 125.255 230.747 125.195 230.698 125.161L207.846 157.48C214.313 162.054 221.632 164.397 229.13 165.032L232.472 125.591ZM230.763 125.207C230.77 125.212 230.788 125.226 230.809 125.245C230.829 125.265 230.833 125.273 230.821 125.257C230.804 125.234 230.655 125.035 230.455 124.532L193.682 139.181C196.542 146.359 201.17 152.72 207.78 157.434L230.763 125.207ZM230.478 124.591C230.152 123.765 229.677 121.915 229.852 118.469L190.319 116.465C189.933 124.085 190.78 131.828 193.659 139.122L230.478 124.591ZM229.849 118.529C229.972 116.24 230.503 114.669 231.182 113.461L196.68 94.0583C192.776 101.001 190.744 108.568 190.322 116.405L229.849 118.529ZM231.123 113.565C231.846 112.298 232.457 111.835 232.918 111.569L213.2 77.247C206.137 81.3045 200.663 87.0753 196.74 93.9538L231.123 113.565ZM233.019 111.511C233.129 111.447 233.195 111.419 233.221 111.409C233.235 111.403 233.243 111.401 233.246 111.4C233.249 111.399 233.25 111.398 233.251 111.398C233.252 111.398 233.256 111.397 233.265 111.396C233.273 111.395 233.289 111.393 233.315 111.391C233.363 111.388 233.464 111.385 233.628 111.399L236.97 71.9572C228.575 71.2457 220.426 73.0384 213.099 77.3055L233.019 111.511ZM233.628 111.399C235.227 111.535 235.482 111.835 235.067 111.593C234.857 111.47 234.591 111.273 234.333 111.004C234.078 110.738 233.94 110.515 233.891 110.424L268.744 91.6588C261.863 78.8794 249.678 73.0341 236.97 71.9572L233.628 111.399ZM271.038 102.712L272.639 83.823L233.197 80.4805L231.596 99.37L271.038 102.712ZM272.639 83.823C272.517 85.2677 272.084 87.2321 270.936 89.3151C269.763 91.4434 268.168 93.1005 266.502 94.2597L243.898 61.7655C237.226 66.4066 233.798 73.3965 233.197 80.4805L272.639 83.823ZM266.309 94.3921C264.954 95.3111 263.471 95.9409 261.995 96.2842C260.557 96.6188 259.366 96.6271 258.573 96.5598L261.915 57.118C256.219 56.6353 249.845 57.73 244.09 61.6331L266.309 94.3921ZM269.062 125.479C269.019 125.985 268.92 126.907 268.656 128.053C268.434 129.014 267.849 131.273 266.307 133.798L232.524 113.17C229.859 117.534 229.648 121.808 229.62 122.136L269.062 125.479ZM269.136 125.155L269.687 118.656L230.245 115.314L229.695 121.813L269.136 125.155ZM269.687 118.656C270.174 112.915 269.059 107.376 266.639 102.378L231.011 119.626C230.766 119.12 230.523 118.454 230.371 117.654C230.217 116.85 230.183 116.052 230.245 115.314L269.687 118.656ZM266.807 102.733C264.289 97.2582 260.402 92.9319 255.789 89.7623L233.372 122.386C233.044 122.16 232.58 121.783 232.092 121.217C231.598 120.643 231.17 119.98 230.843 119.271L266.807 102.733ZM255.976 89.8927C250.759 86.2187 244.954 84.4539 239.295 83.9743L235.953 123.416C235.872 123.409 235.522 123.37 234.993 123.189C234.448 123.003 233.818 122.702 233.185 122.256L255.976 89.8927ZM239.295 83.9743C232.616 83.4083 226.333 85.0753 220.949 88.3265L241.412 122.21C240.862 122.542 240.058 122.92 239.024 123.173C237.978 123.428 236.925 123.498 235.953 123.416L239.295 83.9743ZM220.999 88.2964C215.784 91.4248 211.87 95.7336 209.068 100.49L243.17 120.585C243.143 120.632 242.994 120.872 242.675 121.204C242.348 121.545 241.907 121.913 241.362 122.24L220.999 88.2964ZM209.012 100.585C206.097 105.595 204.52 111.019 204.053 116.532L243.495 119.874C243.504 119.763 243.511 119.801 243.466 119.949C243.42 120.101 243.341 120.293 243.226 120.49L209.012 100.585ZM204.053 116.532C203.614 121.712 204.011 127.201 205.828 132.619L243.357 120.032C243.46 120.338 243.478 120.518 243.478 120.517C243.477 120.508 243.458 120.306 243.495 119.874L204.053 116.532ZM205.901 132.831C207.784 138.243 211.002 143.31 215.803 147.315L241.16 116.92C241.744 117.408 242.238 117.966 242.622 118.537C242.998 119.097 243.194 119.56 243.284 119.82L205.901 132.831ZM216.093 147.553C221.264 151.703 227.26 153.807 233.287 154.318L236.63 114.876C237.042 114.911 237.709 115.022 238.522 115.333C239.35 115.65 240.155 116.109 240.869 116.682L216.093 147.553ZM233.287 154.318C238.613 154.769 244.268 154.159 249.766 151.851L234.447 115.353C235.041 115.103 235.581 114.973 236.003 114.914C236.413 114.857 236.639 114.877 236.63 114.876L233.287 154.318ZM249.985 151.758C255.052 149.559 259.663 146.108 263.172 141.27L231.129 118.03C231.597 117.385 232.153 116.813 232.75 116.345C233.339 115.883 233.865 115.603 234.228 115.446L249.985 151.758ZM263.115 141.348C266.539 136.676 268.572 131.26 269.062 125.479L229.62 122.136C229.676 121.475 229.83 120.719 230.125 119.933C230.419 119.147 230.799 118.48 231.187 117.951L263.115 141.348ZM273.662 136.888L255.465 144.671L255.502 144.758L255.54 144.844L273.662 136.888ZM275.932 107.883L293.01 117.886L293.024 117.861L293.039 117.836L275.932 107.883ZM299.117 97.1335L301.167 77.4484L301.036 77.4347L300.904 77.4228L299.117 97.1335ZM311.569 101.344L300.579 117.804L311.569 101.344ZM319.222 110.516L301.066 118.394L301.106 118.487L301.147 118.579L319.222 110.516ZM321.23 123.495L340.909 125.599L340.946 125.257L340.971 124.914L321.23 123.495ZM284.713 128.736L286.384 109.015L266.473 107.328L264.977 127.254L284.713 128.736ZM287.937 136.261L276.156 152.165L276.228 152.218L276.3 152.27L287.937 136.261ZM297.643 139.533L295.521 159.21L295.658 159.225L295.794 159.238L297.643 139.533ZM309.454 137.425L316.67 155.855L316.813 155.798L316.956 155.74L309.454 137.425ZM312.311 136.49L314.958 156.104L315.97 155.968L316.962 155.728L312.311 136.49ZM315.384 137.457L302.004 152.04L315.384 137.457ZM316.8 139.649L298.1 146.131L298.199 146.417L298.306 146.699L316.8 139.649ZM315.583 146.233L300.475 133.448L300.361 133.582L300.251 133.718L315.583 146.233ZM312.415 148.602L305.291 130.137L305.04 130.234L304.792 130.337L312.415 148.602ZM308.566 120.115L306.895 139.835L326.31 141.481L328.258 122.094L308.566 120.115ZM307.576 114.568L289.781 123.231L289.842 123.356L289.905 123.48L307.576 114.568ZM303.876 110.44L292.966 126.953L293.082 127.03L293.2 127.105L303.876 110.44ZM292.417 109.516L300.123 127.746L300.247 127.693L300.371 127.639L292.417 109.516ZM285.749 118.181L266.058 116.192L264.036 136.203L284.078 137.902L285.749 118.181ZM298.254 131.212C294.829 130.922 293.209 130.164 292.581 129.775L271.745 163.431C278.873 167.844 286.866 169.972 294.912 170.654L298.254 131.212ZM292.581 129.775C292.214 129.548 292.07 129.393 292.024 129.341C291.981 129.292 291.896 129.188 291.784 128.932L255.54 144.844C258.982 152.684 264.55 158.976 271.745 163.431L292.581 129.775ZM291.859 129.105C291.642 128.597 291.193 127.173 291.447 124.174L252.005 120.831C251.33 128.803 252.171 136.971 255.465 144.671L291.859 129.105ZM291.447 124.174C291.755 120.542 292.536 118.695 293.01 117.886L258.854 97.8808C254.703 104.969 252.68 112.867 252.005 120.831L291.447 124.174ZM293.039 117.836C293.298 117.391 293.47 117.227 293.5 117.198C293.523 117.177 293.552 117.148 293.67 117.093L276.907 81.2346C269.095 84.8867 263.032 90.6983 258.825 97.9308L293.039 117.836ZM293.67 117.093C293.771 117.046 294.73 116.608 297.33 116.844L300.904 77.4228C292.912 76.698 284.652 77.6141 276.907 81.2346L293.67 117.093ZM297.067 116.819C299.292 117.05 300.244 117.58 300.579 117.804L322.56 84.8841C316.001 80.5053 308.652 78.2278 301.167 77.4484L297.067 116.819ZM300.579 117.804C300.791 117.945 300.858 118.027 300.87 118.042C300.883 118.057 300.957 118.144 301.066 118.394L337.378 102.638C334.214 95.3459 329.18 89.3046 322.56 84.8841L300.579 117.804ZM301.147 118.579C301.291 118.902 301.647 119.881 301.489 122.077L340.971 124.914C341.512 117.374 340.529 109.7 337.296 102.453L301.147 118.579ZM301.55 121.391C301.519 121.687 301.529 121.272 301.837 120.419C302.149 119.556 302.909 117.86 304.583 116.075L333.448 143.161C338.953 137.294 340.425 130.133 340.909 125.599L301.55 121.391ZM304.583 116.075C309.411 110.929 314.935 111.435 314.952 111.436L311.61 150.878C316.926 151.328 326.273 150.807 333.448 143.161L304.583 116.075ZM314.952 111.436L286.384 109.015L283.042 148.457L311.61 150.878L314.952 111.436ZM264.977 127.254C264.281 136.526 267.725 145.919 276.156 152.165L299.718 120.358C301.075 121.363 302.561 122.998 303.529 125.257C304.463 127.438 304.52 129.275 304.449 130.217L264.977 127.254ZM276.3 152.27C282.364 156.678 289.267 158.536 295.521 159.21L299.766 119.855C299.333 119.809 299.016 119.754 298.798 119.709C298.691 119.687 298.612 119.667 298.559 119.653C298.506 119.638 298.481 119.63 298.481 119.63C298.481 119.63 298.591 119.667 298.783 119.764C298.978 119.861 299.252 120.018 299.574 120.253L276.3 152.27ZM295.794 159.238C303.247 159.937 310.372 158.32 316.67 155.855L302.238 118.996C299.702 119.989 298.954 119.777 299.492 119.828L295.794 159.238ZM316.956 155.74C317.354 155.577 317.451 155.55 317.323 155.592C317.251 155.616 317.034 155.685 316.704 155.77C316.4 155.847 315.787 155.992 314.958 156.104L309.665 116.876C306.291 117.332 303.205 118.597 301.951 119.111L316.956 155.74ZM316.962 155.728C315.153 156.165 313.718 156.225 313.082 156.238C312.344 156.253 311.796 156.215 311.536 156.193L314.879 116.751C314.102 116.685 311.124 116.416 307.66 117.253L316.962 155.728ZM311.536 156.193C307.67 155.865 304.351 154.194 302.004 152.04L328.765 122.874C325.136 119.544 320.366 117.216 314.879 116.751L311.536 156.193ZM302.004 152.04C300.076 150.271 298.802 148.157 298.1 146.131L335.5 133.167C334.192 129.395 331.975 125.819 328.765 122.874L302.004 152.04ZM298.306 146.699C297.618 144.892 297.282 142.806 297.465 140.648L336.907 143.99C337.243 140.024 336.65 136.158 335.293 132.6L298.306 146.699ZM297.465 140.648C297.674 138.18 298.68 135.569 300.475 133.448L330.691 159.018C334.369 154.671 336.444 149.45 336.907 143.99L297.465 140.648ZM300.251 133.718C301.249 132.495 302.917 131.053 305.291 130.137L319.539 167.067C324.315 165.224 328.095 162.203 330.915 158.748L300.251 133.718ZM304.792 130.337C304.089 130.631 303.158 130.909 301.915 131.086L307.494 170.274C311.78 169.663 315.989 168.556 320.038 166.866L304.792 130.337ZM301.915 131.086C300.553 131.279 299.344 131.305 298.254 131.212L294.912 170.654C299.121 171.011 303.326 170.867 307.494 170.274L301.915 131.086ZM328.258 122.094C328.816 116.543 327.888 110.892 325.248 105.656L289.905 123.48C289.485 122.648 289.163 121.709 288.985 120.711C288.808 119.72 288.803 118.839 288.874 118.135L328.258 122.094ZM325.371 105.905C322.905 100.84 319.166 96.7308 314.552 93.775L293.2 127.105C292.594 126.717 291.928 126.179 291.292 125.469C290.653 124.756 290.15 123.988 289.781 123.231L325.371 105.905ZM314.787 93.9274C310.156 90.8679 305.045 89.2638 299.915 88.829L296.573 128.271C295.682 128.195 294.326 127.851 292.966 126.953L314.787 93.9274ZM299.915 88.829C294.604 88.3789 289.352 89.2473 284.463 91.393L300.371 127.639C299.839 127.872 299.208 128.071 298.505 128.188C297.802 128.304 297.144 128.319 296.573 128.271L299.915 88.829ZM284.711 91.2862C279.874 93.3306 275.593 96.5173 272.246 100.798L303.428 125.18C302.475 126.399 301.247 127.27 300.123 127.746L284.711 91.2862ZM272.246 100.798C268.751 105.268 266.629 110.535 266.058 116.192L305.44 120.17C305.358 120.983 305.153 121.891 304.779 122.821C304.405 123.751 303.926 124.544 303.428 125.18L272.246 100.798ZM284.078 137.902L306.895 139.835L310.237 100.394L287.42 98.46L284.078 137.902ZM375.706 121.943L355.92 122.417L355.92 122.438L355.921 122.46L375.706 121.943ZM375.576 127.913L355.832 126.55L355.821 126.709L355.812 126.868L375.576 127.913ZM371.364 155.952L381.586 172.899L381.623 172.877L381.66 172.854L371.364 155.952ZM361.72 155.276L349.571 170.9L349.659 170.968L349.747 171.035L361.72 155.276ZM359.968 151.501L379.759 151.626L379.972 117.626L350.302 134.231L359.968 151.501ZM352.334 154.339L348.01 135.026L347.978 135.033L347.947 135.04L352.334 154.339ZM334.575 152.175L324.261 169.067L324.301 169.091L324.341 169.115L334.575 152.175ZM329.015 146.1L311.098 154.507L311.122 154.557L311.145 154.608L329.015 146.1ZM330.839 129.584L346.249 142.002L346.285 141.958L346.32 141.914L330.839 129.584ZM338.629 123.792L346.73 141.85L346.798 141.819L346.866 141.788L338.629 123.792ZM350.019 121.085L348.728 101.335L348.695 101.337L348.661 101.34L350.019 121.085ZM362.094 121.967L358.791 141.481L359.602 141.618L360.423 141.687L362.094 121.967ZM362.417 122.041L352.103 138.933L386.318 159.825L382.099 119.958L362.417 122.041ZM361.779 119.02L380.815 113.604L380.79 113.517L380.764 113.43L361.779 119.02ZM351.834 113.562L350.644 133.318L350.656 133.319L351.834 113.562ZM341.22 115.441L346.58 134.493L346.595 134.489L346.61 134.485L341.22 115.441ZM335.135 113.89L320.784 127.519L320.892 127.632L321.001 127.743L335.135 113.89ZM335.279 106.085L320.445 92.9829L320.413 93.0192L320.381 93.0556L335.279 106.085ZM338.668 103.876L332.469 85.0801L332.453 85.0856L332.436 85.0912L338.668 103.876ZM346.39 102.223L348.903 121.854L348.981 121.844L349.059 121.834L346.39 102.223ZM353.495 101.742L354.565 81.9791L354.513 81.9763L354.461 81.9737L353.495 101.742ZM369.877 107.368L356.634 122.076L369.877 107.368ZM342.807 142.842L329.227 157.24L329.342 157.348L329.458 157.454L342.807 142.842ZM354.811 144.001L360.349 163.002L360.466 162.967L360.584 162.932L354.811 144.001ZM360.761 141.585L370.154 159.006L379.578 153.924L380.482 143.256L360.761 141.585ZM361.682 132.386L381.043 136.49L385.135 117.19L365.847 113.038L361.682 132.386ZM349.778 131.707L347.946 112L347.92 112.003L347.895 112.005L349.778 131.707ZM355.921 122.46C355.956 123.809 355.927 125.171 355.832 126.55L395.321 129.275C395.502 126.658 395.559 124.041 395.49 121.426L355.921 122.46ZM355.812 126.868C355.722 128.57 355.575 130.662 355.363 133.169L394.804 136.512C395.041 133.72 395.222 131.193 395.34 128.957L355.812 126.868ZM355.363 133.169L353.904 150.375L393.346 153.718L394.804 136.512L355.363 133.169ZM353.904 150.375C354.03 148.89 354.489 146.736 355.82 144.437C357.195 142.063 359.086 140.257 361.067 139.05L381.66 172.854C389.123 168.308 392.738 160.9 393.346 153.718L353.904 150.375ZM361.141 139.005C364.368 137.058 367.183 137.101 368.011 137.171L364.668 176.613C369.548 177.026 375.712 176.442 381.586 172.899L361.141 139.005ZM368.011 137.171C368.998 137.255 371.279 137.683 373.693 139.517L349.747 171.035C354.58 174.707 359.94 176.212 364.668 176.613L368.011 137.171ZM373.869 139.652C375.573 140.977 377.216 142.87 378.35 145.312C379.463 147.71 379.769 149.953 379.759 151.626L340.177 151.377C340.131 158.615 343.144 165.902 349.571 170.9L373.869 139.652ZM350.302 134.231C349.943 134.431 349.238 134.751 348.01 135.026L356.658 173.653C361.126 172.652 365.51 171.08 369.633 168.772L350.302 134.231ZM347.947 135.04C347.13 135.226 346.316 135.285 345.431 135.21L342.089 174.652C347.002 175.069 351.904 174.733 356.721 173.639L347.947 135.04ZM345.431 135.21C344.834 135.16 344.534 135.079 344.464 135.058C344.404 135.04 344.549 135.077 344.81 135.235L324.341 169.115C329.978 172.521 336.11 174.145 342.089 174.652L345.431 135.21ZM344.889 135.284C345.112 135.419 345.491 135.694 345.905 136.146C346.324 136.604 346.655 137.11 346.885 137.592L311.145 154.608C314.086 160.784 318.658 165.645 324.261 169.067L344.889 135.284ZM346.932 137.693C347.154 138.166 347.268 138.595 347.317 138.904C347.364 139.199 347.336 139.28 347.353 139.083L307.911 135.741C307.389 141.899 308.211 148.355 311.098 154.507L346.932 137.693ZM347.353 139.083C347.308 139.611 347.174 140.211 346.931 140.806C346.69 141.393 346.418 141.793 346.249 142.002L315.428 117.165C311.186 122.43 308.504 128.742 307.911 135.741L347.353 139.083ZM346.32 141.914C346.234 142.022 346.156 142.105 346.097 142.162C346.038 142.218 346.007 142.24 346.017 142.233C346.038 142.217 346.243 142.068 346.73 141.85L330.527 105.735C324.884 108.267 319.557 111.98 315.357 117.254L346.32 141.914ZM346.866 141.788C347.633 141.437 349.028 140.991 351.377 140.829L348.661 101.34C342.421 101.769 336.222 103.127 330.392 105.796L346.866 141.788ZM351.31 140.834C351.634 140.813 352.661 140.794 354.645 140.962L357.987 101.521C354.921 101.261 351.75 101.138 348.728 101.335L351.31 140.834ZM354.645 140.962C356.127 141.088 357.507 141.263 358.791 141.481L365.397 102.453C362.967 102.041 360.495 101.733 357.987 101.521L354.645 140.962ZM360.423 141.687C359.916 141.645 358.994 141.545 357.848 141.281C356.887 141.06 354.628 140.474 352.103 138.933L372.732 105.15C368.367 102.485 364.094 102.274 363.765 102.246L360.423 141.687ZM382.099 119.958C381.85 117.602 381.328 115.407 380.815 113.604L342.742 124.436C342.811 124.679 342.833 124.781 342.829 124.762C342.826 124.749 342.814 124.691 342.797 124.591C342.781 124.491 342.758 124.334 342.736 124.124L382.099 119.958ZM380.764 113.43C378.494 105.719 373.14 100.294 366.916 97.2828L349.677 132.915C348.583 132.386 347.117 131.444 345.725 129.878C344.299 128.272 343.329 126.43 342.793 124.61L380.764 113.43ZM366.916 97.2828C362.281 95.0406 357.481 94.0723 353.012 93.8058L350.656 133.319C351.184 133.35 350.693 133.406 349.677 132.915L366.916 97.2828ZM353.024 93.8065C349.531 93.5962 346.226 94.0011 343.42 94.5516L351.042 133.394C351.376 133.329 351.513 133.318 351.481 133.32C351.46 133.322 351.38 133.329 351.245 133.332C351.111 133.335 350.908 133.334 350.644 133.318L353.024 93.8065ZM343.42 94.5516C340.983 95.0297 338.441 95.6588 335.83 96.3978L346.61 134.485C348.438 133.967 349.903 133.618 351.042 133.394L343.42 94.5516ZM335.86 96.3892C337.113 96.0369 338.755 95.7937 340.658 95.955L337.316 135.397C340.652 135.68 343.783 135.28 346.58 134.493L335.86 96.3892ZM340.658 95.955C342.007 96.0693 343.581 96.4243 345.206 97.1777C346.839 97.9351 348.203 98.9472 349.27 100.036L321.001 127.743C325.471 132.304 331.227 134.881 337.316 135.397L340.658 95.955ZM349.486 100.26C350.82 101.665 352.024 103.516 352.776 105.75C353.518 107.955 353.634 109.976 353.502 111.537L314.06 108.195C313.48 115.043 315.602 122.062 320.784 127.519L349.486 100.26ZM353.502 111.537C353.335 113.511 352.515 116.44 350.177 119.113L320.381 93.0556C316.304 97.7166 314.486 103.166 314.06 108.195L353.502 111.537ZM350.113 119.186C348.588 120.913 346.697 122.065 344.901 122.661L332.436 85.0912C327.926 86.5874 323.776 89.2115 320.445 92.9829L350.113 119.186ZM344.867 122.672C345.58 122.436 346.867 122.115 348.903 121.854L343.878 82.5913C340.01 83.0863 336.149 83.8666 332.469 85.0801L344.867 122.672ZM349.059 121.834C350.221 121.675 351.103 121.587 351.742 121.544C352.408 121.499 352.635 121.515 352.528 121.51L354.461 81.9737C350.936 81.8014 347.186 82.1405 343.721 82.6119L349.059 121.834ZM352.424 121.504C357.004 121.752 357.449 122.811 356.634 122.076L383.12 92.6601C374.837 85.2027 364.361 82.5098 354.565 81.9791L352.424 121.504ZM356.634 122.076C356.429 121.892 356.227 121.665 356.056 121.417C355.886 121.171 355.795 120.976 355.758 120.882C355.688 120.708 355.888 121.106 355.92 122.417L395.491 121.469C395.246 111.204 391.913 100.577 383.12 92.6601L356.634 122.076ZM321.611 136.902C321.034 143.713 323.036 151.401 329.227 157.24L356.386 128.444C358.059 130.022 359.459 132.093 360.294 134.51C361.101 136.846 361.168 138.881 361.053 140.244L321.611 136.902ZM329.458 157.454C334.969 162.489 341.462 164.003 346.16 164.401L349.502 124.96C349.774 124.983 352.917 125.271 356.155 128.23L329.458 157.454ZM346.16 164.401C350.922 164.805 355.695 164.358 360.349 163.002L349.273 125C349.324 124.985 349.39 124.971 349.457 124.965C349.523 124.958 349.544 124.963 349.502 124.96L346.16 164.401ZM360.584 162.932C363.838 161.939 367.076 160.665 370.154 159.006L351.368 124.165C351.024 124.35 350.296 124.686 349.039 125.07L360.584 162.932ZM380.482 143.256L381.104 135.916L341.662 132.573L341.04 139.914L380.482 143.256ZM381.104 135.916C381.075 136.263 381.04 136.485 381.03 136.547C381.019 136.617 381.019 136.604 381.043 136.49L342.321 128.282C342.07 129.463 341.799 130.957 341.662 132.573L381.104 135.916ZM365.847 113.038C363.525 112.538 361.098 112.239 358.791 112.043L355.448 151.485C356.097 151.54 356.597 151.596 356.965 151.646C357.147 151.671 357.284 151.693 357.38 151.709C357.478 151.726 357.521 151.735 357.516 151.734L365.847 113.038ZM358.791 112.043C355.184 111.737 351.523 111.668 347.946 112L351.61 151.414C352.273 151.352 353.506 151.32 355.448 151.485L358.791 112.043ZM347.895 112.005C342.906 112.482 337.172 114.036 332.007 117.898L355.713 149.598C353.564 151.205 351.776 151.398 351.662 151.409L347.895 112.005ZM332.007 117.898C325.431 122.816 322.205 129.89 321.611 136.902L361.053 140.244C360.953 141.424 360.603 143.124 359.627 144.986C358.625 146.898 357.234 148.461 355.713 149.598L332.007 117.898Z" fill="white"/>
<circle cx="254.226" cy="259.11" r="191.319" fill="#FFAE63" stroke="black" stroke-width="6.59719"/>
<path d="M198.449 402.866C197.619 401.763 196.19 401.294 194.868 401.69C193.545 402.086 192.609 403.263 192.522 404.64L191.377 422.628L176.977 433.467C175.875 434.297 175.405 435.726 175.801 437.049C176.197 438.371 177.374 439.307 178.752 439.395L196.739 440.539L207.578 454.939C208.409 456.042 209.838 456.511 211.16 456.115C212.482 455.719 213.418 454.542 213.506 453.165L214.65 435.177L229.05 424.338C230.153 423.508 230.622 422.079 230.226 420.756C229.831 419.434 228.653 418.498 227.276 418.41L209.289 417.266L198.449 402.866Z" fill="#FFF9DB" stroke="black" stroke-width="6.59719" stroke-linejoin="round"/>
<path d="M421.19 134.75L421.908 153.697L436.759 165.486L417.812 166.204L406.023 181.055L405.305 162.108L390.454 150.319L409.401 149.601L421.19 134.75Z" fill="#FFF9DB"/>
<path fill-rule="evenodd" clip-rule="evenodd" d="M423.246 128.479C425.869 129.339 427.68 131.74 427.785 134.499L428.388 150.415L440.863 160.318C443.026 162.034 443.89 164.915 443.031 167.539C442.172 170.162 439.77 171.973 437.012 172.078L421.095 172.681L411.193 185.156C409.476 187.318 406.595 188.183 403.972 187.324C401.348 186.465 399.537 184.063 399.433 181.304L398.83 165.388L386.354 155.485C384.192 153.769 383.327 150.888 384.187 148.265C385.046 145.641 387.448 143.83 390.206 143.726L406.123 143.122L416.025 130.647C417.742 128.485 420.623 127.62 423.246 128.479ZM409.404 149.6L390.456 150.318L405.307 162.107L406.025 181.055L417.814 166.203L436.762 165.485L421.911 153.697L421.192 134.749L409.404 149.6Z" fill="black"/>
<path d="M162.571 257.632C163.124 196.855 194.466 152.701 260.42 152.701C326.967 152.701 360.411 184.275 362.536 251.209C363.323 275.988 351.864 313.249 333.587 336.001C332.625 337.199 332.072 338.695 332.077 340.232C332.211 381.231 335.816 403.616 341.76 429.223C342.709 433.308 339.625 437.233 335.431 437.233H228.804C225.226 437.233 222.326 434.333 222.326 430.755V377.899H204.526C174.83 377.899 160.73 363.8 162.286 315.595C162.398 312.123 159.834 309.096 156.377 308.759L146.654 307.811C142.049 307.362 139.386 302.37 141.578 298.296L161.791 260.71C162.298 259.767 162.561 258.703 162.571 257.632Z" fill="#5C7CFA"/>
<path d="M290.011 348.497C290.011 364.438 277.772 377.899 259.721 377.899C233.862 377.899 233.87 377.899 204.526 377.899C174.83 377.899 160.73 363.8 162.286 315.595C162.398 312.123 159.834 309.096 156.377 308.759L146.654 307.811C142.049 307.362 139.386 302.37 141.578 298.296L161.791 260.71C162.298 259.767 162.561 258.703 162.571 257.632C163.124 196.855 194.466 152.701 260.42 152.701C326.967 152.701 360.411 184.275 362.536 251.209C363.323 275.988 351.864 313.249 333.587 336.001C332.625 337.199 332.072 338.695 332.077 340.232C332.211 381.231 335.816 403.616 341.76 429.223C342.709 433.308 339.625 437.233 335.431 437.233H228.804C225.226 437.233 222.326 434.333 222.326 430.755V377.899" stroke="black" stroke-width="6.59719" stroke-linecap="round" stroke-linejoin="round"/>
<rect x="246.841" y="289.699" width="38.3422" height="17.7218" rx="6.53736" transform="rotate(7.89375 246.841 289.699)" fill="white" stroke="black" stroke-width="6.59719"/>
<path fill-rule="evenodd" clip-rule="evenodd" d="M247.264 291.238C247.264 291.238 247.962 278.636 245.539 275.024C241.494 268.993 232.514 260.165 235.278 240.226C241.489 195.429 315.796 206.487 309.688 250.543C306.923 270.482 295.88 276.534 290.347 281.237C287.033 284.054 284.276 296.369 284.276 296.369L247.264 291.238Z" fill="#FFE066"/>
<path fill-rule="evenodd" clip-rule="evenodd" d="M240.678 290.874C240.678 290.874 240.678 290.874 240.678 290.873L240.678 290.872L240.679 290.858L240.683 290.775C240.687 290.697 240.692 290.577 240.698 290.419C240.711 290.103 240.728 289.638 240.741 289.065C240.766 287.911 240.776 286.356 240.718 284.72C240.659 283.057 240.533 281.448 240.32 280.142C240.136 279.011 239.956 278.573 239.963 278.554C239.654 278.103 239.25 277.552 238.78 276.911C236.894 274.341 233.946 270.322 231.82 265.502C228.917 258.919 227.196 250.491 228.745 239.319C230.578 226.096 237.58 216.645 247.03 211.063C256.289 205.594 267.538 204.024 278.043 205.534C288.548 207.044 298.904 211.718 306.296 219.501C313.834 227.437 318.036 238.377 316.224 251.448C314.675 262.62 310.725 270.262 306.141 275.807C302.784 279.866 298.853 282.932 296.34 284.891C295.713 285.38 295.174 285.801 294.754 286.15C294.755 286.171 294.463 286.543 293.978 287.581C293.418 288.781 292.86 290.295 292.35 291.879C291.849 293.438 291.435 294.936 291.146 296.053C291.003 296.608 290.892 297.061 290.818 297.368C290.781 297.522 290.754 297.639 290.737 297.715L290.718 297.796L290.715 297.81L290.715 297.811C289.964 301.16 286.771 303.375 283.371 302.903L246.359 297.771C242.959 297.3 240.489 294.301 240.678 290.875C240.678 290.875 240.678 290.875 240.678 290.874ZM284.277 296.369C284.277 296.369 287.034 284.053 290.348 281.236C291.05 280.639 291.841 280.02 292.693 279.354C298.551 274.773 307.275 267.95 309.689 250.542C315.797 206.486 241.491 195.428 235.28 240.225C232.866 257.633 239.405 266.572 243.795 272.575C244.434 273.447 245.027 274.258 245.54 275.023C247.963 278.636 247.265 291.237 247.265 291.237L284.277 296.369Z" fill="black"/>
<path d="M256.71 252.512L268.761 270.126L284.622 256.382" stroke="black" stroke-width="6.59719" stroke-linecap="round" stroke-linejoin="round"/>
<path d="M268.584 270.101L264.971 296.157" stroke="black" stroke-width="6.59719" stroke-linecap="round" stroke-linejoin="round"/>
<path d="M246.913 180.67C245.433 177.34 241.535 175.841 238.205 177.32C234.876 178.8 233.376 182.699 234.856 186.028L241.906 201.891C243.386 205.221 247.285 206.72 250.614 205.24C253.944 203.761 255.443 199.862 253.963 196.532L246.913 180.67Z" fill="white" stroke="black" stroke-width="6.59719" stroke-linecap="round"/>
<path d="M286.184 175.538C286.738 171.937 284.268 168.569 280.666 168.015C277.065 167.461 273.697 169.931 273.143 173.532L269.618 196.445C269.064 200.046 271.534 203.415 275.135 203.969C278.736 204.523 282.105 202.053 282.659 198.451L286.184 175.538Z" fill="white" stroke="black" stroke-width="6.59719" stroke-linecap="round"/>
<path d="M320.28 197.758C322.398 194.793 321.711 190.673 318.746 188.555C315.782 186.437 311.661 187.124 309.544 190.089L300.731 202.427C298.613 205.392 299.3 209.512 302.265 211.63L304.182 208.946L302.265 211.63C305.229 213.748 309.35 213.061 311.468 210.096L320.28 197.758Z" fill="white" stroke="black" stroke-width="6.59719" stroke-linecap="round"/>
<path d="M190.505 142.351C189.227 142.243 188.066 141.862 187.023 141.208C186.011 140.558 185.219 139.706 184.649 138.653C184.11 137.602 183.895 136.438 184.004 135.16L188.802 78.5385C188.91 77.2605 189.318 76.1492 190.026 75.2045C190.765 74.2625 191.689 73.5559 192.796 73.0846C193.935 72.616 195.143 72.4359 196.421 72.5442C197.699 72.6525 198.844 73.0321 199.856 73.683C200.9 74.3365 201.691 75.1884 202.23 76.2387C202.8 77.2916 203.031 78.4571 202.922 79.7351L198.124 136.357C198.016 137.635 197.592 138.745 196.853 139.687C196.145 140.632 195.222 141.338 194.083 141.807C192.976 142.278 191.783 142.46 190.505 142.351Z" fill="#5C7CFA"/>
<path d="M260.213 77.1968C262.177 77.3632 263.753 78.0305 264.941 79.1986C266.16 80.3693 266.693 81.8587 266.54 83.6666L261.547 142.579C261.394 144.387 260.62 145.75 259.223 146.668C257.861 147.557 256.197 147.918 254.234 147.752C252.27 147.585 250.676 146.948 249.451 145.84C248.26 144.703 247.741 143.23 247.895 141.422L248.045 139.646C245.982 141.763 243.491 143.372 240.572 144.475C237.684 145.58 234.417 145.978 230.77 145.669C226.313 145.292 222.47 143.961 219.241 141.678C216.044 139.398 213.642 136.244 212.037 132.215C210.435 128.154 209.774 123.358 210.055 117.825C210.327 112.762 211.609 108.193 213.901 104.117C216.224 100.044 219.266 96.9274 223.028 94.766C226.793 92.5735 230.873 91.6635 235.268 92.0359C242.936 92.6858 248.276 95.8068 251.286 101.399L252.887 82.5096C253.04 80.7016 253.801 79.3219 255.169 78.3704C256.568 77.4216 258.249 77.0304 260.213 77.1968ZM249.31 124.165C249.323 124.01 249.348 123.902 249.385 123.842L249.935 117.343C250.11 115.286 249.729 113.291 248.794 111.36C247.893 109.4 246.478 107.757 244.55 106.432C242.624 105.076 240.305 104.283 237.593 104.053C235.349 103.863 233.201 104.387 231.15 105.626C229.132 106.837 227.445 108.593 226.088 110.895C224.765 113.169 223.983 115.724 223.743 118.561C223.487 121.585 223.76 124.292 224.562 126.683C225.395 129.077 226.691 131.008 228.45 132.475C230.244 133.914 232.403 134.741 234.927 134.955C237.577 135.18 239.96 134.848 242.076 133.96C244.194 133.04 245.875 131.723 247.12 130.008C248.398 128.264 249.128 126.316 249.31 124.165Z" fill="#5C7CFA"/>
<path d="M296.552 151.291C290.817 150.805 286.01 149.362 282.132 146.961C278.254 144.56 275.421 141.322 273.631 137.246C271.876 133.142 271.23 128.346 271.695 122.86C272.187 117.062 273.588 112.189 275.901 108.241C278.216 104.262 281.335 101.355 285.258 99.5217C289.18 97.6879 293.79 97.0111 299.086 97.4913C303.941 97.9969 308.092 99.4004 311.539 101.702C314.985 104.003 317.536 107.06 319.191 110.874C320.879 114.659 321.549 118.985 321.199 123.853C320.896 126.684 320.158 128.725 318.985 129.976C317.811 131.226 315.9 131.739 313.25 131.515L284.682 129.094C284.439 132.338 285.513 134.847 287.906 136.619C290.302 138.36 293.537 139.451 297.612 139.89C301.07 140.215 305.006 139.512 309.423 137.783C310.756 137.237 311.709 136.925 312.28 136.848C312.473 136.802 312.771 136.796 313.177 136.83C313.987 136.899 314.713 137.227 315.354 137.815C315.994 138.403 316.466 139.134 316.769 140.007C317.103 140.883 317.232 141.773 317.155 142.677C317.028 144.173 316.494 145.478 315.552 146.591C314.641 147.707 313.585 148.496 312.384 148.96C310.008 149.951 307.438 150.644 304.673 151.037C301.909 151.431 299.202 151.516 296.552 151.291ZM308.535 120.472C308.735 118.48 308.405 116.631 307.545 114.926C306.716 113.223 305.483 111.847 303.845 110.798C302.21 109.717 300.333 109.087 298.213 108.908C296.187 108.736 294.245 109.058 292.386 109.874C290.53 110.658 289.003 111.816 287.806 113.347C286.609 114.878 285.913 116.609 285.718 118.539L308.535 120.472Z" fill="#5C7CFA"/>
<path d="M375.675 122.301C375.726 124.283 375.683 126.273 375.545 128.27C375.441 130.239 375.277 132.549 375.053 135.198L373.594 152.404C373.444 154.181 372.69 155.483 371.333 156.31C370.009 157.108 368.334 157.421 366.308 157.25C364.438 157.091 362.898 156.553 361.689 155.634C360.511 154.718 359.927 153.46 359.937 151.859C357.696 153.113 355.151 154.059 352.303 154.697C349.486 155.337 346.628 155.535 343.729 155.289C340.144 154.985 337.083 154.067 334.544 152.533C332.037 151.002 330.184 148.977 328.984 146.458C327.788 143.908 327.327 141.012 327.601 137.77C327.844 134.902 328.913 132.293 330.808 129.942C332.705 127.56 335.302 125.629 338.598 124.15C341.897 122.64 345.693 121.738 349.988 121.442C351.661 121.333 353.76 121.385 356.285 121.599C358.28 121.768 360.206 122.01 362.063 122.324C362.219 122.338 362.327 122.362 362.386 122.399C362.299 121.575 362.086 120.568 361.748 119.378C361.236 117.639 360.075 116.332 358.265 115.457C356.456 114.581 354.302 114.069 351.803 113.92C350.522 113.843 348.988 113.98 347.2 114.331C345.412 114.681 343.409 115.171 341.189 115.799C340.417 116.016 339.673 116.094 338.956 116.034C337.429 115.904 336.145 115.309 335.105 114.247C334.067 113.155 333.615 111.814 333.75 110.224C333.88 108.697 334.379 107.436 335.248 106.442C336.151 105.42 337.281 104.684 338.637 104.234C340.834 103.509 343.408 102.958 346.359 102.581C349.345 102.174 351.713 102.014 353.464 102.1C360.652 102.489 366.112 104.364 369.846 107.726C373.58 111.088 375.522 115.946 375.675 122.301ZM341.301 138.931C341.15 140.708 341.642 142.131 342.776 143.2C343.912 144.238 345.587 144.851 347.8 145.038C350.2 145.242 352.527 145.015 354.78 144.358C357.036 143.671 359.019 142.865 360.73 141.943L361.352 134.602C361.394 134.104 361.494 133.484 361.651 132.744C360.448 132.485 358.928 132.278 357.089 132.122C354.314 131.887 351.867 131.868 349.747 132.065C347.31 132.298 345.337 132.978 343.829 134.106C342.321 135.234 341.478 136.842 341.301 138.931Z" fill="#5C7CFA"/>
<path fill-rule="evenodd" clip-rule="evenodd" d="M179.952 152.349L179.886 152.306C177.013 150.459 174.681 147.954 173.046 144.934L172.976 144.806L172.91 144.676C171.145 141.236 170.557 137.567 170.856 134.046L175.654 77.424C175.953 73.9033 177.149 70.3854 179.468 67.2914L179.555 67.1744L179.645 67.0594C181.765 64.3579 184.485 62.2814 187.629 60.9437L187.701 60.913L187.774 60.8831C190.935 59.5818 194.255 59.1187 197.535 59.3966C200.787 59.6723 204.002 60.6783 206.926 62.5422C209.825 64.3732 212.244 66.913 213.902 70.0868C215.732 73.5285 216.375 77.2445 216.069 80.849L215.828 83.6935C216.024 83.5754 216.222 83.459 216.422 83.3442C222.552 79.7828 229.333 78.2911 236.382 78.8884C237.609 78.9924 238.823 79.1461 240.018 79.3513C240.884 74.7796 243.361 70.5107 247.634 67.5387L247.698 67.4942L247.762 67.4505C252.065 64.5322 256.875 63.672 261.327 64.0492C265.748 64.4239 270.378 66.0696 274.136 69.7358C278.418 73.8814 280.146 79.3629 279.687 84.7805L279.441 87.6762C279.517 87.6401 279.593 87.6042 279.67 87.5686C286.14 84.5437 293.184 83.7074 300.277 84.3506L300.365 84.3585L300.453 84.3676C307.061 85.0558 313.344 87.042 318.865 90.7283C321.561 92.5283 323.938 94.6412 325.975 97.039C328.385 94.5389 331.3 92.766 334.482 91.7103L334.504 91.7029C337.674 90.6577 341.087 89.9556 344.631 89.4995C347.919 89.0538 351.189 88.778 354.108 88.9206L354.142 88.9223L354.177 88.9242C363.104 89.4078 371.908 91.8283 378.674 97.9204C385.778 104.317 388.649 113.018 388.865 121.977C388.926 124.338 388.876 126.703 388.715 129.071C388.602 131.192 388.428 133.612 388.199 136.312L386.741 153.518C386.285 158.898 383.625 164.271 378.197 167.578L378.172 167.593L378.147 167.608C373.79 170.236 369.122 170.73 365.194 170.397C362.088 170.133 358.771 169.286 355.674 167.46C355.518 167.497 355.362 167.533 355.205 167.568C351.062 168.507 346.849 168.795 342.614 168.436C337.434 167.997 332.325 166.608 327.721 163.826L327.694 163.81L327.668 163.794C325.413 162.417 323.379 160.767 321.613 158.853C320.321 159.776 318.893 160.57 317.328 161.193C313.878 162.618 310.262 163.569 306.533 164.1C302.832 164.627 299.127 164.751 295.437 164.438C288.162 163.822 281.231 161.921 275.187 158.179C273.396 157.071 271.729 155.832 270.194 154.468C269.141 155.665 267.901 156.753 266.469 157.694L266.434 157.717C262.12 160.532 257.376 161.26 253.119 160.899C249.76 160.614 246.261 159.616 243.091 157.547C238.705 158.865 234.165 159.198 229.655 158.816C223.171 158.267 217.011 156.261 211.623 152.451L211.601 152.436L211.58 152.421C209.846 151.184 208.271 149.808 206.852 148.311C204.754 150.859 202.117 152.755 199.176 153.978C195.981 155.323 192.643 155.774 189.39 155.498C186.111 155.22 182.916 154.205 180.019 152.39L179.952 152.349ZM194.083 141.806C195.221 141.338 196.144 140.631 196.852 139.687C197.591 138.745 198.015 137.635 198.123 136.357L202.922 79.7348C203.03 78.4568 202.799 77.2914 202.229 76.2384C201.69 75.1881 200.899 74.3362 199.856 73.6827C198.843 73.0318 197.698 72.6522 196.42 72.5439C195.142 72.4356 193.934 72.6158 192.796 73.0844C191.688 73.5556 190.765 74.2623 190.026 75.2043C189.318 76.1489 188.91 77.2602 188.801 78.5382L184.003 135.16C183.895 136.438 184.11 137.602 184.649 138.652C185.219 139.705 186.01 140.557 187.022 141.208C188.066 141.862 189.227 142.243 190.505 142.351C191.783 142.459 192.975 142.278 194.083 141.806ZM231.149 105.626C231.305 105.532 231.461 105.442 231.618 105.356C232.471 104.889 233.341 104.544 234.227 104.321C235.323 104.045 236.446 103.956 237.593 104.053C239.757 104.236 241.671 104.778 243.335 105.68C243.756 105.907 244.161 106.158 244.549 106.432C246.478 107.757 247.892 109.399 248.794 111.359C249.729 113.291 250.109 115.285 249.935 117.343L249.384 123.842C249.348 123.901 249.323 124.009 249.31 124.165C249.277 124.545 249.228 124.919 249.162 125.286C248.852 126.998 248.171 128.571 247.119 130.007C245.893 131.697 244.243 133.001 242.168 133.918C242.137 133.932 242.106 133.946 242.075 133.959C240.526 134.61 238.834 134.962 236.999 135.015C236.983 135.016 236.967 135.016 236.952 135.017C236.295 135.034 235.62 135.013 234.927 134.955C233.788 134.858 232.724 134.637 231.734 134.291C230.529 133.87 229.434 133.265 228.45 132.475C227.897 132.014 227.39 131.507 226.928 130.954C225.921 129.748 225.133 128.324 224.561 126.683C223.759 124.292 223.486 121.584 223.743 118.561C223.983 115.724 224.765 113.169 226.088 110.895C227.444 108.593 229.132 106.836 231.149 105.626ZM272.23 118.707C271.995 120.034 271.817 121.418 271.695 122.86C271.563 124.41 271.521 125.905 271.567 127.345C271.568 127.391 271.57 127.437 271.571 127.483C271.579 127.694 271.588 127.903 271.6 128.111C271.646 128.962 271.724 129.793 271.834 130.604C272.158 132.989 272.757 135.203 273.631 137.246C274.038 138.174 274.5 139.059 275.016 139.9C276.511 142.339 278.461 144.413 280.866 146.121C280.895 146.142 280.924 146.162 280.953 146.183C281.335 146.451 281.727 146.711 282.132 146.961C285.972 149.338 290.722 150.776 296.384 151.276C296.437 151.281 296.489 151.286 296.542 151.29L296.552 151.291C299.201 151.515 301.908 151.431 304.673 151.037C306.694 150.749 308.612 150.302 310.425 149.694C311.007 149.499 311.579 149.288 312.14 149.06C312.221 149.027 312.303 148.993 312.384 148.959C312.795 148.801 313.19 148.604 313.567 148.368C313.618 148.336 313.668 148.304 313.719 148.271C313.75 148.25 313.782 148.229 313.813 148.208C314.166 147.967 314.504 147.691 314.826 147.381C314.962 147.25 315.095 147.112 315.226 146.969C315.336 146.847 315.445 146.721 315.551 146.591C316.054 145.996 316.441 145.347 316.712 144.643C316.948 144.029 317.095 143.374 317.154 142.677C317.231 141.773 317.102 140.883 316.769 140.007C316.466 139.133 315.994 138.403 315.353 137.815C315.058 137.544 314.745 137.328 314.414 137.168C314.026 136.979 313.613 136.867 313.176 136.83C313.039 136.818 312.914 136.811 312.801 136.809C312.581 136.804 312.407 136.817 312.28 136.848C311.708 136.925 310.756 137.237 309.422 137.783C309.025 137.939 308.632 138.086 308.242 138.225C308.143 138.26 308.045 138.295 307.947 138.329C307.419 138.512 306.898 138.68 306.384 138.833C306.302 138.858 306.219 138.882 306.137 138.906C305.641 139.049 305.152 139.178 304.67 139.292C304.121 139.422 303.58 139.533 303.048 139.626C301.121 139.961 299.309 140.049 297.612 139.89C297.581 139.887 297.55 139.883 297.519 139.88C293.73 139.461 290.672 138.476 288.345 136.925C288.195 136.825 288.049 136.723 287.906 136.619C286.401 135.504 285.418 134.099 284.955 132.402C284.945 132.364 284.935 132.326 284.925 132.287C284.876 132.096 284.833 131.901 284.797 131.702C284.744 131.406 284.704 131.101 284.68 130.788C284.637 130.247 284.638 129.683 284.682 129.094L313.25 131.515C313.376 131.525 313.501 131.534 313.624 131.542C314.256 131.579 314.843 131.573 315.386 131.522C316.955 131.376 318.154 130.86 318.984 129.976C319.888 129.013 320.533 127.582 320.92 125.683C321.036 125.115 321.129 124.505 321.198 123.853C321.235 123.346 321.26 122.845 321.275 122.35C321.275 122.32 321.276 122.291 321.277 122.262C321.281 122.092 321.285 121.922 321.286 121.754C321.29 121.421 321.289 121.091 321.282 120.763C321.21 117.135 320.513 113.838 319.19 110.874C318.996 110.425 318.788 109.987 318.569 109.559C318.543 109.508 318.516 109.457 318.49 109.406C316.848 106.268 314.531 103.7 311.538 101.701C311.15 101.442 310.753 101.194 310.346 100.958C310.298 100.93 310.25 100.902 310.202 100.874C307.058 99.0741 303.383 97.9496 299.179 97.5009C299.148 97.4976 299.117 97.4943 299.086 97.4911C294.815 97.1038 290.992 97.4688 287.614 98.586C287.561 98.6036 287.508 98.6213 287.455 98.6393C286.7 98.8954 285.967 99.1894 285.257 99.5214C282.394 100.86 279.959 102.77 277.952 105.252C277.888 105.331 277.824 105.411 277.76 105.492C277.091 106.343 276.471 107.259 275.9 108.241C274.742 110.219 273.812 112.429 273.111 114.871C272.947 115.439 272.797 116.019 272.658 116.612C272.499 117.294 272.356 117.992 272.23 118.707ZM285.718 118.538C285.808 117.646 286.005 116.797 286.309 115.99C286.477 115.544 286.678 115.111 286.912 114.691C286.918 114.68 286.924 114.669 286.93 114.658C287.184 114.206 287.476 113.769 287.806 113.347C288.582 112.355 289.496 111.519 290.549 110.84C291.12 110.472 291.732 110.15 292.386 109.874C294.148 109.1 295.986 108.77 297.899 108.885C297.95 108.888 298.001 108.891 298.052 108.895C298.105 108.899 298.159 108.903 298.213 108.908C300.332 109.087 302.21 109.717 303.845 110.798C304.23 111.044 304.593 111.31 304.934 111.593C306.041 112.513 306.911 113.624 307.545 114.926C307.684 115.201 307.809 115.481 307.92 115.764C307.936 115.803 307.951 115.842 307.966 115.881C308.209 116.525 308.381 117.187 308.483 117.869C308.591 118.595 308.618 119.342 308.565 120.111C308.557 120.231 308.547 120.351 308.535 120.472L285.718 118.538ZM328.501 133.872C328.261 134.486 328.066 135.115 327.917 135.757C327.885 135.895 327.855 136.034 327.827 136.173C327.722 136.696 327.647 137.228 327.601 137.77C327.593 137.86 327.586 137.951 327.58 138.041C327.53 138.729 327.513 139.402 327.531 140.059C327.563 141.293 327.714 142.472 327.984 143.594C328.223 144.593 328.557 145.547 328.984 146.457C329.175 146.86 329.384 147.25 329.609 147.627C330.018 148.314 330.483 148.959 331.004 149.562C331.9 150.601 332.961 151.516 334.185 152.307C334.242 152.344 334.299 152.38 334.356 152.416C334.418 152.455 334.481 152.494 334.544 152.533C337.082 154.066 340.144 154.985 343.729 155.289C344.799 155.38 345.864 155.41 346.923 155.38C346.97 155.378 347.017 155.377 347.064 155.375C348.826 155.316 350.572 155.09 352.302 154.697C354.1 154.294 355.777 153.769 357.333 153.121C357.368 153.106 357.403 153.091 357.438 153.077C358.309 152.71 359.142 152.304 359.936 151.859C359.926 153.459 360.51 154.717 361.689 155.634C361.781 155.704 361.875 155.772 361.972 155.838C362.07 155.904 362.17 155.969 362.271 156.031C363.381 156.709 364.726 157.115 366.308 157.249C368.334 157.421 370.009 157.108 371.332 156.31C372.689 155.483 373.443 154.181 373.594 152.404L375.052 135.198C375.15 134.042 375.236 132.952 375.312 131.926C375.408 130.599 375.486 129.38 375.545 128.27C375.674 126.397 375.72 124.53 375.683 122.67C375.68 122.547 375.677 122.424 375.674 122.3C375.674 122.289 375.674 122.277 375.673 122.266C375.515 115.928 373.572 111.081 369.846 107.726C369.72 107.613 369.592 107.501 369.462 107.391C367.861 106.035 365.961 104.935 363.763 104.093C360.853 102.978 357.42 102.314 353.463 102.099C353.165 102.085 352.849 102.077 352.516 102.077L352.508 102.077C350.882 102.076 348.833 102.244 346.359 102.58C345.873 102.642 345.398 102.709 344.933 102.781C343.89 102.941 342.898 103.125 341.958 103.333C341.275 103.483 340.619 103.647 339.99 103.822C339.524 103.953 339.073 104.09 338.637 104.233C338.42 104.306 338.208 104.385 338.002 104.472L337.985 104.479C336.914 104.934 336.002 105.588 335.248 106.442C334.378 107.436 333.879 108.696 333.75 110.224C333.702 110.791 333.728 111.326 333.829 111.83C334.012 112.739 334.437 113.544 335.104 114.247C336.144 115.309 337.428 115.904 338.956 116.033C339.672 116.094 340.417 116.016 341.189 115.799C341.581 115.688 341.967 115.581 342.346 115.479C342.352 115.477 342.359 115.475 342.366 115.473C343.203 115.247 344.007 115.043 344.777 114.859C344.802 114.853 344.827 114.847 344.852 114.841C345.084 114.786 345.314 114.733 345.541 114.682C346.113 114.552 346.666 114.435 347.2 114.33C347.419 114.287 347.635 114.247 347.847 114.211C347.878 114.205 347.909 114.2 347.939 114.195C348.476 114.104 348.988 114.034 349.475 113.985C349.483 113.984 349.492 113.984 349.5 113.983C350.342 113.899 351.109 113.878 351.802 113.92C352.148 113.94 352.486 113.968 352.819 114.002C352.84 114.005 352.86 114.007 352.881 114.009C354.332 114.164 355.656 114.451 356.855 114.872C357.346 115.045 357.816 115.239 358.265 115.457C359.215 115.916 359.985 116.494 360.578 117.191C361.112 117.82 361.501 118.547 361.745 119.37L361.747 119.378C361.921 119.989 362.062 120.551 362.169 121.066C362.19 121.163 362.209 121.259 362.227 121.353C362.299 121.73 362.352 122.078 362.386 122.399C362.326 122.362 362.218 122.337 362.063 122.324C360.733 122.099 359.367 121.911 357.966 121.76C357.411 121.701 356.851 121.647 356.285 121.599C355.959 121.571 355.641 121.547 355.329 121.524C355.087 121.507 354.85 121.491 354.616 121.477C354.547 121.473 354.478 121.469 354.409 121.465C353.292 121.402 352.274 121.377 351.357 121.39L351.352 121.39C350.87 121.397 350.415 121.414 349.988 121.442C349.577 121.47 349.171 121.504 348.769 121.544C348.76 121.544 348.75 121.545 348.741 121.546C348.7 121.55 348.659 121.554 348.618 121.559C346.671 121.757 344.831 122.086 343.099 122.547L343.088 122.55C341.501 122.973 340.004 123.506 338.597 124.15C338.482 124.202 338.368 124.254 338.254 124.307C337.816 124.511 337.39 124.723 336.977 124.943C335.948 125.493 334.998 126.093 334.127 126.745C333.59 127.147 333.083 127.568 332.607 128.008C331.95 128.616 331.35 129.26 330.807 129.941C330.389 130.461 330.011 130.992 329.673 131.537C329.205 132.291 328.814 133.069 328.501 133.872ZM341.476 137.78C341.393 138.146 341.334 138.529 341.3 138.931C341.225 139.827 341.312 140.633 341.563 141.349C341.809 142.053 342.213 142.67 342.775 143.2C343.291 143.671 343.918 144.054 344.656 144.35C345.543 144.706 346.591 144.936 347.8 145.038C348.581 145.104 349.355 145.125 350.121 145.1C350.132 145.1 350.143 145.099 350.154 145.099C350.421 145.09 350.688 145.075 350.954 145.055C350.966 145.054 350.977 145.053 350.988 145.052C351.045 145.048 351.102 145.043 351.159 145.038C352.386 144.931 353.593 144.704 354.78 144.358C355.055 144.274 355.327 144.188 355.595 144.101C355.76 144.047 355.924 143.992 356.087 143.936C357.329 143.511 358.481 143.047 359.541 142.544C359.951 142.35 360.347 142.149 360.73 141.943L361.352 134.602C361.394 134.103 361.494 133.484 361.651 132.744C361.61 132.735 361.57 132.726 361.529 132.718C361.418 132.695 361.304 132.672 361.188 132.65C360.919 132.598 360.636 132.549 360.34 132.502C359.397 132.352 358.313 132.225 357.088 132.122C356.883 132.104 356.68 132.088 356.479 132.073C356.114 132.046 355.756 132.022 355.403 132.003C355.392 132.002 355.38 132.002 355.369 132.001C353.862 131.919 352.462 131.908 351.168 131.967C351.113 131.969 351.058 131.972 351.004 131.975C350.906 131.98 350.809 131.985 350.713 131.991C350.701 131.992 350.689 131.992 350.677 131.993C350.36 132.012 350.05 132.036 349.747 132.064C349.672 132.072 349.598 132.079 349.525 132.087C349.31 132.11 349.098 132.137 348.89 132.168C348.705 132.195 348.522 132.225 348.343 132.257C346.541 132.587 345.036 133.203 343.828 134.106C343.657 134.234 343.494 134.369 343.339 134.51C343.317 134.53 343.295 134.551 343.273 134.571C342.368 135.42 341.769 136.49 341.476 137.78Z" fill="black"/>
<path d="M190.505 142.351C189.227 142.243 188.066 141.862 187.023 141.208C186.011 140.558 185.219 139.706 184.649 138.653C184.11 137.602 183.895 136.438 184.004 135.16L188.802 78.5385C188.91 77.2605 189.318 76.1492 190.026 75.2045C190.765 74.2625 191.689 73.5559 192.796 73.0846C193.935 72.616 195.143 72.4359 196.421 72.5442C197.699 72.6525 198.844 73.0321 199.856 73.683C200.9 74.3365 201.691 75.1884 202.23 76.2387C202.8 77.2916 203.031 78.4571 202.922 79.7351L198.124 136.357C198.016 137.635 197.592 138.745 196.853 139.687C196.145 140.632 195.222 141.338 194.083 141.807C192.976 142.278 191.783 142.46 190.505 142.351Z" fill="#5C7CFA"/>
<path d="M260.213 77.1968C262.177 77.3632 263.753 78.0305 264.941 79.1986C266.16 80.3693 266.693 81.8587 266.54 83.6666L261.547 142.579C261.394 144.387 260.62 145.75 259.223 146.668C257.861 147.557 256.197 147.918 254.234 147.752C252.27 147.585 250.676 146.948 249.451 145.84C248.26 144.703 247.741 143.23 247.895 141.422L248.045 139.646C245.982 141.763 243.491 143.372 240.572 144.475C237.684 145.58 234.417 145.978 230.77 145.669C226.313 145.292 222.47 143.961 219.241 141.678C216.044 139.398 213.642 136.244 212.037 132.215C210.435 128.154 209.774 123.358 210.055 117.825C210.327 112.762 211.609 108.193 213.901 104.117C216.224 100.044 219.266 96.9274 223.028 94.766C226.793 92.5735 230.873 91.6635 235.268 92.0359C242.936 92.6858 248.276 95.8068 251.286 101.399L252.887 82.5096C253.04 80.7016 253.801 79.3219 255.169 78.3704C256.568 77.4216 258.249 77.0304 260.213 77.1968ZM249.31 124.165C249.323 124.01 249.348 123.902 249.385 123.842L249.935 117.343C250.11 115.286 249.729 113.291 248.794 111.36C247.893 109.4 246.478 107.757 244.55 106.432C242.624 105.076 240.305 104.283 237.593 104.053C235.349 103.863 233.201 104.387 231.15 105.626C229.132 106.837 227.445 108.593 226.088 110.895C224.765 113.169 223.983 115.724 223.743 118.561C223.487 121.585 223.76 124.292 224.562 126.683C225.395 129.077 226.691 131.008 228.45 132.475C230.244 133.914 232.403 134.741 234.927 134.955C237.577 135.18 239.96 134.848 242.076 133.96C244.194 133.04 245.875 131.723 247.12 130.008C248.398 128.264 249.128 126.316 249.31 124.165Z" fill="#5C7CFA"/>
<path d="M296.552 151.291C290.817 150.805 286.01 149.362 282.132 146.961C278.254 144.56 275.421 141.322 273.631 137.246C271.876 133.142 271.23 128.346 271.695 122.86C272.187 117.062 273.588 112.189 275.901 108.241C278.216 104.262 281.335 101.355 285.258 99.5217C289.18 97.6879 293.79 97.0111 299.086 97.4913C303.941 97.9969 308.092 99.4004 311.539 101.702C314.985 104.003 317.536 107.06 319.191 110.874C320.879 114.659 321.549 118.985 321.199 123.853C320.896 126.684 320.158 128.725 318.985 129.976C317.811 131.226 315.9 131.739 313.25 131.515L284.682 129.094C284.439 132.338 285.513 134.847 287.906 136.619C290.302 138.36 293.537 139.451 297.612 139.89C301.07 140.215 305.006 139.512 309.423 137.783C310.756 137.237 311.709 136.925 312.28 136.848C312.473 136.802 312.771 136.796 313.177 136.83C313.987 136.899 314.713 137.227 315.354 137.815C315.994 138.403 316.466 139.134 316.769 140.007C317.103 140.883 317.232 141.773 317.155 142.677C317.028 144.173 316.494 145.478 315.552 146.591C314.641 147.707 313.585 148.496 312.384 148.96C310.008 149.951 307.438 150.644 304.673 151.037C301.909 151.431 299.202 151.516 296.552 151.291ZM308.535 120.472C308.735 118.48 308.405 116.631 307.545 114.926C306.716 113.223 305.483 111.847 303.845 110.798C302.21 109.717 300.333 109.087 298.213 108.908C296.187 108.736 294.245 109.058 292.386 109.874C290.53 110.658 289.003 111.816 287.806 113.347C286.609 114.878 285.913 116.609 285.718 118.539L308.535 120.472Z" fill="#5C7CFA"/>
<path d="M375.675 122.301C375.726 124.283 375.683 126.273 375.545 128.27C375.441 130.239 375.277 132.549 375.053 135.198L373.594 152.404C373.444 154.181 372.69 155.483 371.333 156.31C370.009 157.108 368.334 157.421 366.308 157.25C364.438 157.091 362.898 156.553 361.689 155.634C360.511 154.718 359.927 153.46 359.937 151.859C357.696 153.113 355.151 154.059 352.303 154.697C349.486 155.337 346.628 155.535 343.729 155.289C340.144 154.985 337.083 154.067 334.544 152.533C332.037 151.002 330.184 148.977 328.984 146.458C327.788 143.908 327.327 141.012 327.601 137.77C327.844 134.902 328.913 132.293 330.808 129.942C332.705 127.56 335.302 125.629 338.598 124.15C341.897 122.64 345.693 121.738 349.988 121.442C351.661 121.333 353.76 121.385 356.285 121.599C358.28 121.768 360.206 122.01 362.063 122.324C362.219 122.338 362.327 122.362 362.386 122.399C362.299 121.575 362.086 120.568 361.748 119.378C361.236 117.639 360.075 116.332 358.265 115.457C356.456 114.581 354.302 114.069 351.803 113.92C350.522 113.843 348.988 113.98 347.2 114.331C345.412 114.681 343.409 115.171 341.189 115.799C340.417 116.016 339.673 116.094 338.956 116.034C337.429 115.904 336.145 115.309 335.105 114.247C334.067 113.155 333.615 111.814 333.75 110.224C333.88 108.697 334.379 107.436 335.248 106.442C336.151 105.42 337.281 104.684 338.637 104.234C340.834 103.509 343.408 102.958 346.359 102.581C349.345 102.174 351.713 102.014 353.464 102.1C360.652 102.489 366.112 104.364 369.846 107.726C373.58 111.088 375.522 115.946 375.675 122.301ZM341.301 138.931C341.15 140.708 341.642 142.131 342.776 143.2C343.912 144.238 345.587 144.851 347.8 145.038C350.2 145.242 352.527 145.015 354.78 144.358C357.036 143.671 359.019 142.865 360.73 141.943L361.352 134.602C361.394 134.104 361.494 133.484 361.651 132.744C360.448 132.485 358.928 132.278 357.089 132.122C354.314 131.887 351.867 131.868 349.747 132.065C347.31 132.298 345.337 132.978 343.829 134.106C342.321 135.234 341.478 136.842 341.301 138.931Z" fill="#5C7CFA"/>
<path fill-rule="evenodd" clip-rule="evenodd" d="M183.487 146.778L183.454 146.757C181.512 145.508 179.95 143.83 178.848 141.793L178.813 141.729L178.779 141.664C177.627 139.419 177.226 137.002 177.43 134.603L182.228 77.9811C182.431 75.5818 183.233 73.2671 184.747 71.2478L184.791 71.1894L184.836 71.1318C186.265 69.3101 188.087 67.9185 190.212 67.014L190.248 66.9987L190.285 66.9838C192.435 66.0988 194.699 65.7772 196.978 65.9703C199.243 66.1622 201.423 66.8549 203.391 68.1124C205.361 69.3541 206.967 71.0501 208.066 73.1626C209.266 75.4102 209.702 77.8515 209.496 80.2919L207.677 101.752C207.83 101.461 207.988 101.171 208.15 100.883L208.169 100.848C211.023 95.8461 214.87 91.8479 219.725 89.055C224.673 86.1781 230.103 84.9771 235.825 85.4621C239.443 85.7687 242.803 86.5602 245.811 87.8786L246.313 81.9522C246.616 78.3856 248.265 75.1358 251.401 72.9545L251.433 72.9322L251.465 72.9103C254.316 70.9767 257.562 70.351 260.77 70.6229C263.961 70.8933 267.065 72.0494 269.538 74.4672C272.289 77.1251 273.419 80.6112 273.113 84.2234L271.538 102.818C274.344 98.7772 277.993 95.6348 282.463 93.545C287.66 91.1156 293.487 90.3591 299.682 90.9208L299.726 90.9248L299.769 90.9294C305.501 91.5263 310.718 93.2211 315.202 96.2149C319.697 99.2164 323.071 103.258 325.229 108.217C327.309 112.894 328.109 118.022 327.833 123.441C329.088 122.243 330.472 121.175 331.966 120.231C331.413 119.826 330.888 119.37 330.393 118.865L330.356 118.828L330.321 118.79C327.901 116.243 326.893 113.009 327.176 109.667C327.405 106.972 328.343 104.315 330.282 102.099L330.303 102.075C332.015 100.136 334.152 98.7707 336.56 97.9719L336.571 97.9682C339.254 97.0832 342.248 96.4567 345.495 96.0399C348.63 95.6142 351.45 95.3958 353.786 95.51L353.82 95.5117C361.878 95.9482 369.01 98.0962 374.26 102.823C379.678 107.702 382.085 114.48 382.269 122.135C382.326 124.308 382.279 126.487 382.13 128.671C382.021 130.716 381.852 133.081 381.626 135.755L380.168 152.961C379.864 156.54 378.157 159.877 374.765 161.944L374.74 161.959C371.899 163.672 368.728 164.075 365.751 163.823C362.928 163.584 360.115 162.723 357.698 160.887L357.668 160.864L357.639 160.842C357.403 160.658 357.176 160.468 356.96 160.271C355.917 160.601 354.848 160.887 353.754 161.132C350.274 161.922 346.738 162.165 343.172 161.862C338.789 161.491 334.704 160.337 331.132 158.179L331.106 158.163C327.566 156.002 324.807 153.031 323.027 149.293L323.011 149.26C322.811 148.834 322.627 148.404 322.457 147.969C321.977 148.973 321.367 149.923 320.626 150.806C319.105 152.657 317.183 154.159 314.851 155.078C311.939 156.286 308.847 157.107 305.603 157.569C302.37 158.029 299.164 158.133 295.995 157.864C289.489 157.313 283.62 155.641 278.659 152.57C274.135 149.769 270.631 146.003 268.273 141.344L268.121 143.136C267.813 146.762 266.094 150.046 262.846 152.181L262.828 152.192C259.99 154.044 256.787 154.589 253.676 154.325C250.56 154.061 247.515 152.985 245.024 150.731L244.959 150.672L244.895 150.611C244.705 150.43 244.523 150.245 244.349 150.056C243.879 150.263 243.402 150.458 242.917 150.641C238.949 152.157 234.665 152.62 230.213 152.243C224.742 151.779 219.74 150.111 215.432 147.065L215.41 147.049C211.075 143.958 207.932 139.735 205.908 134.656L205.9 134.636C205.601 133.877 205.33 133.105 205.087 132.318L204.697 136.914C204.49 139.354 203.649 141.687 202.088 143.701C200.65 145.598 198.781 147 196.63 147.892C194.478 148.801 192.213 149.117 189.948 148.925C187.669 148.731 185.491 148.033 183.521 146.799L183.487 146.778ZM194.083 141.807C195.221 141.338 196.144 140.631 196.852 139.687C197.592 138.745 198.015 137.635 198.124 136.357L202.922 79.7349C203.03 78.4569 202.799 77.2914 202.229 76.2384C201.69 75.1881 200.899 74.3362 199.856 73.6827C198.844 73.0318 197.698 72.6522 196.42 72.5439C195.142 72.4356 193.934 72.6158 192.796 73.0844C191.688 73.5556 190.765 74.2623 190.026 75.2043C189.318 76.1489 188.91 77.2602 188.802 78.5382L184.003 135.16C183.895 136.438 184.11 137.602 184.649 138.652C185.219 139.705 186.01 140.557 187.023 141.208C188.066 141.862 189.227 142.243 190.505 142.351C191.783 142.459 192.975 142.278 194.083 141.807ZM240.572 144.475C240.867 144.363 241.158 144.246 241.445 144.124C243.209 143.374 244.807 142.426 246.239 141.282C246.874 140.775 247.476 140.229 248.045 139.645L247.894 141.422C247.741 143.23 248.26 144.702 249.451 145.839C249.714 146.078 249.994 146.294 250.291 146.489C251.378 147.2 252.692 147.621 254.233 147.752C256.197 147.918 257.86 147.557 259.223 146.668C260.619 145.75 261.394 144.387 261.547 142.579L266.54 83.6663C266.693 81.8584 266.16 80.3691 264.941 79.1983C263.752 78.0302 262.176 77.3629 260.213 77.1965C258.249 77.0301 256.567 77.4213 255.168 78.3702C253.801 79.3217 253.04 80.7014 252.887 82.5093L251.286 101.399C249.816 98.6681 247.79 96.5266 245.21 94.9743C242.505 93.3477 239.191 92.3682 235.268 92.0357C230.873 91.6632 226.793 92.5733 223.028 94.7658C219.266 96.9271 216.223 100.044 213.9 104.117C211.608 108.192 210.326 112.762 210.054 117.825C209.774 123.358 210.435 128.154 212.037 132.214C213.642 136.243 216.043 139.398 219.241 141.678C222.469 143.961 226.312 145.291 230.77 145.669C234.417 145.978 237.684 145.58 240.572 144.475ZM247.119 130.007C245.875 131.723 244.194 133.04 242.075 133.959C239.959 134.847 237.577 135.179 234.927 134.955C232.402 134.741 230.243 133.914 228.45 132.475C226.691 131.007 225.395 129.077 224.561 126.683C223.759 124.292 223.487 121.584 223.743 118.561C223.983 115.724 224.765 113.169 226.088 110.895C227.444 108.593 229.132 106.836 231.149 105.626C233.201 104.387 235.349 103.863 237.593 104.053C240.305 104.283 242.624 105.076 244.549 106.432C246.478 107.757 247.892 109.399 248.794 111.359C249.729 113.291 250.109 115.285 249.935 117.343L249.384 123.842C249.348 123.901 249.323 124.009 249.31 124.165C249.127 126.316 248.397 128.263 247.119 130.007ZM242.858 122.72L243.361 116.786C243.432 115.956 243.296 115.144 242.856 114.234L242.827 114.175L242.8 114.116C242.437 113.327 241.847 112.579 240.813 111.869L240.782 111.848L240.751 111.826C239.922 111.242 238.765 110.773 237.036 110.626C236.27 110.562 235.5 110.705 234.56 111.273L234.543 111.283C233.595 111.852 232.653 112.753 231.781 114.228C230.994 115.587 230.481 117.181 230.316 119.118C230.123 121.403 230.349 123.173 230.804 124.55C231.276 125.887 231.909 126.754 232.627 127.368C233.289 127.884 234.159 128.269 235.484 128.381C237.221 128.528 238.503 128.297 239.487 127.891C240.6 127.401 241.295 126.801 241.779 126.134L241.798 126.108C242.361 125.34 242.656 124.549 242.736 123.608C242.737 123.6 242.738 123.59 242.738 123.578C242.748 123.457 242.773 123.145 242.858 122.72ZM275.9 108.241C273.588 112.189 272.186 117.062 271.695 122.86C271.23 128.346 271.875 133.141 273.631 137.246C275.42 141.322 278.254 144.56 282.132 146.961C286.01 149.361 290.816 150.805 296.552 151.291C299.201 151.515 301.908 151.431 304.673 151.037C307.438 150.644 310.008 149.951 312.384 148.959C313.585 148.496 314.641 147.706 315.551 146.591C316.493 145.477 317.028 144.173 317.155 142.677C317.231 141.773 317.103 140.883 316.769 140.007C316.516 139.277 316.144 138.647 315.655 138.116C315.559 138.012 315.458 137.911 315.353 137.815C314.712 137.227 313.987 136.898 313.176 136.83C313.039 136.818 312.914 136.811 312.801 136.809C312.581 136.804 312.407 136.817 312.28 136.848C311.708 136.925 310.756 137.237 309.422 137.783C309.403 137.791 309.383 137.798 309.364 137.806C304.971 139.518 301.054 140.213 297.612 139.89C293.537 139.451 290.301 138.36 287.906 136.619C287.605 136.396 287.326 136.162 287.067 135.916C285.264 134.205 284.469 131.931 284.682 129.094L313.25 131.515C313.377 131.525 313.501 131.534 313.624 131.542C315.005 131.624 316.174 131.495 317.131 131.155C317.877 130.89 318.495 130.497 318.984 129.976C320.158 128.725 320.896 126.684 321.199 123.853C321.548 118.985 320.879 114.659 319.19 110.874C317.536 107.06 314.985 104.003 311.538 101.701C308.091 99.4001 303.941 97.9967 299.086 97.4911C293.79 97.0108 289.18 97.6876 285.257 99.5214C281.335 101.355 278.216 104.262 275.9 108.241ZM292.386 109.874C291.033 110.445 289.856 111.215 288.853 112.183C288.48 112.544 288.131 112.932 287.806 113.347C286.609 114.878 285.913 116.609 285.718 118.539L308.535 120.472C308.547 120.351 308.557 120.231 308.565 120.111C308.693 118.256 308.353 116.528 307.545 114.926C307.337 114.499 307.105 114.094 306.846 113.708C306.073 112.554 305.073 111.584 303.845 110.798C302.21 109.717 300.332 109.087 298.213 108.908C296.187 108.736 294.244 109.058 292.386 109.874ZM330.807 129.941C328.913 132.292 327.844 134.902 327.601 137.77C327.326 141.011 327.787 143.907 328.984 146.457C330.183 148.977 332.037 151.002 334.544 152.533C337.082 154.066 340.144 154.985 343.729 155.289C346.628 155.535 349.486 155.337 352.303 154.697C352.739 154.599 353.169 154.494 353.592 154.382C355.924 153.762 358.039 152.921 359.936 151.859C359.926 153.459 360.511 154.717 361.689 155.634C361.875 155.775 362.069 155.908 362.272 156.031C363.381 156.709 364.726 157.115 366.308 157.249C368.334 157.421 370.009 157.108 371.332 156.31C372.69 155.483 373.443 154.181 373.594 152.404L375.052 135.198C375.277 132.548 375.441 130.239 375.545 128.27C375.683 126.273 375.726 124.283 375.674 122.3C375.522 115.946 373.579 111.088 369.846 107.726C366.112 104.364 360.651 102.489 353.464 102.099C351.713 102.014 349.344 102.174 346.359 102.58C343.407 102.958 340.833 103.509 338.637 104.233C337.28 104.684 336.15 105.42 335.248 106.442C334.379 107.436 333.879 108.696 333.75 110.224C333.615 111.814 334.067 113.155 335.104 114.247C336.144 115.309 337.428 115.904 338.956 116.033C339.673 116.094 340.417 116.016 341.189 115.799C343.408 115.171 345.412 114.681 347.2 114.33C348.988 113.98 350.522 113.843 351.802 113.92C353.912 114.046 355.777 114.43 357.395 115.074C357.693 115.193 357.983 115.32 358.265 115.457C360.075 116.332 361.235 117.639 361.747 119.378C361.921 119.989 362.062 120.551 362.169 121.066C362.19 121.163 362.209 121.259 362.227 121.353C362.299 121.73 362.352 122.078 362.386 122.399C362.326 122.362 362.219 122.337 362.063 122.324C360.206 122.01 358.28 121.768 356.285 121.599C356.018 121.576 355.757 121.556 355.5 121.537C353.322 121.376 351.484 121.344 349.988 121.442C345.693 121.737 341.896 122.64 338.597 124.15C335.301 125.629 332.705 127.559 330.807 129.941ZM354.78 144.358C352.527 145.015 350.2 145.242 347.8 145.038C345.587 144.851 343.912 144.238 342.775 143.2C341.642 142.13 341.15 140.707 341.301 138.931C341.478 136.842 342.32 135.234 343.829 134.106C345.337 132.978 347.31 132.297 349.747 132.064C351.338 131.917 353.114 131.89 355.074 131.986C355.725 132.018 356.396 132.063 357.088 132.122C358.866 132.272 360.347 132.471 361.529 132.718C361.57 132.726 361.611 132.735 361.651 132.744C361.494 133.484 361.394 134.103 361.352 134.602L360.73 141.943C359.019 142.865 357.036 143.67 354.78 144.358Z" fill="#FFF9DB"/>
<path fill-rule="evenodd" clip-rule="evenodd" d="M200.193 234.399C205.479 227.565 208.501 219.645 208.501 211.201C208.501 185.427 180.34 164.533 145.6 164.533C110.861 164.533 82.699 185.427 82.699 211.201C82.699 236.976 110.861 257.87 145.6 257.87C159.391 257.87 172.144 254.577 182.512 248.994L222.889 253.074L200.193 234.399Z" fill="#FFF9DB"/>
<path fill-rule="evenodd" clip-rule="evenodd" d="M182.512 248.994C172.144 254.577 159.391 257.87 145.6 257.87C110.861 257.87 82.699 236.976 82.699 211.201C82.699 185.427 110.861 164.533 145.6 164.533C180.34 164.533 208.501 185.427 208.501 211.201C208.501 219.645 205.479 227.565 200.193 234.399L222.889 253.074L182.512 248.994ZM209.013 233.113C212.881 226.506 215.099 219.091 215.099 211.201C215.099 195.741 206.638 182.273 194.009 172.903C181.38 163.533 164.243 157.936 145.6 157.936C126.958 157.936 109.821 163.533 97.1914 172.903C84.5626 182.273 76.1018 195.741 76.1018 211.201C76.1018 226.662 84.5626 240.13 97.1914 249.499C109.821 258.87 126.958 264.467 145.6 264.467C159.634 264.467 172.787 261.297 183.808 255.756L222.226 259.638C225.119 259.93 227.862 258.294 228.98 255.61C230.097 252.926 229.326 249.827 227.081 247.98L209.013 233.113Z" fill="black"/>
<path fill-rule="evenodd" clip-rule="evenodd" d="M306.674 297.917C299.387 297.917 293.48 303.825 293.48 311.112L293.48 363.889C293.48 371.176 299.387 377.084 306.674 377.084L438.618 377.084C445.905 377.084 451.813 371.176 451.813 363.889L451.813 311.112C451.813 303.825 445.905 297.917 438.618 297.917L405.494 297.917L344.938 269.005L367.47 297.917L306.674 297.917Z" fill="#FFF4E6"/>
<path fill-rule="evenodd" clip-rule="evenodd" d="M405.495 297.918L438.62 297.918C445.907 297.918 451.814 303.825 451.814 311.112L451.814 363.89C451.814 371.177 445.907 377.084 438.62 377.084L306.676 377.084C299.389 377.084 293.481 371.177 293.481 363.89L293.481 311.112C293.481 303.825 299.389 297.918 306.676 297.918L367.472 297.918L344.939 269.005L405.495 297.918ZM353.966 291.321L306.676 291.321C295.745 291.321 286.884 300.182 286.884 311.112L286.884 363.89C286.884 374.82 295.745 383.681 306.676 383.681L438.62 383.681C449.55 383.681 458.411 374.82 458.411 363.89L458.411 311.112C458.411 300.182 449.55 291.321 438.62 291.321L406.989 291.321L347.781 263.052C345.02 261.733 341.714 262.487 339.797 264.872C337.88 267.257 337.854 270.647 339.735 273.061L353.966 291.321Z" fill="black"/>
<path d="M199.742 393.41C139.54 399.269 125.102 361.297 142.28 353.14C159.458 344.983 167.02 379.247 140.977 376.343C120.143 374.02 105.827 321.719 105.392 295.304" stroke="white" stroke-width="3.2986" stroke-dasharray="6.6 3.3"/>
<path d="M113.57 320.244L128.601 314.95L100.336 282.667L83.3387 320.754L101.016 322.976L105.927 315.333L113.57 320.244Z" fill="white"/>
<path d="M105.929 315.332L113.571 320.243L100.337 282.667L101.018 322.975L105.929 315.332Z" fill="#EEEEEE"/>
<path d="M378.565 196.266C391.242 204.703 409.332 221.145 403.309 236.132C395.762 254.911 377.613 233.703 390.501 227.07C403.388 220.437 428.371 260.253 400.774 275.863" stroke="white" stroke-width="3.2986" stroke-linecap="round" stroke-dasharray="9.9 3.3"/>
<circle cx="110.737" cy="211.28" r="8.24649" fill="#5C7CFA"/>
<circle cx="143.723" cy="211.28" r="8.24649" fill="#5C7CFA"/>
<circle cx="176.709" cy="211.28" r="8.24649" fill="#5C7CFA"/>
<rect x="313.601" y="318.485" width="118.75" height="13.1944" rx="6.59719" fill="#5C7CFA"/>
<rect x="313.601" y="344.873" width="62.6733" height="13.1944" rx="6.59719" fill="#5C7CFA"/>
<path d="M130.521 114.405C129.911 113.72 129.044 113.319 128.127 113.299C127.211 113.279 126.327 113.642 125.688 114.3L111.896 128.515L101.813 118.123C100.545 116.815 98.4564 116.784 97.1489 118.052L90.0466 124.943C88.7391 126.212 88.7075 128.3 89.9761 129.607L109.529 149.761C110.15 150.401 111.004 150.762 111.896 150.762C112.789 150.762 113.643 150.401 114.264 149.761L127.635 135.979L139.944 149.818C140.553 150.503 141.42 150.904 142.337 150.924C143.254 150.944 144.138 150.581 144.776 149.923L164.487 129.607C165.096 128.979 165.431 128.135 165.417 127.261C165.404 126.386 165.044 125.552 164.416 124.943L157.314 118.052C156.006 116.784 153.918 116.815 152.649 118.123L142.829 128.245L130.521 114.405Z" fill="#FFF4E6" stroke="black" stroke-width="6.59719" stroke-linejoin="round"/>
</svg>
