<svg width="512" height="512" viewBox="0 0 512 512" fill="none" xmlns="http://www.w3.org/2000/svg">
<path d="M463.939 164.634C464.45 162.865 464.19 160.962 463.224 159.394C462.257 157.826 460.673 156.74 458.862 156.402L413.238 147.899L432.712 135.219C446.014 126.558 449.259 108.474 439.797 95.7288C430.409 83.0826 412.346 80.8725 400.186 90.8824L352.15 130.423C334.129 123.369 311.838 121.977 282.137 126.567C279.619 123.398 276.01 121.057 271.724 120.187C264.08 118.635 256.587 122.222 252.825 128.575C230.891 127.244 210.184 119.981 189.984 112.85L189.696 112.748C176.678 108.153 163.706 103.573 151.283 101.197C141.447 99.3163 131.609 98.7404 121.982 100.731C121.216 99.5327 120.061 98.5848 118.648 98.0871C115.898 97.1182 112.838 98.0905 111.152 100.469L107.185 106.065C106.274 106.533 105.372 107.015 104.48 107.511L97.6512 102.995C95.2189 101.386 92.0149 101.585 89.8006 103.483C87.5863 105.38 86.8986 108.516 88.1156 111.166L90.7272 116.853C56.2569 145.042 42.6388 196.826 63.6563 247.268C72.7053 268.985 70.9645 290.246 68.9838 313.064L68.9383 313.588C67.4252 331.013 65.822 349.474 70.2156 368.211C69.2505 369.982 69.1362 372.149 70.0149 374.062L71.7488 377.838L68.0312 379.693C65.4221 380.996 63.9926 383.87 64.5287 386.736C65.0648 389.603 67.4366 391.766 70.34 392.037L74.4768 392.423L74.2248 396.571C74.0479 399.481 75.8224 402.156 78.5728 403.125C80.9997 403.98 83.6672 403.324 85.4198 401.523C90.0659 408.043 95.7953 414.52 102.811 420.967C142.563 457.496 190.719 447.634 225.979 431.709C226.095 431.709 226.21 431.709 226.326 431.709C262.606 431.709 301 421.311 330.465 391.67C331.93 391.711 333.402 391.755 334.887 391.799L334.891 391.799L334.898 391.8L334.911 391.8L334.915 391.8C334.917 391.8 334.919 391.8 334.921 391.8C334.975 391.802 335.028 391.803 335.082 391.805C334.972 392.244 334.866 392.679 334.762 393.109C334.375 394.714 334.018 396.297 333.759 397.658C333.546 398.778 333.254 400.448 333.312 401.844C333.587 408.476 339.186 413.629 345.817 413.354C352.449 413.079 357.602 407.48 357.327 400.848C357.27 399.462 356.846 397.839 356.546 396.752C356.28 395.793 355.954 394.723 355.6 393.615C356.374 395.537 357.152 397.413 357.893 399.127C358.637 400.845 359.369 402.458 360.046 403.814C360.654 405.03 361.434 406.492 362.301 407.59C367.629 414.339 377.419 415.49 384.168 410.161C390.917 404.833 392.068 395.043 386.74 388.294C386.636 388.162 386.525 388.029 386.408 387.895C400.226 383.791 413.272 375.935 424.241 361.31C424.86 360.485 425.468 359.656 426.065 358.824L426.895 364.868C427.277 367.655 429.402 369.884 432.168 370.399L445.311 372.849C447.365 373.232 449.479 372.608 450.997 371.171C452.514 369.734 453.252 367.657 452.982 365.585L446.477 315.752C452.38 292.438 450.802 268.018 440.887 244.385L463.939 164.634Z" fill="white" fill-opacity="0.29" stroke="white" stroke-width="13.0592" stroke-linejoin="round"/>
<g filter="url(#filter0_i_39_1803)">
<path d="M421.629 176.194L446.461 366.434L433.318 363.985L407.805 178.092L421.629 176.194Z" fill="#AA6F17"/>
</g>
<path d="M424.867 175.772C424.754 174.909 424.302 174.128 423.611 173.6C422.92 173.072 422.047 172.842 421.185 172.96L407.361 174.857C405.574 175.102 404.325 176.749 404.57 178.536L430.083 364.429C430.274 365.822 431.337 366.937 432.72 367.194L445.863 369.644C446.89 369.835 447.947 369.523 448.706 368.805C449.464 368.086 449.833 367.048 449.698 366.012L424.867 175.772Z" stroke="black" stroke-width="6.5296" stroke-linejoin="round"/>
<path d="M367.892 142.765C366.24 142.457 364.624 143.454 364.157 145.068L331.338 258.508C331.082 259.392 331.212 260.344 331.695 261.128C332.179 261.912 332.971 262.456 333.876 262.624L424.465 279.507C426.117 279.815 427.733 278.819 428.2 277.205L461.019 163.765C461.275 162.88 461.145 161.928 460.662 161.144C460.178 160.36 459.386 159.817 458.481 159.648L367.892 142.765Z" fill="#F08C00" stroke="black" stroke-width="6.5296" stroke-linejoin="round"/>
<path fill-rule="evenodd" clip-rule="evenodd" d="M104.269 115.199L94.049 108.44L98.8281 118.847C63.9432 144.194 48.8602 194.78 69.6835 244.756C79.4356 268.16 77.4536 290.993 75.4888 313.628C73.7692 333.439 72.0626 353.098 78.2486 372.858L75.9485 371.337L80.3205 380.857L70.9468 385.535L81.3776 386.509L80.7421 396.966L85.7288 389.932C90.719 398.634 97.6639 407.369 107.229 416.158C167.627 471.66 249.58 412.784 272.101 396.569C289.684 383.909 312.115 384.582 335.087 385.272L335.09 385.272L335.093 385.272C337.89 385.356 340.695 385.44 343.501 385.501C342.099 390.571 339.747 399.442 339.835 401.573C339.961 404.601 342.518 406.955 345.546 406.829C348.575 406.704 350.928 404.147 350.803 401.118C350.715 399.007 347.694 390.505 345.872 385.545C350.393 385.618 354.91 385.611 359.389 385.424C362.304 392.965 365.787 401.468 367.425 403.543C370.519 407.461 376.203 408.13 380.122 405.036C384.04 401.942 384.708 396.258 381.615 392.339C380.447 390.861 376.324 387.715 371.641 384.37C389.226 381.944 405.72 375.121 419.017 357.391C447.372 319.586 452.153 273.759 427.179 231.697C422.929 224.539 418.974 217.669 415.202 211.118L415.202 211.117C381.511 152.599 362.446 119.484 278.775 133.728C277.457 130.189 274.397 127.391 270.424 126.585C264.347 125.351 258.42 129.242 257.121 135.289C232.325 134.722 209.222 126.565 187.81 119.006C161.348 109.665 137.471 101.235 116.179 109.172L116.478 104.245L111.569 111.17C109.061 112.4 106.626 113.745 104.269 115.199Z" fill="#FFEC99"/>
<path fill-rule="evenodd" clip-rule="evenodd" d="M89.8007 103.479C92.015 101.582 95.219 101.382 97.6513 102.991L104.48 107.507C105.372 107.011 106.274 106.53 107.185 106.062L111.152 100.466C112.838 98.087 115.898 97.1147 118.648 98.0836C120.061 98.5813 121.216 99.5292 121.982 100.728C131.609 98.7369 141.447 99.3128 151.283 101.194C163.706 103.569 176.678 108.149 189.696 112.745L189.984 112.847C210.184 119.978 230.891 127.24 252.825 128.572C256.587 122.218 264.08 118.632 271.724 120.183C276.01 121.053 279.619 123.394 282.137 126.564C322.328 120.354 348.849 125.126 369.514 139.812C390.119 154.456 403.929 178.444 420.288 206.862L420.861 207.857C420.864 207.862 420.868 207.869 420.872 207.875C424.643 214.425 428.574 221.253 432.794 228.361C459.231 272.886 454.045 321.568 424.241 361.307C413.272 375.932 400.227 383.788 386.409 387.892C386.525 388.026 386.636 388.159 386.74 388.291C392.068 395.039 390.917 404.83 384.168 410.158C377.42 415.486 367.629 414.335 362.301 407.586C361.434 406.489 360.654 405.027 360.047 403.811C359.37 402.455 358.637 400.841 357.894 399.123C357.152 397.409 356.374 395.531 355.598 393.608C355.954 394.718 356.28 395.789 356.546 396.748C356.846 397.836 357.27 399.458 357.327 400.845C357.602 407.477 352.449 413.076 345.817 413.351C339.186 413.625 333.587 408.472 333.312 401.84C333.254 400.445 333.546 398.775 333.759 397.654C334.018 396.294 334.375 394.71 334.762 393.105C334.866 392.676 334.972 392.24 335.082 391.802C335.027 391.8 334.972 391.798 334.917 391.797L334.897 391.796L334.891 391.796C311.366 391.09 291.377 390.734 275.917 401.865L275.894 401.881C264.626 409.995 237.774 429.328 205.848 439.477C173.752 449.681 135.382 450.894 102.811 420.963C95.7956 414.517 90.0662 408.04 85.4201 401.52C83.6675 403.32 81 403.977 78.573 403.122C75.8226 402.153 74.0481 399.478 74.225 396.567L74.477 392.42L70.3402 392.034C67.4368 391.763 65.065 389.599 64.5289 386.733C63.9928 383.866 65.4223 380.992 68.0315 379.69L71.749 377.835L70.0151 374.059C69.1363 372.145 69.2507 369.979 70.2159 368.208C65.8223 349.471 67.4255 331.009 68.9386 313.585L68.9841 313.06C70.9648 290.243 72.7056 268.982 63.6566 247.264C42.6391 196.822 56.2572 145.039 90.7273 116.849L88.1157 111.162C86.8987 108.512 87.5864 105.377 89.8007 103.479ZM98.4104 119.15C63.8234 144.596 48.944 194.977 69.684 244.753C79.436 268.158 77.454 290.99 75.4893 313.625C74.0032 330.745 72.527 347.752 76.1452 364.807C76.4685 366.331 76.8325 367.856 77.2408 369.381C77.3485 369.783 77.4593 370.185 77.5733 370.588C77.7873 371.344 78.0124 372.099 78.249 372.855L75.9489 371.334L80.3209 380.854L70.9472 385.532L81.3781 386.506L80.7425 396.963L85.7293 389.929C86.3031 390.93 86.9027 391.931 87.5292 392.932C88.1531 393.929 88.8037 394.927 89.4819 395.926C94.0452 402.643 99.8595 409.383 107.229 416.155C167.628 471.657 249.581 412.781 272.102 396.566C289.685 383.907 312.116 384.58 335.087 385.269L335.093 385.269C335.654 385.286 336.218 385.303 336.779 385.32C337.633 385.345 338.489 385.37 339.344 385.394C340.729 385.433 342.115 385.468 343.501 385.498C343.411 385.823 343.317 386.164 343.221 386.517C342.772 388.158 342.258 390.074 341.768 391.989C341.696 392.271 341.625 392.552 341.555 392.832C340.594 396.65 339.783 400.302 339.836 401.57C339.961 404.599 342.518 406.952 345.547 406.827C348.575 406.701 350.929 404.144 350.803 401.115C350.751 399.848 349.64 396.275 348.367 392.549C348.316 392.401 348.265 392.252 348.214 392.103C347.505 390.043 346.757 387.962 346.121 386.222C346.036 385.989 345.953 385.763 345.872 385.543C347.259 385.565 348.645 385.58 350.03 385.584C350.966 385.587 351.9 385.585 352.834 385.578C355.026 385.561 357.212 385.512 359.389 385.421C362.304 392.962 365.787 401.465 367.426 403.54C370.519 407.458 376.204 408.127 380.122 405.033C384.04 401.94 384.709 396.255 381.615 392.337C381.135 391.729 380.155 390.838 378.841 389.768C376.961 388.237 374.398 386.336 371.641 384.367C374.611 383.957 377.549 383.422 380.446 382.731C394.705 379.326 407.966 372.125 419.018 357.389C447.372 319.583 452.154 273.756 427.18 231.694C422.93 224.537 418.975 217.667 415.203 211.115C381.512 152.598 362.446 119.482 278.776 133.725C277.457 130.187 274.397 127.389 270.425 126.582C264.348 125.349 258.42 129.239 257.122 135.286C232.326 134.719 209.222 126.563 187.811 119.004C164.074 110.624 142.417 102.978 122.839 107.221C122.297 107.339 121.756 107.465 121.217 107.601C119.522 108.029 117.843 108.549 116.179 109.169L116.479 104.242L111.569 111.167C111.118 111.389 110.669 111.614 110.222 111.843C108.206 112.875 106.239 113.983 104.323 115.163C104.305 115.174 104.288 115.185 104.27 115.196L94.0495 108.437L98.8285 118.844C98.6888 118.946 98.5495 119.047 98.4104 119.15Z" fill="black"/>
<path d="M417.051 163.158L356.488 360.189L341.942 357.269L403.39 158.985L417.051 163.158Z" fill="#BB7F26"/>
<path d="M421.677 176.188L446.509 366.428L433.366 363.979L407.853 178.086L421.677 176.188Z" fill="#AA6F17"/>
<path d="M320.775 257.014L439.527 279.146L437.733 288.775L318.98 266.643L320.775 257.014Z" fill="#BB7F26"/>
<path d="M364.406 146.049L457.768 163.449L424.604 276.824L331.242 259.425L364.406 146.049Z" fill="#F08C00"/>
<path d="M369.479 204.35C385.221 170.932 372.251 162.86 366.654 149.7L453.65 165.913C417.227 172.858 440.184 194.1 427.663 206.308C407.774 225.698 415.743 249.324 418.742 272.501L350.135 259.715C346.632 252.331 388.249 245.008 378.096 236.653C365.405 226.21 361.72 220.821 369.479 204.35Z" fill="#FFD83F"/>
<path d="M411.668 170.197C407.149 171.474 397.357 176.455 394.35 186.17C401.744 187.453 408.976 176.056 411.668 170.197Z" fill="white"/>
<path d="M410.615 206.671C408.61 202.177 402.295 193.021 393.082 192.355C393.367 200.591 404.89 205.331 410.615 206.671Z" fill="white"/>
<path d="M379.969 214.727C383.63 211.478 390.698 202.468 389.684 192.42C382.384 194.738 380.166 208.257 379.969 214.727Z" fill="white"/>
<path d="M365.477 186.34C369.261 189.115 378.956 193.577 387.458 189.223C383.542 182.326 371.173 184.427 365.477 186.34Z" fill="white"/>
<path d="M383.513 162.469C382.818 167.512 383.198 179.163 390.281 185.424C394.287 178.278 387.438 167.143 383.513 162.469Z" fill="white"/>
<path d="M396.873 190.875C396.23 194.324 393.176 196.648 390.051 196.066C386.926 195.483 384.914 192.215 385.557 188.766C386.2 185.316 389.254 182.992 392.379 183.575C395.504 184.157 397.516 187.425 396.873 190.875Z" fill="#C0EB75"/>
<g filter="url(#filter1_i_39_1803)">
<path d="M84.3757 283.813C84.3757 145.393 229.284 112.996 306.174 166.008C388.978 223.098 344.619 274.978 303.216 263.197C294.507 260.719 287.238 259.544 281.188 259.398C262.829 259.398 252.942 272.033 252.942 286.758C252.942 301.484 262.827 315.517 281.188 315.517C291.387 315.517 300.259 310.319 306.174 301.484C317.348 284.791 339.356 285.948 350.533 295.594C362.15 305.618 362.614 324.76 356.448 339.77C329.832 404.563 276.601 425.179 226.326 425.179C170.137 425.179 87.333 383.947 84.3757 283.813Z" fill="#F5F5F5"/>
</g>
<path fill-rule="evenodd" clip-rule="evenodd" d="M84.4919 277.081C84.4148 279.295 84.3757 281.539 84.3757 283.811C87.333 383.945 170.137 425.176 226.326 425.176C276.601 425.176 329.832 404.56 356.448 339.768C359.583 332.136 361.004 323.435 360.117 315.408C359.601 320.397 358.335 325.379 356.448 329.973C329.832 394.766 276.601 415.382 226.326 415.382C170.714 415.382 89.0298 374.992 84.4919 277.081ZM253.315 281.883C255.272 269.349 264.893 259.396 281.188 259.396C287.238 259.542 294.507 260.717 303.216 263.195C329.092 270.557 356.123 253.054 352.543 224.953C349.539 247.163 325.932 259.864 303.216 253.4C294.507 250.922 287.238 249.748 281.188 249.602C262.829 249.602 252.942 262.236 252.942 276.961C252.942 278.617 253.067 280.264 253.315 281.883Z" fill="#D5D5D5"/>
<path fill-rule="evenodd" clip-rule="evenodd" d="M77.8461 283.909V283.812C77.8461 211.872 115.75 166.829 163.966 147.08C211.703 127.527 269.496 132.789 309.88 160.632C352.031 189.693 364.755 219.536 357.496 242.404C350.327 264.989 324.9 276.155 301.429 269.477C293.134 267.117 286.452 266.065 281.11 265.927C273.55 265.945 268.292 268.509 264.906 272.061C261.447 275.689 259.472 280.842 259.472 286.757C259.472 292.708 261.474 298.296 265.055 302.315C268.541 306.227 273.807 308.986 281.187 308.986C288.957 308.986 295.898 305.095 300.747 297.851C314.553 277.228 341.299 279 354.799 290.649C362.197 297.033 365.74 306.062 366.656 315.157C367.571 324.244 365.936 333.857 362.488 342.25C334.615 410.102 278.52 431.707 226.326 431.707C167.726 431.707 80.9406 388.69 77.8489 284.005L77.8461 283.909ZM281.187 259.398C287.238 259.544 294.507 260.718 303.216 263.196C344.618 274.977 388.978 223.097 306.173 166.008C229.284 112.995 84.3757 145.392 84.3757 283.812C87.333 383.946 170.137 425.178 226.326 425.178C276.6 425.178 329.832 404.562 356.448 339.769C362.613 324.76 362.15 305.618 350.533 295.593C339.356 285.948 317.348 284.79 306.173 301.483C300.259 310.318 291.387 315.516 281.187 315.516C262.827 315.516 252.942 301.483 252.942 286.757C252.942 272.032 262.829 259.398 281.187 259.398Z" fill="black"/>
<path d="M231.292 201.277C231.292 213.085 228.777 216.67 207.844 222.658C195.593 226.162 182.32 218.795 182.32 206.987C182.32 195.179 187.953 187.621 200.903 187.621C213.852 187.621 227.45 187.621 231.292 201.277Z" fill="#228BE6"/>
<path fill-rule="evenodd" clip-rule="evenodd" d="M237.821 200.376V201.277C237.821 207.427 237.262 213.743 231.944 218.857C227.352 223.272 219.883 226.006 209.64 228.936C201.79 231.181 193.553 229.979 187.154 226.179C180.691 222.342 175.79 215.594 175.79 206.987C175.79 200.151 177.413 193.499 181.9 188.51C186.499 183.397 193.142 181.092 200.903 181.092C201.068 181.092 201.234 181.092 201.401 181.092C207.513 181.09 214.993 181.089 221.449 183.093C228.688 185.34 234.959 190.201 237.577 199.509L237.821 200.376ZM231.292 201.277C227.45 187.622 213.852 187.622 200.903 187.622C187.953 187.622 182.32 195.179 182.32 206.987C182.32 218.796 195.593 226.162 207.844 222.658C228.777 216.67 231.292 213.086 231.292 201.277Z" fill="black"/>
<path d="M167.971 240.677C173.534 250.883 160.007 259.447 148.199 259.447C136.391 259.447 126.818 255.071 126.818 243.126C126.818 231.18 134.376 223.534 146.184 223.534C157.992 223.534 161.52 228.843 167.971 240.677Z" fill="#E64980"/>
<path fill-rule="evenodd" clip-rule="evenodd" d="M168.742 258.936C163.293 263.41 155.452 265.976 148.199 265.976C141.662 265.976 134.836 264.794 129.451 261.194C123.664 257.324 120.288 251.148 120.288 243.125C120.288 235.758 122.645 229.099 127.429 224.26C132.221 219.412 138.841 217.004 146.184 217.004C153.216 217.004 158.751 218.642 163.419 222.782C167.591 226.482 170.597 231.851 173.704 237.551C175.88 241.543 176.343 245.786 175.144 249.788C173.998 253.614 171.509 256.664 168.742 258.936ZM148.199 259.447C160.008 259.447 173.534 250.883 167.971 240.676C161.52 228.842 157.993 223.534 146.184 223.534C134.376 223.534 126.818 231.18 126.818 243.125C126.818 255.071 136.391 259.447 148.199 259.447Z" fill="black"/>
<path d="M172.525 320.395C172.525 333.797 160.001 332.597 150.26 328.476C137.272 322.98 124.632 328.476 121.037 316.111C116.863 301.752 130.778 288.635 147.011 292.919C160.001 296.346 172.525 306.992 172.525 320.395Z" fill="#FD7E14"/>
<path fill-rule="evenodd" clip-rule="evenodd" d="M166.313 337.412C160.03 338.655 152.978 336.716 147.716 334.489C145.178 333.415 142.556 332.834 139.771 332.424C138.445 332.229 137.143 332.081 135.769 331.925C135.685 331.916 135.6 331.906 135.516 331.896C134.095 331.735 132.559 331.557 131.069 331.313C128.148 330.833 124.674 329.997 121.58 327.857C118.277 325.573 116.022 322.249 114.767 317.934C108.887 297.709 128.568 281.299 148.677 286.605C156.206 288.592 163.63 292.66 169.262 298.304C174.912 303.967 179.055 311.552 179.055 320.395C179.055 324.735 178.036 328.725 175.573 331.896C173.075 335.114 169.663 336.749 166.313 337.412ZM150.26 328.476C160.001 332.597 172.525 333.797 172.525 320.395C172.525 306.992 160.001 296.346 147.011 292.918C130.778 288.635 116.863 301.752 121.037 316.111C123.313 323.938 129.213 324.608 136.531 325.44C140.774 325.922 145.494 326.459 150.26 328.476Z" fill="black"/>
<path d="M257.41 344.121C257.41 356.722 240.606 363.921 227.573 363.921C214.541 363.921 198.632 351.005 207.983 341.105C217.334 331.206 216.446 326.591 230.693 322.165C243.163 318.29 257.41 331.521 257.41 344.121Z" fill="#40C057"/>
<path fill-rule="evenodd" clip-rule="evenodd" d="M207.733 340.869L203.237 336.623C205.354 334.381 206.898 332.435 208.295 330.616C208.494 330.356 208.697 330.09 208.903 329.821C210.068 328.294 211.329 326.639 212.713 325.146C216.405 321.16 220.84 318.39 228.756 315.93C237.818 313.115 246.778 316.683 252.983 322.013C259.183 327.338 263.94 335.485 263.94 344.123C263.94 353.715 257.496 360.436 250.651 364.399C243.735 368.401 235.129 370.451 227.574 370.451C219.211 370.451 210.338 366.451 204.753 360.828C201.919 357.976 199.453 354.221 198.806 349.791C198.115 345.057 199.639 340.432 203.237 336.623L207.733 340.869ZM227.574 363.922C240.606 363.922 257.411 356.723 257.411 344.123C257.411 331.522 243.164 318.291 230.693 322.166C220.561 325.314 218.084 328.557 214.134 333.73C212.53 335.83 210.684 338.248 207.984 341.106C198.633 351.006 214.541 363.922 227.574 363.922Z" fill="black"/>
<path d="M237.722 276.062C235.941 287.669 228.11 288.83 218.775 288.83C209.44 288.83 198.644 287.191 198.644 274.901C198.644 267.697 201.157 262.617 214.038 259.811C224.696 257.489 239.161 266.681 237.722 276.062Z" fill="#54E1B7"/>
<path fill-rule="evenodd" clip-rule="evenodd" d="M234.094 292.59C229.181 295.146 223.403 295.359 218.775 295.359C213.99 295.359 207.609 294.992 202.273 292.305C199.466 290.892 196.819 288.778 194.915 285.683C193.013 282.591 192.114 278.949 192.114 274.9C192.114 270.584 192.86 265.614 196.628 261.37C200.219 257.325 205.679 254.948 212.648 253.429C220.137 251.798 228.208 254.225 234.039 258.114C239.624 261.839 245.471 268.61 244.176 277.051C243.041 284.45 239.667 289.691 234.094 292.59ZM218.775 288.829C228.11 288.829 235.941 287.668 237.722 276.06C239.161 266.68 224.696 257.488 214.038 259.809C201.157 262.615 198.644 267.695 198.644 274.9C198.644 287.19 209.44 288.829 218.775 288.829Z" fill="black"/>
<path d="M307.649 208.856L291.929 188.453L404.338 95.9214C413.614 88.2851 427.394 89.9711 434.556 99.6187C441.774 109.342 439.299 123.138 429.151 129.745L307.649 208.856Z" fill="#1C7ED6"/>
<path fill-rule="evenodd" clip-rule="evenodd" d="M306.158 217.618L282.899 187.429L400.189 90.8792C412.349 80.8694 430.412 83.0794 439.8 95.7257C449.262 108.471 446.017 126.555 432.715 135.216L306.158 217.618ZM291.93 188.452L307.65 208.855L429.152 129.744C439.3 123.137 441.775 109.341 434.557 99.6178C427.395 89.9702 413.615 88.2842 404.339 95.9205L291.93 188.452Z" fill="black"/>
<path d="M290.701 220.451L276.321 201.033L294.483 186.265L310.026 207.255L290.701 220.451Z" fill="#5D6163"/>
<path fill-rule="evenodd" clip-rule="evenodd" d="M289.195 229.388L267.362 199.904L295.666 176.888L319.312 208.821L289.195 229.388ZM290.702 220.452L276.323 201.033L294.484 186.265L310.028 207.255L290.702 220.452Z" fill="black"/>
<path d="M251.282 255.959C251.282 255.959 236.182 225.356 251.778 210.335C261.372 201.094 275.411 202.328 275.411 202.328C275.411 202.328 279.224 207.977 289.995 222.022C276.697 257.149 266.878 240.938 251.282 255.959Z" fill="white"/>
<path fill-rule="evenodd" clip-rule="evenodd" d="M245.428 258.848L251.284 255.958C253.12 254.19 254.877 252.854 256.568 251.816C260.206 249.585 263.543 248.733 266.73 247.919C274.644 245.899 281.632 244.115 289.996 222.021C279.226 207.976 275.413 202.327 275.413 202.327L275.984 195.822C277.944 195.994 279.722 197.041 280.824 198.672C280.824 198.672 280.824 198.672 280.824 198.672L280.827 198.677L280.852 198.714L280.975 198.893C281.089 199.058 281.269 199.318 281.521 199.677C282.026 200.396 282.819 201.513 283.95 203.071C286.212 206.187 289.823 211.065 295.178 218.047C296.553 219.841 296.903 222.219 296.103 224.333C292.654 233.445 289.238 239.765 285.554 244.201C281.713 248.828 277.754 251.197 273.742 252.662C271.242 253.575 269.196 254.093 267.372 254.554C263.274 255.59 260.296 256.343 255.813 260.661C254.313 262.107 252.213 262.749 250.16 262.391C248.108 262.032 246.35 260.716 245.428 258.848ZM275.413 202.327C275.984 195.822 275.982 195.822 275.979 195.822L275.974 195.821L275.963 195.82L275.937 195.818L275.869 195.813C275.817 195.809 275.751 195.804 275.672 195.799C275.514 195.789 275.304 195.777 275.045 195.767C274.527 195.747 273.813 195.733 272.941 195.75C271.204 195.784 268.798 195.942 266.038 196.438C260.588 197.418 253.3 199.804 247.25 205.631C236.93 215.57 237.352 229.998 239.27 240.008C240.274 245.245 241.8 249.913 243.059 253.249C243.693 254.926 244.268 256.291 244.692 257.252C244.904 257.732 245.079 258.113 245.206 258.383C245.269 258.517 245.32 258.624 245.357 258.702L245.403 258.797L245.418 258.828L245.426 258.844C245.427 258.846 245.428 258.848 251.284 255.958C251.284 255.958 250.051 253.461 248.654 249.542C245.161 239.744 240.639 221.064 251.779 210.334C261.373 201.093 275.413 202.327 275.413 202.327Z" fill="black"/>
<path d="M251.282 255.958C251.282 255.958 246.312 245.885 245.02 234.461C244.677 231.433 249.935 241.295 249.935 241.295L252.146 231.614L256.453 241.682L264.697 240.538L261.147 245.233C261.147 245.233 275.251 246.038 267.531 247.881C262.604 249.058 257.358 250.106 251.282 255.958Z" fill="#228BE6"/>
<path d="M279.257 139.913C278.015 146.032 260.202 176.948 260.202 176.948C260.202 176.948 255.854 141.534 257.097 135.414C258.339 129.295 264.307 125.341 270.426 126.583C276.545 127.826 280.499 133.793 279.257 139.913Z" fill="#339AF0"/>
<path d="M301.786 163.502C299.277 164.997 282.973 168.562 282.973 168.562C282.973 168.562 293.86 155.913 296.369 154.417C298.878 152.921 302.124 153.742 303.62 156.251C305.116 158.76 304.295 162.006 301.786 163.502Z" fill="#86CAF1"/>
<path d="M367.427 403.54C364.333 399.622 354.661 372.784 354.661 372.784C354.661 372.784 378.523 388.419 381.616 392.337C384.71 396.255 384.042 401.94 380.123 405.033C376.205 408.127 370.521 407.458 367.427 403.54Z" fill="#FD7E14"/>
<path d="M339.836 401.57C339.71 398.541 344.514 381.9 344.514 381.9C344.514 381.9 350.678 398.087 350.804 401.115C350.929 404.144 348.576 406.701 345.547 406.826C342.519 406.952 339.962 404.599 339.836 401.57Z" fill="#F3D14C"/>
<path d="M94.0504 108.437L107.296 117.197L116.479 104.242L115.516 120.093L131.327 121.569L117.119 128.66L123.746 143.091L110.5 134.331L101.316 147.286L102.28 131.435L86.4688 129.959L100.677 122.868L94.0504 108.437Z" fill="#40C057"/>
<path d="M75.9491 371.335L84.6873 377.113L90.7461 368.567L90.1106 379.024L100.541 379.998L91.1677 384.676L95.5397 394.196L86.8015 388.417L80.7427 396.964L81.3782 386.507L70.9473 385.533L80.3211 380.855L75.9491 371.335Z" fill="#40C057"/>
<path d="M72.6441 170.565L83.1143 177.957L88.5342 166.342L89.2824 179.138L101.742 176.133L92.2052 184.696L102.323 192.565L89.6818 190.447L89.8381 203.263L83.6123 192.06L73.6898 200.172L78.5673 188.32L66.0377 185.62L78.3456 182.044L72.6441 170.565Z" fill="#FCC419"/>
<path d="M376.219 331.849L383.797 342.216L392.656 332.92L389.276 345.308L402.067 346.439L390.274 351.52L397.365 362.226L386.04 356.174L382.092 368.392L379.762 355.765L367.747 360.296L376.167 350.601L365.134 344.033L377.963 344.571L376.219 331.849Z" fill="#1971C2"/>
<path d="M397.797 218.637C397.797 223.145 394.143 226.799 389.635 226.799C385.127 226.799 381.473 223.145 381.473 218.637C381.473 214.129 385.127 210.475 389.635 210.475C394.143 210.475 397.797 214.129 397.797 218.637Z" fill="#FFA8A8"/>
<path d="M130.083 159.871C130.083 162.575 127.891 164.768 125.186 164.768C122.481 164.768 120.289 162.575 120.289 159.871C120.289 157.166 122.481 154.974 125.186 154.974C127.891 154.974 130.083 157.166 130.083 159.871Z" fill="#FFA8A8"/>
<path d="M208.573 192.497C208.716 193.387 206.666 194.455 203.996 194.883C201.325 195.31 199.044 194.935 198.902 194.045C198.76 193.154 200.809 192.086 203.48 191.659C206.15 191.231 208.431 191.607 208.573 192.497Z" fill="white" fill-opacity="0.29"/>
<path d="M222.722 262.379C223.02 262.895 221.675 264.229 219.718 265.359C217.761 266.488 215.933 266.985 215.635 266.468C215.337 265.952 216.682 264.618 218.639 263.489C220.596 262.36 222.424 261.863 222.722 262.379Z" fill="white" fill-opacity="0.29"/>
<path d="M143.277 231.675C143.42 232.565 141.37 233.633 138.699 234.06C136.029 234.488 133.748 234.112 133.606 233.222C133.463 232.332 135.513 231.264 138.184 230.837C140.854 230.409 143.135 230.784 143.277 231.675Z" fill="white" fill-opacity="0.29"/>
<path d="M144.518 302.656C144.66 303.54 142.697 304.59 140.134 305C137.571 305.41 135.378 305.026 135.237 304.141C135.095 303.257 137.058 302.208 139.621 301.797C142.184 301.387 144.377 301.772 144.518 302.656Z" fill="white" fill-opacity="0.29"/>
<path d="M237.487 329.555C237.751 330.411 235.955 331.725 233.475 332.491C230.994 333.257 228.77 333.184 228.505 332.328C228.241 331.472 230.038 330.158 232.518 329.392C234.998 328.626 237.223 328.699 237.487 329.555Z" fill="white" fill-opacity="0.29"/>
<defs>
<filter id="filter0_i_39_1803" x="401.274" y="169.665" width="51.7162" height="203.299" filterUnits="userSpaceOnUse" color-interpolation-filters="sRGB">
<feFlood flood-opacity="0" result="BackgroundImageFix"/>
<feBlend mode="normal" in="SourceGraphic" in2="BackgroundImageFix" result="shape"/>
<feColorMatrix in="SourceAlpha" type="matrix" values="0 0 0 0 0 0 0 0 0 0 0 0 0 0 0 0 0 0 127 0" result="hardAlpha"/>
<feOffset dy="13.0592"/>
<feComposite in2="hardAlpha" operator="arithmetic" k2="-1" k3="1"/>
<feColorMatrix type="matrix" values="0 0 0 0 0 0 0 0 0 0 0 0 0 0 0 0 0 0 0.2 0"/>
<feBlend mode="normal" in2="shape" result="effect1_innerShadow_39_1803"/>
</filter>
<filter id="filter1_i_39_1803" x="84.3757" y="141.914" width="276.001" height="283.264" filterUnits="userSpaceOnUse" color-interpolation-filters="sRGB">
<feFlood flood-opacity="0" result="BackgroundImageFix"/>
<feBlend mode="normal" in="SourceGraphic" in2="BackgroundImageFix" result="shape"/>
<feColorMatrix in="SourceAlpha" type="matrix" values="0 0 0 0 0 0 0 0 0 0 0 0 0 0 0 0 0 0 127 0" result="hardAlpha"/>
<feOffset dy="-9.7944"/>
<feComposite in2="hardAlpha" operator="arithmetic" k2="-1" k3="1"/>
<feColorMatrix type="matrix" values="0 0 0 0 0 0 0 0 0 0 0 0 0 0 0 0 0 0 0.25 0"/>
<feBlend mode="normal" in2="shape" result="effect1_innerShadow_39_1803"/>
</filter>
</defs>
</svg>
