<svg width="512" height="512" viewBox="0 0 512 512" fill="none" xmlns="http://www.w3.org/2000/svg">
<path fill-rule="evenodd" clip-rule="evenodd" d="M165.553 92.3359C161.594 93.6929 157.64 95.1522 153.711 96.7207L153.318 95.4124L50.267 126.384L65.5887 177.363C62.2696 186.215 59.8995 195.811 58.6615 206.21C54.5385 240.844 67.3374 263.015 84.034 291.939C85.675 294.781 87.3536 297.689 89.0574 300.68V340.591C89.0574 348.902 95.7951 355.64 104.106 355.64H115.559C117.951 361.952 120.262 368.642 122.454 375.765C138.663 428.443 232.033 453.951 322.119 427.806H444.3C447.344 427.806 449.811 424.8 449.811 421.091C449.811 417.383 447.344 414.376 444.3 414.376H426.309V358.26C465.655 295.835 461.391 201.542 436.382 157.526C435.778 156.463 435.159 155.411 434.525 154.369C437.789 151.758 439.88 147.741 439.88 143.236C439.88 142.816 439.861 142.4 439.826 141.988C443.667 140.788 446.455 137.202 446.455 132.965V101.506C446.455 96.2862 442.223 92.0545 437.003 92.0545H353.337C302.277 73.2103 239.107 71.6866 182.89 87.0182C177.144 88.5852 171.343 90.351 165.553 92.3359ZM154.596 82.8715C152.993 82.7074 151.331 82.8502 149.691 83.3432L46.6396 114.315C39.974 116.318 36.1944 123.346 38.1978 130.011L52.3305 177.035C49.4137 185.684 47.3158 194.906 46.1474 204.72C41.5278 243.525 56.1913 268.921 72.56 297.27L73.1195 298.239C74.223 300.151 75.3343 302.076 76.4549 304.029V340.591C76.4549 355.862 88.8349 368.242 104.106 368.242H106.731C107.988 371.856 109.217 375.596 110.409 379.471C120.391 411.914 152.963 433.366 191.358 443.527C229.875 453.72 277.365 453.578 323.889 440.409H444.3C456.518 440.409 462.414 429.317 462.414 421.091C462.414 412.865 456.518 401.774 444.3 401.774H438.911V361.822C458.751 328.731 467.345 288.517 468.079 251.238C468.792 215.024 462.112 179.936 449.562 155.421C450.536 153.512 451.289 151.469 451.787 149.328C456.248 145.297 459.057 139.466 459.057 132.965V101.506C459.057 89.326 449.183 79.4519 437.003 79.4519H355.555C302.181 60.3496 237.276 59.123 179.574 74.8597C171.33 77.1079 162.945 79.7578 154.596 82.8715ZM389.376 414.376V397.076C388.273 397.823 387.154 398.553 386.019 399.267C384.667 400.118 383.309 400.953 381.946 401.774C380.23 402.806 378.506 403.815 376.773 404.8C375.384 405.59 373.989 406.365 372.589 407.126V414.376H389.376Z" fill="white"/>
<path d="M436.38 157.527C394.411 83.6607 278.577 60.9226 182.888 87.0191C127.489 102.128 67.0536 135.703 58.6599 206.211C51.4653 266.646 95.7966 289.133 122.453 375.766C142.597 441.237 281.935 464.74 386.017 399.268C466.464 348.664 467.938 213.069 436.38 157.527Z" fill="#A9D6FF"/>
<path fill-rule="evenodd" clip-rule="evenodd" d="M331.321 78.6777C378.534 90.5978 419.754 115.511 441.858 154.414C458.517 183.735 466.048 233.023 459.443 281.107C452.828 329.259 431.784 377.924 389.372 404.602C336.023 438.161 273.706 448.909 222.027 442.88C196.179 439.864 172.728 432.621 154.283 421.686C135.847 410.757 122.056 395.904 116.429 377.619C105.272 341.359 91.0328 316.683 78.6101 295.155C76.468 291.443 74.3798 287.824 72.3709 284.256C58.6551 259.895 48.5643 237.706 52.4022 205.467C61.2747 130.937 125.194 96.2222 181.229 80.9402C230.07 67.6202 284.054 66.744 331.321 78.6777ZM182.887 87.0194C278.577 60.9229 394.41 83.6609 436.38 157.527C467.937 213.069 466.464 348.665 386.017 399.268C281.934 464.74 142.597 441.238 122.452 375.766C111.072 338.781 96.4702 313.487 84.0318 291.94C67.3351 263.017 54.5363 240.845 58.6593 206.211C67.053 135.704 127.488 102.128 182.887 87.0194Z" fill="black"/>
<path fill-rule="evenodd" clip-rule="evenodd" d="M248.953 390.063V355.641H257.983V390.063H248.953Z" fill="black"/>
<path d="M265.994 395.135C265.994 402.053 260.386 407.662 253.468 407.662C246.549 407.662 240.941 402.053 240.941 395.135C240.941 388.217 246.549 382.609 253.468 382.609C260.386 382.609 265.994 388.217 265.994 395.135Z" fill="black"/>
<path d="M89.0551 149.363H417.876V340.591C417.876 348.902 411.138 355.64 402.827 355.64H104.104C95.7927 355.64 89.0551 348.902 89.0551 340.591V149.363Z" fill="white"/>
<path fill-rule="evenodd" clip-rule="evenodd" d="M82.7538 149.363C82.7538 145.883 85.575 143.062 89.0551 143.062H417.876C421.356 143.062 424.177 145.883 424.177 149.363V340.591C424.177 352.382 414.618 361.941 402.827 361.941H104.104C92.3126 361.941 82.7538 352.382 82.7538 340.591V149.363ZM89.0551 149.363V340.591C89.0551 348.902 95.7927 355.64 104.104 355.64H402.827C411.138 355.64 417.876 348.902 417.876 340.591V149.363H89.0551Z" fill="black"/>
<path d="M88.6459 149.453H417.467V340.681C417.467 348.992 410.729 355.73 402.418 355.73H103.695C95.3835 355.73 88.6459 348.992 88.6459 340.681V149.453Z" fill="white"/>
<path fill-rule="evenodd" clip-rule="evenodd" d="M411.574 155.665H95.3563V340.591C95.3563 345.422 99.2728 349.338 104.104 349.338H402.827C407.658 349.338 411.574 345.422 411.574 340.591V155.665ZM89.0551 149.363V340.591C89.0551 348.902 95.7927 355.64 104.104 355.64H402.827C411.138 355.64 417.876 348.902 417.876 340.591V149.363H89.0551Z" fill="#216CF6"/>
<path d="M67.0529 143.237C67.0529 135.368 73.4323 128.989 81.3017 128.989H425.63C433.499 128.989 439.878 135.368 439.878 143.237C439.878 151.107 433.499 157.486 425.63 157.486H81.3017C73.4323 157.486 67.0529 151.107 67.0529 143.237Z" fill="#216CF6"/>
<path fill-rule="evenodd" clip-rule="evenodd" d="M81.3018 122.688H425.63C436.979 122.688 446.18 131.888 446.18 143.238C446.18 154.587 436.979 163.788 425.63 163.788H81.3018C69.9523 163.788 60.7517 154.587 60.7517 143.238C60.7517 131.888 69.9523 122.688 81.3018 122.688ZM81.3018 128.989C73.4324 128.989 67.053 135.368 67.053 143.238C67.053 151.107 73.4324 157.486 81.3018 157.486H425.63C433.499 157.486 439.879 151.107 439.879 143.238C439.879 135.368 433.499 128.989 425.63 128.989H81.3018Z" fill="black"/>
<path d="M253.467 251.529C253.467 284.316 226.888 310.895 194.1 310.895C161.313 310.895 134.734 284.316 134.734 251.529C134.734 218.741 161.313 192.162 194.1 192.162C226.888 192.162 253.467 218.741 253.467 251.529Z" fill="#FA5252"/>
<path fill-rule="evenodd" clip-rule="evenodd" d="M253.467 251.529C253.467 218.741 226.888 192.162 194.1 192.162V251.529H253.467Z" fill="#FFE066"/>
<path fill-rule="evenodd" clip-rule="evenodd" d="M280.025 200.706C280.025 197.797 282.384 195.438 285.293 195.438H357.35C360.259 195.438 362.618 197.797 362.618 200.706C362.618 203.615 360.259 205.973 357.35 205.973H285.293C282.384 205.973 280.025 203.615 280.025 200.706Z" fill="#FF9191"/>
<path fill-rule="evenodd" clip-rule="evenodd" d="M280.026 217.493C280.026 214.584 282.384 212.226 285.293 212.226H341.271C344.18 212.226 346.538 214.584 346.538 217.493C346.538 220.402 344.18 222.76 341.271 222.76H285.293C282.384 222.76 280.026 220.402 280.026 217.493Z" fill="#FF9191"/>
<path fill-rule="evenodd" clip-rule="evenodd" d="M280.026 236.563C280.026 233.654 282.384 231.296 285.293 231.296H329.154C332.063 231.296 334.421 233.654 334.421 236.563C334.421 239.472 332.063 241.83 329.154 241.83H285.293C282.384 241.83 280.026 239.472 280.026 236.563Z" fill="#FF9191"/>
<path fill-rule="evenodd" clip-rule="evenodd" d="M280.026 253.35C280.026 250.441 282.384 248.083 285.293 248.083H334.685C337.594 248.083 339.952 250.441 339.952 253.35C339.952 256.259 337.594 258.617 334.685 258.617H285.293C282.384 258.617 280.026 256.259 280.026 253.35Z" fill="#FF9191"/>
<path d="M50.2656 126.386L153.317 95.4144L172.842 160.381L69.7912 191.353L50.2656 126.386Z" fill="#FFAF66"/>
<path fill-rule="evenodd" clip-rule="evenodd" d="M44.2304 128.199C43.2288 124.867 45.1185 121.353 48.4514 120.351L151.502 89.3795C154.835 88.3779 158.349 90.2676 159.351 93.6005L178.876 158.567C179.878 161.9 177.988 165.414 174.655 166.416L71.6043 197.387C68.2715 198.389 64.7577 196.499 63.756 193.166L44.2304 128.199ZM50.265 126.386L69.7906 191.353L172.842 160.381L153.316 95.4141L50.265 126.386Z" fill="black"/>
<path d="M50.2656 126.386L153.317 95.4144L112.975 148.113L50.2656 126.386Z" fill="#F78A25"/>
<path fill-rule="evenodd" clip-rule="evenodd" d="M43.9655 126.255C44.0224 123.522 45.8343 121.138 48.4518 120.351L151.503 89.3794C154.12 88.5927 156.947 89.5832 158.5 91.8317C160.054 94.0802 159.981 97.074 158.32 99.2443L117.979 151.943C116.327 154.1 113.479 154.956 110.912 154.067L48.2026 132.34C45.62 131.445 43.9087 128.987 43.9655 126.255ZM50.2655 126.386L112.975 148.113L153.316 95.414L50.2655 126.386Z" fill="black"/>
<path d="M126.481 146.113C126.481 154.458 119.717 161.222 111.372 161.222C103.028 161.222 96.2637 154.458 96.2637 146.113C96.2637 137.769 103.028 131.004 111.372 131.004C119.717 131.004 126.481 137.769 126.481 146.113Z" fill="black"/>
<path d="M107.594 136.534C109.392 135.994 111.092 135.895 112.696 136.239C114.297 136.575 115.673 137.3 116.825 138.414C117.975 139.521 118.804 140.918 119.311 142.607C119.983 144.842 120.189 146.609 119.929 147.909C119.669 149.209 118.909 150.049 117.65 150.427C117.09 150.596 116.551 150.638 116.034 150.556C115.517 150.473 115.054 150.279 114.645 149.973C114.236 149.668 113.913 149.269 113.678 148.776C113.534 149.327 113.261 149.806 112.86 150.212C112.465 150.616 111.974 150.907 111.384 151.084C110.678 151.297 109.984 151.311 109.302 151.127C108.62 150.943 108.007 150.556 107.465 149.965C106.92 149.367 106.502 148.584 106.211 147.616C105.922 146.655 105.836 145.748 105.953 144.896C106.07 144.043 106.358 143.326 106.818 142.743C107.283 142.151 107.868 141.749 108.574 141.537C109.098 141.379 109.611 141.356 110.113 141.467C110.621 141.576 111.087 141.805 111.509 142.155L111.467 142.013C111.34 141.59 111.34 141.233 111.466 140.941C111.593 140.649 111.827 140.452 112.169 140.349C112.504 140.249 112.786 140.291 113.017 140.476C113.252 140.651 113.43 140.954 113.552 141.386L115.198 147.022C115.359 147.45 115.591 147.788 115.896 148.038C116.202 148.287 116.565 148.349 116.987 148.222C117.475 148.075 117.715 147.567 117.707 146.696C117.697 145.818 117.487 144.695 117.076 143.327C116.695 142.06 116.075 141.028 115.217 140.231C114.358 139.434 113.325 138.927 112.117 138.71C110.914 138.485 109.618 138.581 108.228 138.998C106.99 139.37 105.982 140.015 105.202 140.931C104.429 141.846 103.94 142.95 103.733 144.242C103.533 145.532 103.652 146.905 104.09 148.36C104.468 149.62 105.042 150.645 105.812 151.438C106.589 152.228 107.499 152.748 108.543 152.998C109.586 153.248 110.694 153.212 111.868 152.891C112.015 152.855 112.213 152.799 112.46 152.725C112.693 152.655 112.862 152.596 112.967 152.549C113.03 152.522 113.124 152.49 113.247 152.453C113.604 152.345 113.894 152.334 114.118 152.417C114.351 152.506 114.534 152.681 114.668 152.942C114.714 153.04 114.744 153.114 114.759 153.165C114.833 153.412 114.836 153.658 114.766 153.901C114.696 154.144 114.567 154.334 114.378 154.47C114.108 154.654 113.862 154.788 113.641 154.87C113.429 154.957 113.072 155.077 112.57 155.228C110.954 155.713 109.411 155.78 107.94 155.429C106.477 155.075 105.204 154.35 104.121 153.255C103.035 152.153 102.239 150.758 101.731 149.069C101.165 147.184 101.031 145.379 101.33 143.654C101.634 141.92 102.329 140.43 103.415 139.183C104.498 137.929 105.891 137.046 107.594 136.534ZM111.255 148.516C111.633 148.402 111.947 148.217 112.195 147.96C112.45 147.701 112.618 147.4 112.698 147.059C112.783 146.708 112.768 146.343 112.655 145.965L112.464 145.332C112.33 144.912 112.126 144.564 111.853 144.289C111.585 144.005 111.278 143.815 110.933 143.721C110.585 143.619 110.229 143.623 109.865 143.732C109.501 143.841 109.204 144.042 108.974 144.333C108.751 144.622 108.615 144.973 108.564 145.385C108.513 145.797 108.557 146.232 108.695 146.691C108.832 147.149 109.032 147.538 109.295 147.855C109.564 148.171 109.868 148.39 110.206 148.51C110.549 148.621 110.898 148.623 111.255 148.516Z" fill="white"/>
<path fill-rule="evenodd" clip-rule="evenodd" d="M281.314 92.0547C276.094 92.0547 271.862 96.2864 271.862 101.507V132.966C271.862 138.186 276.094 142.417 281.314 142.417H357.091L352.442 162.563L383.435 142.417H437.001C442.221 142.417 446.453 138.186 446.453 132.966V101.507C446.453 96.2865 442.221 92.0547 437.001 92.0547H281.314Z" fill="#FA5252"/>
<path fill-rule="evenodd" clip-rule="evenodd" d="M357.091 142.417H281.314C276.094 142.417 271.862 138.185 271.862 132.965V101.506C271.862 96.2862 276.094 92.0544 281.314 92.0544H437.001C442.221 92.0544 446.453 96.2862 446.453 101.506V132.965C446.453 138.185 442.221 142.417 437.001 142.417H383.435L352.442 162.562L357.091 142.417ZM385.303 148.718H437.001C445.701 148.718 452.754 141.666 452.754 132.965V101.506C452.754 92.8061 445.701 85.7532 437.001 85.7532H281.314C272.614 85.7532 265.561 92.8061 265.561 101.506V132.965C265.561 141.665 272.614 148.718 281.314 148.718H349.17L346.302 161.146C345.725 163.649 346.724 166.252 348.829 167.725C350.934 169.198 353.722 169.246 355.876 167.846L385.303 148.718Z" fill="black"/>
<path d="M312.151 117.236C312.151 121.871 308.393 125.629 303.757 125.629C299.121 125.629 295.363 121.871 295.363 117.236C295.363 112.6 299.121 108.842 303.757 108.842C308.393 108.842 312.151 112.6 312.151 117.236Z" fill="white"/>
<path d="M369.231 117.236C369.231 121.871 365.473 125.629 360.837 125.629C356.202 125.629 352.444 121.871 352.444 117.236C352.444 112.6 356.202 108.842 360.837 108.842C365.473 108.842 369.231 112.6 369.231 117.236Z" fill="white"/>
<path d="M426.309 117.236C426.309 121.871 422.551 125.629 417.915 125.629C413.279 125.629 409.521 121.871 409.521 117.236C409.521 112.6 413.279 108.842 417.915 108.842C422.551 108.842 426.309 112.6 426.309 117.236Z" fill="white"/>
<path d="M335.654 323.516C335.654 321.776 337.064 320.365 338.804 320.365H369.436C371.176 320.365 372.586 321.776 372.586 323.516V421.091H335.654V323.516Z" fill="#FFAF66"/>
<path fill-rule="evenodd" clip-rule="evenodd" d="M378.888 427.392H329.353V323.516C329.353 318.295 333.584 314.064 338.804 314.064H369.436C374.656 314.064 378.888 318.295 378.888 323.516V427.392ZM338.804 320.365C337.064 320.365 335.654 321.776 335.654 323.516V421.09H372.586V323.516C372.586 321.776 371.176 320.365 369.436 320.365H338.804Z" fill="black"/>
<path d="M281.936 357.093C281.936 355.353 283.347 353.942 285.087 353.942H315.718C317.458 353.942 318.869 355.353 318.869 357.093V421.093H281.936V357.093Z" fill="#FA5252"/>
<path fill-rule="evenodd" clip-rule="evenodd" d="M325.17 427.394H275.635V357.093C275.635 351.873 279.867 347.641 285.087 347.641H315.718C320.938 347.641 325.17 351.873 325.17 357.093V427.394ZM285.087 353.942C283.347 353.942 281.936 355.353 281.936 357.093V421.093H318.869V357.093C318.869 355.353 317.458 353.942 315.718 353.942H285.087Z" fill="black"/>
<path d="M389.374 293.299C389.374 291.559 390.785 290.148 392.525 290.148H423.156C424.896 290.148 426.307 291.559 426.307 293.299V421.091H389.374V293.299Z" fill="#FFE066"/>
<path fill-rule="evenodd" clip-rule="evenodd" d="M432.608 427.392H383.073V293.299C383.073 288.078 387.305 283.847 392.525 283.847H423.157C428.377 283.847 432.608 288.078 432.608 293.299V427.392ZM392.525 290.148C390.785 290.148 389.375 291.559 389.375 293.299V421.091H426.307V293.299C426.307 291.559 424.897 290.148 423.157 290.148H392.525Z" fill="black"/>
<path fill-rule="evenodd" clip-rule="evenodd" d="M255.073 421.091C255.073 417.383 257.54 414.376 260.584 414.376H444.297C447.341 414.376 449.808 417.383 449.808 421.091C449.808 424.8 447.341 427.807 444.297 427.807H260.584C257.54 427.807 255.073 424.8 255.073 421.091Z" fill="#216CF6"/>
<path fill-rule="evenodd" clip-rule="evenodd" d="M248.771 421.091C248.771 415.124 252.953 408.075 260.584 408.075H444.297C451.928 408.075 456.11 415.124 456.11 421.091C456.11 427.059 451.928 434.108 444.297 434.108H260.584C252.953 434.108 248.771 427.059 248.771 421.091ZM260.584 414.376C257.54 414.376 255.073 417.383 255.073 421.091C255.073 424.8 257.54 427.807 260.584 427.807H444.297C447.341 427.807 449.809 424.8 449.809 421.091C449.809 417.383 447.341 414.376 444.297 414.376H260.584Z" fill="black"/>
<path d="M225.796 110.322C240.189 103.09 240.706 87.3098 239.166 80.3234L227.569 86.5374C228.959 91.0005 232.594 105.377 225.746 108.924C220.855 111.457 212.7 99.7126 211.155 95.333L200.417 101.087C202.88 107.178 211.403 117.553 225.796 110.322Z" fill="#1883E6"/>
<path d="M223.322 111.396C243.063 105.625 240.706 87.3079 239.165 80.3215L225.626 87.5761C227.016 92.0392 234.343 107.294 223.322 111.396Z" fill="#44ABF6"/>
<path d="M428.544 217.453C436.444 218.842 441.341 212.691 442.802 209.442L436.322 208.477C435.551 210.674 432.73 217.498 428.94 216.88C426.233 216.438 426.466 209.322 427.15 207.113L421.15 206.22C420.323 209.386 420.645 216.064 428.544 217.453Z" fill="#E7A467"/>
<path d="M427.237 217.147C436.84 220.709 441.342 212.69 442.803 209.441L435.238 208.316C434.467 210.512 432.86 218.784 427.237 217.147Z" fill="#FFE066"/>
<path fill-rule="evenodd" clip-rule="evenodd" d="M378.434 239.224C381.006 239.671 382.728 242.118 382.281 244.69C379.298 261.837 365.191 279.178 348.407 293.083C331.469 307.116 310.818 318.471 293.248 323.248C290.729 323.933 288.132 322.447 287.448 319.928C286.763 317.409 288.249 314.813 290.768 314.128C306.773 309.776 326.244 299.171 342.377 285.805C358.666 272.31 370.579 256.812 372.968 243.07C373.416 240.499 375.863 238.777 378.434 239.224Z" fill="#216CF6"/>
<path fill-rule="evenodd" clip-rule="evenodd" d="M377.507 236.476C379.849 235.471 382.567 236.504 383.649 238.811L394.072 261.027C395.181 263.39 394.164 266.204 391.801 267.313C389.438 268.421 386.624 267.405 385.515 265.042L377.034 246.965L357.088 255.525C354.69 256.555 351.911 255.445 350.881 253.046C349.852 250.648 350.962 247.869 353.36 246.84L377.507 236.476Z" fill="#216CF6"/>
<path d="M177.822 382.135C169.179 372.682 156.99 375.695 151.976 378.383L159.237 385.916C162.352 383.888 172.569 378.001 176.763 382.475C179.758 385.671 172.532 394.449 169.514 396.578L175.021 402.292C179.151 399.091 186.465 391.588 177.822 382.135Z" fill="#1883E6"/>
<path d="M179.176 383.797C170.494 369.935 156.986 375.696 151.972 378.384L160.448 387.178C163.564 385.151 173.655 376.248 179.176 383.797Z" fill="#44ABF6"/>
<path d="M185.344 416.788C191.399 410.952 194.379 397.129 186.992 394.515C192.487 398.953 184.895 407.487 180.48 411.742L185.344 416.788Z" fill="#1883E6"/>
<path d="M172.575 403.545C172.575 403.545 165.234 398.454 170.866 395.46C170.866 395.46 167.807 399.235 176.428 396.182C186.405 392.648 191.36 392.739 191.201 401.41C191.269 397.694 189.445 395.801 185.706 396.972C181.967 398.142 175.03 404.829 172.575 403.545Z" fill="#44ABF6"/>
</svg>
