<svg width="512" height="512" viewBox="0 0 512 512" fill="none" xmlns="http://www.w3.org/2000/svg">
<path d="M241.459 131.017L241.455 131.02C240.404 131.898 239.355 132.774 238.305 133.649L125.436 158.828C123.909 159.169 122.566 160.073 121.676 161.361L113.186 173.638C88.6313 184.483 71.4253 205.867 61.9432 230.752C52.248 256.197 50.4361 285.73 57.2239 312.672C66.5531 349.701 89.2705 387.252 126.381 411.335C163.634 435.51 214.748 445.697 279.939 429.03C299.665 423.987 315.308 418.948 328.02 413.843L380.936 423.903C388.593 425.358 395.979 420.331 397.435 412.675L409.125 351.182C412.202 348.684 415.597 346.139 419.414 343.543C445.303 325.93 460.214 292.32 462.342 256.308C464.479 220.14 453.836 180.433 427.201 149.749C408.48 128.182 390.913 113.419 372.939 104.54L380.148 97.3316C382.978 94.5015 384.17 90.6611 383.731 86.9772L387.053 83.6553L383.603 80.2047L387.053 83.6553C390.851 79.8576 390.851 73.7004 387.053 69.9027L368.776 51.6255C364.978 47.8278 358.821 47.8278 355.023 51.6255L359.42 56.0222L355.023 51.6255L351.366 55.283C347.914 55.0761 344.391 56.2895 341.748 58.9321L325.344 75.3361C325.331 75.3318 325.318 75.3277 325.305 75.3235C319.618 73.542 313.564 76.7079 311.782 82.3946C311.093 84.5949 311.144 86.8475 311.794 88.8865L304.324 96.3567C301.441 96.8821 298.527 97.4931 295.578 98.1842C274.966 103.015 258.061 117.142 242.06 130.514L241.465 131.011L241.461 131.014L241.459 131.017Z" stroke="white" stroke-width="12.4358" stroke-linejoin="round"/>
<path d="M159.63 172.806C222.648 178.863 250.151 115.219 296.996 104.24C343.841 93.2614 379.052 103.769 422.505 153.827C473.365 212.419 463.518 306.02 415.915 338.404C368.313 370.788 382.442 396.408 278.398 423.008C150.889 455.607 81.2683 382.661 63.2527 311.155C46.9179 246.32 82.8266 165.425 159.63 172.806Z" fill="#74C0FC"/>
<path fill-rule="evenodd" clip-rule="evenodd" d="M260.964 115.416C271.422 107.775 282.707 101.202 295.577 98.1858C319.81 92.5066 341.639 92.2582 363.201 100.32C384.636 108.335 405.115 124.308 427.201 149.751C453.836 180.434 464.478 220.142 462.341 256.31C460.214 292.321 445.303 325.932 419.413 343.544C407.992 351.314 400.287 358.66 393.488 365.824C391.636 367.776 389.807 369.766 387.962 371.773C383.149 377.009 378.222 382.369 372.465 387.512C356.024 402.199 332.494 415.596 279.939 429.032C214.748 445.699 163.634 435.512 126.381 411.336C89.2703 387.253 66.5529 349.702 57.2237 312.674C48.678 278.755 53.7435 240.604 71.1911 211.687C88.7985 182.505 119.141 162.668 160.225 166.616C189.216 169.403 210.187 156.34 230.488 140.06C234.014 137.233 237.595 134.242 241.208 131.225C247.732 125.776 254.363 120.239 260.964 115.416ZM245.448 135.787C221.697 155.633 196.862 176.384 159.631 172.806C82.8271 165.424 46.9184 246.32 63.2532 311.154C81.2688 382.661 150.89 455.607 278.399 423.008C349.014 404.954 365.194 387.352 383.184 367.78C391.7 358.515 400.622 348.808 415.916 338.403C463.519 306.019 473.366 212.419 422.506 153.827C379.053 103.768 343.842 93.2609 296.996 104.24C277.828 108.732 261.898 122.043 245.448 135.787Z" fill="black"/>
<path d="M222.14 312.562L331.667 202.565" stroke="black" stroke-width="6.21792" stroke-linecap="round" stroke-linejoin="round"/>
<path fill-rule="evenodd" clip-rule="evenodd" d="M132.123 388.721C128.479 389.545 124.857 387.26 124.032 383.616L87.422 221.831L126.787 164.898L347.08 115.754C350.718 114.942 354.327 117.227 355.15 120.863L400.454 321.064C401.279 324.708 398.993 328.33 395.35 329.155L132.123 388.721Z" fill="#FFEC99"/>
<path fill-rule="evenodd" clip-rule="evenodd" d="M81.3592 223.205C80.9752 221.508 81.3198 219.728 82.3094 218.297L121.675 161.363C122.565 160.076 123.908 159.172 125.435 158.831L345.728 109.686C352.711 108.129 359.638 112.514 361.217 119.492L406.521 319.694C408.103 326.687 403.717 333.638 396.724 335.221L133.497 394.787C126.504 396.369 119.552 391.983 117.97 384.99L81.3592 223.205ZM124.034 383.618C124.859 387.261 128.481 389.547 132.125 388.722L395.351 329.156C398.995 328.332 401.28 324.71 400.456 321.066L355.152 120.864C354.329 117.228 350.72 114.943 347.082 115.755L126.789 164.9L87.4238 221.833L124.034 383.618Z" fill="black"/>
<mask id="path-7-outside-1_39_497" maskUnits="userSpaceOnUse" x="68.7253" y="156.569" width="76.8604" height="73.8419" fill="black">
<rect fill="white" x="68.7253" y="156.569" width="76.8604" height="73.8419"/>
<path fill-rule="evenodd" clip-rule="evenodd" d="M126.79 164.901L135.128 204.631C135.865 208.139 133.65 211.588 130.154 212.379L87.4711 222.038"/>
</mask>
<path fill-rule="evenodd" clip-rule="evenodd" d="M126.79 164.901L135.128 204.631C135.865 208.139 133.65 211.588 130.154 212.379L87.4711 222.038" fill="#FFF3BF"/>
<path fill-rule="evenodd" clip-rule="evenodd" d="M126.79 164.901L135.128 204.631C135.865 208.139 133.65 211.588 130.154 212.379L87.4711 222.038" stroke="black" stroke-width="12.4358" stroke-linecap="round" stroke-linejoin="round" mask="url(#path-7-outside-1_39_497)"/>
<path fill-rule="evenodd" clip-rule="evenodd" d="M224.863 209.963C225.451 212.451 223.91 214.944 221.422 215.531L140.454 234.641C137.966 235.228 135.473 233.687 134.886 231.199C134.298 228.711 135.839 226.218 138.327 225.631L219.295 206.521C221.783 205.934 224.276 207.475 224.863 209.963Z" fill="#0B7285"/>
<path fill-rule="evenodd" clip-rule="evenodd" d="M335.601 221.386C336.174 223.878 334.619 226.362 332.127 226.935L149.861 268.843C147.37 269.415 144.886 267.86 144.313 265.369C143.74 262.877 145.295 260.393 147.787 259.82L330.053 217.913C332.544 217.34 335.028 218.895 335.601 221.386Z" fill="#0B7285"/>
<path fill-rule="evenodd" clip-rule="evenodd" d="M304.652 268.576C305.245 271.062 303.71 273.559 301.223 274.152L159.574 307.917C157.087 308.51 154.59 306.975 153.998 304.488C153.405 302.001 154.94 299.505 157.427 298.912L299.076 265.146C301.563 264.553 304.06 266.089 304.652 268.576Z" fill="#0B7285"/>
<path fill-rule="evenodd" clip-rule="evenodd" d="M203.088 376.906L418.975 229.989C419.841 229.4 420.904 229.179 421.933 229.375C424.074 229.782 425.48 231.848 425.073 233.989L391.325 411.514C390.511 415.797 386.379 418.609 382.096 417.794L204.571 384.046C203.543 383.851 202.634 383.255 202.045 382.389C200.819 380.587 201.286 378.132 203.088 376.906ZM308.94 354.141L368.616 313.614C369.049 313.32 369.58 313.21 370.094 313.308C371.164 313.511 371.867 314.544 371.664 315.615L362.515 363.739C362.108 365.881 360.042 367.286 357.901 366.879L309.68 357.712C309.165 357.615 308.711 357.316 308.416 356.882C307.804 355.981 308.038 354.754 308.94 354.141Z" fill="#63E6BE"/>
<path fill-rule="evenodd" clip-rule="evenodd" d="M199.591 371.767L415.479 224.85C417.707 223.333 420.447 222.764 423.096 223.268C428.611 224.316 432.232 229.637 431.183 235.152L397.435 412.677C395.979 420.333 388.593 425.36 380.936 423.904L203.411 390.156C200.763 389.653 198.423 388.118 196.906 385.889C193.748 381.248 194.95 374.925 199.591 371.767ZM309.682 357.714C309.167 357.616 308.712 357.317 308.418 356.884C307.805 355.982 308.04 354.755 308.941 354.143L368.618 313.615C369.05 313.322 369.582 313.211 370.095 313.309C371.166 313.513 371.869 314.546 371.665 315.616L362.517 363.741C362.11 365.882 360.044 367.288 357.902 366.881L309.682 357.714ZM320.923 353.522L356.832 360.348L363.646 324.508L320.923 353.522ZM418.977 229.991L203.089 376.908C201.287 378.134 200.821 380.589 202.047 382.391C202.636 383.256 203.544 383.852 204.573 384.048L382.098 417.796C386.38 418.61 390.512 415.798 391.326 411.515L425.075 233.99C425.482 231.849 424.076 229.783 421.934 229.376C420.906 229.181 419.842 229.402 418.977 229.991Z" fill="black"/>
<path d="M247.526 379.475L246.052 387.23" stroke="black" stroke-width="6.21792" stroke-linecap="round"/>
<path d="M266.079 376.977L263.868 388.608" stroke="black" stroke-width="6.21792" stroke-linecap="round"/>
<path d="M317.316 392.743L315.842 400.498" stroke="black" stroke-width="6.21792" stroke-linecap="round"/>
<path d="M335.87 390.241L333.659 401.873" stroke="black" stroke-width="6.21792" stroke-linecap="round"/>
<path d="M282.423 386.109L280.948 393.864" stroke="black" stroke-width="6.21792" stroke-linecap="round"/>
<path d="M300.973 383.61L298.762 395.242" stroke="black" stroke-width="6.21792" stroke-linecap="round"/>
<path d="M352.213 399.374L350.739 407.128" stroke="black" stroke-width="6.21792" stroke-linecap="round"/>
<path d="M370.764 396.875L368.552 408.507" stroke="black" stroke-width="6.21792" stroke-linecap="round"/>
<path d="M383.409 391.83L389.635 393.015" stroke="black" stroke-width="6.21792" stroke-linecap="round"/>
<path d="M382.061 373.495L391.4 375.273" stroke="black" stroke-width="6.21792" stroke-linecap="round"/>
<path d="M396.701 322.042L402.927 323.227" stroke="black" stroke-width="6.21792" stroke-linecap="round"/>
<path d="M395.353 303.707L404.692 305.485" stroke="black" stroke-width="6.21792" stroke-linecap="round"/>
<path d="M390.055 356.936L396.281 358.121" stroke="black" stroke-width="6.21792" stroke-linecap="round"/>
<path d="M388.707 338.601L398.046 340.379" stroke="black" stroke-width="6.21792" stroke-linecap="round"/>
<path d="M403.344 287.148L409.57 288.334" stroke="black" stroke-width="6.21792" stroke-linecap="round"/>
<path d="M401.999 268.813L411.338 270.591" stroke="black" stroke-width="6.21792" stroke-linecap="round"/>
<rect x="347.527" y="63.5178" width="20.3243" height="39.0791" rx="6.61563" transform="rotate(-45 347.527 63.5178)" fill="#63E6BE" stroke="black" stroke-width="6.21792"/>
<path d="M268.995 197.233C269.578 197.811 270.365 198.136 271.186 198.136L273.372 198.136C273.926 198.136 274.471 197.988 274.948 197.707C275.635 197.303 276.269 196.813 276.835 196.247L377.95 95.132C381.633 91.4493 381.633 85.4785 377.95 81.7958L357.284 61.1293C353.601 57.4466 347.63 57.4466 343.948 61.1293L242.833 162.244C241.521 163.556 240.692 165.536 240.692 167.822C240.692 168.65 241.023 169.444 241.61 170.027L268.995 197.233Z" fill="#0B7285" stroke="black" stroke-width="6.21792" stroke-linejoin="round"/>
<path d="M240.839 190.311C239.625 189.097 237.657 189.097 236.443 190.311L227.715 199.039C227.009 199.745 226.685 200.747 226.844 201.733C227.003 202.719 227.626 203.568 228.518 204.016L236.751 208.15C237.832 208.693 239.128 208.56 240.076 207.809L247.531 201.907C248.227 201.356 248.654 200.535 248.705 199.649C248.756 198.764 248.427 197.898 247.8 197.271L240.839 190.311Z" fill="#0B7285" stroke="black" stroke-width="6.21792" stroke-linejoin="round"/>
<path d="M273.629 198.107C274.838 198.01 275.879 197.219 276.298 196.082C276.716 194.944 276.436 193.667 275.578 192.81L246.222 163.453C245.408 162.639 244.211 162.342 243.111 162.68C242.01 163.018 241.187 163.936 240.97 165.066L236.119 190.382C235.902 191.515 236.33 192.674 237.23 193.395L244.945 199.567C245.563 200.061 246.347 200.301 247.137 200.238L273.629 198.107Z" fill="white" stroke="black" stroke-width="6.21792" stroke-linecap="round" stroke-linejoin="round"/>
<circle cx="221.089" cy="405.257" r="3.98944" transform="rotate(-32.0043 221.089 405.257)" fill="white"/>
<circle cx="168.039" cy="405.06" r="3.84587" transform="rotate(-32.0043 168.039 405.06)" fill="#FFC078"/>
<circle cx="183.917" cy="396.066" r="6.34414" transform="rotate(-32.0043 183.917 396.066)" fill="#FFE066"/>
<circle cx="393.122" cy="208.747" r="3.10592" transform="rotate(17.394 393.122 208.747)" fill="white"/>
<circle cx="444.004" cy="244.566" r="5.64438" transform="rotate(17.394 444.004 244.566)" fill="#FFE066"/>
<circle cx="71.6608" cy="255.83" r="3.84587" transform="rotate(-32.0043 71.6608 255.83)" fill="#E7F5FF"/>
<circle cx="322.079" cy="85.6213" r="7.68118" transform="rotate(17.394 322.079 85.6213)" fill="#FFE066" stroke="black" stroke-width="6.21792"/>
<circle cx="422.142" cy="172.613" r="3.95593" transform="rotate(17.394 422.142 172.613)" fill="#FFC078"/>
<circle cx="392.252" cy="162.928" r="2.042" transform="rotate(17.394 392.252 162.928)" fill="#E7F5FF"/>
<rect x="71.4614" y="290.574" width="72.0167" height="102.981" rx="10.9079" transform="rotate(-29.0257 71.4614 290.574)" fill="#FFFDEC" stroke="black" stroke-width="6.21792"/>
<rect x="82.7314" y="310.879" width="72.0167" height="68.1462" transform="rotate(-29.0257 82.7314 310.879)" fill="#3290FF" stroke="black" stroke-width="6.21792"/>
<rect x="100.496" y="304.578" width="7.74104" height="61.9283" transform="rotate(-29.0257 100.496 304.578)" fill="white"/>
<rect x="114.031" y="297.066" width="3.87052" height="61.9283" transform="rotate(-29.0257 114.031 297.066)" fill="white"/>
</svg>
